<?xml version="1.0" encoding="UTF-8"?> <svg xmlns="http://www.w3.org/2000/svg" width="360" height="200" viewBox="0 0 360 200" fill="none"> <g clip-path="url(#clip0)"> <rect width="360" height="200" fill="#BEEFE6"></rect> <path d="M122.672 181.531C122.672 181.531 127.961 193.18 144.525 193.34C161.089 193.5 158.845 179.18 158.845 179.18L160.608 143.168L125.29 149.793L122.672 181.531Z" fill="#A13F5E"></path> <path d="M118.293 175.067L122.674 181.532C122.674 181.532 142.497 184.845 139.291 166.625L118.293 175.067Z" fill="white"></path> <path d="M124.542 169.725L114.711 168.603L109.314 164.168C106.536 160.588 104.612 162.94 105.734 164.809C105.093 164.542 102.742 162.298 101.514 162.94C100.552 163.42 101.193 165.077 101.406 165.451C101.033 164.649 99.7502 164.436 99.2693 164.489C98.4679 164.649 97.6664 165.183 98.5747 166.519C99.2693 167.588 103.276 173.359 108.566 176.297C114.657 179.984 128.977 175.496 132.396 169.137L124.542 169.725Z" fill="#FFC5AD"></path> <path d="M199.774 82.2031L204.101 108.011L180.165 114.155L177.867 87.4394L199.774 82.2031Z" fill="#FFC5AD"></path> <path d="M253.738 130.077C253.738 130.077 256.944 190.134 249.41 198.843C242.518 206.857 230.443 204.988 226.328 195.423L236.854 130.077C236.854 130.077 247.327 122.811 253.738 130.077Z" fill="#A13F5E"></path> <path d="M187.164 108.485L167.234 108.062L146.449 233.596C146.449 233.596 155.906 253.111 187.164 253.111C218.367 253.111 230.068 233.596 230.068 233.596L207.04 108.062L187.164 108.485Z" fill="#EBDBE0"></path> <path d="M233.702 111.267C233.702 111.267 219.169 108.863 211.795 107.901C198.277 111.321 185.561 111.748 173.966 107.527C170.761 107.794 172.364 108.061 167.074 109.077C158.578 110.733 141.641 115.328 144.526 135.579C152.434 174.903 140.198 217.755 139.236 236.456C139.023 240.891 142.282 244.791 146.717 245.326C156.334 246.501 174.875 248.478 192.026 248.585C216.657 248.425 237.496 248.585 237.496 248.585C237.496 248.585 240.007 205.68 238.938 187.299C240.381 165.553 255.449 116.771 233.702 111.267Z" fill="#A13F5E"></path> <path d="M201.003 109.828C198.545 112.179 194.484 114.37 187.859 114.37C183.531 114.37 180.219 113.408 177.707 112.072C177.654 112.179 177.6 112.286 177.494 112.393C176.585 114.316 175.57 116.133 174.555 118.003C178.776 120.033 183.584 120.888 187.699 120.888C193.149 120.888 200.041 119.446 205.064 115.652C203.782 113.675 202.446 111.698 201.003 109.828Z" fill="#8A284C"></path> <path d="M167.074 109.082C168.089 112.448 171.616 119.394 178.615 122.172L187.538 108.014C180.485 108.334 174.982 108.067 169.478 104.594L167.074 109.082Z" fill="white"></path> <path d="M187.75 108.067L196.673 122.226C203.673 119.448 209.123 114.265 211.794 107.853L206.184 101.441C200.681 104.968 194.376 107.212 187.75 108.067Z" fill="white"></path> <path d="M144.953 193.34C146.236 184.417 147.518 175.548 148.8 166.625" stroke="#8A284C" stroke-width="1.03209" stroke-miterlimit="10"></path> <path d="M256.195 94.4423C251.814 88.7787 249.249 88.6719 249.249 88.6719C247.165 89.206 245.509 90.8088 243.906 92.5185L241.555 99.8386C242.036 101.869 252.668 101.228 252.668 101.228L250.264 116.563L251.653 116.776C255.768 111.914 261.271 106.945 259.294 102.51C259.294 102.457 259.454 98.6631 256.195 94.4423Z" fill="#FFC5AD"></path> <path d="M238.834 114.904C238.834 114.904 233.652 108.226 234.56 103.363C235.468 98.5012 237.178 90.9675 237.178 90.9675L245.513 86.9067C245.513 86.9067 249.787 88.6164 241.559 93.4249L241.506 99.7836L247.544 97.0052L254.169 87.1204C254.169 87.1204 258.337 75.2585 263.145 78.1437L255.505 98.8217L251.658 116.721L238.834 114.904Z" fill="#FFC5AD"></path> <path d="M258.926 101.117C258.711 101.117 258.551 100.956 258.551 100.742C258.711 96.7353 252.246 89.7893 249.735 89.0947C248.507 88.7206 245.728 91.1248 244.232 92.7277L241.934 99.8341C242.148 100.261 242.576 100.261 243.057 100.208C243.163 100.208 243.217 100.208 243.27 100.208C243.484 100.208 243.644 100.368 243.644 100.582C243.644 100.796 243.43 100.956 243.27 100.956C243.217 100.956 243.163 100.956 243.11 100.956C242.682 101.01 241.614 101.063 241.186 99.9946L241.133 99.8878L243.537 92.4072L243.591 92.354C244.018 91.8731 247.758 87.8655 249.896 88.4532C252.674 89.2547 259.46 96.5216 259.246 100.849C259.299 100.956 259.139 101.117 258.926 101.117Z" fill="#E1A497"></path> <path d="M244.598 104.16C243.636 104.16 242.941 103.732 242.514 103.305C242.247 102.985 242.087 102.61 242.194 102.343C242.354 101.756 246.148 92.9397 249.888 91.871C250.903 91.6036 251.811 91.8173 252.613 92.6187C253.361 93.3133 260.04 99.6184 259.612 102.504C259.559 102.717 259.398 102.824 259.184 102.824C258.971 102.771 258.864 102.61 258.864 102.397C259.185 100.313 254.055 95.0235 252.079 93.1533C251.437 92.5655 250.796 92.4051 250.048 92.6187C246.629 93.5806 242.995 102.023 242.835 102.557C242.835 102.61 242.888 102.717 243.049 102.931C243.369 103.252 244.01 103.572 244.865 103.465C245.079 103.412 245.239 103.572 245.293 103.786C245.346 104 245.186 104.16 244.972 104.213C244.918 104.16 244.758 104.16 244.598 104.16Z" fill="#E1A497"></path> <path d="M247.378 112.232C247.325 112.232 247.272 112.232 247.218 112.179C247.057 112.072 246.951 111.858 247.057 111.698C248.981 107.637 251.225 105.82 252.134 105.179L250.264 103.523C249.836 104.217 248.821 105.66 247.592 106.622C247.004 107.103 246.256 107.263 245.508 107.156C244.76 107.049 244.119 106.622 243.692 106.034L243.531 105.82L243.638 105.607C243.692 105.553 247.592 98.8211 247.966 98.0197C248.447 96.951 249.249 96.31 250.264 96.0959C251.866 95.7754 253.897 96.5237 255.82 98.2333L256.195 98.5538C257.584 99.783 258.866 100.905 259.614 102.187C259.721 102.347 259.668 102.615 259.453 102.668C259.293 102.775 259.026 102.721 258.973 102.508C258.278 101.332 257.049 100.21 255.714 99.0884L255.339 98.7675C253.576 97.2183 251.76 96.47 250.424 96.7905C249.622 96.951 249.034 97.4851 248.607 98.3402C248.233 99.0884 245.081 104.592 244.386 105.767C244.707 106.141 245.134 106.355 245.561 106.408C246.096 106.462 246.684 106.355 247.111 105.981C248.607 104.805 249.836 102.721 249.836 102.721L250.05 102.347L253.362 105.286L252.881 105.553C252.828 105.553 249.996 107.103 247.645 112.019C247.645 112.179 247.485 112.232 247.378 112.232Z" fill="#E1A497"></path> <path d="M205.386 65.0525C201.539 63.1292 197.906 69.2738 197.906 69.2738L198.066 83.3262C198.066 83.3262 201.646 84.3413 205.707 80.2805C210.943 75.0442 209.233 66.9226 205.386 65.0525Z" fill="#EDB1A0"></path> <path d="M176.476 42.8756C156.973 44.7989 153.287 55.4315 159.859 77.926C160.072 79.903 160.874 83.1087 161.141 85.1393C162.156 92.5663 163.171 98.7109 165.095 100.848C168.247 104.428 176.956 107.741 182.513 107.207C188.123 106.672 195.978 101.703 198.436 97.589C200.359 94.3828 202.229 85.7271 201.428 76.6437C201.268 53.4546 195.978 41.0054 176.476 42.8756Z" fill="#FFC5AD"></path> <path d="M201.537 67.6187L199.614 64.3594C199.614 78.5187 201.11 89.9527 192.133 88.2431C187.325 84.7701 173.272 83.755 171.67 88.5635C170.975 90.5942 169.479 92.197 167.449 92.5712C164.029 93.1589 162.106 88.9377 161.144 85.251C160.93 86.2661 160.663 87.3348 160.449 88.3499C161.411 97.7538 165.205 111.913 179.257 111.806C196.515 111.646 200.576 99.0362 200.576 99.0362C206.56 85.8388 202.125 78.6255 201.537 67.6187Z" fill="#322856"></path> <path d="M176.691 83.9137C177.546 85.0887 180.966 85.0887 180.966 85.0887C178.989 85.9975 175.943 86.1575 175.142 84.4478C174.287 82.7913 177.492 78.5705 177.172 72.5859C178.935 78.1427 175.783 82.6313 176.691 83.9137Z" fill="#DB9884"></path> <path d="M159.808 44.5332C147.465 53.0826 158.419 72.5845 158.419 72.5845C159.434 63.9825 157.777 57.7843 159.594 55.1127C161.731 52.067 168.838 55.861 177.173 55.0059C185.561 54.2045 192.08 49.075 194.752 51.6397C197.049 53.884 195.126 62.5933 201.484 68.0433C218.101 37.6941 173.005 18.4058 159.808 44.5332Z" fill="#322856"></path> <path d="M168.461 64.7275C163.011 63.8193 160.82 69.4829 160.82 69.4829C160.82 69.4829 166.377 66.7045 171.613 67.9332C171.613 67.9332 170.919 65.1017 168.461 64.7275Z" fill="#461A26"></path> <path d="M184.762 61.8465C182.571 63.0753 182.838 65.9605 182.838 65.9605C187.38 63.0221 193.524 63.7699 193.524 63.7699C193.524 63.7699 189.624 59.175 184.762 61.8465Z" fill="#461A26"></path> <path d="M180.807 94.1197L180.753 95.7762C180.7 98.0205 178.456 99.5697 176.479 98.6083C175.303 98.0205 174.609 96.6845 175.571 93.7461L180.807 94.1197Z" fill="#FFC5AD"></path> <path d="M184.387 92.7319L185.616 94.8157C186.47 96.3122 188.447 96.7395 189.784 95.7245C191.012 94.7625 191.761 93.1597 189.623 90.8086L184.387 92.7319Z" fill="#FFC5AD"></path> <path d="M175.625 93.7475C175.625 93.7475 182.517 96.6327 189.57 90.8086L175.625 93.7475Z" fill="#DB9884"></path> <path d="M162.587 45.7617C160.93 46.9904 159.808 49.0211 159.755 51.1049C159.648 53.2418 160.556 55.3793 162.106 56.7685C164.403 58.7986 167.716 59.0123 170.708 58.6918C176.799 58.104 184.653 54.4174 189.676 50.8376L162.587 45.7617Z" fill="#322856"></path> <path d="M182.728 75.6871C178.026 68.5806 188.712 64.0389 191.277 71.3053L182.728 75.6871Z" fill="#FFC5AD"></path> <path d="M172.896 77.1291C175.354 68.9544 163.813 67.672 163.492 75.3658L172.896 77.1291Z" fill="#FFC5AD"></path> <path d="M187.592 69.4892C190.584 69.436 192.668 71.7866 191.065 74.6187C191.065 74.6187 190.37 76.061 187.806 76.542C184.76 77.1298 182.73 75.6874 182.73 75.6874C182.57 71.1457 185.241 69.5428 187.592 69.4892Z" fill="white"></path> <path d="M166.435 72.5852C168.733 71.9443 171.725 72.7457 172.846 77.1269C172.846 77.1269 171.35 79.1039 168.252 79.4244C165.687 79.6917 164.565 78.5161 164.565 78.5161C162.214 76.2718 163.55 73.4403 166.435 72.5852Z" fill="white"></path> <path d="M186.255 71.0392C186.576 70.9855 186.897 70.9855 187.217 71.0923C187.111 71.306 187.004 71.5733 187.057 71.8406C187.164 72.4816 187.752 72.9094 188.339 72.802C188.607 72.7489 188.82 72.642 189.034 72.4284C189.194 72.6952 189.301 73.0162 189.354 73.3898C189.568 74.8858 188.553 76.275 187.057 76.4892C185.561 76.7028 184.172 75.6877 183.958 74.1912C183.744 72.642 184.759 71.2528 186.255 71.0392Z" fill="#22326B"></path> <path d="M166.917 73.922C167.237 73.8683 167.558 73.8683 167.879 73.9752C167.772 74.1888 167.665 74.4561 167.718 74.7234C167.825 75.3644 168.413 75.7922 169 75.6853C169.268 75.6317 169.481 75.5249 169.695 75.3112C169.856 75.5785 169.962 75.899 170.016 76.2731C170.23 77.7691 169.214 79.1583 167.718 79.372C166.222 79.5856 164.833 78.5706 164.619 77.0745C164.352 75.5248 165.421 74.1357 166.917 73.922Z" fill="#22326B"></path> <g opacity="0.57"> <path opacity="0.57" d="M159.168 73.4442C159.168 73.4442 164.832 68.1547 173.595 70.6121C173.595 70.6121 176.693 79.3215 168.892 81.6189C161.091 83.9169 159.168 73.4442 159.168 73.4442Z" fill="#FFDED2"></path> </g> <g opacity="0.57"> <path opacity="0.57" d="M194.589 69.1104C194.589 69.1104 187.911 65.2638 179.896 69.6982C179.896 69.6982 178.881 78.8885 187.003 79.3158C195.124 79.7436 194.589 69.1104 194.589 69.1104Z" fill="#FFDED2"></path> </g> <path d="M166.756 82.735C165.474 82.735 164.352 82.414 163.283 81.7194C159.543 79.3688 158.474 73.812 158.421 73.5447L158.367 73.1174L158.688 72.7965C158.955 72.5828 164.779 67.2397 173.863 69.8044L174.236 69.9112L174.397 70.2854C174.45 70.4459 175.999 74.8271 174.183 78.4069C173.221 80.2771 171.565 81.6126 169.16 82.3072C168.306 82.6282 167.504 82.735 166.756 82.735ZM160.077 73.7584C160.398 75.0407 161.52 78.7811 164.084 80.3839C165.367 81.1853 166.917 81.3458 168.679 80.8112C170.603 80.2234 171.939 79.2083 172.687 77.766C173.916 75.3612 173.275 72.316 172.954 71.2473C166.061 69.5376 161.36 72.7433 160.077 73.7584Z" fill="black"></path> <path d="M187.484 80.119C187.324 80.119 187.164 80.119 186.95 80.119C184.492 80.0122 182.569 79.1039 181.179 77.5011C178.561 74.4022 179.042 69.8068 179.096 69.6468L179.149 69.219L179.523 69.0054C187.805 64.4105 194.698 68.2576 194.964 68.4176L195.339 68.6313V69.0591C195.339 69.3259 195.606 74.99 192.507 78.142C191.225 79.4244 189.515 80.119 187.484 80.119ZM180.699 70.1809C180.645 71.3028 180.698 74.3485 182.462 76.4323C183.53 77.7147 185.08 78.3562 187.057 78.463C188.874 78.5698 190.316 78.0352 191.385 76.967C193.522 74.8295 193.736 70.8755 193.789 69.5932C192.293 68.8986 187.003 66.8684 180.699 70.1809Z" fill="black"></path> <path d="M179.74 68.9062L173.453 69.8542L173.692 71.4395L179.979 70.491L179.74 68.9062Z" fill="black"></path> <path d="M194.592 69.7013C194.218 69.7013 193.898 69.4345 193.79 69.0603C193.683 68.6325 194.004 68.2052 194.432 68.0984L201.378 66.7629C201.805 66.6561 202.233 66.9765 202.34 67.4038C202.446 67.8311 202.125 68.2589 201.698 68.3657L194.752 69.7013C194.645 69.7013 194.645 69.7013 194.592 69.7013Z" fill="black"></path> <path d="M162.051 47.4718C164.936 39.2971 172.737 33.2594 181.126 32.7784C184.706 32.5648 188.232 33.2594 191.812 33.3125C195.392 33.3662 199.186 32.6179 201.75 30C201.643 36.7855 196.087 43.0369 189.568 43.6783" fill="#322856"></path> <path d="M195.18 37.8531C198.119 38.7082 201.324 38.5477 204.156 37.4258C205.278 41.3261 202.713 45.8678 198.813 46.9897" fill="#322856"></path> <path d="M252.296 116.134L251.441 127.088C246.792 129.171 241.877 128.904 236.801 126.82L238.671 113.035L252.296 116.134Z" fill="#FFC5AD"></path> <path d="M62.0283 123.663L32 51.4248L156.922 30.9609L211.795 111.855L150.724 168.332C110.49 170.736 80.3552 156.791 62.0283 123.663Z" fill="url(#paint0_linear)"></path> <path d="M233.758 121.957H253.527L253.688 130.079C253.688 130.079 248.504 133.017 233.758 130.079V121.957Z" fill="white"></path> <path d="M150.674 168.387L166.169 152.09C166.169 152.09 133.63 152.518 100.182 157.38L82.4961 172.875L150.674 168.387Z" fill="#8FB5FD"></path> <path d="M62.0306 123.666L82.5481 172.876L150.726 168.388L131.171 113.141L63.6334 120.942C62.2978 121.102 61.4964 122.491 62.0306 123.666Z" fill="#B1CBFF"></path> <path d="M104.133 148.723C106.789 148.723 108.942 146.57 108.942 143.915C108.942 141.258 106.789 139.105 104.133 139.105C101.477 139.105 99.3242 141.258 99.3242 143.915C99.3242 146.57 101.477 148.723 104.133 148.723Z" fill="white"></path> <path d="M166.217 152.088L151.578 165.873C151.471 165.98 151.364 165.98 151.257 165.927C151.203 165.927 151.097 165.873 151.043 165.713L133.304 115.595C132.77 114.045 131.22 113.03 129.617 113.137L148.746 166.568C149.066 167.476 149.814 168.117 150.722 168.331C150.936 168.385 151.15 168.385 151.364 168.385C152.059 168.385 152.753 168.117 153.287 167.636L166.164 155.508C167.126 154.599 167.179 153.157 166.324 152.195C166.271 152.195 166.217 152.141 166.217 152.088Z" fill="#8FB5FD"></path> <path d="M233.758 130.078L231.461 158.771" stroke="#8A284C" stroke-width="1.03209" stroke-miterlimit="10"></path> <path d="M276.836 62.2264C276.836 44.5676 291.159 30.293 308.769 30.293C326.428 30.293 340.703 44.6162 340.703 62.2264C340.703 77.7758 329.568 90.726 314.849 93.571C312.888 93.9633 286.597 87.7335 281.055 78.1686C278.357 73.5086 276.836 68.0148 276.836 62.2264Z" fill="white"></path> <path d="M292.977 61.0974C291.113 60.4106 288.955 59.3807 286.649 57.958C285.276 57.075 284.099 56.1921 283.117 55.3583C282.234 53.9355 281.303 52.415 280.42 50.7961C278.899 48.0494 277.624 44.8121 277.084 41.918C274.632 41.8688 271.492 39.1708 271.492 42.3103C271.541 50.1584 274.19 57.4673 276.79 60.8029C279.292 63.9916 286.993 68.7986 293.124 71.7419C292.977 61.0974 292.977 61.0974 292.977 61.0974Z" fill="#FFC5AD"></path> <path d="M295.774 62.2235C293.027 60.0161 291.997 60.2123 288.809 58.348C287.239 57.4165 285.424 55.6992 285.424 55.6992C284.737 56.975 284.1 58.4464 283.511 60.1631C282.383 63.4496 282.039 66.4421 281.941 68.7472C283.167 69.7777 285.13 71.1507 287.828 72.1812C290.869 73.3094 293.517 73.5056 295.235 73.4564C295.431 71.7889 295.529 70.0716 295.627 68.3057C295.774 66.1967 295.774 64.1364 295.774 62.2235Z" fill="#70A0FB"></path> <path d="M328.097 79.145L328.689 87.1898C326.283 89.1027 323.634 90.6725 320.79 91.8499L319.859 80.0771L327.61 76.8398L328.097 79.145Z" fill="#FFC5AD"></path> <path d="M320.641 64.5781C323.734 64.8726 326.53 67.2761 328.148 71.2002C329.375 74.2413 330.062 77.4791 330.993 80.6186C329.814 81.5502 328.148 82.6298 325.991 83.2675C325.5 83.4144 324.469 83.7089 323.094 83.8067C321.82 83.9051 320.694 83.8559 319.811 83.7576C319.366 82.1884 318.875 80.5695 318.335 78.9014C317.796 77.1847 317.209 75.5171 316.617 73.9474L320.641 64.5781Z" fill="#70A0FB"></path> <path d="M291.898 89.3528C293.076 80.425 294.695 68.2113 295.774 62.2269C298.668 61.8832 301.954 62.2761 301.954 62.2761C301.709 64.4343 303.917 68.5053 308.477 68.5053C311.078 68.5053 312.601 67.2301 313.431 65.9057L315.001 63.453C315.001 63.4038 315.054 63.3552 315.054 63.306C318.533 63.8944 320.595 64.6304 320.595 64.6304L321.234 91.6585C319.22 92.5415 317.063 93.1791 314.853 93.6206C312.891 93.9637 296.804 92.394 291.898 89.3528Z" fill="#8FB5FD"></path> <path d="M320.545 47.0667C320.545 47.0667 323.342 38.9732 322.75 34.9018C322.163 30.8304 317.552 29.8493 317.552 29.8493C315.935 22.6386 309.505 25.778 304.749 25.1894C304.749 25.1894 305.337 26.1704 306.22 26.759C299.942 26.0723 295.625 27.9363 292.289 31.0757C292.289 31.0757 294.153 32.7925 296.262 33.234C296.262 33.234 295.085 34.0679 293.221 33.1849C292.485 39.807 296.262 40.0031 296.262 45.4483C297.783 49.863 320.545 47.0667 320.545 47.0667Z" fill="#2E2930"></path> <path d="M304.652 66.3464H311.522L311.961 58.1055H304.211L304.652 66.3464Z" fill="#E1A497"></path> <path d="M299.306 45.7461C299.306 45.7461 297.246 43.2934 295.48 44.2747C293.714 45.2555 293.224 48.7386 296.02 50.7006C298.178 52.2212 299.846 51.6814 299.846 51.6814L299.306 45.7461Z" fill="#E1A497"></path> <path d="M317.504 45.7461C317.504 45.7461 319.566 43.2934 321.332 44.2747C323.098 45.2555 323.59 48.7386 320.793 50.7006C318.636 52.2212 316.965 51.6814 316.965 51.6814L317.504 45.7461Z" fill="#E1A497"></path> <path d="M297.737 47.6054C297.345 36.8628 296.413 31.418 308.383 31.418C320.353 31.418 319.47 36.8628 319.073 47.6054C320.496 55.2574 313.633 60.8988 308.43 60.8988C303.231 60.8988 296.315 55.2574 297.737 47.6054Z" fill="#FFC5AD"></path> <path d="M312.796 53.0977C312.209 53.3921 311.57 53.6375 310.983 53.8336L308.133 54.7652L305.143 53.9806C304.015 53.7353 303.328 53.4408 303.328 53.4408C303.328 53.4408 304.113 55.158 305.781 56.1388C306.468 56.5311 308.233 55.9426 308.233 55.9426L310.687 56.041C312.305 54.9619 312.796 53.0977 312.796 53.0977Z" fill="#2A2A2C"></path> <path d="M308.13 55.6996C309.552 55.6504 310.636 56.0432 310.636 56.0432C310.043 56.4355 309.309 56.7787 308.278 56.8278C306.856 56.877 305.777 56.1902 305.777 56.1902C305.777 56.1902 306.759 55.7487 308.13 55.6996Z" fill="#CF6363"></path> <path d="M305.191 53.9852C306.614 54.2797 308.772 54.4759 310.982 53.7891C310.49 54.3283 309.607 54.9665 308.233 55.0151C306.761 55.1135 305.731 54.4759 305.191 53.9852Z" fill="white"></path> <path d="M305.044 62.6172L311.765 62.7642C311.865 62.7642 311.96 62.8133 312.061 62.8133C313.234 62.9603 314.366 63.1078 315.344 63.304C315.344 63.304 314.953 64.5792 313.578 66.0506C312.256 67.4734 310.538 68.4055 308.624 68.4547C305.535 68.5525 302.592 65.6092 301.758 62.6172C302.69 62.6664 304.014 62.6172 305.044 62.6172Z" fill="#E1A497"></path> <path d="M316.28 42.2086C316.28 42.2086 315.101 40.2957 313.092 40.6389C312.156 40.7864 312.156 41.6693 312.156 41.6693C314.07 41.2278 316.28 42.2086 316.28 42.2086Z" fill="#2E2930"></path> <path d="M300.434 42.2596C300.434 42.2596 301.562 40.3467 303.573 40.592C304.505 40.6899 304.554 41.5728 304.554 41.5728C302.641 41.1805 300.434 42.2596 300.434 42.2596Z" fill="#2E2930"></path> <path d="M311.422 47.0184C311.422 47.0184 312.352 47.9992 314.023 47.9014C315.398 47.8522 315.884 47.1162 315.884 47.1162C316.963 45.694 316.08 44.2221 314.462 43.9768C313.235 43.7806 311.665 44.4674 311.422 47.0184Z" fill="white"></path> <path d="M312.405 46.3319C312.548 45.5959 313.336 45.1053 314.118 45.2528C314.023 45.3506 313.923 45.4976 313.923 45.6451C313.827 46.0374 314.118 46.4789 314.515 46.528C314.758 46.5772 315.054 46.4789 315.197 46.3319C315.25 46.528 315.25 46.7242 315.197 46.9203C315.054 47.6563 314.266 48.1464 313.484 47.9994C312.749 47.8033 312.257 47.1165 312.405 46.3319Z" fill="#592F0E"></path> <path d="M305.388 47.0185C305.388 47.0185 304.456 47.9993 302.788 47.9014C301.414 47.8523 300.924 47.1163 300.924 47.1163C299.845 45.6941 300.728 44.2222 302.347 43.9768C303.573 43.8299 305.142 44.4675 305.388 47.0185Z" fill="white"></path> <path d="M301.217 46.2811C301.364 45.5451 302.15 45.0545 302.934 45.202C302.836 45.2998 302.738 45.4473 302.738 45.5943C302.64 45.9866 302.934 46.4281 303.327 46.4772C303.572 46.5264 303.866 46.4281 304.014 46.2811C304.062 46.4772 304.062 46.6734 304.014 46.8695C303.866 47.6055 303.082 48.0961 302.297 47.9486C301.561 47.7525 301.07 47.0171 301.217 46.2811Z" fill="#592F0E"></path> <path d="M308.231 47.707C307.74 48.6391 306.956 50.2581 307.152 50.5525C307.348 50.8465 308.723 51.6803 308.723 51.6803C307.25 51.9256 306.416 51.0427 306.269 50.6504C306.171 50.2089 307.054 48.4922 308.231 47.707Z" fill="#D89C73"></path> <path d="M319.858 42.2124C319.858 42.2124 315.882 40.2995 314.264 35.4923C314.264 35.4923 312.255 35.8847 310.981 38.8281C310.981 38.8281 308.871 37.6507 308.723 35.4923C308.723 35.4923 307.103 39.1712 302.443 38.5336C297.783 37.896 296.949 42.2124 296.949 42.2124V34.5112L300.922 29.5078L316.373 30.1946L320.545 34.5112L319.858 42.2124Z" fill="#2E2930"></path> <path d="M301.023 62.1758C303.182 62.3228 304.8 62.6173 304.8 62.6173L301.71 64.8738L301.023 62.1758Z" fill="#E1A497"></path> <path d="M302.053 62.2748C302.249 62.9611 302.788 64.4822 303.671 65.3651C305.535 67.1796 307.99 67.0818 308.624 67.0818C312.796 66.9835 314.71 63.844 315.001 63.4025L315.101 63.3047C316.079 63.4517 316.915 63.6479 317.649 63.7954L317.554 63.9424C317.163 64.5308 315.149 68.9947 308.772 69.387C308.038 69.4362 305.682 69.4853 303.328 68.0139C300.434 66.1989 299.452 62.9611 299.207 62.0781C300.041 62.0781 301.071 62.1765 302.053 62.2748Z" fill="#70A0FB"></path> <path d="M299.941 78.2617L304.896 77.624L307.202 73.1602L309.358 77.6732L314.312 78.4578L310.685 81.941L311.467 86.895L307.054 84.4914L302.591 86.748L303.474 81.8426L299.941 78.2617Z" fill="#70A0FB"></path> <path d="M268.991 37.3054C269.089 38.4334 269.089 39.5617 269.579 40.543C270.168 41.8182 271.689 43.388 274.485 43.0443C274.828 42.9957 276.153 43.9764 277.477 43.2896C277.575 41.8674 279.096 41.8674 280.028 40.0032C281.009 38.0411 280.224 36.079 282.48 35.2451C283.167 34.9999 282.284 33.5283 280.469 34.166C278.262 34.9508 279.243 37.3543 277.919 36.9129C277.723 36.8639 277.624 36.6186 277.575 36.2752C277.575 35.5395 277.82 34.3622 278.115 32.302C278.409 30.1436 278.949 27.8382 277.624 27.7891C276.202 27.7401 276.643 30.8304 275.368 34.5584C275.417 29.8494 275.074 26.2685 273.945 26.4647C272.228 26.8081 273.749 29.2607 273.112 34.4603C272.719 30.1436 270.953 27.3967 270.021 27.7401C268.452 28.2797 271.444 31.7133 270.806 35.3923C270.659 35.2942 270.365 34.166 269.678 33.3321C268.795 32.302 267.617 31.6152 267.127 32.351C266.44 33.234 268.746 34.3131 268.991 37.3054Z" fill="#FFC5AD"></path> <path d="M277.134 37.3085C276.398 37.5044 275.466 37.8481 275.025 38.878C274.583 39.8593 275.172 41.0362 275.172 41.0362C274.534 40.4478 274.191 39.5648 274.534 38.6819C274.926 37.6028 276.251 37.0632 277.134 37.3085Z" fill="#E1A497"></path> <path d="M270.117 35.8799C271.981 34.8988 274.336 34.6045 276.543 34.9969C274.287 34.0158 272.079 34.114 270.117 35.8799Z" fill="#E1A497"></path> <path d="M311.719 80.5715L314.855 93.5703C312.893 93.9626 310.837 94.1588 308.775 94.1588C296.953 94.1588 286.603 87.7334 281.109 78.168L310.001 79.1487C310.837 79.1979 311.571 79.7863 311.719 80.5715Z" fill="#324C8A"></path> <path d="M308.476 99.7506C307.105 99.7506 305.731 99.7014 304.407 99.5545C304.064 99.5053 303.867 99.2113 303.867 98.9168C303.916 98.5732 304.211 98.377 304.505 98.377C318.533 99.8976 331.925 93.423 339.432 81.5033C339.628 81.2088 339.972 81.1596 340.262 81.3071C340.559 81.5033 340.606 81.8464 340.463 82.1409C336.731 88.027 331.433 92.7854 325.205 95.8757C319.955 98.4262 314.266 99.7506 308.476 99.7506Z" fill="#71DAC6"></path> <path d="M55.86 103.54C70.694 103.54 82.72 91.5148 82.72 76.6803C82.72 61.8463 70.694 49.8203 55.86 49.8203C41.0255 49.8203 29 61.8463 29 76.6803C29 91.5148 41.0255 103.54 55.86 103.54Z" fill="#96E5D7"></path> <path d="M34.7928 96.4388C34.8398 96.065 34.9329 95.6446 34.9799 95.1773C35.7741 90.8329 36.7083 85.274 38.6703 83.1719L43.7618 87.1425C41.7998 91.674 40.165 96.6719 39.9784 97.1393C39.9784 97.1858 35.2602 99.5217 35.2602 99.5217C34.98 99.1944 34.7928 98.5404 34.7463 98.2136C34.6527 97.7463 34.6997 97.1393 34.7928 96.4388Z" fill="#EDB1A0"></path> <path d="M67.5847 92.0477C67.3515 91.3006 65.7633 86.4423 62.7734 83.4059L66.8841 76.5391C73.4708 84.2466 74.6387 93.0755 74.5451 95.598C74.5451 95.8316 73.3307 96.5322 73.2371 96.8595C72.9569 96.9525 68.2857 94.1969 68.2857 94.1969C68.2857 94.1969 67.5847 92.1413 67.5847 92.0477Z" fill="#FFD0BA"></path> <path d="M44.2734 85.181C43.3392 79.8093 43.5729 75.605 43.5729 75.605C43.5729 75.605 47.3568 73.9702 50.8601 73.69L56.5125 73.2227C60.997 73.3628 63.6596 74.5307 63.6596 74.5307C63.6596 74.5307 63.6596 79.7628 62.7253 85.1345C61.7911 90.5067 61.1836 91.3473 61.6975 94.9441C55.9515 94.8976 50.5333 94.5238 45.4878 93.6832C45.675 91.1136 45.0675 89.8527 44.2734 85.181Z" fill="#FFC5AD"></path> <path d="M53.5228 68.0859H57.1661L56.1853 76.9614H53.4762H50.9067L49.8789 68.0859H53.5228Z" fill="#FFC5AD"></path> <path d="M53.5275 68.0859C56.1436 68.0859 56.9377 70.2351 56.9377 70.2351L56.6575 72.8507C55.2559 74.1122 51.4254 73.7849 50.4446 73.1309L50.2109 71.2624C50.2575 71.2624 50.9115 68.0859 53.5275 68.0859Z" fill="#EDB1A0"></path> <path d="M71.5079 83.4072C69.3592 87.004 64.8747 88.1719 64.8747 88.1719C64.8747 88.1719 63.24 86.3034 62.5859 83.3606L63.38 74.0644C65.6223 72.7569 71.5079 83.4072 71.5079 83.4072Z" fill="#C074FF"></path> <path d="M43.3433 75.4663L44.9315 83.454C44.0438 86.2102 43.67 88.7797 43.67 88.7797C43.67 88.7797 39.4192 89.3867 36.3828 84.7621C36.3828 84.8091 40.9609 74.5321 43.3433 75.4663Z" fill="#C074FF"></path> <path d="M50.6759 103.073H60.9995C62.8214 102.746 64.5498 102.185 66.1846 101.485C65.2969 91.5352 63.5685 74.0175 63.5685 74.0175C63.5685 74.0175 62.1204 73.6907 59.5049 73.457C58.9439 76.4934 56.4685 79.2025 53.2449 79.2025C50.0219 79.2025 47.4995 77.3811 46.939 74.3447C44.8369 74.7651 43.2951 75.4656 43.2951 75.4656C43.2951 75.4656 43.2016 90.9277 42.7812 100.177C45.2107 101.531 47.8732 102.512 50.6759 103.073Z" fill="#D39CFF"></path> <path d="M47.4039 74.1567C47.5911 77.0995 50.3472 78.6878 53.29 78.6878C56.1863 78.6878 58.7553 76.0722 59.3157 73.5498C59.4558 72.9888 60.4371 73.2225 60.3906 73.5027C59.7366 76.8193 56.6532 79.7156 53.29 79.7156C49.8799 79.7156 46.8435 77.8471 46.3766 74.484C46.2831 74.1102 47.4039 74.0631 47.4039 74.1567Z" fill="#C074FF"></path> <path d="M43.8555 48.9326C44.7432 47.6246 46.2843 46.1294 48.6667 45.4289C49.741 45.1021 51.0025 44.8685 52.3571 44.7749L52.4507 44.5412C52.4972 44.0743 52.0769 43.3738 51.6095 43C51.6095 43 53.0111 43 53.8052 44.4481C55.9539 42.8128 57.8224 43.9342 57.8224 43.9342C57.0282 44.0278 56.4213 44.4011 55.9074 44.7749C56.1876 44.8219 56.4213 44.8219 56.7015 44.8685C59.9245 45.2888 62.2138 46.3631 63.8486 47.7647C64.8293 48.6054 65.5769 49.5867 66.1844 50.661C71.7433 60.5637 64.2689 67.8514 66.1374 71.4948C66.1374 71.4948 63.5213 70.6541 62.6806 70.8873C62.6806 70.8873 55.7673 73.737 53.0576 69.9065C49.4143 72.8028 42.6875 68.2247 42.6875 68.2247C41.9399 67.7578 39.2773 67.6643 39.2773 67.6643C42.2201 64.8151 37.6426 58.3685 43.8555 48.9326Z" fill="#60261E"></path> <path d="M43.6667 57.105C41.7982 57.806 40.864 61.1226 43.2934 63.4114C45.1618 65.1863 46.8902 64.9061 46.8902 64.9061L47.1704 59.067C47.2169 59.067 45.5357 56.451 43.6667 57.105Z" fill="#EDB1A0"></path> <path d="M66.0407 59.9529C67.676 61.0738 67.769 64.5305 64.8262 66.1658C62.584 67.4268 60.9492 66.6797 60.9492 66.6797L62.1171 60.9807C62.1171 60.9807 64.4059 58.8315 66.0407 59.9529Z" fill="#EDB1A0"></path> <path d="M62.4483 51.7331C59.6457 49.3973 51.8445 48.4165 48.7151 50.8919C45.445 53.4615 44.5573 58.2727 44.8376 62.1497C44.8846 62.8973 44.9312 63.6915 44.9777 64.3455C45.4916 69.9979 49.9295 72.3332 53.6199 72.4733C60.4397 72.7541 63.3826 66.9145 63.8034 61.8695C64.0366 58.7401 66.0922 54.816 62.4483 51.7331Z" fill="#FFC5AD"></path> <path d="M47.3104 58.5533C47.2639 58.6004 47.2168 58.6934 47.1703 58.787C46.75 58.9736 46.4227 58.7405 46.4227 58.7405C46.4227 58.7405 46.3762 59.3009 46.9837 59.4875C46.9837 60.0485 47.2639 60.6555 47.8243 60.9827L51.0008 58.8335C50.5805 57.9929 48.4318 57.1988 47.3104 58.5533Z" fill="#1B1B1B"></path> <path d="M49.3683 58.1797C47.9201 58.1797 46.8924 59.3947 47.6865 60.7957C47.6865 60.7957 48.0137 61.4968 49.2747 61.73C50.7699 62.0102 51.7506 61.2631 51.7506 61.2631C51.7972 58.9738 50.4891 58.1797 49.3683 58.1797Z" fill="white"></path> <path d="M49.9271 60.0514C49.787 60.0514 49.6469 60.0514 49.5533 60.0049C49.2265 59.8648 49.0864 59.4444 49.2265 59.0706C49.3196 58.8369 49.5533 58.6968 49.7404 58.6503C49.6469 58.5102 49.5067 58.4166 49.3196 58.323C48.7126 58.0428 47.9185 58.323 47.6383 58.9771C47.311 59.6311 47.5912 60.3787 48.1987 60.6589C48.8527 60.9861 49.5998 60.7054 49.9271 60.0514Z" fill="#4479A7"></path> <path d="M61.8424 60.9339C61.8424 60.8409 61.7958 60.7473 61.7493 60.6537C61.0482 59.0189 58.806 59.159 58.1055 59.8596L60.5344 62.8024C61.1884 62.6623 61.6092 62.1484 61.7958 61.5879C62.4499 61.635 62.5434 61.074 62.5434 61.074C62.5434 61.074 62.2162 61.2141 61.8424 60.9339Z" fill="#1B1B1B"></path> <path d="M59.9265 59.7233C58.8051 59.3966 57.357 59.8169 56.75 62.0121C56.75 62.0121 57.4505 62.9934 58.9922 63.18C60.2532 63.3201 60.7671 62.7132 60.7671 62.7132C61.935 61.5452 61.3276 60.0971 59.9265 59.7233Z" fill="white"></path> <path d="M59.7391 61.6827C59.599 61.6827 59.5059 61.6362 59.3658 61.5426C59.0386 61.309 58.992 60.8886 59.2257 60.5614C59.3658 60.3747 59.599 60.2346 59.8327 60.2811C59.7391 60.141 59.6461 60.0009 59.5059 59.9079C58.945 59.5341 58.1508 59.6742 57.7305 60.2346C57.3102 60.8421 57.4038 61.6362 58.0108 62.0095C58.5247 62.4769 59.3188 62.2902 59.7391 61.6827C59.7391 61.7293 59.7391 61.7293 59.7391 61.6827Z" fill="#4479A7"></path> <path d="M58.947 62.0102C57.1251 61.73 55.5834 62.2439 55.4433 63.1316C55.3031 64.0193 56.7048 64.9065 58.4797 65.1867C60.3016 65.4675 61.8433 64.9536 61.9834 64.0659C62.1235 63.2252 60.7684 62.291 58.947 62.0102Z" fill="#FFC5AD"></path> <path d="M49.6926 60.7056C47.8706 60.4253 46.3295 60.9392 46.1894 61.8269C46.0492 62.7146 47.4503 63.6018 49.2257 63.882C51.0471 64.1628 52.5889 63.6489 52.729 62.7612C52.8691 61.8735 51.5145 60.9392 49.6926 60.7056Z" fill="#FFC5AD"></path> <path d="M54.318 63.1342C52.7768 62.9005 52.6367 64.3951 52.6367 64.3951C52.6367 64.3951 53.1036 63.4144 54.2715 63.601C55.2993 63.7882 55.533 64.8625 55.533 64.8625C55.533 64.8625 55.8597 63.3679 54.318 63.1342Z" fill="#ECA992"></path> <path d="M49.6013 55.8013C47.966 55.7083 47.3125 57.1093 47.3125 57.1093C47.3125 57.1093 48.8072 56.2687 50.3954 56.4553C50.4419 56.4553 50.3483 55.8484 49.6013 55.8013Z" fill="#60261E"></path> <path d="M60.1569 57.1514C61.7451 57.4781 62.0253 58.9728 62.0253 58.9728C62.0253 58.9728 60.7638 57.8054 59.2227 57.5717C59.2227 57.5717 59.4093 57.0113 60.1569 57.1514Z" fill="#60261E"></path> <path d="M55.3954 47.2503C44.4643 45.6621 41.8953 53.6033 42.2221 57.2466C42.6429 61.4509 45.9595 63.0392 45.9595 63.0392C45.9595 63.0392 44.9317 58.6017 47.1739 53.3231C49.229 53.6033 53.9937 53.7899 56.1895 50.9407C57.3103 54.5841 60.8606 55.7054 63.0098 55.9857C63.0098 61.1707 62.0751 65.0948 62.0751 65.0948C62.0751 65.0948 64.551 64.5809 66.1392 60.7033C67.4938 57.2937 66.3729 48.8386 55.3954 47.2503Z" fill="#60261E"></path> <path d="M50.6289 66.5391C50.6289 66.5391 52.9182 68.8744 56.1877 67.4733C56.1412 67.4733 54.2728 67.0059 50.6289 66.5391Z" fill="#D47C6B"></path> <path d="M46.3301 81.9568C46.2366 82.0504 45.7227 81.49 45.7227 81.49L46.0494 81.2563C46.0029 81.2097 46.4232 81.8638 46.3301 81.9568Z" fill="#00007C"></path> <path d="M43.4827 77.2419L35.2148 67.0114C35.1677 66.9648 35.1212 66.9648 35.0742 66.9648H35.0277C35.0277 66.9648 34.9811 66.9648 34.9811 67.0114L34.5608 67.3386L34.1399 67.6654L34.0934 67.7124C34.0934 67.7124 34.0934 67.759 34.0469 67.759V67.8055C34.0469 67.8525 34.0469 67.8525 34.0934 67.8525L42.4084 78.1291C42.6421 78.4563 45.5849 81.6328 45.725 81.4927L45.8651 81.3526L46.1453 81.1654C46.2389 81.0724 43.7164 77.5686 43.4827 77.2419Z" fill="#A13F5E"></path> <path d="M34.4689 68.4123L34.2352 68.0851L34.1887 67.992L34.1416 67.8984C33.8614 68.1321 33.4411 68.5059 33.8614 69.0193C34.0486 69.253 35.87 71.5418 36.0571 71.6824C36.1502 71.7755 36.2438 71.8225 36.3374 71.869C36.524 71.9626 36.7577 71.9626 36.9443 71.9626C36.6176 71.5888 34.8892 69.3931 34.609 69.0664C34.3288 68.7391 34.1416 68.599 34.4689 68.4123Z" fill="#A13F5E"></path> <path d="M33.9055 65.9802C33.9055 65.9802 33.859 65.9802 33.8119 65.9802L33.3451 66.354C33.3451 66.354 33.3451 66.354 33.298 66.4011C33.2515 66.4476 33.298 66.4476 33.298 66.4476V66.4941V66.5412L34.1857 67.6155L34.8397 67.1016L33.952 66.0273C33.952 65.9802 33.9055 65.9337 33.9055 65.9802Z" fill="#A13F5E"></path> <path d="M36.8502 83.4064C36.8502 83.4064 37.4571 80.2764 37.317 79.6695C37.224 79.0155 36.4764 76.2128 36.3828 74.9983C36.3828 74.5775 36.5229 73.7834 36.663 73.3631C36.9432 72.1486 37.7844 69.486 39.139 68.7855C39.8395 68.4117 40.6336 68.3181 40.8673 68.6454C41.054 68.9721 40.9138 69.3459 40.4005 69.6727C39.8866 69.9999 39.139 71.2609 38.5315 73.6903C38.7187 73.5032 39.793 72.3823 40.9139 72.6625C41.2876 72.709 41.6149 73.0363 41.6149 73.4566C41.6149 73.5502 41.6149 73.6433 41.6149 73.7369C41.8951 73.7369 42.2219 73.8304 42.4556 74.0171C42.5492 74.1106 42.6427 74.2042 42.6892 74.3443C42.7358 74.4374 42.7828 74.531 42.7828 74.6711C43.2031 74.7176 43.5299 74.9513 43.7636 75.3251C44.0903 75.8855 44.2775 77.3337 43.3433 77.3337C42.7828 77.3337 42.7358 76.3994 42.7358 76.3994C42.362 76.493 42.0352 76.7732 41.9416 77.147C42.5491 78.1278 42.6422 79.3422 42.1753 80.4166C41.9887 81.0706 41.5679 81.6315 41.0074 82.0048L39.5128 84.5743L36.8502 83.4064Z" fill="#FFC5AD"></path> <path d="M41.5189 73.7382C41.0515 73.7382 40.6312 73.8783 40.2574 74.112C39.79 74.4388 39.4168 74.766 39.043 75.1864C39.3232 74.6725 39.697 74.2056 40.1638 73.8318C40.5842 73.5516 41.0515 73.4115 41.5654 73.458C41.5654 73.5045 41.5654 73.5516 41.5654 73.5981C41.5654 73.6447 41.5189 73.6917 41.5189 73.7382Z" fill="#EDB1A0"></path> <path d="M42.6369 74.6268C42.3567 74.5798 42.03 74.6268 41.7498 74.7199C41.2359 74.907 40.8156 75.2338 40.4883 75.6546C40.722 75.1407 41.0958 74.6734 41.6562 74.4397C41.9364 74.3466 42.2637 74.2995 42.5904 74.3466C42.6369 74.3931 42.6369 74.4397 42.6369 74.4867C42.6369 74.5332 42.6369 74.5798 42.6369 74.6268Z" fill="#EDB1A0"></path> <path d="M40.3994 82.9403C39.4181 87.0976 40.2593 90.4141 40.493 93.3569C40.586 94.4783 40.8662 95.5992 39.6988 97.7949C39.0913 98.8693 37.0357 101.766 35.0272 99.5233C31.1036 95.1789 37.1758 81.4922 37.1758 81.4922L40.3994 82.9403Z" fill="#FFC5AD"></path> <path d="M57.9633 100.267C57.5425 99.1458 57.4024 97.9779 57.3559 96.81C57.1692 96.7635 57.0291 96.7169 56.8419 96.6234C56.2815 96.3897 52.8713 94.895 51.9371 94.9886C50.2553 95.502 48.2467 96.6699 48.2938 98.5383C49.181 99.3325 49.5547 97.7442 51.0029 96.9972C50.7692 97.1373 49.9751 97.6512 49.9751 98.6319C50.0687 99.426 50.7227 99.3795 50.7227 99.3795C50.7227 99.3795 50.5355 99.7533 50.7692 100.127C50.9564 100.454 51.2831 100.5 51.2831 100.5C51.2831 100.5 51.1895 101.061 51.6104 101.435C52.0307 101.855 53.1986 102.416 53.6654 101.388C53.9927 100.5 52.9649 100.688 53.105 100.454C53.1515 100.407 53.6654 100.22 53.6654 100.22C53.6654 100.22 54.9735 101.435 56.7954 100.921C57.2623 100.734 57.6361 100.547 57.9163 100.407C58.0099 100.407 57.9633 100.36 57.9633 100.267Z" fill="#FFC5AD"></path> <path d="M50.9102 99.1939L52.5455 97.6527C52.4984 97.6056 51.4706 97.4655 50.9102 99.1939Z" fill="#EDB1A0"></path> <path d="M51.7031 100.318L53.4315 98.8699C53.4315 98.8233 52.3571 98.6362 51.7031 100.318Z" fill="#EDB1A0"></path> <path d="M58.2922 80.4648L55.8633 102.326H63.9446C73.6607 99.2435 80.9949 90.8349 82.4431 80.4648H58.2922Z" fill="#B5C2F1"></path> <path d="M44.8359 101.203C48.1996 102.698 51.9365 103.538 55.8135 103.538C59.7376 103.538 63.4745 102.698 66.7911 101.203H44.8359Z" fill="#6A80C1"></path> <path d="M82.4395 80.4648H58.242L58.1484 81.259H82.2993C82.3924 80.9787 82.3924 80.7451 82.4395 80.4648Z" fill="#DCE1FF"></path> <path d="M72.166 93.4028C70.6243 93.4028 69.3633 92.1413 69.3633 90.5996C69.3633 89.0584 70.6243 87.7969 72.166 87.7969C73.7072 87.7969 74.9686 89.0584 74.9686 90.5996C74.9686 92.1413 73.6606 93.4028 72.166 93.4028Z" fill="white"></path> <path d="M58.2894 80.4622C57.869 80.4151 57.5423 80.6959 57.4952 81.1162L55.3931 100.081H42.6406C44.2289 101.016 45.9572 101.763 47.7792 102.324H55.8605C56.2808 102.37 56.6081 102.09 56.6546 101.67L58.8968 81.2563C58.9434 80.8825 58.6632 80.5087 58.2894 80.4622Z" fill="#6A80C1"></path> </g> <defs> <linearGradient id="paint0_linear" x1="78.4277" y1="195.297" x2="120.239" y2="85.9437" gradientUnits="userSpaceOnUse"> <stop stop-color="#BCFC21"></stop> <stop offset="1" stop-color="white" stop-opacity="0"></stop> </linearGradient> <clipPath id="clip0"> <rect width="360" height="200" fill="white"></rect> </clipPath> </defs> </svg> 