<?xml version="1.0" encoding="UTF-8"?> <svg xmlns="http://www.w3.org/2000/svg" width="360" height="200" viewBox="0 0 360 200" fill="none"> <g clip-path="url(#clip0)"> <rect width="360" height="200" fill="#C8EBFF"></rect> <path d="M164.083 84.293H292.436L260.51 224.726H135.895L164.083 84.293Z" fill="#46AED3"></path> <path d="M155.555 77.5376L138.008 198.426L120.461 193.198C120.461 193.198 129.722 177.755 131.347 151.535C132.646 130.863 127.528 102.873 132.971 84.9376C138.414 67.0011 155.555 77.5376 155.555 77.5376Z" fill="#75CFF0"></path> <path d="M164.084 84.2935L131.59 245.88L73.425 243.226L66.7637 181.133L133.377 193.197C133.377 193.197 142.638 177.755 144.263 151.534C145.562 130.863 140.445 102.873 145.887 84.9371C151.249 67.0005 164.084 84.2935 164.084 84.2935Z" fill="#2C91B6"></path> <path d="M49.541 192.715C49.541 185.798 55.2275 180.168 62.2138 180.168C66.1943 180.168 69.6874 181.937 72.0433 184.832C73.7492 186.603 75.2115 188.935 76.2675 192.072C79.6794 202.447 82.1165 226.737 82.1165 226.737L65.9506 229.633L61.8076 205.343C54.9838 205.102 49.541 199.552 49.541 192.715Z" fill="#75CFF0"></path> <path d="M284.637 77.5376L267.09 198.426L249.543 193.198C249.543 193.198 258.804 177.755 260.429 151.535C261.728 130.863 256.61 102.873 262.053 84.9376C267.496 67.0011 284.637 77.5376 284.637 77.5376Z" fill="#75CFF0"></path> <path d="M171.476 87.2698C171.476 87.2698 156.528 89.6827 151.248 108.664L154.091 170.275L259.617 192.474C265.872 195.691 270.665 141.721 263.353 110.353C257.829 86.3847 231.265 83.248 231.265 83.248L171.476 87.2698Z" fill="#0B0C28"></path> <path d="M232.485 83.6494C220.299 78.6626 190.648 78.0996 190.648 78.0996C187.155 80.2712 177.244 86.0623 171.477 87.2692C177.488 112.443 219.406 116.627 232.485 83.6494Z" fill="#F8CEB7"></path> <path d="M197.391 95.5547C193.411 95.5547 189.918 94.7498 186.993 93.222C182.769 91.0508 179.926 87.1092 179.52 83.0874L181.388 82.927C181.713 86.3854 184.231 89.6834 187.887 91.6131C191.055 93.3022 194.954 93.9458 199.504 93.624C204.215 93.3022 208.521 91.9349 212.014 89.7636C215.832 87.3508 218.594 83.8112 219.731 80.0312L221.518 80.5943C220.219 84.8567 217.213 88.7181 212.989 91.3725C209.252 93.7042 204.621 95.1527 199.585 95.4745C198.935 95.5547 198.123 95.5547 197.391 95.5547Z" fill="white"></path> <path d="M183.907 94.3465C184.939 94.3465 185.776 93.5188 185.776 92.497C185.776 91.4752 184.939 90.6465 183.907 90.6465C182.876 90.6465 182.039 91.4752 182.039 92.497C182.039 93.5188 182.876 94.3465 183.907 94.3465Z" fill="white"></path> <path d="M192.598 99.2545C194.123 99.2545 195.36 98.0297 195.36 96.5198C195.36 95.0089 194.123 93.7852 192.598 93.7852C191.073 93.7852 189.836 95.0089 189.836 96.5198C189.836 98.0297 191.073 99.2545 192.598 99.2545Z" fill="white"></path> <path d="M206.001 98.2891C207.257 98.2891 208.276 97.2802 208.276 96.0366C208.276 94.7931 207.257 93.7852 206.001 93.7852C204.745 93.7852 203.727 94.7931 203.727 96.0366C203.727 97.2802 204.745 98.2891 206.001 98.2891Z" fill="white"></path> <path d="M215.265 92.4173C216.207 92.4173 216.971 91.6608 216.971 90.7282C216.971 89.7945 216.207 89.0391 215.265 89.0391C214.322 89.0391 213.559 89.7945 213.559 90.7282C213.559 91.6608 214.322 92.4173 215.265 92.4173Z" fill="white"></path> <path d="M200.234 165.127C200.234 165.127 183.824 153.223 171.477 165.127V169.469L200.234 181.213V165.127Z" fill="#F8CEB7"></path> <path d="M231.266 169.791C231.266 169.791 241.908 162.713 254.662 170.836C267.091 178.719 259.617 195.771 259.617 195.771L231.266 169.791Z" fill="#303466"></path> <path d="M195.277 177.755L200.233 165.127C212.418 170.033 267.74 165.127 258.641 195.61C247.756 216.2 195.277 177.755 195.277 177.755Z" fill="#F8CEB7"></path> <path d="M102.02 166.976L134.514 174.698L206.082 176.547L171.314 165.367L102.02 166.976Z" fill="#45A2A3"></path> <path d="M85.2844 108.181L102.1 166.976L179.112 168.424L162.377 105.125L87.3153 105.367C85.8531 105.367 84.797 106.814 85.2844 108.181Z" fill="#57CBCC"></path> <path d="M129.072 142.204C132.078 142.204 134.515 139.791 134.515 136.815C134.515 133.839 132.078 131.426 129.072 131.426C126.066 131.426 123.629 133.839 123.629 136.815C123.629 139.791 126.066 142.204 129.072 142.204Z" fill="white"></path> <path d="M206.567 176.629C206.405 176.629 206.243 176.629 206.161 176.549L177.566 169.954L161.075 107.377C160.832 106.413 161.4 105.367 162.456 105.126C163.431 104.884 164.487 105.448 164.731 106.493L180.653 166.897L207.055 173.01C208.03 173.252 208.68 174.216 208.436 175.261C208.192 175.986 207.38 176.629 206.567 176.629Z" fill="#45A2A3"></path> <path d="M168.226 44.2383C175.131 23.3261 196.659 12.7092 196.659 12.7092C227.122 -1.76843 249.462 54.9357 215.099 75.9283C215.099 75.9283 216.805 74.4001 217.049 70.459C217.049 70.459 211.2 78.5826 200.233 73.9979L179.112 69.0112C179.112 69.0112 170.338 67.3222 169.851 59.9225C169.851 59.9225 167.901 62.7375 168.876 65.7135C168.876 65.7135 162.783 60.8072 168.226 44.2383Z" fill="#1D1D1B"></path> <path d="M190.566 69.3334L191.704 81.8007C198.934 84.9373 206.57 82.0413 212.906 77.1352L211.769 66.3574L190.566 69.3334Z" fill="#E7BAA9"></path> <path d="M191.703 81.8003L191.947 83.9716C198.202 85.8211 204.863 86.4647 213.474 81.5587L212.987 77.1348C206.569 82.0409 198.933 84.9369 191.703 81.8003Z" fill="#F8CEB7"></path> <path d="M219.974 43.1117C215.913 41.3422 211.932 46.9724 211.932 46.9724L211.77 59.9219C211.77 59.9219 215.588 60.8871 219.974 57.1068C225.661 52.2809 224.036 44.8812 219.974 43.1117Z" fill="#E7BAA9"></path> <path d="M191.538 19.5464C165.706 21.7181 172.204 37.9652 173.26 53.8907C174.804 76.4115 187.477 78.5026 187.477 78.5026C187.477 78.5026 190.482 82.0415 196.819 81.5593C203.155 81.0761 205.592 76.9745 205.592 76.9745C205.592 76.9745 219.321 73.0333 215.341 50.4321C212.579 34.6676 217.371 17.4552 191.538 19.5464Z" fill="#F8CEB7"></path> <path d="M189.105 69.3335C189.105 69.3335 191.055 73.4355 196.011 73.1137C201.372 72.792 202.753 67.8857 202.753 67.8857C202.753 67.8857 199.991 66.5183 195.767 66.84C191.461 67.1618 189.105 69.3335 189.105 69.3335Z" fill="#E59289"></path> <path d="M187.316 68.0465C187.316 68.0465 189.835 71.1834 196.334 70.6203C202.101 70.0573 204.457 66.3574 204.457 66.3574C195.684 73.1942 187.316 68.0465 187.316 68.0465Z" fill="#C1736B"></path> <path d="M202.589 39.1714C201.127 40.0561 201.208 41.5039 201.208 41.5039C203.889 38.367 208.925 40.1365 208.925 40.1365C208.925 40.1365 205.757 37.241 202.589 39.1714Z" fill="#1D1D1B"></path> <path d="M184.558 40.6186C181.064 39.3316 178.465 42.7098 178.465 42.7098C178.465 42.7098 183.177 40.0556 186.345 42.7098C186.345 42.7098 186.101 41.262 184.558 40.6186Z" fill="#1D1D1B"></path> <path d="M195.195 52.6035C195.195 52.6035 192.921 56.6251 193.489 59.4403C193.977 61.3705 196.901 61.6118 196.901 61.6118C196.901 61.6118 192.677 62.8184 192.027 59.5206C191.215 56.0621 195.195 52.6035 195.195 52.6035Z" fill="#D3A594"></path> <path d="M178.3 46.6512C178.3 46.7316 178.218 46.7316 178.218 46.812C176.837 47.6968 175.863 47.0534 175.863 47.0534C175.863 47.0534 175.7 48.5011 177.65 48.662C177.65 49.8685 178.3 51.2358 179.681 51.8793L186.992 47.3751C185.855 45.4447 180.899 43.7557 178.3 46.6512Z" fill="#2A2A2C"></path> <path d="M182.93 45.6855C179.518 45.6855 177.162 48.2594 179.03 51.3157C179.03 51.3157 179.843 52.844 182.767 53.407C185.773 53.97 188.535 52.4418 188.535 52.4418C188.454 47.4551 185.692 45.6855 182.93 45.6855Z" fill="white"></path> <path d="M182.115 47.9377C182.278 48.0986 182.521 48.3399 182.603 48.6617C182.846 49.4659 182.359 50.3507 181.547 50.5919C180.978 50.7528 180.409 50.592 180.084 50.2703C180.003 50.6724 180.084 51.0745 180.166 51.3963C180.653 52.9245 182.278 53.7288 183.902 53.2462C185.527 52.7636 186.421 51.2354 185.933 49.7072C185.365 48.3399 183.74 47.5356 182.115 47.9377Z" fill="#1D1D1B"></path> <path d="M209.656 44.1576L209.574 44.0771C206.487 41.5837 201.938 44.1576 201.207 46.1684L209.168 49.3856C210.387 48.5008 210.793 47.0531 210.63 45.8466C212.499 45.364 212.093 43.9163 212.093 43.9163C212.093 43.9163 211.118 44.801 209.656 44.1576Z" fill="#2A2A2C"></path> <path d="M204.702 43.8368C202.021 44.3195 199.584 46.4911 200.315 51.3974C200.315 51.3974 203.24 52.443 206.164 51.3974C208.926 50.3518 209.495 48.7431 209.495 48.7431C210.876 45.4455 208.114 43.2738 204.702 43.8368Z" fill="white"></path> <path d="M203.154 46.1682C203.317 46.3291 203.561 46.5704 203.642 46.8921C203.885 47.6964 203.398 48.5812 202.586 48.8224C202.017 48.9832 201.448 48.8225 201.123 48.5007C201.042 48.9028 201.123 49.305 201.205 49.6267C201.692 51.1549 203.317 51.9593 204.942 51.4766C206.566 50.994 207.46 49.4658 206.972 47.9377C206.404 46.5704 204.779 45.766 203.154 46.1682Z" fill="#1D1D1B"></path> <path d="M170.95 19.0631C165.344 24.2107 162.989 30.8061 163.963 38.6884C164.938 46.6511 163.72 51.5574 160.227 53.4877C164.288 57.1876 168.431 57.1876 172.737 53.5682C176.23 50.5922 178.911 46.812 180.861 42.1469C182.81 37.4819 185.572 33.7016 189.147 30.7256C192.802 27.8301 196.214 26.6237 199.545 27.2671C200.195 31.7713 207.1 41.5035 214.898 43.9164C213.68 43.4339 215.142 30.8061 214.492 29.117C213.842 26.9453 213.274 25.3367 212.949 24.2107C211.568 19.787 208.724 17.4545 204.581 17.2132C201.251 13.5134 196.133 11.8243 189.228 12.146C182.404 12.4677 176.23 14.8002 170.95 19.0631Z" fill="#1D1D1B"></path> <path d="M216.969 61.9326C218.27 61.9326 219.325 60.8884 219.325 59.6002C219.325 58.3119 218.27 57.2676 216.969 57.2676C215.668 57.2676 214.613 58.3119 214.613 59.6002C214.613 60.8884 215.668 61.9326 216.969 61.9326Z" fill="white"></path> <path d="M167.415 37.482C167.415 46.249 164.572 50.5119 162.216 51.8792C161.647 52.5227 161.079 53.0858 160.348 53.4878C160.591 53.7292 160.835 53.89 161.079 54.1313C161.972 53.89 163.597 53.1662 165.222 51.6379C167.334 49.6272 170.665 45.6861 170.665 38.3668C170.665 25.4174 186.099 13.7548 196.741 13.0309V12.7896C195.36 12.4679 193.817 12.307 192.273 12.2266C181.388 15.1221 167.415 25.0152 167.415 37.482Z" fill="#404140"></path> <path d="M65.1387 267.998C65.1387 267.998 89.347 186.28 106.244 174.215C119.729 164.563 179.519 165.609 230.535 194.484L219.243 229.552C174.563 233.895 124.766 204.859 124.766 204.859C120.217 229.552 105.432 242.26 88.3721 275.478L65.1387 267.998Z" fill="#3A2E88"></path> <path d="M292.435 84.2939L254.416 302.022H209.168L226.39 181.052L261.646 193.118C261.646 193.118 270.907 177.674 272.532 151.454C273.832 130.783 268.714 102.793 274.157 84.8562C279.599 66.9205 292.435 84.2939 292.435 84.2939Z" fill="#2C91B6"></path> <path d="M235.895 192.715C235.895 185.798 230.209 180.168 223.223 180.168C219.242 180.168 215.749 181.937 213.393 184.832C211.687 186.603 210.225 188.935 209.169 192.072C205.757 202.447 200.477 233.494 200.477 233.494L215.586 252.556L223.547 205.262C230.452 205.102 235.895 199.552 235.895 192.715Z" fill="#75CFF0"></path> <g opacity="0.35"> <path opacity="0.35" d="M187.967 48.9034C185.693 48.5817 182.687 48.5817 179.844 48.9034C178.381 49.0643 177 49.2252 175.863 49.4664C175.132 49.6272 174.563 50.3512 174.644 51.1555C174.888 53.4879 175.701 60.5659 182.362 60.6463C182.768 60.6463 183.174 60.6463 183.58 60.5659C187.723 60.1638 190.242 57.4291 190.892 52.5228C190.973 51.7185 190.81 50.8338 190.242 50.1903C189.673 49.4664 188.861 48.9838 187.967 48.9034Z" fill="white"></path> <path opacity="0.35" d="M210.144 46.168C208.926 46.168 207.626 46.168 206.082 46.3289C203.239 46.5701 200.315 47.1331 198.121 47.857C197.309 48.0984 196.578 48.7417 196.172 49.5461C195.765 50.3503 195.684 51.1547 196.009 51.9591C197.634 56.624 200.64 58.8761 204.783 58.474C205.189 58.474 205.514 58.3935 205.92 58.3131C212.419 56.9458 211.85 49.8678 211.606 47.5353C211.525 46.8114 210.956 46.2484 210.144 46.168Z" fill="white"></path> </g> <path d="M195.197 47.6161C194.709 47.777 193.085 47.9379 193.085 47.9379C193.085 47.9379 191.46 48.0987 190.973 48.0183C184.717 46.8923 178.787 46.8923 172.613 48.8227L172.776 50.8334C172.776 50.8334 173.507 51.316 173.669 52.3616C173.832 53.4072 175.132 61.6917 182.605 61.4504C189.592 61.2091 190.891 58.0723 191.866 51.316C191.947 50.5921 193.328 50.5921 193.328 50.5921C193.328 50.5921 194.628 50.3508 194.872 51.0747C197.146 57.5897 199.015 60.4047 205.92 59.2787C213.312 58.0723 213.069 49.7073 212.987 48.7422C212.906 47.6965 213.556 47.0532 213.556 47.0532L213.394 45.0424C206.976 44.238 201.208 45.3641 195.197 47.6161ZM190.323 52.4421C189.754 56.4636 187.723 60.0026 182.443 59.9222C176.756 59.8418 175.781 54.4529 175.375 51.0747C175.294 50.6726 175.619 50.2704 176.025 50.1095C179.437 49.3856 184.392 49.1443 187.967 49.5465C189.429 49.7073 190.485 50.9942 190.323 52.4421ZM205.92 57.6701C200.802 58.7156 198.121 55.6593 196.74 51.7986C196.253 50.4313 197.065 48.9835 198.446 48.5009C201.777 47.3748 206.732 46.7314 210.225 46.8119C210.713 46.8119 211.038 47.1336 211.119 47.6161C211.363 50.9942 211.444 56.5441 205.92 57.6701Z" fill="#2A3A63"></path> <path d="M211.934 45.6852L214.777 43.1113L214.858 45.4439L213.396 47.2133L211.934 45.6852Z" fill="#2A3A63"></path> </g> <defs> <clipPath id="clip0"> <rect width="360" height="200" fill="white"></rect> </clipPath> </defs> </svg> 