<?xml version="1.0" encoding="UTF-8"?> <svg xmlns="http://www.w3.org/2000/svg" width="360" height="200" viewBox="0 0 360 200" fill="none"> <g clip-path="url(#clip0)"> <rect width="360" height="200" fill="#FBE2CF"></rect> <path d="M205.319 62.125L206.943 65.5769L210.682 66.1405L208 68.8176L208.636 72.6218L205.319 70.8606L202.003 72.6218L202.639 68.8176L199.957 66.1405L203.626 65.5769L205.319 62.125Z" fill="#8FD2EF"></path> <g opacity="0.81"> <path opacity="0.81" d="M278.278 69.9445C278.278 69.9445 278.278 69.873 278.207 69.873H278.278V69.9445Z" fill="#596152"></path> <path opacity="0.81" d="M278.279 69.8027C278.279 69.8027 278.35 69.8027 278.35 69.8741C278.279 69.8741 278.279 69.8741 278.207 69.9456C278.279 69.8741 278.279 69.8741 278.279 69.8027Z" fill="#596152"></path> </g> <path d="M260.851 92.0629C248.574 92.3449 226.772 91.429 215.342 95.7963C211.955 97.1354 225.008 127.428 222.892 128.484C221.41 129.26 263.25 91.9223 260.851 92.0629Z" fill="#EDB09A"></path> <path d="M236.084 70.7891L241.305 70.93L247.303 103.195C247.303 103.195 236.86 109.042 228.323 103.9L226.488 87.1333L236.084 70.7891Z" fill="#EDB09A"></path> <path d="M236.93 80.2285C234.955 87.3439 226.912 90.7254 226.912 90.7254L226.488 87.4845L236.93 80.2285Z" fill="#DB9A86"></path> <path d="M167.57 72.0573C167.57 72.0573 186.832 93.0511 213.926 79.5247L225.145 54.4452L205.671 38.3125H199.18C196.287 48.0343 187.468 70.3665 167.57 72.0573Z" fill="#2C266B"></path> <path d="M199.18 38.3816H205.671L200.308 33.9434C200.308 33.9434 199.956 35.6342 199.18 38.3816Z" fill="#2B1F56"></path> <path d="M235.237 67.478L242.787 79.5247C252.947 80.1587 263.53 71.4231 262.825 56.1358C262.543 49.4432 261.061 43.5255 258.733 38.3828H205.18L235.237 67.478Z" fill="#2C266B"></path> <path d="M217.531 38.3826H258.665C252.174 23.8702 238.557 16.4027 223.387 16.4027C202.432 16.3322 195.87 27.8857 194.882 29.2242C193.188 31.4082 191.707 33.733 190.508 36.1282C190.155 36.8327 189.802 37.6076 189.449 38.3121C183.734 50.5701 181.688 63.603 169.199 64.6597C169.199 64.6597 176.396 73.6772 197.775 63.4621L217.39 47.7522C217.319 47.8227 217.602 43.5253 217.531 38.3826Z" fill="#2C266B"></path> <path d="M198.831 42.2576C197.562 47.7526 199.608 69.1689 202.289 74.5229C205.464 80.8632 217.53 90.2329 221.269 90.0922C224.091 90.0216 242.718 81.1451 243.988 69.7324C244.482 65.6464 243.212 44.6528 241.236 39.3692C241.095 39.017 240.954 38.6647 240.742 38.3125H200.525C199.749 39.651 199.185 40.9191 198.831 42.2576Z" fill="#EDB09A"></path> <path d="M219.15 27.3927C212.8 27.8154 204.404 32.5354 200.594 38.3827L242.081 42.3982C238.624 35.7761 226.488 26.8996 219.15 27.3927Z" fill="#EDB09A"></path> <path d="M228.814 50.3598C230.719 49.9371 232.907 50.3598 234.529 51.2756C235.8 51.1347 236.646 50.2893 236.646 50.2893C236.646 50.2893 236.858 51.8392 235.023 52.896L223.875 58.3909C223.17 54.4458 225.428 51.1347 228.814 50.3598Z" fill="#221A49"></path> <path d="M223.809 58.3919C223.809 58.3919 226.349 58.8146 230.018 57.5465C233.758 56.2785 235.239 52.756 235.239 52.756C229.665 49.3041 223.879 52.122 223.809 58.3919Z" fill="white"></path> <path d="M214.494 66.9145C214.917 65.1532 215.834 64.9419 216.681 63.392C217.245 62.4058 217.245 61.6309 217.245 61.6309C217.245 61.6309 217.739 62.758 217.316 64.0261C216.964 64.9419 216.187 65.9282 216.046 67.2667C215.976 68.3939 217.669 69.3801 218.727 69.662C216.117 69.7324 214.141 68.5347 214.494 66.9145Z" fill="#CC8979"></path> <path d="M242.361 58.1089C242.361 58.1089 245.889 53.1071 249.417 54.7273C252.945 56.3477 254.285 63.0403 249.205 67.3376C245.325 70.5783 240.598 68.1125 240.598 68.1125L242.361 58.1089Z" fill="#EDB09A"></path> <path d="M244.128 69.0293C244.128 69.0293 242.081 74.9469 234.25 76.4264C234.25 76.4264 240.388 81.3578 248.291 79.033V73.7493L244.128 69.0293Z" fill="#2C266B"></path> <path d="M254.779 33.9443C251.957 31.8309 229.379 24.6451 228.179 25.1383C227.615 25.3496 226.486 25.42 225.286 25.6314L221.9 17.248L201.932 26.195L201.086 29.9287C201.086 29.9287 201.58 33.3807 203.979 37.185C206.307 40.9187 210.47 44.9342 217.808 46.2728C215.479 42.0458 216.467 38.3826 216.467 38.3826C216.467 38.3826 217.243 40.7778 220.136 41.6936C219.924 40.0733 220.065 38.5939 220.348 37.185C220.912 34.5079 222.182 32.324 223.381 30.7741C224.652 33.8034 226.486 36.2691 228.603 38.3826C235.235 44.9342 244.266 47.3295 244.266 47.3295L258.731 42.4686C258.731 42.3981 255.061 34.1556 254.779 33.9443Z" fill="#2C266B"></path> <path d="M227.614 53.6699C227.826 53.6699 228.038 53.6699 228.25 53.6699C227.968 54.0221 227.756 54.4449 227.826 54.938C227.897 55.7834 228.743 56.4174 229.59 56.347C230.084 56.2765 230.437 56.0651 230.719 55.6425C230.79 55.8538 230.86 56.0651 230.86 56.2765C231.072 57.8968 229.873 59.3057 228.25 59.5171C226.627 59.7285 225.215 58.5309 225.004 56.9105C224.863 55.2902 225.992 53.8813 227.614 53.6699Z" fill="#2D2568"></path> <path d="M169.125 64.6602C169.125 64.6602 171.665 68.0417 179.073 68.3235C190.715 60.715 185.424 50.0069 189.586 38.3125H189.375C183.871 50.2183 181.332 63.6739 169.125 64.6602Z" fill="#16164C"></path> <path d="M189.375 38.3831H189.516C189.798 37.6786 190.08 36.9037 190.433 36.1992C190.08 36.9037 189.728 37.6081 189.375 38.3831Z" fill="#140D38"></path> <path d="M218.445 55.7127L223.808 58.3897C223.808 58.3897 226.347 58.8125 230.017 57.5444C233.756 56.2763 235.238 52.7539 235.238 52.7539L236.226 57.4739L224.513 62.5462L218.445 60.0101V55.7127Z" fill="#EDB09A"></path> <path d="M199.676 55.1493C199.676 55.1493 200.594 55.7129 201.651 55.572C202.781 54.304 204.404 53.3881 206.097 53.3881C208.99 53.3177 211.6 55.9242 211.953 59.7989L201.581 57.2628C199.888 56.6992 199.676 55.1493 199.676 55.1493Z" fill="#221A49"></path> <path d="M211.88 59.7994C211.88 59.7994 209.905 60.7858 206.659 60.5039C203.273 60.2222 201.297 57.1929 201.297 57.1929C205.107 52.5433 210.469 53.8818 211.88 59.7994Z" fill="white"></path> <path d="M205.393 55.499C205.604 55.499 205.816 55.5695 205.957 55.5695C205.604 55.8513 205.393 56.2035 205.322 56.6967C205.252 57.5421 205.958 58.317 206.804 58.3875C207.298 58.3875 207.721 58.2465 208.003 57.8943C208.003 58.1056 208.074 58.317 208.003 58.5284C207.932 60.0782 206.521 61.2758 204.97 61.2054C203.417 61.1349 202.217 59.726 202.288 58.1761C202.429 56.6262 203.77 55.4286 205.393 55.499Z" fill="#2D2568"></path> <path d="M206.659 60.5028C209.975 60.7846 211.88 59.7983 211.88 59.7983L214.915 55.9941L215.056 60.221L208.353 65.0819L201.58 60.9959L201.297 57.2622C201.368 57.1917 203.343 60.1506 206.659 60.5028Z" fill="#EDB09A"></path> <path d="M223.947 43.8081C223.524 43.8786 223.242 43.949 223.1 44.0899C222.395 44.5126 223.736 46.3442 225.147 46.2034C229.168 45.8511 232.837 46.8374 232.837 46.8374C232.837 46.8374 229.521 43.1741 223.947 43.8081Z" fill="#221A49"></path> <path d="M211.602 74.6623C215.059 74.451 216.329 71.4922 219.222 73.6761C220.915 70.7172 224.655 72.4785 227.971 71.4922C227.971 71.4922 223.667 74.5215 219.574 75.226C215.553 76.0009 211.602 74.6623 211.602 74.6623Z" fill="#FF7171"></path> <path d="M211.602 74.6642C211.602 74.6642 214.424 82.5544 221.127 81.2863C227.336 80.0887 227.971 71.5645 227.971 71.5645L221.056 76.0027L218.586 76.9185L211.602 74.6642Z" fill="#FF7171"></path> <path d="M227.971 71.5645C227.054 72.128 225.642 72.7621 224.725 73.1847L220.28 75.5095L214 75.0869C212.166 75.0164 211.602 74.6642 211.602 74.6642C211.602 74.6642 212.801 77.3412 215.976 78.3979C217.246 78.8206 219.292 78.4684 220.985 78.1161C222.679 77.8344 223.455 77.6935 224.372 76.8481C226.912 74.7346 227.971 71.5645 227.971 71.5645Z" fill="#061423"></path> <path d="M218.728 77.0583C219.081 76.9174 219.504 76.847 219.857 76.7765C221.48 76.4947 223.103 76.5651 224.372 76.9879C223.455 77.8332 222.256 78.5377 220.492 78.8195C218.728 79.1717 217.246 78.89 215.977 78.4672C216.682 77.8332 217.599 77.4105 218.728 77.0583Z" fill="#AF2E41"></path> <path d="M219.574 75.8627C216.399 76.3558 214 75.0878 214 75.0878C216.61 75.2287 220.703 75.0173 224.724 73.1152C224.724 73.1152 222.749 75.2991 219.574 75.8627Z" fill="white"></path> <path d="M206.804 45.6406C207.086 45.6406 207.298 45.711 207.509 45.7815C208.074 46.0633 207.58 48.0358 206.592 48.1767C203.699 48.529 201.371 50.0788 201.371 50.0788C201.371 50.0788 202.712 46.0633 206.804 45.6406Z" fill="#221A49"></path> <path d="M203.557 122.992C211.672 115.101 211.672 99.1098 206.803 97.3488C199.395 97.912 190.787 105.591 185.001 110.17C177.875 114.397 175.123 117.144 170.607 120.174C165.033 107 156.425 99.885 153.038 91.501C153.038 91.501 148.17 86.3586 143.02 91.9243C143.02 91.9243 159.177 136.94 165.104 138.209C170.96 139.477 203.557 122.992 203.557 122.992Z" fill="#EDB09A"></path> <path d="M152.824 91.5002C154.729 81.0742 150.284 79.5948 148.591 76.2132C146.968 73.0431 149.719 69.1684 148.873 68.323C147.25 66.8436 144.075 68.6752 143.652 71.8455C143.299 74.4521 145.275 76.8473 143.793 78.8903C142.522 80.5811 139.63 78.8903 134.267 75.6497C130.387 73.3248 123.26 74.1702 123.614 76.5655C123.896 78.3972 129.54 76.5655 137.09 82.4832C131.516 79.6652 122.978 80.7219 120.791 83.0467C119.521 84.3853 120.227 85.7238 120.227 85.7238C120.227 85.7238 120.227 87.4849 122.061 87.9075C123.543 88.2601 131.092 87.6262 136.243 89.8099C136.243 89.8099 133.421 90.2324 131.092 91.3596C128.341 92.7687 123.966 94.4591 125.236 96.0795C126.859 98.1932 135.608 91.6416 144.357 95.3749L152.824 91.5002Z" fill="#EDB09A"></path> <path d="M143.301 87.4163C141.326 85.3031 141.96 82.0625 141.96 82.0625C141.96 82.0625 142.384 84.3873 144.289 86.4303C146.194 88.4735 148.381 88.9667 148.381 88.9667C148.381 88.9667 145.347 89.6706 143.301 87.4163Z" fill="#DB9A86"></path> <path d="M122.77 84.455C122.77 84.455 125.592 83.2574 128.344 83.187C131.166 83.1165 136.952 85.6526 136.952 85.6526C133.212 84.8073 127.144 84.1028 122.77 84.455Z" fill="#DB9A86"></path> <path d="M264.376 156.667C260.002 147.861 257.885 144.691 265.717 123.556C266.987 118.906 266.775 114.187 256.262 110.453L247.09 117.005C235.378 121.795 224.23 123.204 213.928 118.343L211.529 114.116C209.906 114.75 203.486 123.345 206.59 135.392C208.143 141.309 218.655 153.215 214.634 166.459C214.634 166.459 208.781 191.726 195.375 208H280.111C276.417 181.683 271.22 167.234 264.376 156.667Z" fill="#FF4040"></path> <path d="M222.257 132.783L200.737 154.481C199.749 155.537 199.749 157.158 200.737 158.144L234.675 191.678C235.734 192.664 237.356 192.664 238.344 191.678L259.934 169.98C260.922 168.923 260.922 167.302 259.934 166.316L225.997 132.783C224.938 131.726 223.245 131.726 222.257 132.783Z" fill="#2C266B"></path> <path d="M226.544 135.801L203.863 158.685L234.155 188.615L256.835 165.731L226.544 135.801Z" fill="#B6D7FF"></path> <path d="M213.647 145.251C213.505 145.109 213.293 145.109 213.153 145.251C213.012 145.391 213.012 145.602 213.153 145.743C213.293 145.884 213.505 145.884 213.647 145.743C213.787 145.602 213.787 145.391 213.647 145.251Z" fill="#1B1A56"></path> <path d="M248.357 178.151C247.794 177.658 246.946 177.658 246.452 178.151C245.959 178.714 245.959 179.56 246.452 180.053C247.017 180.546 247.864 180.546 248.357 180.053C248.922 179.49 248.922 178.644 248.357 178.151Z" fill="#0F0F3A"></path> <path d="M228.392 170.615C234.198 170.615 238.905 165.916 238.905 160.118C238.905 154.321 234.198 149.621 228.392 149.621C222.586 149.621 217.879 154.321 217.879 160.118C217.879 165.916 222.586 170.615 228.392 170.615Z" stroke="white" stroke-width="1.9396" stroke-miterlimit="10"></path> <path d="M222.96 159.344L232.203 155.751C232.344 155.681 232.555 155.822 232.485 155.962L230.933 165.755C230.933 165.896 230.721 166.037 230.58 165.896L222.89 159.696C222.748 159.626 222.819 159.414 222.96 159.344Z" fill="#F4F4F4"></path> <path d="M261.134 96.8535L265.156 128.062C271.505 135.6 278.773 145.251 278.773 145.251C274.61 146.379 268.542 151.028 263.18 151.873C261.134 152.155 257.676 152.578 255.066 151.733C253.302 151.169 246.105 147.224 243.918 146.942C243.212 146.801 242.013 146.66 240.461 147.083C236.721 147.929 232.487 150.535 230.159 154.269C229.171 155.889 228.254 158.425 229.171 159.2C230.159 160.045 231.217 159.623 232.347 158.214C233.616 156.805 236.368 153.705 239.543 152.578C238.837 153 235.239 155.607 235.521 159.2C235.663 160.821 236.791 161.384 237.568 161.525C237.991 161.666 238.414 161.525 238.414 161.525C238.414 161.525 238.132 162.934 238.837 163.991C239.12 164.413 239.402 164.554 239.684 164.836C240.249 165.118 240.531 165.118 240.531 165.118C240.531 165.118 240.39 166.879 242.013 168.288C243.495 169.556 247.657 170.613 248.081 167.865C248.362 166.245 245.611 165.681 245.611 165.681C246.034 163.92 248.081 163.779 248.081 163.779C248.081 163.779 254.854 165.963 258.382 165.189C260.71 164.625 261.839 163.92 262.263 163.427C274.116 163.85 297.117 161.243 301.281 155.325C305.231 149.408 276.303 106.435 261.134 96.8535Z" fill="#EDB09A"></path> <path d="M238.268 161.525C238.268 161.525 238.551 159.482 239.891 157.932C241.515 156.029 243.49 154.902 243.49 154.902C243.49 154.902 241.021 155.607 239.045 157.65C237.563 159.129 237.422 161.525 237.422 161.525C237.422 161.525 237.563 161.525 237.845 161.525C237.986 161.525 238.268 161.525 238.268 161.525Z" fill="#DB9A86"></path> <path d="M240.316 165.048C240.316 165.048 240.316 163.639 240.881 162.582C242.01 160.399 244.055 159.271 244.055 159.271C244.055 159.271 241.445 159.835 240.034 162.16C239.469 163.146 239.328 164.767 239.328 164.767C239.328 164.767 239.469 164.907 239.751 165.048C240.175 165.048 240.316 165.048 240.316 165.048Z" fill="#DB9A86"></path> <path d="M256.969 91.2891C256.899 91.2891 256.899 91.2891 256.828 91.3597C254.852 91.2191 253.018 91.4304 252.524 91.6417C240.106 117.989 228.746 121.23 228.746 121.23C217.175 114.044 219.926 98.9678 220.985 94.6705L221.267 93.4734C221.267 93.4734 199.959 93.614 184.648 109.183L195.866 132.009C200.453 128.909 205.392 125.598 208.99 123.203L234.179 132.994L254.358 120.314C255.911 122.709 263.108 125.809 263.39 128.204C265.295 131.375 267.976 135.179 267.976 135.179C275.525 133.77 283.851 128.979 287.803 120.173C287.873 120.102 278.912 91.7823 256.969 91.2891Z" fill="#FF4040"></path> <path d="M228.183 121.864L227.266 121.229C212.731 111.296 218.94 93.4024 219.01 93.1911H223.244C223.244 93.2618 221.621 97.9817 221.762 102.984C221.974 109.042 224.232 113.832 228.606 117.214C229.947 116.509 232.487 114.889 235.52 112.001C239.542 108.126 244.622 102.772 248.573 91.43L252.948 91.2188C244.763 114.678 229.805 121.089 229.171 121.371L228.183 121.864Z" fill="#FF7171"></path> <path d="M163.537 146.099L132.703 140.041C131.715 139.829 130.798 140.463 130.587 141.379L125.083 164.486C124.872 165.473 125.436 166.459 126.424 166.67L156.411 174.349C157.398 174.631 158.386 173.997 158.668 173.01L165.018 148.283C165.23 147.297 164.525 146.31 163.537 146.099Z" fill="#2C266B"></path> <path d="M161.135 148.282L133.759 142.929C133.547 142.858 133.406 142.999 133.336 143.211L128.538 163.429C128.467 163.641 128.609 163.852 128.82 163.852L155.491 170.685C155.702 170.755 155.914 170.615 155.914 170.403L161.488 148.705C161.488 148.494 161.347 148.282 161.135 148.282Z" fill="white"></path> <path d="M140.04 163.29C144.678 163.29 148.437 159.568 148.437 154.977C148.437 150.386 144.678 146.664 140.04 146.664C135.404 146.664 131.645 150.386 131.645 154.977C131.645 159.568 135.404 163.29 140.04 163.29Z" fill="#75CAD3"></path> <path d="M145.12 156.033L147.448 155.328L145.896 153.285L143.145 160.894L144.979 160.259L144.273 158.71L146.107 158.005L145.12 156.033Z" fill="#0D1013"></path> <path d="M145.967 153.638C146.037 153.497 146.037 153.427 145.967 153.286C145.967 153.145 145.896 153.074 145.825 152.934L136.794 156.949L137.288 158.781L136.512 162.585C136.724 162.726 137.006 162.796 137.288 162.867C139.263 163.571 141.31 163.501 143.144 162.726C144.132 160.119 144.767 156.949 145.967 153.638Z" fill="#EF5968"></path> <path d="M138.84 163.219C139.757 160.753 140.957 157.724 140.957 157.654L136.723 156.949L136.159 157.231C136.159 157.302 135.877 157.583 135.877 157.583C135.735 159.063 135.523 160.472 135.383 161.951C135.947 162.303 136.582 162.656 137.288 162.867C137.782 163.008 138.276 163.149 138.84 163.219Z" fill="#FFC500"></path> <path d="M137.359 150.467C137.217 149.833 136.794 149.27 136.229 149.27C135.736 149.27 135.312 149.763 135.171 150.397C134.818 149.974 134.395 149.833 133.972 149.903C133.478 150.044 133.337 150.749 133.619 151.453C133.76 151.735 133.901 151.946 134.183 152.158C133.266 154.623 133.055 156.173 133.055 156.173C133.831 156.526 134.606 156.878 135.454 157.089C136.371 157.371 141.38 158.921 143.568 156.385C144.485 155.328 145.331 154.13 146.037 152.933C146.037 152.933 142.862 151.946 141.451 151.453C139.828 151.031 138.487 150.608 137.359 150.467Z" fill="#EF5968"></path> <path d="M136.089 149.976C135.878 150.046 135.737 150.328 135.807 150.68C135.878 151.032 136.089 151.314 136.301 151.244C136.513 151.174 136.654 150.892 136.583 150.539C136.513 150.187 136.301 149.905 136.089 149.976Z" fill="#0D1013"></path> <path d="M134.184 150.467C133.973 150.537 133.973 150.819 134.114 151.101C134.255 151.383 134.538 151.524 134.678 151.453C134.89 151.383 134.89 151.101 134.749 150.819C134.678 150.537 134.396 150.397 134.184 150.467Z" fill="#0D1013"></path> <path d="M146.249 148.283C146.461 148.424 146.813 149.058 146.884 149.199C146.955 149.27 147.025 149.34 147.095 149.34C147.166 149.34 147.307 149.34 147.378 149.34C147.519 149.27 147.589 148.988 147.589 148.847C147.519 148.354 147.307 147.79 146.813 147.578C146.461 147.438 146.178 147.438 146.037 147.649C145.896 147.86 146.037 148.142 146.249 148.283Z" fill="#0D1013"></path> <path d="M143.285 146.873C143.355 146.662 143.143 146.45 142.861 146.239C142.367 146.028 141.803 146.169 141.45 146.38C141.45 146.38 141.38 146.38 141.38 146.45C141.238 146.592 141.098 146.732 141.098 146.944C141.098 147.014 141.168 147.085 141.309 147.155C141.38 147.226 141.521 147.226 141.592 147.226C141.803 147.226 142.509 147.014 142.72 147.085C142.861 147.085 142.932 147.085 143.073 147.085C143.143 147.085 143.285 147.014 143.285 146.873Z" fill="#0D1013"></path> <path d="M146.675 151.17C146.675 150.888 146.533 150.536 146.393 150.324C146.251 150.042 146.039 149.831 145.828 149.62C145.616 149.409 145.334 149.268 145.052 149.197C144.628 149.057 144.134 149.057 143.711 149.197C143.288 149.339 142.865 149.62 142.583 149.972C142.3 150.324 142.089 150.747 142.089 151.24C142.018 151.734 142.159 152.156 142.371 152.579C142.583 153.001 142.935 153.283 143.358 153.495C143.782 153.706 144.205 153.777 144.699 153.777C145.193 153.706 145.616 153.565 145.969 153.213C146.322 152.931 146.604 152.509 146.745 152.085C146.675 151.804 146.745 151.522 146.675 151.17Z" fill="#6F568E"></path> <path d="M143.355 150.045C143.355 149.763 143.213 149.411 143.073 149.199C142.931 148.917 142.719 148.706 142.508 148.495C142.296 148.284 142.014 148.143 141.662 148.072C141.238 147.932 140.744 147.932 140.32 148.072C139.897 148.214 139.474 148.495 139.192 148.847C138.909 149.199 138.698 149.622 138.698 150.115C138.627 150.609 138.769 151.031 138.98 151.454C139.192 151.876 139.545 152.158 139.968 152.37C140.391 152.581 140.814 152.652 141.308 152.652C141.802 152.581 142.225 152.44 142.579 152.088C142.931 151.806 143.213 151.384 143.355 150.96C143.355 150.609 143.425 150.327 143.355 150.045Z" fill="#6F568E"></path> <path d="M145.685 150.749C145.615 150.609 145.474 150.397 145.333 150.327C145.191 150.186 144.98 150.115 144.839 150.045C144.557 149.975 144.274 149.975 143.992 150.045C143.709 150.115 143.428 150.327 143.286 150.538C143.075 150.749 143.004 151.031 142.934 151.313C142.934 151.595 143.004 151.876 143.146 152.158C143.286 152.44 143.498 152.652 143.78 152.792C144.063 152.934 144.345 153.004 144.627 152.934C144.909 152.934 145.191 152.792 145.403 152.581C145.614 152.37 145.826 152.158 145.897 151.876C145.968 151.665 145.968 151.454 145.968 151.313C145.826 151.102 145.756 150.891 145.685 150.749Z" fill="white"></path> <path d="M144.981 151.102C144.91 151.032 144.91 150.961 144.769 150.891C144.698 150.82 144.628 150.82 144.558 150.75C144.416 150.68 144.275 150.68 144.135 150.75C143.993 150.82 143.852 150.891 143.781 150.961C143.711 151.102 143.641 151.172 143.641 151.314C143.641 151.454 143.641 151.596 143.711 151.736C143.781 151.877 143.852 151.948 143.993 152.018C144.135 152.088 144.275 152.088 144.416 152.088C144.558 152.088 144.698 152.018 144.769 151.948C144.84 151.877 144.981 151.736 144.981 151.596C144.981 151.525 145.052 151.384 144.981 151.314C145.052 151.314 145.052 151.172 144.981 151.102Z" fill="#0D1013"></path> <path d="M142.369 149.552C142.298 149.411 142.157 149.2 142.016 149.13C141.875 148.989 141.664 148.918 141.522 148.848C141.24 148.777 140.958 148.777 140.676 148.848C140.393 148.918 140.111 149.13 139.97 149.341C139.759 149.552 139.688 149.834 139.617 150.116C139.617 150.398 139.688 150.68 139.829 150.961C139.97 151.243 140.182 151.454 140.464 151.595C140.746 151.736 141.028 151.807 141.31 151.736C141.593 151.736 141.875 151.595 142.087 151.384C142.298 151.173 142.51 150.961 142.581 150.68C142.651 150.468 142.651 150.257 142.651 150.116C142.51 149.904 142.439 149.693 142.369 149.552Z" fill="white"></path> <path d="M141.665 149.903C141.595 149.832 141.595 149.762 141.453 149.692C141.383 149.621 141.312 149.621 141.242 149.551C141.101 149.48 140.959 149.48 140.818 149.551C140.678 149.621 140.536 149.692 140.466 149.762C140.395 149.903 140.324 149.974 140.324 150.114C140.324 150.256 140.324 150.396 140.395 150.537C140.466 150.678 140.536 150.748 140.678 150.819C140.818 150.889 140.959 150.889 141.101 150.889C141.242 150.889 141.383 150.819 141.453 150.748C141.595 150.678 141.665 150.537 141.665 150.396C141.665 150.326 141.736 150.185 141.665 150.114C141.736 150.114 141.736 150.044 141.665 149.903Z" fill="#0D1013"></path> <path d="M143.076 156.173C143.076 156.104 143.076 156.104 143.076 156.173C143.005 156.104 143.005 156.104 143.005 156.104C143.005 156.104 143.005 156.104 142.934 156.104H142.864C142.864 156.104 142.864 156.104 142.793 156.104C142.793 156.104 142.793 156.104 142.793 156.173C142.652 156.385 142.511 156.597 142.37 156.808C141.805 157.371 141.1 157.653 140.394 157.724C139.9 157.794 138.701 157.865 136.725 157.513C136.443 157.442 136.161 157.371 135.879 157.301V157.583C135.879 157.583 136.161 157.653 136.443 157.724L137.078 158.921L138.207 157.935L139.336 159.062L140.323 157.935L141.665 158.71L142.088 157.231C142.229 157.16 142.37 157.019 142.44 156.878C142.652 156.667 142.793 156.455 142.934 156.173C143.076 156.244 143.076 156.244 143.076 156.173Z" fill="white"></path> <path d="M159.161 152.369L151.047 150.608L151.47 149.129L159.585 150.89L159.161 152.369Z" fill="#7DE2EC"></path> <path d="M158.528 154.623L150.414 152.862L150.837 151.383L158.951 153.144L158.528 154.623Z" fill="#7DE2EC"></path> <path d="M128.115 147.649C126.28 148.142 127.621 151.312 124.093 151.946C120.424 152.651 121.694 158.146 119.295 159.484C115.061 161.034 112.239 161.527 105.254 163.359C105.254 163.359 93.6122 172.799 97.634 174.278C99.0451 174.771 102.855 175.476 104.407 175.546C115.414 176.18 125.01 164.979 125.01 164.979L125.081 164.768C125.081 164.768 125.081 164.697 125.151 164.627L125.222 164.415C125.574 162.795 127.198 156.173 127.479 154.976C127.621 154.412 127.903 153.566 128.961 152.862C130.937 151.453 129.878 147.226 128.115 147.649Z" fill="#EDB09A"></path> <path d="M131.577 122.006C131.083 121.301 130.024 121.372 129.107 121.161C127.413 120.738 126.779 119.611 126.919 117.92C127.273 114.82 136.515 96.5738 111.115 87.6973L93.405 135.039L91.5 147.931L106.317 149.692L107.375 142.576C119.088 145.959 127.131 145.043 126.99 137.152C126.99 137.152 128.542 136.518 128.048 134.898C122.263 133.841 122.545 129.826 122.545 129.826C126.002 131.023 128.966 130.107 128.966 130.107C128.966 130.107 129.178 128.699 128.824 127.148C132 125.74 132.494 123.344 131.577 122.006Z" fill="#EDB09A"></path> <path d="M117.535 116.017C120.499 119.398 124.52 119.821 124.52 119.821C126.778 115.241 124.591 110.662 124.591 110.662C121.627 111.015 119.44 112.283 117.535 116.017Z" fill="white"></path> <path d="M124.096 111.227C123.32 111.297 122.685 112.706 122.615 114.467C122.544 116.158 123.179 117.497 123.955 117.426C124.731 117.356 125.366 115.947 125.437 114.186C125.437 112.495 124.873 111.157 124.096 111.227Z" fill="#2C266B"></path> <path d="M122.756 112.001C122.05 111.86 121.345 112.353 121.204 113.058C121.063 113.762 121.557 114.396 122.262 114.537C122.968 114.677 123.673 114.185 123.814 113.48C123.956 112.846 123.462 112.142 122.756 112.001Z" fill="white"></path> <path d="M124.798 104.957C120.423 105.591 118.941 109.466 118.941 109.466C118.941 109.466 121.27 107.846 124.021 107.212C124.727 107.071 125.362 106.578 125.644 105.944C125.927 105.38 125.856 104.817 124.798 104.957Z" fill="#AF3633"></path> <path d="M109.064 148.988C108.993 148.143 108.288 147.438 107.441 147.227C105.042 146.452 102.361 145.747 99.3977 145.184C96.4344 144.62 93.7532 144.198 91.2131 143.986C91.072 143.986 90.5076 143.846 89.9431 144.128C89.5198 144.339 89.2375 144.62 89.0259 145.043L87.1914 149.341C90.5782 149.341 108.923 152.229 108.923 152.229L109.064 148.988Z" fill="#76A7FF"></path> <path d="M119.296 157.371C119.296 157.231 119.296 157.089 119.296 156.949H119.014C117.673 155.399 115.486 153.849 111.817 152.863C105.961 150.326 99.4698 148.988 90.8618 148.565C86.2051 148.354 80.8427 150.82 76.6093 156.244C73.4343 160.33 71.6704 165.403 71.3881 170.616C71.1059 175.969 70.6825 196.094 71.247 207.718H124.659C124.588 198.559 123.459 175.336 119.296 157.371Z" fill="#B6D7FF"></path> <path d="M163.184 155.116C163.184 155.116 159.304 161.738 154.435 161.527C154.435 161.527 155.494 156.314 152.53 154.905C151.26 154.341 149.496 155.327 150.343 158.004C151.19 160.682 150.272 160.822 149.073 162.443C148.085 163.852 147.45 165.26 148.155 167.938C148.297 168.431 148.226 168.924 148.085 169.346C144.557 175.546 139.689 177.096 135.879 179.773C135.879 179.773 129.176 174.772 125.436 166.669L109.984 172.798C109.984 172.798 123.814 192.101 130.305 194.92C139.336 198.724 151.895 177.307 154.153 173.856C154.082 173.926 169.464 170.122 163.184 155.116Z" fill="#EDB09A"></path> <path d="M128.046 168.923C126.917 164.344 123.742 160.751 121.414 158.356C118.521 155.397 115.346 153.002 111.254 153.072C105.257 153.142 102.575 158.144 102.646 164.273C102.716 171.6 108.573 179.702 108.573 179.702C122.402 182.026 128.046 168.923 128.046 168.923Z" fill="#76A7FF"></path> <path d="M127.273 78.8924C124.027 83.9647 119.653 83.6125 119.653 83.6125C119.653 83.6125 120.852 80.4423 119.512 77.9766C119.512 77.9766 118.03 81.7104 113.091 81.7808C110.41 81.7808 94.3228 77.2016 82.3987 84.7396C77.1069 88.0509 74.7786 90.2345 73.6496 92.4181L73.5791 92.2775C72.803 90.5871 72.2385 88.6141 72.6619 86.3599C72.6619 86.3599 68.3579 90.2345 70.8274 96.8568C66.4529 97.702 65.3945 101.225 65.3945 101.225C66.6645 100.309 68.2168 99.9563 69.5573 99.9563C66.7351 107.706 67.0173 116.934 72.7324 124.754C73.1557 125.388 73.6496 125.952 74.073 126.515C74.2847 126.797 74.5669 127.079 74.7786 127.291C77.248 130.038 79.8586 131.87 82.2576 133.067C87.761 135.956 88.3255 138.069 86.3499 140.958C86.3499 140.958 93.4761 141.098 97.3568 136.308C102.084 130.461 101.378 123.556 100.32 119.33C100.32 119.259 100.391 119.188 100.391 119.119C101.872 121.725 107.446 118.555 107.446 118.555C109.845 114.257 109.21 109.819 107.94 106.367C139.902 102.493 127.273 78.8924 127.273 78.8924Z" fill="#B21919"></path> <path d="M99.541 116.37C95.3076 120.033 97.7066 131.938 109.842 131.164L108.29 117.849C108.29 117.849 103.774 112.706 99.541 116.37Z" fill="#EDB09A"></path> </g> <defs> <clipPath id="clip0"> <rect width="360" height="200" fill="white"></rect> </clipPath> </defs> </svg> 