<?xml version="1.0" encoding="UTF-8"?> <svg xmlns="http://www.w3.org/2000/svg" width="70" height="70" viewBox="0 0 70 70" fill="none"> <circle cx="35" cy="35" r="35" fill="#52C0E7"></circle> <rect x="20.375" y="18.375" width="7" height="11.375" rx="1.75" transform="rotate(-30 20.375 18.375)" fill="#11A3D8"></rect> <rect x="43.5625" y="14.875" width="7" height="11.375" rx="1.75" transform="rotate(30 43.5625 14.875)" fill="#11A3D8"></rect> <path d="M24.5 54.25C22.567 54.25 21 52.683 21 50.75V31.5C21 23.768 27.268 17.5 35 17.5V17.5C42.732 17.5 49 23.768 49 31.5V52.5C49 53.4665 48.2165 54.25 47.25 54.25H24.5Z" fill="#9BDBF5"></path> <path fill-rule="evenodd" clip-rule="evenodd" d="M41.125 27.4435C41.125 31.074 39.2022 35 34.5625 35C30.1318 35 28 31.074 28 27.4435L32.1381 29.301L34.5625 25.375L36.7779 29.301L41.125 27.4435Z" fill="white"></path> <rect x="26.25" y="42" width="17.5" height="7" rx="1.75" fill="white"></rect> <path d="M26.25 43.75C26.25 42.7835 27.0335 42 28 42H42C42.9665 42 43.75 42.7835 43.75 43.75V45.5H26.25V43.75Z" fill="white"></path> </svg> 