<?xml version="1.0" encoding="UTF-8"?> <svg xmlns="http://www.w3.org/2000/svg" width="70" height="70" viewBox="0 0 70 70" fill="none"> <circle cx="35" cy="35" r="35" fill="#52C0E7"></circle> <rect x="21" y="26" width="30" height="12" fill="white"></rect> <path d="M51.4237 26.5981C46.1404 18.0802 38.1816 24.0062 38.1816 24.0062C37.6654 24.389 36.7137 24.7037 36.0669 24.7052L33.9352 24.7067C33.2885 24.7074 32.3367 24.3926 31.8213 24.0098C31.8213 24.0098 23.8617 18.0824 18.5777 26.6003C13.2952 35.1152 15.424 44.3885 15.424 44.3885C15.797 46.659 17.0262 48.1742 19.346 47.9839C21.659 47.7943 26.6797 41.8691 26.6797 41.8691C27.0944 41.3808 27.9634 40.9819 28.6086 40.9819L41.389 40.9797C42.0349 40.9797 42.9032 41.3786 43.3172 41.8669C43.3172 41.8669 48.3386 47.7921 50.6554 47.9817C52.9722 48.172 54.2044 46.6554 54.5751 44.3863C54.5751 44.3863 56.7069 35.1145 51.4237 26.5981ZM30.6241 32.0607C30.676 33.02 29.6085 33.5312 28.6478 33.5312H27.457V34.5621C27.457 35.5447 26.9611 36.559 25.9786 36.5469V36.5469V36.5469C25.0639 36.5335 24.6762 35.568 24.6762 34.6532V33.532H23.3551C22.544 33.532 21.76 33.1583 21.6784 32.3513V32.3513V32.3513C21.579 31.351 22.644 30.8039 23.6492 30.8039H24.7769V29.5289C24.7769 28.6593 25.2823 27.8166 26.1516 27.8409V27.8409V27.8409C27.041 27.8682 27.5553 28.7276 27.5515 29.6174L27.5465 30.8032H28.7671C29.6311 30.8032 30.5773 31.198 30.6241 32.0607V32.0607V32.0607ZM42.7674 36.4855C41.5673 36.4855 40.5998 35.5332 40.5998 34.3569C40.5998 33.1784 41.5673 32.2283 42.7674 32.2283C43.9624 32.2283 44.9373 33.1784 44.9373 34.3569C44.9373 35.5339 43.9624 36.4855 42.7674 36.4855ZM42.7674 30.629C41.5673 30.629 40.5998 29.6774 40.5998 28.5012C40.5998 27.3227 41.5673 26.3726 42.7674 26.3726C43.9624 26.3726 44.9373 27.3227 44.9373 28.5012C44.9373 29.6782 43.9624 30.629 42.7674 30.629ZM48.1693 33.7728C46.9691 33.7728 46.0017 32.8212 46.0017 31.6442C46.0017 30.4665 46.9691 29.5157 48.1693 29.5157C49.3642 29.5157 50.3391 30.4665 50.3391 31.6442C50.3391 32.8212 49.3642 33.7728 48.1693 33.7728Z" fill="#9BDBF5"></path> </svg> 