<?xml version="1.0" encoding="UTF-8"?> <svg xmlns="http://www.w3.org/2000/svg" width="70" height="70" viewBox="0 0 70 70" fill="none"> <circle cx="35" cy="35" r="35" fill="#52C0E7"></circle> <path fill-rule="evenodd" clip-rule="evenodd" d="M25.9789 25.8653C27.2327 25.8653 28.2492 24.8488 28.2492 23.5949C28.2492 23.3989 28.2244 23.2088 28.1777 23.0273H35.9116V46.8659H15.4785V23.0273H23.78C23.7333 23.2088 23.7085 23.3989 23.7085 23.5949C23.7085 24.8488 24.725 25.8653 25.9789 25.8653Z" fill="white"></path> <path fill-rule="evenodd" clip-rule="evenodd" d="M14.3438 23.0258C14.3438 22.3989 14.852 21.8906 15.4789 21.8906H23.7804C24.1314 21.8906 24.4626 22.0529 24.6776 22.3303C24.8926 22.6077 24.9673 22.9689 24.8798 23.3087C24.8567 23.3985 24.8441 23.4936 24.8441 23.5934C24.8441 24.2203 25.3523 24.7286 25.9793 24.7286C26.6062 24.7286 27.1144 24.2203 27.1144 23.5934C27.1144 23.4936 27.1018 23.3985 27.0787 23.3087C26.9913 22.9689 27.0659 22.6077 27.2809 22.3303C27.4959 22.0529 27.8271 21.8906 28.1781 21.8906H35.912C36.5389 21.8906 37.0472 22.3989 37.0472 23.0258V46.8644C37.0472 47.4913 36.5389 47.9996 35.912 47.9996H15.4789C14.852 47.9996 14.3438 47.4913 14.3438 46.8644V23.0258ZM16.6141 24.161V45.7292H34.7768V24.161H29.3377C29.0675 25.7716 27.6667 26.9989 25.9793 26.9989C24.2918 26.9989 22.891 25.7716 22.6208 24.161H16.6141Z" fill="#52C0E7"></path> <path d="M21.4375 32.3906H25.6944" stroke="#52C0E7" stroke-width="2.5" stroke-linecap="round" stroke-linejoin="round"></path> <path d="M21.4375 36.9336H25.6944" stroke="#52C0E7" stroke-width="2.5" stroke-linecap="round" stroke-linejoin="round"></path> <path fill-rule="evenodd" clip-rule="evenodd" d="M45.2764 19.0547C42.9608 19.0547 41.0501 20.7879 40.7708 23.0278H35.0598V30.5495C33.1014 31.0535 31.6543 32.8313 31.6543 34.9471C31.6543 37.0629 33.1014 38.8407 35.0598 39.3447V46.8664H43.0775C43.0308 46.685 43.006 46.4948 43.006 46.2988C43.006 45.0449 44.0225 44.0285 45.2764 44.0285C46.5302 44.0285 47.5467 45.0449 47.5467 46.2988C47.5467 46.4948 47.5219 46.685 47.4752 46.8664H55.4929V39.3447C57.4513 38.8407 58.8984 37.0629 58.8984 34.9471C58.8984 32.8313 57.4513 31.0535 55.4929 30.5495V23.0278H49.7819C49.5026 20.7879 47.5919 19.0547 45.2764 19.0547Z" fill="#9BDBF5"></path> <path fill-rule="evenodd" clip-rule="evenodd" d="M45.2768 20.1883C43.541 20.1883 42.107 21.488 41.8977 23.1667C41.8268 23.7349 41.3438 24.1614 40.7712 24.1614H36.1954V30.5479C36.1954 31.0659 35.8448 31.5181 35.3432 31.6472C33.8741 32.0254 32.7899 33.3603 32.7899 34.9455C32.7899 36.5308 33.8741 37.8657 35.3432 38.2438C35.8448 38.3729 36.1954 38.8252 36.1954 39.3432V45.7297H41.9183C42.1885 44.119 43.5893 42.8917 45.2768 42.8917C46.9642 42.8917 48.365 44.119 48.6352 45.7297H54.3581V39.3432C54.3581 38.8252 54.7087 38.3729 55.2104 38.2438C56.6794 37.8657 57.7636 36.5308 57.7636 34.9455C57.7636 33.3603 56.6794 32.0254 55.2104 31.6472C54.7087 31.5181 54.3581 31.0659 54.3581 30.5479V24.1614H49.7823C49.2097 24.1614 48.7267 23.7349 48.6559 23.1667C48.4465 21.488 47.0126 20.1883 45.2768 20.1883ZM39.861 21.8911C40.5845 19.588 42.7349 17.918 45.2768 17.918C47.8186 17.918 49.969 19.588 50.6925 21.8911H55.4933C56.1202 21.8911 56.6285 22.3993 56.6285 23.0262V29.7423C58.6326 30.6181 60.034 32.617 60.034 34.9455C60.034 37.274 58.6326 39.273 56.6285 40.1487V46.8648C56.6285 47.4918 56.1202 48 55.4933 48H47.4756C47.1246 48 46.7934 47.8377 46.5784 47.5603C46.3634 47.283 46.2888 46.9218 46.3762 46.5819C46.3993 46.4921 46.4119 46.397 46.4119 46.2973C46.4119 45.6703 45.9037 45.1621 45.2768 45.1621C44.6498 45.1621 44.1416 45.6703 44.1416 46.2973C44.1416 46.397 44.1542 46.4921 44.1773 46.5819C44.2648 46.9218 44.1901 47.283 43.9751 47.5603C43.7601 47.8377 43.4289 48 43.0779 48H35.0602C34.4333 48 33.925 47.4918 33.925 46.8648V40.1487C31.9209 39.273 30.5195 37.274 30.5195 34.9455C30.5195 32.617 31.9209 30.6181 33.925 29.7423V23.0262C33.925 22.3993 34.4333 21.8911 35.0602 21.8911H39.861Z" fill="#52C0E7"></path> <path d="M41.0195 32.3906H49.5333" stroke="#52C0E7" stroke-width="2.5" stroke-linecap="round" stroke-linejoin="round"></path> <path d="M41.0195 36.9336H46.1278" stroke="#52C0E7" stroke-width="2.5" stroke-linecap="round" stroke-linejoin="round"></path> </svg> 