<svg width="174" height="264" fill="none" xmlns="http://www.w3.org/2000/svg"><g clip-path="url(#a)"><path d="M23 65C23 29.102 52.102 0 88 0c35.899 0 65 29.102 65 65v71.82c0 10.041-8.139 18.18-18.18 18.18H41.18C31.14 155 23 146.861 23 136.82V65Z" fill="#EFC944"/><rect x="34" y="14.187" width="7.272" height="19.998" rx="3.636" transform="rotate(-67.13 34 14.187)" fill="#EFC944"/><rect x="44.799" y="1.29" width="7.272" height="19.998" rx="3.636" transform="rotate(-10.215 44.799 1.29)" fill="#EFC944"/><path d="M49.5 171c-33 12-33.5 27-21.5 54m88.501-59.999C149.148 174.068 158 192 144.5 226.5" stroke="#D38B57" stroke-width="27" stroke-linecap="round"/><path d="M46.508 166.557c1.894-13.95 13.803-24.355 27.881-24.358l24.886-.006c14.078-.003 25.993 10.396 27.892 24.345l8.248 60.558c1.305 9.58-5.801 18.253-15.45 18.857l-33.106 2.073-33.11-2.058c-9.65-.599-16.76-9.268-15.46-18.849l8.22-60.562Z" fill="#D7E7F4"/><path d="M39.046 182.042C32.941 158.201 50.95 135 75.56 135h24.882c24.609 0 42.618 23.201 36.513 47.042L126.977 221H49.023l-9.977-38.958Z" fill="#F09BBA"/><path d="M120.658 170.43c-4.612-10.778.386-23.255 11.165-27.867 10.778-4.613 23.255.386 27.867 11.164l7.704 18.003a7.862 7.862 0 0 1-4.135 10.321l-24.576 10.517a7.862 7.862 0 0 1-10.321-4.135l-7.704-18.003Z" fill="#F09BBA"/><rect x="102" y="178" width="25" height="25" rx="4.935" fill="#FFBFD6"/><path d="M20.797 150.172c6.145-9.984 19.22-13.097 29.205-6.952 9.984 6.146 13.096 19.221 6.951 29.205l-10.925 17.75a7.862 7.862 0 0 1-10.816 2.575l-22.765-14.012a7.861 7.861 0 0 1-2.575-10.816l10.925-17.75Z" fill="#F09BBA"/><rect x="66" y="120" width="43" height="42" rx="21" fill="#fff"/><rect x="70" y="89" width="35" height="68" rx="17.5" fill="#BA7B4F"/><ellipse cx="87.689" cy="61.179" rx="52.267" ry="56.812" fill="#EFC944"/><path d="M137.767 86.562c-.213 27.735-22.565 52.9-49.924 52.69-27.36-.21-49.366-25.714-49.153-53.449.212-27.734 22.563-50.048 49.923-49.839 27.359.21 49.366 22.863 49.154 50.598Z" fill="#D38B57"/><path d="M123.653 104.523c-.152 19.87-16.19 37.899-35.82 37.748-19.63-.15-35.42-18.422-35.269-38.293.153-19.87 16.19-35.856 35.82-35.706 19.631.15 35.421 16.38 35.269 36.251Z" fill="#D38B57"/><ellipse cx="138.697" cy="81.706" rx="9.999" ry="11.362" transform="rotate(.439 138.697 81.706)" fill="#D38B57"/><ellipse cx="37.802" cy="81.71" rx="9.999" ry="11.362" transform="rotate(.439 37.802 81.71)" fill="#D38B57"/><circle cx="61.312" cy="93.775" r="7.32" fill="#39414B"/><circle cx="114.378" cy="93.778" r="7.32" fill="#39414B"/><path d="M52.656 76.06c2.618-1.675 9.38-4.264 15.485-1.217" stroke="#39414B" stroke-width="5.825" stroke-linecap="round"/><path d="M120.624 76.469c-2.476-1.567-8.861-3.975-14.6-1.075" stroke="#39414B" stroke-width="5.49" stroke-linecap="round"/><path d="M99.478 116.741H75c-1.895 0-3.183 1.869-2.23 3.507 2.51 4.313 7.188 9.302 13.874 9.302 9.038 0 12.989-4.637 15.318-8.74 1.023-1.802-.413-4.069-2.485-4.069Z" fill="#070101"/><ellipse cx="87.585" cy="124.975" rx="5.49" ry="2.745" fill="#EC7674"/><g clip-path="url(#b)"><path d="M38.625 33h98.171v25.238c0 4.601-5.24 7.24-8.937 4.502a5.602 5.602 0 0 0-6.669 0l-4.608 3.413a7.272 7.272 0 0 1-8.657 0l-3.615-2.677a7.271 7.271 0 0 0-8.657 0l-3.614 2.677a7.272 7.272 0 0 1-8.657 0l-3.614-2.677a7.272 7.272 0 0 0-8.657 0l-3.615 2.677a7.272 7.272 0 0 1-8.657 0l-4.608-3.413a5.602 5.602 0 0 0-6.67 0c-3.697 2.738-8.936.1-8.936-4.502V33Z" fill="#EFC944"/></g><circle cx="57.769" cy="92.132" r="20.396" stroke="#fff" stroke-width="3.472"/><circle cx="117.663" cy="92.132" r="20.396" stroke="#fff" stroke-width="3.472"/><rect x="83.586" y="93" width="8.613" height="13.399" rx="4.307" fill="#B97443"/><rect x="80.856" y="109.083" width="8.24" height="13.734" rx="4.12" transform="rotate(-90 80.856 109.083)" fill="#B97443"/><path d="M78.164 89.09h17.358" stroke="#fff" stroke-width="3.472" stroke-linecap="round"/><path d="M25.17 200.72c-.627-6.276 4.3-11.72 10.608-11.72h101.444c6.307 0 11.235 5.444 10.608 11.72l-5.357 53.678A10.66 10.66 0 0 1 131.865 264h-90.73a10.66 10.66 0 0 1-10.608-9.602L25.17 200.72Z" fill="#483082"/><ellipse cx="87.5" cy="229.5" rx="11.5" ry="7.5" fill="#655195"/><rect width="21.05" height="31.405" rx="10.525" transform="scale(1 -1) rotate(-41.971 -240.985 -285.332)" fill="#D38B57"/><rect x="42.033" y="237.336" width="21.05" height="31.405" rx="10.525" transform="rotate(147.736 42.033 237.336)" fill="#D38B57"/></g><defs><clipPath id="a"><path fill="#fff" d="M0 0h174v264H0z"/></clipPath><clipPath id="b"><path fill="#fff" transform="translate(38.625 33)" d="M0 0h98.171v36.36H0z"/></clipPath></defs></svg>