<svg width="1326" height="750" fill="none" xmlns="http://www.w3.org/2000/svg"><path d="m1288.9 120.18 2.45-33.81a31.887 31.887 0 0 1 17.26-26.083C1338.41 44.993 1327.53 0 1294.02 0H23.763c-24.9 0-32.988 33.438-10.837 44.804 28.652 14.702 47.559 43.272 49.88 75.376 2.32 32.104 21.226 60.674 49.879 75.376l41.175 21.128c28.653 14.702 47.559 43.272 49.879 75.376 2.321 32.104 21.227 60.674 49.88 75.376l41.175 21.128c28.653 14.702 47.559 43.272 49.88 75.376 2.32 32.104 21.226 60.674 49.879 75.376l41.175 21.128c28.653 14.702 47.559 43.272 49.88 75.376 2.32 32.104 21.226 41.674 49.879 56.376l62.886 32.268A113.679 113.679 0 0 0 650.269 737h51.17c18.05 0 35.84-4.297 51.896-12.536l62.886-32.268c28.653-14.702 47.559-24.272 49.88-56.376 2.32-32.104 21.226-60.674 49.879-75.376l41.175-21.128c28.653-14.702 47.555-43.272 49.875-75.376a92.222 92.222 0 0 1 49.88-75.376l41.18-21.128c28.65-14.702 47.56-43.272 49.88-75.376 2.32-32.104 21.23-60.674 49.88-75.376l41.17-21.128c28.66-14.702 47.56-43.272 49.88-75.376Z" fill="url(#a)"/><defs><radialGradient id="a" cx="0" cy="0" r="1" gradientUnits="userSpaceOnUse" gradientTransform="matrix(-13.95303 -810.72094 780.79137 -13.43792 681.994 754.366)"><stop stop-color="#A3ACFF"/><stop offset=".509" stop-color="#CEFCFF"/><stop offset="1" stop-color="#ECFCF8" stop-opacity="0"/></radialGradient></defs></svg>