<svg width="72" height="54" viewBox="0 0 72 54" fill="none" xmlns="http://www.w3.org/2000/svg">
<rect x="12" y="12.7822" width="48" height="30" rx="15" fill="#C4ECFD"/>
<path d="M43.2496 42.7822H26.9992C21.2514 42.7822 16.2588 39.5494 13.7402 34.8029C16.7305 33.503 20.0306 32.7822 23.4992 32.7822C31.6041 32.7822 38.7899 36.7178 43.2496 42.7822Z" fill="#6ECC4D"/>
<path d="M27.9741 12.7822C27.5108 21.718 20.8737 29.0206 12.2467 30.5059C12.0847 29.6227 12 28.7123 12 27.7822C12 19.498 18.7157 12.7822 27 12.7822H27.9741Z" fill="#87DE79"/>
<path fill-rule="evenodd" clip-rule="evenodd" d="M32.064 28.2902C31.545 28.1013 31.2774 27.5275 31.4663 27.0085L34.8865 17.6116C35.0754 17.0926 35.6492 16.825 36.1682 17.0139L40.378 18.5461C40.897 18.735 41.1646 19.3089 40.9757 19.8279L37.5555 29.2248C37.3666 29.7438 36.7928 30.0113 36.2738 29.8225L32.064 28.2902Z" fill="#1896D9"/>
<path fill-rule="evenodd" clip-rule="evenodd" d="M37.8407 2.88389C38.2185 1.84593 39.3662 1.31076 40.4041 1.68854L46.982 4.08268C48.0199 4.46047 48.5551 5.60815 48.1773 6.64611L45.9334 12.8113C53.7826 13.2935 59.9993 19.8121 59.9993 27.7827C59.9993 34.718 55.2927 40.5539 48.8994 42.2707C47.6849 40.2203 46.2293 38.3297 44.5716 36.6378C43.9201 35.973 44.374 34.753 45.2995 34.6535C49.5562 34.1959 51.9993 32.4234 51.9993 27.7827C51.9993 23.9167 48.8653 20.7827 44.9993 20.7827H43.032L40.9949 26.3797C40.6171 27.4176 39.4694 27.9528 38.4315 27.575L31.8536 25.1809C30.8157 24.8031 30.2805 23.6554 30.6583 22.6174L37.8407 2.88389Z" fill="#56C0ED"/>
<path fill-rule="evenodd" clip-rule="evenodd" d="M40.4066 1.68382C39.3686 1.30604 38.221 1.84121 37.8432 2.87917L36.8164 5.7002L47.153 9.46242L48.1798 6.64139C48.5576 5.60343 48.0224 4.45575 46.9845 4.07796L40.4066 1.68382Z" fill="#1896D9"/>
</svg>
