<svg width="72" height="54" viewBox="0 0 72 54" fill="none" xmlns="http://www.w3.org/2000/svg">
<path d="M64 30.8636C64 24.7282 59.2149 19.7775 53.3015 19.7775C51.8388 19.7775 50.4597 20.0737 49.206 20.6238C47.3045 13.8536 41.2657 8.88184 34.0985 8.88184C25.4687 8.88184 18.4478 16.1174 18.406 25.0455C17.7373 24.8551 17.0269 24.7705 16.2955 24.7705C11.7194 24.7705 8 28.621 8 33.3601C8 38.078 11.6776 41.9285 16.2328 41.9496H54.1373V41.9073C59.6537 41.4842 64 36.7028 64 30.8636Z" fill="#BBE2FF"/>
<path d="M42.4833 42.9365C38.7576 43.0455 32.7275 41.1921 32.5121 33.822C32.2752 25.2744 41.8372 16.0508 41.8372 16.0508L42.4833 42.9365Z" fill="#004D32"/>
<path d="M24.1996 32.5137L15.0898 32.9498L33.2447 42.5004L24.1996 32.5137Z" fill="#004D32"/>
<path d="M56.6538 36.2202L49.5254 34.127V39.9925L56.6538 36.2202Z" fill="#FF9D00"/>
<path d="M44.7015 31.4453L24.2207 32.5138C24.8668 41.6065 37.4438 48.7804 45.7137 45.3352C47.5873 44.5502 48.5349 43.8088 49.5686 42.7622C53.682 38.4884 51.5715 31.4453 44.7015 31.4453Z" fill="#218F00"/>
<path d="M43.8425 36.1194C43.9786 34.7184 45.2263 33.7078 46.61 33.8456C47.9938 33.9834 49.0146 35.2466 48.8785 36.6477C48.7424 38.0488 47.4947 39.0594 46.111 38.9216C44.7045 38.7608 43.7064 37.5205 43.8425 36.1194Z" fill="white"/>
<path d="M41.7288 39.4478C38.5414 41.4102 32.3821 42.8058 28.6133 36.4823C24.2415 29.1775 28.0534 16.3779 28.0534 16.3779L41.7288 39.4478Z" fill="#006434"/>
<path d="M44.9079 36.2123C44.9986 35.4084 45.7018 34.8342 46.4958 34.9031C47.2898 34.9949 47.8796 35.707 47.7889 36.5108C47.6981 37.3147 46.9949 37.8889 46.2009 37.82C45.4069 37.7511 44.8398 37.0161 44.9079 36.2123Z" fill="#262626"/>
</svg>
