<svg width="72" height="72" fill="none" xmlns="http://www.w3.org/2000/svg"><path d="M17.767 22.666v1.57c-4.18 2.846-6.933 7.648-6.933 13.096v13.333c0 8.745 7.089 15.834 15.833 15.834h18.667c8.744 0 15.833-7.09 15.833-15.834V37.332c0-5.448-2.752-10.25-6.933-13.097v-1.57c0-10.07-8.163-18.233-18.233-18.233s-18.234 8.163-18.234 18.233Zm23.882-1.167H30.352a5.769 5.769 0 0 1 11.297 0Z" fill="#324480" stroke="#fff" stroke-width="5"/><rect x="23.998" y="10.666" width="24" height="34.667" rx="12" stroke="#708FCB" stroke-width="7.467"/><path d="M25.332 16.8c1.067-2.666 4.8-5.333 7.467-5.866" stroke="#BFD4FF" stroke-width="3.2" stroke-linecap="round" stroke-linejoin="round"/><rect x="13.332" y="24" width="45.333" height="40" rx="13.333" fill="#708FCB"/><rect x="17.332" y="28" width="37.333" height="26.667" rx="8.533" fill="#BFD5FF"/><path fill-rule="evenodd" clip-rule="evenodd" d="M38.666 43.29a5.333 5.333 0 1 0-5.333-.004v3.382a2.667 2.667 0 1 0 5.333 0V43.29Z" fill="#324480"/></svg>