<svg width="192" height="256" viewBox="0 0 192 256" fill="none" xmlns="http://www.w3.org/2000/svg">
<rect x="14.5673" y="19.7665" width="162.864" height="99.3054" rx="3.8474" fill="#77CEFF" stroke="#77CEFF" stroke-width="2.64819"/>
<rect x="17.0472" y="19.7255" width="157.944" height="94.8949" rx="3.8474" fill="#60C4FC" stroke="#77CEFF" stroke-width="2.64819"/>
<path d="M31.8046 33.196C32.0398 32.7885 32.4746 32.5375 32.9451 32.5375L46.8634 32.5375C47.3338 32.5375 47.7686 32.7885 48.0038 33.196L54.963 45.2496C55.1982 45.657 55.1982 46.159 54.963 46.5664L48.0038 58.6201C47.7686 59.0275 47.3338 59.2785 46.8634 59.2785L32.9451 59.2785C32.4746 59.2785 32.0398 59.0275 31.8046 58.6201L24.8454 46.5664C24.6102 46.159 24.6102 45.657 24.8454 45.2496L31.8046 33.196Z" stroke="#49B0EB" stroke-width="2.76411"/>
<path d="M121.22 71.4244C121.456 71.017 121.89 70.766 122.361 70.766L130.449 70.766C130.92 70.766 131.354 71.017 131.59 71.4244L135.634 78.4291C135.869 78.8366 135.869 79.3385 135.634 79.746L131.59 86.7506C131.354 87.1581 130.92 87.4091 130.449 87.4091L122.361 87.4091C121.89 87.4091 121.456 87.1581 121.22 86.7506L117.176 79.746C116.941 79.3385 116.941 78.8366 117.176 78.4291L121.22 71.4244Z" stroke="#49B0EB" stroke-width="2.76411"/>
<path d="M40.5134 52.2744C40.7486 51.867 41.1833 51.616 41.6538 51.616L65.6281 51.616C66.0986 51.616 66.5333 51.867 66.7686 52.2744L78.7557 73.0368C78.991 73.4442 78.991 73.9462 78.7557 74.3536L66.7686 95.116C66.5333 95.5235 66.0986 95.7745 65.6281 95.7745L41.6538 95.7745C41.1833 95.7745 40.7486 95.5235 40.5134 95.116L28.5262 74.3537C28.291 73.9462 28.291 73.4442 28.5262 73.0368L40.5134 52.2744Z" stroke="#49B0EB" stroke-width="2.76411"/>
<path d="M90.4288 31.8998C90.664 31.4924 91.0987 31.2414 91.5692 31.2414L106.982 31.2414C107.453 31.2414 107.887 31.4924 108.123 31.8998L115.829 45.2478C116.064 45.6552 116.064 46.1572 115.829 46.5647L108.123 59.9126C107.887 60.3201 107.453 60.5711 106.982 60.5711L91.5692 60.5711C91.0987 60.5711 90.664 60.3201 90.4288 59.9126L82.7223 46.5647C82.4871 46.1572 82.4871 45.6552 82.7223 45.2478L90.4288 31.8998Z" stroke="#49B0EB" stroke-width="2.76411"/>
<path d="M66.5642 51.6342L82.7578 46.2363" stroke="#49B0EB" stroke-width="2.76411"/>
<path d="M107.662 61.0283L121.893 70.5284" stroke="#49B0EB" stroke-width="2.76411"/>
<rect x="131.314" y="29.8867" width="35.7506" height="4.63434" rx="2.31717" fill="#4FB5EF"/>
<rect x="131.314" y="37.832" width="15.8892" height="4.63434" rx="2.31717" fill="#4FB5EF"/>
<rect x="131.314" y="45.7754" width="26.4819" height="4.63434" rx="2.31717" fill="#4FB5EF"/>
<rect width="17.2133" height="4.63434" rx="2.31717" transform="matrix(-1 0 0 1 167.064 37.832)" fill="#4FB5EF"/>
<rect width="7.94458" height="4.63434" rx="2.31717" transform="matrix(-1 0 0 1 167.064 45.7754)" fill="#4FB5EF"/>
<rect x="167.065" y="72.9199" width="20.5235" height="4.63434" rx="2.31717" transform="rotate(-180 167.065 72.9199)" fill="#4FB5EF"/>
<rect x="167.065" y="64.9756" width="9.12156" height="4.63434" rx="2.31717" transform="rotate(-180 167.065 64.9756)" fill="#4FB5EF"/>
<rect width="9.88169" height="4.63434" rx="2.31717" transform="matrix(1 8.74228e-08 8.74228e-08 -1 146.543 64.9756)" fill="#4FB5EF"/>
<rect x="146.543" y="82.8496" width="20.5235" height="4.63434" rx="2.31717" fill="#4FB5EF"/>
<rect x="146.543" y="90.7949" width="5.87705" height="4.63434" rx="2.31717" fill="#4FB5EF"/>
<rect width="12.8629" height="4.63434" rx="2.31717" transform="matrix(-1 0 0 1 167.066 90.7949)" fill="#4FB5EF"/>
<circle cx="32.5312" cy="33.0356" r="2.76411" fill="#41ABE7"/>
<circle cx="29.0764" cy="73.8071" r="2.76411" fill="#41ABE7"/>
<circle cx="40.8239" cy="95.227" r="2.76411" fill="#41ABE7"/>
<circle cx="121.674" cy="71.0415" r="2.76411" fill="#41ABE7"/>
<path d="M96.0012 247.039C142.471 247.039 180.142 243.509 180.142 239.154C180.142 234.799 142.471 231.269 96.0012 231.269C49.5314 231.269 11.8601 234.799 11.8601 239.154C11.8601 243.509 49.5314 247.039 96.0012 247.039Z" fill="#359FDB"/>
<path d="M122.055 224.948H128.276C129.204 224.948 129.957 225.701 129.957 226.629C129.957 227.558 129.204 228.31 128.276 228.31H81.4726C80.5442 228.31 79.7916 227.558 79.7916 226.629C79.7916 225.701 80.5442 224.948 81.4726 224.948H86.9868C88.2835 224.948 89.5502 224.559 90.6225 223.83L90.8638 223.666C91.9362 222.937 93.2028 222.547 94.4995 222.547H114.542C115.839 222.547 117.106 222.937 118.178 223.666L118.419 223.83C119.492 224.559 120.758 224.948 122.055 224.948Z" fill="#2992CD"/>
<rect width="11.5179" height="9.4237" rx="4.71185" transform="matrix(-1 0 0 1 110.852 230.529)" fill="#2388C0"/>
<rect width="9.4237" height="9.4237" rx="4.71185" transform="matrix(-1 0 0 1 110.852 230.529)" fill="#2388C0"/>
<path d="M111.02 228.311H105.846V232.191C105.846 233.619 107.004 234.778 108.433 234.778C109.861 234.778 111.02 233.619 111.02 232.191V228.311Z" fill="#2E98D5"/>
<rect width="11.5179" height="9.4237" rx="4.71185" transform="matrix(-1 0 0 1 90.3213 230.529)" fill="#2388C0"/>
<rect width="9.4237" height="9.4237" rx="4.71185" transform="matrix(-1 0 0 1 90.3213 230.529)" fill="#2388C0"/>
<path d="M90.3213 228.311H85.1477V232.191C85.1477 233.619 86.3058 234.778 87.7345 234.778C89.1631 234.778 90.3213 233.619 90.3213 232.191V228.311Z" fill="#36A7E7"/>
<rect x="119.226" y="230.529" width="6.28247" height="9.4237" rx="3.14123" fill="#2388C0"/>
<path d="M118.777 228.311H123.95V232.191C123.95 233.619 122.792 234.778 121.363 234.778C119.935 234.778 118.777 233.619 118.777 232.191V228.311Z" fill="#36A7E7"/>
<path d="M110.174 201.709C110.174 200.28 109.016 199.122 107.587 199.122H101.456C100.027 199.122 98.869 200.28 98.869 201.709V222.546H110.174V201.709Z" fill="#2992CD"/>
<path d="M107.347 180.834C107.347 179.405 106.189 178.247 104.76 178.247H104.282C102.853 178.247 101.695 179.405 101.695 180.834V199.122H107.347V180.834Z" fill="#359FDB"/>
<rect width="4.32714" height="16.7267" rx="2.16357" transform="matrix(-1 0 0 1 105.305 201.779)" fill="#36A7E7"/>
<path d="M131.003 183.187C131.003 179.687 128.165 176.85 124.665 176.85H83.4215C79.9213 176.85 77.0838 179.687 77.0838 183.187C77.0838 184.687 78.2999 185.903 79.8 185.903H128.287C129.787 185.903 131.003 184.687 131.003 183.187Z" fill="#875792"/>
<rect x="60.1113" y="176.774" width="26.8919" height="19.378" fill="#9DD4E2"/>
<path d="M136.525 239.057L146.77 172.16H140.317L130.073 239.057H136.525Z" fill="#43434F"/>
<path d="M124.638 82.8593L125.604 82.7703C126.011 82.7334 126.407 82.6166 126.769 82.4266C127.131 82.2367 127.452 81.9772 127.714 81.6631C127.976 81.349 128.173 80.9864 128.294 80.5961C128.416 80.2057 128.459 79.7952 128.422 79.3881L128.398 79.1314C128.322 78.3096 127.924 77.5514 127.29 77.0234C126.655 76.4955 125.837 76.2411 125.016 76.3163L124.049 76.4053L124.638 82.8593Z" fill="#FF553E"/>
<path d="M123.122 73.8857L122.801 73.9152C121.82 74.0052 121.098 74.8733 121.188 75.8542L121.928 83.9214C122.018 84.9024 122.886 85.6246 123.867 85.5346L124.188 85.5051C125.169 85.4151 125.891 84.547 125.801 83.5661L125.061 75.4989C124.971 74.518 124.103 73.7957 123.122 73.8857Z" fill="#FFB762"/>
<path d="M127.855 116.659C144.207 145.212 154.048 119.752 150.646 102.393" stroke="#81BCCA" stroke-width="6.10511" stroke-miterlimit="10" stroke-linecap="round"/>
<path d="M127.193 119.194C142.127 143.943 153.98 122.394 150.792 103.849" stroke="#A2CED8" stroke-width="6.10511" stroke-miterlimit="10" stroke-dasharray="7.63 4.58"/>
<path d="M124.709 111.147C128.089 114.25 130.087 130.335 141.535 129.134" stroke="#ECFBFF" stroke-width="10.6839" stroke-miterlimit="10"/>
<path d="M151.048 102.657C153.13 102.622 155.113 101.761 156.56 100.264C158.008 98.7669 158.802 96.7566 158.767 94.6746" stroke="#81BCCA" stroke-width="4.57883" stroke-miterlimit="10" stroke-linecap="round"/>
<path d="M104.578 52.5226C92.0633 51.9031 81.4104 61.6603 80.7838 74.3143L77.0762 149.232C77.0627 149.476 77.0975 149.721 77.1786 149.952C77.2598 150.183 77.3857 150.396 77.5491 150.578C77.7125 150.76 77.9102 150.909 78.131 151.014C78.3518 151.12 78.5912 151.182 78.8357 151.195L120.452 153.256C120.696 153.267 120.941 153.23 121.171 153.146C121.402 153.063 121.614 152.935 121.795 152.769C121.976 152.604 122.122 152.405 122.226 152.183C122.33 151.961 122.389 151.72 122.399 151.475L126.103 76.5575C126.729 63.9035 117.092 53.142 104.578 52.5226Z" fill="#B0DEE7"/>
<path d="M74.7435 160.758L79.7744 106.014L88.1202 109.209C95.5468 112.053 103.65 112.629 111.404 110.866L121.434 108.585L118.443 162.538L74.7435 160.758Z" fill="#438CFA" stroke="#6AA6FF" stroke-width="2.81345"/>
<path d="M121.688 112.71L118.004 113.048C117.824 113.062 117.647 113.005 117.51 112.889C117.373 112.773 117.286 112.608 117.27 112.429C117.254 112.25 117.308 112.072 117.422 111.933C117.536 111.794 117.7 111.706 117.879 111.687L121.564 111.349C121.654 111.339 121.745 111.348 121.832 111.374C121.919 111.4 121.999 111.443 122.069 111.5C122.139 111.558 122.197 111.628 122.24 111.708C122.282 111.788 122.308 111.876 122.317 111.966C122.325 112.056 122.315 112.147 122.288 112.234C122.261 112.32 122.217 112.4 122.158 112.47C122.1 112.539 122.028 112.596 121.947 112.637C121.867 112.678 121.779 112.703 121.688 112.71Z" fill="#A2CED8"/>
<path d="M122.206 118.414L118.521 118.752C118.34 118.769 118.161 118.713 118.021 118.597C117.881 118.481 117.793 118.314 117.777 118.134C117.76 117.953 117.816 117.773 117.932 117.633C118.048 117.494 118.214 117.406 118.395 117.389L122.08 117.051C122.261 117.034 122.441 117.09 122.58 117.206C122.72 117.322 122.808 117.489 122.824 117.669C122.841 117.85 122.785 118.03 122.669 118.17C122.553 118.309 122.387 118.397 122.206 118.414Z" fill="#A2CED8"/>
<path d="M121.948 115.569L118.265 115.907C118.175 115.916 118.084 115.907 117.998 115.881C117.911 115.855 117.831 115.812 117.761 115.755C117.692 115.697 117.634 115.627 117.592 115.547C117.55 115.467 117.524 115.38 117.515 115.29C117.507 115.2 117.517 115.11 117.543 115.023C117.57 114.937 117.614 114.857 117.672 114.788C117.73 114.719 117.801 114.662 117.881 114.62C117.961 114.579 118.049 114.553 118.139 114.546L121.823 114.208C121.913 114.198 122.005 114.207 122.091 114.233C122.178 114.259 122.259 114.302 122.329 114.359C122.399 114.416 122.457 114.487 122.499 114.567C122.542 114.647 122.568 114.735 122.576 114.825C122.584 114.915 122.575 115.006 122.547 115.093C122.52 115.179 122.476 115.259 122.418 115.329C122.359 115.398 122.288 115.455 122.207 115.496C122.126 115.537 122.038 115.562 121.948 115.569Z" fill="#A2CED8"/>
<path d="M121.423 109.861L117.732 110.2C117.551 110.216 117.371 110.16 117.232 110.044C117.092 109.928 117.005 109.761 116.988 109.581C116.972 109.4 117.028 109.22 117.144 109.08C117.26 108.941 117.427 108.853 117.607 108.837L121.3 108.503C121.389 108.495 121.479 108.504 121.565 108.531C121.651 108.558 121.731 108.601 121.8 108.658C121.869 108.716 121.926 108.786 121.968 108.866C122.009 108.945 122.035 109.032 122.043 109.122C122.052 109.211 122.042 109.302 122.015 109.387C121.989 109.473 121.945 109.553 121.888 109.622C121.83 109.691 121.76 109.748 121.68 109.79C121.601 109.832 121.514 109.858 121.424 109.866L121.423 109.861Z" fill="#A2CED8"/>
<path d="M87.4128 53.8662L91.6161 58.2875" stroke="#B0DEE7" stroke-width="3.05255" stroke-miterlimit="10"/>
<ellipse rx="3.60469" ry="6.65065" transform="matrix(0.998958 0.0456462 -0.0553572 0.998466 80.8805 83.722)" fill="#FFB762"/>
<path fill-rule="evenodd" clip-rule="evenodd" d="M80.1685 87.4409C80.5018 87.4252 80.7975 87.1995 80.9545 86.8753C81.3888 85.9781 81.6793 84.8501 81.7477 83.6162C81.8037 82.6059 81.7038 81.6527 81.483 80.8287C81.3878 80.4733 81.1319 80.1936 80.795 80.1295C80.6615 80.104 80.5247 80.0879 80.385 80.0817C78.6669 80.0056 77.1765 81.4632 77.0616 83.3317L77.0238 83.9479C76.9097 85.8043 78.197 87.3657 79.9039 87.4413C79.9928 87.4452 80.081 87.445 80.1685 87.4409Z" fill="#F65539"/>
<path d="M122.885 55.4691L118.49 59.0454" stroke="#B0DEE7" stroke-width="3.05255" stroke-miterlimit="10"/>
<path d="M113.522 76.117L98.6084 75.3786C94.1454 75.1577 90.3482 78.5965 90.1272 83.0596L90.094 83.7309C89.873 88.1939 93.3119 91.9911 97.775 92.2121L112.689 92.9505C117.152 93.1715 120.949 89.7326 121.17 85.2695L121.203 84.5982C121.424 80.1352 117.985 76.338 113.522 76.117Z" fill="#3C4C87"/>
<path d="M102.781 86.1516L100.597 86.0435C99.8724 86.0076 99.2558 86.566 99.2199 87.2907C99.1841 88.0154 99.7425 88.632 100.467 88.6679L102.651 88.776C103.376 88.8119 103.993 88.2535 104.028 87.5288C104.064 86.8041 103.506 86.1875 102.781 86.1516Z" fill="#56D8E3"/>
<path d="M110.488 80.9424L108.186 81.1448C107.66 81.191 107.271 81.6547 107.318 82.1805L107.357 82.6262C107.403 83.1519 107.867 83.5407 108.392 83.4944L110.695 83.292C111.22 83.2457 111.609 82.7821 111.563 82.2563L111.524 81.8106C111.477 81.2848 111.014 80.8961 110.488 80.9424Z" fill="#56D8E3"/>
<path d="M119.628 64.2041C117.9 61.7386 115.631 59.7019 112.994 58.2505C110.356 56.799 107.421 55.9715 104.414 55.8315" stroke="#ECFBFF" stroke-width="2.28941" stroke-miterlimit="10" stroke-linecap="round"/>
<path d="M122.358 70.1539C122.075 69.2031 121.723 68.2743 121.304 67.375" stroke="#ECFBFF" stroke-width="2.28941" stroke-miterlimit="10" stroke-linecap="round"/>
<path d="M111.263 96.3215L111.236 96.8325C111.178 97.8277 110.738 98.7611 110.011 99.4291C109.285 100.097 108.331 100.445 107.357 100.398L105.503 100.302C104.53 100.248 103.619 99.8034 102.969 99.0637C102.319 98.324 101.983 97.3498 102.035 96.354L102.064 95.8449" fill="white"/>
<path d="M111.263 96.3215L111.236 96.8325C111.178 97.8277 110.738 98.7611 110.011 99.4291C109.285 100.097 108.331 100.445 107.357 100.398L105.503 100.302C104.53 100.248 103.619 99.8034 102.969 99.0637C102.319 98.324 101.983 97.3498 102.035 96.354L102.064 95.8449" stroke="#8CC2CF" stroke-width="1.98445" stroke-linecap="round" stroke-linejoin="round"/>
<path d="M84.3061 55.39C86.7926 55.6726 89.0373 53.8861 89.32 51.3996C89.6026 48.9131 87.816 46.6684 85.3295 46.3857C82.8431 46.1031 80.5983 47.8897 80.3157 50.3762C80.0331 52.8626 81.8196 55.1074 84.3061 55.39Z" fill="#B0DEE7"/>
<path d="M84.5667 53.4918C85.9927 53.6539 87.2801 52.6293 87.4422 51.2032C87.6043 49.7772 86.5797 48.4898 85.1536 48.3277C83.7276 48.1656 82.4401 49.1902 82.278 50.6163C82.116 52.0423 83.1406 53.3298 84.5667 53.4918Z" fill="#F65539"/>
<path d="M124.886 57.5551C127.372 57.8377 129.617 56.0511 129.9 53.5646C130.182 51.0782 128.396 48.8334 125.909 48.5508C123.423 48.2682 121.178 50.0547 120.895 52.5412C120.613 55.0277 122.399 57.2725 124.886 57.5551Z" fill="#B0DEE7"/>
<path d="M125.147 55.651C126.573 55.8131 127.86 54.7885 128.023 53.3624C128.185 51.9364 127.16 50.6489 125.734 50.4868C124.308 50.3248 123.02 51.3494 122.858 52.7755C122.696 54.2015 123.721 55.4889 125.147 55.651Z" fill="#F65539"/>
<path d="M71.0164 235.433L77.178 205.713" stroke="#8CCAD9" stroke-width="6.69266" stroke-miterlimit="10"/>
<path fill-rule="evenodd" clip-rule="evenodd" d="M86.0145 189.728C87.3105 182.261 88.1545 176.808 95.7335 176.808L104.931 176.808L112.551 163.035L95.7331 163.035C81.4565 163.036 74.8858 173.307 72.4445 187.373L67.1908 221.511C67.0556 222.389 67.7351 223.181 68.6237 223.181L79.7578 223.181C80.4756 223.181 81.0853 222.656 81.1916 221.946L86.0145 189.728Z" fill="#DDE5E8"/>
<path d="M68.416 159.374L124.573 159.374L124.573 160.369C124.573 164.825 123.043 169.098 120.32 172.249C117.598 175.4 113.905 177.17 110.054 177.17L82.9376 177.17C79.0871 177.17 75.3944 175.4 72.6717 172.249C69.949 169.098 68.4195 164.825 68.4195 160.369L68.4195 159.374L68.416 159.374Z" fill="#DDE5E8"/>
<path d="M103.166 165.69C102.935 171.961 107.956 177.17 114.231 177.17L116.038 177.17C120.122 177.17 123.459 173.907 123.55 169.824L125.055 102.219L104.851 119.918L103.166 165.69Z" fill="#ECFBFF"/>
<path d="M48.0511 233.26L54.2126 203.54" stroke="#8CCAD9" stroke-width="6.69266" stroke-miterlimit="10"/>
<path fill-rule="evenodd" clip-rule="evenodd" d="M65.5292 188.965C67.0601 181.768 73.4154 176.622 80.773 176.622L95.5131 176.622L95.5129 162.849L80.7728 162.849C66.913 162.85 54.9414 172.543 52.0578 186.099L43.7245 221.398C43.5096 222.308 44.2002 223.181 45.1355 223.181L57.3009 223.181C57.9889 223.181 58.5821 222.697 58.7209 222.024L65.5292 188.965Z" fill="#DDE5E8"/>
<path d="M119.744 88.0764L113.308 89.5494C113.071 89.6036 112.923 89.8392 112.977 90.0758L113.052 90.3998C113.106 90.6364 113.341 90.7842 113.578 90.7301L120.014 89.257C120.25 89.2029 120.398 88.9672 120.344 88.7307L120.27 88.4066C120.216 88.1701 119.98 88.0222 119.744 88.0764Z" fill="#CDD5D9"/>
<path d="M107.577 86.5328C107.533 86.5157 107.496 86.4851 107.471 86.4454C107.446 86.4058 107.434 86.3591 107.438 86.3123C107.441 86.2655 107.459 86.221 107.49 86.1853C107.52 86.1496 107.561 86.1247 107.607 86.1141L109.927 85.5826C109.967 85.574 110.008 85.5762 110.046 85.5891C110.084 85.602 110.117 85.625 110.143 85.6556C110.169 85.6863 110.187 85.7234 110.193 85.763C110.199 85.8027 110.195 85.8433 110.18 85.8806L109.28 88.0817C109.262 88.1249 109.231 88.1613 109.191 88.1856C109.151 88.21 109.105 88.221 109.058 88.2171C109.012 88.2133 108.968 88.1947 108.933 88.1641C108.897 88.1336 108.873 88.0926 108.862 88.0471L108.633 87.0413C108.625 87.0061 108.609 86.9733 108.585 86.946C108.561 86.9187 108.531 86.8976 108.497 86.8846L107.577 86.5328Z" fill="#CDD5D9"/>
<path d="M71.75 164.394C75.352 163.434 74.8178 163.268 75.8392 163.161C77.9289 162.941 79.7142 161.561 80.2316 159.524L90.5971 118.726L77.4781 100.571L71.7501 154.97L71.75 164.394Z" fill="#ECFBFF"/>
<path d="M131.268 89.9049C130.994 89.8046 130.771 89.5995 130.648 89.3348C130.525 89.0701 130.513 88.7674 130.613 88.4934C130.713 88.2193 130.918 87.9963 131.183 87.8735C131.448 87.7506 131.75 87.7379 132.024 87.8382L136.158 89.3468C136.421 89.4547 136.632 89.6601 136.747 89.92C136.862 90.1799 136.872 90.4741 136.775 90.7413C136.678 91.0084 136.482 91.2277 136.227 91.3533C135.972 91.479 135.678 91.5013 135.407 91.4155L131.268 89.9049Z" stroke="#CAD3DD" stroke-width="2.64063"/>
<mask id="mask0" mask-type="alpha" maskUnits="userSpaceOnUse" x="105" y="70" width="28" height="27">
<path d="M117.431 96.8148C124.677 97.6211 131.206 92.4005 132.012 85.1541C132.818 77.9077 127.598 71.3797 120.351 70.5733C113.105 69.767 106.577 74.9876 105.77 82.234C104.964 89.4804 110.185 96.0084 117.431 96.8148Z" fill="#C4C4C4"/>
</mask>
<g mask="url(#mask0)">
<path d="M130.034 89.3899L131.127 89.4436C131.588 89.4669 132.048 89.3992 132.482 89.2445C132.917 89.0898 133.316 88.851 133.658 88.5418C134 88.2326 134.278 87.859 134.475 87.4425C134.673 87.0259 134.786 86.5745 134.809 86.1141L134.822 85.8236C134.869 84.8943 134.544 83.9846 133.919 83.2947C133.295 82.6049 132.422 82.1913 131.493 82.145L130.4 82.0913L130.034 89.3899Z" fill="#FF553E"/>
<path d="M129.757 79.133L129.394 79.1151C128.284 79.0602 127.34 79.9149 127.286 81.0243L126.834 90.1479C126.779 91.2573 127.634 92.2011 128.743 92.2561L129.106 92.274C130.215 92.329 131.159 91.4742 131.214 90.3648L131.666 81.2412C131.721 80.1318 130.866 79.188 129.757 79.133Z" fill="#FFB762"/>
<path d="M105.007 48.4692C90.895 47.7706 78.8828 58.7728 78.1762 73.0415L73.9955 157.518C73.9803 157.794 74.0196 158.07 74.1111 158.33C74.2026 158.591 74.3445 158.831 74.5288 159.036C74.713 159.242 74.936 159.409 75.185 159.529C75.4339 159.648 75.7039 159.717 75.9796 159.732L122.906 162.056C123.182 162.068 123.458 162.026 123.717 161.932C123.977 161.838 124.216 161.694 124.42 161.507C124.624 161.321 124.789 161.096 124.906 160.846C125.023 160.595 125.09 160.324 125.102 160.048L129.278 75.5709C129.985 61.3022 119.118 49.1676 105.007 48.4692Z" fill="#B0DEE7"/>
<path d="M115.087 75.0748L98.2704 74.2422C93.2379 73.993 88.9562 77.8707 88.707 82.9033L88.6696 83.6602C88.4204 88.6927 92.2981 92.9744 97.3306 93.2236L114.147 94.0562C119.18 94.3054 123.461 90.4277 123.711 85.3951L123.748 84.6382C123.997 79.6056 120.119 75.324 115.087 75.0748Z" fill="#3C4C87"/>
<path d="M115.168 83.8656L111.508 83.6844C110.65 83.6419 109.919 84.3035 109.877 85.1622L109.695 88.8219C109.653 89.6806 110.315 90.4112 111.173 90.4537L114.833 90.6349C115.692 90.6774 116.422 90.0158 116.465 89.1571L116.646 85.4973C116.688 84.6387 116.027 83.9081 115.168 83.8656Z" fill="#56D8E3"/>
</g>
<path d="M124.03 72.5077C126.483 73.403 128.615 75.0056 130.157 77.1127C131.699 79.2199 132.581 81.7369 132.692 84.3456C132.804 86.9542 132.139 89.5374 130.783 91.7683C129.426 93.9992 127.438 95.7778 125.071 96.879C122.703 97.9802 120.062 98.3547 117.482 97.9551C114.902 97.5554 112.498 96.3996 110.575 94.6338C108.651 92.868 107.295 90.5715 106.676 88.0347C106.058 85.4979 106.206 82.8347 107.101 80.382C107.696 78.7534 108.605 77.2579 109.778 75.9808C110.95 74.7037 112.363 73.67 113.935 72.9388C115.507 72.2076 117.207 71.7932 118.939 71.7192C120.671 71.6452 122.401 71.9131 124.03 72.5077V72.5077Z" stroke="#CAD3DD" stroke-width="2.64063"/>
<path d="M117.433 96.8158C124.679 97.6221 131.207 92.4015 132.014 85.1551C132.82 77.9087 127.6 71.3807 120.353 70.5743C113.107 69.7679 106.579 74.9886 105.772 82.235C104.966 89.4814 110.187 96.0094 117.433 96.8158Z" stroke="#F0F6FF" stroke-width="2.64063"/>
<path d="M134.948 90.0816C134.548 91.178 134.6 92.3883 135.093 93.4464C135.585 94.5045 136.477 95.3237 137.574 95.7239L143.982 98.0585L158.797 103.634C159.341 103.839 159.921 103.934 160.503 103.913C161.084 103.893 161.656 103.758 162.185 103.515C162.714 103.272 163.189 102.927 163.584 102.499C163.978 102.072 164.284 101.57 164.484 101.023C164.882 99.9354 164.835 98.7342 164.354 97.6804C163.872 96.6266 162.994 95.8052 161.911 95.3942L140.591 87.4563C140.048 87.2579 139.471 87.1684 138.894 87.193C138.316 87.2175 137.749 87.3557 137.225 87.5995C136.701 87.8433 136.231 88.188 135.84 88.6139C135.449 89.0398 135.146 89.5385 134.948 90.0816Z" fill="#E9465A"/>
<path d="M152.981 95.135C152.866 95.4493 152.881 95.7963 153.023 96.0997C153.164 96.4031 153.42 96.638 153.734 96.7527L155.571 97.4221L159.819 99.0206C159.975 99.0794 160.141 99.1067 160.308 99.1009C160.475 99.095 160.639 99.0562 160.79 98.9866C160.942 98.917 161.078 98.818 161.192 98.6954C161.305 98.5728 161.392 98.429 161.45 98.2722C161.564 97.9603 161.55 97.6159 161.412 97.3137C161.274 97.0116 161.023 96.776 160.712 96.6582L154.599 94.3822C154.443 94.3253 154.278 94.2997 154.112 94.3067C153.947 94.3138 153.784 94.3534 153.634 94.4233C153.484 94.4932 153.349 94.592 153.237 94.7141C153.125 94.8363 153.038 94.9792 152.981 95.135Z" fill="#FF5862"/>
<path opacity="0.43" d="M127.252 85.8553C129.24 84.2655 128.926 80.5696 126.552 77.6003C124.177 74.631 120.641 73.5128 118.653 75.1027C116.665 76.6926 116.978 80.3885 119.353 83.3578C121.727 86.327 125.264 87.4452 127.252 85.8553Z" fill="white"/>
<path d="M79.9355 110.136C64.9544 129.428 71.4094 155.347 100.327 129.688" stroke="#81BCCA" stroke-width="6.10511" stroke-miterlimit="10"/>
<path d="M79.9355 110.136C64.9544 129.428 71.4094 155.347 100.327 129.688" stroke="#A2CED8" stroke-width="6.10511" stroke-miterlimit="10" stroke-dasharray="7.63 4.58"/>
<path d="M82.6038 107.504C77.2989 112.583 61.7655 133.869 76.6005 140.46" stroke="#ECFBFF" stroke-width="10.6839" stroke-miterlimit="10"/>
<path d="M126.835 100.208L131.162 105.346C132.404 106.82 131.691 109.071 129.823 109.57L119.527 112.324C118.655 112.558 118.338 113.621 118.943 114.289L120.022 115.48C120.634 116.155 120.304 117.23 119.418 117.45L105.284 123.061C104.107 123.353 103.36 121.846 104.314 121.105L125.153 100.03C125.668 99.6283 126.414 99.7073 126.835 100.208Z" fill="white"/>
<rect x="137.335" y="122.653" width="7.23459" height="13.9674" rx="2.41153" transform="rotate(-16.6199 137.335 122.653)" fill="white"/>
<rect x="78.1904" y="147.79" width="7.23459" height="13.9673" rx="2.41153" transform="rotate(-160.117 78.1904 147.79)" fill="white"/>
<path d="M77.6782 96.8312L72.4151 101.006C70.9047 102.203 71.1562 104.55 72.8871 105.411L82.4295 110.159C83.2382 110.562 83.3367 111.667 82.6107 112.201L81.3164 113.153C80.5823 113.693 80.6925 114.812 81.5172 115.204L92.2667 123.472C93.3619 123.992 94.3941 122.663 93.6068 121.748L79.3628 96.9909C78.9369 96.4951 78.1906 96.4242 77.6782 96.8312Z" fill="white"/>
<path fill-rule="evenodd" clip-rule="evenodd" d="M143.034 92.6429C144.299 92.6224 145.34 93.6306 145.361 94.8948C145.373 95.6256 145.528 96.3468 145.819 97.0174C146.11 97.6879 146.53 98.2946 147.055 98.8029C147.58 99.3112 148.2 99.711 148.88 99.9795C149.111 100.071 149.347 100.146 149.587 100.206C151.837 100.763 151.053 102.606 151.091 104.946C149.759 104.968 148.436 104.728 147.197 104.238C145.958 103.748 144.828 103.02 143.87 102.093C142.913 101.167 142.148 100.061 141.618 98.8384C141.088 97.616 140.804 96.3013 140.783 94.9693C140.762 93.705 141.77 92.6635 143.034 92.6429Z" fill="#81BCCA"/>
<path d="M111.494 128.959C107.81 130.97 104.164 132.26 100.63 129.223C97.0951 126.186 97.8757 122.607 99.3875 118.738" stroke="#81BCCA" stroke-width="4.57883" stroke-miterlimit="10" stroke-linecap="round"/>
<path d="M91.6318 111.912L91.248 112.363C91.0416 112.603 90.9246 112.907 90.917 113.223C90.9093 113.539 91.0115 113.848 91.2061 114.097L108.87 136.621L100.788 119.417L91.6318 111.912Z" fill="#FFC93F"/>
<path d="M126.868 111.847L127.279 112.308C127.484 112.542 127.602 112.84 127.611 113.151C127.621 113.462 127.521 113.767 127.331 114.012L109.732 136.634L117.725 119.36L126.868 111.847Z" fill="#FFC93F"/>
<path d="M100.458 119.413L108.828 136.513C108.88 136.597 108.953 136.666 109.039 136.714C109.125 136.762 109.222 136.787 109.321 136.787C109.42 136.786 109.517 136.761 109.602 136.712C109.688 136.664 109.761 136.594 109.812 136.51L118.183 119.322L117.353 116.549L101.198 116.584L100.458 119.413Z" fill="#FFE574"/>
<path d="M95.3979 107.448L91.2251 112.403C91.1396 112.504 91.0769 112.622 91.0412 112.749C91.0055 112.876 90.9977 113.009 91.0182 113.14C91.0388 113.27 91.0872 113.395 91.1603 113.505C91.2334 113.615 91.3294 113.708 91.4416 113.777L101.229 119.893L117.019 113.132L95.3979 107.448Z" fill="#FFE574"/>
<path d="M123.153 107.309L127.197 112.186C127.296 112.303 127.368 112.44 127.409 112.587C127.451 112.734 127.46 112.889 127.436 113.04C127.413 113.191 127.357 113.336 127.273 113.463C127.188 113.591 127.078 113.699 126.948 113.78L117.334 119.846L114.735 113L123.153 107.309Z" fill="#FFE574"/>
<path d="M103.02 103.818L115.47 103.778C115.845 103.775 116.215 103.86 116.551 104.027L123.011 107.192C123.091 107.23 123.16 107.289 123.211 107.362C123.262 107.436 123.292 107.521 123.3 107.61C123.307 107.698 123.291 107.788 123.253 107.868C123.215 107.949 123.156 108.018 123.083 108.069L116.549 112.774C116.212 113.016 115.807 113.147 115.392 113.148L103.092 113.175C102.672 113.177 102.262 113.045 101.923 112.796L95.4929 108.157C95.4217 108.105 95.3649 108.036 95.3281 107.956C95.2913 107.876 95.2757 107.788 95.2827 107.7C95.2898 107.612 95.3192 107.528 95.3683 107.454C95.4174 107.381 95.4845 107.322 95.563 107.282L101.906 104.072C102.253 103.902 102.634 103.815 103.02 103.818Z" fill="#FFC93F"/>
<path d="M103.325 113.197L115.24 113.172C115.485 113.17 115.725 113.244 115.927 113.382C116.13 113.521 116.285 113.719 116.372 113.948L118.014 118.3C118.085 118.483 118.11 118.68 118.087 118.875C118.064 119.069 117.994 119.255 117.884 119.417C117.773 119.578 117.624 119.71 117.451 119.801C117.278 119.893 117.085 119.941 116.889 119.941L101.669 119.98C101.474 119.979 101.281 119.932 101.108 119.841C100.935 119.75 100.786 119.619 100.675 119.458C100.563 119.297 100.492 119.112 100.468 118.918C100.444 118.724 100.467 118.527 100.535 118.344L102.151 113.979C102.24 113.743 102.402 113.54 102.612 113.4C102.823 113.259 103.072 113.188 103.325 113.197Z" fill="#FFF6A5"/>
<path fill-rule="evenodd" clip-rule="evenodd" d="M102.595 107.485C102.111 107.405 101.652 107.733 101.572 108.217L101.522 108.516C101.267 110.042 99.8224 111.076 98.2951 110.824C97.8107 110.744 97.3525 111.072 97.2717 111.556C97.1909 112.04 97.5181 112.497 98.0025 112.577C99.5298 112.829 100.561 114.271 100.307 115.798L99.9621 117.862C99.8813 118.347 100.208 118.804 100.693 118.884C101.177 118.964 101.635 118.636 101.716 118.152L101.941 116.805C102.262 114.882 104.081 113.58 106.005 113.898L106.773 114.025C107.258 114.105 107.716 113.777 107.797 113.293C107.878 112.808 107.551 112.351 107.066 112.271L105.878 112.075C104.186 111.796 103.043 110.198 103.326 108.507C103.407 108.022 103.079 107.565 102.595 107.485Z" fill="#FFFFCC"/>
<path d="M111.493 128.957C107.809 130.968 104.163 132.258 100.628 129.221" stroke="#81BCCA" stroke-width="4.57883" stroke-miterlimit="10" stroke-linecap="round"/>
<rect width="155.52" height="7.68" rx="3.84" transform="matrix(-1 0 0 1 167.318 156.16)" fill="#CDDEE4"/>
<rect width="123.52" height="7.68" rx="3.84" transform="matrix(-1 0 0 1 180.196 156.16)" fill="#BBD2DB"/>
<path d="M54.8448 230.898C54.3858 230.265 53.5657 230.131 52.824 230.378C49.6747 231.426 48.5703 231.158 46.0328 229.715C45.5364 229.432 44.9189 229.468 44.4655 229.815L43.374 230.651C41.0759 232.411 37.9215 233.391 35.0273 233.435C32.5444 233.473 30.5623 235.516 30.6002 237.999L30.6095 238.594C30.6095 238.594 52.9443 238.253 56.5892 238.198C56.7535 234.281 55.6602 232.022 54.8448 230.898Z" fill="#D0F5FF"/>
<path d="M56.5915 237.497C56.5826 236.915 56.1026 236.451 55.5209 236.459C46.3577 236.599 40.7813 236.684 31.6181 236.824C31.0364 236.833 30.5708 237.311 30.5796 237.893L30.5957 238.946C30.6046 239.528 31.0833 239.992 31.665 239.984L55.5704 239.619C56.1521 239.61 56.6164 239.132 56.6076 238.55L56.5915 237.497Z" fill="#D0F5FF"/>
<path fill-rule="evenodd" clip-rule="evenodd" d="M48.8695 231.991C43.9933 238.447 33.0921 237.538 31.218 237.187C31.1051 237.166 31.0014 237.12 30.9048 237.058L30.7101 236.933C31.1585 234.957 32.9106 233.468 35.0265 233.436C37.9208 233.392 41.0751 232.412 43.3732 230.652L44.4648 229.816C44.9181 229.469 45.5356 229.434 46.032 229.716C47.1911 230.375 48.0512 230.789 48.9437 230.944C49.1171 231.278 49.1009 231.685 48.8695 231.991Z" fill="#C0E8F2"/>
<path d="M49.0603 230.989C44.2603 238.349 32.1003 237.069 30.8203 236.749" stroke="#A6D5E1" stroke-width="0.64" stroke-dasharray="1.28 1.28"/>
<path fill-rule="evenodd" clip-rule="evenodd" d="M21.2757 133.406C20.7052 133.406 20.2427 133.869 20.2427 134.439C20.2427 135.313 21.2054 136.149 21.2054 137.022V149.107C21.2054 150.705 22.5008 152.001 24.0988 152.001C25.6967 152.001 26.9921 150.705 26.9921 149.107V137.026C26.9921 136.151 27.9582 135.314 27.9582 134.439C27.9582 133.869 27.4957 133.406 26.9252 133.406H21.2757Z" fill="#60C4FC"/>
<path fill-rule="evenodd" clip-rule="evenodd" d="M30.921 133.406C30.3505 133.406 29.8879 133.869 29.8879 134.439C29.8879 135.313 30.8512 136.149 30.8512 137.023V149.107C30.8512 150.705 32.1466 152.001 33.7445 152.001C35.3424 152.001 36.6378 150.705 36.6378 149.107V137.026C36.6378 136.151 37.6035 135.314 37.6035 134.439C37.6035 133.869 37.141 133.406 36.5704 133.406H30.921Z" fill="#60C4FC"/>
<path d="M22.1721 139.536H42.927V137.607H22.1721V139.536ZM43.8914 140.5V153.171H45.8203V140.5H43.8914ZM42.927 154.136H22.1721V156.065H42.927V154.136ZM21.2076 153.171V140.5H19.2787V153.171H21.2076ZM22.1721 154.136C21.6394 154.136 21.2076 153.704 21.2076 153.171H19.2787C19.2787 154.769 20.5741 156.065 22.1721 156.065V154.136ZM43.8914 153.171C43.8914 153.704 43.4596 154.136 42.927 154.136V156.065C44.5249 156.065 45.8203 154.769 45.8203 153.171H43.8914ZM42.927 139.536C43.4596 139.536 43.8914 139.968 43.8914 140.5H45.8203C45.8203 138.902 44.5249 137.607 42.927 137.607V139.536ZM22.1721 137.607C20.5741 137.607 19.2787 138.902 19.2787 140.5H21.2076C21.2076 139.968 21.6394 139.536 22.1721 139.536V137.607Z" fill="#60C4FC"/>
<path fill-rule="evenodd" clip-rule="evenodd" d="M33.8187 133.407C33.2482 133.407 32.7856 133.87 32.7856 134.44C32.7856 135.315 33.7505 136.151 33.7505 137.026V149.106C33.7505 150.704 35.0459 152 36.6438 152C38.2418 152 39.5372 150.704 39.5372 149.106V137.025C39.5372 136.151 40.5012 135.314 40.5012 134.44C40.5012 133.87 40.0387 133.407 39.4681 133.407H33.8187Z" fill="#91D7FF"/>
<path fill-rule="evenodd" clip-rule="evenodd" d="M43.4559 133.407C42.8854 133.407 42.4229 133.87 42.4229 134.44C42.4229 135.315 43.3884 136.152 43.3884 137.026V149.106C43.3884 150.704 44.6838 152 46.2818 152C47.8797 152 49.1751 150.704 49.1751 149.106V137.024C49.1751 136.15 50.1384 135.314 50.1384 134.44C50.1384 133.87 49.6759 133.407 49.1053 133.407H43.4559Z" fill="#91D7FF"/>
<path d="M33.748 149.107V143.883H39.5347V149.107C39.5347 150.705 38.2393 152 36.6414 152C35.0434 152 33.748 150.705 33.748 149.107Z" fill="#5AF5FF"/>
<path d="M49.8981 153.171L50.8625 153.171L49.8981 153.171ZM35.0593 155.1L35.0593 154.136L35.0593 155.1ZM49.8981 140.5L50.8625 140.5L49.8981 140.5ZM35.0593 139.536L47.9692 139.536L47.9692 137.607L35.0593 137.607L35.0593 139.536ZM32.1659 140.5L32.1659 153.171L34.0948 153.171L34.0948 140.5L32.1659 140.5ZM35.0593 156.065L47.9692 156.065L47.9692 154.136L35.0593 154.136L35.0593 156.065ZM50.8625 153.171L50.8625 140.5L48.9336 140.5L48.9336 153.171L50.8625 153.171ZM47.9692 156.065C49.5671 156.065 50.8625 154.769 50.8625 153.171L48.9336 153.171C48.9336 153.704 48.5018 154.136 47.9692 154.136L47.9692 156.065ZM32.1659 153.171C32.1659 154.769 33.4613 156.065 35.0593 156.065L35.0593 154.136C34.5266 154.136 34.0948 153.704 34.0948 153.171L32.1659 153.171ZM47.9692 139.536C48.5018 139.536 48.9336 139.968 48.9336 140.5L50.8625 140.5C50.8625 138.902 49.5671 137.607 47.9692 137.607L47.9692 139.536ZM35.0593 137.607C33.4613 137.607 32.1659 138.902 32.1659 140.5L34.0948 140.5C34.0948 139.968 34.5266 139.536 35.0593 139.536L35.0593 137.607Z" fill="#C7EBFF"/>
<path fill-rule="evenodd" clip-rule="evenodd" d="M78.3027 183.101C78.3027 177.204 83.0833 172.424 88.9804 172.424L116.268 172.424C117.578 172.424 118.641 173.486 118.641 174.797C118.641 176.107 117.578 177.169 116.268 177.169H97.2852C94.0091 177.169 91.3532 179.825 91.3532 183.101V194.175C91.3532 195.485 90.2909 196.547 88.9804 196.547H82.6529C80.2504 196.547 78.3027 194.6 78.3027 192.197V183.101Z" fill="#ECFBFF"/>
<path d="M77.3855 230.898C76.9266 230.266 76.1064 230.132 75.3648 230.379C72.2154 231.427 71.1111 231.159 68.5736 229.716C68.0771 229.433 67.4597 229.469 67.0063 229.816L65.9147 230.652C63.6167 232.412 60.4623 233.392 57.568 233.436C55.0852 233.474 53.1031 235.517 53.141 238L53.1503 238.595C53.1503 238.595 75.4851 238.254 79.13 238.199C79.2942 234.282 78.2009 232.023 77.3855 230.898Z" fill="#ECFBFF"/>
<path d="M79.1332 237.497C79.1244 236.915 78.6443 236.451 78.0627 236.459C68.8995 236.599 63.323 236.684 54.1599 236.824C53.5782 236.833 53.1125 237.311 53.1214 237.893L53.1374 238.946C53.1463 239.528 53.625 239.992 54.2067 239.984L78.1121 239.619C78.6938 239.61 79.1582 239.132 79.1493 238.55L79.1332 237.497Z" fill="#ECFBFF"/>
<path fill-rule="evenodd" clip-rule="evenodd" d="M71.4113 231.991C66.535 238.447 55.6338 237.538 53.7598 237.187C53.6469 237.166 53.5431 237.12 53.4465 237.058L53.2519 236.933C53.7002 234.957 55.4524 233.468 57.5683 233.436C60.4625 233.392 63.6169 232.412 65.915 230.652L67.0065 229.816C67.4599 229.469 68.0774 229.434 68.5738 229.716C69.7329 230.375 70.5929 230.789 71.4855 230.944C71.6588 231.278 71.6427 231.685 71.4113 231.991Z" fill="#C0E8F2"/>
<path d="M71.6021 230.99C66.8021 238.35 54.6421 237.07 53.3621 236.75" stroke="#A6D5E1" stroke-width="0.64" stroke-dasharray="1.28 1.28"/>
<path fill-rule="evenodd" clip-rule="evenodd" d="M25.0404 175.181C25.1288 174.631 24.7036 174.132 24.1461 174.132C23.5777 174.132 23.1169 173.671 23.1169 173.103V164.869C23.1169 164.301 23.5777 163.84 24.1461 163.84H27.346C26.7776 163.84 26.3168 164.301 26.3168 164.869V172.073C26.3168 172.642 26.7776 173.102 27.346 173.102H30.6192C31.2527 173.102 31.7358 173.669 31.6354 174.295L21.2247 239.134C21.1446 239.633 20.714 240 20.2086 240H15.8407C15.2072 240 14.7241 239.433 14.8245 238.807L25.0404 175.181ZM87.1009 163.84H31.0039C31.5794 163.84 32.043 164.312 32.033 164.887L31.8909 173.033C31.8808 173.608 32.3445 174.08 32.9199 174.08H87.028C87.5928 174.08 88.0521 173.625 88.0572 173.06L88.13 164.878C88.1351 164.306 87.6728 163.84 87.1009 163.84Z" fill="#43434F"/>
<rect x="26.3188" y="163.84" width="24.6925" height="10.24" rx="1.02919" fill="#756E69"/>
<path fill-rule="evenodd" clip-rule="evenodd" d="M23.2314 164.869V173.373C23.2314 173.763 23.5479 174.08 23.9383 174.08C24.3287 174.08 24.6452 173.763 24.6452 173.373V167.429C24.6452 166.861 25.1059 166.4 25.6744 166.4H42.755C43.3234 166.4 43.7842 166.861 43.7842 167.429V173.051C43.7842 173.619 44.245 174.08 44.8134 174.08H45.0282C45.5316 174.08 45.9611 174.444 46.0435 174.941L56.6941 239.139C56.7765 239.636 57.206 240 57.7094 240H62.0755C62.7112 240 63.1949 239.429 63.0908 238.802L52.552 175.277C52.4479 174.65 52.9316 174.08 53.5673 174.08H158.637C159.137 174.08 159.565 174.44 159.651 174.933L170.78 239.146C170.866 239.64 171.294 240 171.794 240H176.158C176.797 240 177.281 239.424 177.172 238.795L166.164 175.285C166.055 174.656 166.54 174.08 167.178 174.08H168.505C169.074 174.08 169.535 173.619 169.535 173.051V164.869C169.535 164.301 169.074 163.84 168.505 163.84H24.2606C23.6922 163.84 23.2314 164.301 23.2314 164.869Z" fill="#43434F"/>
<g clip-path="url(#clip0)">
<path d="M170.103 156.209C170.96 156.214 171.557 155.361 171.259 154.558L167.581 144.626C167.34 143.976 166.715 143.548 166.022 143.559L155.432 143.728C154.576 143.742 153.997 144.608 154.312 145.405L158.147 155.12C158.392 155.741 158.99 156.151 159.658 156.154L170.103 156.209Z" fill="#6FCBFF"/>
<path d="M166.466 144.585C166.765 144.147 166.446 143.554 165.916 143.562L155.483 143.729C154.613 143.743 154.034 144.633 154.374 145.434L157.616 153.064C158.122 154.253 159.741 154.414 160.47 153.348L166.466 144.585Z" fill="#9DDCFF"/>
<path d="M170.008 156.209C170.572 156.212 170.799 155.483 170.334 155.165L155.202 144.811C154.736 144.492 154.139 144.969 154.347 145.493L158.147 155.12C158.392 155.741 158.99 156.151 159.658 156.154L170.008 156.209Z" fill="#4BAFE8"/>
<path d="M170.008 156.209C170.572 156.212 170.799 155.483 170.334 155.165L163.24 150.311C162.979 150.132 162.623 150.199 162.445 150.46L159.161 155.259C158.902 155.637 159.172 156.152 159.63 156.154L170.008 156.209Z" fill="#359FDB"/>
<path d="M164.996 152.405C165.641 152.425 166.094 151.777 165.855 151.178L164.639 148.13C164.504 147.793 164.179 147.57 163.815 147.567L160.534 147.537C159.889 147.531 159.45 148.189 159.702 148.783L160.967 151.759C161.103 152.081 161.414 152.293 161.763 152.304L164.996 152.405Z" fill="#6FCBFF"/>
<path fill-rule="evenodd" clip-rule="evenodd" d="M164.274 150.051C164.507 150.069 164.71 149.894 164.728 149.661L164.739 149.519C164.796 148.785 165.437 148.235 166.172 148.29C166.404 148.307 166.608 148.133 166.626 147.9C166.643 147.668 166.469 147.465 166.237 147.447C165.502 147.392 164.953 146.752 165.01 146.017L165.086 145.026C165.104 144.793 164.93 144.591 164.697 144.573C164.464 144.555 164.261 144.73 164.243 144.963L164.193 145.61C164.122 146.534 163.315 147.227 162.39 147.157L162.022 147.129C161.789 147.112 161.586 147.286 161.568 147.519C161.55 147.752 161.724 147.955 161.957 147.972L162.527 148.015C163.34 148.076 163.948 148.785 163.885 149.598C163.867 149.831 164.041 150.033 164.274 150.051Z" fill="#C7EBFF"/>
</g>
<rect x="156.459" y="156.146" width="32.9398" height="7.8428" rx="3.9214" transform="rotate(-180 156.459 156.146)" fill="#5946A6"/>
<path d="M160.382 155.361H141.559C139.827 155.361 138.422 153.957 138.422 152.224V152.224C138.422 150.492 139.827 149.087 141.559 149.087H160.382" stroke="#5946A6" stroke-width="1.56856" stroke-linecap="round"/>
<path fill-rule="evenodd" clip-rule="evenodd" d="M140.771 154.576C139.472 154.576 138.418 153.523 138.418 152.223C138.418 150.924 139.472 149.87 140.771 149.87H159.594C159.727 149.87 159.858 149.882 159.985 149.903C158.872 150.089 158.023 151.057 158.023 152.223C158.023 153.39 158.872 154.358 159.985 154.544C159.858 154.565 159.727 154.576 159.594 154.576H140.771Z" fill="#E9E4FF"/>
<rect width="25.8812" height="7.8428" rx="3.9214" transform="matrix(1 0 0 -1 127.441 148.304)" fill="#438CFA"/>
<path d="M123.518 147.519H142.341C144.074 147.519 145.478 146.114 145.478 144.381V144.381C145.478 142.649 144.074 141.244 142.341 141.244H123.518" stroke="#438CFA" stroke-width="1.56856" stroke-linecap="round"/>
<path fill-rule="evenodd" clip-rule="evenodd" d="M143.126 146.732C144.425 146.732 145.479 145.679 145.479 144.38C145.479 143.08 144.425 142.027 143.126 142.027H124.303C124.169 142.027 124.038 142.038 123.911 142.059C125.023 142.246 125.871 143.214 125.871 144.38C125.871 145.545 125.023 146.513 123.91 146.7C124.038 146.721 124.169 146.732 124.303 146.732H143.126Z" fill="#F8F6FF"/>
<defs>
<clipPath id="clip0">
<rect width="22.0687" height="22.0687" fill="white" transform="matrix(-0.825304 -0.564688 -0.564688 0.825304 178.205 146.959)"/>
</clipPath>
</defs>
</svg>

