<svg width="66" height="66" viewBox="0 0 66 66" fill="none" xmlns="http://www.w3.org/2000/svg">
<rect x="1.5" y="1.5" width="63" height="63" rx="31.5" fill="#446DEB"/>
<rect x="1.5" y="1.5" width="63" height="63" rx="31.5" stroke="white" stroke-width="3"/>
<rect x="1.5" y="1.5" width="63" height="63" rx="31.5" stroke="#84A2FF" stroke-width="3"/>
<mask id="mask0" mask-type="alpha" maskUnits="userSpaceOnUse" x="3" y="3" width="60" height="60">
<path d="M3 33C3 16.4315 16.4315 3 33 3C49.5685 3 63 16.4315 63 33C63 49.5685 49.5685 63 33 63C16.4315 63 3 49.5685 3 33Z" fill="#9C4050"/>
</mask>
<g mask="url(#mask0)">
<path d="M38.9618 30.0273C38.7338 29.4113 38.1137 28.9682 37.3827 28.9652C36.6517 28.9622 36.028 29.4003 35.795 30.0143" stroke="#56D8E3" stroke-width="1.38941" stroke-linecap="round"/>
<path d="M31.9652 30.2831C31.7372 29.6672 31.1171 29.2241 30.3861 29.2211C29.6551 29.2181 29.0314 29.6562 28.7985 30.2702" stroke="#56D8E3" stroke-width="1.38941" stroke-linecap="round"/>
<path d="M45.202 47.5453C47.2879 55.3674 48.7559 62.1293 53.2904 62.1293C60.4287 62.1293 56.2461 44.5964 58.5747 44.5964" stroke="#81BCCA" stroke-width="3.76724" stroke-miterlimit="10" stroke-linecap="round"/>
<path d="M43.5232 47.6416C49.1607 50.2364 51.2211 79.769 57.9616 49.6207" stroke="#223566" stroke-width="6.65648" stroke-miterlimit="10"/>
<path d="M45.7058 29.209C45.6008 28.0817 44.5983 27.2553 43.4717 27.3673L43.4339 27.371C43.0656 27.4077 42.7959 27.7348 42.8302 28.1034L43.0833 30.8226C43.1182 31.1969 43.451 31.4713 43.8251 31.4341L43.8756 31.429C44.9922 31.318 45.8098 30.3263 45.7058 29.209Z" fill="#F65539"/>
<path fill-rule="evenodd" clip-rule="evenodd" d="M18.5496 67.4613C22.3185 69.4018 26.5937 70.4973 31.1247 70.4973C36.917 70.4973 42.2911 68.7071 46.724 65.6498L43.7363 23.896C43.1727 16.022 36.412 10.0901 28.6362 10.6466C20.8599 11.2031 15.0134 18.0375 15.5765 25.9116L18.5496 67.4613Z" fill="#B0DEE7"/>
<path d="M25.2695 51.0073L42.7422 49.8232L43.8577 66.2835L26.385 67.4676L25.2695 51.0073Z" fill="#E4E8EA"/>
<path d="M35.8096 61.7111L33.849 54.4805L32.5007 54.4805L30.9075 62.0789L33.849 67.4713L35.8096 61.7111Z" fill="#AD4A36"/>
<path d="M31.9688 54.9916L30.9075 53.2548L30.9075 51.2939L35.6871 51.2939L34.5586 54.7822C34.4277 55.1867 34.0509 55.4608 33.6257 55.4608L32.8054 55.4608C32.4639 55.4608 32.1469 55.283 31.9688 54.9916Z" fill="#CC5A43"/>
<path d="M33.0837 50.2709L19.3875 44.063L22.819 50.2709L28.5228 54.6858C29.1636 55.1818 30.0849 55.066 30.583 54.4268L33.0837 51.2176L35.9052 54.0731C36.4657 54.6405 37.3764 54.6576 37.9579 54.1117L42.9179 49.4553L43.7758 42.96L33.0837 50.2709Z" fill="white"/>
<path d="M18.4374 11.4298L21.3687 13.8489" stroke="#B0DEE7" stroke-width="1.90185" stroke-miterlimit="10"/>
<path d="M39.4246 11.3271L36.9749 13.8697" stroke="#B0DEE7" stroke-width="1.90185" stroke-miterlimit="10"/>
<path d="M30.9979 31.6539L29.4214 31.777C29.0519 31.8061 28.729 31.5298 28.7004 31.1603L28.5774 29.5838C28.5483 29.2143 28.8245 28.8914 29.194 28.8628L30.7706 28.7398C31.1401 28.7107 31.463 28.987 31.4915 29.3565L31.6146 30.933C31.6436 31.3019 31.3674 31.6249 30.9979 31.6539Z" fill="#6EC1FF"/>
<path d="M14.4787 30.9723C14.5061 31.4919 14.9495 31.8909 15.4691 31.8635C15.9886 31.8361 16.3876 31.3927 16.3602 30.8731L14.4787 30.9723ZM17.8966 27.2138L29.1436 26.4457L29.0152 24.5659L17.7683 25.334L17.8966 27.2138ZM14.3829 29.1554L14.4787 30.9723L16.3602 30.8731L16.2645 29.0562L14.3829 29.1554ZM17.7683 25.334C15.7855 25.4695 14.2783 27.1708 14.3829 29.1554L16.2645 29.0562C16.214 28.0994 16.9407 27.2791 17.8966 27.2138L17.7683 25.334Z" fill="#3B53A9"/>
<ellipse rx="2.1724" ry="3.68239" transform="matrix(0.997826 -0.0659004 0.0783212 0.996928 16.5467 31.0992)" fill="#FFB762"/>
<path fill-rule="evenodd" clip-rule="evenodd" d="M16.1376 33.2492C16.3555 33.2196 16.531 33.0619 16.6049 32.8547C16.7889 32.3392 16.8722 31.7116 16.8196 31.0419C16.7767 30.4954 16.6485 29.9886 16.4601 29.5565C16.3694 29.3484 16.1776 29.1976 15.9509 29.1867C15.8792 29.1833 15.8067 29.1839 15.7334 29.1888C14.6993 29.2585 13.919 30.1557 13.9935 31.1894L14.018 31.5303C14.092 32.5573 14.982 33.3314 16.0093 33.2622C16.0525 33.2593 16.0953 33.2549 16.1376 33.2492Z" fill="white"/>
<path d="M14.9456 31.9053L16.5283 30.7477L18.554 33.5175C18.8737 33.9545 18.7785 34.568 18.3415 34.8876C17.9044 35.2073 17.291 35.1121 16.9713 34.6751L14.9456 31.9053Z" fill="white"/>
<path d="M38.1633 17.378C35.5967 14.5382 31.9371 13.0664 28.1241 13.3395" stroke="#ECFBFF" stroke-width="1.42639" stroke-miterlimit="10" stroke-linecap="round"/>
<path d="M40.2983 20.8528C40.0494 20.2802 39.7612 19.7331 39.4372 19.2137" stroke="#ECFBFF" stroke-width="1.42639" stroke-miterlimit="10" stroke-linecap="round"/>
<path d="M36.7581 36.832L36.7955 37.2043C36.9475 38.713 35.9327 40.0622 34.5404 40.2025L33.2621 40.3312C31.8699 40.4714 30.6064 39.3516 30.4545 37.8429L30.417 37.4706" fill="white"/>
<path d="M36.7581 36.832L36.7955 37.2043C36.9475 38.713 35.9327 40.0622 34.5404 40.2025L33.2621 40.3312C31.8699 40.4714 30.6064 39.3516 30.4545 37.8429L30.417 37.4706" stroke="#A2CED8" stroke-width="1.15627" stroke-miterlimit="10" stroke-linecap="round" stroke-linejoin="round"/>
<path d="M18.0605 13.6273C16.5049 13.7327 15.1582 12.5571 15.0528 11.0014C14.9474 9.44566 16.1231 8.09905 17.6788 7.99363C19.2345 7.8882 20.5811 9.06388 20.6865 10.6196C20.7919 12.1753 19.6162 13.5219 18.0605 13.6273Z" fill="#B0DEE7"/>
<path d="M18.0077 12.4337C17.1157 12.4942 16.3435 11.82 16.283 10.9279C16.2226 10.0358 16.8967 9.26367 17.7888 9.20321C18.6809 9.14276 19.4531 9.81692 19.5135 10.709C19.574 11.6011 18.8998 12.3733 18.0077 12.4337Z" fill="#F65539"/>
<path d="M40.9373 12.7855C39.3816 12.8909 38.035 11.7153 37.9295 10.1596C37.8241 8.60386 38.9998 7.25726 40.5555 7.15183C42.1112 7.0464 43.4578 8.22208 43.5632 9.77778C43.6686 11.3335 42.493 12.6801 40.9373 12.7855Z" fill="#B0DEE7"/>
<path d="M40.8842 11.5919C39.9921 11.6524 39.2199 10.9782 39.1595 10.0861C39.099 9.19405 39.7732 8.42187 40.6653 8.36142C41.5573 8.30096 42.3295 8.97512 42.39 9.8672C42.4504 10.7593 41.7763 11.5315 40.8842 11.5919Z" fill="#F65539"/>
<path fill-rule="evenodd" clip-rule="evenodd" d="M17.4544 67.0103C21.4708 69.3042 26.121 70.6151 31.0775 70.6151C37.3346 70.6151 43.1037 68.526 47.7255 65.0073L46.4234 44.1526L33.8487 67.3483L16.0128 43.5634L17.4544 67.0103Z" fill="#1B2A5F"/>
<path d="M14.9518 50.853C17.0377 58.675 18.5057 65.4369 23.0401 65.4369" stroke="#8CC2CF" stroke-width="3.76724" stroke-miterlimit="10" stroke-linecap="round"/>
<path d="M17.6714 46.6363C15.1607 52.5753 15.4464 58.2479 16.9995 61.833C19.3885 67.3475 24.7762 67.9228 27.5985 56.9308" stroke="#223566" stroke-width="6.65648" stroke-miterlimit="10"/>
<path d="M60.8663 42.5303C62.0733 45.0776 57.6098 45.1299 57.9716 42.2298C58.3332 39.3292 59.9041 38.7822 62.4514 37.5752" stroke="#81BCCA" stroke-width="2.87174" stroke-miterlimit="10" stroke-linecap="round"/>
<path d="M47.0423 42.7152C47.3807 43.4936 47.3664 44.3801 47.0031 45.1472L42.4409 54.7786C42.2438 55.1946 42.4766 55.6869 42.9232 55.7986C43.4375 55.9272 43.6511 56.5393 43.3217 56.9547C41.2824 59.5264 35.4314 66.9038 34.5842 67.9608C33.9151 68.2756 33.2887 67.4628 33.7708 66.9061L44.6887 39.3987C44.8496 38.9933 45.42 38.9841 45.5939 39.3841L47.0423 42.7152Z" fill="#2E4082"/>
<path d="M14.5272 43.7707C14.0525 44.6974 14.1538 45.8145 14.7874 46.6407L22.5762 56.7963C22.8713 57.1811 22.7447 57.7394 22.3125 57.9593C21.8102 58.2147 21.7347 58.8997 22.1747 59.2517C24.8872 61.4221 32.6439 67.6274 33.7651 68.515C34.5284 68.681 34.9814 67.6962 34.3535 67.2368L16.7873 40.9568C16.5795 40.6459 16.114 40.6728 15.9434 41.0057L14.5272 43.7707Z" fill="#2E4082"/>
<path d="M32.0545 49.0812C33.1237 51.6893 28.6637 51.5032 29.1799 48.6265C29.6959 45.7493 31.2938 45.287 33.9019 44.2178" stroke="#81BCCA" stroke-width="2.87175" stroke-miterlimit="10" stroke-linecap="round"/>
<path d="M30.0197 50.0992C26.3431 52.6729 30.1783 65.4364 23.04 65.4364C22.1668 65.4364 21.4073 65.1857 20.7353 64.7249" stroke="#81BCCA" stroke-width="3.76724" stroke-miterlimit="10" stroke-linecap="round"/>
<path d="M16.9992 61.8337C20.2908 69.2965 24.7759 67.9235 27.5982 56.9315L28.4561 53.9902" stroke="#223566" stroke-width="6.65648" stroke-miterlimit="10"/>
<path d="M35.8115 25.905C35.7696 25.1332 36.3529 24.4729 37.1217 24.4208C39.4717 24.2617 42.5421 24.0583 44.7588 23.912C46.0769 23.8251 47.2074 24.8398 47.2642 26.1603L47.4103 29.5578C47.5103 31.8816 45.7171 33.8575 43.388 34.0131C42.4541 34.0755 41.5207 34.1409 40.5876 34.2079C38.2203 34.378 36.1736 32.5786 36.0451 30.2103L35.8115 25.905Z" fill="#30284F" stroke="#3B53A9" stroke-width="0.942068"/>
<path d="M25.8565 25.1992L33.4532 24.6717C33.8049 24.6482 34.1516 24.7649 34.4175 24.9962C34.6829 25.227 34.8464 25.5533 34.8723 25.904L35.1359 30.3371C35.2755 32.686 33.4733 34.7051 31.117 34.863C30.2089 34.9238 29.3012 34.9875 28.3938 35.0527C26.0264 35.2227 23.9797 33.4233 23.8512 31.055L23.6679 27.6763C23.5982 26.3914 24.5727 25.2883 25.8565 25.1992Z" fill="#30284F" stroke="#3B53A9" stroke-width="0.942068"/>
<path opacity="0.5" d="M40.978 30.6855L44.0493 26.9259C44.168 26.7829 44.242 26.6081 44.2621 26.4234C44.2822 26.2386 44.2476 26.052 44.1625 25.8867C44.0774 25.7215 43.9456 25.585 43.7835 25.4941C43.6214 25.4031 43.4361 25.3619 43.2507 25.3755L39.5853 25.6177C39.1959 25.6436 38.8327 25.8231 38.5755 26.1167C38.3183 26.4102 38.1882 26.7939 38.2138 27.1834L38.3906 29.8591C38.4798 31.1783 40.14 31.7104 40.978 30.6855Z" fill="#82959E"/>
<path opacity="0.5" d="M28.3313 31.5693L31.4026 27.8097C31.5213 27.6666 31.5953 27.4918 31.6154 27.307C31.6355 27.1221 31.6008 26.9355 31.5156 26.7702C31.4304 26.605 31.2985 26.4684 31.1363 26.3776C30.9741 26.2867 30.7887 26.2456 30.6033 26.2593L26.9406 26.5014C26.5512 26.5273 26.188 26.7068 25.9308 27.0003C25.6736 27.2939 25.5435 27.6776 25.5691 28.067L25.7459 30.7428C25.8331 32.0621 27.4932 32.5942 28.3313 31.5693Z" fill="#82959E"/>
<path d="M31.8309 24.7839L40.3095 24.1951" stroke="#3B53A9" stroke-width="0.942068"/>
<path d="M34.4216 25.3908L36.188 25.2549" stroke="#3B53A9" stroke-width="0.942068"/>
</g>
</svg>

