<svg
  width="66"
  height="66"
  viewBox="0 0 78 78"
  fill="none"
  xmlns="http://www.w3.org/2000/svg"
>
<g clip-path="url(#clip0)">
<circle
      cx="38.9997"
      cy="39"
      r="37.2273"
      fill="#FD814B"
      stroke="#FFAC5F"
      stroke-width="3.54545"
    />
<mask
      id="mask0"
      style="mask-type:alpha"
      maskUnits="userSpaceOnUse"
      x="3"
      y="3"
      width="72"
      height="72"
    >
<circle cx="39.0002" cy="39.0004" r="35.4545" fill="#FD814B" />
</mask>
<g mask="url(#mask0)">
<path
        d="M18.2435 43.3574L17.4425 43.4125C16.7617 43.4561 16.0914 43.2277 15.5788 42.7775C15.0663 42.3272 14.7534 41.6919 14.709 41.0111L14.6944 40.7982C14.6507 40.1174 14.8791 39.4471 15.3294 38.9345C15.7797 38.422 16.415 38.1091 17.0958 38.0647L17.8952 38.0096L18.2435 43.3574Z"
        fill="#F65539"
      />
<path
        d="M58.5264 40.8049L58.6597 40.7957C58.9968 40.7739 59.3263 40.6859 59.6293 40.5367C59.9324 40.3875 60.2031 40.1801 60.426 39.9263C60.6488 39.6724 60.8195 39.3772 60.9282 39.0573C61.0369 38.7375 61.0816 38.3994 61.0596 38.0623L61.0449 37.8494C61.0229 37.5123 60.9347 37.1828 60.7854 36.8797C60.636 36.5766 60.4284 36.3059 60.1745 36.0831C59.9205 35.8603 59.6251 35.6896 59.3052 35.5809C58.9853 35.4722 58.6471 35.4276 58.31 35.4496L58.1767 35.4588C58.0015 35.4709 57.838 35.5513 57.7215 35.6828C57.6051 35.8144 57.545 35.9864 57.5543 36.1618L57.8154 40.1768C57.8204 40.2649 57.8429 40.3511 57.8814 40.4304C57.92 40.5098 57.9739 40.5807 58.04 40.6391C58.1061 40.6975 58.1831 40.7422 58.2666 40.7707C58.3501 40.7991 58.4384 40.8108 58.5264 40.8049Z"
        fill="#F65539"
      />
<path
        d="M57.3497 43.0292L57.6161 43.0108C57.8094 42.9983 57.9983 42.9479 58.172 42.8623C58.3458 42.7768 58.5009 42.6578 58.6287 42.5123C58.7564 42.3667 58.8542 42.1974 58.9165 42.014C58.9787 41.8306 59.0042 41.6368 58.9915 41.4436L58.5575 34.7615C58.545 34.5683 58.4945 34.3794 58.409 34.2056C58.3234 34.0319 58.2045 33.8767 58.0589 33.749C57.9134 33.6212 57.7441 33.5234 57.5607 33.4612C57.3773 33.3989 57.1835 33.3734 56.9902 33.3861L56.7237 33.4045C56.5305 33.417 56.3416 33.4674 56.1679 33.553C55.9941 33.6385 55.839 33.7575 55.7112 33.903C55.5835 34.0486 55.4857 34.2179 55.4234 34.4013C55.3612 34.5847 55.3356 34.7785 55.3483 34.9717L55.7839 41.6537C55.7964 41.8468 55.8468 42.0356 55.9322 42.2092C56.0177 42.3829 56.1365 42.538 56.2819 42.6657C56.4273 42.7934 56.5964 42.8913 56.7796 42.9536C56.9628 43.016 57.1565 43.0417 57.3497 43.0292Z"
        fill="#FFB762"
      />
<path
        d="M19.2254 45.5044L18.9604 45.5227C18.7672 45.5354 18.5734 45.5099 18.39 45.4476C18.2066 45.3853 18.0373 45.2875 17.8917 45.1598C17.7462 45.0321 17.6272 44.8769 17.5417 44.7032C17.4561 44.5294 17.4057 44.3405 17.3932 44.1473L16.9576 37.4653C16.9451 37.2722 16.9708 37.0785 17.0332 36.8953C17.0955 36.7121 17.1934 36.543 17.3211 36.3976C17.4488 36.2522 17.6039 36.1334 17.7776 36.0479C17.9512 35.9625 18.14 35.9121 18.3331 35.8996L18.5996 35.8812C18.7928 35.8685 18.9867 35.894 19.1701 35.9563C19.3534 36.0186 19.5227 36.1164 19.6683 36.2441C19.8139 36.3718 19.9328 36.527 20.0184 36.7007C20.1039 36.8745 20.1544 37.0634 20.1669 37.2566L20.6007 43.9356C20.6136 44.129 20.5882 44.323 20.5261 44.5065C20.4639 44.6901 20.3662 44.8596 20.2384 45.0053C20.1107 45.151 19.9555 45.2701 19.7816 45.3557C19.6078 45.4414 19.4188 45.4919 19.2254 45.5044Z"
        fill="#FFB762"
      />
<path
        d="M29.3687 56.9345L19.8879 57.5505C18.7531 57.6452 17.7008 58.1815 16.9574 59.0441C16.214 59.9067 15.8388 61.0266 15.9127 62.163C15.9865 63.2994 16.5034 64.3613 17.3522 65.1205C18.2009 65.8797 19.3138 66.2753 20.4513 66.2224L29.932 65.6049L29.3687 56.9345Z"
        fill="#BEDCE4"
      />
<path
        d="M36.1281 13.1431C46.4652 12.4712 55.4002 20.3974 56.0739 30.8497L60.1009 92.7216C60.1161 92.9234 60.0911 93.1262 60.0276 93.3183C59.964 93.5104 59.8631 93.6881 59.7306 93.8411C59.5982 93.9941 59.4368 94.1194 59.2557 94.2098C59.0746 94.3001 58.8775 94.3538 58.6756 94.3677L24.3051 96.6039C24.103 96.6166 23.9004 96.5892 23.7089 96.5233C23.5175 96.4574 23.3409 96.3542 23.1895 96.2198C23.0381 96.0853 22.9147 95.9222 22.8266 95.7399C22.7385 95.5575 22.6873 95.3596 22.676 95.1574L18.6489 33.2855C17.9661 22.8338 25.7912 13.8165 36.1281 13.1431Z"
        fill="#B8DEE5"
      />
<path
        d="M42.6772 47.1914L42.6981 47.6229C42.7826 49.3717 41.5314 50.8664 39.9176 50.9444L38.4359 51.0161C36.8222 51.0941 35.4326 49.727 35.3481 47.9781L35.3272 47.5467"
        fill="white"
      />
<path
        d="M42.6772 47.1914L42.6981 47.6229C42.7826 49.3717 41.5314 50.8664 39.9176 50.9444L38.4359 51.0161C36.8222 51.0941 35.4326 49.727 35.3481 47.9781L35.3272 47.5467"
        stroke="#8CC2CF"
        stroke-width="1.33506"
        stroke-miterlimit="10"
        stroke-linecap="round"
        stroke-linejoin="round"
      />
<path
        d="M51.7912 27.6762C51.6991 27.3054 51.5583 26.8977 51.3747 26.4675M50.1716 24.2625C49.1295 22.6815 47.7023 21.1071 46.1174 20.0986"
        stroke="white"
        stroke-width="1.7982"
        stroke-linecap="round"
      />
<path
        d="M24.5056 67.4211L27.5586 67.2216C27.6354 67.2203 27.7112 67.2034 27.7813 67.1719C27.8514 67.1404 27.9144 67.0949 27.9664 67.0383C28.0184 66.9817 28.0583 66.9151 28.0837 66.8425C28.1091 66.77 28.1195 66.693 28.1142 66.6163C28.1089 66.5396 28.0881 66.4648 28.053 66.3964C28.0178 66.3281 27.9692 66.2675 27.9099 66.2186C27.8507 66.1696 27.7821 66.1332 27.7083 66.1116C27.6345 66.09 27.5571 66.0836 27.4808 66.0929L24.4327 66.2951C24.2886 66.3126 24.1568 66.3848 24.0643 66.4966C23.9719 66.6085 23.9259 66.7516 23.9358 66.8964C23.9458 67.0412 24.011 67.1766 24.1179 67.2747C24.2248 67.3729 24.3653 67.4262 24.5104 67.4238L24.5056 67.4211Z"
        fill="#A2CED8"
      />
<path
        d="M24.8142 72.1405L27.8656 71.9411C28.0097 71.9237 28.1415 71.8515 28.234 71.7397C28.3264 71.6278 28.3724 71.4847 28.3624 71.3399C28.3525 71.1951 28.2873 71.0597 28.1804 70.9615C28.0735 70.8634 27.933 70.81 27.7879 70.8125L24.7349 71.0119C24.5909 71.0294 24.459 71.1016 24.3665 71.2134C24.2741 71.3253 24.2281 71.4684 24.2381 71.6132C24.2481 71.758 24.3132 71.8934 24.4201 71.9915C24.527 72.0897 24.6675 72.143 24.8127 72.1406L24.8142 72.1405Z"
        fill="#A2CED8"
      />
<path
        d="M24.6666 69.7807L27.7197 69.5828C27.8637 69.5653 27.9956 69.4932 28.088 69.3813C28.1805 69.2694 28.2265 69.1263 28.2165 68.9815C28.2065 68.8368 28.1414 68.7013 28.0344 68.6032C27.9275 68.505 27.787 68.4517 27.6419 68.4541L24.589 68.6536C24.4395 68.6639 24.3002 68.7331 24.2018 68.8461C24.1034 68.9591 24.0539 69.1065 24.0642 69.256C24.0745 69.4054 24.1438 69.5447 24.2567 69.6431C24.3697 69.7415 24.5171 69.791 24.6666 69.7807Z"
        fill="#A2CED8"
      />
<path
        d="M18.3704 21.4512L22.1884 24.1647"
        stroke="#BEDCE4"
        stroke-width="2.52369"
        stroke-miterlimit="10"
      />
<path
        d="M32.8979 46.454L45.2142 45.6535C46.0908 45.5966 46.9476 45.3675 47.7357 44.9794C48.5238 44.5913 49.2277 44.0518 49.8072 43.3916C50.3867 42.7314 50.8305 41.9635 51.1133 41.1317C51.396 40.3 51.5121 39.4207 51.4549 38.5441L51.4169 37.9913C51.3597 37.1148 51.1305 36.2581 50.7424 35.4702C50.3542 34.6823 49.8146 33.9786 49.1544 33.3992C48.4943 32.8199 47.7264 32.3762 46.8948 32.0936C46.0632 31.8109 45.1841 31.6949 44.3076 31.752L31.9929 32.5524C30.2226 32.6678 28.5706 33.4816 27.4003 34.8148C26.23 36.148 25.6371 37.8915 25.7521 39.6618L25.7902 40.2147C25.9055 41.9845 26.7191 43.6361 28.052 44.8062C29.3849 45.9763 31.128 46.569 32.8979 46.454Z"
        fill="#36488B"
      />
<path
        d="M36.4445 40.4018C36.9682 40.3744 37.3735 39.9595 37.3866 39.4374C37.402 38.8238 36.8758 38.3141 36.2603 38.3464L33.3674 38.498C32.8437 38.5255 32.4384 38.9404 32.4253 39.4625C32.4099 40.0761 32.9361 40.5858 33.5516 40.5535L36.4445 40.4018Z"
        fill="#6EDCFF"
      />
<path
        d="M43.9737 40.8884C44.6324 40.8538 45.1289 40.3095 45.1016 39.6515L45.0134 37.5231C44.9843 36.819 44.3698 36.2606 43.6648 36.2975L41.4973 36.4111C40.8385 36.4457 40.3421 36.9901 40.3693 37.648L40.4575 39.7765C40.4867 40.4806 41.1012 41.039 41.8062 41.002L43.9737 40.8884Z"
        fill="#6EDCFF"
      />
<path
        d="M48.2767 64.4118L58.0898 63.7729C59.2395 63.698 60.3124 63.1694 61.0725 62.3035C61.8325 61.4375 62.2174 60.3051 62.1425 59.1554C62.0676 58.0056 61.539 56.9327 60.6731 56.1727C59.8071 55.4126 58.6747 55.0277 57.525 55.1026L47.6367 55.7451L48.2767 64.4118Z"
        fill="#BEDCE4"
      />
<path
        d="M53.2386 16.4377L49.821 20.146"
        stroke="#B8DEE5"
        stroke-width="2.52369"
        stroke-miterlimit="10"
      />
<path
        d="M55.6001 17.6723C56.3391 17.6214 57.0464 17.3525 57.6326 16.8996C58.2188 16.4468 58.6576 15.8303 58.8934 15.1281C59.1293 14.4259 59.1516 13.6695 58.9577 12.9546C58.7637 12.2397 58.3621 11.5984 57.8037 11.1117C57.2452 10.625 56.555 10.3149 55.8203 10.2204C55.0856 10.126 54.3394 10.2515 53.676 10.5811C53.0127 10.9107 52.4619 11.4297 52.0934 12.0723C51.725 12.7149 51.5553 13.4523 51.6059 14.1913C51.6741 15.1825 52.1332 16.106 52.8823 16.7588C53.6313 17.4115 54.6089 17.7401 55.6001 17.6723Z"
        fill="#B8DEE5"
      />
<path
        d="M55.4667 16.0955C55.8908 16.0663 56.2966 15.912 56.633 15.6522C56.9693 15.3923 57.2211 15.0385 57.3564 14.6356C57.4917 14.2326 57.5045 13.7986 57.3931 13.3884C57.2817 12.9782 57.0512 12.6102 56.7307 12.331C56.4102 12.0518 56.0141 11.8739 55.5925 11.8198C55.1709 11.7657 54.7427 11.8379 54.3621 12.0271C53.9815 12.2164 53.6656 12.5143 53.4543 12.8831C53.243 13.2519 53.1458 13.6751 53.175 14.0991C53.2142 14.6678 53.4776 15.1976 53.9074 15.572C54.3372 15.9464 54.8981 16.1347 55.4667 16.0955Z"
        fill="#F65539"
      />
<path
        d="M16.6204 23.313C17.3561 23.2259 18.0494 22.9225 18.6126 22.4413C19.1759 21.9601 19.5838 21.3226 19.7848 20.6096C19.9857 19.8966 19.9708 19.14 19.7417 18.4354C19.5127 17.7309 19.0799 17.1101 18.498 16.6516C17.9162 16.193 17.2114 15.9173 16.4729 15.8593C15.7343 15.8013 14.9952 15.9636 14.3489 16.3257C13.7026 16.6878 13.1782 17.2334 12.8419 17.8935C12.5057 18.5536 12.3728 19.2986 12.46 20.0343C12.5773 21.0206 13.0814 21.92 13.8616 22.5348C14.6417 23.1496 15.634 23.4295 16.6204 23.313Z"
        fill="#BEDCE4"
      />
<path
        d="M16.3942 21.7429C16.8162 21.6927 17.214 21.5184 17.537 21.2422C17.8601 20.966 18.094 20.6001 18.2091 20.191C18.3243 19.7818 18.3155 19.3477 18.1839 18.9435C18.0523 18.5393 17.8038 18.1832 17.4699 17.9203C17.1359 17.6573 16.7315 17.4993 16.3077 17.4662C15.884 17.4331 15.4599 17.5264 15.0892 17.7343C14.7184 17.9422 14.4177 18.2554 14.2249 18.6342C14.0321 19.013 13.9561 19.4405 14.0063 19.8626C14.0736 20.4286 14.363 20.9447 14.8108 21.2973C15.2586 21.6499 15.8282 21.8102 16.3942 21.7429Z"
        fill="#F65539"
      />
<path
        d="M55.4258 56.9941C62.1371 60.4479 64.9417 73.9673 65.4466 86.5855"
        stroke="#F8F1BB"
        stroke-width="8.83138"
        stroke-miterlimit="10"
      />
<path
        d="M29.1884 116.656L59.9689 115.4C61.4513 115.34 62.5924 114.069 62.494 112.589L58.6589 54.9396C58.5996 54.0485 57.3247 53.7744 56.8225 54.5128C46.2697 70.0275 25.3495 60.9132 25.3495 60.9132L29.1884 116.656Z"
        fill="#F8F1BB"
      />
<path
        d="M22.9301 117.341C22.955 117.821 23.3608 118.193 23.8412 118.175L50.2747 117.187C52.2392 117.114 53.7622 115.445 53.6561 113.482L51.1934 67.9296C51.0873 65.966 49.3772 64.4805 47.4116 64.5401C24.605 65.2316 19.7449 55.842 19.7449 55.842L22.9301 117.341Z"
        fill="#FFFACA"
      />
<path
        d="M49.9993 69.2174L32.0919 69.4459C30.7961 69.4624 29.6887 70.4154 29.2668 71.6407C27.6299 76.3947 23.1626 84.4097 20.5226 87.7772C20.1191 88.292 19.8693 88.9146 19.8648 89.5687L19.7387 108.103C19.7376 108.261 19.7225 108.418 19.6934 108.572L16.2561 126.887C16.0071 128.213 16.7838 129.503 18.0898 129.843C26.1696 131.946 53.7715 138.127 67.6253 128.538C68.569 127.885 68.855 126.647 68.4139 125.588L63.0771 112.767C62.8891 112.315 62.7778 111.836 62.7478 111.347L61.4309 89.9635C61.3913 89.3193 61.11 88.7193 60.7085 88.214C57.9763 84.7755 54.2557 76.2781 52.798 71.3775C52.4271 70.1308 51.2999 69.2008 49.9993 69.2174Z"
        fill="#D82F2F"
      />
<path
        d="M57.4119 52.2665C58.8248 52.7863 60.1619 53.6874 61.5738 55.0434C61.1967 58.8377 52.8659 73.9877 50.3773 78.4437C49.9701 79.1728 49.1134 79.5087 48.3149 79.2644L45.9771 78.5492C44.8691 78.2102 44.367 76.9295 44.9572 75.9324C48.2809 70.318 57.589 54.3797 57.4119 52.2665Z"
        fill="#363642"
      />
<path
        d="M20.0958 61.5042C12.6521 73.7558 10.8517 98.496 61.0218 96.8307"
        stroke="#8CC2CF"
        stroke-width="5.04585"
        stroke-miterlimit="10"
        stroke-linecap="round"
      />
<path
        d="M22.252 62.8142C22.9755 61.6234 22.5967 60.0716 21.4058 59.3481C20.215 58.6246 18.6632 59.0034 17.9397 60.1942L22.252 62.8142ZM61.1055 99.3523C62.4981 99.306 63.5896 98.1396 63.5434 96.747C63.4971 95.3544 62.3308 94.263 60.9381 94.3092L61.1055 99.3523ZM17.9397 60.1942C17.3704 61.1311 16.8329 62.1324 16.3434 63.1845L20.9182 65.3132C21.3288 64.4308 21.7786 63.5935 22.252 62.8142L17.9397 60.1942ZM14.8735 66.9826C14.2087 69.1188 13.7653 71.4034 13.6678 73.7451L18.7093 73.9548C18.7862 72.1077 19.1388 70.2577 19.6914 68.4819L14.8735 66.9826ZM13.8858 77.9506C14.2287 80.2296 14.9585 82.5034 16.1797 84.6746L20.5777 82.201C19.6784 80.6022 19.1342 78.9191 18.8755 77.2L13.8858 77.9506ZM18.6535 88.1417C20.0875 89.7636 21.8485 91.2561 23.965 92.5862L26.65 88.3141C24.9081 87.2193 23.524 86.0327 22.4337 84.7994L18.6535 88.1417ZM27.5275 94.5107C29.3879 95.3731 31.4551 96.1364 33.7433 96.7889L35.1271 91.9365C33.065 91.3485 31.2474 90.6735 29.6496 89.9328L27.5275 94.5107ZM37.5562 97.7286C39.5322 98.1452 41.6513 98.491 43.9215 98.7598L44.5149 93.749C42.3817 93.4964 40.4126 93.1741 38.5971 92.7913L37.5562 97.7286ZM47.7488 99.1282C49.7544 99.2792 51.8671 99.376 54.0915 99.4146L54.1791 94.3695C52.0452 94.3324 50.0299 94.2399 48.1278 94.0966L47.7488 99.1282ZM57.9041 99.4245C58.9483 99.4124 60.0153 99.3884 61.1055 99.3523L60.9381 94.3092C59.8832 94.3442 58.8526 94.3673 57.8458 94.3789L57.9041 99.4245Z"
        fill="#A2CED8"
      />
<path
        d="M22.2304 59.4787C14.2087 65.1312 17.1306 79.2508 17.4504 87.2429"
        stroke="#F8F1BB"
        stroke-width="8.79457"
        stroke-miterlimit="10"
      />
<path
        d="M20.0339 54.8649C18.7264 55.4857 16.9011 56.9122 16.4797 58.2864C20.3201 65.5145 30.2717 76.264 32.6518 78.7887C32.9503 79.1054 33.4319 79.1534 33.7913 78.908L36.9148 76.775C37.3813 76.4563 37.4393 75.7898 37.036 75.3942C33.578 72.0025 19.8536 58.3133 20.0339 54.8649Z"
        fill="#363642"
      />
<circle
        cx="50.4757"
        cy="71.9351"
        r="1.79821"
        transform="rotate(17.0109 50.4757 71.9351)"
        fill="#FFDD65"
      />
<circle
        cx="30.5819"
        cy="72.4282"
        r="1.79821"
        transform="rotate(17.0109 30.5819 72.4282)"
        fill="#FFDD65"
      />
<ellipse
        cx="19.807"
        cy="6.74247"
        rx="8.25546"
        ry="8.66768"
        transform="rotate(-10.0036 19.807 6.74247)"
        fill="#F3EFCA"
      />
<ellipse
        cx="32.4374"
        cy="0.928014"
        rx="8.25546"
        ry="8.66768"
        transform="rotate(-10.0036 32.4374 0.928014)"
        fill="#F3EFCA"
      />
<ellipse
        cx="46.2997"
        cy="2.07157"
        rx="8.25546"
        ry="8.66768"
        transform="rotate(-10.0036 46.2997 2.07157)"
        fill="#F3EFCA"
      />
<rect
        x="17.5442"
        y="3.80371"
        width="28.8323"
        height="16.4522"
        rx="0.822627"
        transform="rotate(-10.0036 17.5442 3.80371)"
        fill="#ECDBAF"
      />
<path
        d="M15.4143 2.62109L47.8204 -3.0951L49.8 8.12736C50.0122 9.33052 48.8711 10.4327 47.651 10.3697C40.8272 10.0177 26.8174 12.2525 20.1323 15.2076C19.0233 15.6978 17.6109 15.0741 17.4003 13.88L15.4143 2.62109Z"
        fill="#F3EFCA"
      />
<path
        d="M19.7396 20.0839C19.6314 19.2909 20.0733 18.5454 20.8013 18.2126C29.8546 14.0747 44.6005 13.1153 48.3423 13.4261C48.878 13.4706 49.263 13.8556 49.4201 14.3697C49.6134 15.0023 49.7464 15.5629 49.8355 16.1448C50.015 17.3168 49.0162 18.2911 47.8306 18.2787C39.4093 18.1903 32.0215 18.1208 22.7995 22.3603C21.5812 22.9203 20.1231 22.2928 19.8826 20.9736C19.8293 20.681 19.7802 20.3809 19.7396 20.0839Z"
        fill="#F3EFCA"
      />
</g>
</g>
<defs>
<clipPath id="clip0">
<rect width="78" height="78" fill="white" />
</clipPath>
</defs>
</svg>
