<svg width="192" height="256" viewBox="0 0 192 256" fill="none" xmlns="http://www.w3.org/2000/svg">
<g clip-path="url(#clip0)">
<path d="M96.5 247C142.616 247 180 243.194 180 238.5C180 233.806 142.616 230 96.5 230C50.3842 230 13 233.806 13 238.5C13 243.194 50.3842 247 96.5 247Z" fill="#8D2F40"/>
<path d="M47.5461 239.17L50.0125 239L43.0101 147.572L40.5437 147.742L47.5461 239.17Z" fill="#8D2F40"/>
<path d="M36.8294 145.956C37.2546 145.701 37.6232 145.446 37.935 145.19C40.7417 142.724 39.6077 139.549 41.1953 139.521C42.7545 139.464 42.3009 141.874 44.2003 144.397C44.6256 144.964 45.0792 145.417 45.5611 145.729C57.0711 145.616 65.8596 146.438 65.8879 147.742C65.9163 149.188 55.0299 150.634 41.5638 151.002C28.0977 151.371 17.1263 150.52 17.0979 149.074C17.0412 147.77 25.5462 146.495 36.8294 145.956Z" fill="#CA566B"/>
<path d="M56.5493 148.345C64.2006 147.116 51.3342 146.779 47.5181 146.708C46.8615 146.696 46.4224 146.849 45.8253 147.122C44.9499 147.523 44.6645 148.846 45.6179 148.98C48.5004 149.383 50.9108 149.252 56.5493 148.345Z" fill="#EC6A81"/>
<path d="M61.23 131.067L58.7422 131.252L66.4738 235.202L68.9616 235.017L61.23 131.067Z" fill="#8D2F40"/>
<path fill-rule="evenodd" clip-rule="evenodd" d="M38 134.484C43.6945 134.328 52.0126 133.518 61.2207 132.123C78.0605 129.571 91.4983 126.056 91.2148 124.27C90.988 122.682 79.8182 122.994 65.4165 124.894C65.1791 124.77 64.8719 124.683 64.5469 124.591C63.9792 124.43 63.3575 124.255 62.9608 123.84C61.6122 122.464 61.0961 120.929 60.6982 119.745C60.2765 118.491 59.9877 117.632 58.9811 117.778C58.1135 117.916 58.0954 118.742 58.0695 119.927C58.0369 121.414 57.992 123.468 56.2408 125.44C56.0417 125.672 55.6549 125.882 55.2717 126.091C55 126.238 54.7301 126.385 54.5302 126.538C48.0107 127.655 42.2652 128.882 38 130.038V134.484Z" fill="#CA566B"/>
<path d="M80.643 126.076C89.7016 123.331 74.0739 125.036 69.4435 125.577C68.6468 125.67 68.1405 125.927 67.4627 126.356C66.469 126.985 66.3407 128.633 67.5166 128.638C71.0716 128.653 73.9674 128.099 80.643 126.076Z" fill="#EC6A81"/>
<path d="M101.16 152.32C101.16 148.785 104.026 145.92 107.56 145.92L163.24 145.92C166.775 145.92 169.64 148.785 169.64 152.32L169.64 234.24C169.64 235.654 168.494 236.8 167.08 236.8L107.56 236.8C104.026 236.8 101.16 233.935 101.16 230.4L101.16 152.32Z" fill="#9E2E42"/>
<path d="M108.84 157.44C108.84 155.673 110.273 154.24 112.04 154.24L144.04 154.24C145.807 154.24 147.24 155.673 147.24 157.44L147.24 223.36C147.24 225.128 145.807 226.56 144.04 226.56L112.04 226.56C110.273 226.56 108.84 225.128 108.84 223.36L108.84 157.44Z" fill="#8E2739"/>
<path d="M108.84 156.16C108.84 155.1 109.7 154.24 110.76 154.24C111.82 154.24 112.68 155.1 112.68 156.16L112.68 224.64C112.68 225.701 111.82 226.56 110.76 226.56C109.7 226.56 108.84 225.701 108.84 224.64L108.84 156.16Z" fill="#922639"/>
<ellipse cx="127.72" cy="176.96" rx="16.96" ry="16.96" transform="rotate(-180 127.72 176.96)" fill="#9E2E42"/>
<ellipse cx="127.72" cy="176.96" rx="8.64" ry="8.64" transform="rotate(-180 127.72 176.96)" fill="#98263B"/>
<ellipse cx="127.4" cy="209.28" rx="12.16" ry="12.16" transform="rotate(-180 127.4 209.28)" fill="#9E2E42"/>
<path d="M20.3765 28.4731L31.4188 16.4347C32.4259 15.3368 34.1571 15.3368 35.1642 16.4347L44.3338 26.4315C45.3409 27.5294 47.0721 27.5294 48.0792 26.4315L57.2488 16.4347C58.2559 15.3368 59.9871 15.3368 60.9942 16.4347L70.1638 26.4315C71.1709 27.5294 72.9021 27.5294 73.9092 26.4315L83.0788 16.4347C84.0859 15.3368 85.8171 15.3368 86.8242 16.4347L95.9938 26.4315C97.0009 27.5294 98.7321 27.5294 99.7392 26.4315L108.909 16.4347C109.916 15.3368 111.647 15.3368 112.654 16.4347L121.824 26.4315C122.831 27.5294 124.562 27.5294 125.569 26.4315L134.739 16.4347C135.746 15.3368 137.477 15.3368 138.484 16.4347L147.654 26.4315C148.661 27.5294 150.392 27.5294 151.399 26.4315L159.954 17.1052C160.961 16.0072 162.692 16.0072 163.699 17.1052L174.126 28.4731" stroke="#962B3E" stroke-width="2.54118" stroke-linecap="round"/>
<path d="M16.001 15.0332H176.001" stroke="#962B3E" stroke-width="2.54118" stroke-linecap="round"/>
<path d="M18 28.4731H172" stroke="#962B3E" stroke-width="2.54118" stroke-linecap="round"/>
<path d="M36.7942 17.7496C35.6883 17.1604 34.3612 17.1628 33.2575 17.7561L18.0857 25.9117C16.9821 26.505 16.248 27.6106 16.1294 28.858L15.2464 38.1477C15.1191 39.4865 15.719 40.7908 16.8183 41.5655L22.2803 45.4149C23.4405 46.2326 24.9632 46.3246 26.2135 45.6526L45.2395 35.4251C46.4898 34.753 47.253 33.4322 47.211 32.0134L47.0134 25.3341C46.9736 23.9899 46.2166 22.77 45.0297 22.1376L36.7942 17.7496Z" fill="#9F2E42"/>
<path d="M15.5606 40.0361C15.8307 40.6416 16.2601 41.1725 16.8209 41.5664L22.2815 45.4175C23.4452 46.2323 24.9686 46.3247 26.215 45.6547L45.2423 35.4266C46.493 34.7542 47.2562 33.4327 47.2142 32.0148L47.0144 25.3358C46.9952 24.6508 46.7924 23.9953 46.4375 23.4382C32.5917 27.3012 25.9847 31.114 15.5606 40.0361Z" fill="#962B3E"/>
<path d="M37.1666 43.2289C40.3836 41.4996 43.1452 39.6155 45.0093 37.9573C45.938 37.1312 46.668 36.3403 47.1156 35.6339C47.5353 34.9717 47.8295 34.1852 47.4681 33.5128C47.1066 32.8404 46.2884 32.652 45.5045 32.6368C44.6684 32.6205 43.606 32.793 42.4047 33.1119C39.9933 33.7521 36.8984 35.0161 33.6814 36.7454C30.4645 38.4747 27.7029 40.3588 25.8387 42.017C24.91 42.843 24.1801 43.634 23.7325 44.3404C23.3128 45.0026 23.0185 45.789 23.38 46.4614C23.7414 47.1338 24.5597 47.3222 25.3436 47.3375C26.1797 47.3538 27.2421 47.1813 28.4434 46.8624C30.8548 46.2222 33.9497 44.9581 37.1666 43.2289Z" fill="#FDFF9D" stroke="#CA566B" stroke-width="1.11489"/>
<path d="M154.619 17.7559C155.728 17.1647 157.06 17.1672 158.167 17.7625L173.39 25.9456C174.498 26.5409 175.234 27.6502 175.353 28.9018L176.239 38.2229C176.367 39.5662 175.765 40.875 174.662 41.6523L169.182 45.5147C168.017 46.3352 166.489 46.4275 165.235 45.7531L146.145 35.4911C144.89 34.8168 144.124 33.4915 144.167 32.0679L144.365 25.3661C144.405 24.0173 145.164 22.7933 146.355 22.1588L154.619 17.7559Z" fill="#9F2E42"/>
<path d="M175.925 40.1166C175.654 40.7242 175.223 41.2569 174.66 41.652L169.181 45.5161C168.014 46.3337 166.485 46.4265 165.235 45.7542L146.143 35.4915C144.888 34.8169 144.122 33.4909 144.165 32.0682L144.365 25.3667C144.384 24.6794 144.588 24.0217 144.944 23.4627C158.836 27.3387 165.466 31.1644 175.925 40.1166Z" fill="#962B3E"/>
<path d="M154.242 43.3224C151.014 41.5873 148.243 39.6968 146.373 38.033C145.441 37.2042 144.709 36.4105 144.259 35.7018C143.838 35.0373 143.543 34.2482 143.906 33.5736C144.268 32.8989 145.089 32.7098 145.876 32.6945C146.715 32.6782 147.781 32.8513 148.986 33.1713C151.406 33.8136 154.511 35.0819 157.739 36.817C160.967 38.5521 163.738 40.4426 165.608 42.1064C166.54 42.9352 167.272 43.7289 167.722 44.4376C168.143 45.1021 168.438 45.8912 168.075 46.5659C167.713 47.2405 166.891 47.4296 166.105 47.4449C165.266 47.4612 164.2 47.2881 162.995 46.9681C160.575 46.3258 157.47 45.0575 154.242 43.3224Z" fill="#FDFF9D" stroke="#CA566B" stroke-width="1.11865"/>
<path opacity="0.3" d="M40.4616 199.628L24.6406 46.0805L46.0806 34.5605L170.869 105.979C183.319 113.104 191 126.35 191 140.695V195.528C191 217.619 173.091 235.528 151 235.528H80.2509C59.7469 235.528 42.5631 220.024 40.4616 199.628Z" fill="url(#paint0_linear)"/>
<path opacity="0.3" d="M134.882 203.574L167.359 45.4393L145.279 33.2793L18.2566 110.321C6.30122 117.572 -1 130.539 -1 144.522V195.527C-1 217.618 16.9086 235.527 39 235.527H95.6996C114.689 235.527 131.061 222.175 134.882 203.574Z" fill="url(#paint1_linear)"/>
<path d="M15.2544 15.7224L16.8911 15.9268C18.6228 16.1432 20.1937 17.05 21.2471 18.4414L24.2408 22.3953" stroke="#9F2E42" stroke-width="4.31321" stroke-linecap="round"/>
<path d="M176.23 15.7224L174.593 15.9268C172.862 16.1432 171.291 17.05 170.237 18.4414L167.244 22.3953" stroke="#9F2E42" stroke-width="4.31321" stroke-linecap="round"/>
<g clip-path="url(#clip1)">
<path fill-rule="evenodd" clip-rule="evenodd" d="M118.181 101.299L82.5771 145.447C80.1912 148.406 78.8893 151.044 78.8893 154.844V156.161H72.4893V154.844C72.4893 149.582 74.2916 145.526 77.5953 141.43L113.199 97.2812L118.181 101.299Z" fill="#8A2442"/>
<path d="M119.374 103.133L81.8913 114.359C81.3834 114.513 80.957 114.862 80.7053 115.33C80.4536 115.797 80.3969 116.345 80.5476 116.854L80.8249 117.78C80.9788 118.288 81.3274 118.714 81.7946 118.966C82.2618 119.218 82.8097 119.275 83.3186 119.124L120.802 107.898C121.31 107.744 121.736 107.396 121.988 106.928C122.24 106.461 122.296 105.913 122.146 105.404L121.868 104.478C121.714 103.97 121.366 103.544 120.899 103.292C120.431 103.039 119.883 102.982 119.374 103.133Z" fill="#F6B11B"/>
<path d="M134.498 234.359C132.03 227.231 130.181 220.205 128.806 213.441" stroke="white" stroke-width="6.52213" stroke-miterlimit="10"/>
<path d="M78.4739 101.824L77.6787 102.062C77.0019 102.261 76.2738 102.183 75.6543 101.846C75.0347 101.509 74.5744 100.939 74.3744 100.263L74.3111 100.051C74.1119 99.3747 74.1895 98.6466 74.5269 98.0271C74.8642 97.4075 75.4336 96.9472 76.1101 96.7472L76.9038 96.5095L78.4739 101.824Z" fill="#F65539"/>
<path d="M118.514 90.07L118.646 90.0304C118.981 89.9315 119.294 89.7677 119.565 89.5482C119.837 89.3286 120.063 89.0577 120.23 88.7509C120.396 88.4441 120.501 88.1074 120.538 87.7601C120.575 87.4127 120.543 87.0615 120.444 86.7266L120.38 86.5152C120.281 86.1802 120.117 85.868 119.898 85.5963C119.678 85.3247 119.407 85.099 119.1 84.9321C118.793 84.7653 118.456 84.6605 118.109 84.6238C117.761 84.5871 117.41 84.6192 117.075 84.7182L116.943 84.7578C116.769 84.8099 116.622 84.9283 116.535 85.0875C116.447 85.2467 116.426 85.4339 116.475 85.6087L117.654 89.5986C117.679 89.6863 117.721 89.7681 117.778 89.8393C117.835 89.9106 117.906 89.9698 117.986 90.0136C118.066 90.0575 118.153 90.085 118.244 90.0947C118.335 90.1043 118.427 90.096 118.514 90.07Z" fill="#F65539"/>
<path d="M117.838 92.5792L118.103 92.4999C118.295 92.4433 118.474 92.3493 118.63 92.2234C118.785 92.0976 118.915 91.9422 119.01 91.7663C119.106 91.5904 119.166 91.3974 119.187 91.1982C119.208 90.9991 119.19 90.7978 119.133 90.6058L117.172 83.9654C117.115 83.7733 117.021 83.5943 116.896 83.4386C116.77 83.2829 116.614 83.1535 116.438 83.0578C116.263 82.9622 116.07 82.9021 115.87 82.8811C115.671 82.8601 115.47 82.8786 115.278 82.9354L115.013 83.0146C114.821 83.0713 114.642 83.1653 114.487 83.2911C114.331 83.417 114.201 83.5723 114.106 83.7483C114.01 83.9242 113.95 84.1172 113.929 84.3164C113.908 84.5155 113.927 84.7168 113.983 84.9088L115.946 91.5487C116.002 91.7407 116.096 91.9196 116.222 92.0752C116.348 92.2309 116.503 92.3602 116.678 92.4559C116.854 92.5516 117.047 92.6117 117.246 92.6329C117.445 92.654 117.646 92.6358 117.838 92.5792Z" fill="#FFB762"/>
<path d="M79.9546 103.768L79.6915 103.847C79.4995 103.904 79.2982 103.922 79.0991 103.901C78.8999 103.88 78.7069 103.82 78.531 103.724C78.3551 103.629 78.1997 103.499 78.0738 103.344C77.948 103.188 77.854 103.009 77.7974 102.817L75.8352 96.1768C75.7786 95.9849 75.7603 95.7837 75.7815 95.5847C75.8026 95.3857 75.8627 95.1928 75.9584 95.0171C76.0541 94.8413 76.1835 94.6862 76.3391 94.5604C76.4948 94.4347 76.6737 94.3408 76.8656 94.2842L77.1302 94.2049C77.3222 94.1481 77.5235 94.1296 77.7227 94.1506C77.9218 94.1716 78.1149 94.2317 78.2908 94.3273C78.4667 94.423 78.622 94.5524 78.7479 94.7081C78.8738 94.8638 78.9677 95.0429 79.0244 95.2349L80.9841 101.872C81.0412 102.064 81.0598 102.266 81.039 102.465C81.0181 102.664 80.9582 102.858 80.8625 103.034C80.7669 103.21 80.6375 103.365 80.4817 103.491C80.3259 103.617 80.1468 103.711 79.9546 103.768Z" fill="#FFB762"/>
<path d="M83.1734 120.699C62.297 142.316 87.8985 152.938 105.616 138" stroke="#8CC2CF" stroke-width="5.21739" stroke-miterlimit="10" stroke-linecap="round"/>
<path d="M85.5226 119.962C81.2019 122.439 76.3611 131.591 75.1524 135.464" stroke="white" stroke-width="9.13161" stroke-miterlimit="10"/>
<path d="M98.2509 160.025C98.6999 159.901 99.0815 159.605 99.3121 159.2C99.5426 158.796 99.6031 158.316 99.4803 157.867L98.7321 155.336C98.4588 154.423 97.4219 153.882 96.4752 154.162L95.5046 152.133L130.745 141.723L130.9 143.996C130.456 144.132 130.084 144.438 129.865 144.848C129.646 145.257 129.598 145.737 129.732 146.182L130.479 148.714C130.622 149.154 130.933 149.52 131.344 149.732C131.755 149.945 132.233 149.986 132.675 149.849L133.149 151.405L98.7458 161.567L98.2509 160.025Z" fill="#164664"/>
<path d="M98.0821 160.067L132.942 149.769C133.259 149.684 133.597 149.727 133.882 149.89C134.168 150.053 134.377 150.322 134.465 150.638C135.479 154.074 133.643 157.643 130.364 158.612L105.058 166.093C101.779 167.062 98.2975 165.063 97.2838 161.628C97.1838 161.315 97.2117 160.976 97.3612 160.683C97.5107 160.391 97.7699 160.169 98.0821 160.067Z" fill="#BEDCE4"/>
<path d="M89.6257 67.2744C99.8982 64.2408 110.716 70.1985 113.778 80.5868L131.941 142.071C132.002 142.271 132.023 142.481 132.003 142.689C131.982 142.898 131.921 143.1 131.822 143.284C131.723 143.469 131.589 143.632 131.427 143.764C131.265 143.897 131.079 143.996 130.878 144.056L96.7229 154.145C96.522 154.204 96.3114 154.222 96.1032 154.199C95.8951 154.176 95.6935 154.113 95.5102 154.011C95.3268 153.91 95.1652 153.774 95.0348 153.61C94.9044 153.446 94.8076 153.258 94.7502 153.057L76.5874 91.573C73.5167 81.1874 79.3537 70.3094 89.6257 67.2744Z" fill="#B8DEE5"/>
<path d="M105.36 100.987L105.488 101.431C106.008 103.228 104.983 105.118 103.21 105.631L101.583 106.101C99.8103 106.613 97.9348 105.562 97.4152 103.765L97.287 103.321" fill="white"/>
<path d="M105.36 100.987L105.488 101.431C106.008 103.228 104.983 105.118 103.21 105.631L101.583 106.101C99.8103 106.613 97.9348 105.562 97.4152 103.765L97.287 103.321" stroke="#8CC2CF" stroke-width="1.80881" stroke-miterlimit="10" stroke-linecap="round" stroke-linejoin="round"/>
<path d="M120.753 104.653L118.153 108.146C111.769 116.721 100.784 120.509 90.4717 117.692L85.8208 116.422L91.875 131.924L123.223 122.535L120.753 104.653Z" fill="white"/>
<path d="M120.753 104.653L118.153 108.146C111.769 116.721 100.784 120.509 90.4717 117.692L85.8208 116.422L93.9267 138.24L125.275 128.851L120.753 104.653Z" fill="white" stroke="#E9E6E6" stroke-width="1.99812"/>
<path d="M90.2715 124.665L93.3051 123.768C93.3823 123.749 93.4549 123.715 93.5185 123.667C93.582 123.62 93.6351 123.559 93.6746 123.49C93.7142 123.421 93.7392 123.345 93.7483 123.266C93.7574 123.187 93.7504 123.107 93.7276 123.031C93.7048 122.955 93.6667 122.884 93.6157 122.823C93.5647 122.762 93.5018 122.712 93.4309 122.677C93.36 122.641 93.2825 122.62 93.2032 122.615C93.1238 122.61 93.0443 122.621 92.9695 122.648L89.9413 123.546C89.8 123.597 89.6834 123.7 89.6157 123.833C89.548 123.967 89.5342 124.122 89.5772 124.266C89.6203 124.41 89.7169 124.531 89.8471 124.606C89.9773 124.681 90.1311 124.702 90.2769 124.667L90.2715 124.665Z" fill="#A2CED8"/>
<path d="M91.6601 129.357L94.6922 128.461C94.8335 128.41 94.95 128.308 95.0178 128.174C95.0855 128.04 95.0993 127.885 95.0562 127.741C95.0132 127.597 94.9166 127.476 94.7864 127.401C94.6562 127.326 94.5023 127.305 94.3565 127.34L91.3229 128.237C91.1816 128.288 91.065 128.39 90.9973 128.524C90.9295 128.658 90.9158 128.813 90.9588 128.957C91.0019 129.101 91.0985 129.222 91.2287 129.297C91.3589 129.372 91.5127 129.393 91.6585 129.358L91.6601 129.357Z" fill="#A2CED8"/>
<path d="M90.9655 127.01L93.9996 126.114C94.141 126.064 94.2575 125.961 94.3252 125.827C94.393 125.693 94.4068 125.538 94.3637 125.395C94.3206 125.251 94.2241 125.129 94.0939 125.054C93.9637 124.98 93.8098 124.958 93.664 124.994L90.6304 125.891C90.482 125.935 90.3573 126.037 90.2838 126.173C90.2103 126.309 90.1939 126.469 90.2384 126.618C90.2828 126.766 90.3844 126.891 90.5208 126.964C90.6572 127.038 90.8171 127.054 90.9655 127.01Z" fill="#A2CED8"/>
<path d="M89.5785 122.316L92.6106 121.42C92.7519 121.369 92.8684 121.267 92.9362 121.133C93.0039 120.999 93.0177 120.844 92.9746 120.7C92.9316 120.556 92.835 120.435 92.7048 120.36C92.5746 120.285 92.4207 120.264 92.2749 120.299L89.2428 121.196C89.1015 121.246 88.9849 121.349 88.9172 121.483C88.8495 121.617 88.8357 121.772 88.8788 121.915C88.9218 122.059 89.0184 122.181 89.1486 122.255C89.2788 122.33 89.4327 122.352 89.5785 122.316Z" fill="#A2CED8"/>
<path d="M104.159 64.9403L101.557 69.4592" stroke="#B8DEE5" stroke-width="2.60949" stroke-miterlimit="10"/>
<path d="M75.0125 73.4072L79.3835 75.4932" stroke="#B8DEE5" stroke-width="2.60949" stroke-miterlimit="10"/>
<path d="M93.9505 101.61L106.19 97.9953C107.061 97.7381 107.873 97.3118 108.579 96.7407C109.286 96.1697 109.873 95.4651 110.307 94.6672C110.741 93.8692 111.013 92.9936 111.109 92.0903C111.205 91.187 111.121 90.2738 110.864 89.4027L110.699 88.8537C110.442 87.9828 110.016 87.171 109.445 86.4648C108.873 85.7587 108.169 85.1719 107.371 84.738C106.573 84.3041 105.698 84.0317 104.794 83.9361C103.891 83.8406 102.978 83.9239 102.107 84.1813L89.8694 87.7952C88.1103 88.315 86.6296 89.5123 85.7531 91.1237C84.8766 92.735 84.676 94.6286 85.1955 96.3878L85.3599 96.9367C85.8796 98.6955 87.0766 100.176 88.6876 101.052C90.2986 101.928 92.1917 102.129 93.9505 101.61Z" fill="#36488B"/>
<path d="M105.744 91.4393C105.194 90.6891 104.176 90.3272 103.179 90.6083C102.182 90.8893 101.503 91.7294 101.425 92.6568" stroke="#56D8E3" stroke-width="1.96891" stroke-linecap="round"/>
<path d="M96.3075 94.5164C95.7567 93.7662 94.739 93.4044 93.742 93.6854C92.745 93.9665 92.0661 94.8065 91.9882 95.7339" stroke="#56D8E3" stroke-width="1.96891" stroke-linecap="round"/>
<path d="M104.786 73.2749C102.685 71.7879 100.271 70.8026 97.7302 70.3949C95.1891 69.9871 92.5883 70.1677 90.128 70.9228" stroke="#ECFBFF" stroke-width="1.95711" stroke-miterlimit="10" stroke-linecap="round"/>
<path d="M108.698 77.275C108.196 76.5913 107.644 75.9453 107.047 75.342" stroke="#ECFBFF" stroke-width="1.95711" stroke-miterlimit="10" stroke-linecap="round"/>
<path d="M106.822 65.6504C107.556 65.4306 108.208 64.9983 108.696 64.4079C109.184 63.8176 109.486 63.0958 109.564 62.3338C109.641 61.5719 109.492 60.8039 109.133 60.1271C108.774 59.4503 108.223 58.895 107.549 58.5314C106.875 58.1679 106.108 58.0123 105.346 58.0845C104.583 58.1567 103.859 58.4534 103.265 58.937C102.671 59.4206 102.234 60.0695 102.009 60.8016C101.784 61.5337 101.781 62.3161 102 63.0499C102.295 64.0341 102.968 64.8608 103.873 65.3485C104.777 65.8361 105.838 65.9447 106.822 65.6504Z" fill="#B8DEE5"/>
<path d="M106.321 64.0887C106.742 63.9626 107.116 63.7145 107.396 63.3757C107.676 63.037 107.849 62.6228 107.894 62.1856C107.939 61.7483 107.853 61.3077 107.647 60.9193C107.441 60.531 107.125 60.2124 106.738 60.0039C106.351 59.7953 105.911 59.7062 105.473 59.7477C105.036 59.7892 104.62 59.9596 104.28 60.2372C103.939 60.5148 103.688 60.8873 103.559 61.3074C103.43 61.7275 103.428 62.1765 103.555 62.5975C103.724 63.1621 104.11 63.6364 104.629 63.916C105.148 64.1957 105.756 64.2578 106.321 64.0887Z" fill="#F65539"/>
<path d="M73.5497 75.6152C74.2835 75.3957 74.9359 74.9636 75.4241 74.3733C75.9124 73.7831 76.2147 73.0614 76.2928 72.2994C76.3708 71.5374 76.2212 70.7693 75.8628 70.0924C75.5044 69.4154 74.9532 68.8599 74.2791 68.4962C73.605 68.1324 72.8381 67.9768 72.0755 68.0488C71.3129 68.1209 70.5888 68.4175 69.9948 68.9011C69.4008 69.3847 68.9635 70.0336 68.7382 70.7658C68.513 71.4979 68.5099 72.2804 68.7294 73.0143C69.0241 73.9981 69.6973 74.8248 70.6012 75.3125C71.505 75.8002 72.5655 75.9091 73.5497 75.6152Z" fill="#B8DEE5"/>
<path d="M73.044 74.055C73.4651 73.9289 73.8392 73.6808 74.1193 73.342C74.3993 73.0033 74.5726 72.5891 74.6172 72.1519C74.6618 71.7146 74.5758 71.274 74.3699 70.8856C74.1641 70.4973 73.8478 70.1787 73.4609 69.9702C73.074 69.7616 72.634 69.6725 72.1965 69.714C71.7589 69.7555 71.3435 69.9259 71.0028 70.2035C70.6621 70.4811 70.4113 70.8536 70.2823 71.2737C70.1532 71.6938 70.1516 72.1428 70.2777 72.5638C70.4468 73.1284 70.8332 73.6027 71.352 73.8823C71.8708 74.162 72.4795 74.2241 73.044 74.055Z" fill="#F65539"/>
<path d="M127.207 157.759C126.701 165.678 121.129 188.799 130.409 223.359" stroke="#56659C" stroke-width="13.0443" stroke-miterlimit="10"/>
<path d="M80.0975 202.217C77.6294 195.089 75.7801 188.064 74.4055 181.299" stroke="white" stroke-width="6.52213" stroke-miterlimit="10"/>
<path d="M72.2239 197.008C72.4488 195.298 74.128 194.178 75.7928 194.627C77.4191 195.065 78.313 196.81 77.7185 198.386L76.5255 201.548C76.2672 202.233 75.5471 202.626 74.8316 202.473L72.922 202.063C72.1732 201.903 71.6732 201.194 71.7731 200.435L72.2239 197.008Z" fill="#FF7759"/>
<path d="M76.5624 197.722C76.8013 196.903 77.5523 196.339 78.4056 196.339L82.4056 196.339C82.4056 196.339 84.9656 199.539 84.0056 204.019C82.0856 204.019 74.7256 204.019 74.7256 204.019L76.5624 197.722Z" fill="#F93535"/>
<path d="M62.8855 203.507C62.8855 199.549 66.0947 196.339 70.0535 196.339H72.3575C76.3163 196.339 79.5255 199.549 79.5255 203.507C79.5255 204.497 78.7232 205.299 77.7335 205.299H64.6775C63.6878 205.299 62.8855 204.497 62.8855 203.507Z" fill="#F5F5F5"/>
<rect x="62.2456" y="201.459" width="23.04" height="3.84" rx="1.28" fill="#E2E0E9"/>
<path d="M111.053 159.442C71.0415 159.442 67.3692 150.402 75.69 188.482" stroke="#56659C" stroke-width="13.0443" stroke-miterlimit="10"/>
<path d="M73.6063 161.281L74.1663 163.899H76.9663L74.1663 167.041L72.2063 165.732L69.1263 166.256L68.0063 163.899L69.9663 161.281L72.2063 162.852L73.6063 161.281Z" fill="#99C9D6"/>
<path d="M90.411 177.921C88.5635 182.577 77.4507 204.801 59.3692 204.801H51.0067C48.0112 204.801 45.604 207.266 45.4286 210.257C42.9683 252.191 12.3034 235.217 42.4096 238.401C73.7492 241.716 186.668 236.936 157.607 241.282C120.489 246.832 120.168 233.281 97.7686 235.201" stroke="#E17084" stroke-width="1.20531"/>
<rect x="92.2002" y="172.801" width="2.28636" height="6.00508" rx="1.14318" transform="rotate(30.7559 92.2002 172.801)" fill="#652424"/>
<path d="M95.9509 154.926L135.063 155.171L135.058 155.911C135.048 157.505 134.777 159.083 134.26 160.553C133.742 162.023 132.989 163.357 132.043 164.479C131.097 165.601 129.977 166.488 128.746 167.091C127.516 167.693 126.199 167.999 124.871 167.991L105.982 167.872C103.3 167.855 100.736 166.56 98.8542 164.271C96.9721 161.981 95.9261 158.886 95.9463 155.665L95.9509 154.926Z" fill="#56659C"/>
<path d="M93.9259 157.761C112.486 166.721 120.166 164.801 137.766 157.761C128.166 112.961 121.63 105.107 121.63 105.107L108.805 130.999L89.9475 119.635L81.504 115.213L78.6952 119.635C82.8697 120.31 86.2136 123.457 87.1407 127.583L87.6691 129.934C87.6691 129.934 91.3659 149.761 93.9259 157.761Z" fill="#323749"/>
<path d="M121.472 163.06C121.572 163.4 121.927 163.594 122.266 163.495C122.605 163.396 122.8 163.041 122.701 162.701L121.472 163.06ZM113.155 134.58L121.472 163.06L122.701 162.701L114.384 134.221L113.155 134.58Z" fill="#454C65"/>
<path d="M95.1541 155.898C95.8166 155.934 96.4726 156.049 97.1086 156.238C97.1371 156.248 97.1678 156.247 97.1957 156.236C97.2236 156.225 97.2468 156.205 97.2616 156.179C97.2764 156.153 97.2817 156.122 97.2768 156.093C97.2718 156.063 97.2569 156.037 97.2344 156.017C96.4113 155.275 95.7408 154.38 95.2606 153.382C94.5334 151.857 94.2539 150.156 94.4547 148.478C94.4707 148.34 94.518 148.208 94.593 148.091C94.668 147.973 94.7687 147.875 94.8875 147.803C95.0063 147.73 95.14 147.686 95.2784 147.673C95.4169 147.66 95.5565 147.679 95.6866 147.728C97.3497 148.349 98.7856 149.459 99.8049 150.912C100.388 151.753 100.812 152.693 101.056 153.686C101.063 153.715 101.079 153.74 101.103 153.758C101.126 153.777 101.155 153.786 101.185 153.785C101.214 153.785 101.243 153.774 101.265 153.755C101.288 153.735 101.303 153.709 101.308 153.68C101.499 152.726 101.853 151.812 102.353 150.978C103.23 149.533 104.498 148.366 106.011 147.614C106.136 147.551 106.272 147.518 106.411 147.517C106.55 147.515 106.688 147.545 106.813 147.605C106.939 147.664 107.049 147.752 107.136 147.86C107.223 147.968 107.284 148.095 107.315 148.231C107.708 149.959 107.568 151.766 106.915 153.414C106.731 153.871 106.507 154.311 106.245 154.728L95.7456 157.873L95.1541 155.898Z" fill="#F69F1C"/>
<path d="M122.996 109.969C145.231 137.809 147.703 112.035 141.125 98.8557" stroke="#8CC2CF" stroke-width="5.21738" stroke-miterlimit="10"/>
<path d="M122.996 109.969C145.231 137.809 147.703 112.035 141.125 98.8557" stroke="#A2CED8" stroke-width="5.21738" stroke-miterlimit="10" stroke-dasharray="6.52 3.91"/>
<path d="M124.791 111.663C125.882 115.208 128.882 118.209 133.77 121.023" stroke="white" stroke-width="9.13161" stroke-miterlimit="10"/>
<path d="M122.081 101.301L127.004 104.011C127.329 104.188 127.604 104.446 127.802 104.759C128.001 105.071 128.117 105.43 128.14 105.799C128.162 106.169 128.091 106.539 127.932 106.874C127.772 107.208 127.531 107.497 127.23 107.713L120.012 112.962C119.873 113.062 119.762 113.197 119.69 113.353C119.618 113.51 119.588 113.682 119.602 113.853C119.616 114.024 119.673 114.189 119.77 114.331C119.866 114.474 119.997 114.589 120.151 114.666L121.352 115.271C121.507 115.349 121.639 115.466 121.735 115.611C121.832 115.756 121.889 115.923 121.901 116.097C121.913 116.27 121.88 116.444 121.804 116.601C121.729 116.758 121.614 116.892 121.471 116.991L110.143 130.348C109.305 130.931 108.276 129.978 108.797 129.112L120.715 101.668C120.851 101.442 121.069 101.277 121.324 101.209C121.579 101.14 121.85 101.173 122.081 101.301Z" fill="#454C65"/>
<path fill-rule="evenodd" clip-rule="evenodd" d="M111.14 118.408C113.927 112.945 117.2 106.334 119.539 101.015C119.824 100.367 120.575 100.067 121.225 100.346L124.755 101.858C125.405 102.137 125.706 102.889 125.422 103.536C122.999 109.052 119.642 115.824 116.84 121.316C115.333 124.27 113.977 126.872 112.998 128.736C112.508 129.668 112.112 130.415 111.838 130.931C111.701 131.189 111.595 131.389 111.522 131.524L111.411 131.733C111.411 131.733 111.411 131.733 108.59 130.222L108.265 130.048C105.769 128.711 105.769 128.711 105.769 128.711L105.876 128.512C105.946 128.379 106.051 128.183 106.186 127.929C106.456 127.421 106.847 126.681 107.332 125.758C108.303 123.912 109.647 121.333 111.14 118.408Z" fill="#8A2442"/>
<rect x="114.782" y="110.381" width="7.68" height="3.84" transform="rotate(26.4933 114.782 110.381)" stroke="#323749" stroke-width="1.28" stroke-linejoin="round"/>
<path d="M81.3639 111.971L77.9609 116.443C77.7357 116.737 77.5888 117.084 77.534 117.45C77.4792 117.817 77.5183 118.191 77.6477 118.539C77.7771 118.886 77.9924 119.195 78.2737 119.436C78.5549 119.678 78.8928 119.844 79.2557 119.919L87.9809 121.793C88.1495 121.829 88.3061 121.907 88.4357 122.021C88.5652 122.134 88.6632 122.279 88.7203 122.442C88.7773 122.605 88.7915 122.779 88.7614 122.949C88.7312 123.118 88.6579 123.277 88.5483 123.41L87.6971 124.449C87.5862 124.584 87.5123 124.744 87.4826 124.916C87.4529 125.087 87.4684 125.264 87.5275 125.427C87.5867 125.591 87.6875 125.737 87.82 125.849C87.9525 125.962 88.1121 126.039 88.2831 126.071L113.041 135.116C114.043 135.309 114.598 134.021 113.771 133.441L82.7629 111.751C82.5463 111.6 82.2799 111.539 82.0192 111.58C81.7586 111.621 81.5238 111.761 81.3639 111.971Z" fill="#454C65"/>
<path d="M141.612 100.515C142.341 100.058 142.988 99.443 143.551 98.6737C144.723 97.0659 145.135 95.3404 144.774 93.5456C144.453 91.9489 143.56 90.4946 142.728 89.2829C142.607 89.1049 142.451 88.9525 142.271 88.8346C142.091 88.7167 141.889 88.6356 141.677 88.5958C141.466 88.556 141.248 88.5584 141.038 88.6029C140.827 88.6474 140.627 88.733 140.45 88.8549C140.272 88.9768 140.12 89.1325 140.003 89.3132C139.886 89.4939 139.805 89.696 139.767 89.9078C139.728 90.1196 139.731 90.3371 139.776 90.5477C139.821 90.7583 139.908 90.9579 140.03 91.1351C140.675 92.0742 141.361 93.1716 141.566 94.19C141.746 95.0847 141.543 95.8725 140.907 96.7443C139.731 98.3565 138.256 98.6033 135.061 97.7226C134.854 97.6655 134.637 97.6498 134.424 97.6763C134.211 97.7028 134.005 97.7711 133.818 97.8772C133.631 97.9834 133.467 98.1253 133.335 98.2949C133.203 98.4645 133.106 98.6584 133.049 98.8656C132.992 99.0728 132.976 99.2893 133.003 99.5025C133.029 99.7158 133.097 99.9218 133.204 100.109C133.31 100.296 133.452 100.46 133.621 100.592C133.791 100.724 133.985 100.821 134.192 100.878C135.618 101.27 137.302 101.645 138.978 101.436C139.946 101.315 140.826 101.007 141.612 100.515Z" fill="#8CC2CF"/>
<path d="M139.619 86.9297L139.601 84.9559C139.592 83.9335 140.075 82.9689 140.899 82.3641L154.44 72.429C156.43 70.9685 159.264 72.0584 159.764 74.4764C160.228 76.728 158.364 78.7791 156.078 78.5305L155.556 78.4737C154.934 78.4061 154.338 78.7432 154.076 79.3114L150.949 86.0828C150.554 86.9387 149.848 87.6119 148.974 87.9655L143.932 90.0056L109.174 139.876L103.784 136.031L139.619 86.9297Z" fill="#F89F4D"/>
<path d="M105.446 117.691C100.337 127.368 107.461 130.304 110.953 126.666L111.606 136.241C114.178 142.494 118.412 141.623 121.332 138.952C122.721 137.681 125.343 137.842 125.219 139.72C124.916 144.274 120.971 147.626 117.195 149.764C114.627 151.218 112.599 153.59 112.145 156.506L110.801 165.147C109.257 175.079 97.7935 179.905 89.6107 174.068L78.1184 165.871C70.2414 160.253 70.6528 148.417 78.9009 143.36L87.302 138.208C90.9064 135.997 93.1267 132.187 94.0746 128.067C96.2526 118.599 100.518 115.357 103.959 114.773C105.524 114.508 106.187 116.286 105.446 117.691Z" fill="#F93535"/>
<path d="M105.446 117.691C100.337 127.368 107.461 130.304 110.953 126.666L111.606 136.241C114.178 142.494 118.412 141.623 121.332 138.952C122.721 137.681 125.343 137.842 125.219 139.72C124.916 144.274 120.971 147.626 117.195 149.764C114.627 151.218 112.599 153.59 112.145 156.506L110.801 165.147C109.257 175.079 97.7935 179.905 89.6107 174.068L78.1184 165.871C70.2414 160.253 70.6528 148.417 78.9009 143.36L87.302 138.208C90.9064 135.997 93.1267 132.187 94.0746 128.067C96.2526 118.599 100.518 115.357 103.959 114.773C105.524 114.508 106.187 116.286 105.446 117.691Z" fill="#F93535"/>
<path d="M105.446 117.691C100.337 127.368 107.462 130.304 110.953 126.667L111.606 136.241C114.178 142.494 118.412 141.623 121.332 138.952C122.721 137.681 125.343 137.842 125.219 139.72C124.916 144.274 120.971 147.626 117.195 149.764C114.627 151.218 112.599 153.59 112.145 156.506L110.802 165.147C109.257 175.079 97.7936 179.905 89.6107 174.068L78.1185 165.871C70.2415 160.253 70.6529 148.418 78.901 143.36L87.3021 138.208C90.9065 135.998 93.1267 132.187 94.0746 128.067C96.2527 118.599 100.518 115.357 103.959 114.773C105.525 114.508 106.187 116.287 105.446 117.691Z" fill="#F93535"/>
<path fill-rule="evenodd" clip-rule="evenodd" d="M108.993 136.851L108.576 130.744C106.677 131.035 104.696 130.549 103.157 129.098C100.595 126.682 100.379 122.743 102.234 118.292C100.335 119.571 98.0866 122.441 96.6557 128.661C95.5948 133.273 93.0529 137.788 88.6867 140.466L80.2855 145.618C73.6547 149.684 73.324 159.198 79.6565 163.715L91.1487 171.912C97.7271 176.604 106.943 172.724 108.184 164.74L109.528 156.099C110.137 152.18 112.818 149.199 115.89 147.459C118.614 145.916 120.86 144.015 121.924 141.873C120.304 143.022 118.245 143.866 115.992 143.569C112.943 143.167 110.638 140.849 109.157 137.249L108.993 136.851ZM108.395 128.092C104.992 128.757 101.419 125.317 105.446 117.691C106.187 116.287 105.525 114.508 103.959 114.773C100.518 115.357 96.2527 118.599 94.0746 128.067C93.1267 132.187 90.9065 135.998 87.3021 138.208L78.901 143.36C70.6529 148.418 70.2415 160.253 78.1185 165.871L89.6107 174.068C97.7936 179.905 109.257 175.079 110.802 165.147L112.145 156.506C112.599 153.59 114.627 151.218 117.195 149.764C120.971 147.626 124.916 144.274 125.219 139.72C125.343 137.842 122.721 137.681 121.332 138.952C118.412 141.623 114.178 142.494 111.606 136.241L110.953 126.667C110.213 127.437 109.31 127.913 108.395 128.092Z" fill="#F93535"/>
<path d="M111.229 156.212L109.856 165.449C109.283 169.309 106.576 172.513 102.865 173.722C101.863 174.049 100.851 173.251 100.934 172.2L101.109 169.996C101.339 167.102 100.033 164.3 97.6697 162.614L87.6535 155.47C85.1039 153.651 84.2098 150.276 85.525 147.434C86.2845 145.792 87.5062 144.408 89.0405 143.45L94.1114 140.286C96.7332 138.649 98.7638 136.218 99.9074 133.347L101.638 129.003C102.199 127.595 104.096 127.366 104.976 128.601L110.747 136.709C112.104 139.943 114.015 141.622 116.228 141.914C118.391 142.199 120.463 141.099 122.026 139.669C122.497 139.238 123.2 139.05 123.722 139.124C123.972 139.16 124.104 139.244 124.16 139.302C124.196 139.339 124.256 139.417 124.242 139.634C123.973 143.681 120.386 146.822 116.611 148.937C113.914 150.448 111.706 152.997 111.229 156.212Z" fill="white" stroke="#F93535" stroke-width="1.99812"/>
<path d="M139.159 87.5652C139.416 87.2135 139.908 87.1339 140.262 87.3868L143.295 89.55C143.65 89.8028 143.735 90.2939 143.486 90.6511L109.637 139.217C109.384 139.58 108.884 139.667 108.523 139.41L104.441 136.498C104.081 136.241 104 135.74 104.26 135.383L139.159 87.5652Z" fill="#965F34"/>
<rect x="106.019" y="132.906" width="6.62081" height="0.529706" rx="0.264853" transform="rotate(35.4992 106.019 132.906)" fill="#C68A5C"/>
<rect x="104.733" y="134.591" width="6.76304" height="0.529706" rx="0.264853" transform="rotate(35.4992 104.733 134.591)" fill="#C68A5C"/>
<rect x="107.188" y="131.136" width="6.77573" height="0.529706" rx="0.264853" transform="rotate(35.4992 107.188 131.136)" fill="#C68A5C"/>
<rect x="108.465" y="129.446" width="6.65606" height="0.529706" rx="0.264853" transform="rotate(35.4992 108.465 129.446)" fill="#C68A5C"/>
<rect x="109.828" y="127.493" width="6.70545" height="0.529706" rx="0.264853" transform="rotate(35.4992 109.828 127.493)" fill="#C68A5C"/>
<rect x="111.428" y="125.38" width="6.54717" height="0.529706" rx="0.264853" transform="rotate(35.4992 111.428 125.38)" fill="#C68A5C"/>
<rect x="112.985" y="122.911" width="6.66646" height="0.529706" rx="0.264853" transform="rotate(35.4992 112.985 122.911)" fill="#C68A5C"/>
<rect x="114.844" y="120.657" width="6.47981" height="0.529706" rx="0.264853" transform="rotate(35.4992 114.844 120.657)" fill="#C68A5C"/>
<rect x="116.561" y="118.305" width="6.41288" height="0.529706" rx="0.264853" transform="rotate(35.4992 116.561 118.305)" fill="#C68A5C"/>
<rect x="118.585" y="115.517" width="6.35647" height="0.529706" rx="0.264853" transform="rotate(35.4992 118.585 115.517)" fill="#C68A5C"/>
<rect x="120.81" y="112.875" width="5.80712" height="0.529706" rx="0.264853" transform="rotate(35.4992 120.81 112.875)" fill="#C68A5C"/>
<rect x="122.816" y="110.077" width="5.78443" height="0.529706" rx="0.264853" transform="rotate(35.4992 122.816 110.077)" fill="#C68A5C"/>
<rect x="125.136" y="106.854" width="5.75341" height="0.529706" rx="0.264853" transform="rotate(35.4992 125.136 106.854)" fill="#C68A5C"/>
<rect x="127.465" y="103.634" width="5.69861" height="0.529706" rx="0.264853" transform="rotate(35.4992 127.465 103.634)" fill="#C68A5C"/>
<rect x="129.767" y="100.397" width="5.70955" height="0.529706" rx="0.264853" transform="rotate(35.4992 129.767 100.397)" fill="#C68A5C"/>
<rect x="132.028" y="97.1294" width="5.82676" height="0.529706" rx="0.264853" transform="rotate(35.4992 132.028 97.1294)" fill="#C68A5C"/>
<rect x="134.333" y="93.894" width="5.82676" height="0.529706" rx="0.264853" transform="rotate(35.4992 134.333 93.894)" fill="#C68A5C"/>
<rect x="136.641" y="90.6602" width="5.82676" height="0.529706" rx="0.264853" transform="rotate(35.4992 136.641 90.6602)" fill="#C68A5C"/>
<rect x="138.948" y="87.4248" width="5.82676" height="0.529706" rx="0.264853" transform="rotate(35.4992 138.948 87.4248)" fill="#C68A5C"/>
<rect x="90.0034" y="152.389" width="10.0644" height="6.35647" rx="0.794558" transform="rotate(35.4992 90.0034 152.389)" fill="#323749"/>
<rect opacity="0.5" x="101.819" y="136.741" width="9.00499" height="2.38368" rx="1.19184" transform="rotate(35.4992 101.819 136.741)" fill="#C4C4C4"/>
<rect opacity="0.5" x="97.8188" y="142.347" width="9.00499" height="2.38368" rx="1.19184" transform="rotate(35.4992 97.8188 142.347)" fill="#C4C4C4"/>
<rect opacity="0.5" x="93.8188" y="147.952" width="9.00499" height="2.38368" rx="1.19184" transform="rotate(35.4992 93.8188 147.952)" fill="#C4C4C4"/>
<circle opacity="0.5" cx="102.725" cy="159.185" r="1.58912" transform="rotate(35.4992 102.725 159.185)" fill="#C4C4C4"/>
<circle opacity="0.5" cx="104.482" cy="164.018" r="1.58912" transform="rotate(35.4992 104.482 164.018)" fill="#C4C4C4"/>
<circle opacity="0.5" cx="104.608" cy="169.315" r="1.58912" transform="rotate(35.4992 104.608 169.315)" fill="#C4C4C4"/>
<path d="M142.007 83.5889C122.607 110.787 108.731 130.241 89.3308 157.44" stroke="#C4C4C4" stroke-width="0.33302" stroke-linecap="round"/>
<path d="M144.406 82.0459C125.007 109.244 109.593 130.854 90.1927 158.053" stroke="#C4C4C4" stroke-width="0.33302" stroke-linecap="round"/>
<path d="M147.191 79.9673C127.791 107.166 110.455 131.471 91.0549 158.67" stroke="#C4C4C4" stroke-width="0.33302" stroke-linecap="round"/>
<path d="M149.591 78.4272C130.191 105.626 111.317 132.087 91.9171 159.286" stroke="#C4C4C4" stroke-width="0.33302" stroke-linecap="round"/>
<path d="M152.222 76.5625C132.822 103.761 112.179 132.702 92.779 159.901" stroke="#C4C4C4" stroke-width="0.33302" stroke-linecap="round"/>
<path d="M154.776 74.8042C135.376 102.003 113.041 133.316 93.6412 160.514" stroke="#C4C4C4" stroke-width="0.33302" stroke-linecap="round"/>
<rect x="154.954" y="73.0825" width="1.70275" height="1.83673" rx="0.851374" transform="rotate(46.9646 154.954 73.0825)" fill="#E5E5E5"/>
<rect x="152.225" y="74.7505" width="1.70275" height="1.83673" rx="0.851374" transform="rotate(46.9646 152.225 74.7505)" fill="#E5E5E5"/>
<rect x="149.711" y="76.5703" width="1.70275" height="1.83673" rx="0.851374" transform="rotate(46.9646 149.711 76.5703)" fill="#E5E5E5"/>
<rect x="147.2" y="78.3887" width="1.70275" height="1.83673" rx="0.851374" transform="rotate(46.9646 147.2 78.3887)" fill="#E5E5E5"/>
<rect x="144.692" y="80.2075" width="1.70275" height="1.83673" rx="0.851374" transform="rotate(46.9646 144.692 80.2075)" fill="#E5E5E5"/>
<rect x="142.182" y="82.0244" width="1.70275" height="1.83673" rx="0.851374" transform="rotate(46.9646 142.182 82.0244)" fill="#E5E5E5"/>
<path d="M103.383 140.371C87.517 144.9 80.4537 147.865 75.7268 137.838" stroke="#8CC2CF" stroke-width="5.21739" stroke-miterlimit="10"/>
<path d="M103.383 140.371C87.517 144.9 80.4537 147.865 75.7268 137.838" stroke="#A2CED8" stroke-width="5.21739" stroke-miterlimit="10" stroke-dasharray="6.52 3.91"/>
<path d="M143.566 98.7026C143.444 98.8712 143.291 99.0147 143.115 99.1254L141.406 95.9281C141.647 95.3633 141.698 94.8081 141.576 94.2041C141.37 93.1827 140.683 92.0813 140.037 91.1388C139.914 90.961 139.828 90.7607 139.782 90.5495C139.737 90.3383 139.733 90.1202 139.772 89.9079C139.811 89.6955 139.891 89.493 140.008 89.312C140.124 89.131 140.276 88.9751 140.453 88.8531C140.63 88.7311 140.83 88.6456 141.04 88.6013C141.251 88.557 141.468 88.5549 141.68 88.595C141.892 88.6352 142.093 88.7169 142.274 88.8353C142.454 88.9538 142.609 89.1068 142.731 89.2855C143.564 90.5016 144.459 91.9611 144.782 93.5625C145.145 95.3626 144.736 97.0921 143.566 98.7026Z" fill="#8CC2CF"/>
<path d="M111.199 143.838C101.015 145.081 100.178 136.136 108.667 134.502" stroke="#8CC2CF" stroke-width="3.34565" stroke-linecap="round"/>
<path d="M125.6 190.08L126.16 192.698L128.96 192.698L126.16 195.84L124.2 194.531L121.12 195.055L120 192.698L121.96 190.08L124.2 191.651L125.6 190.08Z" fill="#99C9D6"/>
<path d="M126.978 229.15C127.203 227.44 128.882 226.32 130.547 226.769C132.174 227.207 133.067 228.952 132.473 230.528L131.28 233.69C131.022 234.375 130.301 234.768 129.586 234.615L127.676 234.206C126.928 234.045 126.428 233.336 126.527 232.577L126.978 229.15Z" fill="#FF7759"/>
<path d="M131.317 229.864C131.556 229.045 132.307 228.481 133.16 228.481L137.16 228.481C137.16 228.481 139.72 231.681 138.76 236.161C136.84 236.161 129.48 236.161 129.48 236.161L131.317 229.864Z" fill="#F93535"/>
<path d="M117.64 235.648C117.64 231.689 120.849 228.48 124.808 228.48L127.112 228.48C131.071 228.48 134.28 231.689 134.28 235.648C134.28 236.638 133.478 237.44 132.488 237.44L119.432 237.44C118.442 237.44 117.64 236.638 117.64 235.648Z" fill="#F5F5F5"/>
<rect x="117" y="233.602" width="23.04" height="3.84" rx="1.28" fill="#E2E0E9"/>
<path d="M122.178 153.034L124.031 149.34C124.11 149.181 124.252 149.063 124.423 149.013L129.955 147.39C130.307 147.287 130.674 147.5 130.758 147.857L131.983 153.049C132.06 153.376 131.871 153.707 131.55 153.807L126.284 155.448C126.135 155.494 125.973 155.484 125.83 155.42L122.486 153.904C122.155 153.754 122.015 153.359 122.178 153.034Z" fill="#454C65"/>
<path d="M127.882 151.565C128.15 152.562 127.81 153.519 127.125 153.702C126.44 153.886 125.668 153.227 125.401 152.23C125.134 151.233 125.473 150.276 126.158 150.092C126.843 149.909 127.615 150.568 127.882 151.565Z" fill="#9998BC"/>
</g>
<path d="M91.8055 207.221C90.975 206.102 89.6633 205.441 88.2693 205.441H45.1958C42.7642 205.441 40.793 207.413 40.793 209.844V214.44V238.159C40.793 240.59 42.7642 242.561 45.1958 242.561H92.7576C95.1892 242.561 97.1604 240.59 97.1604 238.159V215.895C97.1604 214.95 96.8566 214.031 96.2937 213.272L91.8055 207.221Z" fill="#523F4C"/>
<path d="M106.802 207.859C106.195 206.396 104.766 205.441 103.181 205.441H51.7098C50.4392 205.441 49.5768 206.733 50.0638 207.907L52.4755 213.719C52.6732 214.195 52.7749 214.706 52.7749 215.221V238.641C52.7749 240.806 54.5303 242.561 56.6956 242.561H105.612C107.777 242.561 109.533 240.806 109.533 238.641V215.221C109.533 214.706 109.431 214.195 109.233 213.719L106.802 207.859Z" fill="#523F4C"/>
<path d="M100.262 211.788L98.9162 209.096C98.5506 208.365 99.0823 207.504 99.9 207.504H101.71C102.543 207.504 103.305 207.975 103.678 208.72L105.023 211.412C105.389 212.143 104.857 213.004 104.04 213.004H102.229C101.396 213.004 100.635 212.533 100.262 211.788Z" fill="#302126"/>
<path d="M100.234 208.192H101.285L103.004 211.286L101.285 211.629L99.8651 208.789C99.728 208.515 99.9274 208.192 100.234 208.192Z" fill="#704855"/>
<path d="M101.152 211.489C100.679 210.556 100.496 209.816 100.651 208.817C100.709 208.446 101.045 208.192 101.421 208.192H102.775C103.227 208.192 103.549 208.621 103.491 209.069C103.355 210.123 103.592 210.9 104.207 211.879C104.325 212.067 104.194 212.317 103.972 212.317H102.555C101.969 212.317 101.416 212.011 101.152 211.489Z" fill="#D9D9D9"/>
<rect width="45.44" height="24.96" rx="2.74963" transform="matrix(-1 0 0 1 106.523 215.042)" fill="#302126"/>
<rect x="74.4163" y="232.249" width="1.54141" height="2.74742" fill="#24171B"/>
<rect x="62.084" y="232.249" width="1.54141" height="2.74742" fill="#24171B"/>
<rect x="80.5793" y="232.249" width="1.54141" height="2.74742" fill="#24171B"/>
<rect x="68.2532" y="232.249" width="1.54141" height="2.74742" fill="#24171B"/>
<rect x="86.7485" y="232.249" width="1.54141" height="2.74742" fill="#24171B"/>
<rect x="77.4963" y="232.249" width="1.54141" height="2.74742" fill="#24171B"/>
<rect x="65.167" y="232.249" width="1.54141" height="2.74742" fill="#24171B"/>
<rect x="83.6655" y="232.249" width="1.54141" height="2.74742" fill="#24171B"/>
<rect x="71.3333" y="232.249" width="1.54141" height="2.74742" fill="#24171B"/>
<rect x="89.8286" y="232.249" width="1.54141" height="2.74742" fill="#24171B"/>
<rect x="75.9546" y="235" width="1.54141" height="2.74742" fill="#24171B"/>
<rect x="63.6255" y="235" width="1.54141" height="2.74742" fill="#24171B"/>
<rect x="82.124" y="235" width="1.54141" height="2.74742" fill="#24171B"/>
<rect x="69.7854" y="235" width="1.54141" height="2.74742" fill="#24171B"/>
<rect x="88.2871" y="235" width="1.54141" height="2.74742" fill="#24171B"/>
<rect x="60.5393" y="235" width="1.54141" height="2.74742" fill="#24171B"/>
<rect x="79.0408" y="235" width="1.54141" height="2.74742" fill="#24171B"/>
<rect x="66.7056" y="235" width="1.54141" height="2.74742" fill="#24171B"/>
<rect x="85.2009" y="235" width="1.54141" height="2.74742" fill="#24171B"/>
<rect x="72.8748" y="235" width="1.54141" height="2.74742" fill="#24171B"/>
<rect x="91.373" y="235" width="1.54141" height="2.74742" fill="#24171B"/>
<rect x="92.9067" y="232.249" width="1.54141" height="2.74742" fill="#24171B"/>
<rect x="99.073" y="232.249" width="1.54141" height="2.74742" fill="#24171B"/>
<rect x="105.242" y="232.249" width="1.54141" height="2.74742" fill="#24171B"/>
<rect x="95.9958" y="232.249" width="1.54141" height="2.74742" fill="#24171B"/>
<rect x="102.156" y="232.249" width="1.54141" height="2.74742" fill="#24171B"/>
<rect x="94.4453" y="235" width="1.54141" height="2.74742" fill="#24171B"/>
<rect x="100.617" y="235" width="1.54141" height="2.74742" fill="#24171B"/>
<rect x="97.5283" y="235" width="1.54141" height="2.74742" fill="#24171B"/>
<rect x="103.698" y="235" width="1.54141" height="2.74742" fill="#24171B"/>
<rect x="74.4163" y="224.689" width="1.54141" height="2.74742" fill="#24171B"/>
<rect x="62.084" y="224.689" width="1.54141" height="2.74742" fill="#24171B"/>
<rect x="80.5793" y="224.689" width="1.54141" height="2.74742" fill="#24171B"/>
<rect x="68.2532" y="224.689" width="1.54141" height="2.74742" fill="#24171B"/>
<rect x="86.7485" y="224.689" width="1.54141" height="2.74742" fill="#24171B"/>
<rect x="77.4963" y="224.689" width="1.54141" height="2.74742" fill="#24171B"/>
<rect x="65.167" y="224.689" width="1.54141" height="2.74742" fill="#24171B"/>
<rect x="83.6655" y="224.689" width="1.54141" height="2.74742" fill="#24171B"/>
<rect x="71.3333" y="224.689" width="1.54141" height="2.74742" fill="#24171B"/>
<rect x="89.8286" y="224.689" width="1.54141" height="2.74742" fill="#24171B"/>
<rect x="75.9546" y="227.44" width="1.54141" height="2.74742" fill="#24171B"/>
<rect x="63.6255" y="227.44" width="1.54141" height="2.74742" fill="#24171B"/>
<rect x="82.124" y="227.44" width="1.54141" height="2.74742" fill="#24171B"/>
<rect x="69.7854" y="227.44" width="1.54141" height="2.74742" fill="#24171B"/>
<rect x="88.2871" y="227.44" width="1.54141" height="2.74742" fill="#24171B"/>
<rect x="60.5393" y="227.44" width="1.54141" height="2.74742" fill="#24171B"/>
<rect x="79.0408" y="227.44" width="1.54141" height="2.74742" fill="#24171B"/>
<rect x="66.7056" y="227.44" width="1.54141" height="2.74742" fill="#24171B"/>
<rect x="85.2009" y="227.44" width="1.54141" height="2.74742" fill="#24171B"/>
<rect x="72.8748" y="227.44" width="1.54141" height="2.74742" fill="#24171B"/>
<rect x="91.373" y="227.44" width="1.54141" height="2.74742" fill="#24171B"/>
<rect x="92.9067" y="224.689" width="1.54141" height="2.74742" fill="#24171B"/>
<rect x="99.073" y="224.689" width="1.54141" height="2.74742" fill="#24171B"/>
<rect x="105.242" y="224.689" width="1.54141" height="2.74742" fill="#24171B"/>
<rect x="95.9958" y="224.689" width="1.54141" height="2.74742" fill="#24171B"/>
<rect x="102.156" y="224.689" width="1.54141" height="2.74742" fill="#24171B"/>
<rect x="94.4453" y="227.44" width="1.54141" height="2.74742" fill="#24171B"/>
<rect x="100.617" y="227.44" width="1.54141" height="2.74742" fill="#24171B"/>
<rect x="97.5283" y="227.44" width="1.54141" height="2.74742" fill="#24171B"/>
<rect x="103.698" y="227.44" width="1.54141" height="2.74742" fill="#24171B"/>
<rect x="74.4163" y="217.127" width="1.54141" height="2.74742" fill="#24171B"/>
<rect x="62.084" y="217.127" width="1.54141" height="2.74742" fill="#24171B"/>
<rect x="80.5793" y="217.127" width="1.54141" height="2.74742" fill="#24171B"/>
<rect x="68.2532" y="217.127" width="1.54141" height="2.74742" fill="#24171B"/>
<rect x="86.7485" y="217.127" width="1.54141" height="2.74742" fill="#24171B"/>
<rect x="77.4963" y="217.127" width="1.54141" height="2.74742" fill="#24171B"/>
<rect x="65.167" y="217.127" width="1.54141" height="2.74742" fill="#24171B"/>
<rect x="83.6655" y="217.127" width="1.54141" height="2.74742" fill="#24171B"/>
<rect x="71.3333" y="217.127" width="1.54141" height="2.74742" fill="#24171B"/>
<rect x="89.8286" y="217.127" width="1.54141" height="2.74742" fill="#24171B"/>
<rect x="75.9546" y="219.878" width="1.54141" height="2.74742" fill="#24171B"/>
<rect x="63.6255" y="219.878" width="1.54141" height="2.74742" fill="#24171B"/>
<rect x="82.124" y="219.878" width="1.54141" height="2.74742" fill="#24171B"/>
<rect x="69.7854" y="219.878" width="1.54141" height="2.74742" fill="#24171B"/>
<rect x="88.2871" y="219.878" width="1.54141" height="2.74742" fill="#24171B"/>
<rect x="60.5393" y="219.878" width="1.54141" height="2.74742" fill="#24171B"/>
<rect x="79.0408" y="219.878" width="1.54141" height="2.74742" fill="#24171B"/>
<rect x="66.7056" y="219.878" width="1.54141" height="2.74742" fill="#24171B"/>
<rect x="85.2009" y="219.878" width="1.54141" height="2.74742" fill="#24171B"/>
<rect x="72.8748" y="219.878" width="1.54141" height="2.74742" fill="#24171B"/>
<rect x="91.373" y="219.878" width="1.54141" height="2.74742" fill="#24171B"/>
<rect x="92.9067" y="217.127" width="1.54141" height="2.74742" fill="#24171B"/>
<rect x="99.073" y="217.127" width="1.54141" height="2.74742" fill="#24171B"/>
<path d="M105.242 217.127H106.096C106.476 217.127 106.784 217.435 106.784 217.814V219.874H105.242V217.127Z" fill="#24171B"/>
<rect x="95.9958" y="217.127" width="1.54141" height="2.74742" fill="#24171B"/>
<rect x="102.156" y="217.127" width="1.54141" height="2.74742" fill="#24171B"/>
<rect x="94.4453" y="219.878" width="1.54141" height="2.74742" fill="#24171B"/>
<rect x="100.617" y="219.878" width="1.54141" height="2.74742" fill="#24171B"/>
<rect x="97.5283" y="219.878" width="1.54141" height="2.74742" fill="#24171B"/>
<rect x="103.698" y="219.878" width="1.54141" height="2.74742" fill="#24171B"/>
<rect x="-0.343704" y="0.343704" width="45.3926" height="24.2726" rx="2.40593" transform="matrix(-1 0 0 1 106.476 215.042)" stroke="#7C6A77" stroke-width="0.687407"/>
<rect x="-0.687407" y="0.687407" width="44.7052" height="23.5852" rx="2.06222" transform="matrix(-1 0 0 1 105.149 215.042)" stroke="#7C6A77" stroke-width="1.37481"/>
<rect x="89.8359" y="208.162" width="7.32238" height="4.18422" rx="2.09211" fill="#302126"/>
<rect x="81.4666" y="208.162" width="7.32238" height="4.18422" rx="2.09211" fill="#302126"/>
<rect x="67.2205" y="208.192" width="4.12444" height="4.12444" rx="2.06222" fill="#302126"/>
<rect x="61.7219" y="208.192" width="4.12444" height="4.12444" rx="2.06222" fill="#302126"/>
<rect x="62.4082" y="208.878" width="2.74963" height="2.74963" rx="1.37481" fill="black"/>
<rect x="94.0205" y="209.206" width="2.09211" height="2.09211" rx="1.04605" fill="#473239"/>
<rect x="85.6514" y="209.206" width="2.09211" height="2.09211" rx="1.04605" fill="#473239"/>
<path d="M102.263 208.986C102.197 209.252 102.167 209.395 102.263 209.66" stroke="#704855" stroke-width="0.412444" stroke-linecap="round"/>
</g>
<defs>
<linearGradient id="paint0_linear" x1="31.5" y1="35" x2="133" y2="193.5" gradientUnits="userSpaceOnUse">
<stop stop-color="#FDFF9D"/>
<stop offset="1" stop-color="#FDFF9D" stop-opacity="0"/>
</linearGradient>
<linearGradient id="paint1_linear" x1="167" y1="24.5" x2="48.5" y2="195" gradientUnits="userSpaceOnUse">
<stop stop-color="#FDFF9D"/>
<stop offset="1" stop-color="#FDFF9D" stop-opacity="0"/>
</linearGradient>
<clipPath id="clip0">
<rect width="192" height="256" fill="white"/>
</clipPath>
<clipPath id="clip1">
<rect width="149.353" height="197.641" fill="white" transform="matrix(-0.99994 -0.0110051 -0.0110051 0.99994 170.414 51.4746)"/>
</clipPath>
</defs>
</svg>

