<svg width="192" height="256" viewBox="0 0 192 256" fill="none" xmlns="http://www.w3.org/2000/svg">
<g clip-path="url(#clip0)">
<ellipse rx="74.5" ry="8.5" transform="matrix(-1 0 0 1 108.883 233.5)" fill="#F2663A"/>
<rect width="17.7215" height="17.7215" rx="2.14121" transform="matrix(-1 0 0 1 86.7622 60.9951)" fill="#FF8E51"/>
<rect width="17.7215" height="17.7215" rx="2.14121" transform="matrix(-1 0 0 1 106.114 60.9951)" fill="#FF8E51"/>
<rect width="17.7215" height="17.7215" rx="2.14121" transform="matrix(-1 0 0 1 86.7622 80.2812)" fill="#FF8E51"/>
<rect width="17.7215" height="17.7215" rx="2.14121" transform="matrix(-1 0 0 1 106.114 80.2812)" fill="#FF8E51"/>
<rect width="17.7215" height="17.7215" rx="2.14121" transform="matrix(-1 0 0 1 86.7625 99.5654)" fill="#FF8E51"/>
<rect width="17.7215" height="17.7215" rx="2.14121" transform="matrix(-1 0 0 1 106.114 99.5654)" fill="#FF8E51"/>
<rect width="17.7215" height="17.7215" rx="2.14121" transform="matrix(-1 0 0 1 86.7625 118.85)" fill="#FF8E51"/>
<rect width="17.7215" height="17.7215" rx="2.14121" transform="matrix(-1 0 0 1 106.114 118.85)" fill="#FF8E51"/>
<rect width="17.7215" height="17.7215" rx="2.14121" transform="matrix(-1 0 0 1 67.4744 60.9951)" fill="#FF8E51"/>
<rect width="17.7215" height="17.7215" rx="2.14121" transform="matrix(-1 0 0 1 67.4744 80.2812)" fill="#FF8E51"/>
<rect width="17.7215" height="17.7215" rx="2.14121" transform="matrix(-1 0 0 1 67.4744 99.5654)" fill="#FF8E51"/>
<rect width="17.7215" height="17.7215" rx="2.14121" transform="matrix(-1 0 0 1 67.4744 118.85)" fill="#FF8E51"/>
<rect width="17.7215" height="17.7215" rx="2.14121" transform="matrix(-1 0 0 1 48.1921 60.9951)" fill="#FF8E51"/>
<rect width="17.7215" height="17.7215" rx="2.14121" transform="matrix(-1 0 0 1 48.1921 80.2812)" fill="#FF8E51"/>
<rect width="17.7215" height="17.7215" rx="2.14121" transform="matrix(-1 0 0 1 48.1921 99.5654)" fill="#FF8E51"/>
<rect width="17.7215" height="17.7215" rx="2.14121" transform="matrix(-1 0 0 1 48.1921 118.85)" fill="#FF8E51"/>
<rect width="17.7215" height="17.7215" rx="2.14121" transform="matrix(-1 0 0 1 28.906 60.9951)" fill="#FF8E51"/>
<rect width="17.7215" height="17.7215" rx="2.14121" transform="matrix(-1 0 0 1 28.906 80.2812)" fill="#FF8E51"/>
<rect width="17.7215" height="17.7215" rx="2.14121" transform="matrix(-1 0 0 1 28.906 99.5654)" fill="#FF8E51"/>
<rect width="17.7215" height="17.7215" rx="2.14121" transform="matrix(-1 0 0 1 28.906 118.85)" fill="#FF8E51"/>
<rect width="67.9377" height="174.032" rx="6.51458" transform="matrix(-1 0 0 1 165.674 52.9043)" fill="#F4673A"/>
<rect width="65.1458" height="92.1347" rx="6.51458" transform="matrix(-1 0 0 1 182.427 66.8652)" fill="#F4673A"/>
<rect width="67.9377" height="92.1347" rx="6.51458" transform="matrix(-1 0 0 1 185.219 52.9043)" fill="#FD8F51"/>
<rect width="68" height="78" rx="6.51458" transform="matrix(-1 0 0 1 185 149)" fill="#FD8F51"/>
<path d="M10.2574 57.5561H84.7097L66.3561 28.1023C65.804 27.2162 65.5113 26.1932 65.5113 25.1492V9.16211H27.5828V25.2842C27.5828 26.243 27.3359 27.1855 26.866 28.0212L10.2574 57.5561Z" fill="#F4673A"/>
<path d="M27.9399 57.5561H108.907L90.8043 28.3226C90.1663 27.2924 89.8283 26.1046 89.8283 24.8929V9.16211H45.157V25.0498C45.157 26.1624 44.872 27.2565 44.3292 28.2277L27.9399 57.5561Z" fill="#FF9254"/>
<path d="M92.3124 57.3286C92.208 56.9154 91.8363 56.626 91.4101 56.626H11.7916C11.4402 56.626 11.1187 56.8239 10.9605 57.1377L8.14583 62.7216C7.83382 63.3406 8.28371 64.0712 8.97687 64.0712H92.8213C93.4277 64.0712 93.8721 63.5005 93.7235 62.9125L92.3124 57.3286Z" fill="#F96D41"/>
<path d="M110.044 57.2278C109.907 56.8656 109.561 56.626 109.174 56.626H29.5431C29.1564 56.626 28.81 56.8651 28.6729 57.2267L26.5562 62.8107C26.3254 63.4196 26.7752 64.0712 27.4264 64.0712H111.283C111.934 64.0712 112.383 63.4205 112.153 62.8117L110.044 57.2278Z" fill="#FFA25F"/>
<rect width="88.4121" height="75.383" rx="1.86131" transform="matrix(-1 0 0 1 98.6672 151.555)" fill="#ED5E30"/>
<rect width="71.6603" height="75.383" rx="1.86131" transform="matrix(-1 0 0 1 108.904 151.555)" fill="#FC854C"/>
<rect width="93.996" height="80.0362" rx="3.72262" transform="matrix(-1 0 0 1 101.459 139.456)" fill="#F4673A"/>
<rect width="76.3136" height="80.0362" rx="3.72262" transform="matrix(-1 0 0 1 111.697 139.455)" fill="#FF9254"/>
<rect x="-0.930654" y="0.930654" width="60.0594" height="53.9779" rx="0.930654" transform="matrix(-1 0 0 1 102.612 155.277)" fill="#EE6438" stroke="#F4673A" stroke-width="1.86131"/>
<path opacity="0.2" fill-rule="evenodd" clip-rule="evenodd" d="M66.082 174.758C66.4176 174.216 67.0119 173.891 67.649 173.891H88.7705C89.2155 173.891 89.5458 174.303 89.4519 174.738C88.2946 180.101 87.581 185.363 88.127 190.897C88.51 194.778 89.5008 198.687 91.2791 202.786C91.8322 204.061 90.9278 205.533 89.538 205.533H58.3919C57.2983 205.533 56.4388 204.593 56.5547 203.506C57.3189 196.336 58.6032 190.731 60.5895 185.591C62.0124 181.908 63.8065 178.429 66.082 174.758ZM49.9928 203.48C49.8832 204.563 48.7832 205.34 48.1 204.493C47.7136 204.014 47.4823 203.404 47.4823 202.741V176.683C47.4823 175.141 48.7323 173.891 50.2742 173.891H55.7846C57.2154 173.891 58.116 175.441 57.4563 176.711C56.3436 178.852 55.3606 181.008 54.4994 183.237C52.2013 189.184 50.7934 195.574 49.9928 203.48ZM96.8069 173.891C96.5317 173.891 96.2925 174.08 96.2303 174.348C96.0923 174.943 95.96 175.532 95.834 176.115C94.741 181.181 94.1738 185.689 94.6245 190.256C95.0081 194.143 96.1471 198.234 98.5366 202.849C98.8318 203.419 99.5989 203.383 99.5989 202.741V176.683C99.5989 175.141 98.3489 173.891 96.8069 173.891Z" fill="#FF9254"/>
<rect opacity="0.3" width="61.9207" height="9.30654" rx="1.86131" transform="matrix(-1 0 0 1 104.474 143.178)" fill="#F4673A"/>
<path d="M45.148 147.231C44.8938 148.955 46.0502 150.553 47.7308 150.801C49.4115 151.049 50.9799 149.852 51.2341 148.129C51.4883 146.405 50.3319 144.807 48.6513 144.559C46.9706 144.311 45.4021 145.508 45.148 147.231Z" fill="#F46B3F"/>
<path d="M46.898 147.488C46.7106 148.76 47.383 149.912 48.4001 150.062C49.4171 150.212 50.3935 149.303 50.581 148.031C50.7684 146.76 50.096 145.608 49.0789 145.458C48.0619 145.308 47.0855 146.217 46.898 147.488Z" fill="#FC854C" stroke="#F46B3F" stroke-width="0.930654"/>
<path d="M57.084 147.23C56.8298 148.954 57.9862 150.552 59.6669 150.8C61.3475 151.048 62.916 149.851 63.1701 148.128C63.4243 146.404 62.2679 144.806 60.5873 144.558C58.9067 144.31 57.3382 145.507 57.084 147.23Z" fill="#F46B3F"/>
<path d="M58.8341 147.487C58.6466 148.759 59.3191 149.911 60.3361 150.061C61.3531 150.211 62.3295 149.302 62.517 148.03C62.7045 146.759 62.032 145.607 61.015 145.457C59.9979 145.307 59.0215 146.216 58.8341 147.487Z" fill="#FC854C" stroke="#F46B3F" stroke-width="0.930654"/>
<path d="M69.0161 147.231C68.762 148.955 69.9183 150.553 71.599 150.801C73.2796 151.049 74.8481 149.852 75.1023 148.129C75.3565 146.405 74.2001 144.807 72.5194 144.559C70.8388 144.311 69.2703 145.508 69.0161 147.231Z" fill="#F46B3F"/>
<path d="M70.7664 147.488C70.579 148.76 71.2514 149.912 72.2685 150.062C73.2855 150.212 74.2619 149.303 74.4494 148.031C74.6368 146.76 73.9644 145.608 72.9473 145.458C71.9303 145.308 70.9539 146.217 70.7664 147.488Z" fill="#FC854C" stroke="#F46B3F" stroke-width="0.930654"/>
<path d="M80.9524 147.23C80.6982 148.954 81.8546 150.552 83.5353 150.8C85.2159 151.048 86.7844 149.851 87.0386 148.128C87.2927 146.404 86.1363 144.806 84.4557 144.558C82.7751 144.31 81.2066 145.507 80.9524 147.23Z" fill="#F46B3F"/>
<path d="M82.7025 147.487C82.515 148.759 83.1875 149.911 84.2045 150.061C85.2215 150.211 86.198 149.302 86.3854 148.03C86.5729 146.759 85.9004 145.607 84.8834 145.457C83.8664 145.307 82.8899 146.216 82.7025 147.487Z" fill="#FC854C" stroke="#F46B3F" stroke-width="0.930654"/>
<path d="M93.0513 147.231C92.7971 148.955 93.9535 150.553 95.6341 150.801C97.3148 151.049 98.8833 149.852 99.1374 148.129C99.3916 146.405 98.2352 144.807 96.5546 144.559C94.8739 144.311 93.3055 145.508 93.0513 147.231Z" fill="#F46B3F"/>
<path d="M94.8013 147.488C94.6139 148.76 95.2864 149.912 96.3034 150.062C97.3204 150.212 98.2968 149.303 98.4843 148.031C98.6718 146.76 97.9993 145.608 96.9822 145.458C95.9652 145.308 94.9888 146.217 94.8013 147.488Z" fill="#FC854C" stroke="#F46B3F" stroke-width="0.930654"/>
<rect width="58.8247" height="5.58392" rx="1.86131" transform="matrix(-1 0 0 1 99.3101 162.723)" fill="#F4673A"/>
<rect width="59.8567" height="5.58392" rx="1.86131" transform="matrix(-1 0 0 1 107.567 162.723)" fill="#F77C48"/>
<path d="M28.7251 181.801C27.6083 180.312 27.9496 171.254 28.2598 166.911L25.8879 166.199C24.5738 165.805 23.1655 166.42 22.6107 167.675C20.4319 172.603 17.6722 180.17 18.9532 182.732C20.8145 186.454 30.1211 183.663 28.7251 181.801Z" fill="#FF7042"/>
<path d="M32.5913 165.515H12.5821" stroke="#FF8551" stroke-width="2.79196"/>
<path d="M29.7993 165.515H9.79014" stroke="#FF7042" stroke-width="2.79196"/>
<path d="M14.9072 161.79C20.1189 159.929 27.9373 162.255 27.9373 164.117L26.8014 164.117C25.5471 164.117 24.4537 164.949 24.2062 166.179C23.3619 170.372 21.9636 180.259 25.1348 189.252C25.7356 190.956 24.0112 193.694 22.7303 194.968C21.3584 196.333 17.2059 197.406 15.3134 197.809C15.1039 197.853 14.8941 197.905 14.6855 197.963C12.99 198.435 11.0271 197.424 10.9252 195.667C10.1999 183.165 10.2098 163.468 14.9072 161.79Z" fill="#FF9254"/>
<rect width="5.58418" height="2.79209" rx="0.930654" transform="matrix(-1 0 0 1 176.843 113.396)" fill="#E9693A"/>
<rect width="5.58418" height="2.79209" rx="0.930654" transform="matrix(-1 0 0 1 176.842 136.662)" fill="#E9693A"/>
<rect width="4.65333" height="26.0587" rx="1.86131" transform="matrix(-1 0 0 1 178.705 113.396)" fill="#FD814B"/>
<path d="M108.135 148.699C86.4887 176.698 81.4423 183.579 81.4423 223.957" stroke="#8CC2CF" stroke-width="6.58157" stroke-miterlimit="10" stroke-linecap="round"/>
<path d="M105.532 146.686C106.643 145.248 108.71 144.984 110.148 146.095C111.586 147.207 111.85 149.274 110.739 150.712L105.532 146.686ZM84.733 223.957C84.733 225.775 83.2597 227.248 81.4423 227.248C79.6248 227.248 78.1515 225.775 78.1515 223.957L84.733 223.957ZM78.1515 223.957C78.1515 222.283 78.1601 220.663 78.1782 219.096L84.7593 219.172C84.7415 220.711 84.733 222.305 84.733 223.957L78.1515 223.957ZM78.2519 214.938C78.3373 211.441 78.4805 208.209 78.6934 205.195L85.2586 205.659C85.0542 208.551 84.915 211.68 84.8315 215.099L78.2519 214.938ZM79.0488 201.008C79.4044 197.465 79.8805 194.22 80.5036 191.181L86.9511 192.502C86.3805 195.286 85.9347 198.304 85.5975 201.665L79.0488 201.008ZM81.4918 186.985C82.3936 183.62 83.5096 180.495 84.8739 177.449L90.8804 180.139C89.6595 182.865 88.6606 185.66 87.849 188.689L81.4918 186.985ZM86.7664 173.566C88.2537 170.74 89.962 167.944 91.907 165.045L97.3728 168.711C95.5239 171.467 93.9439 174.06 92.5904 176.632L86.7664 173.566ZM94.2942 161.594C96.0459 159.129 97.9703 156.547 100.075 153.781L105.313 157.767C103.229 160.505 101.352 163.023 99.659 165.406L94.2942 161.594ZM102.581 150.509C103.53 149.276 104.513 148.003 105.532 146.686L110.739 150.712C109.72 152.029 108.741 153.296 107.797 154.523L102.581 150.509Z" fill="#A2CED8"/>
<path d="M87.4637 230.085L70.2197 230.152C69.9263 230.153 69.6445 230.037 69.4362 229.83C69.2279 229.624 69.1101 229.343 69.1087 229.05L70.8956 226.637C70.8918 225.605 71.2977 224.614 72.0242 223.881C72.7508 223.148 73.7385 222.734 74.7705 222.728L84.6406 222.438C85.1521 222.436 85.6589 222.535 86.1321 222.728C86.6054 222.922 87.0358 223.208 87.3987 223.568C87.7617 223.928 88.0502 224.357 88.2476 224.828C88.4451 225.3 88.5477 225.806 88.5496 226.318L88.5603 228.974C88.5613 229.267 88.4465 229.548 88.241 229.756C88.0356 229.964 87.7561 230.083 87.4637 230.085Z" fill="#BEDCE4"/>
<path d="M130.012 155.366C124.203 181.031 115.665 193.434 146.589 224.415" stroke="#8CC2CF" stroke-width="6.58157" stroke-miterlimit="10" stroke-linecap="round"/>
<path d="M126.803 154.64C127.204 152.867 128.966 151.756 130.739 152.157C132.511 152.558 133.623 154.32 133.222 156.093L126.803 154.64ZM148.918 222.09C150.202 223.377 150.2 225.46 148.914 226.744C147.627 228.028 145.544 228.026 144.26 226.74L148.918 222.09ZM144.26 226.74C143.149 225.628 142.088 224.537 141.072 223.467L145.846 218.937C146.821 219.964 147.845 221.015 148.918 222.09L144.26 226.74ZM138.412 220.592C136.201 218.139 134.241 215.79 132.509 213.527L137.737 209.528C139.347 211.634 141.193 213.847 143.301 216.186L138.412 220.592ZM130.163 210.311C128.213 207.498 126.62 204.804 125.344 202.19L131.258 199.303C132.369 201.579 133.786 203.985 135.572 206.561L130.163 210.311ZM123.699 198.421C122.453 195.176 121.699 192.054 121.333 188.98L127.869 188.202C128.169 190.727 128.79 193.318 129.843 196.062L123.699 198.421ZM121.065 184.81C121.028 181.6 121.369 178.459 121.921 175.312L128.404 176.449C127.9 179.32 127.615 182.04 127.646 184.735L121.065 184.81ZM122.699 171.415C123.326 168.576 124.083 165.644 124.853 162.627L131.23 164.253C130.45 167.313 129.724 170.123 129.126 172.833L122.699 171.415ZM125.783 158.933C126.128 157.536 126.47 156.108 126.803 154.64L133.222 156.093C132.878 157.614 132.525 159.085 132.173 160.511L125.783 158.933Z" fill="#A2CED8"/>
<path d="M161.762 95.5654L162.544 95.865C163.21 96.1164 163.949 96.0931 164.598 95.8003C165.246 95.5074 165.753 94.969 166.005 94.3033L166.084 94.0953C166.336 93.4293 166.312 92.6907 166.02 92.0418C165.727 91.393 165.188 90.8869 164.523 90.6347L163.742 90.3357L161.762 95.5654Z" fill="#F65539"/>
<path d="M122.351 80.7232L122.221 80.6733C121.891 80.5487 121.59 80.3603 121.333 80.1189C121.076 79.8775 120.869 79.5879 120.724 79.2666C120.579 78.9452 120.499 78.5985 120.488 78.2462C120.477 77.8939 120.536 77.5429 120.661 77.2133L120.741 77.0053C120.865 76.6756 121.054 76.3738 121.296 76.117C121.537 75.8601 121.827 75.6534 122.148 75.5086C122.47 75.3638 122.817 75.2837 123.169 75.2729C123.521 75.2621 123.872 75.3208 124.202 75.4457L124.332 75.4955C124.503 75.561 124.642 75.6912 124.718 75.858C124.794 76.0248 124.802 76.2148 124.739 76.387L123.253 80.3135C123.221 80.3999 123.172 80.479 123.109 80.5464C123.047 80.6138 122.971 80.6681 122.887 80.7062C122.804 80.7443 122.713 80.7654 122.621 80.7683C122.529 80.7712 122.437 80.7559 122.351 80.7232Z" fill="#F65539"/>
<path d="M122.845 83.3015L122.585 83.2019C122.396 83.1304 122.223 83.0224 122.076 82.884C121.928 82.7456 121.81 82.5795 121.727 82.3953C121.644 82.2111 121.598 82.0123 121.592 81.8103C121.586 81.6083 121.619 81.4071 121.691 81.2182L124.164 74.6832C124.235 74.4942 124.343 74.3211 124.482 74.1739C124.62 74.0266 124.786 73.9081 124.971 73.8251C125.155 73.7421 125.354 73.6962 125.556 73.69C125.758 73.6839 125.959 73.7176 126.148 73.7893L126.408 73.8889C126.597 73.9604 126.77 74.0684 126.917 74.2068C127.065 74.3452 127.183 74.5113 127.266 74.6955C127.349 74.8797 127.395 75.0785 127.401 75.2805C127.407 75.4825 127.374 75.6837 127.302 75.8726L124.828 82.407C124.756 82.5959 124.648 82.7689 124.51 82.9161C124.372 83.0632 124.206 83.1818 124.022 83.2648C123.838 83.3479 123.639 83.3939 123.437 83.4002C123.235 83.4065 123.034 83.373 122.845 83.3015Z" fill="#FFB762"/>
<path d="M160.127 97.4094L160.386 97.5085C160.575 97.5801 160.776 97.6138 160.978 97.6077C161.18 97.6016 161.379 97.5557 161.563 97.4726C161.748 97.3896 161.914 97.2711 162.052 97.1238C162.19 96.9766 162.298 96.8035 162.37 96.6145L164.844 90.0801C164.916 89.8912 164.949 89.6901 164.943 89.4883C164.937 89.2864 164.891 89.0878 164.808 88.9038C164.724 88.7197 164.606 88.5538 164.459 88.4155C164.312 88.2772 164.139 88.1693 163.95 88.0979L163.689 87.9982C163.501 87.9266 163.299 87.8929 163.097 87.899C162.895 87.9051 162.697 87.951 162.512 88.0341C162.328 88.1171 162.162 88.2356 162.024 88.3829C161.885 88.5301 161.777 88.7032 161.706 88.8922L159.234 95.4242C159.162 95.6131 159.128 95.8145 159.134 96.0166C159.14 96.2187 159.186 96.4177 159.269 96.6021C159.352 96.7865 159.47 96.9527 159.618 97.0912C159.765 97.2297 159.938 97.3379 160.127 97.4094Z" fill="#FFB762"/>
<path d="M149.661 230.31L136.62 230.379C136.404 230.381 136.196 230.261 136.042 230.045C135.888 229.83 135.8 229.537 135.798 229.23L135.79 226.356C135.786 225.251 136.092 224.19 136.64 223.404C137.187 222.619 137.932 222.175 138.711 222.168L147.515 222.12C148.294 222.117 149.042 222.552 149.596 223.331C150.149 224.111 150.461 225.17 150.464 226.276L150.472 229.149C150.472 229.455 150.386 229.748 150.234 229.966C150.083 230.183 149.877 230.307 149.661 230.31Z" fill="#BEDCE4"/>
<path d="M146.518 105.717L155.79 109.226C156.894 109.667 157.78 110.524 158.258 111.611C158.737 112.699 158.769 113.931 158.349 115.042C157.928 116.154 157.088 117.055 156.009 117.554C154.931 118.052 153.7 118.107 152.581 117.707L143.309 114.197L146.518 105.717Z" fill="#BEDCE4"/>
<path d="M137.474 152.645C137.031 152.487 136.669 152.16 136.468 151.735C136.266 151.311 136.241 150.823 136.399 150.381L137.342 147.89C137.686 146.992 138.77 146.526 139.702 146.879L140.831 144.91L106.152 131.782L105.825 134.058C106.261 134.228 106.613 134.564 106.803 134.992C106.992 135.421 107.004 135.908 106.835 136.345L105.894 138.837C105.716 139.269 105.376 139.613 104.947 139.796C104.517 139.979 104.033 139.985 103.598 139.814L103.004 141.344L136.859 154.159L137.474 152.645Z" fill="#164664"/>
<path d="M137.642 152.699L103.338 139.712C103.025 139.603 102.682 139.621 102.382 139.763C102.083 139.906 101.852 140.161 101.74 140.473C100.461 143.854 102.04 147.583 105.266 148.805L130.169 158.238C133.395 159.46 137.05 157.71 138.328 154.33C138.452 154.023 138.45 153.679 138.321 153.373C138.193 153.068 137.949 152.825 137.642 152.699Z" fill="#BEDCE4"/>
<path d="M153.14 59.9592C143.031 56.1334 131.697 61.3144 127.834 71.5378L104.929 132.042C104.852 132.239 104.815 132.449 104.82 132.66C104.825 132.871 104.871 133.079 104.957 133.272C105.042 133.466 105.165 133.64 105.318 133.785C105.471 133.931 105.651 134.044 105.849 134.12L139.46 146.843C139.658 146.917 139.868 146.952 140.079 146.944C140.29 146.937 140.498 146.888 140.69 146.8C140.882 146.712 141.055 146.587 141.199 146.432C141.342 146.277 141.454 146.095 141.527 145.897L164.432 85.3923C168.303 75.1724 163.248 63.7866 153.14 59.9592Z" fill="#B8DEE5"/>
<path d="M133.075 69.6786C133.28 69.3367 133.545 68.9729 133.86 68.5996M135.733 66.7668C137.256 65.5073 139.16 64.3721 141.05 63.8496" stroke="white" stroke-width="1.87628" stroke-linecap="round"/>
<path d="M148.17 117.665L145.185 116.534C145.109 116.509 145.038 116.469 144.978 116.416C144.918 116.363 144.869 116.299 144.834 116.226C144.799 116.154 144.78 116.075 144.777 115.995C144.773 115.915 144.787 115.835 144.815 115.76C144.844 115.685 144.888 115.617 144.944 115.559C144.999 115.502 145.066 115.456 145.141 115.425C145.215 115.395 145.294 115.379 145.374 115.38C145.455 115.381 145.534 115.398 145.607 115.431L148.587 116.563C148.725 116.625 148.835 116.737 148.893 116.877C148.951 117.017 148.953 117.173 148.899 117.315C148.845 117.456 148.739 117.572 148.602 117.637C148.465 117.702 148.309 117.713 148.165 117.666L148.17 117.665Z" fill="#A2CED8"/>
<path d="M146.423 122.279L143.439 121.148C143.3 121.087 143.191 120.974 143.133 120.835C143.075 120.695 143.072 120.538 143.127 120.396C143.181 120.255 143.287 120.14 143.424 120.075C143.56 120.009 143.717 119.999 143.861 120.046L146.846 121.177C146.985 121.238 147.094 121.35 147.152 121.49C147.211 121.63 147.213 121.787 147.159 121.928C147.104 122.07 146.998 122.185 146.861 122.25C146.725 122.315 146.568 122.326 146.424 122.279L146.423 122.279Z" fill="#A2CED8"/>
<path d="M147.291 119.969L144.305 118.84C144.167 118.778 144.057 118.666 143.999 118.526C143.941 118.386 143.939 118.23 143.993 118.088C144.047 117.947 144.154 117.832 144.29 117.766C144.427 117.701 144.583 117.691 144.728 117.737L147.713 118.868C147.859 118.924 147.977 119.036 148.04 119.179C148.104 119.321 148.109 119.484 148.053 119.63C147.997 119.776 147.885 119.893 147.742 119.957C147.6 120.021 147.437 120.025 147.291 119.969Z" fill="#A2CED8"/>
<path d="M168.322 73.6699L163.684 75.2119" stroke="#BEDCE4" stroke-width="2.63327" stroke-miterlimit="10"/>
<path d="M146.197 94.1822L134.153 89.6238C133.295 89.2994 132.51 88.8093 131.843 88.1815C131.175 87.5537 130.637 86.8005 130.26 85.9648C129.884 85.1292 129.675 84.2275 129.647 83.3113C129.619 82.3951 129.771 81.4824 130.096 80.6251L130.303 80.0851C130.627 79.228 131.117 78.4432 131.745 77.7756C132.373 77.1079 133.126 76.5705 133.962 76.1939C134.797 75.8174 135.699 75.6091 136.615 75.5809C137.531 75.5528 138.444 75.7053 139.301 76.0299L151.344 80.5877C153.075 81.2432 154.475 82.5595 155.236 84.247C155.996 85.9345 156.056 87.8551 155.401 89.5864L155.194 90.1264C154.539 91.8571 153.223 93.2567 151.535 94.0173C149.848 94.7779 147.928 94.8372 146.197 94.1822Z" fill="#36488B"/>
<path d="M142.701 88.2542C142.032 88.0104 141.707 87.2778 141.975 86.618L142.453 85.4441C142.721 84.7843 143.481 84.447 144.151 84.6907L146.282 85.4668C146.951 85.7106 147.276 86.4431 147.008 87.103L146.53 88.2769C146.262 88.9367 145.502 89.274 144.832 89.0303L142.701 88.2542Z" fill="#6EDCFF"/>
<path d="M136.946 86.1589C137.616 86.4027 138.376 86.0654 138.644 85.4055L139.122 84.2317C139.39 83.5718 139.065 82.8393 138.396 82.5955L136.265 81.8194C135.595 81.5756 134.835 81.9129 134.567 82.5727L134.089 83.7466C133.821 84.4065 134.146 85.139 134.815 85.3828L136.946 86.1589Z" fill="#6EDCFF"/>
<path d="M125.372 107.406L115.775 103.773C114.651 103.348 113.741 102.493 113.247 101.397C112.753 100.301 112.715 99.0531 113.141 97.9287C113.566 96.8044 114.421 95.8952 115.517 95.4011C116.614 94.9071 117.861 94.8687 118.985 95.2944L128.656 98.9541L125.372 107.406Z" fill="#BEDCE4"/>
<path d="M143.719 95.1172C141.458 96.9531 136.5 93.8079 136.5 93.8079" stroke="#8BBCC8" stroke-width="1.75239" stroke-linecap="round"/>
<path d="M135.063 58.0254L137.341 62.7689" stroke="#B8DEE5" stroke-width="2.63327" stroke-miterlimit="10"/>
<path d="M132.331 58.5383C131.609 58.262 130.986 57.7778 130.539 57.1469C130.092 56.5161 129.843 55.767 129.822 54.9944C129.801 54.2217 130.009 53.4602 130.421 52.8061C130.833 52.1519 131.429 51.6346 132.135 51.3195C132.841 51.0043 133.624 50.9055 134.386 51.0356C135.148 51.1656 135.854 51.5187 136.416 52.0501C136.977 52.5815 137.368 53.2674 137.54 54.021C137.711 54.7747 137.655 55.5623 137.379 56.2843C137.008 57.2525 136.268 58.0338 135.322 58.4565C134.375 58.8792 133.299 58.9086 132.331 58.5383Z" fill="#B8DEE5"/>
<path d="M132.946 57.0049C132.531 56.8463 132.173 56.5685 131.917 56.2065C131.661 55.8445 131.518 55.4146 131.506 54.9713C131.494 54.5279 131.613 54.0909 131.85 53.7156C132.086 53.3403 132.428 53.0435 132.834 52.8627C133.239 52.682 133.688 52.6254 134.125 52.7001C134.562 52.7749 134.968 52.9776 135.29 53.2826C135.612 53.5876 135.836 53.9813 135.934 54.4138C136.032 54.8463 136 55.2982 135.842 55.7125C135.629 56.2679 135.204 56.7161 134.661 56.9585C134.118 57.2009 133.501 57.2176 132.946 57.0049Z" fill="#F65539"/>
<path d="M169.502 76.0626C168.795 75.7511 168.195 75.2367 167.78 74.5846C167.365 73.9325 167.153 73.172 167.17 72.3991C167.187 71.6263 167.433 70.8759 167.877 70.2429C168.32 69.6098 168.942 69.1225 169.662 68.8426C170.383 68.5626 171.17 68.5027 171.925 68.6703C172.679 68.8378 173.367 69.2254 173.902 69.784C174.436 70.3426 174.793 71.0471 174.927 71.8084C175.061 72.5697 174.966 73.3537 174.654 74.0611C174.236 75.0095 173.459 75.753 172.492 76.1283C171.526 76.5036 170.451 76.48 169.502 76.0626Z" fill="#BEDCE4"/>
<path d="M170.205 74.5644C169.8 74.3855 169.456 74.0902 169.218 73.7159C168.98 73.3417 168.858 72.9052 168.868 72.4618C168.878 72.0184 169.02 71.5879 169.274 71.2248C169.529 70.8617 169.886 70.5822 170.299 70.4218C170.713 70.2613 171.164 70.2271 171.597 70.3234C172.03 70.4198 172.425 70.6423 172.731 70.9629C173.038 71.2836 173.242 71.6879 173.319 72.1247C173.396 72.5616 173.341 73.0113 173.162 73.4172C172.922 73.9614 172.476 74.388 171.921 74.6031C171.367 74.8183 170.75 74.8043 170.205 74.5644Z" fill="#F65539"/>
<path fill-rule="evenodd" clip-rule="evenodd" d="M134.557 159.701C134.74 158.157 133.636 156.763 132.093 156.58L121.632 155.34C119.957 155.141 118.484 156.447 118.435 158.133C118.159 167.593 116.798 180.454 116.282 185.066C116.163 186.133 116.647 187.193 117.623 187.642C121.689 189.514 126.55 189.257 129.191 188.914C130.365 188.761 131.224 187.806 131.364 186.63C131.949 181.696 133.514 168.496 134.557 159.701Z" fill="#F5F8FA"/>
<path fill-rule="evenodd" clip-rule="evenodd" d="M113.809 160.32C115.011 159.086 114.892 157.068 113.522 156.025L105.148 149.649C103.911 148.707 102.148 148.943 101.206 150.179C95.8408 157.227 87.1463 168.646 84.428 172.217C83.8959 172.916 83.7001 173.829 84.0638 174.629C86.0217 178.933 91.1067 181.107 93.8416 181.996C94.9227 182.347 96.0597 181.896 96.7214 180.972C99.2572 177.431 105.986 168.346 113.809 160.32Z" fill="#F5F8FA"/>
<path d="M139.213 154.993L101.202 140.44L100.972 141.038C100.478 142.329 100.243 143.704 100.28 145.085C100.317 146.466 100.626 147.827 101.189 149.089C101.752 150.351 102.558 151.49 103.562 152.44C104.565 153.39 105.745 154.134 107.036 154.628L125.393 161.656C128 162.654 130.896 162.576 133.444 161.439C135.993 160.301 137.986 158.198 138.984 155.592L139.213 154.993Z" fill="#F5F8FA"/>
<path d="M116.79 100.289C107.773 111.853 89.72 121.178 89.72 102.825C89.72 92.9349 104.137 83.0919 94.9577 78.0467" stroke="#8CC2CF" stroke-width="5.26493" stroke-miterlimit="10"/>
<path d="M116.79 100.289C107.773 111.853 89.72 121.178 89.72 102.825C89.72 92.9349 104.137 83.0919 94.9577 78.0467" stroke="#A2CED8" stroke-width="5.26493" stroke-miterlimit="10" stroke-dasharray="6.73 4.03"/>
<path d="M120.501 97.8223C112.75 99.2197 106.216 113.377 95.2045 113.377" stroke="#F8F1BB" stroke-width="9.21484" stroke-miterlimit="10"/>
<path d="M98.1593 118.332C98.6774 118.333 99.0989 117.915 99.1008 117.397L99.1341 108.122C99.1359 107.629 98.7557 107.218 98.264 107.183L95.11 106.953C94.5889 106.915 94.1373 107.311 94.1056 107.832L93.5286 117.323C93.4959 117.861 93.9225 118.316 94.4617 118.318L98.1593 118.332Z" fill="#FFFDEE"/>
<path d="M128.469 165.36L98.1402 154.711C96.6795 154.198 95.9288 152.582 96.4789 151.135L117.903 94.785C118.234 93.9141 119.59 94.0298 119.866 94.9198C125.659 113.621 149.315 110.913 149.315 110.913L128.469 165.36Z" fill="#F8F1BB"/>
<path d="M134.503 167.953C134.331 168.425 133.813 168.671 133.339 168.507L107.266 159.453C105.328 158.78 104.318 156.65 105.023 154.723L121.386 110.024C122.091 108.098 124.251 107.137 126.194 107.797C148.738 115.449 156.454 107.564 156.454 107.564L134.503 167.953Z" fill="#FFFACA"/>
<path d="M122.186 111.674L139.984 117.368C141.272 117.78 142.086 119.069 142.132 120.42C142.315 125.663 144.325 135.024 145.931 139.19C146.177 139.827 146.236 140.524 146.041 141.178L140.509 159.71C140.462 159.867 140.429 160.029 140.411 160.192L138.25 179.515C138.093 180.914 136.925 181.964 135.518 181.905C126.814 181.537 97.3871 179.278 86.4912 165.482C85.7491 164.542 85.8416 163.22 86.605 162.297L95.8436 151.134C96.169 150.741 96.4265 150.296 96.6056 149.818L104.447 128.884C104.683 128.253 105.147 127.741 105.702 127.359C109.478 124.762 115.784 117.419 118.734 112.975C119.485 111.844 120.893 111.26 122.186 111.674Z" fill="#D82F2F"/>
<path d="M119.966 92.4978C118.398 92.5852 116.789 93.0761 114.966 93.998C114.184 97.899 117.872 115.558 118.995 120.764C119.178 121.616 119.93 122.212 120.802 122.212L123.353 122.212C124.562 122.212 125.454 121.088 125.169 119.913C123.567 113.296 119.145 94.5522 119.966 92.4978Z" fill="#363642"/>
<path d="M118.392 133.365L128.527 136.39C129.498 136.68 130.038 137.703 129.868 138.702C129.086 143.307 130.625 147.297 131.907 149.37C132.218 149.873 132.339 150.481 132.17 151.047L130.114 157.933C129.824 158.904 128.802 159.456 127.831 159.166L106.347 152.753C105.376 152.463 104.823 151.441 105.113 150.47L107.104 143.802C107.308 143.118 107.9 142.635 108.563 142.371C111.592 141.163 114.534 137.123 116.189 134.271C116.635 133.503 117.541 133.111 118.392 133.365Z" fill="#363642"/>
<rect width="23.9307" height="6.42354" rx="3.21177" transform="matrix(-0.945834 -0.324651 -0.324651 0.945834 107.081 134.209)" fill="#474860"/>
<path d="M154.377 113.106C158.064 127.602 152.309 152.837 102.759 135.86" stroke="#8CC2CF" stroke-width="5.26493" stroke-miterlimit="10" stroke-linecap="round"/>
<path d="M151.826 113.755C151.467 112.346 152.319 110.913 153.728 110.554C155.137 110.196 156.57 111.048 156.928 112.457L151.826 113.755ZM101.905 138.351C100.53 137.88 99.7971 136.383 100.268 135.007C100.74 133.632 102.237 132.899 103.612 133.37L101.905 138.351ZM156.928 112.457C157.21 113.565 157.441 114.728 157.608 115.928L152.394 116.655C152.253 115.649 152.06 114.677 151.826 113.755L156.928 112.457ZM157.915 120.166C157.927 122.5 157.672 124.915 157.054 127.281L151.96 125.952C152.447 124.085 152.66 122.132 152.651 120.191L157.915 120.166ZM155.553 131.411C154.515 133.58 153.093 135.626 151.212 137.42L147.578 133.609C148.964 132.288 150.021 130.775 150.803 129.139L155.553 131.411ZM147.685 140.124C145.759 141.305 143.546 142.256 141.029 142.937L139.654 137.855C141.726 137.294 143.469 136.533 144.933 135.635L147.685 140.124ZM136.887 143.77C134.767 144.063 132.471 144.193 129.989 144.146L130.09 138.882C132.327 138.924 134.346 138.806 136.167 138.554L136.887 143.77ZM125.898 143.919C123.799 143.732 121.579 143.43 119.232 143.005L120.17 137.824C122.375 138.224 124.438 138.503 126.366 138.675L125.898 143.919ZM115.301 142.204C113.254 141.743 111.116 141.195 108.885 140.554L110.338 135.493C112.478 136.108 114.517 136.631 116.459 137.068L115.301 142.204ZM105.078 139.4C104.04 139.069 102.982 138.72 101.905 138.351L103.612 133.37C104.654 133.727 105.675 134.065 106.676 134.384L105.078 139.4Z" fill="#A2CED8"/>
<path d="M152.867 110.434C159.145 118.523 153.938 128.977 148.894 137.237" stroke="#F8F1BB" stroke-width="9.17643" stroke-miterlimit="10"/>
<path d="M154.065 139.379C154.375 138.923 154.257 138.301 153.801 137.99L145.834 132.564C145.399 132.268 144.809 132.359 144.484 132.773L142.403 135.425C142.059 135.863 142.139 136.496 142.579 136.835L150.41 142.865C150.866 143.216 151.523 143.111 151.847 142.636L154.065 139.379Z" fill="#FFFDEE"/>
<path d="M156.465 106.501C157.58 107.52 158.966 109.5 158.967 111C152.929 117.04 139.718 124.727 136.573 126.52C136.178 126.745 135.683 126.646 135.399 126.291L132.934 123.209C132.565 122.749 132.711 122.066 133.234 121.795C137.72 119.466 155.593 109.997 156.465 106.501Z" fill="#363642"/>
<circle r="1.87637" transform="matrix(-1 6.5198e-09 6.5198e-09 1 120.879 114.24)" fill="#FFDD65"/>
<circle r="1.87637" transform="matrix(-1 6.5198e-09 6.5198e-09 1 140.581 120.806)" fill="#FFDD65"/>
<path d="M89.9123 84.0106C100.006 80.7977 96.7937 73.4568 87.6196 78.0453" stroke="#8CC2CF" stroke-width="3.37614" stroke-linecap="round"/>
<rect width="30.0842" height="17.1665" rx="0.858345" transform="matrix(-0.890892 -0.454216 -0.454216 0.890892 174.534 56.3125)" fill="#EFE4C7"/>
<path d="M178.161 53.5381L147.572 37.9425L141.122 50.5925C140.521 51.7724 141.42 53.2963 142.713 53.5795C149.748 55.1194 162.779 61.4571 168.424 66.667C169.389 67.558 171.093 67.4004 171.69 66.2301L178.161 53.5381Z" fill="white"/>
<path d="M167.373 71.8862C167.723 71.128 167.51 70.2492 166.885 69.6951C159.115 62.8028 144.695 57.3443 140.867 56.5122C140.319 56.393 139.817 56.6597 139.503 57.1247C139.117 57.6969 138.813 58.2155 138.547 58.769C138.01 59.8835 138.709 61.1606 139.896 61.5101C148.325 63.9925 155.718 66.1784 163.625 73.2234C164.67 74.1541 166.316 73.9731 166.959 72.7303C167.101 72.4546 167.242 72.1702 167.373 71.8862Z" fill="white"/>
<ellipse rx="8.61396" ry="9.04408" transform="matrix(-0.890892 -0.454216 -0.454216 0.890892 174.971 53.1193)" fill="white"/>
<ellipse rx="8.61396" ry="9.04408" transform="matrix(-0.890892 -0.454216 -0.454216 0.890892 164.14 43.4591)" fill="white"/>
<ellipse rx="8.61396" ry="9.04408" transform="matrix(-0.890892 -0.454216 -0.454216 0.890892 149.961 40.3683)" fill="white"/>
<path d="M92.7115 137.496C102.427 141.073 105.319 132.48 97.358 128.912" stroke="#8CC2CF" stroke-width="3.37614" stroke-linecap="round"/>
<path fill-rule="evenodd" clip-rule="evenodd" d="M78.3509 221.344C78.5164 224.139 79.0244 228.283 81.855 229.654C81.8835 229.668 81.9142 229.676 81.9457 229.679C82.4017 229.718 86.048 229.986 88.0874 228.88C88.4964 228.658 89.1629 228.877 89.1936 229.341C89.3377 231.523 89.3454 235.299 88.0454 235.644C86.845 235.961 83.8327 235.911 81.7014 235.79C81.0941 235.756 80.5832 235.471 80.0714 235.186C79.5715 234.908 79.0708 234.629 78.4785 234.582C78.2796 234.566 78.0355 234.558 77.7334 234.558C77.5067 234.558 77.3142 234.563 77.1502 234.572C76.5313 234.605 76.0123 234.887 75.4937 235.169C74.9696 235.453 74.446 235.738 73.8202 235.765C70.4009 235.915 63.4845 235.9 61.9098 233.473C61.3252 232.572 61.0513 231.584 60.978 230.593C60.9665 230.438 61.0918 230.308 61.2478 230.308H61.3212C61.8985 230.308 62.3895 229.804 62.1125 229.298C61.9326 228.969 61.6727 228.723 61.3711 228.61C61.2202 228.554 61.1017 228.409 61.1316 228.251C61.1788 228.001 61.234 227.755 61.2951 227.516C61.8918 225.177 64.5402 224.362 66.9491 224.211C70.1836 224.009 73.7212 222.598 76.6675 220.563C77.352 220.091 78.3017 220.514 78.3509 221.344Z" fill="#F4F4F4"/>
<path d="M85.6939 221.805C84.1025 223.848 81.634 225.455 79.7888 226.348C78.9312 226.763 78.3149 227.604 78.3149 228.557C78.3149 229.772 79.3174 230.724 80.452 230.289C83.0571 229.288 86.1353 226.895 88.0514 225.194C88.6824 224.634 88.862 223.734 88.5355 222.956L88.1097 221.942C87.7402 221.061 86.2805 221.052 85.6939 221.805Z" fill="white"/>
<path fill-rule="evenodd" clip-rule="evenodd" d="M70.3288 229.3C70.7147 229.753 70.2294 230.304 69.6342 230.304H68.646C68.0532 230.304 67.5679 229.757 67.9496 229.304C68.2327 228.967 68.6418 228.751 69.1014 228.74C69.5866 228.728 70.0269 228.946 70.3288 229.3Z" fill="#99C5D0"/>
<path fill-rule="evenodd" clip-rule="evenodd" d="M66.3377 229.32C66.6472 229.801 66.1635 230.303 65.5921 230.303H64.2856C63.7142 230.303 63.2306 229.801 63.54 229.32C63.8447 228.848 64.3575 228.537 64.9389 228.537C65.5202 228.537 66.0331 228.848 66.3377 229.32Z" fill="#99C5D0"/>
<path d="M77.3204 229.072C77.5059 230.374 78.653 231.27 79.8825 231.074C81.112 230.877 81.9584 229.663 81.7729 228.361C81.5874 227.059 80.4403 226.163 79.2108 226.36C77.9813 226.556 77.1349 227.77 77.3204 229.072Z" fill="white"/>
<path d="M78.1507 228.94C78.267 229.756 78.9864 230.318 79.7575 230.195C80.5286 230.072 81.0594 229.31 80.9431 228.494C80.8267 227.677 80.1073 227.115 79.3362 227.239C78.5651 227.362 78.0344 228.124 78.1507 228.94Z" fill="#6E6E72"/>
<path d="M148.639 228.997C145.697 227.415 148.495 222.244 141.389 220.641C139.862 220.296 138.249 220.679 137.017 221.646C134.881 223.325 134.56 224.316 131.297 224.468C129.288 224.561 127.355 225.55 126.803 227.484C126.207 229.572 125.844 232.337 127.074 234.503C128.798 237.538 137.452 236.331 140.397 235.822C141.051 235.709 141.73 235.733 142.375 235.577C142.617 235.518 142.858 235.44 143.093 235.368C144.347 234.988 145.691 235.761 146.999 235.841C148.177 235.913 149.463 235.902 150.33 235.64C151.44 235.304 151.461 231.705 151.345 229.503C151.319 229.019 150.66 228.86 150.247 229.115C149.334 229.676 148.639 228.997 148.639 228.997Z" fill="#F4F4F4"/>
<path d="M148.279 222.02C147.752 223.485 147.223 224.581 146.477 225.323C145.742 226.056 145.058 226.989 145.187 228.019C145.323 229.102 146.29 229.964 147.268 229.479C149.062 228.591 150.219 226.527 150.885 225.013C151.1 224.525 151.088 223.971 150.881 223.48L150.236 221.942C149.866 221.061 148.603 221.122 148.279 222.02Z" fill="white"/>
<path fill-rule="evenodd" clip-rule="evenodd" d="M138.35 229.242C138.673 229.712 138.189 230.217 137.618 230.217H136.487C135.916 230.217 135.432 229.712 135.755 229.242C136.047 228.818 136.519 228.542 137.052 228.542C137.586 228.542 138.058 228.818 138.35 229.242Z" fill="#99C5D0"/>
<path fill-rule="evenodd" clip-rule="evenodd" d="M134.25 229.233C134.558 229.714 134.074 230.215 133.503 230.215H132.194C131.624 230.215 131.14 229.714 131.448 229.233C131.753 228.759 132.266 228.447 132.849 228.447C133.432 228.447 133.945 228.759 134.25 229.233Z" fill="#99C5D0"/>
<path fill-rule="evenodd" clip-rule="evenodd" d="M130.048 229.231C130.358 229.711 129.874 230.213 129.303 230.213H127.996C127.425 230.213 126.941 229.711 127.25 229.231C127.555 228.758 128.068 228.447 128.649 228.447C129.231 228.447 129.744 228.758 130.048 229.231Z" fill="#99C5D0"/>
<path d="M143.851 228.856C144.037 230.157 145.184 231.053 146.413 230.857C147.643 230.661 148.489 229.446 148.304 228.144C148.118 226.842 146.971 225.946 145.742 226.143C144.512 226.339 143.666 227.554 143.851 228.856Z" fill="white"/>
<path d="M144.681 228.721C144.798 229.538 145.517 230.1 146.288 229.977C147.059 229.853 147.59 229.092 147.474 228.275C147.357 227.459 146.638 226.897 145.867 227.02C145.096 227.143 144.565 227.905 144.681 228.721Z" fill="#6E6E72"/>
<path d="M17.6871 95.7128C13.4663 87.7986 9.86427 75.998 17.2973 64.0019C25.5232 50.7264 35.127 48.6709 35.127 48.6709" stroke="#FFF066" stroke-width="2.21698" stroke-linecap="round"/>
<path d="M23.1865 111.221C20.9296 119.946 32.7065 137.975 51.7147 142.891C70.7229 147.808 89.7644 137.75 92.0212 129.025C92.9049 125.608 78.1584 119.06 59.1503 114.144C40.1421 109.227 24.4824 106.21 23.1865 111.221Z" fill="#604747"/>
<path d="M24.3807 110.966C24.035 112.302 24.4016 113.896 25.6498 115.72C26.8961 117.542 28.947 119.474 31.7019 121.387C37.2041 125.206 45.3138 128.808 54.7261 131.243C64.1384 133.677 72.9777 134.459 79.6418 133.786C82.9784 133.449 85.7089 132.754 87.6823 131.765C89.6584 130.775 90.7518 129.559 91.0975 128.222C91.4431 126.886 91.0766 125.292 89.8284 123.468C88.582 121.646 86.5311 119.714 83.7763 117.801C78.274 113.982 70.1644 110.38 60.7521 107.945C51.3398 105.511 42.5005 104.729 35.8364 105.402C32.4998 105.739 29.7692 106.434 27.7959 107.423C25.8197 108.413 24.7264 109.629 24.3807 110.966Z" fill="#474860" stroke="#7B6161" stroke-width="2.18769"/>
<path d="M45.1061 66.6704C44.9951 65.0859 47.0881 63.2688 49.7811 62.6118C51.9302 62.0874 54.5873 63.3931 55.5727 63.9418C55.7817 64.0582 55.7952 64.3604 55.6007 64.5645C54.707 65.502 52.3205 67.8281 50.1831 68.3496C47.4901 69.0067 45.2171 68.2548 45.1061 66.6704Z" fill="#7BD94C"/>
<path d="M46.8966 66.5837C46.4163 66.5757 46.0366 66.1848 46.2966 65.7119C46.7999 64.7963 48.1235 63.9135 49.7154 63.5251C50.5597 63.3191 51.5038 63.4586 52.329 63.698C53.1911 63.948 52.9727 65.2202 52.0505 65.579C51.3353 65.8573 50.6089 66.1181 49.9329 66.2863C48.7808 66.5731 47.7714 66.5982 46.8966 66.5837Z" fill="#99F16D"/>
<path d="M23.3217 110.692C21.5064 117.71 35.444 127.386 54.4522 132.302C73.4604 137.218 90.3412 135.514 92.1565 128.496C93.9718 121.478 80.0342 111.803 61.026 106.886C42.0178 101.97 25.137 103.674 23.3217 110.692Z" fill="#363642"/>
<ellipse rx="10.1013" ry="10.0571" transform="matrix(-0.999899 0.0142374 0.0142374 0.999899 40.4629 67.8327)" fill="#CA2318"/>
<rect width="20.2025" height="1.49786" transform="matrix(-0.999899 0.0142374 0.0142374 0.999899 50.5396 66.1924)" fill="#CA2318"/>
<path d="M30.8104 66.4727C30.8858 71.7651 35.2567 75.9976 40.5774 75.9219C45.8981 75.8461 50.1467 71.4909 50.0714 66.1985C49.996 60.9061 45.6251 56.6736 40.3044 56.7493C34.9837 56.8251 30.7351 61.1803 30.8104 66.4727Z" fill="#FF5D29" stroke="#CA2318" stroke-width="0.939646"/>
<path fill-rule="evenodd" clip-rule="evenodd" d="M39.2447 60.0455C39.0182 59.3807 39.4248 58.6602 40.1269 58.6316C43.6206 58.4891 46.8863 60.7341 47.8809 64.2307C47.9681 64.5373 48.0354 64.8448 48.0835 65.1518C48.1949 65.8625 47.5345 66.4001 46.8257 66.273L44.3132 65.8227C44.1081 65.7859 43.9502 65.625 43.8932 65.4247C43.5017 64.0483 42.3686 63.0796 41.0496 62.821C40.535 62.7202 40.0519 62.4144 39.8828 61.9184L39.2447 60.0455ZM46.6048 68.1903C47.2898 68.3131 47.7258 69.0055 47.4267 69.6324C46.5033 71.568 44.7781 73.1124 42.5446 73.7425C40.2503 74.3897 37.9045 73.9352 36.0767 72.6958C35.5048 72.3079 35.5242 71.4981 36.0436 71.0444L37.3078 69.9404C37.7341 69.5681 38.3608 69.5735 38.8816 69.7978C39.6351 70.1222 40.5006 70.2001 41.3484 69.9609C42.1878 69.7241 42.8782 69.2137 43.3487 68.5537C43.6783 68.0911 44.214 67.7618 44.7742 67.8622L46.6048 68.1903ZM33.2373 69.1563C33.5033 69.8308 34.354 69.9583 34.8995 69.4819L36.6497 67.9535C36.7978 67.8242 36.8465 67.617 36.7927 67.4277C36.4301 66.1529 36.7932 64.8437 37.6328 63.9351C37.9967 63.5414 38.2065 62.9935 38.0334 62.4855L37.4252 60.7005C37.1961 60.0283 36.4205 59.706 35.8482 60.1256C33.3255 61.9754 32.0877 65.2528 32.9917 68.4307C33.0624 68.679 33.1444 68.9211 33.2373 69.1563Z" fill="#D93B2C"/>
<path d="M35.6912 62.1238L36.187 62.6621" stroke="#FFB69F" stroke-width="0.939646" stroke-linecap="round"/>
<path d="M46.418 63.5563L45.7463 63.8502" stroke="#FFB69F" stroke-width="0.939646" stroke-linecap="round"/>
<path d="M39.8041 72.2344L39.8914 71.5092" stroke="#FFB69F" stroke-width="0.939646" stroke-linecap="round"/>
<path d="M34.483 64.2257L35.1299 64.501" stroke="#FFB69F" stroke-width="0.939646" stroke-linecap="round"/>
<path d="M44.8056 61.7408L44.3352 62.2617" stroke="#FFB69F" stroke-width="0.939646" stroke-linecap="round"/>
<path d="M42.1951 71.7755L41.9836 71.1074" stroke="#FFB69F" stroke-width="0.939646" stroke-linecap="round"/>
<path d="M34.0437 66.6987L34.7454 66.665" stroke="#FFB69F" stroke-width="0.939646" stroke-linecap="round"/>
<path d="M42.5988 60.5271L42.4045 61.1992" stroke="#FFB69F" stroke-width="0.939646" stroke-linecap="round"/>
<path d="M44.3656 70.4984L43.8831 69.9902" stroke="#FFB69F" stroke-width="0.939646" stroke-linecap="round"/>
<path fill-rule="evenodd" clip-rule="evenodd" d="M26.5525 115.103C25.4046 113.425 25.2022 112.158 25.4397 111.24C25.6772 110.322 26.4685 109.312 28.286 108.401C30.0978 107.493 32.6846 106.819 35.9462 106.49C42.4514 105.833 51.1577 106.593 60.4782 109.004C69.7987 111.415 77.7815 114.972 83.1525 118.7C85.8455 120.569 87.7813 122.413 88.9256 124.085C90.0735 125.763 90.276 127.03 90.0385 127.948C89.801 128.866 89.0097 129.876 87.1922 130.787C85.3803 131.695 82.7936 132.369 79.5319 132.698C73.0268 133.355 64.3205 132.595 55 130.184C45.6795 127.773 37.6966 124.216 32.3257 120.488C29.6327 118.619 27.6969 116.775 26.5525 115.103ZM54.4522 132.302C35.444 127.386 21.5064 117.71 23.3217 110.692C25.137 103.674 42.0178 101.97 61.026 106.886C80.0342 111.803 93.9718 121.478 92.1565 128.496C90.3412 135.514 73.4604 137.218 54.4522 132.302Z" fill="#676881"/>
<path d="M45.3885 45.268C7.83028 73.8252 31.7823 119.663 55.2326 121.752C70.486 123.111 79.7022 129.867 79.67 132.807C72.0669 133.243 54.6387 132.601 35.2068 122.89C10.917 110.751 26.3734 47.0912 36.718 44.0856C54.0419 39.0522 58.0666 35.6283 45.3885 45.268Z" fill="#FFC147"/>
<path d="M70.9672 133.632C69.4064 132.217 64.7538 129.051 58.6304 127.7C50.9762 126.012 38.3479 123.949 31.4017 112.865" stroke="#FFD951" stroke-width="2.21698"/>
<ellipse rx="8.09127" ry="8.05587" transform="matrix(-0.999899 0.0142374 0.0142374 0.999899 69.5772 129.024)" fill="#CA2318"/>
<rect width="16.1825" height="1.19981" transform="matrix(-0.999899 0.0142374 0.0142374 0.999899 77.6499 127.711)" fill="#CA2318"/>
<path d="M61.8479 127.935C61.9083 132.175 65.4095 135.565 69.6714 135.504C73.9334 135.444 77.3366 131.955 77.2762 127.716C77.2159 123.476 73.7147 120.086 69.4528 120.147C65.1908 120.207 61.7876 123.696 61.8479 127.935Z" fill="#FF5D29" stroke="#CA2318" stroke-width="0.752666"/>
<path fill-rule="evenodd" clip-rule="evenodd" d="M68.6029 122.789C68.4215 122.257 68.7472 121.68 69.3096 121.657C72.1079 121.543 74.7236 123.341 75.5202 126.142C75.59 126.387 75.6438 126.633 75.6823 126.878C75.7716 127.448 75.2427 127.878 74.6748 127.777L72.6603 127.416C72.4966 127.386 72.3706 127.258 72.3251 127.098C72.0116 125.996 71.1044 125.22 70.0483 125.013C69.6363 124.932 69.2495 124.687 69.1142 124.29L68.6029 122.789ZM74.4984 129.312C75.0471 129.411 75.3963 129.965 75.1568 130.467C74.4173 132.018 73.0352 133.256 71.2458 133.761C69.4076 134.279 67.5282 133.915 66.064 132.922C65.606 132.611 65.6216 131.962 66.0376 131.599L67.0498 130.715C67.3913 130.417 67.8933 130.421 68.3106 130.601C68.9142 130.861 69.6075 130.923 70.2867 130.732C70.9593 130.542 71.5125 130.133 71.8894 129.604C72.1534 129.233 72.5826 128.969 73.0315 129.05L74.4984 129.312ZM63.7901 130.086C64.0031 130.626 64.6846 130.729 65.1216 130.347L66.5231 129.123C66.6416 129.019 66.6806 128.854 66.6375 128.702C66.347 127.681 66.6382 126.632 67.3112 125.904C67.6028 125.589 67.771 125.15 67.6323 124.743L67.1454 123.314C66.9619 122.775 66.3407 122.517 65.8823 122.853C63.8613 124.335 62.8697 126.96 63.5938 129.506C63.6503 129.704 63.7159 129.898 63.7901 130.086Z" fill="#D93B2C"/>
<path d="M65.7559 124.452L66.1528 124.883" stroke="#FFB69F" stroke-width="0.752666" stroke-linecap="round"/>
<path d="M74.348 125.6L73.8103 125.835" stroke="#FFB69F" stroke-width="0.752666" stroke-linecap="round"/>
<path d="M69.0506 132.55L69.1206 131.969" stroke="#FFB69F" stroke-width="0.752666" stroke-linecap="round"/>
<path d="M64.7876 126.135L65.3054 126.355" stroke="#FFB69F" stroke-width="0.752666" stroke-linecap="round"/>
<path d="M73.0565 124.145L72.6799 124.562" stroke="#FFB69F" stroke-width="0.752666" stroke-linecap="round"/>
<path d="M70.9659 132.181L70.7966 131.646" stroke="#FFB69F" stroke-width="0.752666" stroke-linecap="round"/>
<path d="M64.4355 128.117L64.9976 128.09" stroke="#FFB69F" stroke-width="0.752666" stroke-linecap="round"/>
<path d="M71.288 123.173L71.1323 123.712" stroke="#FFB69F" stroke-width="0.752666" stroke-linecap="round"/>
<path d="M72.7035 131.158L72.3169 130.751" stroke="#FFB69F" stroke-width="0.752666" stroke-linecap="round"/>
<path d="M45.0136 90.049C48.4776 98.625 39.5654 102.747 38.4907 98.0999C38.4007 97.7105 38.8415 97.4066 39.2375 97.4603C40.0459 97.5702 41.0495 97.4362 41.6265 96.9432C42.377 96.3019 42.0163 94.5521 41.0419 94.7097C39.7254 94.9227 37.7428 98.3105 35.8215 99.968C34.9055 100.758 33.7084 100.196 33.1067 99.1459L32.3463 97.8194C31.9226 97.0802 31.9744 96.1398 32.6021 95.5637C35.0973 93.274 38.3556 92.884 39.1868 91.1521C39.5142 90.4699 39.2043 89.3746 38.449 89.4217C37.6171 89.4736 36.8841 91.0121 36.4352 92.3263C36.2814 92.7766 35.6698 92.8394 35.5299 92.3846C33.8299 86.8622 41.7921 82.0736 45.0136 90.049Z" fill="#DDD79F"/>
<path d="M34.3929 90.4287L36.8024 95.4835C37.6687 97.3007 39.7501 99.0036 41.1499 97.5568C42.1621 96.5105 42.4791 94.4392 40.7672 90.8485C37.7363 84.4908 35.2548 87.9196 34.3929 90.4287Z" fill="#B19468"/>
<path d="M44.0778 89.0412C47.5418 97.6171 38.6297 101.74 37.555 97.092C37.465 96.7026 37.9058 96.3987 38.3018 96.4525C39.1102 96.5623 40.1138 96.4284 40.6908 95.9353C41.4412 95.294 41.0806 93.5442 40.1061 93.7019C38.7897 93.9149 36.8071 97.3027 34.8858 98.9602C33.9698 99.7504 32.7727 99.1876 32.1711 98.138L31.4107 96.8115C30.987 96.0724 31.0388 95.1319 31.6665 94.5559C34.1616 92.2661 37.4199 91.8762 38.251 90.1442C38.5784 89.462 38.2685 88.3668 37.5133 88.4139C36.6815 88.4658 35.9484 90.0043 35.4995 91.3185C35.3457 91.7687 34.7342 91.8316 34.5942 91.3768C32.8942 85.8544 40.8564 81.0659 44.0778 89.0412Z" fill="#FFFACF"/>
<path d="M87.8129 50.0065C91.631 56.0696 98.2602 52.3387 95.8273 49.5572C95.6235 49.3241 95.2328 49.4633 95.0871 49.7365C94.7897 50.2942 94.2507 50.864 93.6794 51.0031C92.9364 51.1839 92.0005 50.1643 92.5412 49.6235C93.2717 48.893 96.2987 49.1827 98.2108 48.7269C99.1225 48.5095 99.3115 47.5024 98.9247 46.6486L98.4359 45.5697C98.1635 44.9685 97.5492 44.5748 96.9028 44.7081C94.3334 45.238 92.6117 47.1083 91.1468 46.8456C90.5698 46.7421 90.0221 46.051 90.394 45.5979C90.8036 45.0987 92.1025 45.3355 93.1316 45.649C93.4842 45.7565 93.8008 45.4008 93.5786 45.1067C90.8794 41.5358 84.2623 44.368 87.8129 50.0065Z" fill="#DDD79F"/>
<path d="M92.8639 43.5076L94.9476 47.3123C95.6967 48.6801 95.8232 50.7595 94.2799 50.9832C93.1638 51.145 91.7188 50.4054 90.2387 47.7026C87.6181 42.917 90.897 42.912 92.8639 43.5076Z" fill="#B19468"/>
<path d="M87.6032 48.9616C91.4213 55.0247 98.0505 51.2938 95.6176 48.5122C95.4138 48.2792 95.0231 48.4184 94.8774 48.6916C94.58 49.2492 94.041 49.8191 93.4697 49.9582C92.7267 50.139 91.7908 49.1194 92.3315 48.5786C93.0619 47.848 96.089 48.1378 98.0012 47.6819C98.9128 47.4646 99.1018 46.4575 98.715 45.6038L98.2261 44.5247C97.9538 43.9236 97.3395 43.5299 96.6931 43.6632C94.1236 44.193 92.4019 46.0635 90.937 45.8007C90.3601 45.6972 89.8124 45.0061 90.1843 44.553C90.5939 44.0538 91.8928 44.2906 92.9219 44.6041C93.2745 44.7116 93.5911 44.3559 93.3689 44.0618C90.6697 40.4908 84.0525 43.323 87.6032 48.9616Z" fill="#FFFACF"/>
<path d="M47.9107 122.328C37.3008 117.416 23.9577 100.725 36.9237 93.2541C49.5498 85.9786 58.151 103.515 53.3084 108.749C48.4657 113.984 46.6932 92.7687 44.1337 104.981" stroke="#FFC147" stroke-width="2.18769" stroke-linecap="round"/>
<path d="M77.8076 131.368C76.9105 128.522 67.7162 118.972 56.7785 119.099C44.1527 119.244 38.74 118.288 34.7879 112.505" stroke="#FFC147" stroke-width="2.18769" stroke-linecap="round"/>
<path d="M61.9068 48.4338C15.1399 55.7732 24.0237 118.806 46.2428 127.505C46.2428 127.505 44.2112 126.905 35.6676 122.635C4.45901 107.039 8.48481 40.8208 53.3559 33.0862C76.0401 29.176 82.1226 45.2613 61.9068 48.4338Z" fill="#FFD951"/>
<path d="M17.2974 64.0017C9.86436 75.9977 13.4664 87.7984 17.6871 95.7125C29.2327 112.145 29.1608 120.477 36.9512 127.734" stroke="#FFF066" stroke-width="2.21698" stroke-linecap="round"/>
<path fill-rule="evenodd" clip-rule="evenodd" d="M23.9486 95.6136C24.5605 95.0762 25.0131 94.3102 25.2196 93.3499C25.8203 90.5577 24.1244 87.1883 21.432 85.8247C19.7918 84.994 18.1589 85.0992 16.9985 85.9406C16.8428 85.7194 16.6749 85.5057 16.4968 85.3032C15.9207 84.6433 15.2278 84.0843 14.4566 83.6937C11.7642 82.3301 9.09426 83.4884 8.49361 86.2806C8.12769 87.9815 8.61311 89.8974 9.65871 91.4426C8.95895 91.9835 8.44209 92.8031 8.21691 93.8499C7.61626 96.6421 9.31219 100.011 12.0045 101.375C13.3043 102.033 14.5953 102.094 15.6537 101.678C16.3564 102.572 17.2348 103.323 18.2346 103.829C21.2626 105.363 24.2671 104.061 24.9429 100.919C25.3152 99.1886 24.9002 97.2523 23.9486 95.6136ZM20.8154 94.974L20.8834 94.658C22.1702 94.9593 23.0779 93.8815 23.2555 93.056C23.706 90.9617 22.4341 88.4348 20.4147 87.4121C19.0861 86.7392 17.3862 87.28 17.0463 88.86L16.4369 88.5513C16.4184 87.1402 14.8131 86.5471 13.7599 86.102C11.2819 85.0548 9.52234 85.1461 9.21578 87.3577C9.0176 88.7873 10.4361 92.1281 12.5834 92.8652L12.4475 93.4972C10.297 92.7749 10.2491 93.8278 10.1131 94.4598C9.70015 96.3796 10.0753 99.8087 11.9265 100.746C13.7776 101.684 14.2575 100.742 14.1567 99.6398C14.2957 99.5578 16.1745 99.6069 16.4792 99.7612C16.1393 101.341 17.4188 102.412 18.6125 102.952C20.8155 103.948 23.0255 102.098 23.4079 99.7852C23.6767 98.1591 22.6436 95.9 20.8154 94.974Z" fill="#6ED24B"/>
<path fill-rule="evenodd" clip-rule="evenodd" d="M23.0258 93.8377C23.5335 91.4776 22.1528 88.6297 19.907 87.4923C19.1131 87.0902 18.2431 87.075 17.5328 87.3686C17.0314 87.5758 16.5885 87.9454 16.2984 88.4746C16.1481 87.8991 15.8626 87.3586 15.5217 86.9006C15.0227 86.2303 14.369 85.6861 13.7393 85.4215C12.4138 84.8644 11.3392 84.9194 10.5548 85.4837C9.78461 86.0377 9.35546 87.0385 9.18929 88.2199C8.99495 89.6016 9.67868 91.5206 11.243 92.627C10.6403 92.6661 10.2034 92.944 9.89615 93.3183C9.45302 93.858 9.29898 94.5748 9.23012 94.8953L9.22715 94.9091C8.75699 97.0947 10.0355 99.7339 12.1177 100.788C13.8128 101.647 15.1823 100.958 15.5489 99.8298C15.6819 101.383 16.855 102.743 17.9885 103.254C20.4156 104.348 22.7126 103.106 23.1431 100.523C23.3978 98.9945 22.6898 97 21.3014 95.7495C21.6226 95.6587 21.9028 95.4956 22.1358 95.2987C22.5952 94.9107 22.9141 94.3569 23.0258 93.8377ZM14.6565 99.4681L14.0066 98.6972C13.7696 98.7029 14.4552 99.6092 14.4781 99.8823C14.5328 100.532 13.868 100.554 12.3352 99.7772C10.817 99.0083 9.84642 97.0568 10.2022 95.4029C10.2708 95.0842 10.3891 94.5575 10.6991 94.1799C10.9843 93.8326 10.6228 93.7176 11.4903 94.005C11.7356 94.0862 12.7826 93.8319 12.8361 93.583L12.9721 92.951C13.0038 92.8038 12.972 92.6325 12.885 92.482C12.798 92.3314 12.6646 92.2165 12.5195 92.1674C10.753 91.5689 10.0143 89.7997 10.1775 88.6397C10.3221 87.6117 10.6797 86.8632 11.2214 86.4736C11.7488 86.0942 12.5112 86.0112 13.5965 86.4673C13.9915 86.6333 14.455 87.0054 14.8199 87.4956C15.1812 87.9811 15.4096 88.5319 15.4135 89.0576C15.4154 89.3128 15.5774 89.5747 15.8042 89.6896L15.7394 90.1146C16.0087 90.251 16.9331 90.0103 16.9932 89.7311C17.1292 89.0986 17.5336 88.654 18.057 88.4377C18.5849 88.2195 19.1912 88.2512 19.6894 88.5035C21.3713 89.3552 22.4441 91.5154 22.0508 93.3438C21.9849 93.6501 21.7696 94.0523 21.4258 94.3427C21.0864 94.6294 20.6648 94.7725 20.2005 94.6672C19.9726 94.6155 19.7787 94.7407 19.729 94.9714L19.661 95.2874C19.601 95.5667 19.7705 95.9036 20.0398 96.0399C21.533 96.7962 22.3882 98.7012 22.159 100.077C21.8189 102.117 20.0169 103.058 18.158 102.22C17.2045 101.79 16.3227 100.557 16.5853 99.3365C16.6453 99.0573 16.4758 98.7204 16.2065 98.584C16.0624 98.511 15.909 98.4732 15.7902 98.4507C15.6631 98.4266 15.5342 98.4129 15.4233 98.4047C15.3112 98.3965 15.2104 98.3936 15.1379 98.3926C15.1014 98.3922 15.0716 98.3922 15.0504 98.3924L15.0254 98.3927L15.0181 98.3928L14.0066 98.6972C14.0066 98.6972 14.5304 98.9056 14.6565 99.4681Z" fill="#CAFF87"/>
<path fill-rule="evenodd" clip-rule="evenodd" d="M22.5507 96.3675C23.1626 95.8301 23.6151 95.0641 23.8217 94.1038C24.4223 91.3116 22.7264 87.9422 20.0341 86.5786C18.3939 85.7479 16.7609 85.8531 15.6005 86.6945C15.4449 86.4733 15.277 86.2596 15.0988 86.0571C14.5227 85.3972 13.8299 84.8382 13.0586 84.4476C10.3662 83.084 7.69631 84.2423 7.09566 87.0345C6.72974 88.7354 7.21516 90.6513 8.26076 92.1966C7.561 92.7374 7.04414 93.557 6.81896 94.6038C6.21831 97.396 7.91424 100.765 10.6066 102.129C11.9064 102.787 13.1973 102.848 14.2558 102.432C14.9584 103.325 15.8369 104.077 16.8367 104.583C19.8647 106.117 22.8692 104.815 23.545 101.673C23.9173 99.9425 23.5023 98.0062 22.5507 96.3675ZM19.4175 95.728L19.4854 95.412C20.7722 95.7132 21.6799 94.6354 21.8575 93.8099C22.308 91.7156 21.0362 89.1887 19.0168 88.166C17.6882 87.4931 15.9882 88.0339 15.6483 89.6139L15.0389 89.3052C15.0204 87.8942 13.7719 86.4726 12.7187 86.0276C10.2408 84.9804 8.95271 86.2568 8.64614 88.4684C8.44797 89.898 9.39496 92.0537 11.5423 92.7908L11.4063 93.4228C9.25582 92.7005 8.85113 94.5817 8.71517 95.2137C8.3022 97.1335 9.46805 99.4497 11.3192 100.387C13.1703 101.325 14.4014 100.196 14.3007 99.0938C14.4396 99.0118 14.978 99.0865 15.2827 99.2408C14.9429 100.821 16.135 102.384 17.3287 102.924C19.5317 103.92 21.6276 102.852 22.01 100.539C22.2788 98.913 21.2457 96.6539 19.4175 95.728Z" fill="#6ED24B"/>
<path fill-rule="evenodd" clip-rule="evenodd" d="M22.1564 93.9588C22.6641 91.5986 21.2834 88.7508 19.0376 87.6134C18.2438 87.2113 17.3738 87.1961 16.6634 87.4897C16.162 87.6969 15.7191 88.0665 15.429 88.5957C15.2787 88.0202 14.9933 87.4797 14.6523 87.0217C14.1534 86.3514 13.4996 85.8072 12.8699 85.5426C11.5444 84.9855 10.4698 85.0405 9.68542 85.6048C8.91523 86.1588 8.48607 87.1596 8.31991 88.341C8.12557 89.7227 8.8093 91.6417 10.3736 92.7481C9.77095 92.7872 9.33405 93.0651 9.02676 93.4394C8.58363 93.9791 8.4296 94.6959 8.36073 95.0164L8.35777 95.0302C7.8876 97.2158 9.1661 99.855 11.2483 100.91C12.9434 101.768 14.3129 101.079 14.6795 99.9509C14.8125 101.504 15.9856 102.864 17.1191 103.375C19.5462 104.469 21.8433 103.227 22.2737 100.644C22.5285 99.1156 21.8204 97.1211 20.432 95.8706C20.7532 95.7798 21.0334 95.6167 21.2664 95.4198C21.7258 95.0318 22.0447 94.478 22.1564 93.9588ZM14.2714 99.0765L14.1452 98.514C13.9083 98.5196 13.7511 98.7244 13.7741 98.9975C13.8288 99.6474 12.9986 100.675 11.4658 99.8983C9.94762 99.1294 8.97704 97.1779 9.33283 95.524C9.40139 95.2053 9.51972 94.6786 9.82975 94.301C10.1149 93.9537 10.5802 93.7078 11.4477 93.9951C11.6931 94.0764 11.9132 93.9529 11.9667 93.7041L12.1027 93.0721C12.1344 92.9249 12.1026 92.7536 12.0156 92.603C11.9287 92.4525 11.7952 92.3376 11.6501 92.2885C9.88364 91.69 9.14494 89.9208 9.30809 88.7608C9.45268 87.7328 9.81035 86.9843 10.352 86.5947C10.8795 86.2153 11.6418 86.1323 12.7271 86.5884C13.1221 86.7544 13.5856 87.1265 13.9505 87.6167C14.3119 88.1022 14.5402 88.653 14.5441 89.1787C14.546 89.4339 14.708 89.6958 14.9349 89.8107L15.5275 90.1109C15.7967 90.2472 16.0637 90.1314 16.1238 89.8522C16.2598 89.2197 16.6642 88.7751 17.1876 88.5588C17.7155 88.3406 18.3219 88.3722 18.8201 88.6246C20.5019 89.4763 21.5747 91.6365 21.1814 93.4649C21.1155 93.7712 20.9002 94.1734 20.5564 94.4638C20.217 94.7505 19.7954 94.8936 19.3311 94.7883C19.1033 94.7366 18.9093 94.8618 18.8596 95.0925L18.7917 95.4085C18.7316 95.6878 18.9012 96.0247 19.1704 96.161C20.6636 96.9173 21.5189 98.8223 21.2896 100.198C20.9495 102.238 19.1475 103.179 17.2886 102.341C16.3351 101.911 15.4533 100.678 15.7159 99.4576C15.7759 99.1784 15.6064 98.8415 15.3371 98.7051C15.193 98.6321 15.0397 98.5943 14.9208 98.5718C14.7937 98.5477 14.6649 98.534 14.5539 98.5258C14.4419 98.5176 14.3411 98.5147 14.2685 98.5137C14.232 98.5133 14.2022 98.5133 14.181 98.5135L14.156 98.5137L14.1487 98.5139L14.1452 98.514C14.1452 98.514 14.1452 98.514 14.2714 99.0765Z" fill="#CAFF87"/>
<path d="M33.2004 35.5011C26.0301 35.0039 25.1273 42.581 28.82 42.2574C29.1294 42.2303 29.248 41.8314 29.113 41.5517C28.8374 40.9808 28.695 40.207 28.9206 39.662C29.214 38.9532 30.5937 38.7989 30.7116 39.5569C30.8708 40.5809 28.8442 42.8607 28.0815 44.6791C27.7178 45.5461 28.4216 46.2953 29.3419 46.4874L30.505 46.7303C31.1531 46.8656 31.8356 46.6011 32.1103 45.9988C33.2022 43.6043 32.7067 41.1028 33.7867 40.0721C34.212 39.6661 35.0959 39.6317 35.2427 40.2011C35.4044 40.8283 34.4439 41.74 33.5807 42.3878C33.285 42.6097 33.3856 43.0767 33.7554 43.0708C38.245 42.9988 39.8685 35.9635 33.2004 35.5011Z" fill="#DDD79F"/>
<path d="M35.4742 43.4439L31.1596 42.8791C29.6085 42.6761 27.8495 41.5476 28.582 40.1653C29.1117 39.1657 30.566 38.4334 33.631 38.8347C39.0578 39.5454 37.1209 42.2036 35.4742 43.4439Z" fill="#B19468"/>
<path d="M34.1701 35.9562C26.9998 35.459 26.097 43.0361 29.7898 42.7124C30.0991 42.6853 30.2177 42.2865 30.0827 42.0068C29.8071 41.4359 29.6647 40.662 29.8903 40.117C30.1837 39.4083 31.5634 39.254 31.6813 40.0119C31.8406 41.0359 29.8139 43.3158 29.0512 45.1342C28.6875 46.0012 29.3913 46.7504 30.3116 46.9425L31.4748 47.1854C32.1228 47.3207 32.8053 47.0562 33.08 46.4539C34.172 44.0594 33.6764 41.5579 34.7564 40.5271C35.1818 40.1212 36.0656 40.0867 36.2124 40.6561C36.3742 41.2833 35.4136 42.1951 34.5504 42.8429C34.2547 43.0648 34.3553 43.5318 34.725 43.5258C39.2147 43.4539 40.8383 36.4185 34.1701 35.9562Z" fill="#FFFACF"/>
<path d="M23.1533 111.687C20.8964 120.412 32.7085 137.972 51.7167 142.888C70.7249 147.805 89.7663 137.747 92.0232 129.021C84.7855 134.671 72.416 135.556 53.4078 130.639C34.3996 125.723 27.9786 121.416 23.1533 111.687Z" fill="#474860"/>
<path d="M90.0361 127.947C89.7986 128.865 89.0073 129.875 87.1898 130.786C85.3779 131.694 82.7912 132.368 79.5295 132.697C73.0244 133.354 64.3181 132.594 54.9976 130.183C47.0559 128.129 40.0853 125.243 34.8742 122.127C32.7387 120.851 28.176 118.735 23.1895 111.405C22.4429 118.352 36.0779 127.549 54.4498 132.301C73.458 137.217 90.3387 135.514 92.1541 128.495L90.0361 127.947Z" fill="#676881"/>
<path d="M43.7815 37.0944C53.6768 31.1685 78.3592 28.7636 80.5623 43.2009C82.7932 57.8201 48.4645 41.3367 30.7394 70.016" stroke="#FFD951" stroke-width="2.21698"/>
<path d="M17.6869 95.7126C13.4661 87.7984 9.8641 75.9978 17.2972 64.0017" stroke="#FFF066" stroke-width="2.21698" stroke-linecap="round"/>
<path d="M30.7397 70.015C43.0664 50.0701 63.4234 51.9678 73.9294 50.0566" stroke="#FFD951" stroke-width="2.21698"/>
<ellipse rx="8.62031" ry="7.71142" transform="matrix(-0.893718 -0.448629 -0.448629 0.893718 64.7042 54.0245)" stroke="#E374AA" stroke-width="3.77874"/>
<ellipse rx="7.89209" ry="6.98219" transform="matrix(-0.893718 -0.448629 -0.448629 0.893718 65.0303 53.3714)" stroke="#F9E7F8" stroke-width="1.41703"/>
<path d="M45.918 38.8891C45.4529 37.163 47.2125 35.188 49.8481 34.478C51.9363 33.9154 54.9403 35.3186 56.0981 35.9257C56.3648 36.0656 56.4445 36.3976 56.271 36.6437C55.5407 37.6797 53.6061 40.1702 51.5322 40.7289C48.8966 41.439 46.383 40.6153 45.918 38.8891Z" fill="#409737"/>
<path d="M46.8078 38.5247C46.4235 37.0984 48.4777 38.0698 50.5504 37.5114C51.2569 37.321 52.0212 37.1322 52.7217 36.9661C53.625 36.7518 54.2368 37.7008 53.5799 38.3568C52.8743 39.0615 52.0073 39.7427 51.1262 39.9801C49.0534 40.5385 47.1921 39.951 46.8078 38.5247Z" fill="#59B350"/>
<path d="M45.7604 39.2196C44.0591 37.7694 44.6162 34.322 47.0049 31.5196C48.9439 29.2448 53.3596 28.3872 54.9535 28.1449C55.2671 28.0972 55.539 28.34 55.5253 28.6569C55.4574 30.2222 55.0953 34.508 53.1661 36.7713C50.7775 39.5737 47.4618 40.6698 45.7604 39.2196Z" fill="#7BD94C"/>
<path d="M47.6314 37.7422C47.1171 38.0941 46.3821 38.0528 46.1896 37.4601C45.7696 36.1672 46.3799 34.1724 47.8392 32.4604C48.6677 31.4884 50.0547 30.8291 51.335 30.3973C52.4677 30.0152 53.3266 31.2816 52.6962 32.2973C52.1132 33.2367 51.494 34.1832 50.8314 34.9684C49.7928 36.1992 48.6509 37.0447 47.6314 37.7422Z" fill="#99F16D"/>
<path d="M79.2917 57.111C80.787 56.5753 83.1028 58.0983 84.4643 60.5128C85.5509 62.4398 85.0132 65.3511 84.7518 66.4483C84.6964 66.6809 84.4091 66.7758 84.1599 66.6437C83.0155 66.0372 80.1302 64.3695 79.0495 62.4531C77.688 60.0385 77.7965 57.6468 79.2917 57.111Z" fill="#7BD94C"/>
<path d="M79.8604 58.8117C79.738 58.3472 80.0115 57.8759 80.5372 57.9981C81.5548 58.2348 82.763 59.27 83.5678 60.6973C83.9947 61.4543 84.116 62.4009 84.1089 63.2601C84.1016 64.1577 82.8178 64.2919 82.2228 63.5013C81.7612 62.8881 81.3135 62.2594 80.9686 61.6542C80.3806 60.6227 80.0832 59.6578 79.8604 58.8117Z" fill="#99F16D"/>
<ellipse rx="6.82914" ry="4.22407" transform="matrix(-0.91085 0.412737 0.412737 0.91085 52.7812 119.703)" stroke="#E374AA" stroke-width="2.99348"/>
<ellipse rx="6.25203" ry="3.82449" transform="matrix(-0.91085 0.412737 0.412737 0.91085 52.6158 119.339)" stroke="#F9E7F8" stroke-width="1.12255"/>
<circle r="0.769346" transform="matrix(-0.941 0.338406 0.338406 0.941 87.689 83.4492)" fill="white"/>
<circle r="0.769346" transform="matrix(-0.941 0.338406 0.338406 0.941 77.919 89.246)" fill="white"/>
<circle r="0.404748" transform="matrix(-0.933288 0.359128 0.359128 0.933288 88.5996 90.2243)" fill="white"/>
<circle r="0.404748" transform="matrix(-0.933288 0.359128 0.359128 0.933288 76.1582 94.235)" fill="white"/>
<circle r="0.404748" transform="matrix(-0.933288 0.359128 0.359128 0.933288 83.8106 104.144)" fill="white"/>
<circle r="0.404748" transform="matrix(-0.933288 0.359128 0.359128 0.933288 70.9761 113.444)" fill="white"/>
<circle r="0.404748" transform="matrix(-0.933288 0.359128 0.359128 0.933288 62.7273 114.183)" fill="white"/>
<circle r="0.769346" transform="matrix(-0.941 0.338406 0.338406 0.941 82.0708 96.0917)" fill="white"/>
<circle r="0.769346" transform="matrix(-0.941 0.338406 0.338406 0.941 74.3655 99.246)" fill="white"/>
<circle r="0.769346" transform="matrix(-0.941 0.338406 0.338406 0.941 67.1697 108.036)" fill="white"/>
<circle r="0.769346" transform="matrix(-0.941 0.338406 0.338406 0.941 70.8128 120.286)" fill="white"/>
<circle r="0.769346" transform="matrix(-0.941 0.338406 0.338406 0.941 79.2349 108.945)" fill="white"/>
<path fill-rule="evenodd" clip-rule="evenodd" d="M82.1405 25.3461C82.3531 26.1602 82.2618 27.0929 81.8088 28.037C81.2709 29.158 79.8835 30.2981 78.3271 30.3939C79.4462 30.7874 80.1022 32.173 79.2033 33.8471C78.0992 35.9034 75.4301 37.1183 73.2564 36.5959L73.2427 36.5926C72.924 36.5161 72.2111 36.3449 71.6821 35.889C71.3153 35.5728 71.0479 35.1294 71.0233 34.526C69.8797 36.0633 67.9449 36.7009 66.5682 36.4735C65.6074 36.3148 64.7711 35.9838 64.205 35.4416L64.7096 35.1575C65.0593 34.9607 65.4897 35.0032 65.8563 35.1663C66.1849 35.3124 66.572 35.423 67.0116 35.4956C68.1673 35.6865 69.9537 34.9904 70.5943 33.2389C70.647 33.095 70.765 32.9643 70.9176 32.8809C71.0702 32.7976 71.2422 32.7699 71.3886 32.8051L72.0172 32.9562C72.2646 33.0157 72.4938 34.0684 72.4067 34.3117C72.2479 34.7553 72.2039 34.8749 72.245 34.9268C72.2838 34.9756 72.3978 34.9647 72.5626 35.1069C72.9327 35.4258 73.4564 35.5568 73.7735 35.6329C75.4184 36.0283 77.3926 35.1047 78.1976 33.6054C79.0104 32.0916 79.005 31.4265 78.354 31.4656C78.2379 31.4725 78.0051 31.5959 77.7755 31.7177C77.4638 31.8829 77.1579 32.0451 77.1579 31.9086L77.9442 31.2773C77.3788 31.39 77.1579 31.9086 77.1579 31.9086L76.8778 30.8901L76.8779 30.8828L76.8782 30.8577C76.8785 30.8366 76.8792 30.8068 76.8806 30.7703C76.8832 30.6978 76.8886 30.5971 76.8995 30.4853C76.9103 30.3746 76.9271 30.2461 76.9542 30.1196C76.9795 30.0013 77.0211 29.8489 77.0975 29.7066C77.2403 29.4407 77.5811 29.2792 77.8589 29.346C79.0728 29.6377 80.3265 28.7857 80.779 27.8427C80.9711 27.4424 81.0788 27.0427 81.1088 26.6583C81.142 26.2323 81.3235 25.806 81.6959 25.5963L82.1405 25.3461Z" fill="#FF604A"/>
<path fill-rule="evenodd" clip-rule="evenodd" d="M63.3589 35.917C62.9118 36.1687 62.7168 36.7303 63.0341 37.1335C63.5585 37.7996 64.338 38.3001 65.334 38.5394C67.0257 38.946 68.9526 38.5066 70.5225 37.4984C71.0464 38.2109 71.8534 38.7472 72.8945 38.9974C75.6715 39.6648 79.0806 38.0501 80.5082 35.3911C81.1975 34.1075 81.2895 32.8184 80.8983 31.7503C81.8087 31.0692 82.581 30.2091 83.1112 29.2217C83.7797 27.9767 83.9567 26.7241 83.7101 25.6317C83.5854 25.0794 82.9477 24.891 82.4543 25.1687L81.5809 25.6603C81.9961 26.5189 81.9899 27.5972 81.4638 28.69C80.8955 29.8705 79.3043 31.0248 77.7329 30.6472C77.5713 30.9481 77.4838 31.4845 77.5625 31.6254C78.6669 31.5511 79.7657 32.8089 78.7841 34.637C77.8025 36.4652 75.459 37.5752 73.5497 37.1164C72.9211 36.9653 71.0502 36.5157 71.8237 34.3831L71.1952 34.232C70.4069 36.3611 68.2291 37.2561 66.8046 37.0238C65.5429 36.8179 64.5954 36.2978 64.2236 35.4304L63.3589 35.917Z" fill="#E34A28"/>
<path fill-rule="evenodd" clip-rule="evenodd" d="M81.937 25.4611C82.475 26.4235 82.5111 27.6566 81.9097 28.9099C81.3718 30.0309 79.9844 31.171 78.4281 31.2668C79.5472 31.6603 80.2031 33.0459 79.3043 34.72C78.2001 36.7763 75.5311 37.9912 73.3574 37.4688L73.3436 37.4655C73.0249 37.389 72.312 37.2178 71.783 36.7619C71.4162 36.4457 71.1489 36.0023 71.1242 35.3989C69.9806 36.9362 68.0458 37.5738 66.6691 37.3464C65.4921 37.152 64.5018 36.699 63.9664 35.9157C63.9105 35.8339 63.86 35.7492 63.8151 35.6615L64.8562 35.0755C64.8904 35.1445 64.9292 35.2103 64.972 35.273C65.3486 35.8239 66.0882 36.1994 67.1125 36.3685C68.2682 36.5594 70.0547 35.8633 70.6953 34.1118C70.7479 33.9679 70.8659 33.8372 71.0185 33.7538C71.1711 33.6705 71.3431 33.6428 71.4896 33.678L72.1181 33.8291C72.3656 33.8886 72.4837 34.1116 72.3966 34.3549C72.0886 35.2153 72.3232 35.6864 72.6636 35.9798C73.0337 36.2988 73.5574 36.4297 73.8744 36.5058C75.5193 36.9012 77.4935 35.9776 78.2986 34.4783C79.1114 32.9645 78.1043 32.11 77.4533 32.1491C77.1797 32.1655 76.9788 32.0035 76.9788 31.7664L76.9788 31.763L76.9788 31.7557L76.9791 31.7306C76.9795 31.7095 76.9802 31.6797 76.9815 31.6432C76.9842 31.5707 76.9895 31.47 77.0004 31.3582C77.0112 31.2475 77.028 31.119 77.0551 30.9925C77.0805 30.8742 77.122 30.7218 77.1984 30.5795C77.3412 30.3136 77.6821 30.1521 77.9598 30.2189C79.1738 30.5106 80.4274 29.6586 80.8799 28.7156C81.1643 28.123 81.2637 27.5319 81.1999 26.9899C81.1355 26.4425 81.2851 25.828 81.7654 25.5577L81.937 25.4611Z" fill="#FF604A"/>
<path fill-rule="evenodd" clip-rule="evenodd" d="M41.3935 118.767C40.9048 119.254 40.2065 119.574 39.3507 119.644C38.3346 119.726 36.9539 119.214 36.243 118.152C36.4267 119.107 35.7166 120.144 34.1596 120.199C32.2471 120.267 30.2839 118.879 29.7557 117.124L29.7523 117.112C29.6748 116.855 29.5015 116.28 29.6058 115.717C29.6781 115.326 29.8817 114.954 30.2988 114.687C28.7376 114.512 27.4866 113.405 27.0788 112.337C26.7942 111.591 26.683 110.862 26.8331 110.237L27.2428 110.477C27.5267 110.643 27.6744 110.965 27.7104 111.292C27.7426 111.585 27.8243 111.905 27.9545 112.246C28.2968 113.144 29.528 114.121 31.0331 113.851C31.1568 113.829 31.2981 113.859 31.4201 113.932C31.5422 114.006 31.6329 114.116 31.6684 114.234L31.8212 114.742C31.8813 114.942 31.2305 115.539 31.0222 115.578C30.6425 115.649 30.5396 115.667 30.5198 115.718C30.5012 115.765 30.556 115.841 30.5235 116.017C30.4505 116.411 30.5742 116.836 30.6513 117.092C31.051 118.42 32.5208 119.437 33.9152 119.387C35.3231 119.337 35.7919 119.059 35.4952 118.614C35.4423 118.534 35.2587 118.421 35.0776 118.308C34.8318 118.156 34.5906 118.006 34.6872 117.95L35.4592 118.246C35.1458 117.892 34.6872 117.95 34.6872 117.95L35.2928 117.331L35.2979 117.328L35.3158 117.317C35.331 117.309 35.3524 117.297 35.3787 117.283C35.4312 117.255 35.5047 117.217 35.5884 117.179C35.6713 117.14 35.7692 117.099 35.87 117.066C35.9642 117.035 36.0893 117.002 36.2217 116.997C36.469 116.988 36.7242 117.163 36.7916 117.387C37.0867 118.368 38.208 118.903 39.0628 118.834C39.4257 118.805 39.7533 118.716 40.0379 118.578C40.3533 118.426 40.7302 118.378 41.0325 118.555L41.3935 118.767Z" fill="#FF604A"/>
<path fill-rule="evenodd" clip-rule="evenodd" d="M26.1463 109.833C25.7833 109.62 25.3051 109.714 25.1507 110.106C24.8956 110.752 24.8633 111.511 25.1053 112.315C25.5164 113.681 26.6237 114.864 27.9864 115.559C27.6983 116.225 27.6519 117.018 27.9049 117.858C28.5797 120.101 31.1317 121.848 33.6046 121.76C34.7983 121.718 35.7493 121.25 36.344 120.532C37.2025 120.895 38.1307 121.087 39.049 121.054C40.2068 121.013 41.167 120.621 41.8387 119.995C42.1784 119.679 42.0483 119.149 41.6477 118.914L40.9387 118.499C40.5023 119.148 39.7361 119.589 38.7448 119.668C37.6741 119.753 36.1992 119.103 35.8173 117.835C35.5375 117.844 35.1214 118.004 35.0541 118.118C35.5631 118.869 35.1264 120.167 33.4262 120.228C31.726 120.288 29.9716 119.087 29.5077 117.545C29.3549 117.038 28.9003 115.527 30.7301 115.194L30.5774 114.686C28.744 115.007 27.2103 113.835 26.7863 112.73C26.4107 111.752 26.3876 110.866 26.8482 110.244L26.1463 109.833Z" fill="#E34A28"/>
<path fill-rule="evenodd" clip-rule="evenodd" d="M41.2286 118.669C40.7693 119.447 39.911 119.982 38.7749 120.074C37.7588 120.157 36.3781 119.645 35.6672 118.583C35.851 119.538 35.1408 120.575 33.5838 120.63C31.6714 120.698 29.7081 119.309 29.1799 117.554L29.1766 117.543C29.0991 117.286 28.9257 116.71 29.03 116.147C29.1023 115.757 29.3059 115.384 29.723 115.117C28.1618 114.943 26.9108 113.836 26.503 112.767C26.1544 111.853 26.066 110.965 26.3994 110.262C26.4343 110.189 26.4734 110.118 26.5169 110.05L27.3621 110.545C27.3274 110.598 27.2968 110.652 27.2701 110.709C27.0356 111.203 27.0753 111.882 27.3787 112.677C27.7211 113.574 28.9522 114.552 30.4573 114.282C30.581 114.26 30.7223 114.289 30.8443 114.363C30.9664 114.437 31.0571 114.547 31.0927 114.665L31.2454 115.173C31.3055 115.373 31.1964 115.548 30.9881 115.587C30.2515 115.725 30.0149 116.085 29.9477 116.448C29.8748 116.842 29.9984 117.267 30.0755 117.523C30.4752 118.851 31.945 119.867 33.3394 119.818C34.7473 119.768 34.9363 118.702 34.6397 118.257C34.515 118.07 34.5467 117.861 34.7145 117.763L34.717 117.761L34.7222 117.758L34.74 117.748C34.7552 117.74 34.7766 117.728 34.803 117.714C34.8554 117.686 34.9289 117.648 35.0126 117.609C35.0955 117.571 35.1934 117.53 35.2942 117.497C35.3884 117.466 35.5135 117.432 35.6459 117.428C35.8932 117.419 36.1484 117.594 36.2159 117.818C36.5109 118.798 37.6322 119.334 38.487 119.265C39.0242 119.221 39.4839 119.047 39.8414 118.778C40.2024 118.506 40.6994 118.359 41.0893 118.587L41.2286 118.669Z" fill="#FF604A"/>
<path fill-rule="evenodd" clip-rule="evenodd" d="M28.8246 67.716C28.1312 67.6577 27.429 67.3299 26.8175 66.7168C26.0913 65.9889 25.584 64.5932 25.9376 63.3532C25.3228 64.1176 24.0618 64.2479 23.0037 63.0862C21.704 61.6594 21.4911 59.2437 22.4966 57.6924L22.5029 57.6826C22.6503 57.4551 22.98 56.9463 23.4811 56.6592C23.8286 56.4602 24.2479 56.3738 24.7253 56.5206C23.8411 55.2057 23.8764 53.5215 24.4325 52.5105C24.8206 51.805 25.3089 51.2439 25.8875 50.9517L25.9701 51.4233C26.0274 51.7502 25.8758 52.0741 25.6478 52.3151C25.4434 52.5311 25.2506 52.8026 25.073 53.1254C24.6061 53.9741 24.6574 55.5587 25.847 56.5403C25.9447 56.6209 26.0142 56.7489 26.0371 56.8908C26.0601 57.0327 26.0344 57.1745 25.9666 57.279L25.6759 57.7276C25.5614 57.9042 24.6774 57.7932 24.5116 57.6584C24.2094 57.4125 24.1283 57.3452 24.0765 57.363C24.0277 57.3798 24.0049 57.4717 23.8487 57.5611C23.4981 57.762 23.2519 58.1343 23.1052 58.3606C22.3443 59.5345 22.5213 61.3281 23.4689 62.3685C24.4257 63.4189 24.9459 63.5977 25.0945 63.0793C25.121 62.9869 25.0889 62.7714 25.0571 62.5588C25.014 62.2703 24.9718 61.9871 25.0782 62.0247L25.3541 62.8115C25.4218 62.3396 25.0782 62.0247 25.0782 62.0247L25.9495 62.0865L25.9552 62.0885L25.9746 62.0957C25.991 62.1018 26.0141 62.1105 26.0422 62.1216C26.098 62.1436 26.175 62.1755 26.2592 62.2148C26.3426 62.2537 26.4382 62.3022 26.5293 62.3581C26.6146 62.4104 26.722 62.4847 26.8119 62.5835C26.98 62.768 27.0121 63.0782 26.8836 63.2764C26.3221 64.1428 26.6415 65.3549 27.2523 65.9672C27.5117 66.2272 27.7937 66.4212 28.0852 66.5504C28.4083 66.6935 28.6908 66.9523 28.7518 67.3004L28.8246 67.716Z" fill="#FF604A"/>
<path fill-rule="evenodd" clip-rule="evenodd" d="M25.7504 50.1597C25.6772 49.7417 25.293 49.4351 24.8912 49.5717C24.2275 49.7972 23.6228 50.2673 23.1621 50.9782C22.3795 52.1855 22.1919 53.809 22.5462 55.3105C21.8464 55.523 21.2061 56.0047 20.7245 56.7477C19.44 58.7295 19.761 61.8322 21.4415 63.6771C22.2528 64.5678 23.2327 64.9942 24.1733 64.9831C24.4538 65.8804 24.9121 66.7194 25.5361 67.4045C26.323 68.2683 27.2511 68.751 28.1707 68.8594C28.6357 68.9141 28.9581 68.4687 28.8773 68.0075L28.7343 67.1912C27.9505 67.2787 27.1114 66.9771 26.404 66.2662C25.6399 65.4982 25.1776 63.9398 25.9045 62.8184C25.7143 62.6096 25.3201 62.3937 25.1886 62.4163C24.9426 63.2979 23.6594 63.8087 22.504 62.5402C21.3486 61.2717 21.1279 59.1388 22.011 57.7762C22.3018 57.3276 23.1672 55.9924 24.6173 57.1825L24.9081 56.7339C23.4648 55.5333 23.3661 53.5889 23.9393 52.542C24.447 51.6148 25.1133 51.019 25.892 50.9678L25.7504 50.1597Z" fill="#E34A28"/>
<path fill-rule="evenodd" clip-rule="evenodd" d="M28.7921 67.527C27.8936 67.6817 26.9221 67.3705 26.1103 66.5567C25.3842 65.8288 24.8769 64.4332 25.2305 63.1932C24.6157 63.9576 23.3547 64.0878 22.2966 62.9262C20.997 61.4994 20.784 59.0838 21.7895 57.5325L21.7959 57.5227C21.9433 57.2952 22.2729 56.7864 22.774 56.4994C23.1215 56.3003 23.5408 56.2139 24.0181 56.3607C23.134 55.0459 23.1693 53.3617 23.7254 52.3508C24.2009 51.4864 24.8267 50.8389 25.5847 50.6369C25.6639 50.6158 25.7439 50.5998 25.8246 50.5888L25.9951 51.562C25.9318 51.5697 25.8699 51.5818 25.8092 51.5979C25.276 51.74 24.7797 52.2134 24.3659 52.9656C23.899 53.8143 23.9503 55.3989 25.1399 56.3804C25.2376 56.461 25.307 56.589 25.33 56.731C25.353 56.8729 25.3272 57.0146 25.2595 57.1191L24.9687 57.5677C24.8543 57.7443 24.6479 57.775 24.4821 57.6402C23.8959 57.1632 23.464 57.2166 23.1416 57.4012C22.791 57.6021 22.5448 57.9744 22.3982 58.2007C21.6373 59.3746 21.8142 61.1682 22.7618 62.2085C23.7186 63.2589 24.6621 62.7087 24.8107 62.1903C24.8732 61.9724 25.0548 61.8603 25.2397 61.9256L25.2424 61.9265L25.248 61.9286L25.2675 61.9357C25.2839 61.9418 25.307 61.9505 25.335 61.9616C25.3908 61.9837 25.4679 62.0155 25.5521 62.0548C25.6354 62.0937 25.731 62.1422 25.8221 62.1981C25.9074 62.2504 26.0148 62.3247 26.1048 62.4235C26.2729 62.608 26.305 62.9182 26.1765 63.1164C25.6149 63.9828 25.9344 65.1948 26.5452 65.8071C26.929 66.1919 27.3626 66.4322 27.8028 66.5316C28.2474 66.6319 28.6854 66.9177 28.764 67.3666L28.7921 67.527Z" fill="#FF604A"/>
</g>
<defs>
<clipPath id="clip0">
<rect width="192" height="256" fill="white" transform="matrix(-1 0 0 1 192 0)"/>
</clipPath>
</defs>
</svg>

