<svg width="66" height="66" viewBox="0 0 66 66" fill="none" xmlns="http://www.w3.org/2000/svg">
<rect x="1.5" y="1.5" width="63" height="63" rx="31.5" fill="#4FB3EB"/>
<rect x="1.5" y="1.5" width="63" height="63" rx="31.5" stroke="white" stroke-width="3"/>
<rect x="1.5" y="1.5" width="63" height="63" rx="31.5" stroke="#94DFFF" stroke-width="3"/>
<mask id="mask0" mask-type="alpha" maskUnits="userSpaceOnUse" x="3" y="3" width="60" height="60">
<path d="M3 33C3 16.4315 16.4315 3 33 3C49.5685 3 63 16.4315 63 33C63 49.5685 49.5685 63 33 63C16.4315 63 3 49.5685 3 33Z" fill="#9C4050"/>
</mask>
<g mask="url(#mask0)">
<path d="M47.5855 41.4466L17.365 44.1023C16.5103 44.1774 15.8783 44.9312 15.9534 45.7859L16.019 46.533C16.0941 47.3877 16.8479 48.0197 17.7027 47.9446L47.9231 45.2889C48.7778 45.2138 49.4099 44.46 49.3347 43.6053L49.2691 42.8582C49.194 42.0035 48.4402 41.3715 47.5855 41.4466Z" fill="#F6B11B"/>
<path d="M46.4624 31.4845L47.1027 31.4255C47.3725 31.401 47.6349 31.3236 47.8748 31.1977C48.1147 31.0718 48.3274 30.8999 48.5009 30.6918C48.6743 30.4836 48.805 30.2433 48.8855 29.9846C48.9661 29.7259 48.9948 29.4539 48.9702 29.1841L48.954 29.014C48.9041 28.4694 48.64 27.9669 48.2196 27.6171C47.7993 27.2672 47.2572 27.0986 46.7127 27.1484L46.0723 27.2074L46.4624 31.4845Z" fill="#FF553E"/>
<path d="M45.4576 25.5375L45.2449 25.5571C44.5948 25.6167 44.1162 26.192 44.1759 26.842L44.6664 32.1882C44.726 32.8382 45.3013 33.3168 45.9513 33.2572L46.164 33.2377C46.8141 33.178 47.2927 32.6027 47.2331 31.9527L46.7426 26.6066C46.6829 25.9565 46.1076 25.4779 45.4576 25.5375Z" fill="#FFB762"/>
<path d="M39.3472 43.5735L46.933 42.8779C47.3886 42.8361 47.848 42.8845 48.2849 43.0204C48.7218 43.1562 49.1277 43.3768 49.4793 43.6696C49.8309 43.9624 50.1214 44.3216 50.3342 44.7267C50.5469 45.1318 50.6777 45.5748 50.7192 46.0305C50.761 46.4862 50.7125 46.9456 50.5767 47.3826C50.4409 47.8196 50.2203 48.2255 49.9275 48.5772C49.6347 48.9289 49.2755 49.2194 48.8705 49.4323C48.4654 49.6451 48.0223 49.7761 47.5666 49.8176L39.9837 50.5142L39.3472 43.5735Z" fill="#BEDCE4"/>
<path d="M49.7632 49.6524C63.1503 66.8643 67.2369 49.2433 63.3886 38.1703" stroke="#81BCCA" stroke-width="4.04582" stroke-miterlimit="10" stroke-linecap="round"/>
<path d="M49.5654 51.3774C61.6678 66.2255 67.4384 50.9832 63.62 39.1119" stroke="#A2CED8" stroke-width="4.04582" stroke-miterlimit="10" stroke-dasharray="5.06 3.03"/>
<path d="M47.1863 46.3301C49.6924 48.0514 52.2923 59.9447 59.6918 58.0906" stroke="#E1EFF2" stroke-width="7.08019" stroke-miterlimit="10"/>
<path d="M63.6772 38.3064C65.0399 38.0891 66.2606 37.3396 67.071 36.2227C67.8813 35.1058 68.2151 33.7129 67.9989 32.35" stroke="#81BCCA" stroke-width="3.03437" stroke-miterlimit="10" stroke-linecap="round"/>
<path d="M28.5198 9.73844C20.2506 10.4972 14.1695 17.8909 14.9365 26.2519L19.4791 75.752C19.493 75.9137 19.5387 76.071 19.6134 76.215C19.6882 76.359 19.7906 76.4869 19.9148 76.5913C20.039 76.6957 20.1825 76.7746 20.3372 76.8235C20.4919 76.8724 20.6548 76.8903 20.8164 76.8762L48.3133 74.3537C48.475 74.3382 48.6321 74.291 48.7755 74.2148C48.9189 74.1386 49.046 74.0349 49.1493 73.9096C49.2526 73.7843 49.3302 73.6398 49.3776 73.4844C49.425 73.3291 49.4413 73.1659 49.4256 73.0043L44.8801 23.5042C44.1131 15.1433 36.7879 8.97971 28.5198 9.73844Z" fill="#B0DEE7"/>
<path d="M48.6732 80.1758L46.3333 46.8288L40.8026 48.9464C35.881 50.8307 30.5111 51.2128 25.3723 50.0441L18.7256 48.5325L19.7657 81.612L48.6732 80.1758Z" fill="#438CFA" stroke="#6AA6FF" stroke-width="1.86446"/>
<path d="M44.5077 51.2674L42.0657 51.4914C41.947 51.5006 41.8295 51.4627 41.7385 51.3859C41.6476 51.3091 41.5905 51.1995 41.5797 51.081C41.5688 50.9625 41.6051 50.8444 41.6806 50.7524C41.7561 50.6603 41.8648 50.6017 41.9832 50.5892L44.4251 50.3651C44.4848 50.3588 44.5452 50.3644 44.6027 50.3816C44.6602 50.3988 44.7137 50.4273 44.7601 50.4654C44.8065 50.5035 44.8449 50.5504 44.873 50.6034C44.9012 50.6565 44.9185 50.7146 44.9239 50.7744C44.9294 50.8341 44.9229 50.8944 44.9049 50.9517C44.8869 51.009 44.8577 51.0621 44.8189 51.1079C44.7802 51.1538 44.7327 51.1915 44.6793 51.2189C44.6259 51.2463 44.5675 51.2627 44.5077 51.2674Z" fill="#A2CED8"/>
<path d="M44.851 55.047L42.409 55.271C42.2893 55.2821 42.17 55.2452 42.0775 55.1683C41.9849 55.0915 41.9267 54.981 41.9157 54.8612C41.9046 54.7415 41.9415 54.6222 42.0184 54.5297C42.0952 54.4372 42.2057 54.379 42.3255 54.3679L44.7674 54.1438C44.8872 54.1327 45.0064 54.1697 45.099 54.2465C45.1915 54.3234 45.2497 54.4339 45.2608 54.5536C45.2719 54.6734 45.2349 54.7927 45.158 54.8852C45.0812 54.9777 44.9707 55.0359 44.851 55.047Z" fill="#A2CED8"/>
<path d="M44.6799 53.1616L42.2389 53.3857C42.1794 53.3916 42.1193 53.3858 42.062 53.3685C42.0048 53.3511 41.9516 53.3226 41.9054 53.2846C41.8592 53.2466 41.8211 53.1998 41.7931 53.1469C41.7651 53.0941 41.7478 53.0362 41.7423 52.9767C41.7368 52.9171 41.7431 52.857 41.761 52.8C41.7788 52.7429 41.8077 52.6899 41.8461 52.644C41.8845 52.5982 41.9316 52.5604 41.9847 52.5328C42.0377 52.5052 42.0958 52.4885 42.1553 52.4834L44.5973 52.2594C44.657 52.2531 44.7174 52.2587 44.7749 52.2759C44.8324 52.2931 44.8859 52.3216 44.9323 52.3597C44.9787 52.3977 45.0171 52.4447 45.0452 52.4977C45.0734 52.5507 45.0907 52.6088 45.0961 52.6686C45.1016 52.7284 45.0951 52.7887 45.0771 52.846C45.0591 52.9032 45.0299 52.9563 44.9911 53.0022C44.9524 53.0481 44.9049 53.0858 44.8515 53.1132C44.7981 53.1405 44.7397 53.157 44.6799 53.1616Z" fill="#A2CED8"/>
<path d="M44.3317 49.3789L41.886 49.6031C41.7662 49.6141 41.647 49.577 41.5546 49.5C41.4621 49.4231 41.404 49.3126 41.3931 49.1928C41.3821 49.073 41.4192 48.9538 41.4961 48.8614C41.5731 48.769 41.6836 48.7109 41.8034 48.6999L44.2502 48.4786C44.3095 48.4732 44.3693 48.4795 44.4261 48.4972C44.483 48.5149 44.5358 48.5436 44.5816 48.5817C44.6274 48.6198 44.6652 48.6665 44.6929 48.7192C44.7206 48.7719 44.7377 48.8296 44.7431 48.8889C44.7485 48.9482 44.7422 49.008 44.7245 49.0649C44.7068 49.1217 44.6781 49.1746 44.64 49.2203C44.6019 49.2661 44.5552 49.3039 44.5025 49.3316C44.4497 49.3593 44.3921 49.3764 44.3328 49.3818L44.3317 49.3789Z" fill="#A2CED8"/>
<path d="M17.3821 12.2188L20.5516 14.7283" stroke="#B0DEE7" stroke-width="2.02291" stroke-miterlimit="10"/>
<ellipse rx="2.38881" ry="4.40735" transform="matrix(0.995462 -0.0951567 0.085473 0.99634 15.876 32.4159)" fill="#FFB762"/>
<path fill-rule="evenodd" clip-rule="evenodd" d="M15.7552 34.9217C15.9724 34.8804 16.1454 34.7048 16.2182 34.4774C16.4196 33.8483 16.5052 33.0811 16.4352 32.2652C16.3779 31.5971 16.2235 30.981 16.002 30.4609C15.9064 30.2365 15.7125 30.0769 15.4855 30.0662C15.3955 30.0619 15.3042 30.0641 15.212 30.073C14.0776 30.1831 13.2354 31.2781 13.3341 32.5148L13.3666 32.9227C13.4646 34.1513 14.4546 35.0559 15.5816 34.9466C15.6402 34.9409 15.6981 34.9325 15.7552 34.9217Z" fill="#F65539"/>
<path d="M40.8057 9.96805L38.255 12.7238" stroke="#B0DEE7" stroke-width="2.02291" stroke-miterlimit="10"/>
<path d="M36.5846 24.3863L26.7308 25.2904C23.7819 25.5609 21.6107 28.1708 21.8812 31.1197L21.9219 31.5632C22.1925 34.5121 24.8024 36.6833 27.7512 36.4128L37.6051 35.5087C40.554 35.2382 42.7252 32.6283 42.4546 29.6794L42.4139 29.2359C42.1434 26.287 39.5335 24.1158 36.5846 24.3863Z" fill="#3C4C87"/>
<path d="M30.4715 31.9707L29.0284 32.1031C28.5495 32.147 28.197 32.5708 28.2409 33.0496C28.2849 33.5285 28.7086 33.881 29.1875 33.8371L30.6306 33.7047C31.1094 33.6608 31.462 33.237 31.4181 32.7581C31.3741 32.2793 30.9503 31.9267 30.4715 31.9707Z" fill="#56D8E3"/>
<path d="M37.0854 30.2147L35.5598 30.3488C35.2114 30.3795 34.9538 30.6867 34.9844 31.0352L35.0104 31.3305C35.041 31.6789 35.3483 31.9365 35.6968 31.9059L37.2223 31.7717C37.5707 31.7411 37.8283 31.4338 37.7977 31.0854L37.7717 30.79C37.7411 30.4416 37.4338 30.184 37.0854 30.2147Z" fill="#56D8E3"/>
<path d="M39.4814 16.0024C38.1186 14.5455 36.4398 13.4205 34.5742 12.7137C32.7087 12.007 30.7059 11.7373 28.7198 11.9255" stroke="#ECFBFF" stroke-width="1.51718" stroke-miterlimit="10" stroke-linecap="round"/>
<path d="M41.827 19.6509C41.5527 19.0535 41.235 18.4769 40.8765 17.9258" stroke="#ECFBFF" stroke-width="1.51718" stroke-miterlimit="10" stroke-linecap="round"/>
<path d="M36.9831 37.8532L37.0129 38.191C37.0678 38.8493 36.8659 39.5027 36.4514 40.0087C36.0368 40.5146 35.4432 40.8319 34.8002 40.8912L33.5748 41.0009C32.9312 41.0566 32.292 40.8494 31.7968 40.4245C31.3015 39.9997 30.9905 39.3918 30.9316 38.7337L30.903 38.3969" fill="white"/>
<path d="M36.9831 37.8532L37.0129 38.191C37.0678 38.8493 36.8659 39.5027 36.4514 40.0087C36.0368 40.5146 35.4432 40.8319 34.8002 40.8912L33.5748 41.0009C32.9312 41.0566 32.292 40.8494 31.7968 40.4245C31.3015 39.9997 30.9905 39.3918 30.9316 38.7337L30.903 38.3969" stroke="#8CC2CF" stroke-width="1.31508" stroke-linecap="round" stroke-linejoin="round"/>
<path d="M15.4856 13.5086C17.1433 13.4626 18.4498 12.0813 18.4038 10.4236C18.3577 8.76587 16.9765 7.45936 15.3187 7.50544C13.661 7.55152 12.3545 8.93273 12.4006 10.5905C12.4466 12.2482 13.8279 13.5547 15.4856 13.5086Z" fill="#B0DEE7"/>
<path d="M15.4795 12.2379C16.4303 12.2115 17.1796 11.4193 17.1532 10.4686C17.1268 9.51782 16.3346 8.7685 15.3838 8.79493C14.4331 8.82135 13.6838 9.61351 13.7102 10.5643C13.7366 11.515 14.5288 12.2643 15.4795 12.2379Z" fill="#F65539"/>
<path d="M42.3123 11.1502C43.97 11.1042 45.2765 9.72295 45.2304 8.06521C45.1843 6.40748 43.8031 5.10097 42.1454 5.14704C40.4877 5.19312 39.1812 6.57433 39.2272 8.23207C39.2733 9.8898 40.6545 11.1963 42.3123 11.1502Z" fill="#B0DEE7"/>
<path d="M42.3062 9.8756C43.257 9.84918 44.0063 9.05702 43.9798 8.10626C43.9534 7.15551 43.1613 6.4062 42.2105 6.43262C41.2598 6.45905 40.5104 7.25121 40.5369 8.20196C40.5633 9.15271 41.3554 9.90203 42.3062 9.8756Z" fill="#F65539"/>
<path d="M31.28 83.7834C31.3625 85.6126 30.0066 87.1898 28.1857 87.3827L20.809 88.1641C19.7446 88.2768 18.8041 87.4723 18.7505 86.4033L16.6404 44.314L30.0295 56.043L31.28 83.7834Z" fill="#E1EFF2"/>
<path d="M43.219 34.9432L38.954 35.9194C38.7972 35.9553 38.6993 36.1115 38.7351 36.2682L38.7843 36.483C38.8202 36.6397 38.9763 36.7377 39.1331 36.7018L43.3981 35.7256C43.5549 35.6897 43.6529 35.5336 43.617 35.3768L43.5678 35.1621C43.5319 35.0053 43.3758 34.9073 43.219 34.9432Z" fill="#CDD5D9"/>
<path d="M35.1558 33.9191C35.1268 33.9078 35.1022 33.8875 35.0856 33.8612C35.069 33.8349 35.0612 33.804 35.0635 33.7729C35.0657 33.7419 35.0779 33.7124 35.0981 33.6888C35.1183 33.6651 35.1456 33.6486 35.1759 33.6416L36.7136 33.2894C36.7396 33.2837 36.7666 33.2852 36.7918 33.2937C36.8171 33.3022 36.8395 33.3175 36.8567 33.3378C36.8739 33.3581 36.8852 33.3827 36.8895 33.409C36.8938 33.4352 36.8909 33.4622 36.881 33.4869L36.2843 34.9455C36.2726 34.9741 36.252 34.9983 36.2256 35.0144C36.1993 35.0305 36.1684 35.0378 36.1376 35.0353C36.1068 35.0327 36.0776 35.0204 36.0543 35.0001C36.0309 34.9799 36.0146 34.9527 36.0077 34.9226L35.856 34.2561C35.8506 34.2327 35.8396 34.211 35.8239 34.1929C35.8082 34.1748 35.7883 34.1608 35.7659 34.1522L35.1558 33.9191Z" fill="#CDD5D9"/>
<path d="M42.6418 22.1359C44.0811 21.8995 46.067 23.6428 46.2435 24.7187" stroke="white" stroke-width="2.00663" stroke-linecap="round" stroke-linejoin="round"/>
<path d="M48.9791 23.9479L48.9571 23.9485L48.6981 23.972C48.5101 23.9894 48.3274 24.0437 48.1604 24.1318C47.9934 24.2198 47.8454 24.3399 47.7249 24.4852C47.6043 24.6305 47.5136 24.7981 47.4579 24.9785C47.4021 25.1589 47.3825 25.3484 47.4001 25.5364L47.9624 31.7011C48.7918 30.6082 49.3219 29.3179 49.5002 27.9575C49.6784 26.5971 49.4988 25.2138 48.979 23.9441L48.9791 23.9479Z" fill="#FFB762"/>
<path d="M45.2611 28.6445C45.183 27.7909 44.9375 26.961 44.5386 26.2023C44.1397 25.4436 43.5952 24.771 42.9363 24.2227C42.2774 23.6745 41.5169 23.2615 40.6983 23.0072C39.8797 22.753 39.0191 22.6625 38.1655 22.7409L34.8538 23.0447C34.1115 24.3477 33.7569 25.8357 33.8318 27.3334C33.9067 28.8312 34.2471 31.2432 35.1157 32.4657C35.9842 33.6882 37.3448 33.6702 38.7344 34.2338C40.1241 34.7974 41.6459 34.9523 43.1206 34.6802C43.8938 34.0018 44.4954 33.15 44.876 32.1944C45.2566 31.2389 45.4056 30.2067 45.3106 29.1825L45.2611 28.6445Z" fill="#3C4C87"/>
<path d="M57.302 89.907C54.1021 89.0536 52.6158 89.0571 49.8139 88.9538C48.4224 88.9024 47.244 87.9279 46.9011 86.5783L39.2467 56.4507L48.8576 43.1509L52.6425 79.0965C52.9133 81.668 53.7573 84.1461 55.1124 86.3484L57.302 89.907Z" fill="#E1EFF2"/>
<path d="M49.5118 31.7805C49.3226 31.7402 49.1572 31.6264 49.052 31.4641C48.9467 31.3019 48.9102 31.1045 48.9505 30.9153C48.9908 30.7262 49.1046 30.5608 49.2668 30.4555C49.4291 30.3502 49.6265 30.3138 49.8156 30.3541L52.6684 30.9589C52.8509 31.0053 53.0084 31.1204 53.1081 31.2802C53.2077 31.4401 53.2417 31.6322 53.2029 31.8165C53.1642 32.0008 53.0557 32.1629 52.9002 32.2691C52.7447 32.3753 52.5541 32.4172 52.3684 32.3862L49.5118 31.7805Z" stroke="#CAD3DD" stroke-width="1.74993"/>
<mask id="mask1" mask-type="alpha" maskUnits="userSpaceOnUse" x="32" y="20" width="18" height="18">
<path d="M41.0765 37.6028C45.9061 37.4571 49.7032 33.424 49.5576 28.5944C49.4119 23.7648 45.3788 19.9677 40.5492 20.1133C35.7196 20.2589 31.9225 24.2921 32.0681 29.1217C32.2137 33.9513 36.2469 37.7484 41.0765 37.6028Z" fill="#C4C4C4"/>
</mask>
<g mask="url(#mask1)">
<path d="M48.6541 31.5585L49.3762 31.4919C49.6804 31.4644 49.9763 31.3771 50.2468 31.2351C50.5173 31.0932 50.7572 30.8993 50.9528 30.6646C51.1483 30.4299 51.2957 30.1589 51.3865 29.8672C51.4773 29.5755 51.5098 29.2688 51.482 28.9646L51.4637 28.7728C51.4074 28.1587 51.1096 27.5921 50.6356 27.1976C50.1617 26.8031 49.5505 26.613 48.9364 26.6691L48.2143 26.7357L48.6541 31.5585Z" fill="#FF553E"/>
<path d="M47.517 24.8543L47.2771 24.8763C46.5442 24.9435 46.0045 25.5922 46.0717 26.3252L46.6248 32.3535C46.692 33.0865 47.3408 33.6262 48.0738 33.5589L48.3136 33.5369C49.0466 33.4697 49.5863 32.821 49.519 32.088L48.9659 26.0597C48.8987 25.3267 48.25 24.787 47.517 24.8543Z" fill="#FFB762"/>
<path d="M28.4235 7.03916C19.0992 7.89473 12.242 16.2319 13.107 25.6597L18.2292 81.4761C18.2449 81.6584 18.2964 81.8358 18.3807 81.9981C18.465 82.1605 18.5804 82.3047 18.7205 82.4224C18.8605 82.5401 19.0224 82.6291 19.1968 82.6842C19.3713 82.7394 19.5549 82.7596 19.7371 82.7437L50.7427 79.8993C50.925 79.8819 51.1021 79.8287 51.2638 79.7427C51.4256 79.6568 51.5688 79.5399 51.6853 79.3985C51.8018 79.2572 51.8893 79.0943 51.9427 78.9192C51.9962 78.744 52.0146 78.56 51.9969 78.3777L46.8714 22.5614C46.0065 13.1336 37.7467 6.18362 28.4235 7.03916Z" fill="#B0DEE7"/>
<path d="M37.514 23.5571L26.4028 24.5765C23.0777 24.8816 20.6294 27.8245 20.9345 31.1497L20.9804 31.6498C21.2854 34.9749 24.2283 37.4232 27.5535 37.1181L38.6647 36.0987C41.9898 35.7936 44.4381 32.8507 44.133 29.5256L44.0872 29.0255C43.7821 25.7003 40.8392 23.252 37.514 23.5571Z" fill="#3C4C87"/>
<path d="M38.3861 29.3177L35.968 29.5395C35.4006 29.5916 34.9829 30.0937 35.0349 30.6611L35.2568 33.0792C35.3088 33.6465 35.811 34.0643 36.3783 34.0122L38.7964 33.7904C39.3638 33.7383 39.7815 33.2362 39.7295 32.6688L39.5076 30.2507C39.4555 29.6834 38.9534 29.2656 38.3861 29.3177Z" fill="#56D8E3"/>
</g>
<path d="M43.1429 21.04C44.8355 21.3991 46.3837 22.2521 47.5916 23.4911C48.7995 24.7301 49.6128 26.2994 49.9288 28.0006C50.2448 29.7018 50.0492 31.4586 49.3668 33.0486C48.6844 34.6387 47.5458 35.9907 46.095 36.9337C44.6442 37.8767 42.9463 38.3682 41.2161 38.3463C39.486 38.3243 37.8011 37.7898 36.3747 36.8102C34.9483 35.8307 33.8444 34.4503 33.2026 32.8434C32.5608 31.2365 32.4099 29.4753 32.769 27.7827C33.0074 26.6588 33.4649 25.5929 34.1153 24.6458C34.7656 23.6987 35.5962 22.889 36.5595 22.2628C37.5228 21.6367 38.6 21.2065 39.7296 20.9967C40.8592 20.7869 42.019 20.8016 43.1429 21.04V21.04Z" stroke="#CAD3DD" stroke-width="1.74993"/>
<path d="M41.0775 37.6037C45.907 37.4581 49.7041 33.4249 49.5585 28.5954C49.4129 23.7658 45.3797 19.9687 40.5501 20.1143C35.7206 20.2599 31.9235 24.2931 32.0691 29.1227C32.2147 33.9522 36.2479 37.7493 41.0775 37.6037Z" stroke="#F0F6FF" stroke-width="1.74993"/>
<path d="M51.9429 31.5544C51.7826 32.311 51.9293 33.1003 52.3509 33.7487C52.7724 34.3971 53.4342 34.8515 54.1907 35.0121L58.6125 35.9472L68.8521 38.2258C69.2285 38.3096 69.6178 38.318 69.9975 38.2505C70.3771 38.183 70.7396 38.0409 71.064 37.8324C71.3884 37.6239 71.6683 37.3532 71.8874 37.0358C72.1065 36.7185 72.2606 36.3609 72.3406 35.9837C72.5005 35.2327 72.358 34.4489 71.9439 33.8023C71.5297 33.1558 70.8774 32.6985 70.1283 32.5298L55.4005 29.3066C55.0259 29.2269 54.6392 29.2219 54.2626 29.2918C53.8861 29.3617 53.5269 29.5051 53.2058 29.7139C52.8847 29.9226 52.6079 30.1926 52.3912 30.5085C52.1745 30.8243 52.0221 31.1797 51.9429 31.5544Z" fill="#E9465A"/>
<path opacity="0.43" d="M46.4997 29.4982C47.6561 28.27 47.1064 25.8742 45.2719 24.1471C43.4374 22.42 41.0128 22.0156 39.8565 23.2438C38.7001 24.4721 39.2498 26.8679 41.0843 28.595C42.9188 30.3221 45.3434 30.7265 46.4997 29.4982Z" fill="white"/>
<path d="M16.8385 49.5607C6.91059 62.3458 11.1883 79.5221 30.352 62.5177" stroke="#81BCCA" stroke-width="4.04582" stroke-miterlimit="10"/>
<path d="M16.8385 49.5607C6.91059 62.3458 11.1883 79.5221 30.352 62.5177" stroke="#A2CED8" stroke-width="4.04582" stroke-miterlimit="10" stroke-dasharray="5.06 3.03"/>
<path d="M18.6068 47.8159C15.0912 51.1819 8.77578 67.6321 18.6068 71.9997" stroke="#E1EFF2" stroke-width="7.08019" stroke-miterlimit="10"/>
<path d="M15.1466 42.9814L12.2788 46.3863C11.4558 47.3633 11.9285 48.8545 13.1662 49.1855L19.9893 51.0108C20.5676 51.1657 20.7773 51.8704 20.3762 52.3129L19.6611 53.1018C19.2556 53.5494 19.4747 54.2618 20.062 54.4077L29.4282 58.1262C30.208 58.3196 30.7032 57.3205 30.0711 56.8295L16.2612 42.8636C15.9197 42.5972 15.4257 42.6495 15.1466 42.9814Z" fill="#F7FBFF"/>
<rect x="56.542" y="52.7031" width="4.79432" height="9.25609" rx="1.59811" transform="rotate(-24.6965 56.542 52.7031)" fill="#F7FBFF"/>
<path d="M47.7226 40.7439L51.2104 43.5103C52.2113 44.304 52.0447 45.8595 50.8976 46.43L44.5739 49.5762C44.038 49.843 43.9727 50.5753 44.4538 50.9292L45.3115 51.5601C45.798 51.918 45.725 52.6598 45.1785 52.9196L38.0548 58.3988C37.329 58.7435 36.645 57.8628 37.1667 57.256L46.6061 40.8498C46.8884 40.5212 47.383 40.4742 47.7226 40.7439Z" fill="#F7FBFF"/>
<path fill-rule="evenodd" clip-rule="evenodd" d="M57.4866 32.483C58.3142 32.3518 59.0915 32.9163 59.2227 33.7439C59.2985 34.2222 59.4678 34.681 59.721 35.0939C59.9741 35.5068 60.3061 35.8658 60.698 36.1503C61.0899 36.4349 61.534 36.6395 62.005 36.7524C62.1649 36.7908 62.3269 36.8183 62.4899 36.835C64.0183 36.9912 63.6755 38.2737 63.9186 39.8053C63.0467 39.9437 62.156 39.909 61.2975 39.7032C60.439 39.4973 59.6294 39.1244 58.915 38.6056C58.2007 38.0869 57.5955 37.4325 57.1341 36.6798C56.6726 35.9272 56.364 35.091 56.2257 34.219C56.0945 33.3914 56.6591 32.6142 57.4866 32.483Z" fill="#7DC9DC"/>
<path d="M37.7521 62.0347C35.3108 63.3676 32.8945 64.2225 30.5522 62.2098C28.2099 60.1971 28.7272 57.8258 29.7291 55.2617" stroke="#7DC9DC" stroke-width="3.03437" stroke-miterlimit="10" stroke-linecap="round"/>
<path d="M24.5894 50.7392L24.335 51.0382C24.1983 51.197 24.1207 51.3983 24.1157 51.6079C24.1106 51.8174 24.1783 52.0223 24.3073 52.1875L36.0133 67.114L30.6574 55.713L24.5894 50.7392Z" fill="#FFC93F"/>
<path d="M47.9407 50.6961L48.2132 51.0014C48.3493 51.1564 48.4271 51.3539 48.4333 51.5601C48.4396 51.7663 48.3738 51.9682 48.2473 52.1311L36.5847 67.1222L41.8817 55.6749L47.9407 50.6961Z" fill="#FFC93F"/>
<path d="M30.4387 55.7095L35.9855 67.0416C36.0199 67.0972 36.068 67.143 36.1252 67.1748C36.1823 67.2065 36.2467 67.223 36.3121 67.2228C36.3774 67.2226 36.4417 67.2057 36.4986 67.1736C36.5556 67.1415 36.6034 67.0953 36.6374 67.0395L42.1851 55.649L41.6348 53.8117L30.9293 53.8349L30.4387 55.7095Z" fill="#FFE574"/>
<path d="M27.085 47.7804L24.3197 51.0643C24.2631 51.131 24.2215 51.2092 24.1978 51.2934C24.1742 51.3777 24.169 51.4661 24.1826 51.5525C24.1962 51.639 24.2284 51.7215 24.2768 51.7944C24.3252 51.8673 24.3888 51.9289 24.4632 51.975L30.9491 56.0278L41.4129 51.5473L27.085 47.7804Z" fill="#FFE574"/>
<path d="M45.4787 47.6886L48.1583 50.9204C48.2238 50.9978 48.2718 51.0884 48.2992 51.1861C48.3266 51.2837 48.3327 51.3861 48.317 51.4863C48.3014 51.5865 48.2644 51.6821 48.2085 51.7668C48.1527 51.8514 48.0793 51.9231 47.9934 51.9769L41.6223 55.9962L39.9001 51.46L45.4787 47.6886Z" fill="#FFE574"/>
<path d="M32.1364 45.3749L40.3869 45.3484C40.6352 45.3466 40.8804 45.4031 41.1029 45.5133L45.3841 47.6111C45.4375 47.6364 45.4832 47.6753 45.5168 47.7239C45.5503 47.7724 45.5706 47.829 45.5754 47.8878C45.5802 47.9466 45.5695 48.0057 45.5443 48.059C45.5191 48.1124 45.4802 48.1582 45.4317 48.1919L41.1018 51.3099C40.8782 51.4704 40.6102 51.5572 40.335 51.5582L32.1839 51.576C31.9054 51.5775 31.6338 51.4894 31.4093 51.3246L27.1481 48.2502C27.1009 48.2159 27.0633 48.17 27.0389 48.117C27.0145 48.064 27.0041 48.0056 27.0088 47.9475C27.0134 47.8893 27.033 47.8333 27.0655 47.7849C27.098 47.7365 27.1425 47.6972 27.1945 47.6709L31.3982 45.5433C31.6278 45.4305 31.8806 45.3728 32.1364 45.3749Z" fill="#FFC93F"/>
<path d="M32.3381 51.5902L40.2342 51.5737C40.3968 51.5725 40.5559 51.6212 40.69 51.7132C40.8241 51.8051 40.9268 51.936 40.9843 52.0881L42.073 54.9722C42.1196 55.0933 42.1361 55.2239 42.121 55.3528C42.1059 55.4817 42.0597 55.6049 41.9863 55.7119C41.9129 55.8189 41.8146 55.9065 41.6998 55.967C41.5851 56.0275 41.4573 56.0592 41.3275 56.0593L31.2413 56.0851C31.1117 56.085 30.984 56.0535 30.8692 55.9933C30.7545 55.9331 30.6559 55.846 30.5821 55.7395C30.5082 55.633 30.4612 55.5102 30.4452 55.3816C30.4291 55.253 30.4443 55.1224 30.4896 55.0009L31.5603 52.1087C31.6196 51.9519 31.7265 51.8176 31.866 51.7247C32.0055 51.6317 32.1706 51.5847 32.3381 51.5902Z" fill="#FFF6A5"/>
<path fill-rule="evenodd" clip-rule="evenodd" d="M31.8546 47.8038C31.5336 47.7508 31.2299 47.968 31.1764 48.2889L31.1433 48.4871C30.9745 49.4989 30.0172 50.1837 29.0051 50.0167C28.6841 49.9637 28.3805 50.1809 28.3269 50.5018C28.2734 50.8228 28.4902 51.1259 28.8112 51.1788C29.8233 51.3458 30.5069 52.3014 30.338 53.3131L30.1098 54.6807C30.0563 55.0016 30.2731 55.3047 30.5941 55.3577C30.9151 55.4107 31.2188 55.1935 31.2723 54.8725L31.4212 53.9805C31.6338 52.7061 32.8396 51.8435 34.1144 52.0539L34.6237 52.1379C34.9447 52.1909 35.2484 51.9737 35.3019 51.6528C35.3555 51.3318 35.1386 51.0287 34.8176 50.9758L34.0309 50.846C32.9093 50.6609 32.1518 49.602 32.3389 48.4807C32.3924 48.1598 32.1756 47.8567 31.8546 47.8038Z" fill="#FFFFCC"/>
<path d="M37.7512 62.0328C35.3099 63.3657 32.8936 64.2206 30.5513 62.2079" stroke="#7DC9DC" stroke-width="3.03437" stroke-miterlimit="10" stroke-linecap="round"/>
</g>
</svg>

