<svg width="192" height="256" viewBox="0 0 192 256" fill="none" xmlns="http://www.w3.org/2000/svg">
<rect x="58" y="17" width="38" height="48" rx="2" fill="#446DEB"/>
<rect x="58" y="68" width="38" height="48" rx="2" fill="#446DEB"/>
<rect x="58" y="119.507" width="38" height="48.2388" rx="2" fill="#446DEB"/>
<rect x="58" y="171" width="38" height="48" rx="2" fill="#446DEB"/>
<rect x="99" y="17" width="38" height="48" rx="2" fill="#446DEB"/>
<rect x="99" y="68" width="38" height="48" rx="2" fill="#446DEB"/>
<rect x="99" y="119" width="38" height="49" rx="2" fill="#446DEB"/>
<rect x="99" y="171" width="38" height="48" rx="2" fill="#446DEB"/>
<rect x="140" y="17" width="38" height="48" rx="2" fill="#446DEB"/>
<rect x="17" y="17" width="38" height="48" rx="2" fill="#446DEB"/>
<rect x="140" y="68" width="38" height="48" rx="2" fill="#446DEB"/>
<rect x="17" y="68" width="38" height="48" rx="2" fill="#446DEB"/>
<rect x="140" y="119" width="38" height="49" rx="2" fill="#446DEB"/>
<rect x="17" y="119" width="38" height="49" rx="2" fill="#446DEB"/>
<rect x="140" y="171" width="38" height="48" rx="2" fill="#446DEB"/>
<rect x="17" y="171" width="38" height="48" rx="2" fill="#446DEB"/>
<path d="M99 30H125C127.209 30 129 31.7909 129 34V65H99V30Z" fill="#2F54C9"/>
<path d="M150 119H176C177.105 119 178 119.895 178 121V166C178 167.105 177.105 168 176 168H150V119Z" fill="#2F54C9"/>
<path d="M150 171H176C177.105 171 178 171.895 178 173V217C178 218.105 177.105 219 176 219H150V171Z" fill="#2F54C9"/>
<path d="M99 119H133V168H99V119Z" fill="#2F54C9"/>
<path d="M99 171H133V219H99V171Z" fill="#2F54C9"/>
<path d="M58 42H88V65H60C58.8954 65 58 64.1046 58 63V42Z" fill="#375ED6"/>
<path opacity="0.15" d="M43 70C43 68.8954 42.1046 68 41 68H19C17.8954 68 17 68.8954 17 70V114C17 115.105 17.8954 116 19 116H43V70Z" fill="#223E96"/>
<path opacity="0.15" d="M43 121C43 119.895 42.1046 119 41 119H19C17.8954 119 17 119.895 17 121V166C17 167.105 17.8954 168 19 168H43V121Z" fill="#223E96"/>
<path opacity="0.15" d="M43 173C43 171.895 42.1046 171 41 171H19C17.8954 171 17 171.895 17 173V217C17 218.105 17.8954 219 19 219H43V173Z" fill="#223E96"/>
<path d="M37 44C37 42.8954 37.8954 42 39 42H55V63C55 64.1046 54.1046 65 53 65H37V44Z" fill="#375ED6"/>
<path d="M55 70C55 68.8954 54.1046 68 53 68H37V114C37 115.105 37.8954 116 39 116H55V70Z" fill="#375ED6"/>
<path d="M55 173C55 171.895 54.1046 171 53 171H37V217C37 218.105 37.8954 219 39 219H55V173Z" fill="#375ED6"/>
<path opacity="0.3" d="M55 121C55 119.895 54.1046 119 53 119H37V166C37 167.105 37.8954 168 39 168H55V121Z" fill="#2F54C9"/>
<path d="M58 70C58 68.8954 58.8954 68 60 68H76V114C76 115.105 75.1046 116 74 116H60C58.8954 116 58 115.105 58 114V70Z" fill="#375ED6"/>
<path d="M65 34C65 31.7909 66.7909 30 69 30H96V65H65V34Z" fill="#2F54C9"/>
<path d="M65 68H96V116H65V68Z" fill="#2F54C9"/>
<path d="M65 119H96V168H65V119Z" fill="#2F54C9"/>
<path d="M65 171H96V219H65V171Z" fill="#2F54C9"/>
<path opacity="0.6" d="M71 143C71 141.895 71.8954 141 73 141H76C77.1046 141 78 141.895 78 143V148C78 149.105 77.1046 150 76 150H73C71.8954 150 71 149.105 71 148V143Z" fill="#2746A7"/>
<path opacity="0.6" d="M104 119H111V122C111 123.105 110.105 124 109 124H106C104.895 124 104 123.105 104 122V119Z" fill="#2746A7"/>
<ellipse cx="95.5" cy="236" rx="85.5" ry="6" fill="#406BF0"/>
<path fill-rule="evenodd" clip-rule="evenodd" d="M129 68.001H99V116.001H129V68.001ZM154 99.0009C151.791 99.0009 150 100.792 150 103.001V116.001H176C177.105 116.001 178 115.105 178 114.001V99.0009H154Z" fill="#2F54C9"/>
<path opacity="0.6" d="M82 130C82 128.895 82.8954 128 84 128H87C88.1046 128 89 128.895 89 130V135C89 136.105 88.1046 137 87 137H84C82.8954 137 82 136.105 82 135V130Z" fill="#2746A7"/>
<path opacity="0.6" d="M82 143C82 141.895 82.8954 141 84 141H87C88.1046 141 89 141.895 89 143V148C89 149.105 88.1046 150 87 150H84C82.8954 150 82 149.105 82 148V143Z" fill="#2746A7"/>
<path opacity="0.6" d="M154 176C154 175.448 154.448 175 155 175H157C157.552 175 158 175.448 158 176V180C158 180.552 157.552 181 157 181H155C154.448 181 154 180.552 154 180V176Z" fill="#2746A7"/>
<path opacity="0.6" d="M171 176C171 175.448 171.448 175 172 175H174C174.552 175 175 175.448 175 176V180C175 180.552 174.552 181 174 181H172C171.448 181 171 180.552 171 180V176Z" fill="#2746A7"/>
<path opacity="0.6" d="M162 187C162 186.448 162.448 186 163 186H165C165.552 186 166 186.448 166 187V191C166 191.552 165.552 192 165 192H163C162.448 192 162 191.552 162 191V187Z" fill="#2746A7"/>
<path opacity="0.6" d="M117 177C117 175.895 117.895 175 119 175H122C123.105 175 124 175.895 124 177V182C124 183.105 123.105 184 122 184H119C117.895 184 117 183.105 117 182V177Z" fill="#2746A7"/>
<path opacity="0.6" d="M70 203C70 201.895 70.8954 201 72 201H75C76.1046 201 77 201.895 77 203V208C77 209.105 76.1046 210 75 210H72C70.8954 210 70 209.105 70 208V203Z" fill="#2746A7"/>
<path opacity="0.6" d="M93 51.5C93 50.6716 93.6716 50 94.5 50C95.3284 50 96 50.6716 96 51.5V57.5C96 58.3284 95.3284 59 94.5 59C93.6716 59 93 58.3284 93 57.5V51.5Z" fill="#2746A7"/>
<path opacity="0.6" d="M93 68H96V70.5C96 71.3284 95.3284 72 94.5 72C93.6716 72 93 71.3284 93 70.5V68Z" fill="#2746A7"/>
<path opacity="0.6" d="M93 65H96V64.5C96 63.6716 95.3284 63 94.5 63C93.6716 63 93 63.6716 93 64.5V65Z" fill="#2746A7"/>
<path opacity="0.6" d="M93 116H96C96 115.448 95.5523 115 95 115H94C93.4477 115 93 115.448 93 116Z" fill="#2746A7"/>
<path opacity="0.6" d="M93 119H96V122.5C96 123.328 95.3284 124 94.5 124C93.6716 124 93 123.328 93 122.5V119Z" fill="#2746A7"/>
<path d="M56.9062 166H98.4062L91.9062 188.5H56.9062V166Z" fill="#DE814C"/>
<path fill-rule="evenodd" clip-rule="evenodd" d="M58.9135 198.931C59.33 197.776 60.4696 197 61.7505 197H85.3141C86.544 197 87.6493 197.716 88.1027 198.806C89.6498 202.526 97.4259 224.072 100.097 231.491C100.54 232.72 99.6238 234 98.3177 234C97.6211 234 96.9845 233.626 96.6696 233.005C92.9035 225.574 84.7024 206.151 83.2768 202.723H63.8915C62.8098 205.725 54.5706 227.279 52.4807 232.743C52.1901 233.503 51.4626 234 50.6489 234C49.3307 234 48.3828 232.741 48.7671 231.48C51.0236 224.076 57.5649 202.673 58.9135 198.931Z" fill="#454B60"/>
<path fill-rule="evenodd" clip-rule="evenodd" d="M54 200C54 198.343 55.3431 197 57 197H90C91.6569 197 93 198.343 93 200C93 201.657 91.6569 203 90 203H57C55.3431 203 54 201.657 54 200Z" fill="#565F81"/>
<path fill-rule="evenodd" clip-rule="evenodd" d="M26.9135 198.931C27.33 197.776 28.4696 197 29.7505 197H53.3141C54.544 197 55.6493 197.716 56.1027 198.806C57.6498 202.526 65.4259 224.072 68.0973 231.491C68.5398 232.72 67.6238 234 66.3177 234C65.6211 234 64.9845 233.626 64.6696 233.005C60.9035 225.574 52.7024 206.151 51.2768 202.723H31.8915C30.8098 205.725 22.5706 227.279 20.4807 232.743C20.1901 233.503 19.4626 234 18.6489 234C17.3307 234 16.3828 232.741 16.7671 231.48C19.0236 224.076 25.5649 202.673 26.9135 198.931Z" fill="#565F81"/>
<path d="M16.9062 132.501H57.9062V185.001H21.6599L16.9062 132.501Z" fill="#FFBF74"/>
<path d="M52.2454 132.991L63.2891 188.21H90.4055" stroke="#C4C4C4" stroke-width="9"/>
<rect x="56" y="184" width="38" height="9" fill="#F3AC79"/>
<path fill-rule="evenodd" clip-rule="evenodd" d="M9.58848 136.911C9.2636 135.284 10.32 133.703 11.9468 133.38L15.9527 132.586C17.5821 132.263 19.164 133.325 19.4811 134.956L28.2329 179.955C28.6898 182.305 30.7475 184.001 33.1409 184.001H60.5C62.1569 184.001 63.5 185.344 63.5 187.001V190C63.5 191.657 62.1568 193 60.5 193H31.4528C25.2548 193 19.9188 188.624 18.7047 182.547L9.58848 136.911Z" fill="#F18E55"/>
<path d="M77.9063 195.5H83.1862C87.172 195.5 90.683 192.878 91.8153 189.057L97.9062 168.5" stroke="#FFBB89" stroke-width="5" stroke-linecap="round" stroke-linejoin="round"/>
<path d="M90.4062 195.5H61.4062" stroke="#FFBB89" stroke-width="5" stroke-linecap="round" stroke-linejoin="round"/>
<path d="M67.6808 129.787C71.4383 140.743 76.5003 149.001 80.5 149.001C82.4966 149 85.4981 126.501 86.4981 123.001" stroke="#81BCCA" stroke-width="5.38982" stroke-miterlimit="10" stroke-linecap="round"/>
<rect x="81.822" y="126.487" width="7.71493" height="4.0794" rx="0.701357" transform="rotate(5.517 81.822 126.487)" fill="#DEE7EC"/>
<path d="M64.8572 126.796C71.4391 130.905 82.8673 173.696 85.607 129.915" stroke="#1B2A5F" stroke-width="9.52347" stroke-miterlimit="10"/>
<path d="M66.5617 103.563C66.2994 101.964 64.7862 100.885 63.1894 101.157L63.1359 101.166C62.6138 101.255 62.2615 101.749 62.3473 102.272L62.9799 106.127C63.0669 106.658 63.5694 107.016 64.0995 106.926L64.1711 106.914C65.7538 106.644 66.8216 105.147 66.5617 103.563Z" fill="#F65539"/>
<path d="M40.3437 78.7764C29.3007 80.3466 21.6383 90.6842 23.2276 101.866L32.6394 168.065C32.7692 168.979 33.6061 169.615 34.5086 169.487L71.2301 164.266C72.1327 164.138 72.7585 163.293 72.6286 162.379L63.2169 96.1798C61.6269 84.998 51.386 77.2064 40.3437 78.7764Z" fill="#B0DEE7"/>
<path d="M43.826 174.666L28.3592 127.763L50.5326 135.704L64.3925 133.284L68.6452 171.233L43.826 174.666Z" fill="#D5EAF0"/>
<rect x="37.9819" y="169.974" width="31.5611" height="4.9095" transform="rotate(-3.99889 37.9819 169.974)" fill="#6A5050"/>
<path d="M58.8902 167.26L53.4832 141.521L50.3348 141.741L50.6168 167.876C50.6202 168.195 50.7681 168.495 51.0188 168.692L54.3825 171.335C54.8122 171.673 55.4289 171.625 55.8017 171.225L58.6299 168.194C58.8635 167.944 58.9606 167.595 58.8902 167.26Z" fill="#AD4A36"/>
<path d="M94.9062 214.328V226.328" stroke="#8CC2CF" stroke-width="6"/>
<path d="M76.1746 178.194C76.2334 178.967 75.655 179.643 74.8822 179.697C72.7395 179.847 68.2609 180.16 62.376 180.572C60.4772 180.704 58.817 179.298 58.638 177.403L56.9311 159.333L69.0816 124.819L71.1543 145.48C71.7579 151.496 73.3243 157.456 74.3952 163.407C75.0348 166.962 75.686 171.781 76.1746 178.194Z" fill="#1B2A5F"/>
<rect x="66.4277" y="157.793" width="10.1697" height="2.73352" rx="0.350679" transform="rotate(50.2774 66.4277 157.793)" fill="#2E4082"/>
<path d="M90.3651 220.338L101.001 220.5C101.262 214.279 99.4469 193.852 98.3125 181.942C97.8317 176.895 93.627 173.044 88.5573 172.966C81.8822 172.864 72.905 172.727 66.9642 172.637L53.1811 177.012C53.0604 184.927 72.9072 184 84.9072 184C85.6528 197.133 90.2394 211.884 90.3651 220.338Z" fill="#1B2A5F"/>
<path d="M49.5612 142.108L48.0935 139.786L48.2004 135.575L55.5467 135.061L54.204 141.499C54.0758 142.114 53.5549 142.568 52.9286 142.612L50.8447 142.758C50.3299 142.794 49.8369 142.544 49.5612 142.108Z" fill="#CC5A43"/>
<path d="M51.1178 134.851L28.2492 126.968L34.3264 136.025L45.1121 141.863C46.0653 142.379 47.2545 142.086 47.8594 141.187L51.2122 136.203L55.524 139.997C56.3806 140.75 57.682 140.684 58.4575 139.847L65.0719 132.706L65.6483 123.35L51.1178 134.851Z" fill="white"/>
<path d="M25.8715 80.9114L30.2964 84.0715" stroke="#B0DEE7" stroke-width="2.72099" stroke-miterlimit="10"/>
<path d="M79.4062 214.328V226.328" stroke="#8CC2CF" stroke-width="6"/>
<path d="M73.8651 220.338L84.501 220.5C84.7492 214.582 83.2442 195.702 82.1932 183.561C81.6653 177.463 76.6024 172.783 70.4821 172.689C64.0714 172.591 56.1551 172.47 50.7512 172.388L31.9065 176.764C31.8452 180.78 35.1312 184.001 39.1481 184.001L68.9077 184.001C69.6533 197.134 73.7394 211.884 73.8651 220.338Z" fill="#123770"/>
<path d="M55.8208 78.6719L52.5782 82.5451" stroke="#B0DEE7" stroke-width="2.72099" stroke-miterlimit="10"/>
<path d="M40.322 100.383L25.7739 102.362C23.5801 102.661 22.0872 104.741 22.5063 106.915L22.5619 107.203" stroke="#5B7DBE" stroke-width="2.64158" stroke-miterlimit="10" stroke-linecap="round"/>
<path d="M54.6129 87.4361C50.6664 83.6392 45.2965 81.9036 39.8818 82.6739" stroke="#ECFBFF" stroke-width="2.04074" stroke-miterlimit="10" stroke-linecap="round"/>
<path d="M58.0132 92.1785C57.6007 91.3861 57.1348 90.634 56.6205 89.925" stroke="#ECFBFF" stroke-width="2.04074" stroke-miterlimit="10" stroke-linecap="round"/>
<path d="M25.5567 84.0833C23.3469 84.3889 21.3077 82.8453 21.002 80.6355C20.6963 78.4257 22.2399 76.3865 24.4497 76.0808C26.6595 75.7752 28.6987 77.3187 29.0044 79.5286C29.3101 81.7384 27.7665 83.7776 25.5567 84.0833Z" fill="#B0DEE7"/>
<path d="M25.3584 82.3837C24.0913 82.559 22.9219 81.6739 22.7467 80.4067C22.5714 79.1395 23.4565 77.9702 24.7237 77.7949C25.9908 77.6196 27.1602 78.5048 27.3355 79.7719C27.5107 81.0391 26.6256 82.2084 25.3584 82.3837Z" fill="#F65539"/>
<path d="M58.1111 80.6018C55.9013 80.9075 53.8621 79.3639 53.5564 77.1541C53.2508 74.9443 54.7944 72.9051 57.0042 72.5994C59.214 72.2937 61.2532 73.8373 61.5589 76.0471C61.8645 78.2569 60.3209 80.2961 58.1111 80.6018Z" fill="#B0DEE7"/>
<path d="M57.9129 78.9023C56.6457 79.0776 55.4764 78.1924 55.3011 76.9253C55.1258 75.6581 56.011 74.4888 57.2781 74.3135C58.5453 74.1382 59.7146 75.0233 59.8899 76.2905C60.0652 77.5576 59.18 78.727 57.9129 78.9023Z" fill="#F65539"/>
<path d="M52.6805 177.18C52.9533 179.375 51.3274 181.35 49.1208 181.504C41.679 182.025 35.3017 182.472 32.7004 182.654C31.9888 182.704 31.357 182.215 31.2519 181.509C30.7236 177.963 30.5089 173.388 30.4322 169.44C30.3204 163.69 29.9473 157.941 28.952 152.277L24.5273 127.097L50.4699 159.393L52.6805 177.18Z" fill="#1B2A5F"/>
<path d="M90.37 225.306C90.8284 224.674 91.6475 224.541 92.3882 224.787C95.5336 225.834 96.6366 225.566 99.1709 224.125C99.6667 223.843 100.283 223.879 100.736 224.226L101.826 225.06C104.122 226.818 107.272 227.796 110.163 227.84C112.642 227.878 114.622 229.919 114.584 232.399L114.575 232.993C114.575 232.993 92.268 232.653 88.6277 232.598C88.4637 228.685 89.5556 226.429 90.37 225.306Z" fill="#21467E"/>
<rect x="87.9543" y="230.835" width="27.3529" height="3.15611" rx="1.05204" transform="rotate(0.873437 87.9543 230.835)" fill="#153970"/>
<rect width="10.1697" height="2.73352" rx="0.350679" transform="matrix(-0.611539 0.791215 0.791215 0.611539 39.0295 160.088)" fill="#2E4082"/>
<path d="M36 166.195C34.5116 166.195 33.3051 164.988 33.3051 163.5C33.3051 162.011 34.5116 160.805 36 160.805L36 166.195ZM36 160.805C38.2674 160.805 41.1954 160.681 43.3304 160.744C44.4431 160.777 45.5852 160.86 46.5738 161.081C47.4082 161.268 48.874 161.7 49.7444 163.006L45.2599 165.996C45.6303 166.551 46.0332 166.483 45.3984 166.341C44.9177 166.234 44.1843 166.161 43.1714 166.131C41.0553 166.069 38.7322 166.195 36 166.195L36 160.805Z" fill="#81BCCA"/>
<path d="M42.3795 158.998C42.7668 158.998 43.0808 159.312 43.0808 159.699L43.0808 166.012C43.0808 166.399 42.7668 166.713 42.3795 166.713L39.7028 166.713C39.3154 166.713 39.0014 166.399 39.0014 166.012L39.0014 159.699C39.0014 159.312 39.3154 158.998 39.7028 158.998L42.3795 158.998Z" fill="#DEE7EC"/>
<path d="M28.2919 131.237C12.4995 164.498 20.5002 161.501 39.9999 161.501" stroke="#223566" stroke-width="9.52347" stroke-miterlimit="10"/>
<path d="M85.3677 120.925C85.5945 116.75 87.4978 116.501 91.4979 117L91.9985 121.001" stroke="#81BCCA" stroke-width="4.10862" stroke-miterlimit="10" stroke-linecap="round"/>
<path d="M69.8765 123.043C70.3863 124.057 70.4648 125.234 70.0943 126.307L65.2606 140.302C65.0326 140.962 65.4486 141.67 66.1363 141.791C66.8956 141.926 67.3061 142.755 66.9435 143.436C64.8575 147.35 58.9521 158.388 57.8526 159.975C56.9291 160.491 55.9538 159.394 56.5864 158.551L66.1923 118.469C66.3447 117.834 67.2074 117.734 67.501 118.318L69.8765 123.043Z" fill="#2E4082"/>
<path d="M23.4842 127.527C22.9139 128.863 23.1419 130.405 24.0739 131.518L35.3312 144.965C35.8008 145.526 35.6581 146.374 35.0308 146.75C34.3315 147.169 34.2494 148.15 34.8722 148.676C38.3574 151.621 47.945 159.698 49.6181 160.842C50.724 161.003 51.2723 159.552 50.3302 158.96L26.4467 123.349C26.1367 122.887 25.4377 122.952 25.2192 123.464L23.4842 127.527Z" fill="#2E4082"/>
<ellipse rx="3.10807" ry="5.26842" transform="matrix(0.990801 -0.135325 0.147653 0.989039 25.1418 109.169)" fill="#FFB762"/>
<path fill-rule="evenodd" clip-rule="evenodd" d="M24.774 112.277C25.0821 112.213 25.3168 111.97 25.4014 111.667C25.6117 110.914 25.6677 110.011 25.526 109.062C25.41 108.285 25.1759 107.573 24.8631 106.975C24.7127 106.687 24.4236 106.491 24.099 106.498C23.9971 106.5 23.8942 106.509 23.7907 106.523C22.3218 106.725 21.2977 108.084 21.507 109.552L21.5761 110.036C21.7841 111.494 23.1316 112.51 24.5909 112.309C24.6528 112.3 24.7138 112.29 24.774 112.277Z" fill="white"/>
<path d="M22.9329 110.478L25.0763 108.668L28.2438 112.418C28.7436 113.01 28.669 113.895 28.0771 114.395C27.4852 114.895 26.6002 114.82 26.1004 114.229L22.9329 110.478Z" fill="white"/>
<path d="M54.5562 115.338L54.6468 115.865C55.0142 118.004 53.7004 120.03 51.7274 120.369L49.9158 120.681C47.9427 121.02 46.0278 119.548 45.6604 117.409L45.5697 116.882" fill="white"/>
<path d="M54.5562 115.338L54.6468 115.865C55.0142 118.004 53.7004 120.03 51.7274 120.369L49.9158 120.681C47.9427 121.02 46.0278 119.548 45.6604 117.409L45.5697 116.882" stroke="#8CC2CF" stroke-width="1.65428" stroke-miterlimit="10" stroke-linecap="round" stroke-linejoin="round"/>
<path d="M52.0453 100.095C51.9078 98.9918 52.6782 97.9862 53.7759 97.8344C57.1305 97.3705 61.5142 96.7709 64.679 96.3389C66.5608 96.082 68.2842 97.4241 68.4981 99.3125L69.0483 104.171C69.4247 107.494 67.0508 110.508 63.7256 110.965C62.3925 111.148 61.0601 111.335 59.7285 111.525C56.3499 112.006 53.2338 109.63 52.8121 106.246L52.0453 100.095Z" fill="#30284F" stroke="#5B7DBE" stroke-width="1.35455"/>
<path d="M37.7066 100.079L48.55 98.5604C49.0521 98.4915 49.5611 98.624 49.9657 98.9291C50.3695 99.2336 50.6366 99.6852 50.7091 100.186L51.5316 106.518C51.9674 109.873 49.5849 112.95 46.221 113.412C44.9246 113.591 43.6289 113.773 42.334 113.958C38.9554 114.439 35.8393 112.063 35.4175 108.679L34.8158 103.851C34.5869 102.015 35.8742 100.335 37.7066 100.079Z" fill="#30284F" stroke="#5B7DBE" stroke-width="1.35455"/>
<path opacity="0.5" d="M59.2671 106.651L63.2954 100.951C63.4513 100.734 63.5399 100.476 63.5503 100.209C63.5606 99.9415 63.4922 99.6773 63.3535 99.4488C63.2149 99.2204 63.0122 99.0377 62.7705 98.9236C62.5289 98.8094 62.259 98.7689 61.9945 98.8069L56.7613 99.5219C56.2054 99.5981 55.7024 99.892 55.3629 100.339C55.0235 100.786 54.8754 101.349 54.9511 101.905L55.473 105.725C55.7333 107.609 58.1678 108.205 59.2671 106.651Z" fill="#82959E"/>
<path opacity="0.5" d="M41.8881 108.967L45.9165 103.266C46.0724 103.049 46.1611 102.791 46.1714 102.524C46.1816 102.257 46.1132 101.992 45.9744 101.764C45.8356 101.535 45.6327 101.353 45.391 101.239C45.1492 101.125 44.8792 101.084 44.6146 101.122L39.3853 101.837C38.8293 101.913 38.3264 102.207 37.9869 102.654C37.6475 103.101 37.4993 103.664 37.575 104.22L38.097 108.04C38.3543 109.924 40.7889 110.521 41.8881 108.967Z" fill="#82959E"/>
<path d="M46.2309 98.8865L58.3332 97.1918" stroke="#5B7DBE" stroke-width="1.35455"/>
<path d="M50.0085 99.4957L52.5285 99.1237" stroke="#5B7DBE" stroke-width="1.35455"/>
<path d="M15.8664 166H46.3363L54.9062 194L65.9062 198H29.9968C24.6207 198 19.9006 194.424 18.445 189.249L12.9784 169.812C12.4402 167.899 13.8784 166 15.8664 166Z" fill="#DE814C"/>
<path d="M66.4062 195.5H61.1263C57.1405 195.5 53.6295 192.878 52.4972 189.057L46.4062 168.5" stroke="#FFBB89" stroke-width="5" stroke-linecap="round" stroke-linejoin="round"/>
<path d="M44.5316 173.555C42.1354 161.408 51.9185 160.791 54.5756 170.942" stroke="#81BCCA" stroke-width="4.11095" stroke-linecap="round"/>
<path d="M115.812 127.397C116.542 125.359 118.472 124 120.636 124H154.444C155.091 124 155.683 124.366 155.972 124.944L156.656 126.313C156.875 126.75 156.896 127.259 156.714 127.713L147.402 150.928C147.142 151.575 146.514 152 145.816 152H109.426C108.244 152 107.42 150.829 107.818 149.716L115.812 127.397Z" fill="#F2F8FF"/>
<path d="M116.833 129.444C117.549 127.382 119.491 126 121.674 126H155.599C156.774 126 157.598 127.159 157.212 128.269L149.37 150.852C149.131 151.539 148.484 152 147.756 152H111.401C110.226 152 109.402 150.841 109.788 149.731L116.833 129.444Z" fill="#D0E0F2"/>
<path d="M100.733 152.041C100.425 151.603 100.738 151 101.273 151H148.386C149.072 151 149.478 151.767 149.093 152.334L148.555 153.125C148.183 153.672 147.564 154 146.901 154H104.511C103.008 154 101.599 153.269 100.733 152.041Z" fill="#98B0CD"/>
<path d="M88.7428 152.046C88.4313 151.608 88.745 151 89.2832 151H109.38C110.067 151 110.473 151.77 110.084 152.337L109.541 153.13C109.168 153.675 108.55 154 107.891 154H92.5255C91.0226 154 89.6127 153.272 88.7428 152.046Z" fill="#D0E0F2"/>
<path fill-rule="evenodd" clip-rule="evenodd" d="M132.137 139C133.216 139 134.376 138.173 134.726 137.152C134.846 136.803 134.856 136.478 134.774 136.2C134.75 136.115 134.844 136 134.948 136C136.605 136 137.512 137.27 136.974 138.837C136.436 140.404 134.657 141.675 133 141.675C131.343 141.675 130.436 140.404 130.974 138.837C131.009 138.738 131.149 138.685 131.221 138.737C131.458 138.904 131.769 139 132.137 139Z" fill="white"/>
<rect x="109" y="162.828" width="14" height="68" fill="#E39162"/>
<path d="M93.1047 160.981C91.9172 160.748 92.087 159 93.2971 159H137.901C139.109 159 139.281 160.744 138.097 160.981L127.369 163.126C124.464 163.707 121.507 164 118.544 164H112.87C109.964 164 107.064 163.718 104.212 163.159L93.1047 160.981Z" fill="#DE814C"/>
<path d="M97 232.522C97 231.491 97.6714 230.58 98.6404 230.228C100.626 229.509 104.025 228.137 106.609 226.366C107.898 225.483 109.38 224.829 110.943 224.828C114.671 224.828 117.329 224.828 121.057 224.829C122.621 224.829 124.112 225.475 125.442 226.296C128.153 227.97 132.145 229.471 134.362 230.241C135.334 230.579 136 231.489 136 232.518C136 233.817 134.947 234.869 133.649 234.869H99.3473C98.0509 234.869 97 233.818 97 232.522Z" fill="#DE814C"/>
<path d="M94.6931 233.505C94.3779 234.107 94.8144 234.828 95.4937 234.828H136.506C137.186 234.828 137.622 234.107 137.307 233.505C136.767 232.474 135.699 231.828 134.536 231.828H97.4644C96.3006 231.828 95.2331 232.474 94.6931 233.505Z" fill="#C56B39"/>
<rect x="62" y="153.828" width="108" height="6" rx="3" fill="#FFBB89"/>
<path d="M93.4 117C92.6947 117 90.6809 117 88.9996 117C88.4474 117 88 117.448 88 118V118C88 120.761 90.2386 123 93 123H95" stroke="#F3F1DD" stroke-width="2"/>
<path d="M97 125C97 124.448 97.4477 124 98 124H106C106.552 124 107 124.448 107 125V128C107 128.552 106.552 129 106 129H98C97.4477 129 97 128.552 97 128V125Z" fill="#F3F1DD"/>
<path d="M92 116C92 114.895 92.8954 114 94 114H110C111.105 114 112 114.895 112 116V121C112 124.866 108.866 128 105 128H99C95.134 128 92 124.866 92 121V116Z" fill="#FFFFF2"/>
<path d="M90.0017 120.305C88.0032 124.305 85.1319 124.48 85.3589 120.305" stroke="#81BCCA" stroke-width="4.10862" stroke-miterlimit="10" stroke-linecap="round"/>
<path d="M74.3707 225.664C74.8291 225.032 75.6482 224.899 76.3889 225.145C79.5343 226.191 80.6373 225.924 83.1717 224.483C83.6675 224.201 84.2842 224.236 84.737 224.583L85.8272 225.418C88.1224 227.176 91.2728 228.154 94.1634 228.198C96.6432 228.236 98.6228 230.277 98.585 232.756L98.5757 233.351C98.5757 233.351 76.2688 233.01 72.6285 232.955C72.4644 229.043 73.5563 226.786 74.3707 225.664Z" fill="#2A569A"/>
<rect x="71.9541" y="231.191" width="27.3529" height="3.29521" rx="1.05204" transform="rotate(0.873437 71.9541 231.191)" fill="#21467E"/>
<path d="M116 16L116 46" stroke="#82A0FF" stroke-width="2"/>
<path d="M110.478 14.5H107.5C105.567 14.5 104 12.933 104 11H128.5C128.5 12.933 126.933 14.5 125 14.5H121.522C120.227 14.5 118.986 15.0142 118.071 15.9294C116.927 17.073 115.073 17.073 113.929 15.9294C113.014 15.0142 111.773 14.5 110.478 14.5Z" fill="#446DEB"/>
<path d="M128.5 51.5V55H104V51.5C104 48.7386 106.239 46.5 109 46.5H110.978C112.273 46.5 113.514 45.9858 114.429 45.0706C115.573 43.927 117.427 43.927 118.571 45.0706C119.486 45.9858 120.727 46.5 122.022 46.5H123.5C126.261 46.5 128.5 48.7386 128.5 51.5Z" fill="#715448"/>
<path d="M142 73.9999H90C86.6863 73.9999 84 71.3136 84 67.9999V52.5C84 46.4249 88.9249 41.5 95 41.5H137C143.075 41.5 148 46.4249 148 52.5V67.9999C148 71.3136 145.314 73.9999 142 73.9999Z" fill="#82A0FF"/>
<path d="M122.176 43H109.824C108.264 43 107 41.7359 107 40.1765C107 37.3176 109.318 35 112.176 35H119.824C122.682 35 125 37.3176 125 40.1765C125 41.7359 123.736 43 122.176 43Z" fill="#446DEB"/>
<path d="M116 75.444C124.053 75.444 131.372 74.9943 136.703 74.2589C139.358 73.8927 141.58 73.4478 143.169 72.9298C143.953 72.6741 144.669 72.3735 145.218 72.0035C145.704 71.6762 146.444 71.0297 146.444 70C146.444 68.9703 145.704 68.3238 145.218 67.9965C144.669 67.6265 143.953 67.3259 143.169 67.0702C141.58 66.5522 139.358 66.1073 136.703 65.7411C131.372 65.0057 124.053 64.556 116 64.556C107.947 64.556 100.628 65.0057 95.2966 65.7411C92.6416 66.1073 90.4195 66.5522 88.8313 67.0702C88.047 67.3259 87.3309 67.6265 86.7821 67.9965C86.2964 68.3238 85.556 68.9703 85.556 70C85.556 71.0297 86.2964 71.6762 86.7821 72.0035C87.3309 72.3735 88.047 72.6741 88.8313 72.9298C90.4195 73.4478 92.6416 73.8927 95.2966 74.2589C100.628 74.9943 107.947 75.444 116 75.444Z" fill="#FFCF53" stroke="#82A0FF" stroke-width="2.88804"/>
<path d="M115.5 49.444C121.756 49.444 127.448 49.1063 131.601 48.5527C133.667 48.2772 135.41 47.9409 136.666 47.5449C137.284 47.3502 137.87 47.1149 138.331 46.8145C138.718 46.5626 139.444 45.9838 139.444 45C139.444 44.0162 138.718 43.4374 138.331 43.1855C137.87 42.8851 137.284 42.6498 136.666 42.4551C135.41 42.0591 133.667 41.7228 131.601 41.4473C127.448 40.8937 121.756 40.556 115.5 40.556C109.244 40.556 103.552 40.8937 99.3992 41.4473C97.3335 41.7228 95.5902 42.0591 94.334 42.4551C93.7162 42.6498 93.1299 42.8851 92.6688 43.1855C92.2822 43.4374 91.556 44.0162 91.556 45C91.556 45.9838 92.2822 46.5626 92.6688 46.8145C93.1299 47.1149 93.7162 47.3502 94.334 47.5449C95.5902 47.9409 97.3335 48.2772 99.3992 48.5527C103.552 49.1063 109.244 49.444 115.5 49.444Z" fill="#82A0FF" stroke="#82A0FF" stroke-width="2.88804"/>
<path fill-rule="evenodd" clip-rule="evenodd" d="M125.597 66.1666C123.515 69.0481 120.126 70.9231 116.3 70.9231C112.5 70.9231 109.131 69.0735 107.046 66.2254C110.161 66.0794 113.511 66 117 66C119.988 66 122.873 66.0582 125.597 66.1666Z" fill="#FFFB96"/>
<path opacity="0.5" d="M101.029 106C99.1943 108.192 100.319 110.136 101.646 111.446C102.035 111.831 102.903 111.178 102.829 110.636L102.822 110.577C102.557 108.488 104.265 106.669 104.773 104.625C105.658 101.069 103.802 99.6742 101.841 99.2057C101.344 99.0871 101.079 99.8061 101.404 100.2C102.477 101.504 103.078 103.553 101.029 106Z" fill="white"/>
<path opacity="0.5" d="M95.6175 108C94.5614 109.502 95.1393 110.841 95.891 111.774C96.1295 112.07 96.7386 111.679 96.6964 111.301C96.6918 111.26 96.6877 111.219 96.6839 111.178C96.5562 109.769 97.5393 108.489 97.8445 107.108C98.4222 104.495 97.29 103.481 96.0963 103.145C95.7696 103.053 95.5839 103.503 95.7847 103.777C96.4639 104.703 96.883 106.201 95.6175 108Z" fill="white"/>
<path opacity="0.5" d="M106.618 108C105.561 109.502 106.139 110.841 106.891 111.774C107.129 112.07 107.739 111.679 107.696 111.301C107.692 111.26 107.688 111.219 107.684 111.178C107.556 109.769 108.539 108.489 108.845 107.108C109.422 104.495 108.29 103.481 107.096 103.145C106.77 103.053 106.584 103.503 106.785 103.777C107.464 104.703 107.883 106.201 106.618 108Z" fill="white"/>
<path d="M155.992 205.608C155.992 190.159 158.567 190.522 163.348 189.786" stroke="#0F936B" stroke-width="2.20676"/>
<path d="M155.987 205.606C155.987 190.157 144.953 150.063 134.287 164.777" stroke="#168664" stroke-width="2.20676"/>
<path d="M155.989 205.606C153.499 159 130.501 120.499 152 125.5" stroke="#168664" stroke-width="2.20676"/>
<path d="M155.991 205.608C155.991 190.159 156.727 142.708 167.393 157.422" stroke="#168664" stroke-width="2.20676"/>
<path fill-rule="evenodd" clip-rule="evenodd" d="M163.547 122.36C163.401 122.316 163.243 122.335 163.11 122.408L161.361 123.362C160.969 123.576 160.49 123.292 160.49 122.845V122.571C160.49 122.238 160.214 121.97 159.883 122.003C158.997 122.091 158.119 122.306 157.276 122.648L150.083 125.57C149.92 125.637 149.736 125.626 149.581 125.543L147.734 124.542C144.694 122.896 140.998 125.097 140.998 128.554C140.998 130.186 141.87 131.694 143.284 132.508L147.605 134.996C147.853 135.139 148.165 135.082 148.361 134.874C148.628 134.59 148.915 134.324 149.219 134.079C149.598 133.773 150.12 134.097 150.087 134.582C150.055 135.05 150.031 135.551 150.03 136.008C150.029 136.22 150.149 136.413 150.337 136.512C151.309 137.022 152.294 137.509 153.29 137.97C153.663 138.144 154.094 137.882 154.185 137.48C154.312 136.922 154.532 136.385 154.84 135.893L154.976 135.675C155.187 135.337 155.709 135.487 155.709 135.886C155.709 136.902 156.01 137.896 156.574 138.742L157.053 139.461C157.12 139.562 157.217 139.639 157.33 139.683C157.757 139.847 158.186 140.007 158.616 140.163L163.747 142.019C164.131 142.158 164.536 141.874 164.536 141.466V141.047C164.536 140.407 165.413 140.227 165.665 140.816L166.584 142.958C166.612 143.024 166.666 143.075 166.733 143.099C168.527 143.748 170.422 142.419 170.422 140.511L170.422 134.924C170.422 134.787 170.374 134.655 170.288 134.549L170.074 134.29C169.086 133.09 167.918 132.051 166.611 131.211C166.212 130.955 165.774 130.766 165.314 130.651L163.097 130.096C162.693 129.995 162.687 129.423 163.089 129.313C164.727 128.867 166.47 129.076 167.988 129.837C168.61 130.149 169.233 130.451 169.766 130.691C169.976 130.786 170.206 130.615 170.182 130.385C169.87 127.422 168.174 124.781 165.609 123.265C164.953 122.878 164.261 122.576 163.547 122.36Z" fill="#07B476"/>
<path fill-rule="evenodd" clip-rule="evenodd" d="M141.852 204.867C140.43 204.867 139.277 206.02 139.277 207.442C139.277 208.054 139.491 208.617 139.848 209.059C140.202 209.496 140.299 210.273 140.065 210.784C139.916 211.11 139.833 211.472 139.833 211.854C139.833 212.466 140.047 213.028 140.404 213.47C140.758 213.909 140.855 214.688 140.621 215.2C140.472 215.526 140.389 215.888 140.389 216.27C140.389 216.882 140.603 217.445 140.96 217.887C141.314 218.324 141.411 219.101 141.177 219.612C141.028 219.938 140.945 220.3 140.945 220.682C140.945 221.294 141.159 221.857 141.516 222.299C141.87 222.737 141.967 223.515 141.733 224.027C141.584 224.352 141.501 224.715 141.501 225.096C141.501 225.71 141.716 226.273 142.074 226.716C142.428 227.153 142.527 227.93 142.293 228.442C142.145 228.767 142.063 229.128 142.063 229.508C142.063 230.121 142.277 230.683 142.634 231.125C142.987 231.563 143.085 232.341 142.851 232.853C142.702 233.179 142.619 233.541 142.619 233.922C142.619 235.344 143.771 236.497 145.193 236.497H166.771C168.193 236.497 169.346 235.344 169.346 233.922C169.346 233.541 169.263 233.179 169.114 232.854C168.88 232.342 168.978 231.564 169.332 231.126C169.689 230.684 169.903 230.121 169.903 229.508C169.903 229.126 169.82 228.763 169.67 228.436C169.436 227.925 169.532 227.149 169.886 226.711C170.242 226.27 170.455 225.708 170.455 225.096C170.455 224.715 170.372 224.353 170.224 224.028C169.99 223.515 170.087 222.737 170.441 222.299C170.799 221.857 171.013 221.295 171.013 220.682C171.013 220.301 170.93 219.939 170.781 219.613C170.548 219.102 170.645 218.325 170.999 217.888C171.356 217.446 171.571 216.883 171.571 216.27C171.571 215.889 171.488 215.527 171.339 215.201C171.105 214.689 171.203 213.909 171.557 213.471C171.914 213.029 172.128 212.466 172.128 211.854C172.128 211.473 172.046 211.111 171.897 210.785C171.663 210.274 171.761 209.497 172.114 209.06C172.472 208.617 172.686 208.055 172.686 207.442C172.686 206.02 171.533 204.867 170.112 204.867H141.852Z" fill="#454B60"/>
<rect x="161.552" y="210.75" width="7.79537" height="2.94235" rx="1.47118" fill="#555C74"/>
<rect x="160.996" y="215.164" width="7.23856" height="2.94235" rx="1.47118" fill="#555C74"/>
<rect x="160.44" y="219.578" width="6.68175" height="2.94235" rx="1.47118" fill="#555C74"/>
<rect x="159.884" y="223.992" width="6.12493" height="2.94235" rx="1.47118" fill="#555C74"/>
<rect x="159.325" y="228.404" width="5.56812" height="2.94235" rx="1.47118" fill="#555C74"/>
<rect x="158.766" y="232.82" width="5.01131" height="2.94235" rx="1.47118" fill="#555C74"/>
<rect x="162.107" y="206.336" width="8.35218" height="2.94235" rx="1.47118" fill="#555C74"/>
<path fill-rule="evenodd" clip-rule="evenodd" d="M159.286 151.904H166.101C166.226 151.904 166.349 151.878 166.463 151.829L170.504 150.098C173.973 148.611 178.005 149.958 179.884 153.231C180.357 154.055 180.81 154.889 181.243 155.732C181.427 156.09 181.074 156.482 180.696 156.34C178.781 155.622 176.653 155.734 174.824 156.648C174.439 156.841 174.576 157.421 175.006 157.421H175.417C176.899 157.421 178.347 157.868 179.571 158.706L183.753 161.567C183.851 161.634 183.927 161.73 183.969 161.841C186.068 167.336 187.366 173.114 187.814 178.996C187.841 179.35 187.471 179.595 187.153 179.437C185.793 178.757 184.241 178.565 182.757 178.895C182.515 178.949 182.515 179.293 182.757 179.347L182.983 179.397C184.328 179.696 185.546 180.407 186.468 181.431L187.839 182.954C187.935 183.061 187.989 183.199 187.989 183.343C187.99 183.439 187.99 183.536 187.99 183.633V188.541C187.99 189.733 186.687 190.466 185.668 189.847L175.194 183.485C175.1 183.427 175.023 183.344 174.973 183.245L173.263 179.824C172.548 178.394 172.176 176.817 172.176 175.218V173.264C172.176 172.029 172.398 170.804 172.831 169.648C172.957 169.314 172.562 169.028 172.283 169.251L171.697 169.72C170.341 170.805 169.396 172.321 169.019 174.017C168.68 175.543 168.818 177.137 169.416 178.582L169.499 178.781C169.716 179.306 169.135 179.804 168.649 179.509L157.191 172.548C157.038 172.455 156.935 172.297 156.913 172.118L156.531 169.062C156.42 168.172 156.445 167.27 156.605 166.388L156.956 164.457C157.051 163.936 157.099 163.407 157.099 162.878C157.099 162.526 156.625 162.414 156.468 162.729L155.088 165.488C154.475 166.713 154.156 168.065 154.156 169.435C154.156 169.789 153.739 169.963 153.503 169.701C150.865 166.767 149.751 162.666 150.699 158.686C151.646 154.71 155.199 151.904 159.286 151.904ZM161.664 163.015C161.47 163.48 160.777 163.342 160.777 162.837V162.563C160.777 160.885 161.248 159.241 162.137 157.819C162.413 157.378 162.968 157.204 163.445 157.409L164.391 157.814C164.774 157.978 164.87 158.477 164.576 158.771L164.365 158.982C163.21 160.137 162.292 161.507 161.664 163.015Z" fill="#0BA074"/>
<path fill-rule="evenodd" clip-rule="evenodd" d="M133.731 159.002L133.166 158.304C130.269 154.726 124.833 154.663 121.855 158.174C120.937 159.256 120.143 160.425 119.48 161.66C119.403 161.803 119.54 161.964 119.694 161.914C121.536 161.32 123.546 161.562 125.195 162.577L125.45 162.734C125.956 163.045 125.735 163.823 125.142 163.823H122.592C121.293 163.823 120.023 164.206 118.939 164.923L118.05 165.511C117.933 165.588 117.847 165.705 117.81 165.84C117.387 167.385 117.148 168.985 117.105 170.607L117 174.594C116.989 175.032 117.444 175.329 117.841 175.141L119.801 174.211C120.305 173.972 120.828 174.505 120.58 175.005L117.207 181.801C117.161 181.894 117.14 181.997 117.147 182.1C117.309 184.381 117.773 186.631 118.529 188.791L119.092 190.4C119.45 191.423 120.754 191.72 121.521 190.954L125.825 186.649C125.887 186.588 125.928 186.51 125.942 186.425C126.102 185.429 126.116 184.41 125.979 183.401L125.565 180.35C125.496 179.839 126.054 179.517 126.412 179.888C127.337 180.846 127.971 182.018 128.279 183.271C128.39 183.721 128.938 183.954 129.314 183.683C130.252 183.008 131.231 182.39 132.247 181.833C132.377 181.761 132.506 181.689 132.634 181.616C132.776 181.535 132.877 181.397 132.913 181.237L132.954 181.053C133.45 178.838 133.638 176.568 133.512 174.307C133.48 173.726 134.188 173.429 134.511 173.914C135.432 175.298 136.108 176.837 136.504 178.462C136.548 178.645 136.77 178.718 136.913 178.595C139.835 176.074 142.203 172.943 143.834 169.398L143.939 169.17C146.095 164.483 142.671 159.139 137.511 159.139H134.017C133.906 159.139 133.801 159.089 133.731 159.002Z" fill="#0BA074"/>
<path d="M122.075 181.578C123.547 175.448 126.64 167.352 132.819 161.467" stroke="#0F936B" stroke-width="1.47118" stroke-linecap="round"/>
<path d="M180.633 176.177C179.161 170.047 173.939 160.729 167.76 154.845" stroke="#0F936B" stroke-width="1.47118" stroke-linecap="round"/>
<path d="M166.577 137.337C166.84 137.647 166.801 138.112 166.491 138.374C166.181 138.636 165.717 138.598 165.454 138.288L166.577 137.337ZM151.904 127.869C151.505 127.795 151.242 127.41 151.316 127.011C151.391 126.612 151.776 126.349 152.175 126.423L151.904 127.869ZM165.454 138.288C161.365 133.455 157.485 128.916 151.904 127.869L152.175 126.423C158.363 127.584 162.575 132.607 166.577 137.337L165.454 138.288Z" fill="#0AA073"/>
<path fill-rule="evenodd" clip-rule="evenodd" d="M165.6 186.511C165.754 186.448 165.929 186.491 166.047 186.609L166.178 186.74C166.402 186.964 166.782 186.886 166.9 186.592L166.932 186.513C166.999 186.344 167.164 186.231 167.345 186.248C167.948 186.303 168.538 186.506 169.057 186.853C170.085 187.538 170.702 188.691 170.702 189.927C170.702 189.95 170.68 189.968 170.657 189.962L169.912 189.776C169.05 189.561 168.144 189.882 167.611 190.593C167.533 190.698 167.625 190.844 167.753 190.818L168.651 190.639C169.028 190.563 169.418 190.588 169.782 190.709L170.401 190.915C170.581 190.976 170.702 191.144 170.702 191.334V197.04C170.702 197.612 170.118 197.997 169.593 197.772L167.624 196.928C167.522 196.885 167.44 196.804 167.395 196.702L166.945 195.69C166.793 195.349 166.284 195.457 166.284 195.83C166.284 196.078 166.03 196.245 165.802 196.147L162.979 194.938L161.022 194.311C160.795 194.239 160.667 193.999 160.732 193.77L160.873 193.279C161.044 192.678 161.366 192.131 161.808 191.689C161.967 191.53 161.855 191.259 161.63 191.259H161.556C160.368 191.259 159.254 191.833 158.563 192.8L158.329 193.128C158.217 193.284 158.018 193.35 157.835 193.292L156.685 192.923C155.218 192.454 154.593 190.725 155.419 189.426C156.004 188.506 157.018 187.949 158.108 187.949H162.158C162.214 187.949 162.27 187.938 162.322 187.916L165.553 186.531C165.569 186.524 165.584 186.518 165.6 186.511Z" fill="#0F936B"/>
</svg>

