<svg width="66" height="66" viewBox="0 0 66 66" fill="none" xmlns="http://www.w3.org/2000/svg">
<rect x="1.5" y="1.5" width="63" height="63" rx="31.5" fill="#9C4050"/>
<rect x="1.5" y="1.5" width="63" height="63" rx="31.5" stroke="white" stroke-width="3"/>
<rect x="1.5" y="1.5" width="63" height="63" rx="31.5" stroke="#FF99AA" stroke-width="3"/>
<mask id="mask0" mask-type="alpha" maskUnits="userSpaceOnUse" x="2" y="3" width="61" height="60">
<path d="M2.99927 33C2.99927 16.4315 16.4307 3 32.9993 3C49.5678 3 62.9993 16.4315 62.9993 33C62.9993 49.5685 49.5678 63 32.9993 63C16.4307 63 2.99927 49.5685 2.99927 33Z" fill="#9C4050"/>
</mask>
<g mask="url(#mask0)">
<path d="M42.4921 29.9842L16.1842 38.18C15.8277 38.2926 15.5302 38.5417 15.3565 38.8728C15.1829 39.2039 15.1472 39.5902 15.2573 39.9475L15.4598 40.5974C15.5721 40.9539 15.8209 41.2515 16.1518 41.4253C16.4828 41.599 16.869 41.6347 17.2262 41.5247L43.5341 33.3289C43.8906 33.2166 44.1882 32.9678 44.3619 32.6368C44.5356 32.3059 44.5714 31.9197 44.4613 31.5625L44.2588 30.9125C44.1465 30.5559 43.8977 30.2582 43.5668 30.0843C43.2358 29.9104 42.8495 29.8744 42.4921 29.9842Z" fill="#F6B11B"/>
<path d="M13.6782 29.3802L13.1201 29.554C12.6451 29.6995 12.1318 29.6506 11.6929 29.4178C11.254 29.1851 10.9254 28.7877 10.7794 28.3128L10.7331 28.1645C10.5876 27.6895 10.6366 27.1762 10.8694 26.7373C11.1021 26.2984 11.4995 25.9698 11.9744 25.8238L12.5314 25.6502L13.6782 29.3802Z" fill="#F65539"/>
<path d="M41.7878 20.7927L41.8807 20.7637C42.1158 20.6916 42.3345 20.5738 42.5241 20.4171C42.7137 20.2604 42.8705 20.0678 42.9857 19.8505C43.1009 19.6332 43.1721 19.3953 43.1953 19.1504C43.2185 18.9055 43.1932 18.6584 43.1208 18.4233L43.0746 18.275C43.0023 18.0399 42.8844 17.8212 42.7275 17.6317C42.5707 17.4421 42.3781 17.2853 42.1607 17.1702C41.9432 17.055 41.7053 16.9839 41.4603 16.9607C41.2154 16.9375 40.9683 16.9628 40.7332 17.0352L40.6403 17.0641C40.5182 17.1021 40.4159 17.1867 40.3555 17.2994C40.2952 17.4122 40.2816 17.5442 40.3176 17.6669L41.1784 20.4674C41.1968 20.5289 41.2272 20.5862 41.2679 20.6359C41.3085 20.6857 41.3586 20.7268 41.4153 20.7571C41.472 20.7873 41.5341 20.806 41.598 20.8122C41.662 20.8183 41.7265 20.8116 41.7878 20.7927Z" fill="#F65539"/>
<path d="M41.3277 22.5657L41.5134 22.5078C41.6482 22.4665 41.7735 22.3989 41.8822 22.3091C41.9909 22.2192 42.0808 22.1088 42.1468 21.9842C42.2128 21.8596 42.2536 21.7232 42.2668 21.5828C42.2801 21.4424 42.2655 21.3008 42.224 21.166L40.7919 16.5052C40.7505 16.3704 40.683 16.245 40.5931 16.1363C40.5033 16.0277 40.3929 15.9377 40.2683 15.8718C40.1437 15.8058 40.0073 15.765 39.8669 15.7517C39.7265 15.7385 39.5848 15.753 39.4501 15.7946L39.2644 15.8524C39.1296 15.8938 39.0042 15.9613 38.8956 16.0512C38.7869 16.141 38.697 16.2514 38.631 16.376C38.565 16.5007 38.5242 16.6371 38.5109 16.7774C38.4977 16.9178 38.5122 17.0595 38.5538 17.1942L39.9869 21.8547C40.0283 21.9895 40.0958 22.1147 40.1855 22.2233C40.2753 22.332 40.3856 22.4219 40.5101 22.4879C40.6346 22.5539 40.7709 22.5948 40.9112 22.6081C41.0514 22.6215 41.193 22.607 41.3277 22.5657Z" fill="#FFB762"/>
<path d="M14.7374 30.7382L14.5528 30.7957C14.418 30.8373 14.2764 30.8518 14.136 30.8386C13.9956 30.8253 13.8592 30.7845 13.7346 30.7185C13.61 30.6525 13.4996 30.5626 13.4098 30.4539C13.3199 30.3453 13.2524 30.2199 13.211 30.0851L11.7778 25.4246C11.7364 25.2899 11.722 25.1484 11.7354 25.0081C11.7487 24.8678 11.7896 24.7315 11.8556 24.607C11.9216 24.4825 12.0115 24.3722 12.1201 24.2824C12.2288 24.1927 12.354 24.1252 12.4887 24.0839L12.6744 24.026C12.8092 23.9845 12.9508 23.9699 13.0912 23.9832C13.2316 23.9964 13.368 24.0372 13.4926 24.1032C13.6173 24.1692 13.7277 24.2591 13.8175 24.3678C13.9073 24.4765 13.9749 24.6018 14.0163 24.7366L15.4477 29.3953C15.4894 29.5301 15.5041 29.6718 15.491 29.8123C15.4778 29.9528 15.4371 30.0894 15.3711 30.2141C15.3051 30.3388 15.2152 30.4493 15.1065 30.5393C14.9977 30.6292 14.8723 30.6968 14.7374 30.7382Z" fill="#FFB762"/>
<path d="M17.4768 43.9182C12.4021 64.4638 31.7503 61.884 37.2618 46.5228" stroke="#8CC2CF" stroke-width="3.67422" stroke-miterlimit="10" stroke-linecap="round"/>
<path d="M18.6456 42.6399C16.8895 45.676 17.1761 52.9616 17.809 55.748" stroke="white" stroke-width="6.43072" stroke-miterlimit="10"/>
<path d="M28.0624 70.211C28.3776 70.1206 28.6441 69.9089 28.8033 69.6222C28.9625 69.3355 29.0013 68.9974 28.9114 68.682L28.3649 66.9052C28.1654 66.2649 27.431 65.8919 26.7666 66.0966L26.0674 64.6753L50.8023 57.0714L50.9294 58.6709C50.6177 58.7698 50.3578 58.9884 50.2068 59.2785C50.0559 59.5687 50.026 59.9069 50.1239 60.2191L50.6693 61.9962C50.7735 62.3049 50.9951 62.5602 51.2862 62.7066C51.5773 62.853 51.9143 62.8789 52.2243 62.7785L52.5705 63.8707L28.4229 71.2929L28.0624 70.211Z" fill="#164664"/>
<path d="M27.9402 70.242L52.408 62.7202C52.6307 62.6575 52.8692 62.6855 53.0713 62.798C53.2735 62.9105 53.423 63.0983 53.4872 63.3206C54.228 65.7323 52.9629 68.2596 50.6615 68.9672L32.8995 74.4316C30.598 75.1392 28.1307 73.7583 27.3902 71.3477C27.3174 71.1281 27.3344 70.8886 27.4374 70.6815C27.5404 70.4744 27.7212 70.3164 27.9402 70.242Z" fill="#BEDCE4"/>
<path d="M21.2679 4.96437C28.4781 2.74858 36.1422 6.86004 38.3786 14.1516L51.645 57.3069C51.6897 57.4473 51.7061 57.5952 51.6935 57.742C51.6808 57.8888 51.6392 58.0316 51.5711 58.1623C51.503 58.293 51.4097 58.4089 51.2967 58.5034C51.1836 58.5979 51.053 58.6691 50.9123 58.713L26.9389 66.082C26.7979 66.125 26.6497 66.1397 26.503 66.1252C26.3562 66.1107 26.2138 66.0673 26.0839 65.9976C25.954 65.9278 25.8392 65.833 25.7461 65.7187C25.6529 65.6043 25.5834 65.4727 25.5413 65.3314L12.2749 22.1761C10.0321 14.8865 14.0581 7.18123 21.2679 4.96437Z" fill="#B8DEE5"/>
<path d="M32.6079 28.5815L32.7016 28.8928C33.0814 30.1546 32.3742 31.4934 31.13 31.8679L29.9876 32.2118C28.7434 32.5864 27.4146 31.8605 27.0348 30.5988L26.9411 30.2875" fill="white"/>
<path d="M32.6079 28.5815L32.7016 28.8928C33.0814 30.1546 32.3742 31.4934 31.13 31.8679L29.9876 32.2118C28.7434 32.5864 27.4146 31.8605 27.0348 30.5988L26.9411 30.2875" stroke="#8CC2CF" stroke-width="1.27381" stroke-miterlimit="10" stroke-linecap="round" stroke-linejoin="round"/>
<path d="M43.4741 31.0456L41.6703 33.5253C37.2416 39.6132 29.5354 42.3662 22.2517 40.4624L18.9668 39.6038L23.3502 50.4733L45.3525 43.6189L43.4741 31.0456Z" fill="white"/>
<path d="M43.4741 31.0456L41.6703 33.5253C37.2416 39.6132 29.5354 42.3662 22.2517 40.4624L18.9668 39.6038L23.3502 50.4733L45.3525 43.6189L43.4741 31.0456Z" fill="white" stroke="#E9E6E6" stroke-width="1.40713"/>
<path d="M22.1672 45.3732L24.2965 44.7181C24.3507 44.7042 24.4016 44.6795 24.4459 44.6453C24.4903 44.6112 24.5273 44.5684 24.5546 44.5196C24.5819 44.4707 24.5989 44.4168 24.6047 44.3611C24.6105 44.3054 24.6049 44.2492 24.5883 44.1957C24.5716 44.1423 24.5443 44.0928 24.5079 44.0503C24.4715 44.0077 24.4268 43.973 24.3766 43.9483C24.3264 43.9236 24.2717 43.9094 24.2158 43.9065C24.1599 43.9036 24.104 43.9121 24.0515 43.9315L21.926 44.5878C21.8269 44.6244 21.7456 44.6977 21.699 44.7925C21.6523 44.8874 21.6438 44.9965 21.6753 45.0974C21.7067 45.1983 21.7756 45.2832 21.8679 45.3348C21.9602 45.3863 22.0687 45.4005 22.1711 45.3743L22.1672 45.3732Z" fill="#A2CED8"/>
<path d="M23.1804 48.665L25.3087 48.0102C25.4078 47.9736 25.4891 47.9003 25.5357 47.8055C25.5824 47.7106 25.5909 47.6015 25.5595 47.5006C25.528 47.3997 25.4591 47.3148 25.3668 47.2632C25.2745 47.2117 25.166 47.1975 25.0636 47.2237L22.9343 47.8788C22.8352 47.9155 22.7539 47.9887 22.7073 48.0836C22.6606 48.1784 22.6521 48.2875 22.6836 48.3884C22.715 48.4893 22.7839 48.5743 22.8762 48.6258C22.9685 48.6773 23.077 48.6915 23.1794 48.6654L23.1804 48.665Z" fill="#A2CED8"/>
<path d="M22.675 47.0201L24.8047 46.366C24.9038 46.3293 24.9851 46.256 25.0317 46.1612C25.0784 46.0664 25.0869 45.9573 25.0554 45.8564C25.024 45.7555 24.9551 45.6705 24.8628 45.619C24.7705 45.5675 24.662 45.5533 24.5596 45.5794L22.4303 46.2346C22.3262 46.267 22.2392 46.3395 22.1885 46.4361C22.1378 46.5327 22.1275 46.6455 22.1599 46.7497C22.1924 46.8538 22.2649 46.9408 22.3615 46.9915C22.4581 47.0422 22.5709 47.0525 22.675 47.0201Z" fill="#A2CED8"/>
<path d="M21.6616 43.7239L23.7898 43.0691C23.8889 43.0325 23.9702 42.9592 24.0168 42.8644C24.0635 42.7696 24.072 42.6605 24.0406 42.5596C24.0091 42.4587 23.9402 42.3737 23.8479 42.3222C23.7556 42.2706 23.6471 42.2565 23.5447 42.2826L21.4165 42.9374C21.3174 42.9741 21.2361 43.0473 21.1895 43.1422C21.1428 43.237 21.1343 43.3461 21.1657 43.447C21.1972 43.5479 21.2661 43.6329 21.3584 43.6844C21.4506 43.7359 21.5592 43.7501 21.6616 43.7239Z" fill="#A2CED8"/>
<path d="M31.4815 3.20834L29.6845 6.41065" stroke="#B8DEE5" stroke-width="1.83767" stroke-miterlimit="10"/>
<path d="M11.0239 9.396L14.1181 10.831" stroke="#B8DEE5" stroke-width="1.83767" stroke-miterlimit="10"/>
<path d="M24.5825 29.1083L33.1732 26.4683C33.7847 26.2804 34.3532 25.9739 34.8462 25.5663C35.3392 25.1587 35.747 24.658 36.0465 24.0927C36.3459 23.5275 36.5311 22.9088 36.5914 22.2719C36.6517 21.6351 36.586 20.9927 36.398 20.3812L36.2779 19.996C36.0899 19.3846 35.7834 18.8163 35.3758 18.3235C34.9681 17.8306 34.4674 17.4229 33.9022 17.1235C33.337 16.8242 32.7184 16.6391 32.0817 16.5788C31.4449 16.5186 30.8026 16.5843 30.1913 16.7723L21.6016 19.412C20.3669 19.7917 19.3335 20.6462 18.7288 21.7877C18.1241 22.9292 17.9975 24.2642 18.3769 25.499L18.4969 25.8843C18.8765 27.1187 19.7309 28.1518 20.8721 28.7564C22.0134 29.361 23.348 29.4876 24.5825 29.1083Z" fill="#36488B"/>
<path d="M32.8067 21.8564C32.413 21.3324 31.6936 21.0855 30.9937 21.2911C30.2938 21.4968 29.8223 22.0936 29.7746 22.7472" stroke="#56D8E3" stroke-width="1.38656" stroke-linecap="round"/>
<path d="M26.1849 24.0952C25.7912 23.5712 25.0718 23.3242 24.3719 23.5299C23.672 23.7355 23.2005 24.3323 23.1528 24.986" stroke="#56D8E3" stroke-width="1.38656" stroke-linecap="round"/>
<path d="M31.9874 9.07322C30.4967 8.0424 28.7894 7.36729 26.9969 7.09984C25.2043 6.83238 23.3743 6.97971 21.6476 7.53049" stroke="#ECFBFF" stroke-width="1.37825" stroke-miterlimit="10" stroke-linecap="round"/>
<path d="M34.7754 11.8589C34.4162 11.3814 34.0226 10.9307 33.5978 10.5105" stroke="#ECFBFF" stroke-width="1.37825" stroke-miterlimit="10" stroke-linecap="round"/>
<path d="M33.3661 3.68729C33.8811 3.52686 34.3369 3.21733 34.676 2.79785C35.0151 2.37836 35.2222 1.86776 35.2711 1.33059C35.32 0.793427 35.2085 0.253819 34.9508 -0.220004C34.693 -0.693826 34.3006 -1.08059 33.8231 -1.33138C33.3455 -1.58218 32.8043 -1.68576 32.2679 -1.62901C31.7315 -1.57226 31.224 -1.35775 30.8095 -1.01258C30.395 -0.667413 30.0922 -0.207097 29.9393 0.310168C29.7864 0.827433 29.7903 1.37842 29.9506 1.89346C30.1657 2.58418 30.6464 3.16117 31.2869 3.49756C31.9274 3.83395 32.6753 3.90219 33.3661 3.68729Z" fill="#B8DEE5"/>
<path d="M33.0012 2.58963C33.2967 2.49757 33.5583 2.31995 33.7528 2.07923C33.9474 1.83851 34.0662 1.54551 34.0942 1.23727C34.1223 0.929025 34.0583 0.619393 33.9103 0.347526C33.7624 0.0756595 33.5371 -0.146231 33.2631 -0.290088C32.989 -0.433945 32.6785 -0.493307 32.3707 -0.460666C32.0629 -0.428025 31.7717 -0.304849 31.5339 -0.106712C31.2962 0.0914246 31.1225 0.355623 31.0348 0.652472C30.9472 0.949321 30.9496 1.26549 31.0416 1.56099C31.1651 1.95725 31.4409 2.28824 31.8084 2.48115C32.1759 2.67406 32.6049 2.71308 33.0012 2.58963Z" fill="#F65539"/>
<path d="M10.0147 10.9625C10.5298 10.8023 10.9858 10.4929 11.3251 10.0735C11.6643 9.65411 11.8716 9.14353 11.9207 8.60633C11.9697 8.06913 11.8584 7.52944 11.6008 7.05551C11.3431 6.58158 10.9507 6.1947 10.4732 5.94378C9.99568 5.69286 9.45447 5.58918 8.91802 5.64585C8.38157 5.70252 7.87397 5.91699 7.45941 6.26214C7.04485 6.6073 6.74195 7.06763 6.58901 7.58494C6.43608 8.10224 6.43997 8.65328 6.60021 9.16836C6.81534 9.8589 7.29583 10.4358 7.93609 10.7722C8.57636 11.1086 9.324 11.1771 10.0147 10.9625Z" fill="#B8DEE5"/>
<path d="M9.64304 9.86941C9.93855 9.77735 10.2001 9.59973 10.3947 9.35902C10.5892 9.1183 10.708 8.82529 10.7361 8.51705C10.7641 8.20881 10.7001 7.89918 10.5522 7.62731C10.4042 7.35545 10.179 7.13355 9.90493 6.9897C9.63088 6.84584 9.32033 6.78648 9.01254 6.81912C8.70476 6.85176 8.41356 6.97494 8.17578 7.17307C7.938 7.37121 7.76431 7.63541 7.67669 7.93226C7.58906 8.22911 7.59142 8.54527 7.68348 8.84078C7.80693 9.23704 8.08273 9.56803 8.45022 9.76094C8.81771 9.95384 9.24678 9.99286 9.64304 9.86941Z" fill="#F65539"/>
<path d="M27.3865 72.2694L54.2365 63.9047L44.097 31.3578L35.2667 49.6899L21.8991 41.8335L15.9191 38.785L15.0981 42.537C17.3121 42.6062 19.2045 44.1522 19.7139 46.308L20.3746 49.1036L27.3865 72.2694Z" fill="#323749"/>
<path d="M40.3737 68.0769L43.6703 67.0499C43.9296 66.9682 44.1461 66.7872 44.2725 66.5465C44.3988 66.3058 44.4248 66.0248 44.3448 65.765L43.8564 64.1972C43.7747 63.9379 43.5937 63.7215 43.353 63.5951C43.1123 63.4687 42.8313 63.4427 42.5715 63.5228L39.2749 64.5498C39.0156 64.6315 38.7991 64.8124 38.6727 65.0532C38.5464 65.2939 38.5204 65.5748 38.6004 65.8347L39.0881 67.4003C39.1694 67.6601 39.3503 67.8772 39.5912 68.004C39.8321 68.1308 40.1135 68.157 40.3737 68.0769V68.0769Z" stroke="#FECA60" stroke-width="1.37825" stroke-miterlimit="10"/>
<path d="M25.8511 67.3297C26.318 67.3506 26.7808 67.4261 27.2301 67.5546C27.2503 67.5608 27.2719 67.5599 27.2915 67.5521C27.311 67.5442 27.3272 67.5298 27.3374 67.5114C27.3476 67.493 27.3512 67.4716 27.3475 67.4509C27.3437 67.4301 27.333 67.4113 27.317 67.3976C26.7317 66.8818 26.2526 66.2567 25.9066 65.5574C25.3827 64.489 25.1728 63.2938 25.3012 62.1107C25.3114 62.0133 25.3437 61.9195 25.3956 61.8365C25.4475 61.7534 25.5176 61.6833 25.6007 61.6315C25.6838 61.5796 25.7776 61.5474 25.875 61.5373C25.9724 61.5271 26.0708 61.5394 26.1628 61.573C27.3388 61.9971 28.3585 62.7677 29.0876 63.7832C29.5044 64.3705 29.8103 65.0291 29.9903 65.7265C29.9952 65.7467 30.007 65.7647 30.0236 65.7773C30.0402 65.7899 30.0606 65.7964 30.0814 65.7956C30.1023 65.7949 30.1222 65.7871 30.1379 65.7734C30.1536 65.7597 30.1641 65.7409 30.1676 65.7204C30.2947 65.0472 30.5365 64.4008 30.8824 63.8094C31.4886 62.7853 32.3728 61.954 33.4325 61.4122C33.5195 61.3674 33.6155 61.3431 33.7134 61.3409C33.8112 61.3388 33.9082 61.3589 33.9971 61.3998C34.086 61.4407 34.1644 61.5013 34.2264 61.577C34.2884 61.6526 34.3324 61.7414 34.355 61.8366C34.6452 63.0507 34.5611 64.3243 34.1139 65.4897C33.9876 65.8128 33.833 66.1242 33.6521 66.4203L26.283 68.716L25.8511 67.3297Z" fill="#F69F1C"/>
<path d="M44.5147 34.2126C66.1067 46.9935 61.2993 29.4043 53.6771 22.3686" stroke="#8CC2CF" stroke-width="3.67422" stroke-miterlimit="10"/>
<path d="M44.5147 34.2126C66.1067 46.9935 61.2993 29.4043 53.6771 22.3686" stroke="#A2CED8" stroke-width="3.67422" stroke-miterlimit="10" stroke-dasharray="4.59 2.76"/>
<path d="M43.7124 33.0371C48.1594 36.8039 49.6809 37.8458 54.3708 38.8005" stroke="white" stroke-width="6.43072" stroke-miterlimit="10"/>
<path d="M44.3884 28.6734L47.876 30.5434C48.1064 30.666 48.3019 30.8451 48.4442 31.0639C48.5866 31.2826 48.6711 31.5339 48.6898 31.7942C48.7086 32.0545 48.661 32.3153 48.5516 32.5522C48.4421 32.7891 48.2743 32.9943 48.0639 33.1487L43.022 36.9006C42.9247 36.9727 42.8477 37.0685 42.7982 37.179C42.7488 37.2895 42.7287 37.4109 42.7398 37.5314C42.751 37.6519 42.793 37.7675 42.8618 37.8671C42.9307 37.9667 43.024 38.0468 43.1328 38.0998L43.9831 38.5163C44.0931 38.5702 44.1871 38.6518 44.256 38.7531C44.325 38.8543 44.3664 38.9717 44.3762 39.0938C44.3861 39.2159 44.364 39.3385 44.3122 39.4494C44.2603 39.5604 44.1806 39.656 44.0806 39.7269L36.2072 49.2205C35.6213 49.6375 34.8892 48.974 35.2496 48.3607L43.4291 28.9422C43.5231 28.7819 43.6756 28.6643 43.8545 28.6142C44.0334 28.5641 44.2248 28.5853 44.3884 28.6734Z" fill="#454C65"/>
<path d="M15.7987 36.502L13.437 39.6774C13.2806 39.8864 13.1799 40.1316 13.1442 40.3902C13.1084 40.6487 13.1389 40.9121 13.2327 41.1557C13.3265 41.3992 13.4805 41.615 13.6804 41.7828C13.8803 41.9507 14.1195 42.065 14.3757 42.1152L20.5343 43.3675C20.6534 43.3911 20.7643 43.4451 20.8564 43.5241C20.9485 43.6031 21.0186 43.7045 21.0601 43.8185C21.1015 43.9326 21.1128 44.0554 21.0929 44.1751C21.073 44.2948 21.0226 44.4073 20.9465 44.5018L20.3551 45.2401C20.2781 45.3355 20.2273 45.4493 20.2077 45.5703C20.1881 45.6913 20.2003 45.8153 20.2433 45.9301C20.2862 46.0449 20.3583 46.1465 20.4525 46.225C20.5467 46.3035 20.6597 46.356 20.7803 46.3775L34.0645 49.7019C34.772 49.8303 35.1526 48.9185 34.5656 48.5166L16.7821 36.3362C16.6284 36.2317 16.4403 36.1907 16.2571 36.2216C16.0739 36.2525 15.9096 36.3529 15.7987 36.502Z" fill="#454C65"/>
<path d="M54.4148 23.3387C54.7807 22.8561 55.0538 22.2894 55.232 21.6425C55.6027 20.291 55.4431 19.052 54.7573 17.9602C54.1474 16.989 53.1957 16.2545 52.3455 15.6642C52.2212 15.5773 52.081 15.5157 51.9329 15.4831C51.7847 15.4504 51.6316 15.4474 51.4823 15.474C51.333 15.5007 51.1905 15.5566 51.0628 15.6384C50.9352 15.7203 50.8249 15.8266 50.7385 15.9512C50.652 16.0758 50.591 16.2162 50.5589 16.3645C50.5268 16.5127 50.5244 16.6658 50.5516 16.8151C50.5788 16.9643 50.6352 17.1067 50.7176 17.234C50.8 17.3614 50.9067 17.4713 51.0316 17.5574C51.6905 18.0148 52.4166 18.5661 52.8056 19.1856C53.1475 19.7298 53.2104 20.2992 53.0093 21.0321C52.6376 22.3872 51.7278 22.9181 49.404 23.1358C49.2534 23.1499 49.1069 23.1936 48.9732 23.2643C48.8394 23.335 48.7208 23.4314 48.6243 23.5479C48.5278 23.6645 48.4551 23.7989 48.4106 23.9435C48.366 24.0881 48.3503 24.2401 48.3645 24.3908C48.3787 24.5415 48.4224 24.6879 48.4931 24.8217C48.5639 24.9556 48.6603 25.0741 48.7768 25.1707C48.8934 25.2673 49.0278 25.3399 49.1724 25.3846C49.3171 25.4292 49.4691 25.4449 49.6197 25.4307C50.6569 25.3328 51.859 25.159 52.9105 24.6029C53.5179 24.2816 54.0204 23.859 54.4148 23.3387Z" fill="#8CC2CF"/>
<path d="M51.9858 12.6818L51.6131 11.3427C51.42 10.649 51.5724 9.90482 52.0226 9.34292L59.4181 0.11322C60.5053 -1.24361 62.632 -1.01981 63.4129 0.533614C64.1401 1.9802 63.2465 3.71568 61.6465 3.96393L61.2814 4.02058C60.8459 4.08815 60.5022 4.42627 60.4275 4.8606L59.5372 10.0371C59.4247 10.6914 59.0671 11.2782 58.5373 11.6783L55.4806 13.9865L40.9464 54.2517L36.578 52.6208L51.9858 12.6818Z" fill="#F89F4D"/>
<path d="M34.3653 39.8436C32.6572 47.3582 38.0392 48.0546 39.7497 44.943L41.942 51.3359C44.8334 55.1189 47.5537 53.7538 49.052 51.4038C49.7648 50.2859 51.5777 49.916 51.8359 51.2165C52.4618 54.369 50.3901 57.369 48.2126 59.5125C46.7314 60.9705 45.7849 62.954 46.009 65.0203L46.6729 71.1428C47.436 78.1798 40.5204 83.5555 33.8891 81.0799L24.5761 77.6031C18.1927 75.22 16.3115 67.0952 20.9978 62.1491L25.7711 57.1112C27.819 54.9497 28.6334 51.9529 28.5257 48.9773C28.2783 42.14 30.5876 39.1559 32.8211 38.1309C33.8375 37.6645 34.6131 38.7532 34.3653 39.8436Z" fill="#F93535"/>
<path d="M34.3653 39.8436C32.6572 47.3582 38.0392 48.0546 39.7497 44.943L41.942 51.3359C44.8334 55.1189 47.5537 53.7538 49.052 51.4038C49.7648 50.2859 51.5777 49.916 51.8359 51.2165C52.4618 54.369 50.3901 57.369 48.2126 59.5125C46.7314 60.9705 45.7849 62.954 46.009 65.0203L46.6729 71.1428C47.436 78.1798 40.5204 83.5555 33.8891 81.0799L24.5761 77.6031C18.1927 75.22 16.3115 67.0952 20.9978 62.1491L25.7711 57.1112C27.819 54.9497 28.6334 51.9529 28.5257 48.9773C28.2783 42.14 30.5876 39.1559 32.8211 38.1309C33.8375 37.6645 34.6131 38.7532 34.3653 39.8436Z" fill="#F93535"/>
<path d="M34.3653 39.8437C32.6572 47.3582 38.0393 48.0546 39.7497 44.943L41.9421 51.336C44.8334 55.1189 47.5537 53.7539 49.052 51.4038C49.7648 50.2859 51.5777 49.916 51.8359 51.2165C52.4618 54.369 50.3901 57.369 48.2126 59.5125C46.7315 60.9706 45.7849 62.954 46.009 65.0203L46.6729 71.1428C47.4361 78.1798 40.5204 83.5555 33.8892 81.0799L24.5761 77.6031C18.1927 75.22 16.3115 67.0953 20.9978 62.1491L25.7711 57.1112C27.819 54.9497 28.6334 51.9529 28.5257 48.9773C28.2783 42.14 30.5876 39.1559 32.8211 38.1309C33.8375 37.6645 34.6131 38.7532 34.3653 39.8437Z" fill="#F93535"/>
<path fill-rule="evenodd" clip-rule="evenodd" d="M40.2761 52.2277L38.8779 48.1504C37.639 48.6946 36.2028 48.7264 34.8915 48.0205C32.7078 46.845 31.8412 44.2051 32.2907 40.8393C31.2326 42.0558 30.2271 44.4182 30.3897 48.9098C30.5102 52.2405 29.6059 55.7757 27.1251 58.394L22.3518 63.4319C18.5843 67.4083 20.0967 73.9399 25.2284 75.8557L34.5415 79.3325C39.8725 81.3227 45.4321 77.0011 44.8187 71.3439L44.1547 65.2214C43.8536 62.4449 45.1321 59.9277 46.9042 58.1833C48.4754 56.6366 49.6555 54.9336 49.9879 53.2824C49.0962 54.3594 47.8501 55.3095 46.2634 55.5189C44.1159 55.8023 42.1249 54.6466 40.4602 52.4686L40.2761 52.2277ZM38.2705 46.3793C36.077 47.4535 33.0191 45.7662 34.3653 39.8437C34.6131 38.7532 33.8375 37.6645 32.8211 38.1309C30.5876 39.1559 28.2783 42.14 28.5257 48.9773C28.6334 51.9529 27.819 54.9497 25.7711 57.1112L20.9978 62.1491C16.3115 67.0953 18.1927 75.22 24.5761 77.6031L33.8892 81.0799C40.5204 83.5555 47.4361 78.1798 46.6729 71.1428L46.009 65.0203C45.7849 62.954 46.7315 60.9706 48.2126 59.5125C50.3901 57.369 52.4618 54.369 51.8359 51.2165C51.5777 49.916 49.7648 50.2859 49.052 51.4038C47.5537 53.7539 44.8334 55.1189 41.9421 51.336L39.7497 44.943C39.3873 45.6022 38.8601 46.0906 38.2705 46.3793Z" fill="#F93535"/>
<path d="M45.33 64.9868L46.0833 71.5196C46.3981 74.2498 45.1418 76.9232 42.8392 78.4233C42.2171 78.8286 41.3829 78.4709 41.2477 77.7408L40.9641 76.2095C40.5918 74.1994 39.1922 72.5321 37.2771 71.8171L29.1601 68.7868C27.094 68.0155 25.8695 65.8827 26.2451 63.7095C26.462 62.4545 27.0401 61.29 27.9088 60.3586L30.7798 57.2801C32.2642 55.6884 33.2015 53.6642 33.4551 51.5026L33.8387 48.2322C33.9631 47.1718 35.2122 46.6699 36.0357 47.3495L41.4411 51.8099C42.9548 53.7621 44.5613 54.5547 46.1195 54.3491C47.6427 54.1481 48.8514 53.0216 49.6533 51.7639C49.895 51.3848 50.3384 51.1282 50.7071 51.0835C50.884 51.0621 50.989 51.0954 51.0377 51.1247C51.0687 51.1433 51.124 51.185 51.1539 51.3353C51.7101 54.1369 49.8441 56.9283 47.6623 59.0564C46.104 60.5764 45.0678 62.7129 45.33 64.9868Z" fill="white" stroke="#F93535" stroke-width="1.40713"/>
<path d="M51.7906 13.1985C51.901 12.9124 52.2211 12.7685 52.5084 12.8757L54.966 13.7932C55.2533 13.9005 55.4007 14.219 55.2966 14.5074L41.1424 53.7199C41.0367 54.0128 40.7122 54.163 40.4204 54.0541L37.1119 52.8189C36.8202 52.71 36.6735 52.3839 36.7856 52.0933L51.7906 13.1985Z" fill="#965F34"/>
<rect x="37.5251" y="50.0889" width="4.66255" height="0.373032" rx="0.186516" transform="rotate(20.4718 37.5251 50.0889)" fill="#C68A5C"/>
<rect width="4.76271" height="0.373032" rx="0.186516" transform="matrix(0.936844 0.349746 -0.349745 0.936845 36.9587 51.4692)" fill="#C68A5C"/>
<rect x="37.9946" y="48.6704" width="4.77164" height="0.373032" rx="0.186516" transform="rotate(20.4718 37.9946 48.6704)" fill="#C68A5C"/>
<rect x="38.561" y="47.2891" width="4.68737" height="0.373032" rx="0.186516" transform="rotate(20.4718 38.561 47.2891)" fill="#C68A5C"/>
<rect x="39.1287" y="45.71" width="4.72215" height="0.373032" rx="0.186516" transform="rotate(20.4718 39.1287 45.71)" fill="#C68A5C"/>
<rect x="39.8301" y="43.9819" width="4.61068" height="0.373032" rx="0.186516" transform="rotate(20.4718 39.8301 43.9819)" fill="#C68A5C"/>
<rect x="40.4392" y="42.0186" width="4.69469" height="0.373032" rx="0.186516" transform="rotate(20.4718 40.4392 42.0186)" fill="#C68A5C"/>
<rect x="41.2878" y="40.1465" width="4.56325" height="0.373032" rx="0.186516" transform="rotate(20.4718 41.2878 40.1465)" fill="#C68A5C"/>
<rect x="42.0291" y="38.2334" width="4.51611" height="0.373032" rx="0.186516" transform="rotate(20.4718 42.0291 38.2334)" fill="#C68A5C"/>
<rect x="42.8962" y="35.9683" width="4.47639" height="0.373032" rx="0.186516" transform="rotate(20.4718 42.8962 35.9683)" fill="#C68A5C"/>
<rect x="43.9275" y="33.7632" width="4.08952" height="0.373032" rx="0.186516" transform="rotate(20.4718 43.9275 33.7632)" fill="#C68A5C"/>
<rect x="44.7822" y="31.4961" width="4.07354" height="0.373032" rx="0.186516" transform="rotate(20.4718 44.7822 31.4961)" fill="#C68A5C"/>
<rect x="45.7673" y="28.877" width="4.0517" height="0.373032" rx="0.186516" transform="rotate(20.4718 45.7673 28.877)" fill="#C68A5C"/>
<rect x="46.7681" y="26.2646" width="4.0131" height="0.373032" rx="0.186516" transform="rotate(20.4718 46.7681 26.2646)" fill="#C68A5C"/>
<rect x="47.7395" y="23.6411" width="4.02081" height="0.373032" rx="0.186516" transform="rotate(20.4718 47.7395 23.6411)" fill="#C68A5C"/>
<rect x="48.6785" y="21.0054" width="4.10336" height="0.373032" rx="0.186516" transform="rotate(20.4718 48.6785 21.0054)" fill="#C68A5C"/>
<rect x="49.6606" y="18.3843" width="4.10336" height="0.373032" rx="0.186516" transform="rotate(20.4718 49.6606 18.3843)" fill="#C68A5C"/>
<rect x="50.6367" y="15.7632" width="4.10336" height="0.373032" rx="0.186516" transform="rotate(20.4718 50.6367 15.7632)" fill="#C68A5C"/>
<rect x="51.6218" y="13.1421" width="4.10336" height="0.373032" rx="0.186516" transform="rotate(20.4718 51.6218 13.1421)" fill="#C68A5C"/>
<rect opacity="0.5" x="35.3706" y="53.4629" width="6.34155" height="1.67865" rx="0.839323" transform="rotate(20.4718 35.3706 53.4629)" fill="#C4C4C4"/>
<rect opacity="0.5" x="33.6733" y="58.0068" width="6.34155" height="1.67865" rx="0.839323" transform="rotate(20.4718 33.6733 58.0068)" fill="#C4C4C4"/>
<rect opacity="0.5" x="31.9761" y="62.5508" width="6.34155" height="1.67864" rx="0.839323" transform="rotate(20.4718 31.9761 62.5508)" fill="#C4C4C4"/>
<path d="M52.9985 9.97314C44.7701 32.0143 38.8846 47.7793 30.6561 69.8205" stroke="#C4C4C4" stroke-width="0.234522" stroke-linecap="round"/>
<path d="M54.3521 8.48682C46.1236 30.528 39.5858 48.0403 31.3573 70.0815" stroke="#C4C4C4" stroke-width="0.234522" stroke-linecap="round"/>
<path d="M55.8667 6.56396C47.6382 28.6051 40.285 48.3017 32.0566 70.3428" stroke="#C4C4C4" stroke-width="0.234522" stroke-linecap="round"/>
<path d="M57.217 5.07617C48.9886 27.1173 40.9831 48.5613 32.7546 70.6024" stroke="#C4C4C4" stroke-width="0.234522" stroke-linecap="round"/>
<path d="M58.6658 3.3291C50.4373 25.3703 41.6816 48.8237 33.4531 70.8648" stroke="#C4C4C4" stroke-width="0.234522" stroke-linecap="round"/>
<path d="M60.0837 1.66748C51.8553 23.7086 42.382 49.0841 34.1535 71.1253" stroke="#C4C4C4" stroke-width="0.234522" stroke-linecap="round"/>
<rect x="58.3354" y="2.09717" width="1.19912" height="1.29347" rx="0.599559" transform="rotate(31.9371 58.3354 2.09717)" fill="#E5E5E5"/>
<rect x="56.9604" y="3.79053" width="1.19912" height="1.29347" rx="0.599559" transform="rotate(31.9371 56.9604 3.79053)" fill="#E5E5E5"/>
<rect x="55.5854" y="5.48779" width="1.19912" height="1.29347" rx="0.599559" transform="rotate(31.9371 55.5854 5.48779)" fill="#E5E5E5"/>
<rect x="54.2104" y="7.18311" width="1.19912" height="1.29347" rx="0.599559" transform="rotate(31.9371 54.2104 7.18311)" fill="#E5E5E5"/>
<rect x="52.8323" y="8.87695" width="1.19912" height="1.29347" rx="0.599559" transform="rotate(31.9371 52.8323 8.87695)" fill="#E5E5E5"/>
<path d="M36.745 48.7469C28.6742 57.1118 25.4166 61.4131 18.9913 56.9815" stroke="#8CC2CF" stroke-width="3.67422" stroke-miterlimit="10"/>
<path d="M36.745 48.7468C28.6742 57.1118 25.4166 61.4131 18.9913 56.9815" stroke="#A2CED8" stroke-width="3.67422" stroke-miterlimit="10" stroke-dasharray="4.59 2.76"/>
<path d="M55.2516 21.6568C55.2133 21.7983 55.1482 21.9311 55.0598 22.048L53.1366 20.3691C53.1538 19.9372 53.0492 19.5587 52.8181 19.1914C52.4275 18.5703 51.6996 18.0168 51.0393 17.5573C50.9141 17.4708 50.8071 17.3606 50.7244 17.2329C50.6417 17.1051 50.5849 16.9624 50.5573 16.8129C50.5298 16.6635 50.5319 16.5101 50.5637 16.3618C50.5955 16.2134 50.6563 16.0729 50.7425 15.9483C50.8288 15.8238 50.9389 15.7176 51.0664 15.6359C51.194 15.5541 51.3366 15.4985 51.4859 15.4721C51.6353 15.4457 51.7885 15.4491 51.9368 15.4821C52.0851 15.5151 52.2256 15.5771 52.3502 15.6644C53.2023 16.2572 54.1563 16.9948 54.7688 17.9686C55.4574 19.0633 55.6198 20.3043 55.2516 21.6568Z" fill="#8CC2CF"/>
<path d="M42.7326 48.1026C36.9693 52.4595 33.2972 47.3075 37.8903 43.3114" stroke="#8CC2CF" stroke-width="2.35609" stroke-linecap="round"/>
</g>
</svg>

