<svg width="192" height="256" viewBox="0 0 192 256" fill="none" xmlns="http://www.w3.org/2000/svg">
<rect x="-1.48728" y="1.74248" width="140.946" height="104.131" rx="3.1494" transform="matrix(-0.997263 0.0739293 0.0836063 0.996499 163.603 13.3316)" fill="#A3FAFA" stroke="#A7D5FF" stroke-width="3.25567"/>
<path d="M95.8418 67.9764V55.754C95.8418 54.9021 95.0373 54.2796 94.2126 54.4935L89.9802 55.5911C89.4059 55.7401 89.0049 56.2584 89.0049 56.8517V69.0145C89.0049 69.8594 89.7969 70.4806 90.6174 70.2793L94.8498 69.2412C95.4322 69.0983 95.8418 68.5761 95.8418 67.9764Z" fill="#74E6E6"/>
<path d="M86.7319 65.0206V58.0755C86.7319 57.2239 85.928 56.6015 85.1036 56.8147L80.8712 57.9093C80.2965 58.0579 79.895 58.5764 79.895 59.17V66.0802C79.895 66.9276 80.6915 67.5493 81.5136 67.3435L85.7459 66.2839C86.3255 66.1388 86.7319 65.618 86.7319 65.0206Z" fill="#74E6E6"/>
<path d="M86.7344 82.3054V70.1398C86.7344 69.2706 85.899 68.6453 85.065 68.8904L80.8326 70.1338C80.2782 70.2967 79.8975 70.8055 79.8975 71.3833V83.3435C79.8975 84.1884 80.6895 84.8096 81.51 84.6083L85.7423 83.5702C86.3248 83.4273 86.7344 82.9051 86.7344 82.3054Z" fill="#74E6E6"/>
<path d="M144.674 22.3431V18.0977L137.837 18.6211V23.1455C137.837 23.9619 138.58 24.577 139.382 24.4249L143.615 23.6226C144.229 23.506 144.674 22.9688 144.674 22.3431Z" fill="#74E6E6"/>
<path d="M86.7344 82.6981V79.1762C86.7344 78.3314 85.9425 77.7102 85.1221 77.9114L70.146 81.5826C69.5634 81.7254 69.1538 82.2476 69.1538 82.8474V86.6414C69.1538 87.4954 69.9618 88.1182 70.7876 87.9008L85.7637 83.9575C86.3357 83.8069 86.7344 83.2896 86.7344 82.6981Z" fill="#74E6E6"/>
<path d="M77.6169 63.8464V60.3469C77.6169 59.4845 76.7939 58.8603 75.9635 59.0928L62.2897 62.9215C61.7274 63.079 61.3386 63.5915 61.3386 64.1755V67.9434C61.3386 68.8155 62.1792 69.4412 63.0146 69.1908L76.6884 65.0939C77.2395 64.9287 77.6169 64.4216 77.6169 63.8464Z" fill="#74E6E6"/>
<path d="M135.889 24.3831V18.7617L125.797 19.5078V26.074C125.797 26.9089 126.571 27.5282 127.386 27.3443L134.874 25.6534C135.468 25.5194 135.889 24.9918 135.889 24.3831Z" fill="#74E6E6"/>
<path d="M125.793 87.6061L132.304 71.0022L95.1894 73.6067L91.6082 87.6061L59.1553 94.9312L58.4968 96.9064C57.1152 101.051 60.1998 105.33 64.5683 105.33H73.6661L81.5368 103.68L99.4568 109.44L104.819 120.543L141.554 123.087L148.257 97.3731L125.793 87.6061Z" fill="#86E47E"/>
<path d="M105.131 90.8263C138.184 80.0216 142.915 39.9936 165.017 31.9568L170.078 91.1653C161.293 97.7388 150.277 102.662 141.536 102.662C73.4806 102.662 60.5314 116.119 57.3294 125.747L36.3047 127.293C40.7415 106.372 69.39 102.509 105.131 90.8263Z" fill="#6AAEFF"/>
<path d="M146.563 25.2482L120.721 31.2118C118.358 31.7572 116.683 33.8619 116.683 36.2875V64.8462L93.1307 72.0621C90.942 72.7326 89.4476 74.7535 89.4476 77.0427V85.5091L72.1738 89.8106L72.148 89.8171L32.5714 100.104L33.0094 105.372L72.0129 95.2344L85.5235 108.788C86.2646 109.531 87.213 110.034 88.2444 110.229L98.0386 112.082L103.268 122.313L108.95 121.984L102.677 109.711C101.944 108.277 100.589 107.263 99.0069 106.963L89.2127 105.11L77.8929 93.7546L90.7063 90.5638C93.0275 89.9858 94.6566 87.9012 94.6566 85.5091V77.0427L118.209 69.8267C120.398 69.1562 121.893 67.1353 121.893 64.8462V36.2875L147.735 30.3239C149.857 29.8341 151.451 28.0753 151.73 25.9149L152.811 17.507L147.512 17.8999L146.563 25.2482Z" fill="#F1FFFF"/>
<path d="M69.1534 35.8424L71.1051 23.5671L27.9613 26.7421C27.1295 26.8033 26.5074 27.5313 26.5765 28.3624L31.4152 86.5264L55.4796 77.8406V59.6088L78.2693 53.7486V34.8657L69.1534 35.8424Z" fill="#86E47E"/>
<path d="M79.5677 37.1445L78.2655 50.8183L85.7535 51.4694L92.2356 41.7463C93.728 39.5077 93.2701 36.5009 91.1789 34.8081L88.0325 32.261L79.5677 37.1445Z" fill="#86E47E"/>
<path d="M30.43 83.5341C30.7405 84.9386 24.497 87.8571 25.9015 87.5466L54.9962 81.1144C57.4596 80.5698 59.1786 78.3382 59.0765 75.8174L58.4867 61.2466L79.5308 55.4821L98.451 50.598L98.451 70.351C98.451 71.7894 99.6171 72.9555 101.056 72.9555C102.494 72.9555 103.66 71.7894 103.66 70.351L103.66 50.598C103.66 47.1926 100.446 44.7031 97.149 45.5542L81.4656 49.6028L81.4656 36.93L98.3331 32.9873C100.69 32.4364 102.357 30.3351 102.357 27.9149L102.357 21.2508L97.1475 21.639L97.1475 27.9149L78.2687 32.3278L71.4288 33.9255L71.4288 23.5403L66.2198 23.9284L66.2198 33.9255C66.2198 37.281 69.346 39.7613 72.6137 38.998L76.2565 38.1471L76.2566 50.978L57.1105 56.2226C54.7712 56.8634 53.1837 59.0339 53.2819 61.4573L53.8717 76.0281L24.7771 82.4604C23.3725 82.7709 30.1194 82.1296 30.43 83.5341Z" fill="#F1FFFF"/>
<rect x="-1.0194" y="0.85966" width="24.2515" height="21.1778" rx="2.6042" transform="matrix(-0.996406 -0.0847032 -0.0847032 0.996406 178.833 75.3816)" fill="#B2FFFF" stroke="#A7D5FF" stroke-width="1.88583"/>
<rect width="15.3242" height="2.79726" rx="1.39863" transform="matrix(-0.99651 -0.0834769 -0.17024 0.985403 175.132 79.8149)" fill="#74E5E5"/>
<rect width="9.88764" height="2.84627" rx="1.42314" transform="matrix(-0.99651 -0.0834769 -0.17024 0.985403 174.596 84.8718)" fill="#74E5E5"/>
<rect width="11.6296" height="2.84627" rx="1.42314" transform="matrix(-0.99651 -0.0834769 -0.17024 0.985403 173.735 89.7242)" fill="#74E5E5"/>
<rect width="3.30183" height="2.84627" rx="1.42314" transform="matrix(0.99651 0.0834769 -0.17024 0.985403 160.149 83.6235)" fill="#74E5E5"/>
<path d="M69.4789 49.1651C69.5108 48.1479 69.2899 46.2598 68.1519 46.8455C66.7294 47.5777 64.384 49.3309 64.2205 48.4597C64.0569 47.5885 64.9021 44.97 64.066 45.2636C63.2299 45.5573 62.557 46.7229 61.6437 45.4185C60.7304 44.1141 60.5669 43.2427 59.7305 43.5369C58.8941 43.8311 55.9718 43.6973 56.3945 42.3879" stroke="#FF6D59" stroke-width="1.28" stroke-linecap="round"/>
<path d="M61.1933 57.6974C60.1644 63.8249 54.8739 62.8305 54.7597 59.7843C54.6498 56.8513 57.7343 55.9973 58.7565 57.7732" stroke="#FF6D59" stroke-width="1.28" stroke-linecap="round"/>
<path d="M105.279 36.0831C107.528 38.8114 107.853 39.8052 107.433 41.0684" stroke="#FF6D59" stroke-width="1.28" stroke-linecap="round"/>
<path d="M109.379 37.0206C106.352 37.656 105.538 38.1981 104.989 39.4102" stroke="#FF6D59" stroke-width="1.28" stroke-linecap="round"/>
<path d="M108.104 33.2788C118.026 37.4392 107.979 45.5723 103.622 42.2389C99.4276 39.0292 102.982 32.9597 107.782 34.5597" stroke="#FF6D59" stroke-width="1.28" stroke-linecap="round"/>
<path d="M65.3939 52.4699C65.4151 51.7933 65.2682 50.5377 64.5114 50.9272C63.5653 51.4141 62.0055 52.5801 61.8967 52.0007C61.7879 51.4213 62.35 49.6798 61.794 49.8751C61.2379 50.0704 60.7904 50.8457 60.183 49.9782C59.5756 49.1107 59.4669 48.5311 58.9106 48.7267C58.3543 48.9224 56.4108 48.8335 56.6919 47.9626" stroke="#FF6D59" stroke-width="1.28" stroke-linecap="round"/>
<rect x="-1.01489" y="0.901777" width="23.0914" height="20.9058" rx="2.65138" transform="matrix(-0.998263 -0.0589122 -0.0589122 0.998263 47.2492 32.1362)" fill="#445B9A" stroke="#5A99E4" stroke-width="1.92"/>
<path d="M30.5745 40.2975C30.9014 37.7351 33.0991 35.8259 35.682 35.8603C38.3233 35.8956 40.4969 37.9489 40.6823 40.5839L41.1816 47.682C41.2169 48.1834 40.8099 48.6048 40.3076 48.5872L30.4924 48.2426C29.9947 48.2252 29.6195 47.7838 29.6826 47.2897L30.5745 40.2975Z" fill="#D78253" stroke="#D78253" stroke-width="1.96903"/>
<path d="M30.8549 50.6413L39.375 50.8717C38.7661 49.7241 37.599 48.9297 36.2504 48.8325L34.4946 48.7061C32.9777 48.5968 31.5784 49.3763 30.8549 50.6413Z" fill="#E6BB65" stroke="#E6BB65" stroke-width="1.96903"/>
<path d="M38.6704 43.0869C38.4461 44.6808 37.0566 45.8418 35.4476 45.7799C33.796 45.7163 32.4656 44.3875 32.3986 42.7348L32.3003 40.308C32.2197 38.3173 33.8702 36.7012 35.8575 36.8251C37.8283 36.948 39.2834 38.7304 39.0084 40.6846L38.6704 43.0869Z" fill="#D78253" stroke="#D78253" stroke-width="1.96903"/>
<path d="M35.491 50.3205C35.4742 50.5234 35.3065 50.6797 35.103 50.6822C34.8771 50.685 34.6933 50.4987 34.699 50.2727L34.945 40.4449L36.3016 40.5295L35.491 50.3205Z" fill="#E6BB65" stroke="#E6BB65" stroke-width="1.96903"/>
<path d="M39.5872 42.2466C39.5752 42.3313 39.5014 42.393 39.4158 42.3897C39.328 42.3864 39.2573 42.3157 39.2538 42.2279L39.2264 41.5522C39.2209 41.4172 39.3329 41.3076 39.4676 41.316C39.6013 41.3244 39.6999 41.4452 39.6813 41.5777L39.5872 42.2466Z" fill="#E6BB65" stroke="#E6BB65" stroke-width="1.96903"/>
<path d="M30.729 38.7243C28.9486 41.551 30.1514 44.8272 29.9551 43.2835C31.2123 44.1675 33.6748 42.5926 35.4553 39.7659C36.3468 38.3506 36.8982 36.8897 37.0688 35.6728C37.2389 34.4594 35.4001 36.1131 34.7724 35.6718C33.5151 34.7878 32.5095 35.8976 30.729 38.7243Z" fill="#D78253"/>
<mask id="path-33-inside-1" fill="white">
<path fill-rule="evenodd" clip-rule="evenodd" d="M36.1332 37.3802C36.3817 36.6903 37.1376 36.2477 37.7288 36.6816C38.9841 37.603 39.7185 39.1685 39.4847 40.8301L39.1466 43.2324C38.8523 45.3239 37.0291 46.8473 34.9178 46.766C33.348 46.7056 31.9993 45.7741 31.3416 44.4409C31.0666 43.8834 31.448 43.2701 31.9742 42.9391C32.98 42.3062 34.0559 41.1963 34.957 39.7657C35.4596 38.9677 35.8541 38.1553 36.1332 37.3802Z"/>
</mask>
<path fill-rule="evenodd" clip-rule="evenodd" d="M36.1332 37.3802C36.3817 36.6903 37.1376 36.2477 37.7288 36.6816C38.9841 37.603 39.7185 39.1685 39.4847 40.8301L39.1466 43.2324C38.8523 45.3239 37.0291 46.8473 34.9178 46.766C33.348 46.7056 31.9993 45.7741 31.3416 44.4409C31.0666 43.8834 31.448 43.2701 31.9742 42.9391C32.98 42.3062 34.0559 41.1963 34.957 39.7657C35.4596 38.9677 35.8541 38.1553 36.1332 37.3802Z" fill="#E6BB65"/>
<path d="M39.4847 40.8301L37.5348 40.5557L39.4847 40.8301ZM39.1466 43.2324L41.0964 43.5067L39.1466 43.2324ZM34.9178 46.766L34.9935 44.7984H34.9935L34.9178 46.766ZM34.957 39.7657L36.623 40.8151V40.8151L34.957 39.7657ZM31.3416 44.4409L33.1075 43.5698L31.3416 44.4409ZM31.9742 42.9391L33.0227 44.6057L31.9742 42.9391ZM38.8939 35.0943C40.7033 36.4224 41.7744 38.6889 41.4345 41.1045L37.5348 40.5557C37.6626 39.6481 37.2648 38.7836 36.5637 38.269L38.8939 35.0943ZM41.4345 41.1045L41.0964 43.5067L37.1968 42.958L37.5348 40.5557L41.4345 41.1045ZM41.0964 43.5067C40.6612 46.5993 37.9624 48.8537 34.842 48.7336L34.9935 44.7984C36.0959 44.8409 37.0433 44.0484 37.1968 42.958L41.0964 43.5067ZM34.842 48.7336C32.5239 48.6443 30.5411 47.2689 29.5758 45.312L33.1075 43.5698C33.4574 44.2793 34.1721 44.7668 34.9935 44.7984L34.842 48.7336ZM30.9256 41.2725C31.6238 40.8332 32.5055 39.9632 33.2909 38.7163L36.623 40.8151C35.6062 42.4294 34.3363 43.7793 33.0227 44.6057L30.9256 41.2725ZM33.2909 38.7163C33.7216 38.0325 34.0521 37.3477 34.2807 36.713L37.9858 38.0475C37.6561 38.9628 37.1976 39.9029 36.623 40.8151L33.2909 38.7163ZM29.5758 45.312C29.1175 44.383 29.2508 43.4446 29.5819 42.7539C29.8962 42.0983 30.4055 41.5997 30.9256 41.2725L33.0227 44.6057C33.0297 44.6013 33.0391 44.5946 33.0528 44.5799C33.0658 44.5661 33.0987 44.5278 33.133 44.4563C33.1679 44.3835 33.2118 44.2594 33.2181 44.0916C33.2247 43.9149 33.1874 43.7319 33.1075 43.5698L29.5758 45.312ZM36.5637 38.269C36.7185 38.3826 36.9261 38.464 37.1561 38.4767C37.3745 38.4888 37.5485 38.4361 37.6622 38.3809C37.8669 38.2815 37.95 38.1467 37.9858 38.0475L34.2807 36.713C34.5649 35.9238 35.1502 35.2227 35.9428 34.838C36.7933 34.4252 37.925 34.3831 38.8939 35.0943L36.5637 38.269Z" fill="#E6BB65" mask="url(#path-33-inside-1)"/>
<rect x="-0.639268" y="0.777962" width="5.99702" height="1.424" rx="0.712" transform="matrix(-0.995246 0.097397 0.097397 0.995246 36.7081 74.5203)" fill="#09BABA" stroke="#09BABA" stroke-width="1.424"/>
<rect x="-0.861935" y="1.04894" width="29.4155" height="21.4818" rx="2.39396" transform="matrix(-0.995246 0.097397 0.097397 0.995246 39.3641 50.2302)" fill="#CFFFFF" stroke="#A7D5FF" stroke-width="1.92"/>
<rect x="-0.639268" y="0.777962" width="10.1797" height="1.424" rx="0.712" transform="matrix(-0.995246 0.097397 0.097397 0.995246 36.0699 55.3272)" fill="#74E5E5" stroke="#74E5E5" stroke-width="1.424"/>
<rect x="15.4325" y="58.3769" width="7.55262" height="11.3109" rx="0.96" transform="rotate(-5.5893 15.4325 58.3769)" fill="#74E5E5" stroke="#74E5E5" stroke-width="1.92"/>
<rect x="-0.639268" y="0.777962" width="2.70211" height="1.424" rx="0.712" transform="matrix(-0.995246 0.097397 0.097397 0.995246 36.4349 60.5722)" fill="#74E5E5" stroke="#74E5E5" stroke-width="1.424"/>
<rect x="27.0165" y="62.2418" width="5.1298" height="1.424" rx="0.712" transform="rotate(-5.5893 27.0165 62.2418)" fill="#74E5E5" stroke="#74E5E5" stroke-width="1.424"/>
<path d="M22.2137 72.9179C22.0627 71.4298 23.1664 70.1085 24.657 69.9859L38.1961 68.8715C39.6517 68.7517 40.9339 69.8184 41.0942 71.2701C41.8559 78.1662 42.5837 82.4305 43.955 87.125C44.3194 88.3725 43.466 89.6603 42.1708 89.7669L27.8115 90.9487C26.6395 91.0452 25.5313 90.3704 25.1454 89.2596C23.7231 85.1651 23.0232 80.8979 22.2137 72.9179Z" fill="#F8D14A"/>
<path d="M29.3978 87.0104C28.5117 87.6838 29.5033 86.2319 29.2961 87.3026" stroke="#E0B621" stroke-width="1.0889" stroke-linecap="round"/>
<path d="M28.8799 85.5272C28.7579 84.3353 27.6873 83.9573 26.7559 83.5509C25.4791 82.9937 26.7725 80.7487 28.9188 82.0693" stroke="#E0B621" stroke-width="1.0889" stroke-linecap="round"/>
<path d="M25.9309 78.3516C26.1861 77.5167 26.887 76.0443 27.6494 76.8344C28.6024 77.822 30.0228 79.8937 30.3963 79.2314C30.7698 78.5691 30.8068 76.209 31.4047 76.6785C32.0025 77.1479 32.2271 78.2805 33.3291 77.4735C34.4312 76.6665 34.8047 76.0039 35.4026 76.4739C36.0006 76.9439 38.4108 77.6426 38.4293 76.4624" stroke="#E0B621" stroke-width="1.28" stroke-linecap="round"/>
<path d="M31.7671 84.0265C32.0688 83.4281 32.0246 80.8365 32.7514 81.6337C33.6598 82.6301 34.3308 83.7434 34.6746 83.0869C35.0184 82.4305 35.1113 80.7232 35.6795 81.1986C36.2476 81.6739 36.4722 82.8065 37.5 82.0142C38.5277 81.2219 38.8715 80.5652 39.4398 81.0411" stroke="#E0B621" stroke-width="1.28" stroke-linecap="round"/>
<circle r="1.38389" transform="matrix(-1 0 0 1 38.3363 71.7719)" fill="#B14132"/>
<path d="M97.5412 247.039C51.7678 247.039 14.6611 243.314 14.6611 238.719C14.6611 234.124 51.7678 230.399 97.5412 230.399C143.315 230.399 180.421 234.124 180.421 238.719C180.421 243.314 143.315 247.039 97.5412 247.039Z" fill="#007C80"/>
<path d="M182.488 150.347C182.488 150.023 182.225 149.76 181.901 149.76H13.8212C13.4973 149.76 13.2347 150.023 13.2347 150.347C13.2347 155.53 17.4363 159.731 22.6193 159.731H173.103C178.286 159.731 182.488 155.53 182.488 150.347Z" fill="#05BBBB"/>
<path d="M93.7251 150.053C93.7251 149.891 93.5938 149.76 93.4318 149.76H26.2379C26.0759 149.76 25.9446 149.891 25.9446 150.053C25.9446 152.645 28.0454 154.746 30.6369 154.746H89.0328C91.6243 154.746 93.7251 152.645 93.7251 150.053Z" fill="#0CC5C5"/>
<path d="M161.54 235.309L141.706 159.733H130.263L156.2 235.309H161.54Z" fill="#0C8989"/>
<path d="M35.7124 235.309L55.5468 159.733H66.9897L41.0524 235.309H35.7124Z" fill="#0C8989"/>
<path d="M52.5391 134.035H40.4362L41.6465 149.769H51.3288L52.5391 134.035Z" fill="#09BABA"/>
<path d="M40.9038 140.085H52.0757L51.6362 145.799H41.3433L40.9038 140.085Z" fill="#0FC7C7"/>
<path d="M53.581 134.694L53.3554 135.596C53.2292 136.101 52.7757 136.455 52.2554 136.455H40.7129C40.1925 136.455 39.739 136.101 39.6128 135.596L39.3872 134.694C39.3035 134.359 39.5568 134.034 39.902 134.034C40.1951 134.034 40.4327 133.797 40.4327 133.504V133.429C40.4327 133.095 40.7036 132.824 41.0378 132.824H51.9304C52.2646 132.824 52.5356 133.095 52.5356 133.429V133.504C52.5356 133.797 52.7731 134.034 53.0662 134.034C53.4114 134.034 53.6647 134.359 53.581 134.694Z" fill="#0D8989"/>
<path d="M50.8834 97.1282L54.0052 95.5967C54.3496 95.4278 54.7561 95.6579 54.7886 96.0401L54.9918 98.4318C55.0067 98.6067 54.9365 98.778 54.8033 98.8921L53.2584 100.215C53.0257 100.415 52.6746 100.383 52.4811 100.146L50.7009 97.9623C50.4792 97.6903 50.5684 97.2828 50.8834 97.1282Z" stroke="#0C8989" stroke-width="2.72621" stroke-linecap="round"/>
<path d="M19.6104 149.79C19.6104 147.707 21.299 146.019 23.382 146.019H39.2228C41.3058 146.019 42.9944 147.707 42.9944 149.79H19.6104Z" fill="#0C8989"/>
<path d="M23.8604 146C23.8604 143.238 26.0989 141 28.8604 141H32.4854C34.3493 141 35.8604 142.511 35.8604 144.375V146H23.8604Z" fill="#0C8989"/>
<path d="M29.1388 146.773L35.8448 111.787C37.4759 103.277 45.1739 97.3035 53.822 97.8363V97.8363" stroke="#0C8989" stroke-width="3"/>
<path d="M54.7646 99.1785L57.3313 102.327" stroke="#0C8989" stroke-width="1.63573" stroke-linecap="round"/>
<path fill-rule="evenodd" clip-rule="evenodd" d="M55.648 100.578C53.8664 101.705 53.3354 104.063 54.4619 105.844L55.0678 106.802C53.1681 112.099 54.3207 119.737 55.3183 121.314C56.6542 123.427 62.447 122.162 68.2569 118.488C74.0668 114.814 77.6937 110.123 76.3578 108.011C75.3047 106.345 68.2248 101.628 62.4284 101.506L62.1127 101.007C60.9861 99.2249 58.6286 98.6938 56.847 99.8204L55.648 100.578Z" fill="#0C8989"/>
<ellipse cx="65.4343" cy="114.026" rx="10.1834" ry="3.77162" transform="rotate(-32.3057 65.4343 114.026)" fill="#0DCDCD"/>
<path fill-rule="evenodd" clip-rule="evenodd" d="M64.7438 114.63C66.9304 113.946 68.148 111.618 67.4633 109.432C67.3989 109.226 67.32 109.029 67.228 108.841C66.0057 109.348 64.7098 110.019 63.414 110.838C62.2249 111.59 61.1485 112.396 60.2204 113.209C61.2516 114.543 63.0405 115.164 64.7438 114.63Z" fill="#05DEDE"/>
<path d="M88.3136 236.859H35.2385C33.3918 236.859 31.8948 235.362 31.8948 233.515V208.233H91.6574V233.515C91.6574 235.362 90.1603 236.859 88.3136 236.859Z" fill="#05BBBB"/>
<path d="M62.8696 231.448H44.3727C43.8189 231.448 43.3706 230.998 43.3727 230.444L43.4241 216.927C43.4262 216.376 43.8733 215.931 44.4241 215.931H62.8182C63.369 215.931 63.8161 216.376 63.8182 216.927L63.8696 230.444C63.8717 230.998 63.4234 231.448 62.8696 231.448Z" fill="#0DCDCD"/>
<path d="M81.7521 217.986H77.1906C75.1522 217.986 73.27 216.894 72.2581 215.124C71.7768 214.282 72.3846 213.235 73.3542 213.235H85.5885C86.5581 213.235 87.1659 214.282 86.6845 215.124C85.6727 216.894 83.7905 217.986 81.7521 217.986Z" fill="#13AAAA"/>
<path d="M34.0015 204L89.5159 204C91.3626 204 92.8596 205.497 92.8596 207.344L92.8596 209.247C92.8596 209.862 92.3606 210.361 91.745 210.361L31.7723 210.361C31.1567 210.361 30.6577 209.862 30.6577 209.247L30.6577 207.344C30.6577 205.497 32.1548 204 34.0015 204Z" fill="#0BC7C7"/>
<path d="M104.58 146.711L109.239 148.531H77.1663C78.7106 147.204 80.6794 146.474 82.7156 146.474H103.321C103.752 146.474 104.179 146.555 104.58 146.711Z" fill="#05BBBB"/>
<path d="M91.7621 147.009C95.1632 143.736 98.3236 142.178 104.412 140.839C104.825 140.748 104.762 140.086 104.34 140.086H86.8511C86.2513 140.086 85.6506 140.156 85.0692 140.303C78.2742 142.023 75.7208 143.749 71.8982 147.009H91.7621Z" fill="#44DADA"/>
<path d="M115.755 148.086L116.895 148.531H89.6094C91.1537 147.204 93.1226 146.474 95.1588 146.474H107.199C110.127 146.474 113.029 147.021 115.755 148.086Z" fill="#52E9E9"/>
<path d="M70.3345 146.711L65.676 148.531H92.9614C91.4171 147.204 89.4482 146.474 87.412 146.474H71.5935C71.1627 146.474 70.7357 146.555 70.3345 146.711Z" fill="#52E9E9"/>
<path fill-rule="evenodd" clip-rule="evenodd" d="M81.9397 148.331H68.066C69.1367 147.411 70.4114 146.778 71.7712 146.476H61.1709C59.1346 146.476 57.1658 147.206 55.6215 148.533H81.9495C81.9495 148.465 81.9461 148.398 81.9397 148.331Z" fill="#44DADA"/>
<path d="M93.9221 149.55C93.9221 148.307 92.9145 147.3 91.6715 147.3H91.3859C90.1429 147.3 89.1352 148.307 89.1352 149.55V149.76H93.9221V149.55Z" fill="#0C8989"/>
<rect width="25.8493" height="1.43447" rx="0.717237" transform="matrix(-1 0 0 1 118.813 148.329)" fill="#16D1D1"/>
<rect width="26.8067" height="1.43447" rx="0.717237" transform="matrix(-1 0 0 1 90.0901 148.329)" fill="#16D1D1"/>
<rect width="16.2755" height="1.43431" rx="0.717157" transform="matrix(-1 0 0 1 69.9846 148.329)" fill="#1BBABA"/>
<path d="M93.7424 149.388V149.388C93.7424 148.457 92.9882 147.703 92.0579 147.703H91.0029C90.0726 147.703 89.3184 148.457 89.3184 149.388V149.388" stroke="#16D1D1" stroke-width="1.38403"/>
<path d="M103.801 90.7203L146.314 93.1097C146.89 93.1444 147.43 93.4057 147.815 93.8367C148.199 94.2676 148.398 94.8333 148.368 95.4102L148.309 96.4604C148.274 97.037 148.013 97.5766 147.583 97.9614C147.152 98.3463 146.587 98.5451 146.01 98.5145L103.498 96.1251C102.921 96.0909 102.381 95.83 101.997 95.3993C101.612 94.9686 101.413 94.4032 101.444 93.8264L101.503 92.7762C101.537 92.1994 101.798 91.6597 102.228 91.2745C102.659 90.8894 103.224 90.6902 103.801 90.7203Z" fill="#F6B11B"/>
<path d="M139.262 82.8816C142.448 84.3453 145.693 84.6274 149.358 84.6869C152.837 84.7435 155.044 80.7365 153.146 77.8201L147.499 69.1467C147.115 68.5569 146.506 68.1506 145.814 68.0229L113.138 61.9934C117.975 64.443 134.359 80.6288 139.262 82.8816Z" fill="#73573E"/>
<path d="M103.533 76.5702L103.383 76.5617C103.004 76.542 102.632 76.4476 102.289 76.2841C101.946 76.1205 101.638 75.891 101.384 75.6086C101.129 75.3261 100.933 74.9963 100.806 74.638C100.679 74.2797 100.624 73.9 100.644 73.5204L100.658 73.2807C100.678 72.901 100.772 72.529 100.936 72.1859C101.1 71.8428 101.33 71.5353 101.612 71.281C101.895 71.0267 102.225 70.8305 102.583 70.7037C102.941 70.5769 103.321 70.5219 103.701 70.5418L103.851 70.5503C104.048 70.5613 104.233 70.6495 104.366 70.7959C104.499 70.9422 104.569 71.1349 104.561 71.3324L104.324 75.8534C104.32 75.9526 104.296 76.0499 104.254 76.1397C104.211 76.2295 104.152 76.3101 104.078 76.3767C104.005 76.4433 103.919 76.4948 103.825 76.528C103.732 76.5612 103.632 76.5755 103.533 76.5702Z" fill="#F65539"/>
<path d="M134.43 94.412L145.106 94.9705C146.384 95.061 147.576 95.6495 148.424 96.6095C149.273 97.5694 149.711 98.8241 149.644 100.104C149.577 101.383 149.011 102.585 148.067 103.452C147.122 104.318 145.876 104.779 144.595 104.735L133.92 104.175L134.43 94.412Z" fill="#BEDCE4"/>
<path d="M146.539 102.193C159.816 131.32 134.853 135.53 128.619 97.4596" stroke="#8CC2CF" stroke-width="5.67759" stroke-miterlimit="10" stroke-linecap="round"/>
<ellipse rx="3.60941" ry="6.11823" transform="matrix(-0.997415 -0.0718567 -0.0842719 0.996443 105.357 74.1668)" fill="#FFB762"/>
<path d="M140.559 145.582C140.053 145.565 139.574 145.348 139.227 144.978C138.881 144.608 138.695 144.116 138.712 143.61L138.862 140.741C138.921 139.706 139.881 138.871 140.954 138.928L141.467 136.535L101.535 134.441L101.946 136.886C102.451 136.917 102.922 137.147 103.258 137.525C103.593 137.903 103.765 138.399 103.736 138.903L103.587 141.772C103.547 142.274 103.31 142.74 102.929 143.069C102.548 143.398 102.053 143.563 101.55 143.529L101.442 145.297L140.426 147.339L140.559 145.582Z" fill="#164664"/>
<path d="M140.75 145.582L101.249 143.511C100.892 143.5 100.545 143.632 100.284 143.877C100.023 144.121 99.87 144.459 99.8574 144.816C99.6541 148.71 102.501 152.022 106.216 152.217L134.893 153.726C138.608 153.921 141.787 150.924 141.99 147.032C142.017 146.676 141.901 146.323 141.669 146.052C141.436 145.78 141.106 145.611 140.75 145.582Z" fill="#BEDCE4"/>
<path d="M126.205 45.2367C114.566 44.6274 104.625 53.672 104.016 65.4416L100.363 135.111C100.349 135.339 100.38 135.567 100.454 135.782C100.528 135.997 100.644 136.196 100.795 136.366C100.946 136.536 101.13 136.675 101.335 136.774C101.54 136.873 101.762 136.931 101.99 136.943L140.692 138.972C140.92 138.983 141.147 138.949 141.362 138.872C141.576 138.795 141.773 138.677 141.942 138.523C142.11 138.37 142.247 138.185 142.343 137.978C142.44 137.772 142.495 137.549 142.504 137.321L146.157 67.651C146.777 55.882 137.845 45.8476 126.205 45.2367Z" fill="#B0DEE7"/>
<ellipse rx="3.60941" ry="6.11823" transform="matrix(-0.997415 -0.0718567 -0.0842719 0.996443 145.164 76.1057)" fill="#FFB762"/>
<path fill-rule="evenodd" clip-rule="evenodd" d="M145.77 79.6715C145.441 79.6193 145.177 79.3799 145.064 79.0664C144.751 78.199 144.612 77.1375 144.708 76.0046C144.787 75.0771 145.012 74.2194 145.341 73.4932C145.483 73.1799 145.774 72.954 146.118 72.9338C146.254 72.9258 146.392 72.9267 146.531 72.9369C148.249 73.0629 149.536 74.5613 149.402 76.278L149.358 76.8442C149.225 78.5497 147.739 79.827 146.033 79.7019C145.944 79.6954 145.856 79.6852 145.77 79.6715Z" fill="#F65539"/>
<path d="M104.861 95.1489L120.67 104.638L140.076 99.2871L141.797 133.727L105.968 131.713L104.861 95.1489Z" fill="#E9E9E9"/>
<circle cx="120.37" cy="108.865" r="1.17807" transform="rotate(-2.86063 120.37 108.865)" fill="#D5D5D5"/>
<path d="M140.053 106.139L136.615 105.958C136.529 105.957 136.443 105.939 136.364 105.905C136.285 105.87 136.213 105.82 136.154 105.757C136.095 105.694 136.049 105.62 136.019 105.539C135.99 105.457 135.977 105.371 135.982 105.284C135.986 105.198 136.009 105.114 136.047 105.036C136.086 104.959 136.14 104.89 136.206 104.834C136.272 104.778 136.348 104.736 136.431 104.711C136.514 104.686 136.601 104.677 136.687 104.687L140.119 104.871C140.282 104.889 140.431 104.968 140.536 105.092C140.642 105.217 140.696 105.377 140.687 105.54C140.678 105.703 140.606 105.857 140.487 105.969C140.368 106.081 140.211 106.143 140.048 106.142L140.053 106.139Z" fill="#A2CED8"/>
<path d="M120.838 104.63L116.966 109.861C116.348 110.696 115.129 110.777 114.406 110.032L109.391 104.865L103.592 93.3597L120.821 104.294L140.269 98.9413L138.302 106.791L125.451 111.647C124.596 111.97 123.639 111.551 123.296 110.704L120.838 104.63Z" fill="white"/>
<path d="M139.771 111.456L136.335 111.274C136.173 111.257 136.023 111.178 135.918 111.053C135.812 110.928 135.758 110.768 135.768 110.605C135.777 110.442 135.848 110.289 135.967 110.177C136.086 110.065 136.243 110.003 136.407 110.003L139.844 110.185C140.007 110.202 140.156 110.282 140.262 110.406C140.367 110.531 140.421 110.691 140.412 110.854C140.403 111.017 140.331 111.17 140.212 111.282C140.093 111.394 139.936 111.456 139.773 111.456L139.771 111.456Z" fill="#A2CED8"/>
<path d="M139.914 108.796L136.476 108.616C136.314 108.599 136.165 108.52 136.059 108.395C135.953 108.27 135.9 108.11 135.909 107.947C135.918 107.784 135.989 107.631 136.108 107.519C136.227 107.407 136.384 107.345 136.548 107.345L139.985 107.527C140.154 107.536 140.311 107.612 140.424 107.738C140.536 107.863 140.594 108.029 140.584 108.197C140.575 108.365 140.499 108.523 140.373 108.635C140.248 108.748 140.082 108.805 139.914 108.796Z" fill="#A2CED8"/>
<path d="M140.193 103.477L136.757 103.296C136.595 103.278 136.445 103.199 136.34 103.074C136.234 102.95 136.18 102.789 136.189 102.626C136.199 102.463 136.27 102.31 136.389 102.198C136.508 102.086 136.665 102.024 136.828 102.025L140.264 102.206C140.427 102.223 140.576 102.303 140.682 102.427C140.787 102.552 140.841 102.712 140.832 102.875C140.823 103.038 140.751 103.192 140.633 103.304C140.514 103.415 140.356 103.478 140.193 103.477Z" fill="#A2CED8"/>
<path d="M111.331 48.3846L115.229 52.5083" stroke="#B8DEE5" stroke-width="2.83966" stroke-miterlimit="10"/>
<path d="M127.148 82.827L113.28 82.1011C112.293 82.0495 111.326 81.8039 110.433 81.3785C109.541 80.953 108.742 80.3559 108.08 79.6213C107.419 78.8868 106.909 78.0291 106.579 77.0973C106.249 76.1656 106.106 75.1779 106.157 74.1908L106.192 73.5683C106.244 72.5813 106.49 71.6142 106.916 70.7222C107.341 69.8303 107.938 69.0308 108.673 68.3696C109.407 67.7084 110.265 67.1983 111.197 66.8685C112.128 66.5387 113.116 66.3957 114.103 66.4475L127.969 67.1733C129.963 67.2779 131.833 68.1701 133.169 69.6535C134.504 71.1369 135.196 73.0901 135.092 75.0835L135.057 75.7061C134.952 77.699 134.06 79.5688 132.577 80.9042C131.094 82.2396 129.141 82.9312 127.148 82.827Z" fill="#36488B"/>
<path d="M119.451 76.2207C118.706 76.1911 118.138 75.5799 118.165 74.8355L118.175 74.5398C118.204 73.751 118.885 73.12 119.675 73.1514L122.32 73.2566C123.065 73.2863 123.633 73.8974 123.606 74.6419L123.595 74.9376C123.567 75.7264 122.886 76.3574 122.096 76.326L119.451 76.2207Z" fill="#6EDCFF"/>
<path d="M113.053 76.0012C113.842 76.0326 114.523 75.4031 114.552 74.6152L114.565 74.2851C114.593 73.5398 114.025 72.9272 113.279 72.8975L110.837 72.8003C110.048 72.7689 109.367 73.3984 109.338 74.1863L109.325 74.5164C109.297 75.2618 109.865 75.8744 110.612 75.9041L113.053 76.0012Z" fill="#6EDCFF"/>
<path d="M111.681 55.4286C113.527 53.3229 115.832 51.669 118.418 50.5939C121.004 49.5189 123.803 49.0514 126.598 49.2275" stroke="#ECFBFF" stroke-width="2.12974" stroke-miterlimit="10" stroke-linecap="round"/>
<path d="M108.553 60.6487C108.912 59.7979 109.332 58.9745 109.811 58.1849" stroke="#ECFBFF" stroke-width="2.12974" stroke-miterlimit="10" stroke-linecap="round"/>
<path d="M123.545 86.401C120.985 86.401 118.425 86.4012 118.425 86.4012" stroke="#8CC2CF" stroke-width="1.88974" stroke-linecap="round"/>
<path d="M108.692 49.8116C107.859 49.7648 107.06 49.4723 106.394 48.9711C105.728 48.4699 105.225 47.7825 104.95 46.9958C104.675 46.2091 104.639 45.3585 104.847 44.5514C105.055 43.7443 105.498 43.017 106.119 42.4615C106.741 41.906 107.513 41.5473 108.338 41.4306C109.163 41.3139 110.005 41.4445 110.756 41.806C111.507 42.1674 112.134 42.7434 112.558 43.4612C112.981 44.1789 113.183 45.0062 113.136 45.8384C113.073 46.9546 112.57 48.0002 111.737 48.7452C110.903 49.4903 109.808 49.8738 108.692 49.8116Z" fill="#B0DEE7"/>
<path d="M108.829 48.0304C108.352 48.0035 107.893 47.8357 107.511 47.5481C107.129 47.2605 106.84 46.866 106.683 46.4145C106.525 45.9631 106.504 45.475 106.624 45.0119C106.743 44.5487 106.997 44.1315 107.354 43.8128C107.71 43.4941 108.154 43.2883 108.627 43.2215C109.101 43.1547 109.583 43.2298 110.014 43.4373C110.445 43.6448 110.805 43.9755 111.048 44.3874C111.291 44.7994 111.406 45.2741 111.379 45.7517C111.343 46.392 111.055 46.9918 110.576 47.4192C110.098 47.8465 109.47 48.0663 108.829 48.0304Z" fill="#F65539"/>
<path d="M111.673 161.102C108.124 190.08 108.599 202.065 109.327 229.083" stroke="#A2CED8" stroke-width="8.97513" stroke-miterlimit="10"/>
<path d="M131.375 161.083C129.068 190.187 130.055 202.14 131.936 229.102" stroke="#A2CED8" stroke-width="8.97513" stroke-miterlimit="10"/>
<path fill-rule="evenodd" clip-rule="evenodd" d="M118.675 154.544L104.594 152.3C100.981 181.813 103.055 198.462 103.785 225.568L114.486 225.523C113.761 198.595 115.192 182.988 118.675 154.544Z" fill="#3A342E"/>
<path fill-rule="evenodd" clip-rule="evenodd" d="M138.091 154.233L123.927 152.592C121.578 182.232 124.362 198.777 126.249 225.828L136.938 225.326C135.063 198.453 135.827 182.799 138.091 154.233Z" fill="#3A342E"/>
<path d="M144.655 100.7C146.507 102.609 149.15 111.327 149.034 117.823C148.913 124.559 145.826 128.907 135.813 120.798" stroke="#8C6A4A" stroke-width="9.93707" stroke-miterlimit="10"/>
<path d="M116.528 228.385C116.244 227.732 115.486 227.519 114.824 227.782C111.134 229.246 107.643 229.011 103.973 227.619C103.277 227.355 102.486 227.561 102.004 228.129C99.8482 230.667 97.4999 232.136 93.7804 232.153C90.9895 232.165 88.7373 234.438 88.7499 237.229L88.7532 237.898C88.7532 237.898 113.859 237.784 117.956 237.765C118.203 233.084 117.2 229.931 116.528 228.385Z" fill="#705238"/>
<path d="M138.93 228.385C138.646 227.732 137.888 227.519 137.226 227.782C133.536 229.246 130.046 229.011 126.375 227.619C125.679 227.355 124.888 227.561 124.406 228.129C122.251 230.667 119.902 232.136 116.183 232.153C113.392 232.165 111.14 234.438 111.152 237.229L111.156 237.898C111.156 237.898 136.261 237.784 140.359 237.765C140.605 233.084 139.602 229.931 138.93 228.385Z" fill="#73573E"/>
<rect width="30.7818" height="3.70828" rx="1.2082" transform="matrix(-0.99999 0.00453154 0.00453154 0.99999 118.732 235.791)" fill="#594029"/>
<rect width="30.7818" height="3.70828" rx="1.2082" transform="matrix(-0.99999 0.00453154 0.00453154 0.99999 141.135 235.791)" fill="#60462F"/>
<path d="M104.631 100.722L118.946 111.287C119.616 111.782 120.497 111.886 121.264 111.561L140.324 103.488L140.094 139.854L104.265 137.84L104.631 100.722Z" fill="#A34A3B"/>
<path d="M145.952 145.923L97.9501 147.203L101.276 93.3409L119.251 122.404L145.433 97.1826L145.952 145.923Z" fill="#73573E"/>
<path d="M125.152 145.922L120.032 121.603L110.752 145.601L125.152 145.922Z" fill="#A34A3B"/>
<path d="M143.282 144.567L98.6273 144.273L98.6223 145.047C98.611 146.716 98.8986 148.371 99.4684 149.917C100.038 151.463 100.879 152.87 101.944 154.058C103.008 155.245 104.274 156.19 105.671 156.838C107.067 157.486 108.566 157.825 110.082 157.835L131.648 157.977C134.71 157.997 137.656 156.677 139.837 154.307C142.017 151.938 143.255 148.712 143.277 145.341L143.282 144.567Z" fill="#3A342E"/>
<path d="M97.7113 150.65L99.2326 124.485L118.433 121.605L114.875 149.766C114.714 151.045 113.625 152.005 112.336 152.005L98.9891 152.005C98.253 152.005 97.6686 151.385 97.7113 150.65Z" fill="#73573E"/>
<path d="M145.953 150.723L145.953 126.403L118.113 121.603L122.121 150.897C122.208 151.531 122.75 152.003 123.389 152.003L144.673 152.003C145.38 152.003 145.953 151.43 145.953 150.723Z" fill="#73573E"/>
<rect x="117.95" y="121.962" width="2.39103" height="30.5037" rx="1.19551" transform="rotate(-8.01644 117.95 121.962)" fill="#A07650"/>
<path d="M102.117 98.5974C94.5588 128.911 115.363 128.405 138.032 129.587" stroke="#8CC2CF" stroke-width="5.67759" stroke-miterlimit="10"/>
<path d="M148.613 129.08C138.862 123.642 134.342 132.311 142.224 137.446" stroke="#8CC2CF" stroke-width="3.64075" stroke-linecap="round"/>
<path d="M103.625 97.3998C94.8344 113.861 95.8844 130.447 134.527 130.652" stroke="#8C6A4A" stroke-width="9.93707" stroke-miterlimit="10"/>
<path d="M101.341 88.8343L96.6076 92.7064C96.2947 92.9608 96.0514 93.2905 95.9006 93.6645C95.7498 94.0385 95.6963 94.4446 95.7452 94.8449C95.7941 95.2452 95.9438 95.6265 96.1801 95.9533C96.4165 96.28 96.732 96.5414 97.0969 96.713L105.857 100.904C106.026 100.984 106.172 101.107 106.279 101.26C106.387 101.413 106.454 101.591 106.473 101.777C106.492 101.963 106.462 102.151 106.387 102.322C106.313 102.494 106.195 102.643 106.046 102.755L104.88 103.64C104.729 103.754 104.611 103.906 104.537 104.08C104.462 104.254 104.434 104.444 104.456 104.632C104.477 104.82 104.547 105 104.658 105.153C104.77 105.305 104.919 105.427 105.092 105.504L117.924 122.48C118.936 122.938 119.849 121.714 119.12 120.892L102.875 88.9569C102.685 88.7417 102.419 88.6088 102.133 88.5859C101.846 88.563 101.562 88.6521 101.341 88.8343Z" fill="#A07650"/>
<path d="M146.448 91.4762L150.718 95.8544C151 96.1424 151.205 96.4973 151.313 96.8859C151.42 97.2745 151.428 97.6842 151.334 98.0765C151.241 98.4688 151.049 98.8309 150.777 99.129C150.506 99.427 150.163 99.6513 149.781 99.7807L140.606 102.964C140.428 103.024 140.27 103.13 140.145 103.27C140.02 103.41 139.933 103.579 139.893 103.763C139.853 103.946 139.861 104.136 139.916 104.315C139.971 104.495 140.072 104.657 140.208 104.786L141.265 105.795C141.402 105.925 141.504 106.089 141.559 106.27C141.613 106.452 141.62 106.644 141.578 106.829C141.536 107.013 141.446 107.184 141.318 107.323C141.19 107.463 141.028 107.567 140.847 107.624L120.635 122.58C119.578 122.922 118.808 121.603 119.624 120.867L144.908 91.4243C145.122 91.2328 145.402 91.1313 145.689 91.141C145.976 91.1507 146.248 91.2708 146.448 91.4762Z" fill="#A07650"/>
<path d="M129.113 99.8495C133.12 117.358 135.302 124.74 144.226 125.184" stroke="#81BCCA" stroke-width="5.67759" stroke-miterlimit="10" stroke-linecap="round"/>
<path d="M149.029 117.825C149.463 126.527 139.146 134.164 130.054 101.861L129.731 100.649" stroke="#8C6A4A" stroke-width="9.93707" stroke-miterlimit="10"/>
<path d="M127.602 43.1466C119.72 46.5293 115.561 54.7704 114.326 62.928C114.297 63.1226 114.112 63.2597 113.916 63.2313L102.627 61.5918C102.442 61.565 102.315 61.3956 102.339 61.2118C104.271 46.5807 120.114 40.8746 127.586 42.523C127.907 42.5937 127.908 43.0156 127.602 43.1466Z" fill="#73573E"/>
<path d="M128.069 42.9465L132.963 41.704C134.126 41.4087 134.353 39.8548 133.322 39.2398C132.799 38.9274 132.13 39.0053 131.693 39.43L128.069 42.9465Z" stroke="#876649" stroke-width="1.42245"/>
<path d="M128.356 43.0905L123.606 41.7104C122.215 41.3062 122.105 39.3781 123.441 38.8183C124.068 38.5556 124.793 38.7362 125.224 39.2624L128.356 43.0905Z" stroke="#876649" stroke-width="1.42245"/>
<path d="M101.122 63.9525L105.317 62.0384C105.7 61.864 106.119 61.7861 106.538 61.8116L123.438 62.8374L139.308 65.7919C136.278 66.3428 132.04 67.4762 128.945 68.3527C126.258 69.1133 123.471 69.4745 120.682 69.3521L99.5919 68.4269C97.7539 68.3463 97.2336 65.8691 98.8838 65.0557L101.122 63.9525Z" fill="#73573E" stroke="#73573E" stroke-width="2.48929" stroke-linejoin="round"/>
<path d="M127.456 43.0388C138.318 44.0706 146.109 54.4442 144.858 66.2089L125.016 63.4786L105.523 62.4723C106.774 50.7076 116.594 42.007 127.456 43.0388Z" fill="#A07650"/>
<path d="M129.239 43.2106C135.516 43.8069 140.956 54.6765 139.794 65.6001L130.23 63.0448L117.534 61.8718C118.696 50.9483 122.962 42.6143 129.239 43.2106Z" fill="#B2845B"/>
<path d="M129.495 43.3803C135.804 48.6246 137.829 56.6376 136.45 65.1111C136.421 65.289 136.53 65.4615 136.704 65.5092L147.06 68.3464C147.26 68.4012 147.465 68.2666 147.496 68.0616C149.901 52.3917 137.898 42.412 129.674 42.7811C129.363 42.795 129.255 43.1814 129.495 43.3803Z" fill="#876649"/>
<path d="M141.39 53.9586C140.592 54.5049 138.967 54.1241 138.182 52.9792C137.398 51.8343 137.752 50.3589 138.55 49.8126C139.347 49.2663 140.629 49.7516 141.414 50.8965C142.198 52.0414 142.187 53.4124 141.39 53.9586Z" fill="#A07650"/>
<path d="M147.03 68.2322C132.74 62.7569 112.953 61.5829 101.736 62.1443" stroke="#876649" stroke-width="2.33361" stroke-linecap="round"/>
<path d="M121.774 91.567C125.181 102.199 134.403 98.9558 132.155 89.8208" stroke="#81BCCA" stroke-width="3.64075" stroke-linecap="round"/>
<path d="M143.636 49.1963L140.538 51.4311" stroke="#B0DEE7" stroke-width="2.83966" stroke-miterlimit="10" stroke-linecap="round"/>
<path d="M145.747 51.1638C144.914 51.1174 144.114 50.8252 143.448 50.3242C142.782 49.8232 142.279 49.1359 142.004 48.3492C141.728 47.5626 141.692 46.7118 141.9 45.9046C142.108 45.0974 142.55 44.3699 143.172 43.8143C143.793 43.2586 144.565 42.8997 145.391 42.7828C146.216 42.666 147.057 42.7965 147.809 43.1579C148.56 43.5193 149.187 44.0954 149.611 44.8132C150.034 45.531 150.236 46.3583 150.189 47.1906C150.127 48.3065 149.623 49.3518 148.79 50.0968C147.957 50.8419 146.862 51.2256 145.747 51.1638Z" fill="#B0DEE7"/>
<path d="M145.885 49.3844C145.408 49.3575 144.949 49.1897 144.567 48.9021C144.185 48.6145 143.896 48.22 143.738 47.7686C143.58 47.3171 143.56 46.829 143.679 46.3659C143.799 45.9027 144.053 45.4855 144.41 45.1668C144.766 44.8481 145.209 44.6423 145.683 44.5755C146.157 44.5087 146.639 44.5838 147.07 44.7913C147.501 44.9988 147.861 45.3295 148.104 45.7414C148.347 46.1534 148.462 46.6282 148.435 47.1057C148.399 47.746 148.11 48.3458 147.632 48.7732C147.154 49.2005 146.526 49.4204 145.885 49.3844Z" fill="#F65539"/>
<circle r="1.6" transform="matrix(-1 0 0 1 45.6959 35.5224)" fill="white"/>
<ellipse rx="1.09521" ry="1.09521" transform="matrix(-1 0 0 1 57.4058 59.4126)" fill="#E95945"/>
<path d="M93.4774 71.0371C97.6933 75.9045 93.4062 79.4744 90.8973 77.5546C88.4815 75.7061 91.8599 72.3586 92.5232 74.0168" stroke="#FF6D59" stroke-width="1.28" stroke-linecap="round"/>
<circle r="1.13504" transform="matrix(-1 0 0 1 92.5576 75.6127)" fill="#E95945"/>
</svg>

