<svg width="192" height="256" viewBox="0 0 192 256" fill="none" xmlns="http://www.w3.org/2000/svg">
<path d="M175 133.04C175.012 132.707 174.018 132.42 173.7 132.358L173.7 132.355C173.212 132.295 172.82 131.903 172.705 131.384C172.675 131.04 172.397 130.011 172.043 130C171.683 129.987 171.377 131.021 171.349 131.376C171.215 131.837 170.857 132.18 170.433 132.262C170.069 132.255 169.013 132.552 169 132.916C168.988 133.238 169.966 133.518 170.27 133.592L170.27 133.599C170.773 133.661 171.175 134.077 171.274 134.621L171.276 134.621C171.298 134.96 171.583 135.987 171.93 136C172.279 136.013 172.579 134.995 172.621 134.653L172.622 134.653C172.74 134.152 173.118 133.775 173.569 133.694C173.931 133.698 174.987 133.403 175 133.04Z" fill="#D14E66"/>
<circle opacity="0.5" cx="148.5" cy="84.5" r="1.5" fill="#D14E66"/>
<path fill-rule="evenodd" clip-rule="evenodd" d="M23.5489 65.5522C25.2587 63.3247 26.5114 60.6401 27.209 57.8581L27.1372 56.9549C27.0198 55.4796 28.4634 54.1577 29.96 54.0387C31.4566 53.9196 33.091 54.9965 33.2084 56.4719L33.2559 57.0688C34.477 59.8406 36.2453 62.5046 38.4086 64.5089C40.0008 65.995 41.8194 67.2389 43.8079 68.2022C45.1963 68.8714 45.7665 70.535 45.085 71.903C44.6518 72.7724 43.8131 73.316 42.9029 73.4249C44.799 74.9142 46.918 76.1125 49.2337 76.9974C51.2822 77.7744 52.2966 80.0542 51.4959 82.0725C51.2214 82.7688 50.77 83.3445 50.2126 83.7687C50.7937 84.1265 51.3888 84.4646 51.9975 84.7827C53.7483 83.8542 55.3365 82.6996 56.7388 81.3562C55.975 81.3077 55.2439 80.8659 54.8225 80.1518C54.1787 79.0332 54.5722 77.5717 55.6988 76.9312C57.362 75.984 58.8463 74.7391 60.1071 73.3318C61.6882 71.5638 62.9165 69.3783 63.6857 67.0734V66.3139C63.6857 65.0599 64.9823 64.0405 66.2431 64.0405C67.5039 64.0405 68.8005 65.0599 68.8005 66.3139V66.8245C69.6383 69.2457 70.9404 71.6123 72.6167 73.449C73.8506 74.8112 75.2903 75.984 76.8908 76.9312C78.0086 77.5898 78.3752 79.0332 77.7135 80.1428C77.2931 80.8476 76.5553 81.2504 75.7864 81.2816C77.2754 82.6684 78.9708 83.824 80.8521 84.7278C82.1347 85.34 82.843 86.6657 82.7309 87.9975C83.6225 87.3458 84.4387 86.5953 85.1678 85.7815C86.5237 84.2653 87.5771 82.3912 88.2371 80.4147V79.7614C88.2371 78.6856 89.3494 77.811 90.4311 77.811C91.5128 77.811 92.6251 78.6856 92.6251 79.7614V80.1966C93.3438 82.2746 94.4612 84.3058 95.8998 85.8821C96.9584 87.0508 98.1935 88.0569 99.5667 88.8695C100.526 89.4345 100.84 90.6728 100.272 91.6247C99.9115 92.23 99.2776 92.5756 98.6173 92.6018C99.8951 93.792 101.35 94.7837 102.964 95.5593C104.391 96.2404 104.99 97.9508 104.299 99.3671C104.062 99.8558 103.705 100.247 103.281 100.522C104.342 101.305 105.484 101.991 106.7 102.577C109.025 103.699 109.999 106.477 108.879 108.792C108.293 110.002 107.248 110.844 106.051 111.212C107.183 112.001 108.386 112.702 109.653 113.312C112.238 114.558 113.32 117.646 112.069 120.215C111.405 121.589 110.207 122.536 108.842 122.931C109.333 123.206 109.835 123.467 110.348 123.713C113.025 124.998 114.153 128.202 112.856 130.864C111.675 133.29 108.902 134.431 106.393 133.643C106.516 134.2 106.518 134.786 106.386 135.361C107.445 136.911 107.668 138.965 106.792 140.774C106.109 142.186 104.89 143.167 103.494 143.596C104.813 144.515 106.215 145.333 107.692 146.044C110.706 147.496 111.966 151.096 110.509 154.091C109.734 155.692 108.339 156.796 106.747 157.256C107.319 157.576 107.904 157.881 108.502 158.168C111.622 159.666 112.937 163.4 111.425 166.504C110.048 169.331 106.815 170.661 103.891 169.742C104.104 170.711 104.005 171.755 103.538 172.72C102.429 175.002 99.6664 175.967 97.3684 174.858C96.7717 174.572 96.1873 174.268 95.6156 173.947L94.9655 176.628C94.7062 177.692 93.7584 178.441 92.6585 178.441H77.7884C76.6975 178.441 75.7407 177.692 75.4814 176.628L74.8908 174.192C74.4676 174.438 74.0377 174.675 73.6012 174.903C72.9216 175.255 72.1884 175.426 71.4641 175.426C69.8009 175.426 68.1914 174.524 67.3598 172.954C66.8494 171.983 66.7236 170.91 66.9281 169.911C66.3164 170.102 65.6876 170.193 65.0624 170.193C63.1847 170.193 61.3625 169.354 60.1479 167.852C58.8732 170.287 55.9128 171.442 53.2651 170.424C51.1893 169.633 49.217 168.667 47.3587 167.535C45.5148 170.666 42.0948 172.916 38.2537 173.222C34.79 173.497 31.4145 172.158 29.0865 169.838C27.8173 170.879 26.4726 171.842 25.0579 172.722C24.2842 173.2 23.4299 173.471 22.5702 173.539C20.596 173.696 18.6011 172.787 17.4671 171.018C16.7703 169.924 16.5205 168.674 16.6698 167.478C15.9608 167.762 15.222 167.929 14.479 167.988C11.7937 168.202 9.08997 166.975 7.54274 164.577C5.35661 161.13 6.41527 156.581 9.90633 154.413C10.6233 153.969 11.3224 153.504 12.0032 153.019C10.1909 152.623 8.53266 151.541 7.45978 149.863C5.33685 146.54 6.36573 142.153 9.7345 140.059C11.4195 139.011 13.004 137.848 14.479 136.576C12.9435 136.179 11.554 135.229 10.6423 133.794C10.47 133.524 10.3208 133.245 10.1943 132.961C8.18944 132.615 6.33596 131.467 5.15558 129.638C2.96945 126.191 4.02811 121.642 7.51918 119.474C8.2361 119.029 8.93521 118.565 9.61599 118.08C7.80365 117.684 6.14536 116.602 5.07246 114.924C2.94953 111.6 3.97841 107.214 7.34718 105.12C9.03221 104.072 10.6167 102.908 12.0916 101.637C10.556 101.24 9.16629 100.29 8.2545 98.8546C6.35049 95.8659 7.27516 91.9151 10.308 90.029C11.9391 89.0144 13.4536 87.8713 14.8417 86.6072C14.3275 86.2992 13.8772 85.8694 13.5384 85.3273C12.3666 83.4873 12.9319 81.0605 14.7948 79.9082C16.8633 78.6275 18.7046 77.0783 20.2925 75.3115C19.3844 75.3233 18.4796 74.873 17.9145 74.0753C17.0456 72.82 17.3758 71.0634 18.6532 70.2034C20.5387 68.9319 22.1841 67.3271 23.5489 65.5522ZM185.608 143.934C184.095 143.144 182.665 142.247 181.324 141.248C182.794 140.856 184.1 139.888 184.865 138.456C186.327 135.717 185.263 132.327 182.487 130.873C180.845 130.015 179.325 129.007 177.935 127.856C178.909 127.442 179.751 126.709 180.285 125.714C180.807 124.734 180.95 123.657 180.763 122.647C183.778 123.708 187.2 122.455 188.741 119.584C190.433 116.434 189.202 112.524 186.003 110.859C185.391 110.539 184.792 110.202 184.207 109.849C185.883 109.434 187.378 108.346 188.245 106.72C189.877 103.68 188.697 99.9119 185.608 98.2973C184.095 97.5066 182.665 96.6097 181.324 95.6107C182.794 95.2192 184.1 94.2508 184.865 92.8187C186.327 90.0799 185.264 86.6898 182.487 85.2358C181.031 84.4754 179.671 83.5966 178.413 82.6048C178.939 82.2919 179.389 81.8371 179.697 81.2601C180.598 79.5841 179.945 77.4972 178.24 76.6141C176.313 75.6094 174.589 74.3517 173.088 72.8629C173.894 72.8625 174.683 72.4738 175.149 71.7583C175.88 70.6363 175.552 69.1307 174.411 68.4079C172.777 67.3687 171.32 66.1023 170.084 64.648C168.406 62.6876 167.137 60.1945 166.353 57.6621L166.372 57.1287C166.419 55.8326 165.105 54.7301 163.79 54.6827C162.476 54.6352 161.086 55.6401 161.039 56.9362L161.011 57.7172C160.123 60.0724 158.76 62.2869 157.044 64.056C155.677 65.4631 154.082 66.694 152.313 67.6105C151.114 68.2301 150.649 69.7258 151.279 70.9063C151.69 71.6568 152.431 72.1399 153.221 72.2221C152.162 73.1573 151.012 73.9934 149.779 74.7175C148.911 73.3974 148.181 71.9649 147.608 70.5079L147.586 69.9441C147.532 68.5593 146.044 67.4898 144.639 67.5445C143.234 67.5993 141.834 68.7813 141.888 70.1661L141.92 71.0069C141.163 73.5852 139.888 76.0515 138.203 78.0723C136.859 79.6811 135.259 81.1203 133.446 82.2385C132.219 82.9947 131.843 84.6257 132.609 85.833C133.107 86.6013 133.938 87.057 134.789 87.0797C133.236 88.6729 131.454 90.0529 129.47 91.173C127.683 92.1804 127.063 94.4296 128.089 96.1955C128.386 96.7153 128.79 97.1344 129.26 97.442C127.913 98.5718 126.453 99.5836 124.889 100.471C121.98 102.121 120.965 105.782 122.634 108.65C123.433 110.028 124.698 110.971 126.12 111.4C124.691 112.534 123.164 113.563 121.547 114.48C118.316 116.312 117.187 120.377 119.047 123.567C119.987 125.176 121.496 126.251 123.175 126.691C122.52 127.118 121.849 127.526 121.163 127.914C117.814 129.81 116.652 134.026 118.566 137.334C119.923 139.636 122.406 140.886 124.927 140.788C125.624 140.76 126.322 140.632 126.996 140.394C126.81 141.507 126.997 142.687 127.607 143.738C128.601 145.435 130.433 146.362 132.286 146.29C133.093 146.258 133.903 146.037 134.645 145.619C135.12 145.35 135.587 145.071 136.046 144.782L136.138 145.105C135.186 146.805 135.052 148.918 135.971 150.807C137.032 152.984 139.188 154.275 141.464 154.357C142.452 154.393 143.458 154.205 144.408 153.754C147.217 152.43 149.856 150.848 152.296 149.022L152.236 150.694C152.061 155.552 156.171 159.641 160.935 159.813C165.7 159.985 170.094 156.203 170.269 151.345L170.374 148.429C173.162 150.98 176.288 153.163 179.712 154.953C182.8 156.558 186.623 155.399 188.245 152.358C189.877 149.317 188.697 145.549 185.608 143.934Z" fill="#44A044"/>
<path fill-rule="evenodd" clip-rule="evenodd" d="M46.6337 101.451L46.6501 101.85C47.3995 103.746 48.5199 105.584 49.9233 106.988C50.9552 108.028 52.1456 108.911 53.4575 109.61C54.3735 110.095 54.7139 111.228 54.2205 112.13C53.907 112.703 53.3295 113.047 52.7151 113.097C53.9515 114.147 55.3452 115.008 56.8794 115.662C58.2363 116.238 58.8595 117.796 58.2692 119.132C58.0672 119.592 57.75 119.967 57.3656 120.237C58.3867 120.921 59.479 121.513 60.6374 122.009C62.8484 122.957 63.8628 125.489 62.9059 127.672C62.4059 128.812 61.464 129.63 60.3632 130.017C61.4481 130.702 62.5957 131.304 63.8001 131.819C66.2591 132.872 67.3854 135.686 66.3166 138.11C65.7485 139.407 64.6664 140.328 63.4063 140.745C63.8755 140.981 64.3543 141.203 64.8422 141.412C67.3885 142.497 68.5622 145.417 67.4539 147.928C66.3456 150.44 63.3894 151.593 60.8431 150.508C58.2273 149.392 55.7969 147.99 53.5748 146.32L53.6833 148.961C53.8473 152.955 50.3665 156.345 46.316 156.511C44.0173 156.606 41.8163 155.65 40.3125 154.076C36.6699 153.776 30.9267 152.95 30.4685 152.379C28.658 152.454 26.8721 151.559 25.8939 149.908C24.5133 147.534 25.3422 144.504 27.7448 143.136C28.2379 142.856 28.7196 142.562 29.1895 142.254C27.9811 141.941 26.894 141.171 26.2159 140.015C24.8745 137.726 25.6793 134.804 27.9977 133.483C29.1575 132.822 30.2526 132.081 31.2769 131.264C30.256 130.958 29.3475 130.283 28.7721 129.296C27.5693 127.238 28.2927 124.606 30.3801 123.416C31.5017 122.777 32.5483 122.048 33.5133 121.235C33.1756 121.015 32.8841 120.715 32.6703 120.341C31.9301 119.074 32.3726 117.458 33.6546 116.731C35.0783 115.923 36.3562 114.929 37.4693 113.782C36.8578 113.768 36.2602 113.441 35.9006 112.89C35.3489 112.024 35.6161 110.852 36.497 110.306C37.7972 109.5 38.9446 108.464 39.9077 107.306C41.1137 105.854 42.0246 104.083 42.5653 102.232L42.5402 101.619C42.4993 100.625 43.5038 99.7734 44.5129 99.732C45.5219 99.6905 46.5929 100.457 46.6337 101.451ZM93.1855 113.424L93.1739 113.907C93.9389 116.283 95.162 118.618 96.7653 120.445C97.9434 121.797 99.3276 122.971 100.875 123.928C101.955 124.595 102.281 126.006 101.607 127.068C101.178 127.744 100.445 128.118 99.6907 128.13C101.118 129.511 102.752 130.673 104.575 131.595C106.187 132.405 106.824 134.359 105.997 135.944C105.714 136.49 105.297 136.922 104.806 137.222C105.999 138.139 107.286 138.949 108.662 139.646C111.288 140.98 112.326 144.154 110.984 146.744C110.282 148.099 109.065 149.024 107.688 149.409C108.961 150.334 110.317 151.161 111.75 151.888C114.67 153.369 115.823 156.896 114.325 159.772C113.528 161.311 112.133 162.352 110.56 162.761C111.113 163.085 111.679 163.394 112.257 163.686C115.281 165.214 116.483 168.874 114.93 171.854C113.514 174.57 110.313 175.787 107.467 174.824C107.654 175.771 107.533 176.784 107.052 177.711C105.913 179.903 103.182 180.776 100.955 179.644C100.376 179.352 99.8105 179.044 99.2575 178.718L98.5583 181.307C98.2794 182.336 97.3329 183.041 96.2547 183.015L81.6773 182.668C80.6079 182.642 79.6873 181.892 79.4577 180.852L78.9353 178.472C78.5147 178.701 78.0876 178.922 77.6542 179.133C76.9799 179.459 76.2571 179.608 75.5471 179.591C73.9167 179.552 72.3597 178.638 71.5809 177.093C71.1029 176.137 71.0045 175.092 71.2284 174.125C70.6247 174.297 70.0067 174.37 69.3943 174.356C67.1766 174.303 65.0659 173.069 64.002 170.973C62.5038 167.964 63.757 164.328 66.8006 162.848C67.4248 162.546 68.0362 162.224 68.6343 161.886C67.1854 161.407 65.9209 160.381 65.1853 158.917C63.7283 156.014 64.9433 152.508 67.8805 151.079C69.3514 150.362 70.7495 149.543 72.067 148.625C70.841 148.17 69.7818 147.273 69.156 146.019C67.85 143.409 68.9427 140.252 71.5871 138.964C73.008 138.272 74.3445 137.465 75.588 136.548C75.1928 136.252 74.8604 135.862 74.6288 135.389C73.8251 133.782 74.4941 131.842 76.1179 131.057C77.9214 130.183 79.5616 129.07 81.0125 127.757C80.2664 127.69 79.562 127.245 79.1662 126.542C78.561 125.44 78.9806 124.029 80.0999 123.433C81.7522 122.552 83.2362 121.377 84.5048 120.039C86.0928 118.361 87.3459 116.27 88.1535 114.053L88.1713 113.304C88.2004 112.086 89.495 111.125 90.731 111.155C91.967 111.184 93.2145 112.205 93.1855 113.424Z" fill="#51B151"/>
<path d="M154.382 172.164L165.003 172.703C165.788 172.742 166.492 172.247 166.716 171.502L168.751 164.697L151.463 163.82L152.8 170.797C152.946 171.56 153.603 172.124 154.382 172.164Z" fill="#51B151"/>
<path d="M149.974 169.802C150.492 169.828 151.021 169.733 151.519 169.509C153.853 168.449 155.954 167.032 157.765 165.286C158.721 164.361 159.545 163.398 160.247 162.434C160.76 163.299 161.356 164.175 162.061 165.036C163.828 167.2 165.991 168.988 168.496 170.338C170.098 171.206 172.106 170.623 172.98 169.048C173.854 167.466 173.263 165.489 171.661 164.62C169.923 163.681 168.423 162.446 167.205 160.95C164.963 158.198 164.223 155.234 163.998 153.231C163.822 151.654 162.514 150.428 160.905 150.334C159.297 150.24 157.853 151.3 157.493 152.85C157.002 154.951 155.849 158.005 153.136 160.614C151.87 161.837 150.392 162.831 148.753 163.58C147.095 164.329 146.369 166.27 147.132 167.903C147.669 169.045 148.786 169.742 149.974 169.802Z" fill="#51B151"/>
<path d="M145.59 165.864C146.292 165.9 147.009 165.776 147.684 165.465C151.053 163.939 154.083 161.89 156.702 159.365C158.224 157.893 159.511 156.364 160.588 154.824C161.382 156.222 162.328 157.64 163.461 159.029C166.011 162.155 169.133 164.734 172.748 166.684C174.923 167.857 177.646 167.074 178.836 164.931C180.027 162.789 179.222 160.097 177.047 158.924C174.473 157.532 172.255 155.704 170.446 153.493C167.118 149.412 166.028 145.028 165.692 142.066C165.448 139.921 163.675 138.263 161.492 138.133C159.309 138.003 157.353 139.447 156.863 141.548C156.135 144.655 154.427 149.172 150.415 153.04C148.537 154.847 146.355 156.324 143.924 157.424C141.676 158.443 140.691 161.07 141.725 163.293C142.459 164.841 143.974 165.782 145.59 165.864Z" fill="#51B151"/>
<path d="M159.337 170.833C162.952 171.016 166.324 168.286 166.505 164.723L167.162 151.758C167.343 148.194 164.265 145.138 160.65 144.955C157.035 144.771 153.663 147.501 153.482 151.064L152.825 164.029C152.644 167.593 155.723 170.649 159.337 170.833Z" fill="#51B151"/>
<path d="M146.552 157.014C147.229 157.049 147.92 156.93 148.575 156.63C151.826 155.156 154.756 153.179 157.275 150.746C158.742 149.328 159.983 147.848 161.025 146.364C161.789 147.715 162.705 149.081 163.797 150.417C166.256 153.436 169.274 155.919 172.757 157.806C174.858 158.937 177.489 158.18 178.632 156.112C179.78 154.045 179.009 151.451 176.909 150.313C174.428 148.971 172.283 147.21 170.541 145.073C167.334 141.139 166.275 136.904 165.952 134.045C165.718 131.978 164.006 130.373 161.9 130.247C159.793 130.121 157.904 131.517 157.43 133.542C156.727 136.542 155.078 140.902 151.207 144.63C149.396 146.376 147.288 147.8 144.942 148.865C142.772 149.85 141.818 152.382 142.823 154.527C143.528 156.029 144.994 156.935 146.552 157.014Z" fill="#51B151"/>
<path d="M159.84 160.946C163.104 161.112 166.153 158.564 166.322 155.237L166.935 143.147C167.103 139.82 164.328 136.977 161.064 136.812C157.801 136.646 154.752 139.194 154.583 142.521L153.97 154.611C153.801 157.938 156.577 160.781 159.84 160.946Z" fill="#51B151"/>
<path d="M149.325 147.441C149.931 147.472 150.558 147.363 151.148 147.092C153.9 145.848 156.374 144.168 158.508 142.112C159.639 141.023 160.605 139.888 161.438 138.752C162.039 139.775 162.749 140.803 163.575 141.818C165.66 144.376 168.211 146.478 171.165 148.075C173.053 149.093 175.425 148.412 176.454 146.55C177.483 144.688 176.789 142.354 174.9 141.33C172.85 140.221 171.086 138.767 169.645 137.004C166.999 133.758 166.126 130.269 165.862 127.906C165.649 126.044 164.109 124.596 162.212 124.487C160.316 124.378 158.614 125.63 158.188 127.452C157.608 129.933 156.247 133.533 153.056 136.611C151.561 138.053 149.824 139.226 147.884 140.107C145.931 140.994 145.073 143.275 145.974 145.203C146.603 146.554 147.92 147.37 149.325 147.441Z" fill="#51B151"/>
<path d="M160.678 150.563C162.831 150.672 164.597 149.04 164.705 146.919L165.315 134.881C165.423 132.76 163.83 130.957 161.678 130.848C159.526 130.739 157.759 132.372 157.652 134.492L157.041 146.531C156.934 148.651 158.526 150.454 160.678 150.563Z" fill="#51B151"/>
<path d="M152.215 138.937C152.585 138.956 152.973 138.886 153.333 138.725C155.437 137.775 157.327 136.494 158.962 134.919C160.127 133.793 161.064 132.612 161.828 131.434C162.394 132.532 163.099 133.65 163.991 134.745C165.583 136.695 167.531 138.299 169.781 139.514C170.94 140.143 172.389 139.723 173.023 138.577C173.658 137.438 173.231 136.001 172.072 135.379C170.37 134.46 168.907 133.253 167.714 131.79C165.52 129.098 164.797 126.18 164.576 124.223C164.448 123.083 163.502 122.164 162.34 122.105C162.333 122.105 162.327 122.104 162.321 122.104C161.165 122.045 160.132 122.832 159.871 123.946C159.389 125.996 158.265 128.98 155.619 131.529C154.381 132.721 152.941 133.704 151.336 134.43C150.137 134.971 149.611 136.372 150.165 137.559C150.546 138.392 151.353 138.893 152.215 138.937Z" fill="#51B151"/>
<path d="M161.212 141.404C162.527 141.471 163.686 140.473 163.751 139.176L164.234 129.661C164.3 128.364 163.248 127.254 161.933 127.188C160.617 127.121 159.459 128.119 159.393 129.415L158.911 138.925C158.845 140.227 159.89 141.337 161.212 141.404Z" fill="#51B151"/>
<path d="M155.075 132.129C155.356 132.143 155.647 132.087 155.923 131.954C157.467 131.181 158.862 130.176 160.07 128.969C160.845 128.195 161.535 127.34 162.133 126.417C162.659 127.41 163.284 128.345 163.996 129.2C165.046 130.464 166.277 131.57 167.665 132.479C168.439 132.986 169.487 132.783 169.999 132.021C170.512 131.26 170.302 130.225 169.527 129.718C168.418 128.989 167.432 128.107 166.599 127.098C165.338 125.58 164.433 123.614 163.949 121.668C163.774 120.955 163.147 120.302 162.4 120.264C162.394 120.264 162.387 120.264 162.381 120.263C161.627 120.225 160.943 120.837 160.709 121.542C160.095 123.413 159.038 125.19 157.669 126.562C156.718 127.512 155.613 128.34 154.391 128.95C153.563 129.363 153.23 130.383 153.65 131.198C153.942 131.751 154.494 132.099 155.075 132.129Z" fill="#51B151"/>
<path d="M161.69 133.928C162.59 133.973 163.553 133.298 163.598 132.411L164.131 121.905C164.176 121.017 163.286 120.248 162.386 120.203C161.485 120.157 160.522 120.832 160.477 121.719L159.945 132.225C159.893 133.113 160.783 133.882 161.69 133.928Z" fill="#51B151"/>
<path d="M24.7061 165.595L35.2596 164.286C36.0401 164.189 36.6474 163.578 36.7385 162.807L37.564 155.751L20.3853 157.884L22.9105 164.523C23.1875 165.249 23.9319 165.692 24.7061 165.595Z" fill="#51B151"/>
<path d="M19.9571 164.033C20.4711 163.969 20.9765 163.784 21.4281 163.476C23.5423 162.028 25.3666 160.268 26.8476 158.235C27.629 157.158 28.2732 156.067 28.7976 154.996C29.4529 155.759 30.1915 156.518 31.0356 157.245C33.1502 159.07 35.5903 160.455 38.2919 161.351C40.0197 161.929 41.8963 161.007 42.484 159.303C43.0708 157.594 42.146 155.75 40.4182 155.172C38.5429 154.547 36.8519 153.591 35.3935 152.328C32.7083 150.007 31.4662 147.216 30.8976 145.283C30.4508 143.76 28.9502 142.779 27.3494 142.965C25.7486 143.151 24.511 144.445 24.4247 146.035C24.3055 148.189 23.6983 151.396 21.4787 154.436C20.444 155.859 19.1604 157.095 17.6763 158.117C16.1731 159.141 15.7946 161.179 16.8284 162.655C17.5557 163.686 18.7767 164.179 19.9571 164.033Z" fill="#51B151"/>
<path d="M14.9568 160.914C15.6549 160.828 16.3396 160.581 16.9507 160.158C20.0038 158.071 22.633 155.528 24.7747 152.588C26.0183 150.874 27.0216 149.145 27.8154 147.442C28.8391 148.681 30.0167 149.914 31.3736 151.086C34.4266 153.723 37.9481 155.721 41.8462 157.016C44.1917 157.795 46.7373 156.551 47.5388 154.235C48.3403 151.918 47.0814 149.407 44.7358 148.628C41.9598 147.704 39.4577 146.287 37.2932 144.423C33.3089 140.98 31.4755 136.852 30.6309 133.993C30.0196 131.923 27.9863 130.596 25.8136 130.847C23.6409 131.097 21.965 132.858 21.8457 135.012C21.6677 138.198 20.7681 142.943 17.4868 147.448C15.9502 149.553 14.0577 151.386 11.8537 152.89C9.81647 154.284 9.3017 157.041 10.7047 159.051C11.6965 160.449 13.3513 161.114 14.9568 160.914Z" fill="#51B151"/>
<path d="M29.3584 163.425C32.9503 162.979 35.7982 159.707 35.3587 156.166L33.7597 143.283C33.3202 139.742 29.7586 137.265 26.1668 137.711C22.5749 138.157 19.727 141.429 20.1665 144.97L21.7655 157.853C22.205 161.394 25.7666 163.871 29.3584 163.425Z" fill="#51B151"/>
<path d="M14.3669 152.032C15.0396 151.949 15.6997 151.712 16.2933 151.303C19.2393 149.288 21.7828 146.833 23.8411 144C25.041 142.35 26.0062 140.677 26.7754 139.035C27.7618 140.234 28.9014 141.42 30.2075 142.546C33.1528 145.093 36.5554 147.016 40.3131 148.27C42.5777 149.02 45.0384 147.819 45.8049 145.585C46.5778 143.35 45.3688 140.929 43.1033 140.172C40.428 139.28 38.01 137.918 35.9239 136.115C32.0839 132.796 30.3067 128.809 29.4937 126.048C28.9045 124.053 26.941 122.77 24.8444 123.011C22.7479 123.251 21.1291 124.954 21.0131 127.03C20.8407 130.106 19.9722 134.686 16.8061 139.029C15.325 141.062 13.4952 142.829 11.3691 144.285C9.40325 145.631 8.90204 148.29 10.2638 150.228C11.2184 151.585 12.8185 152.224 14.3669 152.032Z" fill="#51B151"/>
<path d="M28.1383 153.602C31.3812 153.199 33.9425 150.162 33.5322 146.856L32.0411 134.843C31.6307 131.536 28.4046 129.218 25.1617 129.62C21.9189 130.023 19.3575 133.06 19.7679 136.366L21.259 148.379C21.6693 151.685 24.8955 154.004 28.1383 153.602Z" fill="#51B151"/>
<path d="M15.4432 142.123C16.0461 142.048 16.6443 141.832 17.1785 141.463C19.6737 139.761 21.8186 137.678 23.5641 135.283C24.4892 134.015 25.2446 132.729 25.8675 131.466C26.6369 132.369 27.5142 133.259 28.5033 134.116C31.0007 136.274 33.8769 137.902 37.063 138.963C39.0992 139.638 41.3171 138.557 42.0081 136.545C42.6991 134.532 41.6104 132.354 39.5733 131.672C37.3618 130.935 35.3727 129.81 33.6481 128.322C30.4794 125.584 29.0148 122.299 28.345 120.017C27.8128 118.221 26.045 117.062 24.1587 117.283C22.2723 117.504 20.8124 119.032 20.7092 120.901C20.5674 123.444 19.8511 127.225 17.2416 130.81C16.0195 132.489 14.512 133.945 12.7541 135.149C10.9843 136.361 10.5341 138.756 11.7556 140.499C12.6096 141.721 14.0471 142.296 15.4432 142.123Z" fill="#51B151"/>
<path d="M27.1644 143.231C29.3031 142.965 30.7602 141.051 30.4987 138.944L29.0139 126.982C28.7524 124.875 26.8715 123.375 24.7329 123.641C22.5943 123.906 21.1372 125.82 21.3987 127.927L22.8834 139.889C23.145 141.996 25.0258 143.496 27.1644 143.231Z" fill="#51B151"/>
<path d="M16.8163 133.247C17.1843 133.201 17.5541 133.065 17.881 132.844C19.7882 131.544 21.4274 129.955 22.7655 128.12C23.7176 126.81 24.4358 125.483 24.9842 124.191C25.7313 125.174 26.6196 126.153 27.688 127.077C29.5934 128.722 31.7902 129.964 34.2166 130.771C35.467 131.189 36.8215 130.525 37.2477 129.287C37.6747 128.054 37.0057 126.713 35.756 126.301C33.9211 125.691 32.2714 124.756 30.8423 123.522C28.215 121.251 26.9975 118.503 26.4407 116.613C26.1172 115.512 25.0265 114.771 23.8715 114.915C23.8652 114.916 23.8588 114.916 23.8525 114.917C22.7038 115.06 21.8234 116.013 21.759 117.155C21.6397 119.258 21.0493 122.392 18.8853 125.36C17.8721 126.749 16.6249 127.967 15.1694 128.96C14.0821 129.7 13.8072 131.172 14.559 132.245C15.0779 132.998 15.9596 133.353 16.8163 133.247Z" fill="#51B151"/>
<path d="M26.1046 134.117C27.4118 133.955 28.3797 132.772 28.2198 131.483L27.0462 122.028C26.8863 120.739 25.6585 119.829 24.3512 119.991C23.0439 120.153 22.076 121.337 22.2359 122.625L23.4088 132.074C23.5694 133.369 24.7909 134.28 26.1046 134.117Z" fill="#51B151"/>
<path d="M18.4556 126.045C18.7348 126.011 19.0117 125.905 19.2601 125.726C20.6467 124.697 21.847 123.466 22.827 122.068C23.4567 121.172 23.9882 120.21 24.4166 119.197C25.1067 120.084 25.8841 120.896 26.7337 121.616C27.9868 122.678 29.3907 123.554 30.9154 124.209C31.7662 124.574 32.7627 124.192 33.1355 123.353C33.5082 122.515 33.122 121.531 32.2712 121.167C31.0526 120.641 29.9285 119.943 28.9338 119.094C27.4287 117.818 26.196 116.038 25.3822 114.205C25.0862 113.533 24.3561 112.999 23.6136 113.091C23.6073 113.092 23.601 113.093 23.5946 113.093C22.8458 113.186 22.278 113.908 22.1695 114.643C21.8894 116.591 21.1565 118.525 20.0454 120.113C19.2735 121.214 18.3288 122.221 17.2311 123.033C16.4875 123.583 16.3358 124.646 16.8904 125.376C17.2739 125.87 17.8781 126.117 18.4556 126.045Z" fill="#51B151"/>
<path d="M25.2774 126.671C26.1722 126.56 27.0034 125.728 26.8939 124.846L25.5982 114.407C25.4887 113.524 24.4795 112.922 23.5846 113.033C22.6898 113.144 21.8586 113.975 21.9681 114.857L23.2639 125.297C23.367 126.18 24.3762 126.782 25.2774 126.671Z" fill="#51B151"/>
<ellipse cx="62.1814" cy="238.382" rx="44.8274" ry="6.33212" fill="#288828"/>
<ellipse cx="83.1935" cy="172.432" rx="69.5333" ry="5.15621" fill="#288828"/>
<path d="M127.539 152.946L122.885 171.485C122.745 172.04 122.2 172.428 121.628 172.428H59.4267C58.865 172.428 58.3262 172.053 58.1778 171.511L53.418 154.132C53.4009 154.069 53.3884 154.006 53.3805 153.942L46.8505 100.806H91.4324C92.2596 100.806 93.0329 101.216 93.4969 101.901L127.349 151.871C127.563 152.186 127.632 152.577 127.539 152.946Z" fill="#3A365D"/>
<path d="M123.799 154.033L119.416 171.49C119.277 172.044 118.731 172.433 118.159 172.433H55.98C55.4084 172.433 54.8628 172.044 54.7236 171.49L50.3408 154.033C50.129 153.189 50.767 152.371 51.637 152.371H122.502C123.372 152.371 124.01 153.189 123.799 154.033Z" fill="#3A365D"/>
<path d="M26.9976 172.432H64.8721L46.5879 124.665L26.9976 172.432Z" fill="#3E2E4D"/>
<path d="M82.9326 152.952L78.2789 171.488C78.1397 172.043 77.6413 172.431 77.0696 172.431H61.0933C60.6695 172.431 60.2715 172.212 60.0439 171.855C50.8106 157.355 48.1511 146.675 46.7404 126.627C46.7191 126.325 46.2647 126.312 46.2258 126.612C43.7053 146.112 41.0396 156.304 34.2997 171.683C34.1016 172.136 33.652 172.431 33.1583 172.431H14.7747C14.2129 172.431 13.7205 172.056 13.5721 171.514L8.9502 154.638C8.84647 154.26 8.91458 153.854 9.13645 153.53L44.5016 101.88C45.4929 100.432 47.6296 100.434 48.6187 101.883L82.7402 151.873C82.9556 152.189 83.0256 152.581 82.9326 152.952Z" fill="#48416E"/>
<path d="M82.4775 153.452L48.7577 103.727C47.7744 102.277 45.6416 102.266 44.644 103.706L8.97758 155.196" stroke="#534E7E" stroke-width="2.24327" stroke-linecap="round"/>
<path d="M48.7048 101.665L83.5969 153.005C83.987 153.579 83.1919 154.211 82.721 153.701L48.4847 116.626C47.4948 115.554 45.8 115.557 44.8142 116.633L9.31705 155.369C8.84686 155.883 8.04817 155.25 8.44021 154.675L44.5821 101.662C45.5728 100.208 47.7162 100.21 48.7048 101.665Z" fill="#534E7E"/>
<path d="M99.712 122.44C96.0725 119.178 93.822 116.466 91.7052 111.91C91.4709 111.405 90.9685 111.074 90.4124 111.074H70.5249C69.5015 111.074 68.8223 112.136 69.2638 113.059C71.429 117.587 73.3679 120.876 76.9064 124.541C77.1663 124.81 77.5258 124.959 77.8999 124.959H98.7776C100.088 124.959 100.688 123.314 99.712 122.44Z" fill="#48416E"/>
<path d="M92.045 123.238C91.7789 122.905 91.376 122.711 90.9499 122.711H83.9281C83.5754 122.711 83.3793 123.119 83.5996 123.395L85.8797 126.245C86.1458 126.578 86.5487 126.771 86.9747 126.771H93.9965C94.3493 126.771 94.5454 126.363 94.325 126.088L92.045 123.238Z" fill="#534E7E"/>
<ellipse cx="105.768" cy="212.21" rx="62.6526" ry="6.06316" fill="#288828"/>
<path d="M74.2419 167.678C74.2419 164.916 76.4805 162.678 79.2419 162.678H160.242C163.003 162.678 165.242 164.916 165.242 167.678V206.678C165.242 209.439 163.003 211.678 160.242 211.678H79.2419C76.4805 211.678 74.2419 209.439 74.2419 206.678V167.678Z" fill="#269926"/>
<path d="M161.742 211.678C157.048 211.678 153.242 200.709 153.242 187.178C153.242 173.647 157.048 162.678 161.742 162.678C166.436 162.678 170.242 173.647 170.242 187.178C170.242 200.709 166.436 211.678 161.742 211.678Z" fill="#269926"/>
<path d="M79.2419 211.678C73.7191 211.678 69.2419 200.709 69.2419 187.178C69.2419 173.647 73.7191 162.678 79.2419 162.678C84.7648 162.678 89.2419 173.647 89.2419 187.178C89.2419 200.709 84.7648 211.678 79.2419 211.678Z" fill="#269926"/>
<path d="M161.742 208.678C158.152 208.678 155.242 198.828 155.242 186.678C155.242 174.528 158.152 164.678 161.742 164.678C165.332 164.678 168.242 174.528 168.242 186.678C168.242 198.828 165.332 208.678 161.742 208.678Z" fill="#2BA42B"/>
<path d="M161.742 205.678C159.257 205.678 157.242 197.171 157.242 186.678C157.242 176.184 159.257 167.678 161.742 167.678C164.227 167.678 166.242 176.184 166.242 186.678C166.242 197.171 164.227 205.678 161.742 205.678Z" fill="#25B425"/>
<path d="M161.742 202.678C160.361 202.678 159.242 195.738 159.242 187.178C159.242 178.617 160.361 171.678 161.742 171.678C163.123 171.678 164.242 178.617 164.242 187.178C164.242 195.738 163.123 202.678 161.742 202.678Z" fill="#2A9D2A"/>
<path d="M161.742 196.678C161.466 196.678 161.242 192.201 161.242 186.678C161.242 181.155 161.466 176.678 161.742 176.678C162.018 176.678 162.242 181.155 162.242 186.678C162.242 192.201 162.018 196.678 161.742 196.678Z" fill="#1BAC1B"/>
<path d="M142.573 182.442H125.399C124.727 182.442 124.152 181.649 124.152 180.723C124.152 179.797 124.727 179.004 125.399 179.004H142.573C143.244 179.004 143.82 179.797 143.82 180.723C143.82 181.649 143.244 182.442 142.573 182.442Z" fill="#288828"/>
<path d="M124.937 196.226H104.499C103.827 196.226 103.251 195.432 103.251 194.506C103.251 193.581 103.827 192.787 104.499 192.787H124.937C125.609 192.787 126.185 193.581 126.185 194.506C126.281 195.432 125.705 196.226 124.937 196.226Z" fill="#288828"/>
<path d="M102.294 185.311H91.1634C90.5877 185.311 90.2038 184.65 90.2038 183.989C90.2038 183.195 90.6836 182.666 91.1634 182.666H102.294C102.87 182.666 103.254 183.327 103.254 183.989C103.254 184.65 102.87 185.311 102.294 185.311Z" fill="#288828"/>
<path d="M87.3106 173.341H81.8453C81.4834 173.341 81.2421 172.925 81.2421 172.509C81.2421 172.01 81.5437 171.678 81.8453 171.678H87.3106C87.6725 171.678 87.9138 172.093 87.9138 172.509C87.9138 172.925 87.6725 173.341 87.3106 173.341Z" fill="#288828"/>
<path d="M98.7051 208.274H93.2398C92.8779 208.274 92.6366 207.858 92.6366 207.443C92.6366 206.944 92.9382 206.611 93.2398 206.611H98.7051C99.0671 206.611 99.3083 207.027 99.3083 207.443C99.3083 207.858 99.0671 208.274 98.7051 208.274Z" fill="#288828"/>
<path d="M148.014 200.552H142.548C142.186 200.552 141.945 200.136 141.945 199.72C141.945 199.221 142.247 198.889 142.548 198.889H148.014C148.376 198.889 148.617 199.304 148.617 199.72C148.617 200.136 148.376 200.552 148.014 200.552Z" fill="#288828"/>
<path d="M88.2503 96.5011L136.213 95.8233C137.564 95.8042 138.685 96.8943 138.704 98.2447L138.721 99.4296C138.74 100.781 137.65 101.901 136.299 101.92L88.3364 102.598C86.9852 102.617 85.8647 101.527 85.8456 100.177L85.8288 98.9919C85.8089 97.6415 86.8991 96.5202 88.2503 96.5011Z" fill="#F6B11B"/>
<path d="M133.9 155.253C132.688 155.275 131.688 154.347 131.668 153.183L131.61 149.946C131.589 148.781 132.606 147.766 133.817 147.744L134.204 145.014L89.1623 145.821L89.8187 148.53C91.0307 148.508 91.9762 149.49 91.9975 150.655L92.0552 153.891C92.0765 155.056 91.1104 156.018 89.8992 156.04L89.9186 158.034L133.885 157.246L133.9 155.253Z" fill="#164664"/>
<path d="M135.403 157.148L87.1975 157.83C86.8527 157.835 86.5662 157.546 86.5612 157.188L86.5042 153.16C86.4992 152.803 86.7774 152.506 87.1222 152.502L135.328 151.82C135.673 151.816 135.959 152.104 135.965 152.462L136.021 156.49C136.026 156.848 135.748 157.144 135.403 157.148Z" fill="#CD7F4F"/>
<path d="M120.236 158.174L114.226 158.259C113.243 158.273 112.427 157.48 112.414 156.497L112.373 153.639C112.359 152.656 113.152 151.841 114.135 151.827L120.145 151.742C121.128 151.728 121.943 152.521 121.957 153.503L121.998 156.362C122.011 157.345 121.218 158.16 120.236 158.174Z" stroke="#FECA60" stroke-width="2.39882" stroke-miterlimit="10"/>
<path d="M110.607 154.967L116.104 154.889" stroke="#FECA60" stroke-width="2.39882" stroke-miterlimit="10" stroke-linecap="round"/>
<path d="M136.864 157.194L87.4213 157.893L87.4321 158.656C87.5319 165.716 93.3358 171.358 100.396 171.258L124.273 170.921C131.332 170.821 136.975 165.017 136.875 157.957L136.864 157.194Z" fill="#123770"/>
<path d="M110.379 167.503L107.925 174.375L103.016 170.939L106.452 162.595H115.778L121.668 173.393L113.815 174.375L110.379 167.503Z" fill="#123770"/>
<path d="M110.532 45.5133C97.4042 45.7484 86.956 56.6998 87.1931 69.9736L88.6003 148.558C88.6196 149.643 89.5051 150.506 90.578 150.487L134.231 149.705C135.304 149.686 136.158 148.791 136.138 147.706L134.731 69.1219C134.493 55.8481 123.658 45.2782 110.532 45.5133Z" fill="#B0DEE7"/>
<path d="M116.135 87.4393L116.144 88.1451C116.18 91.0054 114.41 93.3684 112.211 93.3962L111.383 93.4262C109.185 93.4539 107.356 91.1363 107.32 88.276L107.311 87.5703" fill="white"/>
<path d="M116.135 87.4393L116.144 88.1451C116.18 91.0054 114.41 93.3684 112.211 93.3962L111.383 93.4262C109.185 93.4539 107.356 91.1363 107.32 88.276L107.311 87.5703" stroke="#8CC2CF" stroke-width="2.34933" stroke-miterlimit="10" stroke-linecap="round" stroke-linejoin="round"/>
<path d="M94.9268 162.179L95.1493 108.176L95.3666 108.275C106.78 113.493 119.941 113.27 131.17 107.667L130.948 161.67L94.9268 162.179Z" fill="white"/>
<path d="M94.8814 155.711L95.7 167.521L108.337 166.391C112.015 166.062 115.718 166.118 119.385 166.556L131.721 168.03L130.902 156.22L94.8814 155.711Z" fill="#123770"/>
<path d="M95.1458 108.178L95.3631 108.277C106.776 113.495 119.937 113.271 131.166 107.669" stroke="#E9E6E6" stroke-width="2.59521" stroke-linecap="round" stroke-linejoin="round"/>
<path d="M130.207 110.966L126.33 111.035C125.934 111.042 125.608 110.727 125.601 110.331C125.593 109.935 125.909 109.609 126.304 109.602L130.181 109.532C130.577 109.525 130.904 109.84 130.911 110.236C130.918 110.632 130.603 110.959 130.207 110.966Z" fill="#A2CED8"/>
<path d="M130.331 116.966L126.454 117.035C126.058 117.042 125.732 116.727 125.724 116.331C125.717 115.936 126.032 115.609 126.428 115.602L130.305 115.533C130.701 115.525 131.027 115.841 131.034 116.236C131.042 116.632 130.726 116.96 130.331 116.966Z" fill="#A2CED8"/>
<path d="M137.072 82.0249L138.019 82.0198C138.823 82.0116 139.591 81.6845 140.155 81.1103C140.718 80.536 141.03 79.7616 141.023 78.9572L141.022 78.7056C141.014 77.9012 140.687 77.1329 140.112 76.5695C139.538 76.0062 138.764 75.6938 137.959 75.701L137.014 75.706L137.072 82.0249Z" fill="#F65539"/>
<path d="M136.099 84.6385L136.413 84.6368C136.641 84.6348 136.867 84.5879 137.077 84.4987C137.287 84.4095 137.478 84.2797 137.638 84.1168C137.798 83.9538 137.924 83.761 138.009 83.5492C138.095 83.3374 138.138 83.1109 138.135 82.8826L138.064 74.9872C138.062 74.759 138.015 74.5335 137.925 74.3235C137.836 74.1135 137.706 73.9232 137.543 73.7634C137.381 73.6035 137.188 73.4774 136.976 73.3921C136.764 73.3068 136.538 73.264 136.31 73.2661L135.995 73.2678C135.767 73.2698 135.541 73.3167 135.331 73.4059C135.12 73.4952 134.93 73.6249 134.77 73.7879C134.61 73.9508 134.484 74.1436 134.398 74.3554C134.313 74.5672 134.27 74.7937 134.272 75.0221L134.345 82.9138C134.347 83.1423 134.394 83.3682 134.483 83.5786C134.572 83.789 134.702 83.9798 134.865 84.14C135.028 84.3002 135.221 84.4267 135.432 84.5122C135.644 84.5978 135.871 84.6407 136.099 84.6385Z" fill="#FFB762"/>
<path d="M130.269 113.969L126.392 114.038C125.996 114.045 125.67 113.73 125.662 113.334C125.655 112.938 125.97 112.611 126.366 112.604L130.243 112.535C130.639 112.528 130.965 112.843 130.972 113.239C130.98 113.635 130.665 113.961 130.269 113.969Z" fill="#A2CED8"/>
<path d="M85.5727 82.5172L84.6265 82.5469C83.8223 82.5683 83.0425 82.2697 82.4584 81.7165C81.8743 81.1634 81.5336 80.401 81.5112 79.5969L81.5033 79.3454C81.4819 78.5412 81.7806 77.7614 82.3337 77.1773C82.8868 76.5932 83.6492 76.2525 84.4534 76.2302L85.3978 76.2005L85.5727 82.5172Z" fill="#F65539"/>
<path d="M86.6342 85.0924L86.3212 85.1022C86.0929 85.1086 85.8656 85.0701 85.6523 84.9886C85.4389 84.9072 85.2437 84.7845 85.0779 84.6276C84.912 84.4706 84.7786 84.2826 84.6855 84.0741C84.5923 83.8656 84.5412 83.6408 84.535 83.4125L84.316 75.5198C84.3097 75.2917 84.3485 75.0646 84.4301 74.8515C84.5116 74.6384 84.6344 74.4434 84.7913 74.2777C84.9482 74.112 85.1362 73.9788 85.3446 73.8858C85.5529 73.7927 85.7776 73.7417 86.0057 73.7354L86.3205 73.7256C86.5488 73.7191 86.7761 73.7577 86.9894 73.8391C87.2027 73.9206 87.3979 74.0433 87.5638 74.2002C87.7297 74.3571 87.863 74.5452 87.9562 74.7537C88.0493 74.9622 88.1005 75.187 88.1067 75.4152L88.3238 83.3043C88.3305 83.5327 88.2921 83.7602 88.2107 83.9738C88.1294 84.1873 88.0068 84.3827 87.8498 84.5488C87.6929 84.7149 87.5047 84.8484 87.2961 84.9417C87.0875 85.0349 86.8626 85.0861 86.6342 85.0924Z" fill="#FFB762"/>
<rect x="94.9036" y="66.358" width="33.5338" height="18.4435" rx="9.22174" transform="rotate(-1.07838 94.9036 66.358)" fill="#36488B"/>
<path d="M124.966 57.2441C120.623 52.492 114.455 50.0503 108.045 50.5447" stroke="#ECFBFF" stroke-width="2.39882" stroke-miterlimit="10" stroke-linecap="round"/>
<path d="M128.595 63.0688C128.171 62.1081 127.682 61.1906 127.132 60.32" stroke="#ECFBFF" stroke-width="2.39882" stroke-miterlimit="10" stroke-linecap="round"/>
<path d="M91.9555 47.0916L96.2827 51.7956" stroke="#B0DEE7" stroke-width="3.19842" stroke-miterlimit="10"/>
<path d="M90.0277 49.6675C87.4117 49.4854 85.4387 47.2172 85.6207 44.6012C85.8028 41.9853 88.071 40.0122 90.687 40.1943C93.3029 40.3763 95.276 42.6446 95.0939 45.2605C94.9119 47.8765 92.6436 49.8495 90.0277 49.6675Z" fill="#B0DEE7"/>
<path d="M90.2123 47.668C88.7122 47.5636 87.5808 46.2629 87.6852 44.7628C87.7896 43.2628 89.0903 42.1314 90.5903 42.2358C92.0904 42.3402 93.2218 43.6408 93.1174 45.1409C93.013 46.6409 91.7123 47.7723 90.2123 47.668Z" fill="#F65539"/>
<path d="M128.093 157.093C130.418 157.093 132.483 158.582 133.219 160.788L136.405 170.346C137.757 170.346 138.839 169.222 138.787 167.871L136.182 99.7957L117.854 120.877L117.855 146.856C117.855 152.51 122.439 157.093 128.093 157.093Z" fill="#FCC027"/>
<path d="M129.748 47.7251L125.994 52.3256" stroke="#B0DEE7" stroke-width="3.19842" stroke-miterlimit="10"/>
<path d="M132.48 49.9591C129.887 50.3511 127.468 48.567 127.076 45.9741C126.684 43.3813 128.468 40.9617 131.061 40.5697C133.653 40.1776 136.073 41.9618 136.465 44.5546C136.857 47.1474 135.073 49.5671 132.48 49.9591Z" fill="#B0DEE7"/>
<path d="M132.229 47.9664C130.742 48.1912 129.355 47.1682 129.13 45.6814C128.905 44.1946 129.928 42.8071 131.415 42.5823C132.902 42.3575 134.289 43.3806 134.514 44.8674C134.739 46.3541 133.716 47.7416 132.229 47.9664Z" fill="#F65539"/>
<path d="M86.3854 106.465C55.1968 120.919 54.2302 98.4938 84.7701 79.6784" stroke="#8CC2CF" stroke-width="6.39685" stroke-miterlimit="10" stroke-linecap="round"/>
<path d="M135.877 105.507C165.377 123.153 166.888 102.654 138.49 80.738" stroke="#8CC2CF" stroke-width="6.39685" stroke-miterlimit="10" stroke-linecap="round"/>
<path d="M86.385 106.465C55.1963 120.919 54.2302 98.4934 84.7701 79.6781" stroke="#A2CED8" stroke-width="6.39685" stroke-miterlimit="10" stroke-dasharray="7.92 4.75"/>
<path d="M135.877 105.507C165.377 123.153 166.888 102.654 138.49 80.738" stroke="#A2CED8" stroke-width="6.39685" stroke-miterlimit="10" stroke-dasharray="7.92 4.75"/>
<path d="M95.2618 157.689C92.8585 157.689 90.7247 159.226 89.9647 161.506L86.8198 170.941C85.4673 170.941 84.3856 169.817 84.4373 168.466L87.0424 100.391L107.032 121.271L105.83 147.591C105.572 153.241 100.917 157.689 95.2618 157.689Z" fill="#FCC027"/>
<path d="M90.3491 107.074C84.8254 105.783 77.256 110.757 70.1192 111.622" stroke="#FABC43" stroke-width="11.1945" stroke-miterlimit="10"/>
<path d="M131.865 105.696C137.493 104.991 144.499 110.732 151.506 112.341" stroke="#FABC43" stroke-width="11.1945" stroke-miterlimit="10"/>
<path d="M85.581 142.688C85.4869 142.873 85.4094 143.058 85.3295 143.243L85.0896 149.296C85.2927 149.378 85.5225 149.391 85.7492 149.311C87.0057 148.866 88.9109 147.895 90.4029 145.808C90.9997 144.974 91.4195 144.114 91.7129 143.278C91.761 143.139 91.9467 143.151 91.9791 143.294C92.198 144.261 92.566 145.275 93.1596 146.276C94.3972 148.364 96.0763 149.496 97.2396 150.081C97.8238 150.375 98.5178 150.013 98.6434 149.333C98.9003 147.945 99.051 145.688 98.0782 143.276C97.5404 141.943 96.7959 140.902 96.0129 140.097C95.9015 139.983 96.0109 139.79 96.1568 139.842C97.1846 140.207 98.3802 140.43 99.7192 140.336C102.031 140.174 103.777 139.141 104.822 138.33C105.348 137.922 105.378 137.089 104.881 136.646C103.868 135.743 102.099 134.532 99.6611 134.292C98.4353 134.171 97.3235 134.324 96.3513 134.613C96.2023 134.658 96.1054 134.46 96.2226 134.353C96.9567 133.675 97.662 132.819 98.2417 131.737C99.3954 129.582 99.5566 127.458 99.5027 126.082C99.4756 125.389 98.8412 124.908 98.2201 125.111C96.9537 125.525 95.0286 126.447 93.4911 128.495C92.7555 129.475 92.2716 130.498 91.9568 131.479C91.9108 131.622 91.7213 131.612 91.689 131.465C91.4576 130.418 91.0521 129.312 90.3751 128.228C89.0914 126.172 87.3874 125.082 86.2117 124.527C86.1662 124.505 86.1195 124.496 86.0729 124.482L85.7798 131.879C86.2295 132.776 86.7663 133.529 87.3378 134.144C87.4374 134.252 87.3429 134.43 87.2045 134.394C86.7294 134.272 86.2222 134.186 85.6893 134.145L85.4494 140.198C86.0929 140.165 86.7016 140.067 87.2624 139.915C87.4045 139.877 87.4981 140.06 87.3922 140.168C86.7286 140.84 86.0977 141.668 85.581 142.688Z" fill="#FFA51F"/>
<path d="M86.4495 94.5965L81.0231 99.3731C79.4658 100.744 79.8654 103.252 81.7732 104.082L92.2906 108.659C93.182 109.047 93.3488 110.229 92.5979 110.843L91.2594 111.938C90.5002 112.559 90.6803 113.756 91.5882 114.131L105.733 122.362C106.939 122.86 107.975 121.375 107.078 120.434L88.268 94.6762C87.7838 94.166 86.9778 94.1309 86.4495 94.5965Z" fill="#FFDF60"/>
<path fill-rule="evenodd" clip-rule="evenodd" d="M126.428 111.127C126.551 111.207 126.73 111.407 126.992 111.773C127.754 112.84 128.252 113.936 128.57 114.989C128.618 115.144 128.838 115.146 128.886 114.99C129.18 114.05 129.621 113.078 130.273 112.122C131.904 109.731 134.091 108.546 135.546 107.979C135.809 107.878 136.081 107.878 136.325 107.956L136.42 114.644C136.411 114.667 136.402 114.69 136.393 114.713C136.319 114.898 136.246 115.083 136.158 115.271C135.612 116.426 134.919 117.376 134.178 118.157C134.06 118.283 134.181 118.479 134.347 118.429C134.999 118.227 135.711 118.083 136.468 118.007L136.563 124.694C135.931 124.68 135.328 124.616 134.759 124.511C134.594 124.479 134.493 124.681 134.618 124.794C135.33 125.438 136.011 126.236 136.597 127.197L136.713 135.369C136.699 135.366 136.685 135.363 136.671 135.36C136.629 135.352 136.588 135.343 136.546 135.327C135.124 134.787 133.046 133.688 131.403 131.5C130.536 130.346 129.989 129.15 129.65 128.01C129.603 127.85 129.379 127.85 129.334 128.011C129.023 129.112 128.516 130.268 127.709 131.393C126.023 133.744 123.809 134.876 122.34 135.409C121.62 135.67 120.842 135.178 120.766 134.416C120.617 132.902 120.675 130.551 121.902 128.106C122.518 126.878 123.297 125.893 124.121 125.101C124.252 124.975 124.126 124.763 123.953 124.821C122.824 125.199 121.521 125.435 120.067 125.376C119.282 125.344 118.551 125.23 117.876 125.063L117.856 119.6L118.573 118.891C118.909 118.818 119.259 118.759 119.622 118.717C121.196 118.532 122.621 118.705 123.856 119.046C124.032 119.094 124.149 118.875 124.01 118.756C123.149 118.014 122.313 117.067 121.634 115.865L123.173 114.344C123.516 114.329 123.78 114.201 123.834 113.813C123.842 113.76 123.853 113.708 123.867 113.658L124.676 112.858C124.919 112.79 125.187 112.799 125.444 112.903C126.124 113.181 126.137 112.408 126.148 111.785C126.151 111.639 126.153 111.501 126.164 111.387L126.428 111.127Z" fill="#FFA51F"/>
<path d="M137.444 94.2238L142.674 99.2143C144.175 100.646 143.675 103.137 141.735 103.89L131.043 108.04C130.137 108.392 129.922 109.567 130.648 110.21L131.942 111.358C132.675 112.009 132.447 113.197 131.525 113.537L119.193 121.341C117.968 121.791 116.992 120.266 117.926 119.362L135.623 94.2294C136.128 93.74 136.935 93.7373 137.444 94.2238Z" fill="#FFDF60"/>
<path d="M87.3098 167.508C87.3098 162.086 91.705 157.691 97.1267 157.691H109.889H116.76L113.325 162.599L111.238 165.58C110.36 166.835 109.889 168.329 109.889 169.861C109.889 173.983 106.547 177.325 102.425 177.325H97.1267C91.705 177.325 87.3098 172.929 87.3098 167.508Z" fill="#123770"/>
<path d="M134.431 167.508C134.431 162.086 130.036 157.691 124.614 157.691H111.852V166.035C111.852 172.27 116.907 177.325 123.142 177.325H124.614C130.036 177.325 134.431 172.929 134.431 167.508Z" fill="#123770"/>
<rect x="87.8033" y="160.145" width="21.5971" height="16.6887" rx="8.34433" fill="#30284F" stroke="#123770" stroke-width="0.981687"/>
<path d="M98.9468 222.481L98.9468 165.544" stroke="#8CC2CF" stroke-width="7.99606" stroke-miterlimit="10" stroke-linecap="round"/>
<path d="M98.9468 222.481L98.9468 165.544" stroke="#A2CED8" stroke-width="7.99606" stroke-miterlimit="10" stroke-dasharray="11.19 4.8"/>
<rect x="112.343" y="160.145" width="21.5971" height="16.6887" rx="8.34433" fill="#30284F" stroke="#123770" stroke-width="0.981687"/>
<path d="M123.318 222.481L123.318 165.544" stroke="#8CC2CF" stroke-width="7.99606" stroke-miterlimit="10" stroke-linecap="round"/>
<path d="M123.318 222.481L123.318 165.544" stroke="#A2CED8" stroke-width="7.99606" stroke-miterlimit="10" stroke-dasharray="11.19 4.8"/>
<path d="M134.93 71.4564L137.188 71.655L136.317 67.4416L134.294 64.5747L134.93 71.4564Z" fill="#0C4CAD"/>
<path d="M121.311 77.5539C120.931 76.5287 119.899 75.7911 118.682 75.7861C117.466 75.7811 116.427 76.5103 116.04 77.5324" stroke="#56D8E3" stroke-width="2.31268" stroke-linecap="round"/>
<path d="M109.658 77.9802C109.279 76.955 108.247 76.2174 107.03 76.2124C105.813 76.2074 104.775 76.9366 104.387 77.9586" stroke="#56D8E3" stroke-width="2.31268" stroke-linecap="round"/>
<ellipse rx="14.9225" ry="12.3273" transform="matrix(1 0 0 -1 127.135 73.007)" fill="#30284F" stroke="#30284F" stroke-width="3.37141"/>
<path d="M138.568 65.8271C142.021 67.7751 144.236 74.4189 142.021 79.4503C139.806 84.4827 134.672 86.7673 129.072 87.4978" stroke="#8CC2CF" stroke-width="5.40153" stroke-miterlimit="10" stroke-linecap="round"/>
<circle r="14.3285" transform="matrix(1 0 0 -1 128.076 68.9547)" fill="#30284F" stroke="#30284F" stroke-width="3.37141"/>
<path fill-rule="evenodd" clip-rule="evenodd" d="M99.6913 64.1462C93.6664 65.7992 89.6853 71.8515 90.7991 77.6646C91.913 83.4776 97.7001 86.85 103.725 85.1971C106.542 84.4243 108.912 82.6899 110.523 80.4679C111.269 79.4397 113.515 79.4003 114.288 80.4084C115.721 82.2775 117.7 83.8173 120.048 84.719C125.879 86.9583 131.776 84.4125 133.219 79.033C134.662 73.6534 131.104 67.477 125.273 65.2377C121.077 63.6265 116.848 64.4925 114.268 67.1088C113.395 67.9934 111.187 67.9797 110.363 67.0496C107.889 64.2567 103.847 63.0062 99.6913 64.1462Z" fill="#30284F"/>
<path d="M99.6913 64.1462L99.2453 62.5206L99.6913 64.1462ZM103.725 85.1971L103.279 83.5714H103.279L103.725 85.1971ZM120.048 84.719L119.444 86.2926L119.444 86.2926L120.048 84.719ZM133.219 79.033L134.847 79.4696L133.219 79.033ZM125.273 65.2377L124.669 66.8114L125.273 65.2377ZM110.523 80.4679L111.888 81.4576L110.523 80.4679ZM114.288 80.4084L115.626 79.3829L114.288 80.4084ZM92.4547 77.3473C91.5206 72.4724 94.8861 67.2125 100.137 65.7719L99.2453 62.5206C92.4467 64.3858 87.8499 71.2307 89.1436 77.9818L92.4547 77.3473ZM103.279 83.5714C98.1076 84.9902 93.3656 82.1011 92.4547 77.3473L89.1436 77.9818C90.4604 84.854 97.2926 88.7098 104.171 86.8227L103.279 83.5714ZM109.159 79.4782C107.76 81.4066 105.707 82.9054 103.279 83.5714L104.171 86.8227C107.377 85.9432 110.063 83.9732 111.888 81.4576L109.159 79.4782ZM112.95 81.4339C114.564 83.5395 116.793 85.2749 119.444 86.2926L120.652 83.1453C118.607 82.3598 116.877 81.0155 115.626 79.3829L112.95 81.4339ZM119.444 86.2926C126.004 88.812 133.092 86.0157 134.847 79.4696L131.591 78.5963C130.461 82.8094 125.754 85.1045 120.652 83.1453L119.444 86.2926ZM134.847 79.4696C136.553 73.1105 132.365 66.1552 125.877 63.6641L124.669 66.8114C129.844 68.7988 132.771 74.1962 131.591 78.5963L134.847 79.4696ZM125.877 63.6641C121.146 61.8474 116.182 62.7664 113.067 65.9251L115.468 68.2924C117.513 66.2186 121.008 65.4057 124.669 66.8114L125.877 63.6641ZM100.137 65.7719C103.709 64.792 107.077 65.8826 109.101 68.1674L111.625 65.9319C108.701 62.6308 103.984 61.2205 99.2453 62.5206L100.137 65.7719ZM113.067 65.9251C113.093 65.899 113.057 65.9455 112.896 65.9966C112.743 66.0451 112.54 66.0768 112.317 66.0741C112.094 66.0715 111.898 66.0349 111.757 65.9853C111.608 65.933 111.589 65.8921 111.625 65.9319L109.101 68.1674C109.961 69.1384 111.284 69.4335 112.277 69.4453C113.276 69.4572 114.581 69.1915 115.468 68.2924L113.067 65.9251ZM111.888 81.4576C111.843 81.5201 111.833 81.4931 111.95 81.4457C112.062 81.4002 112.229 81.3632 112.423 81.36C112.618 81.3568 112.784 81.3884 112.896 81.4294C113.012 81.4722 112.999 81.4977 112.95 81.4339L115.626 79.3829C114.781 78.2802 113.386 77.9723 112.368 77.989C111.348 78.0058 109.97 78.3596 109.159 79.4782L111.888 81.4576Z" fill="#30284F"/>
<path d="M86.4902 65.8259C83.0371 67.7739 80.8225 74.4177 83.0371 79.4491C85.2517 84.4815 90.386 86.7661 95.9863 87.4966" stroke="#8CC2CF" stroke-width="5.40153" stroke-miterlimit="10" stroke-linecap="round"/>
<ellipse cx="99.4528" cy="73.0079" rx="12.7598" ry="12.3273" transform="rotate(-180 99.4528 73.0079)" fill="#30284F" stroke="#30284F" stroke-width="3.37141"/>
<circle cx="97.1657" cy="68.9538" r="14.3285" transform="rotate(-180 97.1657 68.9538)" fill="#30284F" stroke="#30284F" stroke-width="3.37141"/>
<ellipse rx="10.9363" ry="10.7176" transform="matrix(1 0 0 -1 99.1685 68.9009)" fill="#36488B"/>
<path d="M125.417 57.5075C131.842 57.5075 137.074 62.6158 137.074 68.9446C137.074 75.2734 131.842 80.3817 125.417 80.3817C118.991 80.3817 113.759 75.2734 113.759 68.9446C113.759 62.6158 118.991 57.5075 125.417 57.5075Z" fill="#36488B" stroke="#30284F" stroke-width="1.29761"/>
<path fill-rule="evenodd" clip-rule="evenodd" d="M82.0107 69.2355C82.0107 77.304 88.5515 83.8449 96.6201 83.8449C104.689 83.8449 111.23 77.304 111.23 69.2354C111.23 61.1669 104.689 54.626 96.6201 54.626C88.5515 54.626 82.0107 61.1669 82.0107 69.2355ZM96.6201 85.7928C87.4757 85.7928 80.0627 78.3798 80.0627 69.2355C80.0627 60.0911 87.4757 52.6781 96.6201 52.6781C102.515 52.6781 107.69 55.7583 110.624 60.397C111.274 61.4252 113.138 61.4252 113.788 60.397C116.722 55.7583 121.897 52.6781 127.792 52.6781C136.936 52.6781 144.349 60.0911 144.349 69.2354C144.349 78.3798 136.936 85.7928 127.792 85.7928C121.897 85.7928 116.722 82.7126 113.788 78.0739C113.138 77.0457 111.274 77.0457 110.624 78.0739C107.69 82.7126 102.515 85.7928 96.6201 85.7928ZM113.182 69.2355C113.182 77.304 119.723 83.8449 127.792 83.8449C135.86 83.8449 142.401 77.304 142.401 69.2354C142.401 61.1669 135.86 54.626 127.792 54.626C119.723 54.626 113.182 61.1669 113.182 69.2355Z" fill="#615980"/>
<path d="M100.305 60.2835C100.707 59.4792 101.849 59.4792 102.251 60.2835L103.834 63.4513C103.987 63.7585 104.275 63.9753 104.612 64.0368L108.038 64.663C108.883 64.8174 109.226 65.8479 108.643 66.4814L106.156 69.1838C105.935 69.4238 105.833 69.7505 105.877 70.0744L106.377 73.747C106.497 74.6249 105.582 75.2737 104.798 74.8668L101.778 73.2982C101.464 73.1354 101.092 73.1354 100.778 73.2982L97.7576 74.8668C96.9741 75.2737 96.0592 74.6249 96.1788 73.747L96.6789 70.0744C96.7229 69.7505 96.6205 69.4238 96.3996 69.1838L93.9128 66.4814C93.3298 65.8479 93.6725 64.8174 94.5175 64.663L97.944 64.0368C98.2806 63.9753 98.5688 63.7585 98.7223 63.4513L100.305 60.2835Z" fill="#56D8E3"/>
<path d="M122.157 60.2854C122.562 59.4758 123.712 59.4758 124.117 60.2854L125.71 63.4741C125.864 63.7833 126.154 64.0016 126.493 64.0635L129.942 64.6938C130.793 64.8492 131.138 65.8865 130.551 66.5242L128.048 69.2444C127.825 69.4861 127.722 69.8149 127.767 70.1409L128.27 73.8378C128.39 74.7214 127.469 75.3745 126.681 74.9649L123.64 73.386C123.325 73.2221 122.949 73.2221 122.634 73.386L119.593 74.9649C118.805 75.3745 117.884 74.7214 118.004 73.8378L118.508 70.1409C118.552 69.8149 118.449 69.4861 118.227 69.2444L115.723 66.5242C115.137 65.8865 115.481 64.8492 116.332 64.6938L119.781 64.0635C120.12 64.0016 120.41 63.7833 120.565 63.4741L122.157 60.2854Z" fill="#56D8E3"/>
<ellipse opacity="0.5" cx="97.6579" cy="66.3153" rx="8.36671" ry="5.89985" transform="rotate(-25.977 97.6579 66.3153)" fill="white"/>
<ellipse opacity="0.5" cx="123.842" cy="66.3005" rx="8.42193" ry="5.93879" transform="rotate(-25.977 123.842 66.3005)" fill="white"/>
<path d="M94.6694 203.828C94.6694 203.286 95.1089 202.847 95.6511 202.847H102.523C103.065 202.847 103.505 203.286 103.505 203.828V219.535C103.505 220.078 103.065 220.517 102.523 220.517H95.6511C95.1089 220.517 94.6694 220.078 94.6694 219.535V203.828Z" fill="white"/>
<path d="M119.208 202.847C119.208 202.305 119.648 201.866 120.19 201.866H127.062C127.604 201.866 128.044 202.305 128.044 202.847V218.554C128.044 219.097 127.604 219.536 127.062 219.536H120.19C119.648 219.536 119.208 219.097 119.208 218.554V202.847Z" fill="white"/>
<rect x="94.0845" y="207.757" width="8.60145" height="17.2029" rx="3.22554" fill="#DF9948"/>
<path d="M100.538 209.91C100.538 209.317 101.02 208.835 101.614 208.835H103.764C104.358 208.835 104.839 209.317 104.839 209.91V224.963C104.839 225.557 104.358 226.038 103.764 226.038H98.0879C97.6251 226.038 97.2142 225.742 97.0679 225.303L95.4139 220.341C95.2902 219.97 95.5663 219.587 95.9571 219.587C98.4874 219.587 100.538 217.536 100.538 215.006V209.91Z" fill="#EFAF4F"/>
<path d="M93.5468 209.887C93.5468 209.306 94.0176 208.835 94.5984 208.835H95.1596C95.7534 208.835 96.2348 209.317 96.2348 209.91V216.533C96.2348 218.22 94.8489 219.587 93.1622 219.587C92.6778 219.587 92.3166 220.042 92.4341 220.512C92.639 221.331 91.5372 221.805 91.0837 221.092L90.173 219.661C90.02 219.421 90.2194 219.112 90.5015 219.152C92.1088 219.382 93.5468 218.134 93.5468 216.511V209.887Z" fill="#EFAF4F"/>
<path d="M101.604 217.76C101.604 217.547 101.665 217.342 101.781 217.164C102.455 216.125 104.83 212.367 104.83 210.983C104.83 214.064 105.248 216.205 105.715 217.636C106.278 219.357 107.051 221.116 107.18 222.922L107.442 226.596C107.484 227.181 107.051 227.691 106.467 227.744L102.777 228.079C102.147 228.136 101.604 227.641 101.604 227.008V217.76Z" fill="#EFAF4F"/>
<path d="M95.1606 211.52L101.612 214.745L94.623 217.971L98.9237 220.121M101.612 211.52L95.1606 214.745L100.537 218.508L93.0103 219.046" stroke="#A36E31" stroke-width="1.07518" stroke-linecap="round" stroke-linejoin="round"/>
<path d="M83.3345 224.959C83.3345 221.396 86.2227 218.508 89.7856 218.508H93.0111C96.5739 218.508 99.4622 221.396 99.4622 224.959V227.109H83.3345V224.959Z" fill="#FABD63"/>
<path d="M89.7837 227.109C89.7837 225.921 90.7464 224.959 91.9341 224.959H106.987C108.174 224.959 109.137 225.921 109.137 227.109V229.259C109.137 229.853 108.656 230.335 108.062 230.335H91.934C90.7464 230.335 89.7837 229.372 89.7837 228.184V227.109Z" fill="#C48133"/>
<path d="M81.1816 227.109C81.1816 225.922 82.1444 224.959 83.332 224.959H99.4597C100.647 224.959 101.61 225.922 101.61 227.109V229.26C101.61 229.854 101.129 230.335 100.535 230.335H82.2568C81.663 230.335 81.1816 229.854 81.1816 229.26V227.109Z" fill="#DF9948"/>
<rect width="8.60145" height="17.2029" rx="3.22554" transform="matrix(-1 0 0 1 128.643 207.757)" fill="#DF9948"/>
<path d="M122.189 209.91C122.189 209.317 121.708 208.835 121.114 208.835H118.963C118.37 208.835 117.888 209.317 117.888 209.91V224.963C117.888 225.557 118.37 226.038 118.963 226.038H124.64C125.102 226.038 125.513 225.742 125.66 225.303L127.314 220.341C127.437 219.97 127.161 219.587 126.77 219.587C124.24 219.587 122.189 217.536 122.189 215.006V209.91Z" fill="#EFAF4F"/>
<path d="M129.181 209.887C129.181 209.306 128.71 208.835 128.129 208.835H127.568C126.974 208.835 126.493 209.317 126.493 209.91V216.533C126.493 218.22 127.879 219.587 129.566 219.587C130.05 219.587 130.411 220.042 130.294 220.512C130.089 221.331 131.191 221.805 131.644 221.092L132.555 219.661C132.708 219.421 132.508 219.112 132.226 219.152C130.619 219.382 129.181 218.134 129.181 216.511V209.887Z" fill="#EFAF4F"/>
<path d="M121.124 217.76C121.124 217.547 121.062 217.342 120.947 217.164C120.272 216.125 117.898 212.367 117.898 210.983C117.898 214.064 117.48 216.205 117.012 217.636C116.45 219.357 115.677 221.116 115.548 222.922L115.285 226.596C115.243 227.181 115.677 227.691 116.26 227.744L119.951 228.079C120.581 228.136 121.124 227.641 121.124 227.008V217.76Z" fill="#EFAF4F"/>
<path d="M127.567 211.52L121.116 214.745L128.105 217.971L123.804 220.121M121.116 211.52L127.567 214.745L122.191 218.508L129.717 219.046" stroke="#A36E31" stroke-width="1.07518" stroke-linecap="round" stroke-linejoin="round"/>
<path d="M139.393 224.959C139.393 221.396 136.505 218.508 132.942 218.508H129.716C126.154 218.508 123.265 221.396 123.265 224.959V227.109H139.393V224.959Z" fill="#FABD63"/>
<path d="M132.944 227.109C132.944 225.921 131.981 224.959 130.794 224.959H115.741C114.554 224.959 113.591 225.921 113.591 227.109V229.259C113.591 229.853 114.072 230.335 114.666 230.335H130.794C131.981 230.335 132.944 229.372 132.944 228.184V227.109Z" fill="#C48133"/>
<path d="M141.537 227.109C141.537 225.922 140.574 224.959 139.387 224.959H123.259C122.071 224.959 121.109 225.922 121.109 227.109V229.26C121.109 229.854 121.59 230.335 122.184 230.335H140.462C141.056 230.335 141.537 229.854 141.537 229.26V227.109Z" fill="#DF9948"/>
<path d="M53.3884 225.195C53.3884 229.595 46.1352 232.593 38.592 232.593C31.0488 232.593 26.072 229.595 26.072 225.195C26.072 217.227 34.0393 218.365 42.0066 215.52C49.5498 215.52 53.3884 220.794 53.3884 225.195Z" fill="#269926"/>
<path d="M77.1629 226.101C77.1629 221.7 82.6027 218.702 88.2601 218.702C93.9175 218.702 97.6501 221.7 97.6501 226.101C97.6501 232.925 93.2665 233.069 88.2538 234.758C86.5379 235.336 84.7055 235.929 82.9976 235.328C79.1266 233.965 77.1629 229.735 77.1629 226.101Z" fill="#269926"/>
<path d="M90.9634 200.614C89.9219 200.834 88.9352 199.902 89.1545 198.86C89.6479 196.503 90.0316 193.817 90.196 190.802C90.3605 187.568 90.1412 184.553 89.8123 181.922C89.6479 180.661 87.9486 180.332 87.3456 181.484C87.1811 181.758 87.0167 182.032 86.8522 182.306C86.1945 183.238 84.8241 183.073 84.3307 182.087C83.947 181.264 83.5085 180.332 83.0699 179.346C80.5484 173.7 78.5202 169.15 78.2461 163.614C78.1913 162.353 78.1913 160.653 78.4106 158.735C78.6298 157.036 76.5468 155.994 75.2861 157.2C73.6416 158.79 71.8327 160.982 70.3526 163.778C68.4341 167.451 67.7763 170.959 67.557 173.809C67.4474 175.125 65.6384 175.289 65.2547 174.083C64.871 172.932 64.5969 171.671 64.4325 170.301C63.5006 162.627 68.1052 158.57 67.7215 152.486C67.3926 146.675 64.5421 141.578 60.5954 137.137C59.6087 136.041 57.7449 136.754 57.7998 138.234C57.8546 139.988 57.7449 141.961 57.3064 144.044C55.8264 150.787 51.77 154.076 49.1388 158.242C46.5625 162.243 44.2054 168.766 45.6306 179.51C45.7951 180.771 44.2054 181.374 43.438 180.387C42.4513 179.072 41.4646 177.318 40.8068 175.125C40.0942 172.823 40.0394 170.685 40.149 168.876C40.2586 167.56 38.5593 166.848 37.6823 167.889C34.9415 171.397 34.2289 174.303 34.2289 176.495C34.2289 179.675 35.5445 181.374 36.0926 186.088C36.4215 188.774 36.3119 191.131 36.0926 193.159C35.9282 194.42 34.2289 194.804 33.5711 193.653C33.0777 192.776 32.694 191.899 32.4199 191.076C31.9814 189.816 30.2273 189.925 29.8984 191.186C29.2954 193.653 28.8021 196.668 28.9665 200.066C28.9665 200.669 29.0214 201.217 29.0214 201.217C29.0214 201.491 29.0762 201.765 29.131 201.985C29.2406 202.752 28.4732 203.3 27.8154 202.917C25.7872 201.82 23.5397 201.985 21.8953 202.368C20.8538 202.643 20.5249 203.958 21.3471 204.671C21.8953 205.164 22.4982 205.712 23.1012 206.37C29.6791 213.058 30.008 218.484 33.1326 222.705C38.4497 229.941 49.4129 230.215 58.8413 230.489C58.9509 230.489 59.0605 230.489 59.1153 230.489C65.0355 230.654 76.7113 230.982 84.6596 223.856C85.7011 222.924 91.2923 217.717 92.4983 211.358C92.6627 210.481 92.9368 208.617 94.088 206.425C94.6909 205.219 95.4584 204.177 96.171 203.3C97.1577 202.149 96.3354 200.395 94.8554 200.34C94.1428 200.285 93.3754 200.34 92.4983 200.395C91.9501 200.45 91.4568 200.505 90.9634 200.614Z" fill="#FF7352"/>
<path d="M57.7455 226.759C48.5912 225.443 35.9287 214.918 36.9154 205.545C37.3539 201.379 40.2592 199.406 39.3821 194.417C38.9984 192.334 39.4918 190.69 39.1081 188.716C38.7243 186.579 41.4103 185.263 42.8904 186.907C44.5348 188.771 46.2341 191.073 47.6045 193.924C49.0846 196.994 49.9068 199.954 50.2905 202.53C50.6194 204.777 53.7439 205.052 54.4565 202.914C55.224 200.611 55.498 198.583 55.5529 196.994C55.7173 191.731 53.7439 189.703 52.9217 181.371C52.538 177.863 52.0995 173.752 52.9217 169.64C53.9084 164.871 56.2655 160.925 59.0063 157.855C60.5411 156.101 63.3367 157.581 62.7338 159.828C61.4182 164.817 60.8152 171.504 63.6108 178.301C64.6523 180.933 66.0775 183.125 67.4479 184.879C68.6539 186.414 71.1206 185.647 71.2851 183.728C71.3947 182.796 71.4495 181.81 71.3947 180.768C71.3399 178.959 71.1206 177.315 70.7917 175.889C70.3532 174.026 72.3266 172.491 73.971 173.478C74.8481 174.026 75.78 174.684 76.7118 175.451C86.5787 183.838 85.0439 198.528 84.7698 201.269C84.3313 205.6 83.0705 217.44 73.2036 223.579C67.9961 226.814 62.2404 226.923 61.1989 226.923C61.1989 226.978 59.39 226.978 57.7455 226.759Z" fill="#FFC23B"/>
<path d="M42.7267 208.398C42.617 215.578 51.1135 226.925 62.1864 225.61C70.9021 224.568 76.4933 216.346 77.2608 209.329C77.3704 208.343 78.1378 201.217 73.8074 196.283C70.8473 192.885 69.3673 193.652 67.1198 190.418C66.0783 188.883 65.4205 187.293 65.0916 185.704C64.7079 183.895 62.2412 183.456 61.3093 185.101C60.7063 186.142 60.2678 187.129 60.0485 187.951C57.9107 194.584 61.4738 200.888 57.8559 203.903C57.3077 204.341 57.0337 204.615 56.5951 204.615C53.5254 204.834 52.8128 194.639 46.0705 191.021C45.6319 190.802 45.2482 190.637 44.8097 190.473C43.1652 189.87 41.5755 191.405 42.1237 193.049C43.0008 195.571 43.6586 198.695 43.4941 202.258C43.4393 205.547 42.7267 206.369 42.7267 208.398Z" fill="#FFF171"/>
<path d="M49.8454 232.023C49.8454 236.424 42.5923 239.422 35.0491 239.422C27.5058 239.422 22.5291 236.424 22.5291 232.023C22.5291 224.056 30.4963 225.194 38.4636 222.349C46.0068 222.349 49.8454 227.623 49.8454 232.023Z" fill="#269926"/>
<path d="M34.5273 235.543C35.3306 232.783 38.2192 231.197 40.979 232.001C43.7389 232.804 45.325 235.692 44.5217 238.452C43.7183 241.212 40.0366 241.05 37.2768 240.246C34.5169 239.443 33.7239 238.303 34.5273 235.543Z" fill="#257125"/>
<path d="M74.8816 230.316C74.8816 225.916 80.3215 222.918 85.9789 222.918C91.6363 222.918 95.3689 225.916 95.3689 230.316C95.3689 237.14 90.9852 237.285 85.9725 238.973C84.2566 239.552 82.4243 240.145 80.7164 239.544C76.8454 238.181 74.8816 233.951 74.8816 230.316Z" fill="#268226"/>
<path d="M42.7293 232.594C42.7293 228.194 48.1691 225.196 53.8265 225.196C59.484 225.196 63.2166 228.194 63.2166 232.594C63.2166 239.418 58.8329 239.562 53.8202 241.251C52.1043 241.829 50.2719 242.423 48.564 241.821C44.6931 240.459 42.7293 236.228 42.7293 232.594Z" fill="#268226"/>
<path d="M58.659 232.936C58.659 238.51 64.0988 242.307 69.7562 242.307C75.4136 242.307 79.1462 238.51 79.1462 232.936C79.1462 224.756 75.4076 222.534 70.6576 225.016C68.3157 226.24 65.665 226.711 63.0245 226.616C59.6277 226.494 58.659 228.738 58.659 232.936Z" fill="#269926"/>
<path d="M64.8307 238.795C64.8307 240.943 63.0895 242.684 60.9416 242.684C58.7937 242.684 57.0525 240.943 57.0525 238.795C57.0525 236.647 59.7279 235.995 61.8758 235.995C64.0237 235.995 64.8307 236.647 64.8307 238.795Z" fill="#257125"/>
<g opacity="0.5">
<path d="M176.568 240.284L157.135 237.859C156.129 237.733 155.114 237.704 154.102 237.771L132.475 239.203L100.981 238.431L94.2823 237.427" stroke="#116711" stroke-width="4.20054" stroke-linecap="round"/>
<path d="M149.385 234.995L152.703 236.757L159.002 236.912C158.623 235.222 156.534 234.75 151.925 234.217L149.385 234.995Z" fill="#006B6D"/>
</g>
<path d="M175.739 238.026L156.306 235.601C155.301 235.475 154.285 235.446 153.274 235.513L131.647 236.945L100.152 236.173L93.4542 235.169" stroke="#30AB30" stroke-width="4.20054" stroke-linecap="round"/>
<path d="M148.557 232.738L151.875 234.5L158.174 234.654C157.795 232.964 155.706 232.493 151.097 231.959L148.557 232.738Z" fill="#30AB30"/>
<g opacity="0.5">
<path d="M81.5018 242.053L101.018 240.423C102.028 240.339 103.043 240.351 104.051 240.459L125.602 242.773" stroke="#006D00" stroke-width="4.20054" stroke-linecap="round"/>
<path d="M108.879 237.879L105.492 239.504L99.1919 239.401C99.6393 237.728 101.746 237.342 106.373 236.997L108.879 237.879Z" fill="#006B6D"/>
</g>
<path d="M80.6734 239.794L100.189 238.164C101.199 238.08 102.215 238.092 103.223 238.2L124.773 240.514" stroke="#3FBE3F" stroke-width="4.20054" stroke-linecap="round"/>
<path d="M108.047 235.62L104.659 237.245L98.3593 237.142C98.8068 235.469 100.914 235.083 105.54 234.739L108.047 235.62Z" fill="#3FBE3F"/>
<path d="M51.3358 51.2942C51.3505 50.8511 50.1578 50.4683 49.7755 50.3848L49.7755 50.3806C49.1904 50.301 48.7196 49.778 48.5825 49.0864C48.5461 48.6273 48.2127 47.2554 47.7872 47.2414C47.3559 47.2238 46.9881 48.6024 46.9547 49.0762C46.7934 49.6908 46.3641 50.1481 45.8556 50.2575C45.4193 50.2484 44.1521 50.6435 44.1361 51.1292C44.1218 51.559 45.2946 51.932 45.6598 52.0304L45.66 52.0405C46.264 52.1227 46.7463 52.6774 46.8652 53.4024L46.8675 53.4023C46.8936 53.8544 47.2358 55.2241 47.6518 55.2411C48.0712 55.2581 48.4305 53.9006 48.4807 53.4453L48.4821 53.4452C48.6238 52.7771 49.0777 52.2748 49.6185 52.1661C50.0529 52.1724 51.3198 51.7783 51.3358 51.2942Z" fill="#6ED86E"/>
<circle cx="66.1367" cy="17.2412" r="2" fill="#6ED86E"/>
<circle cx="109.031" cy="23.46" r="1" fill="#6ED86E"/>
<circle cx="70.5898" cy="60.9971" r="1" fill="#6ED86E"/>
<circle cx="79.9102" cy="41.1765" r="1" fill="#6ED86E"/>
<circle cx="154.215" cy="19.1754" r="1.93423" fill="#6ED86E"/>
<path d="M31.5349 20.7121C31.8498 20.0817 32.7456 20.0817 33.0606 20.7121L34.3011 23.1953C34.4213 23.436 34.6473 23.606 34.9111 23.6542L37.5971 24.1451C38.2594 24.2661 38.528 25.0738 38.071 25.5704L36.1217 27.6888C35.9486 27.8769 35.8683 28.133 35.9028 28.3869L36.2948 31.2658C36.3885 31.9539 35.6714 32.4625 35.0573 32.1435L32.6897 30.914C32.4438 30.7863 32.1516 30.7863 31.9058 30.914L29.5382 32.1435C28.924 32.4625 28.2069 31.9539 28.3006 31.2658L28.6926 28.3869C28.7272 28.133 28.6469 27.8769 28.4738 27.6888L26.5244 25.5704C26.0674 25.0738 26.336 24.2661 26.9984 24.1451L29.6843 23.6542C29.9482 23.606 30.1741 23.436 30.2944 23.1953L31.5349 20.7121Z" fill="#6ED86E"/>
<path d="M164.372 38.7602C164.587 38.329 165.2 38.329 165.416 38.7602L166.264 40.4588C166.346 40.6235 166.501 40.7397 166.682 40.7727L168.519 41.1085C168.972 41.1913 169.156 41.7438 168.843 42.0835L167.51 43.5325C167.391 43.6612 167.336 43.8364 167.36 44.01L167.628 45.9793C167.692 46.45 167.202 46.7979 166.781 46.5797L165.162 45.7387C164.994 45.6513 164.794 45.6513 164.626 45.7387L163.006 46.5797C162.586 46.7979 162.096 46.45 162.16 45.9793L162.428 44.01C162.451 43.8364 162.397 43.6612 162.278 43.5325L160.945 42.0835C160.632 41.7438 160.816 41.1913 161.269 41.1085L163.106 40.7727C163.287 40.7397 163.441 40.6235 163.524 40.4588L164.372 38.7602Z" fill="#6ED86E"/>
</svg>

