<svg width="66" height="66" viewBox="0 0 66 66" fill="none" xmlns="http://www.w3.org/2000/svg">
<g clip-path="url(#clip0)">
<circle cx="33" cy="33" r="31.5" fill="#6C3CCB" stroke="#CE9DFF" stroke-width="3"/>
<mask id="mask0" mask-type="alpha" maskUnits="userSpaceOnUse" x="3" y="3" width="60" height="60">
<circle cx="33" cy="33" r="30" fill="#9C4050"/>
</mask>
<g mask="url(#mask0)">
<path d="M44.595 24.6345L46.6149 24.8535L46.2316 28.3884C46.1711 28.9461 45.6699 29.3493 45.1121 29.2888C44.5543 29.2283 44.1512 28.7271 44.2117 28.1693L44.595 24.6345Z" fill="white"/>
<path d="M44.1005 40.6346C47.2751 40.6346 54.94 61.1978 46.6725 76.6385" stroke="#FFDF60" stroke-width="7.81836" stroke-miterlimit="10"/>
<path d="M16.4725 37.0913L44.6902 35.31C45.4852 35.2598 46.1837 35.9249 46.2428 36.7872L46.2948 37.5439C46.3539 38.4067 45.7518 39.1534 44.9573 39.2035L16.7396 40.9848C15.9446 41.035 15.2461 40.37 15.187 39.5076L15.135 38.751C15.0754 37.8886 15.6775 37.1415 16.4725 37.0913Z" fill="#F6B11B"/>
<path d="M46.6313 24.4755C46.5177 23.3031 45.4581 22.44 44.286 22.5508C43.9067 22.5866 43.6259 22.9223 43.6627 23.3017L43.9379 26.1438C43.9753 26.5292 44.3192 26.8132 44.7044 26.7768L44.7354 26.7739C45.8969 26.6642 46.7438 25.6375 46.6313 24.4755Z" fill="white"/>
<path d="M45.1943 22.9299C45.0961 21.9114 44.1846 21.1624 43.1671 21.2642C42.843 21.2966 42.6075 21.5836 42.6387 21.908L43.1783 27.5051C43.2105 27.839 43.5093 28.0845 43.8429 28.0512C44.8556 27.9499 45.5917 27.053 45.494 26.0393L45.1943 22.9299Z" fill="#FFB762"/>
<path d="M15.51 40.2392C14.4575 37.5582 16.0527 34.6156 18.8588 34.0616L42.1323 29.4665C45.1907 28.8626 48.0111 31.3949 47.737 34.4988L47.5209 36.9467C47.3429 38.9624 45.8712 40.6075 43.8869 41.0087L21.7444 45.4862C19.5156 45.9369 17.2616 44.701 16.4248 42.5695L15.51 40.2392Z" fill="#FABC43"/>
<path d="M14.6148 30.995L15.8861 29.4368L20.8219 41.103L20.168 53.3356L13.6142 38.8837C12.4241 36.2594 12.8114 33.2052 14.6148 30.995Z" fill="#FABC43"/>
<path d="M28.2141 5.00781C20.3383 5.52206 14.4949 12.5766 15.1614 20.7643L19.1094 69.2378C19.1638 69.907 19.7297 70.415 20.3734 70.373L46.563 68.663C47.2067 68.621 47.684 68.0445 47.6295 67.3753L43.6816 18.9018C43.0146 10.7141 36.0894 4.49358 28.2141 5.00781Z" fill="#B8DEE5"/>
<rect width="20.6648" height="11.5943" rx="5.79715" transform="matrix(0.99667 -0.0777244 0.0944022 0.995874 21.8733 20.3723)" fill="#36488B"/>
<path d="M35.0541 24.7385C35.0208 24.4208 35.2515 24.1406 35.5694 24.1127L37.7106 23.9242C38.0284 23.8962 38.313 24.131 38.3462 24.4487L38.5704 26.5918C38.6037 26.9094 38.373 27.1896 38.0551 27.2176L35.914 27.4061C35.5961 27.4341 35.3115 27.1993 35.2783 26.8816L35.0541 24.7385Z" fill="#6EDCFF"/>
<path d="M29.2252 25.2234C29.192 24.9057 29.4227 24.6255 29.7405 24.5975L31.8817 24.409C32.1995 24.381 32.4841 24.6159 32.5173 24.9335L32.7416 27.0766C32.7748 27.3943 32.5441 27.6745 32.2263 27.7025L30.0851 27.891C29.7673 27.9189 29.4827 27.6841 29.4494 27.3665L29.2252 25.2234Z" fill="#6EDCFF"/>
<path d="M38.012 5.3728L35.0358 7.47883" stroke="#BEDCE4" stroke-width="1.98002" stroke-miterlimit="10"/>
<path d="M38.4171 12.1494C35.7492 9.16 31.9573 7.59612 28.015 7.85845" stroke="#ECFBFF" stroke-width="1.48501" stroke-miterlimit="10" stroke-linecap="round"/>
<path d="M36.5425 32.5237L36.5773 32.858C36.7182 34.213 35.739 35.4267 34.4012 35.5551L33.1729 35.673C31.8352 35.8014 30.6253 34.7977 30.4844 33.4427L30.4496 33.1084" fill="white"/>
<path d="M36.5425 32.5237L36.5773 32.858C36.7182 34.213 35.739 35.4267 34.4012 35.5551L33.1729 35.673C31.8352 35.8014 30.6253 34.7977 30.4844 33.4427L30.4496 33.1084" stroke="#A2CED8" stroke-width="1.32705" stroke-miterlimit="10" stroke-linecap="round" stroke-linejoin="round"/>
<path d="M14.2947 7.0684L17.4072 9.50862" stroke="#B8DEE5" stroke-width="1.98002" stroke-miterlimit="10" stroke-linecap="round"/>
<path d="M14.0079 9.39967C12.4174 9.54192 10.9859 8.34104 10.8105 6.71742C10.6351 5.0938 11.7822 3.66228 13.3727 3.52002C14.9631 3.37777 16.3946 4.57866 16.5701 6.20227C16.7455 7.82589 15.5984 9.25742 14.0079 9.39967Z" fill="#B8DEE5"/>
<path d="M13.9016 8.15277C12.9896 8.23434 12.1688 7.54572 12.0682 6.6147C11.9676 5.68368 12.6254 4.86281 13.5374 4.78124C14.4494 4.69967 15.2703 5.38829 15.3709 6.31931C15.4714 7.25033 14.8137 8.07119 13.9016 8.15277Z" fill="#F65539"/>
<path d="M39.286 7.16224C37.6768 6.99201 36.5198 5.53999 36.7018 3.91907C36.8837 2.29814 38.3357 1.12212 39.9449 1.29235C41.5541 1.46259 42.7111 2.9146 42.5292 4.53553C42.3472 6.15645 40.8952 7.33247 39.286 7.16224Z" fill="#B8DEE5"/>
<path d="M39.4587 5.92478C38.5359 5.82716 37.8725 4.99454 37.9768 4.06507C38.0812 3.13559 38.9138 2.46123 39.8365 2.55885C40.7593 2.65646 41.4227 3.48909 41.3184 4.41856C41.2141 5.34804 40.3814 6.02239 39.4587 5.92478Z" fill="#F65539"/>
<path d="M48.1321 76.7005L38.2323 77.4537L36.7626 50.4949L45.6196 39.9211L48.1321 76.7005Z" fill="#FABC43"/>
<path d="M48.743 78.9249L32.4785 78.8248L31.6227 48.3652L40.037 44.0315L46.0322 37.4902L48.743 78.9249Z" fill="#F69F1C"/>
<path d="M35.3688 78.8144L16.7977 78.7017L13.8003 39.2291L23.1361 44.8014L32.7802 47.3621L35.3688 78.8144Z" fill="#F69F1C"/>
<path d="M17.5817 40.2313C6.98386 57.133 9.9059 68.9615 28.7228 59.2559" stroke="#FFDF60" stroke-width="7.81836" stroke-miterlimit="10"/>
<path d="M32.6851 47.7685C21.523 45.5427 16.1466 37.5611 15.7592 33.2204C15.7592 33.2204 14.9065 34.0826 14.1942 35.1214C13.5372 36.0796 12.9312 36.6807 13.2373 37.4259C18.3962 49.9861 33.1838 50.3018 33.1838 50.3018C33.1838 50.3018 46.8949 43.5014 47.7694 35.913C48.394 30.4926 45.3271 31.0325 44.8721 30.3545L45.1308 33.3688C46.1363 39.9302 37.4838 46.1858 32.6851 47.7685Z" fill="#FABC43"/>
<mask id="path-28-outside-1" maskUnits="userSpaceOnUse" x="21.2472" y="39.6327" width="24.0099" height="28.8234" fill="black">
<rect fill="white" x="21.2472" y="39.6327" width="24.0099" height="28.8234"/>
<path fill-rule="evenodd" clip-rule="evenodd" d="M32.609 43.4315C32.2174 42.3929 31.058 41.8684 30.0193 42.26C28.9807 42.6516 28.4561 43.8111 28.8478 44.8497C29.6844 47.0687 29.8957 48.4159 29.7376 49.5143C29.5951 50.5047 29.1158 51.543 27.9766 53.0213C27.5155 52.4729 26.7317 52.2692 26.0429 52.5725L24.6577 53.1824C23.8211 53.5508 23.4416 54.5276 23.81 55.3642L28.1459 65.2108C28.5142 66.0474 29.491 66.4269 30.3276 66.0585L31.7128 65.4486C32.4091 65.142 32.7888 64.4138 32.6841 63.6959C33.0149 63.8266 33.3958 63.8302 33.7471 63.6755L41.6621 60.1902C42.678 59.7429 43.1389 58.5567 42.6915 57.5408C42.2442 56.5249 41.058 56.064 40.0421 56.5114L31.284 60.3679L29.6472 56.6507L29.6515 56.6498L29.6678 56.6867L29.666 56.6874L31.286 60.3663L41.5553 55.8443C42.5712 55.397 43.0321 54.2108 42.5848 53.1949C42.1465 52.1994 40.9987 51.7369 39.9969 52.1395L41.0728 51.6658C42.0887 51.2184 42.5496 50.0322 42.1022 49.0163C41.6549 48.0004 40.4687 47.5395 39.4528 47.9869L33.6373 50.5477C33.6677 50.3956 33.6941 50.242 33.7164 50.0867C34.0198 47.9781 33.5248 45.8603 32.609 43.4315Z"/>
</mask>
<path fill-rule="evenodd" clip-rule="evenodd" d="M32.609 43.4315C32.2174 42.3929 31.058 41.8684 30.0193 42.26C28.9807 42.6516 28.4561 43.8111 28.8478 44.8497C29.6844 47.0687 29.8957 48.4159 29.7376 49.5143C29.5951 50.5047 29.1158 51.543 27.9766 53.0213C27.5155 52.4729 26.7317 52.2692 26.0429 52.5725L24.6577 53.1824C23.8211 53.5508 23.4416 54.5276 23.81 55.3642L28.1459 65.2108C28.5142 66.0474 29.491 66.4269 30.3276 66.0585L31.7128 65.4486C32.4091 65.142 32.7888 64.4138 32.6841 63.6959C33.0149 63.8266 33.3958 63.8302 33.7471 63.6755L41.6621 60.1902C42.678 59.7429 43.1389 58.5567 42.6915 57.5408C42.2442 56.5249 41.058 56.064 40.0421 56.5114L31.284 60.3679L29.6472 56.6507L29.6515 56.6498L29.6678 56.6867L29.666 56.6874L31.286 60.3663L41.5553 55.8443C42.5712 55.397 43.0321 54.2108 42.5848 53.1949C42.1465 52.1994 40.9987 51.7369 39.9969 52.1395L41.0728 51.6658C42.0887 51.2184 42.5496 50.0322 42.1022 49.0163C41.6549 48.0004 40.4687 47.5395 39.4528 47.9869L33.6373 50.5477C33.6677 50.3956 33.6941 50.242 33.7164 50.0867C34.0198 47.9781 33.5248 45.8603 32.609 43.4315Z" fill="#FFD27A"/>
<path d="M30.0193 42.26L30.6495 43.9314L30.6495 43.9314L30.0193 42.26ZM32.609 43.4315L34.2805 42.8013L34.2805 42.8013L32.609 43.4315ZM28.8478 44.8497L30.5192 44.2195L28.8478 44.8497ZM29.7376 49.5143L27.9696 49.2599L27.9696 49.2599L29.7376 49.5143ZM27.9766 53.0213L29.3915 54.1116L28.0372 55.869L26.6093 54.1708L27.9766 53.0213ZM26.0429 52.5725L25.323 50.9377L25.323 50.9377L26.0429 52.5725ZM24.6577 53.1824L25.3776 54.8172L25.3776 54.8173L24.6577 53.1824ZM23.81 55.3642L22.1752 56.0841L22.1752 56.0841L23.81 55.3642ZM28.1459 65.2108L29.7807 64.4909L28.1459 65.2108ZM30.3276 66.0585L29.6077 64.4237L29.6077 64.4237L30.3276 66.0585ZM31.7128 65.4486L30.9929 63.8138L30.9929 63.8138L31.7128 65.4486ZM32.6841 63.6959L30.9165 63.9536L30.4712 60.9001L33.3409 62.0347L32.6841 63.6959ZM33.7471 63.6755L34.467 65.3103L34.467 65.3103L33.7471 63.6755ZM41.6621 60.1902L40.9422 58.5554L40.9422 58.5554L41.6621 60.1902ZM42.6915 57.5408L44.3263 56.8209L44.3263 56.8209L42.6915 57.5408ZM40.0421 56.5114L40.762 58.1462L40.762 58.1462L40.0421 56.5114ZM31.284 60.3679L32.0039 62.0027L30.3691 62.7226L29.6492 61.0878L31.284 60.3679ZM29.6472 56.6507L28.0124 57.3706L27.1305 55.3679L29.2692 54.9049L29.6472 56.6507ZM29.6515 56.6498L29.2736 54.9039L30.6987 54.5954L31.2863 55.9299L29.6515 56.6498ZM29.6678 56.6867L31.3026 55.9668L32.0226 57.6018L30.3874 58.3216L29.6678 56.6867ZM29.666 56.6874L28.0312 57.4073L27.3112 55.7723L28.9464 55.0525L29.666 56.6874ZM31.286 60.3663L32.0059 62.0011L30.3711 62.721L29.6512 61.0862L31.286 60.3663ZM41.5553 55.8443L42.2752 57.4791L41.5553 55.8443ZM42.5848 53.1949L44.2196 52.475L44.2196 52.475L42.5848 53.1949ZM39.9969 52.1395L40.6631 53.7969L39.2771 50.5047L39.9969 52.1395ZM41.0728 51.6658L40.3529 50.031L40.3529 50.031L41.0728 51.6658ZM42.1022 49.0163L40.4674 49.7362L40.4674 49.7362L42.1022 49.0163ZM39.4528 47.9869L38.7329 46.3521L38.7329 46.3521L39.4528 47.9869ZM33.6373 50.5477L34.3571 52.1825L31.212 53.5674L31.8856 50.1976L33.6373 50.5477ZM33.7164 50.0867L35.4845 50.3411L35.4845 50.3411L33.7164 50.0867ZM29.3891 40.5886C31.3509 39.8489 33.5408 40.8396 34.2805 42.8013L30.9376 44.0617C30.8941 43.9462 30.7651 43.8878 30.6495 43.9314L29.3891 40.5886ZM27.1763 45.4799C26.4367 43.5182 27.4274 41.3282 29.3891 40.5886L30.6495 43.9314C30.534 43.975 30.4756 44.104 30.5192 44.2195L27.1763 45.4799ZM27.9696 49.2599C28.0629 48.611 27.9782 47.6066 27.1763 45.4799L30.5192 44.2195C31.3907 46.5309 31.7284 48.2209 31.5057 49.7687L27.9696 49.2599ZM26.5617 51.9309C27.6103 50.5701 27.889 49.8198 27.9696 49.2599L31.5057 49.7687C31.3013 51.1897 30.6212 52.5158 29.3915 54.1116L26.5617 51.9309ZM25.323 50.9377C26.7576 50.306 28.3859 50.7325 29.3438 51.8717L26.6093 54.1708C26.6299 54.1953 26.6545 54.2088 26.6781 54.2144C26.7051 54.2209 26.7373 54.2185 26.7628 54.2073L25.323 50.9377ZM23.9378 51.5477L25.323 50.9377L26.7628 54.2073L25.3776 54.8172L23.9378 51.5477ZM22.1752 56.0841C21.4092 54.3446 22.1984 52.3136 23.9378 51.5476L25.3776 54.8173C25.4439 54.7881 25.474 54.7106 25.4448 54.6443L22.1752 56.0841ZM26.5111 65.9307L22.1752 56.0841L25.4448 54.6443L29.7807 64.4909L26.5111 65.9307ZM31.0475 67.6933C29.308 68.4593 27.277 67.6701 26.5111 65.9307L29.7807 64.4909C29.7515 64.4246 29.674 64.3945 29.6077 64.4237L31.0475 67.6933ZM32.4327 67.0834L31.0475 67.6933L29.6077 64.4237L30.9929 63.8138L32.4327 67.0834ZM34.4517 63.4381C34.6693 64.93 33.8828 66.4448 32.4327 67.0834L30.9929 63.8138C30.9671 63.8252 30.9434 63.8477 30.9301 63.8722C30.9184 63.8936 30.9118 63.9214 30.9165 63.9536L34.4517 63.4381ZM34.467 65.3103C33.6612 65.6652 32.7839 65.6561 32.0273 65.357L33.3409 62.0347C33.2459 61.9972 33.1305 61.9953 33.0272 62.0407L34.467 65.3103ZM42.3819 61.825L34.467 65.3103L33.0272 62.0407L40.9422 58.5554L42.3819 61.825ZM44.3263 56.8209C45.1712 58.7397 44.3007 60.9801 42.3819 61.825L40.9422 58.5554C41.0552 58.5057 41.1065 58.3737 41.0567 58.2607L44.3263 56.8209ZM39.3222 54.8766C41.241 54.0316 43.4814 54.9022 44.3263 56.8209L41.0567 58.2607C41.0069 58.1477 40.875 58.0964 40.762 58.1462L39.3222 54.8766ZM30.5641 58.7331L39.3222 54.8766L40.762 58.1462L32.0039 62.0027L30.5641 58.7331ZM31.282 55.9309L32.9188 59.648L29.6492 61.0878L28.0124 57.3706L31.282 55.9309ZM30.0295 58.3956L30.0251 58.3966L29.2692 54.9049L29.2736 54.9039L30.0295 58.3956ZM28.033 57.4065L28.0167 57.3696L31.2863 55.9299L31.3026 55.9668L28.033 57.4065ZM28.9464 55.0525L28.9482 55.0518L30.3874 58.3216L30.3856 58.3224L28.9464 55.0525ZM29.6512 61.0862L28.0312 57.4073L31.3008 55.9676L32.9208 59.6465L29.6512 61.0862ZM42.2752 57.4791L32.0059 62.0011L30.5661 58.7315L40.8355 54.2095L42.2752 57.4791ZM44.2196 52.475C45.0645 54.3938 44.194 56.6342 42.2752 57.4791L40.8355 54.2095C40.9485 54.1597 40.9998 54.0278 40.95 53.9147L44.2196 52.475ZM39.3308 50.4821C41.224 49.7212 43.3916 50.5946 44.2196 52.475L40.95 53.9147C40.9014 53.8043 40.7735 53.7525 40.6631 53.7969L39.3308 50.4821ZM41.7926 53.3006L40.7168 53.7743L39.2771 50.5047L40.3529 50.031L41.7926 53.3006ZM43.737 48.2965C44.5819 50.2152 43.7114 52.4556 41.7926 53.3006L40.3529 50.031C40.4659 49.9812 40.5172 49.8492 40.4674 49.7362L43.737 48.2965ZM38.7329 46.3521C40.6517 45.5072 42.8921 46.3777 43.737 48.2965L40.4674 49.7362C40.4177 49.6232 40.2857 49.5719 40.1727 49.6217L38.7329 46.3521ZM32.9174 48.9129L38.7329 46.3521L40.1727 49.6217L34.3571 52.1825L32.9174 48.9129ZM35.4845 50.3411C35.4575 50.5286 35.4256 50.7141 35.3889 50.8978L31.8856 50.1976C31.9097 50.0771 31.9307 49.9554 31.9484 49.8323L35.4845 50.3411ZM34.2805 42.8013C35.2316 45.3239 35.8524 47.7839 35.4845 50.3411L31.9484 49.8323C32.1872 48.1723 31.818 46.3967 30.9376 44.0617L34.2805 42.8013Z" fill="white" mask="url(#path-28-outside-1)"/>
<path fill-rule="evenodd" clip-rule="evenodd" d="M32.6121 43.4305C32.2204 42.3918 31.061 41.8673 30.0223 42.2589C28.9837 42.6505 28.4592 43.81 28.8508 44.8486C29.6875 47.0676 29.8987 48.4148 29.7407 49.5132C29.5856 50.5912 29.0314 51.7258 27.6619 53.4227C26.9647 54.2865 27.0998 55.5519 27.9636 56.249C29.8444 57.767 30.843 60.5623 30.843 60.5623L32.131 63.4875C32.3143 63.9037 32.8004 64.0926 33.2167 63.9093L41.6644 60.1894C42.6803 59.7421 43.1412 58.5559 42.6938 57.54C42.3283 56.71 41.4696 56.2504 40.6135 56.3541L41.5134 55.9578C42.5729 55.4912 43.0537 54.254 42.5871 53.1945C42.204 52.3245 41.3015 51.8448 40.4043 51.9591L41.0726 51.6648C42.0885 51.2175 42.5494 50.0313 42.1021 49.0154C41.6547 47.9995 40.4686 47.5386 39.4527 47.9859L33.6405 50.5453C33.6708 50.3936 33.6972 50.2405 33.7194 50.0856C34.0228 47.9771 33.5278 45.8592 32.6121 43.4305Z" fill="#438CFA"/>
<path d="M23.8076 55.3549C23.441 54.5224 23.8187 53.5502 24.6513 53.1836L26.0509 52.5673C26.8835 52.2007 27.8557 52.5784 28.2223 53.411L32.5645 63.272C32.9311 64.1046 32.5534 65.0767 31.7208 65.4434L30.3212 66.0597C29.4886 66.4263 28.5165 66.0486 28.1499 65.216L23.8076 55.3549Z" fill="#3276DC"/>
<path opacity="0.8" d="M24.4723 54.9909C24.2772 54.548 24.4782 54.0309 24.9211 53.8358L26.2815 53.2368C26.7244 53.0418 27.2416 53.2427 27.4366 53.6856C27.6316 54.1285 27.4307 54.6457 26.9878 54.8407L25.6274 55.4398C25.1845 55.6348 24.6673 55.4339 24.4723 54.9909Z" fill="#438CFA"/>
<path d="M36.6532 51.0055L39.5204 49.7349" stroke="#5CB1FF" stroke-width="1.87241" stroke-linecap="round"/>
<path d="M30.668 43.6692C30.8619 43.6401 31.1673 43.6934 31.2788 43.7759" stroke="#5CB1FF" stroke-width="1.6718" stroke-linecap="round"/>
<path d="M44.483 19.5555C43.2131 8.25394 20.864 13.0793 14.3948 24.4266L13.7453 21.1788C12.136 13.1322 17.3495 5.30314 25.3943 3.68537L26.6112 3.44067C35.5858 1.63593 44.0441 8.29179 44.4005 17.4391L44.483 19.5555Z" fill="#438CFA"/>
<path d="M22.4495 12.1201L16.4182 21.5879C29.1166 11.3022 43.2118 12.0641 44.2277 18.7942L44.3546 20.826L47.8726 14.8152C50.5608 10.2221 47.2482 4.44507 41.9262 4.44507H36.4389C30.7707 4.44507 25.4949 7.33953 22.4495 12.1201Z" fill="#123770"/>
<path fill-rule="evenodd" clip-rule="evenodd" d="M36.397 5.2052C31.0161 5.2052 26.0078 7.95294 23.1168 12.4912L18.1319 20.3163L15.9117 22.094C15.5568 21.868 15.5509 21.5316 15.777 21.1768L21.8316 11.6725C25.0024 6.69504 30.4954 3.6814 36.397 3.6814H41.8096C47.7373 3.6814 51.3945 10.1528 48.3365 15.2309L44.433 21.7131L44.229 19.0981L47.0311 14.4448C49.4775 10.3824 46.5517 5.2052 41.8096 5.2052H36.397Z" fill="#0C4CAD"/>
<ellipse rx="2.23464" ry="3.82916" transform="matrix(0.99818 -0.0606347 0.082075 0.996722 15.7617 26.5695)" fill="#FFB762"/>
<path fill-rule="evenodd" clip-rule="evenodd" d="M15.3334 28.8076C15.5617 28.7786 15.7449 28.6142 15.8207 28.3976C16.0076 27.8637 16.0909 27.2138 16.0345 26.5193C15.9881 25.9473 15.8527 25.4165 15.6547 24.9643C15.5591 24.7459 15.3568 24.587 15.1191 24.5762C15.0499 24.5731 14.9798 24.5736 14.9092 24.578C13.8413 24.6443 13.0378 25.5658 13.1175 26.6328L13.1466 27.022C13.2258 28.0819 14.1472 28.8853 15.208 28.8195C15.2502 28.8169 15.2921 28.8129 15.3334 28.8076Z" fill="white"/>
<path d="M14.1323 28.1194L15.7723 26.92L17.8712 29.7899C18.2024 30.2427 18.1038 30.8783 17.651 31.2095C17.1981 31.5407 16.5625 31.4421 16.2313 30.9893L14.1323 28.1194Z" fill="white"/>
</g>
</g>
<defs>
<clipPath id="clip0">
<rect width="66" height="66" fill="white"/>
</clipPath>
</defs>
</svg>

