<svg width="78" height="78" viewBox="0 0 78 78" fill="none" xmlns="http://www.w3.org/2000/svg">
<circle cx="39" cy="39" r="39" fill="#8574EB"/>
<mask id="mask0_1267_8355" style="mask-type:alpha" maskUnits="userSpaceOnUse" x="0" y="0" width="78" height="78">
<circle cx="39" cy="39" r="37.2273" fill="#FD814B" stroke="#FFAC5F" stroke-width="3.54545"/>
</mask>
<g mask="url(#mask0_1267_8355)">
<path d="M13.4826 33.8651L13.0265 33.8812C11.8727 33.917 10.7373 34.1799 9.68519 34.6547C8.63304 35.1295 7.68476 35.807 6.89454 36.6485C6.10432 37.4899 5.48766 38.4788 5.07975 39.5586C4.67185 40.6385 4.4807 41.7881 4.51727 42.9419L4.54297 43.6706C4.57953 44.8246 4.84304 45.9601 5.31843 47.0122C5.79383 48.0644 6.47181 49.0126 7.31366 49.8027C8.15551 50.5929 9.14474 51.2095 10.2249 51.6173C11.305 52.0251 12.4549 52.2162 13.6089 52.1796L14.065 52.1635C14.6649 52.1424 15.2325 51.8864 15.6453 51.4505C16.0581 51.0147 16.2829 50.4341 16.2714 49.8339L15.8392 36.0915C15.832 35.7902 15.7652 35.4932 15.6427 35.2178C15.5201 34.9424 15.3442 34.6941 15.125 34.487C14.9059 34.28 14.6479 34.1185 14.366 34.0117C14.0841 33.905 13.7839 33.8551 13.4826 33.8651Z" fill="#323749"/>
<path d="M16.9889 29.8801L16.268 29.9055C15.7453 29.9218 15.2309 30.0409 14.7542 30.2561C14.2776 30.4713 13.848 30.7783 13.4901 31.1596C13.1322 31.5409 12.8529 31.989 12.6683 32.4783C12.4836 32.9676 12.3973 33.4885 12.4141 34.0112L12.981 52.0852C12.9973 52.6079 13.1164 53.1223 13.3316 53.5989C13.5468 54.0756 13.8538 54.5052 14.2351 54.8631C14.6164 55.221 15.0645 55.5003 15.5538 55.6849C16.0431 55.8695 16.564 55.9559 17.0867 55.9391L17.8076 55.9137C18.3303 55.8974 18.8447 55.7783 19.3213 55.5631C19.798 55.3479 20.2275 55.0409 20.5855 54.6596C20.9434 54.2783 21.2227 53.8302 21.4073 53.3409C21.5919 52.8516 21.6783 52.3307 21.6615 51.808L21.0904 33.7342C21.0742 33.2118 20.9552 32.6978 20.7403 32.2214C20.5253 31.745 20.2187 31.3156 19.8379 30.9577C19.457 30.5998 19.0094 30.3204 18.5205 30.1355C18.0317 29.9506 17.5113 29.8638 16.9889 29.8801Z" fill="#FFA857"/>
<path d="M19.2897 66.209C8.48581 89.4978 -16.0325 70.0027 -19.3157 60.4274" stroke="#8CC2CF" stroke-width="5.21739" stroke-miterlimit="10" stroke-linecap="round"/>
<path d="M-19.3215 60.4285C-15.671 70.611 -0.743523 78.9602 7.98552 77.0094" stroke="#A2CED8" stroke-width="5.21739" stroke-miterlimit="10" stroke-dasharray="6.52 3.91"/>
<path d="M58.5039 63.5487C89.0751 81.8481 96.3299 52.7603 85.5556 42.7166" stroke="#8CC2CF" stroke-width="5.21738" stroke-miterlimit="10"/>
<path d="M58.5077 63.551C89.0788 81.8504 96.3296 52.7616 85.5553 42.7178" stroke="#A2CED8" stroke-width="5.21738" stroke-miterlimit="10" stroke-dasharray="6.52 3.91"/>
<path d="M55.9897 62.1562C58.2526 65.0962 66.9054 69.2107 72.4688 70.1371" stroke="white" stroke-width="9.13161" stroke-miterlimit="10"/>
<path d="M86.7826 45.1215C87.3054 44.4388 87.6972 43.636 87.9548 42.7186C88.4906 40.802 88.2726 39.0416 87.3064 37.4865C86.4471 36.1031 85.1009 35.0535 83.8978 34.2094C83.7219 34.0851 83.5232 33.9967 83.3131 33.9493C83.1029 33.9019 82.8856 33.8965 82.6734 33.9333C82.4612 33.9701 82.2583 34.0485 82.0765 34.1638C81.8947 34.2792 81.7374 34.4294 81.6138 34.6057C81.4901 34.782 81.4025 34.981 81.3559 35.1913C81.3093 35.4015 81.3047 35.619 81.3424 35.831C81.38 36.0431 81.4591 36.2457 81.5752 36.4272C81.6913 36.6086 81.842 36.7654 82.0188 36.8885C82.9512 37.5426 83.9784 38.3304 84.5265 39.2128C85.0082 39.988 85.0935 40.7971 84.8028 41.8363C84.2656 43.758 82.97 44.5055 79.6687 44.7984C79.4547 44.8174 79.2465 44.8784 79.056 44.9778C78.8655 45.0773 78.6965 45.2133 78.5586 45.3781C78.4208 45.5429 78.3167 45.7333 78.2524 45.9384C78.1881 46.1434 78.1648 46.3591 78.1839 46.5732C78.2029 46.7873 78.264 46.9955 78.3635 47.186C78.463 47.3765 78.5991 47.5456 78.7639 47.6835C78.9287 47.8215 79.1191 47.9256 79.3242 47.99C79.5293 48.0543 79.745 48.0777 79.959 48.0587C81.4324 47.9268 83.1406 47.6884 84.6377 46.9061C85.5024 46.4542 86.2188 45.8576 86.7826 45.1215Z" fill="#8CC2CF"/>
<path d="M63.986 49.2891L64.4419 49.2675C65.5951 49.2178 66.7273 48.9414 67.7737 48.454C68.8201 47.9667 69.7602 47.2779 70.5403 46.427C71.3204 45.5762 71.9251 44.58 72.3201 43.4953C72.715 42.4107 72.8924 41.2588 72.842 40.1056L72.8076 39.3772C72.7572 38.2238 72.4801 37.0915 71.9922 36.0451C71.5042 34.9987 70.815 34.0587 69.9637 33.2787C69.1124 32.4987 68.1159 31.894 67.031 31.4991C65.946 31.1043 64.7939 30.927 63.6404 30.9774L63.1846 30.9989C62.5849 31.0272 62.0205 31.29 61.6129 31.7308C61.2054 32.1715 60.9875 32.7548 61.0062 33.3548L61.6029 47.091C61.6137 47.3922 61.6841 47.6884 61.8099 47.9623C61.9358 48.2362 62.1147 48.4824 62.3362 48.6868C62.5578 48.8912 62.8177 49.0496 63.1009 49.153C63.384 49.2564 63.6849 49.3026 63.986 49.2891Z" fill="#323749"/>
<path d="M60.527 53.3155L61.2476 53.2814C61.77 53.2589 62.283 53.1337 62.757 52.9128C63.2311 52.6919 63.6569 52.3798 64.0103 51.9942C64.3636 51.6087 64.6375 51.1572 64.8162 50.6658C64.995 50.1743 65.0751 49.6524 65.0521 49.1299L64.2687 31.064C64.2462 30.5416 64.121 30.0286 63.9001 29.5546C63.6792 29.0805 63.3671 28.6547 62.9815 28.3013C62.596 27.948 62.1445 27.6741 61.6531 27.4954C61.1616 27.3166 60.6397 27.2365 60.1172 27.2595L59.3967 27.2936C58.8742 27.3161 58.3613 27.4414 57.8873 27.6622C57.4132 27.8831 56.9874 28.1952 56.634 28.5808C56.2807 28.9664 56.0068 29.4178 55.8281 29.9093C55.6493 30.4007 55.5691 30.9226 55.5922 31.4451L56.3797 49.5108C56.4022 50.0329 56.5273 50.5455 56.7479 51.0193C56.9685 51.4931 57.2802 51.9188 57.6654 52.2721C58.0505 52.6254 58.5014 52.8994 58.9924 53.0784C59.4834 53.2574 60.0049 53.338 60.527 53.3155Z" fill="#FFA857"/>
<path d="M20.064 63.5238C18.5865 68.2801 10.707 74.9966 7.1897 77.0192" stroke="white" stroke-width="9.13161" stroke-miterlimit="10"/>
<path d="M37.9218 14.5426C48.6228 14.0781 57.6829 22.4707 58.1467 33.2909L60.9324 97.341C60.9436 97.5499 60.9133 97.759 60.8433 97.9562C60.7733 98.1534 60.6651 98.3349 60.5247 98.4901C60.3844 98.6453 60.2147 98.7712 60.0255 98.8606C59.8363 98.95 59.6313 99.0011 59.4223 99.0109L23.8419 100.558C23.6327 100.566 23.4238 100.533 23.2273 100.461C23.0309 100.389 22.8507 100.278 22.6971 100.136C22.5436 99.9932 22.4197 99.8219 22.3327 99.6314C22.2456 99.441 22.1971 99.2352 22.19 99.0259L19.4042 34.9758C18.931 24.1561 27.2209 15.0086 37.9218 14.5426Z" fill="#B8DEE5"/>
<path d="M9.39092 36.1394L9.23578 27.8991C8.52989 11.7607 20.8949 -1.88346 36.8561 -2.5786C52.8173 -3.27137 66.3312 9.24679 67.0229 25.3858L67.3561 35.0991" stroke="#323749"/>
<path d="M45.0544 51.0557L45.0718 51.517C45.1422 53.3867 43.6912 54.9734 41.8474 55.0428L40.1545 55.1065C38.3107 55.176 36.7445 53.7029 36.6741 51.8332L36.6568 51.3718" fill="white"/>
<path d="M45.0544 51.0557L45.0718 51.517C45.1422 53.3867 43.6912 54.9734 41.8474 55.0428L40.1545 55.1065C38.3107 55.176 36.7445 53.7029 36.6741 51.8332L36.6568 51.3718" stroke="#8CC2CF" stroke-width="1.80881" stroke-miterlimit="10" stroke-linecap="round" stroke-linejoin="round"/>
<path d="M59.1073 58.3291L55.7412 61.0909C47.4767 67.8718 35.9018 68.897 26.5742 63.6742L22.3674 61.3187L24.501 77.8239L57.1887 76.2789L59.1073 58.3291Z" fill="white"/>
<path d="M24.6965 70.3923L27.8569 70.254C27.9364 70.2544 28.0151 70.2386 28.0883 70.2076C28.1615 70.1766 28.2276 70.131 28.2826 70.0736C28.3376 70.0162 28.3803 69.9483 28.4082 69.8738C28.4361 69.7994 28.4486 69.7201 28.4448 69.6407C28.4411 69.5613 28.4212 69.4835 28.3864 69.412C28.3516 69.3406 28.3027 69.2769 28.2425 69.225C28.1823 69.173 28.1122 69.1339 28.0364 69.1099C27.9607 69.0859 27.8808 69.0776 27.8017 69.0855L24.6462 69.2267C24.4968 69.2416 24.3589 69.3132 24.2609 69.4268C24.1628 69.5404 24.1121 69.6873 24.1192 69.8372C24.1263 69.9871 24.1906 70.1285 24.2989 70.2324C24.4073 70.3362 24.5513 70.3945 24.7014 70.3952L24.6965 70.3923Z" fill="#A2CED8"/>
<path d="M24.9125 75.2809L28.0713 75.1427C28.2206 75.1279 28.3585 75.0562 28.4566 74.9426C28.5547 74.829 28.6054 74.6821 28.5983 74.5323C28.5912 74.3824 28.5269 74.2409 28.4185 74.1371C28.3102 74.0332 28.1661 73.9749 28.0161 73.9742L24.8556 74.1125C24.7063 74.1273 24.5684 74.199 24.4703 74.3126C24.3723 74.4261 24.3216 74.573 24.3286 74.7229C24.3357 74.8728 24.4001 75.0143 24.5084 75.1181C24.6167 75.222 24.7608 75.2803 24.9109 75.281L24.9125 75.2809Z" fill="#A2CED8"/>
<path d="M24.8046 72.8356L27.9652 72.699C28.1145 72.6841 28.2524 72.6125 28.3505 72.4989C28.4485 72.3853 28.4992 72.2384 28.4921 72.0885C28.4851 71.9386 28.4207 71.7972 28.3124 71.6933C28.204 71.5895 28.06 71.5312 27.9099 71.5305L24.7495 71.6687C24.5947 71.676 24.4492 71.7445 24.345 71.8591C24.2407 71.9737 24.1863 72.125 24.1936 72.2798C24.2009 72.4345 24.2694 72.58 24.384 72.6843C24.4986 72.7885 24.6499 72.843 24.8046 72.8356Z" fill="#A2CED8"/>
<path d="M52.5898 15.785L48.9743 19.5424" stroke="#B8DEE5" stroke-width="2.60949" stroke-miterlimit="10"/>
<path d="M22.2605 16.9678L25.9989 20.047" stroke="#B8DEE5" stroke-width="2.60949" stroke-miterlimit="10"/>
<path d="M33.8327 48.9071L46.5825 48.3537C47.49 48.3144 48.3808 48.0966 49.2042 47.713C50.0275 47.3293 50.7672 46.7872 51.381 46.1176C51.9948 45.448 52.4706 44.6641 52.7814 43.8106C53.0922 42.9571 53.2318 42.0507 53.1922 41.1432L53.1652 40.5709C53.1256 39.6635 52.9078 38.7729 52.524 37.9497C52.1402 37.1266 51.5981 36.3871 50.9286 35.7735C50.259 35.1598 49.4752 34.6841 48.6218 34.3734C47.7684 34.0627 46.8621 33.9232 45.9548 33.9627L33.2065 34.516C31.3739 34.5959 29.6481 35.4004 28.4086 36.7525C27.1691 38.1047 26.5174 39.8939 26.5968 41.7265L26.6239 42.2989C26.7037 44.131 27.508 45.8565 28.8599 47.0957C30.2118 48.335 32.0005 48.9865 33.8327 48.9071Z" fill="#36488B"/>
<path d="M47.7316 41.8838C47.3782 41.0229 46.478 40.4261 45.4426 40.4582C44.4072 40.4903 43.5457 41.1416 43.2462 42.0228" stroke="#56D8E3" stroke-width="1.96891" stroke-linecap="round"/>
<path d="M37.8327 42.5918C37.4793 41.7309 36.5791 41.1341 35.5437 41.1662C34.5083 41.1983 33.6468 41.8497 33.3473 42.7308" stroke="#56D8E3" stroke-width="1.96891" stroke-linecap="round"/>
<path d="M51.1853 24.0251C49.5058 22.0751 47.4012 20.5363 45.0337 19.5273C42.6661 18.5182 40.0987 18.0658 37.5288 18.2047" stroke="#ECFBFF" stroke-width="1.95711" stroke-miterlimit="10" stroke-linecap="round"/>
<path d="M54.018 28.8501C53.6953 28.0654 53.3158 27.3053 52.8824 26.5758" stroke="#ECFBFF" stroke-width="1.95711" stroke-miterlimit="10" stroke-linecap="round"/>
<path d="M55.0019 17.1179C55.767 17.0818 56.5042 16.8196 57.1202 16.3645C57.7363 15.9094 58.2036 15.2818 58.4631 14.5612C58.7225 13.8405 58.7625 13.0591 58.5779 12.3158C58.3932 11.5724 57.9924 10.9005 57.4259 10.385C56.8594 9.86943 56.1529 9.53343 55.3954 9.41944C54.638 9.30545 53.8639 9.4186 53.1708 9.74458C52.4776 10.0706 51.8968 10.5947 51.5015 11.2508C51.1063 11.9069 50.9145 12.6654 50.9504 13.4305C50.9989 14.4567 51.4529 15.4216 52.2127 16.1131C52.9724 16.8046 53.9757 17.166 55.0019 17.1179Z" fill="#B8DEE5"/>
<path d="M54.8924 15.481C55.3314 15.4602 55.7544 15.3098 56.108 15.0486C56.4615 14.7875 56.7296 14.4273 56.8784 14.0138C57.0272 13.6003 57.0501 13.1519 56.9441 12.7253C56.8381 12.2988 56.608 11.9133 56.2829 11.6175C55.9578 11.3218 55.5523 11.1291 55.1177 11.0638C54.683 10.9985 54.2388 11.0635 53.8411 11.2507C53.4435 11.4379 53.1103 11.7388 52.8836 12.1153C52.657 12.4919 52.5471 12.9272 52.5678 13.3662C52.5956 13.9549 52.8562 14.5084 53.2921 14.905C53.7281 15.3016 54.3037 15.5088 54.8924 15.481Z" fill="#F65539"/>
<path d="M20.3092 18.7576C21.0743 18.7218 21.8117 18.4598 22.428 18.0049C23.0443 17.55 23.5118 16.9226 23.7715 16.2019C24.0312 15.4813 24.0714 14.6999 23.8869 13.9564C23.7025 13.2129 23.3017 12.5409 22.7353 12.0252C22.1689 11.5095 21.4623 11.1733 20.7049 11.0592C19.9474 10.9451 19.1731 11.0581 18.4799 11.3841C17.7868 11.71 17.2058 12.2342 16.8105 12.8903C16.4152 13.5464 16.2233 14.305 16.2592 15.0702C16.3077 16.0961 16.7615 17.0608 17.5209 17.7522C18.2804 18.4436 19.2832 18.8053 20.3092 18.7576Z" fill="#B8DEE5"/>
<path d="M20.1952 17.1216C20.6342 17.1009 21.0572 16.9504 21.4107 16.6892C21.7642 16.4281 22.0323 16.068 22.1811 15.6544C22.33 15.2409 22.3528 14.7925 22.2468 14.366C22.1408 13.9394 21.9107 13.5539 21.5856 13.2582C21.2605 12.9624 20.855 12.7697 20.4204 12.7044C19.9858 12.6391 19.5415 12.7041 19.1439 12.8913C18.7462 13.0785 18.413 13.3794 18.1863 13.7559C17.9597 14.1325 17.8498 14.5678 17.8705 15.0068C17.8984 15.5955 18.1589 16.1491 18.5949 16.5457C19.0308 16.9423 19.6065 17.1494 20.1952 17.1216Z" fill="#F65539"/>
<path d="M20.0299 109.373C34.9534 115.661 47.0814 116.617 62.7995 113.974C64.2964 68.1811 59.8496 58.9822 59.8496 58.9822L41.1545 81.0133L25.597 65.4333L18.4705 59.1041L14.6773 62.7178C18.5655 64.3804 21.051 68.2412 20.9549 72.4688L20.9002 74.878C20.9002 74.878 19.4765 100.992 20.0299 109.373Z" fill="#FF469F"/>
<path d="M-9.85928 61.7502C-13.2558 60.9054 -14.3432 63.2114 -15.9208 63.334L-19.1928 66.1261C-27.069 70.8659 -13.1142 83.6109 -2.55498 86.2371C8.00449 88.8634 14.2602 85.6098 18.2996 83.1795C17.7422 90.2542 17.2831 105.082 19.9058 107.795C23.1841 111.187 49.7504 118.309 60.7822 115.385C69.6077 113.046 67.1784 89.669 64.8605 78.2726C71.7759 80.8514 82.7712 82.7273 90.2025 75.8167C100.256 66.4674 99.5048 46.7019 91.8671 48.4085L86.8968 49.7482C86.1291 50.0725 84.9579 50.9145 83.9905 53.147C82.7812 55.9376 84.0029 63.4549 77.2123 63.8269C70.4218 64.1989 65.4329 54.3474 58.7691 55.1179C54.5252 55.6086 54.8998 64.4602 43.1389 66.1723C33.7301 67.542 23.8105 61.022 20.4517 57.9539C18.3525 56.0363 14.873 57.5968 12.6933 60.1461C9.17852 64.2566 6.15659 69.8551 1.66896 69.2542C-4.31317 68.4531 -5.93813 62.7254 -9.85928 61.7502Z" fill="#FD4B81"/>
<circle cx="35.3842" cy="70.4265" r="2" transform="rotate(13.967 35.3842 70.4265)" fill="#E2E0E9"/>
<circle cx="46.7828" cy="70.1707" r="2" transform="rotate(13.967 46.7828 70.1707)" fill="#E2E0E9"/>
<path d="M32.6411 83.1322C33.5808 83.0505 34.9534 81.8285 34.1394 80.226C32.6177 77.23 33.1446 76.3951 34.8448 75.4365C36.5449 74.4779 37.4658 72.6142 35.5414 70.4726" stroke="white" stroke-width="2" stroke-linecap="round"/>
<path d="M43.9631 79.6662C42.9992 76.4471 43.6663 75.7194 45.51 75.0788C47.3536 74.4383 48.5917 72.7683 47.0794 70.3183" stroke="white" stroke-width="2" stroke-linecap="round"/>
</g>
<circle cx="39" cy="39" r="37.2273" stroke="#A89BF6" stroke-width="3.54545"/>
</svg>

