<svg width="192" height="256" viewBox="0 0 192 256" fill="none" xmlns="http://www.w3.org/2000/svg">
<g clip-path="url(#clip0)">
<g opacity="0.7">
<circle cx="146.826" cy="122.826" r="9.82615" fill="#9B8BFE"/>
<circle cx="164.826" cy="117.826" r="9.82615" fill="#9B8BFE"/>
<ellipse cx="153.256" cy="108.846" rx="10.2564" ry="9.84615" fill="#9B8BFE"/>
<circle cx="138" cy="113" r="8" fill="#9B8BFE"/>
</g>
<g opacity="0.8">
<ellipse cx="54.1794" cy="111.595" rx="11.2358" ry="11.6103" transform="rotate(-162.507 54.1794 111.595)" fill="#9B8BFE"/>
<circle cx="49.4043" cy="98.0887" r="9.36313" transform="rotate(-162.507 49.4043 98.0887)" fill="#9B8BFE"/>
<circle cx="20.8223" cy="100.631" r="11.3126" transform="rotate(-162.507 20.8223 100.631)" fill="#9B8BFE"/>
<circle cx="33.3818" cy="92.3458" r="10.5827" transform="rotate(-162.507 33.3818 92.3458)" fill="#9B8BFE"/>
<circle cx="36.122" cy="111.574" r="14.232" transform="rotate(-162.507 36.122 111.574)" fill="#9B8BFE"/>
</g>
<g opacity="0.9">
<ellipse cx="121.214" cy="36.4123" rx="11.6788" ry="12.0681" fill="#9B8BFE"/>
<circle cx="130.168" cy="48.3124" r="9.7323" fill="#9B8BFE"/>
<circle cx="157.708" cy="36.8614" r="11.7586" fill="#9B8BFE"/>
<circle cx="147.847" cy="49" r="11" fill="#9B8BFE"/>
<circle cx="139.123" cy="30.7931" r="14.7931" fill="#9B8BFE"/>
</g>
<rect x="79" y="65" width="81" height="104" fill="#765AE8"/>
<rect x="99" y="65" width="81" height="104" rx="2" fill="#8065EB"/>
<rect x="149" y="65" width="31" height="113" rx="2.14545" fill="#9276FF"/>
<path d="M28 114C28 112.895 28.8954 112 30 112H81C82.1046 112 83 112.895 83 114V169H28V114Z" fill="#6550E3"/>
<path d="M8 114C8 112.895 8.89543 112 10 112H61C62.1046 112 63 112.895 63 114V169H8V114Z" fill="#8065EB"/>
<g opacity="0.7">
<rect opacity="0.6" x="93.0713" y="182.346" width="6.43636" height="9.65455" rx="1.07273" fill="#6754D9"/>
<rect opacity="0.6" x="93.0713" y="169.473" width="6.43636" height="9.65455" rx="1.07273" fill="#6754D9"/>
<rect opacity="0.6" x="103.799" y="142.655" width="7.50909" height="9.65455" rx="1.07273" fill="#6754D9"/>
<rect opacity="0.6" x="103.799" y="182.346" width="7.50909" height="9.65455" rx="1.07273" fill="#6754D9"/>
<rect opacity="0.6" x="103.799" y="156.6" width="7.50909" height="8.58182" rx="1.07273" fill="#6754D9"/>
<rect opacity="0.6" x="103.799" y="169.473" width="7.50909" height="9.65455" rx="1.07273" fill="#6754D9"/>
<rect opacity="0.6" x="115.599" y="182.346" width="6.43636" height="9.65455" rx="1.07273" fill="#6754D9"/>
<rect opacity="0.6" x="126.326" y="142.655" width="6.43636" height="9.65455" rx="1.07273" fill="#6754D9"/>
<rect opacity="0.6" x="126.326" y="182.346" width="6.43636" height="9.65455" rx="1.07273" fill="#6754D9"/>
<rect opacity="0.6" x="137.053" y="142.655" width="6.43636" height="9.65455" rx="1.07273" fill="#6754D9"/>
<rect opacity="0.6" x="137.053" y="182.346" width="6.43636" height="9.65455" rx="1.07273" fill="#6754D9"/>
<rect opacity="0.6" x="115.599" y="156.6" width="6.43636" height="8.58182" rx="1.07273" fill="#6754D9"/>
<rect opacity="0.6" x="126.326" y="156.6" width="6.43636" height="8.58182" rx="1.07273" fill="#6754D9"/>
<rect opacity="0.6" x="137.053" y="156.6" width="6.43636" height="8.58182" rx="1.07273" fill="#6754D9"/>
<rect opacity="0.6" x="115.599" y="169.473" width="6.43636" height="9.65455" rx="1.07273" fill="#6754D9"/>
<rect opacity="0.6" x="126.326" y="169.473" width="6.43636" height="9.65455" rx="1.07273" fill="#6754D9"/>
<rect opacity="0.6" x="137.053" y="169.473" width="6.43636" height="9.65455" rx="1.07273" fill="#6754D9"/>
</g>
<rect x="27" y="24" width="7" height="145" fill="#6754D9"/>
<rect x="159" y="24" width="7" height="145" fill="#6754D9"/>
<rect x="49" y="23" width="5" height="39" transform="rotate(90 49 23)" fill="#6754D9"/>
<rect x="181" y="23" width="5" height="39" transform="rotate(90 181 23)" fill="#6754D9"/>
<path d="M9 229V169H42.4385L69.7038 195.844L72 229H9Z" fill="#9B8BFE"/>
<rect opacity="0.5" x="53" y="216" width="15" height="12" rx="2" fill="#B0A4FF"/>
<rect opacity="0.5" x="44" y="202" width="15" height="12" rx="2" fill="#B0A4FF"/>
<path d="M182 229V169H150.602L125 195.844L126.72 229H182Z" fill="#8B7AF5"/>
<rect opacity="0.3" x="165" y="174" width="15" height="12" rx="2" fill="#B0A4FF"/>
<rect opacity="0.3" x="165" y="202" width="15" height="12" rx="2" fill="#B0A4FF"/>
<rect opacity="0.3" x="176" y="188" width="6" height="12" rx="2" fill="#B0A4FF"/>
<rect opacity="0.5" x="132" y="174" width="14" height="12" rx="2" fill="#B0A4FF"/>
<rect opacity="0.5" x="143" y="188" width="14" height="12" rx="2" fill="#B0A4FF"/>
<rect opacity="0.3" x="148" y="174" width="15" height="12" rx="2" fill="#B0A4FF"/>
<rect opacity="0.3" x="159" y="188" width="15" height="12" rx="2" fill="#B0A4FF"/>
<rect x="7" y="169" width="177" height="3" rx="1.5" fill="#8B7AF5"/>
<rect x="42.3967" y="184" width="118.094" height="3" rx="1.5" fill="#8B7AF5"/>
<rect x="50.8994" y="199" width="118.094" height="3" rx="1.5" fill="#8B7AF5"/>
<rect x="59.4023" y="214" width="118.094" height="3" rx="1.5" fill="#8B7AF5"/>
<rect x="41.4519" y="169" width="118.094" height="3" rx="1.5" fill="#9B8BFE"/>
<rect x="50.8994" y="184" width="118.094" height="3" rx="1.5" fill="#9B8BFE"/>
<rect x="59.4023" y="199" width="118.094" height="3" rx="1.5" fill="#9B8BFE"/>
<rect x="67.905" y="214" width="118.094" height="3" rx="1.5" fill="#9B8BFE"/>
<rect x="52.7891" y="187" width="114.315" height="12" fill="#7A5FE5"/>
<path fill-rule="evenodd" clip-rule="evenodd" d="M95.1639 189.927C95.3938 188.952 95.6118 188.028 95.7581 187.001H102.687L102.67 187.086C102.488 188.33 102.208 189.523 101.961 190.576L101.961 190.577L101.96 190.579C102.618 190.641 103.246 190.845 103.737 191.18L106.297 190.394C109.52 189.404 113.205 190.083 115.32 191.893C115.724 191.844 116.137 191.936 116.426 192.132C121.663 190.357 126.888 188.59 131.5 187.032C131.482 187.021 131.463 187.011 131.444 187.001H167.315V191.016C165.179 191.659 162.737 191.248 161.266 190.086L161.184 190.113C161.592 191.618 160.571 193.184 158.552 193.953L158.556 193.959L155.071 195.128L155.071 195.128L155.071 195.128C152.458 196.004 149.317 195.258 148.053 193.461C146.79 191.664 147.884 189.497 150.496 188.621C150.516 188.614 150.537 188.607 150.557 188.601L153.589 187.584C153.023 187.214 152.196 187.08 151.448 187.277L151.083 187.374L116.311 199.001H93.5377C93.5957 198.733 93.832 198.489 94.1986 198.355C92.9967 196.163 93.7193 194.258 93.7193 194.258L94.4135 194.045C94.4756 193.246 94.6048 192.477 94.7579 191.732C94.8893 191.092 95.0286 190.501 95.1638 189.928L95.1639 189.927Z" fill="#6754D9"/>
<rect x="43.9961" y="172" width="114.315" height="12" fill="#7A5FE5"/>
<path fill-rule="evenodd" clip-rule="evenodd" d="M51.5771 172.022C51.5386 172.016 51.5011 172.009 51.4648 172H103.42C105.399 173.976 106.434 176.526 105.951 179.293L105.129 184H98.448L99.3831 178.645C99.6602 177.058 98.9428 175.613 97.6613 174.577C96.6377 174.779 95.5327 175.016 94.3401 175.285C93.3146 175.516 92.201 175.776 91.038 176.048L91.0374 176.048L91.0349 176.048C88.9337 176.539 86.6713 177.068 84.4759 177.53L84.7919 179.472C78.9466 180.009 73.6472 180.877 69.4226 181.61C68.8118 181.728 68.2048 181.835 67.6057 181.928L67.3456 181.974C67.0933 182.018 66.8411 182.051 66.5899 182.072C66.1739 182.125 65.763 182.17 65.3587 182.206C62.8969 182.422 58.4961 182.496 55.1644 180.011C51.9462 177.61 51.7993 174.379 52.1269 172.105C51.9227 172.075 51.739 172.047 51.5771 172.022ZM142.571 172C143.611 172.743 144.715 173.61 145.748 174.772C145.818 174.831 145.889 174.891 145.959 174.951L146.031 175.011L146.15 175.113C147.357 174.585 148.888 174.732 149.881 175.451L152.426 174.569C154.32 173.913 156.387 173.89 158.205 174.384C158.242 174.368 158.278 174.351 158.315 174.335V184H139.847C139.919 183.731 140.145 183.489 140.485 183.35C140.216 182.836 140.037 182.336 139.922 181.868C139.768 181.835 139.617 181.788 139.472 181.725C137.414 180.832 135.899 180.583 134.945 180.612C134.179 180.635 133.851 180.822 133.706 180.967C133.696 180.978 133.687 180.99 133.677 181.002C133.533 181.171 133.375 181.589 133.776 182.297C134.062 182.801 134.613 183.398 135.519 184H130.527C130.426 183.861 130.334 183.721 130.249 183.581C129.773 182.794 129.535 181.948 129.621 181.132C128.734 181.284 128.002 181.342 127.621 181.363C127.436 181.374 127.254 181.339 127.105 181.257C126.612 180.986 125.488 180.25 125.18 179.025C125.118 178.78 125.266 178.563 125.514 178.421C124.917 178.212 124.38 177.89 123.965 177.462L123.749 177.239L123.749 177.239C122.026 175.459 120.346 173.724 118.708 172H131.996C132.204 172.222 132.415 172.445 132.628 172.669C133.361 173.44 133.563 174.386 133.275 175.241C133.629 175.137 134.037 175.174 134.317 175.391C135.074 175.974 136.074 176.916 135.867 177.696C137.247 177.792 138.76 178.143 140.367 178.747L140.514 178.696C139.629 177.54 138.572 176.8 137.306 175.914L137.306 175.914L137.306 175.913L137.306 175.913C136.543 175.379 135.705 174.792 134.782 174.029L135.104 173.783C134.108 173.122 133.141 172.53 132.198 172H142.571Z" fill="#6754D9"/>
<rect x="61.293" y="202" width="114.315" height="12" fill="#7A5FE5"/>
<path fill-rule="evenodd" clip-rule="evenodd" d="M76.7045 202.35C76.6422 202.233 76.5888 202.116 76.5439 201.999H113.394C113.536 204.004 112.522 205.97 110.676 206.93L110.677 206.932L110.558 206.99L110.551 206.993L110.545 206.996L107.532 208.459C107.501 208.475 107.471 208.49 107.44 208.505C105.259 209.564 102.708 208.985 101.19 207.25L101.105 207.292C101.514 209.47 100.492 211.738 98.473 212.852L98.4762 212.858L98.2261 212.979L96.1263 213.999H89.4908C88.8659 213.521 88.3405 212.893 87.9736 212.138C86.7103 209.537 87.8039 206.4 90.4161 205.131L90.4201 205.129L93.549 203.609C93.1501 203.234 92.5457 203.123 92.0238 203.377L91.513 203.468C87.3345 204.91 82.7723 204.94 78.5416 203.514C78.1274 203.374 77.7814 203.162 77.5033 202.901C77.5558 203.151 77.6758 203.395 77.8656 203.605C77.3306 203.263 76.9581 202.827 76.7045 202.35Z" fill="#6754D9"/>
<rect x="69.7944" y="217" width="114.315" height="12" fill="#7A5FE5"/>
<path d="M155 169V146" stroke="#6754D9" stroke-width="4"/>
<path d="M181.498 214V181.5L156.498 146.5H126.498V169" stroke="#6754D9" stroke-width="4" stroke-linejoin="round"/>
<path d="M181.5 181.5L155.5 147H126" stroke="#B0A4FF" stroke-width="6" stroke-linecap="round" stroke-linejoin="round"/>
<path d="M45 169V146" stroke="#6754D9" stroke-width="4"/>
<path d="M66.998 214V178.5L44.498 146.5H11.998V169" stroke="#6754D9" stroke-width="4" stroke-linejoin="round"/>
<path d="M67.5 179L44.5 147H10" stroke="#B0A4FF" stroke-width="6" stroke-linecap="round" stroke-linejoin="round"/>
<path d="M48 26C64.1667 30.6667 130 47 178 26" stroke="#6754D9" stroke-width="2"/>
<path d="M12 27C24.5 34.5 107.5 44.5 147 27" stroke="#6754D9" stroke-width="2"/>
<path d="M37 27C49.5 34.5 122.5 44.5 162 27" stroke="#6754D9" stroke-width="2"/>
<path d="M146.684 145.264C137.676 140.063 134.531 147.674 141.881 152.541" stroke="#8BD2E3" stroke-width="3.91484" stroke-linecap="round"/>
<path d="M141.887 152.543C138.087 150.027 137.092 146.778 138.262 144.944" stroke="#8BD2E3" stroke-width="3.91484" stroke-linecap="round"/>
<path fill-rule="evenodd" clip-rule="evenodd" d="M111.072 82.3336L102.804 91.5415C103.939 92.6973 103.528 96.0998 104.929 99.1122C112.144 116.531 120.489 127.943 130.199 141.287C131.499 143.074 134.001 143.474 135.79 142.178L137.981 140.591C139.792 139.279 140.162 136.729 138.862 134.91C119.428 107.718 123.555 95.8041 111.072 82.3336Z" fill="#FFDF60"/>
<path d="M131.413 143.368C131.311 142.831 131.775 142.397 132.319 142.34C135.601 141.996 137.98 139.842 139.08 138.628C139.471 138.196 140.144 138.114 140.55 138.531C141.383 139.385 142.511 140.818 141.999 141.905C140.183 145.766 135.108 146.384 133.854 146.478C133.669 146.492 133.487 146.447 133.338 146.337C132.845 145.977 131.721 144.997 131.413 143.368Z" fill="#FABC43"/>
<path d="M95.3673 128.996C118.525 127.678 130.188 114.178 155.082 146.676" stroke="#8CC2CF" stroke-width="6.62403" stroke-miterlimit="10"/>
<path d="M95.3491 129.058C118.503 127.689 130.163 114.145 155.107 146.615" stroke="#A2CED8" stroke-width="6.62403" stroke-miterlimit="10" stroke-dasharray="9.27 3.97"/>
<path d="M173.846 135.044L171.785 135.687C166.329 137.391 161.486 140.642 157.842 145.046C156.599 146.549 155.078 147.754 153.326 148.609C141.666 154.297 95.7499 176.728 94.2504 177.773C91.1542 179.931 102.966 176.741 99.7335 178.311L167.995 146.085C171.749 144.313 174.609 141.074 175.903 137.13C176.32 135.857 175.125 134.645 173.846 135.044Z" fill="#1F9276" stroke="#1F9276" stroke-width="3.32097" stroke-linecap="round" stroke-linejoin="round"/>
<path d="M151.838 146.634C150.043 138.817 146.655 137.479 143.585 134.1" stroke="white" stroke-width="7.07093" stroke-miterlimit="10"/>
<path d="M156.592 139.199C155.584 137.601 153.4 137.257 151.949 138.467C150.532 139.649 150.444 141.795 151.758 143.09L154.395 145.689C154.966 146.252 155.863 146.312 156.504 145.831L158.216 144.548C158.888 144.045 159.06 143.111 158.613 142.401L156.592 139.199Z" fill="#FF7759"/>
<path d="M152.507 141.785C151.952 141.146 151.042 140.95 150.273 141.305L146.158 143.202C146.158 143.202 145.079 147.56 148.089 151.576C149.999 150.696 157.321 147.32 157.321 147.32L152.507 141.785Z" fill="#EB3131"/>
<path d="M168.766 141.166C167.004 137.345 162.479 135.676 158.658 137.438L155.94 138.69C152.119 140.452 150.449 144.978 152.211 148.799L152.334 149.065C152.774 150.02 153.905 150.437 154.861 149.997L167.956 143.959C168.911 143.519 169.329 142.388 168.888 141.432L168.766 141.166Z" fill="#F5F5F5"/>
<rect width="25.2408" height="4.20679" rx="1.26976" transform="matrix(-0.908134 0.418679 0.418679 0.908134 168.562 139.049)" fill="#E2E0E9"/>
<path d="M112.355 173.34C117.055 171.425 122.82 169.523 126.798 167.599L101.233 179.99C96.8855 182.097 91.8842 182.413 87.3058 180.87C86.2722 180.521 86.291 179.053 87.3332 178.731L92.0374 177.278L95.0585 176.345C98.3783 175.32 101.834 174.803 105.309 174.812C107.73 174.818 110.113 174.254 112.355 173.34Z" fill="#1F9276" stroke="#1F9276" stroke-width="3.32097" stroke-linecap="round" stroke-linejoin="round"/>
<path fill-rule="evenodd" clip-rule="evenodd" d="M104.599 177.311C96.1416 176.11 89.382 178.831 86.4583 180.315C85.6116 180.744 85.4626 181.83 86.0992 182.534C85.5642 182.192 85.1917 181.757 84.9381 181.28C83.5899 178.743 86.4242 176.307 89.1496 175.399C94.1779 173.722 96.5029 173.066 103.606 174.266C103.917 174.698 104.599 177.311 104.599 177.311Z" fill="#60D3A3"/>
<rect x="98.6499" y="184.06" width="3.87446" height="10.4718" transform="rotate(-25.9035 98.6499 184.06)" fill="#3D3B75"/>
<ellipse cx="100.937" cy="188.77" rx="5.2582" ry="5.23592" transform="rotate(-25.9035 100.937 188.77)" fill="#3A3773"/>
<ellipse cx="104.173" cy="187.199" rx="5.2582" ry="5.23592" transform="rotate(-25.9035 104.173 187.199)" fill="#444181"/>
<ellipse cx="104.192" cy="187.188" rx="2.51479" ry="2.50414" transform="rotate(-25.9035 104.192 187.188)" fill="#3A3773"/>
<rect x="103.441" y="186.328" width="11.6234" height="2.48017" transform="rotate(-25.9035 103.441 186.328)" fill="#2E3656"/>
<path d="M114.29 181.937L102.643 187.846C102.566 187.478 102.555 187.099 102.611 186.728L102.806 185.427C102.879 184.937 102.803 184.437 102.586 183.991L102.073 182.935C101.745 182.26 100.932 181.978 100.257 182.306L99.1248 182.508L111.572 176.463C112.397 176.063 113.39 176.407 113.791 177.232L114.641 178.982L114.29 181.937Z" fill="#2E3656"/>
<path d="M105.168 186.715C105.5 187.399 105.212 188.225 104.525 188.558C103.838 188.892 103.011 188.608 102.678 187.924C102.346 187.239 102.634 186.413 103.321 186.08C104.009 185.746 104.835 186.03 105.168 186.715Z" fill="#2E3656"/>
<rect x="111.1" y="178.013" width="3.59771" height="10.4718" transform="rotate(-25.9035 111.1 178.013)" fill="#3D3B75"/>
<ellipse cx="113.387" cy="182.724" rx="5.2582" ry="5.23592" transform="rotate(-25.9035 113.387 182.724)" fill="#3D3B75"/>
<ellipse cx="116.498" cy="181.212" rx="5.11982" ry="5.23592" transform="rotate(-25.9035 116.498 181.212)" fill="#55529E"/>
<ellipse cx="116.536" cy="181.194" rx="2.51479" ry="2.50414" transform="rotate(-25.9035 116.536 181.194)" fill="#3D3B75"/>
<ellipse cx="116.123" cy="181.395" rx="1.14309" ry="1.13824" transform="rotate(-25.9035 116.123 181.395)" fill="#4E4C8B"/>
<path fill-rule="evenodd" clip-rule="evenodd" d="M93.452 175.658C95.5287 173.427 99.6727 173.754 102.657 174.047C106.987 174.471 109.979 174.034 113.893 172.133L170.562 144.7C175.132 142.524 177.722 136.756 176.404 134.041C176.636 134.122 176.982 134.687 177.325 135.515C178.885 139.287 177.414 143.614 174.27 146.216C173.464 146.883 172.602 147.463 171.68 147.911L115.011 175.344C110.668 177.453 108.555 177.962 103.579 177.474C98.6024 176.987 97.1095 176.841 97.1095 176.841C96.1927 176.863 91.4646 175.462 93.452 175.658Z" fill="#60D3A3"/>
<rect x="158.728" y="155.702" width="3.87446" height="10.4718" transform="rotate(-25.9035 158.728 155.702)" fill="#3D3B75"/>
<ellipse cx="161.015" cy="160.412" rx="5.2582" ry="5.23592" transform="rotate(-25.9035 161.015 160.412)" fill="#3A3773"/>
<ellipse cx="164.251" cy="158.84" rx="5.2582" ry="5.23592" transform="rotate(-25.9035 164.251 158.84)" fill="#444181"/>
<ellipse cx="164.271" cy="158.832" rx="2.51479" ry="2.50414" transform="rotate(-25.9035 164.271 158.832)" fill="#3A3773"/>
<rect x="163.521" y="157.969" width="11.6234" height="2.48017" transform="rotate(-25.9035 163.521 157.969)" fill="#2E3656"/>
<path d="M174.37 153.578L162.723 159.488C162.647 159.12 162.636 158.741 162.691 158.369L162.886 157.069C162.959 156.579 162.883 156.079 162.667 155.633L162.335 154.95C161.871 153.995 160.753 153.554 159.762 153.936L159.205 154.15L171.652 148.105C172.477 147.705 173.471 148.049 173.871 148.873L174.721 150.624L174.37 153.578Z" fill="#2E3656"/>
<path d="M165.249 158.356C165.581 159.041 165.293 159.866 164.606 160.2C163.918 160.534 163.092 160.25 162.759 159.565C162.427 158.881 162.715 158.055 163.402 157.721C164.089 157.387 164.916 157.672 165.249 158.356Z" fill="#2E3656"/>
<rect x="171.178" y="149.656" width="3.59771" height="10.4718" transform="rotate(-25.9035 171.178 149.656)" fill="#3D3B75"/>
<ellipse cx="173.463" cy="154.368" rx="5.2582" ry="5.23592" transform="rotate(-25.9035 173.463 154.368)" fill="#3D3B75"/>
<ellipse cx="176.573" cy="152.856" rx="5.11982" ry="5.23592" transform="rotate(-25.9035 176.573 152.856)" fill="#55529E"/>
<ellipse cx="176.612" cy="152.838" rx="2.51479" ry="2.50414" transform="rotate(-25.9035 176.612 152.838)" fill="#3D3B75"/>
<ellipse cx="176.199" cy="153.039" rx="1.14309" ry="1.13824" transform="rotate(-25.9035 176.199 153.039)" fill="#4E4C8B"/>
<path d="M173.845 135.044L171.783 135.688C166.328 137.391 161.484 140.642 157.841 145.046C156.598 146.549 155.077 147.754 153.324 148.609C141.664 154.297 95.7482 176.728 94.2487 177.774C91.1525 179.931 102.964 176.741 99.7318 178.311L167.994 146.085C171.748 144.313 174.607 141.074 175.901 137.13C176.318 135.857 175.123 134.645 173.845 135.044Z" fill="#1F9276" stroke="#1F9276" stroke-width="3.32097" stroke-linecap="round" stroke-linejoin="round"/>
<path d="M151.837 146.634C150.042 138.817 146.654 137.48 143.584 134.1" stroke="white" stroke-width="7.07093" stroke-miterlimit="10"/>
<path d="M156.59 139.199C155.583 137.601 153.398 137.257 151.948 138.467C150.531 139.649 150.442 141.795 151.756 143.09L154.394 145.689C154.965 146.252 155.861 146.312 156.503 145.832L158.215 144.549C158.886 144.046 159.059 143.111 158.611 142.402L156.59 139.199Z" fill="#FF7759"/>
<path d="M152.506 141.785C151.95 141.146 151.04 140.951 150.271 141.305L146.156 143.202C146.156 143.202 145.077 147.56 148.087 151.577C149.997 150.696 157.319 147.32 157.319 147.32L152.506 141.785Z" fill="#EB3131"/>
<path d="M168.764 141.167C167.003 137.346 162.477 135.676 158.656 137.438L155.938 138.691C152.117 140.452 150.448 144.978 152.209 148.799L152.332 149.065C152.772 150.02 153.904 150.437 154.859 149.997L167.954 143.96C168.91 143.519 169.327 142.388 168.887 141.432L168.764 141.167Z" fill="#F5F5F5"/>
<rect width="25.2408" height="4.20679" rx="1.26976" transform="matrix(-0.908134 0.418679 0.418679 0.908134 168.56 139.049)" fill="#E2E0E9"/>
<path d="M112.353 173.34C117.053 171.425 122.819 169.523 126.796 167.599L101.232 179.99C96.8838 182.097 91.8825 182.413 87.3041 180.87C86.2705 180.521 86.2893 179.053 87.3315 178.731L92.0357 177.278L95.0568 176.345C98.3766 175.32 101.832 174.803 105.307 174.812C107.728 174.818 110.111 174.254 112.353 173.34Z" fill="#1F9276" stroke="#1F9276" stroke-width="3.32097" stroke-linecap="round" stroke-linejoin="round"/>
<path fill-rule="evenodd" clip-rule="evenodd" d="M104.598 177.311C96.1399 176.11 89.3803 178.832 86.4566 180.315C85.6099 180.744 85.4609 181.83 86.0975 182.535C85.5625 182.192 85.19 181.757 84.9364 181.28C83.5882 178.743 86.4225 176.307 89.1479 175.399C94.1762 173.722 96.5012 173.067 103.604 174.267C103.916 174.699 104.598 177.311 104.598 177.311Z" fill="#60D3A3"/>
<rect x="98.6482" y="184.061" width="3.87446" height="10.4718" transform="rotate(-25.9035 98.6482 184.061)" fill="#3D3B75"/>
<ellipse cx="100.935" cy="188.77" rx="5.2582" ry="5.23592" transform="rotate(-25.9035 100.935 188.77)" fill="#3A3773"/>
<ellipse cx="104.171" cy="187.199" rx="5.2582" ry="5.23592" transform="rotate(-25.9035 104.171 187.199)" fill="#444181"/>
<ellipse cx="104.19" cy="187.188" rx="2.51479" ry="2.50414" transform="rotate(-25.9035 104.19 187.188)" fill="#3A3773"/>
<rect x="103.439" y="186.329" width="11.6234" height="2.48017" transform="rotate(-25.9035 103.439 186.329)" fill="#2E3656"/>
<path d="M114.288 181.937L102.641 187.846C102.565 187.478 102.554 187.099 102.609 186.728L102.804 185.427C102.877 184.938 102.801 184.437 102.585 183.992L102.072 182.935C101.744 182.26 100.931 181.979 100.256 182.307L99.123 182.509L111.57 176.464C112.395 176.063 113.389 176.407 113.789 177.232L114.639 178.982L114.288 181.937Z" fill="#2E3656"/>
<path d="M105.166 186.715C105.499 187.399 105.211 188.225 104.523 188.559C103.836 188.893 103.009 188.608 102.677 187.924C102.344 187.239 102.632 186.414 103.319 186.08C104.007 185.746 104.834 186.03 105.166 186.715Z" fill="#2E3656"/>
<rect x="111.098" y="178.013" width="3.59771" height="10.4718" transform="rotate(-25.9035 111.098 178.013)" fill="#3D3B75"/>
<ellipse cx="113.385" cy="182.725" rx="5.2582" ry="5.23592" transform="rotate(-25.9035 113.385 182.725)" fill="#3D3B75"/>
<ellipse cx="116.496" cy="181.213" rx="5.11982" ry="5.23592" transform="rotate(-25.9035 116.496 181.213)" fill="#55529E"/>
<ellipse cx="116.534" cy="181.194" rx="2.51479" ry="2.50414" transform="rotate(-25.9035 116.534 181.194)" fill="#3D3B75"/>
<ellipse cx="116.121" cy="181.395" rx="1.14309" ry="1.13824" transform="rotate(-25.9035 116.121 181.395)" fill="#4E4C8B"/>
<path fill-rule="evenodd" clip-rule="evenodd" d="M93.4503 175.658C95.527 173.427 99.671 173.754 102.655 174.047C106.986 174.471 109.977 174.034 113.891 172.133L170.56 144.701C175.13 142.525 177.721 136.756 176.402 134.041C176.634 134.122 176.981 134.687 177.323 135.515C178.884 139.287 177.412 143.614 174.268 146.216C173.462 146.883 172.6 147.464 171.678 147.911L115.009 175.344C110.667 177.453 108.553 177.962 103.577 177.475C98.6007 176.988 97.1078 176.841 97.1078 176.841C96.191 176.863 91.4629 175.462 93.4503 175.658Z" fill="#60D3A3"/>
<rect x="158.726" y="155.702" width="3.87446" height="10.4718" transform="rotate(-25.9035 158.726 155.702)" fill="#3D3B75"/>
<ellipse cx="161.014" cy="160.412" rx="5.2582" ry="5.23592" transform="rotate(-25.9035 161.014 160.412)" fill="#3A3773"/>
<ellipse cx="164.249" cy="158.841" rx="5.2582" ry="5.23592" transform="rotate(-25.9035 164.249 158.841)" fill="#444181"/>
<ellipse cx="164.27" cy="158.832" rx="2.51479" ry="2.50414" transform="rotate(-25.9035 164.27 158.832)" fill="#3A3773"/>
<rect x="163.519" y="157.969" width="11.6234" height="2.48017" transform="rotate(-25.9035 163.519 157.969)" fill="#2E3656"/>
<path d="M174.368 153.579L162.722 159.488C162.645 159.12 162.634 158.741 162.69 158.37L162.884 157.069C162.958 156.579 162.881 156.079 162.665 155.633L162.333 154.95C161.869 153.995 160.751 153.554 159.76 153.936L159.203 154.15L171.651 148.105C172.475 147.705 173.469 148.049 173.87 148.874L174.72 150.624L174.368 153.579Z" fill="#2E3656"/>
<path d="M165.247 158.356C165.579 159.041 165.292 159.866 164.604 160.2C163.917 160.534 163.09 160.25 162.757 159.565C162.425 158.881 162.713 158.055 163.4 157.721C164.088 157.388 164.914 157.672 165.247 158.356Z" fill="#2E3656"/>
<rect x="171.176" y="149.656" width="3.59771" height="10.4718" transform="rotate(-25.9035 171.176 149.656)" fill="#3D3B75"/>
<ellipse cx="173.461" cy="154.368" rx="5.2582" ry="5.23592" transform="rotate(-25.9035 173.461 154.368)" fill="#3D3B75"/>
<ellipse cx="176.572" cy="152.857" rx="5.11982" ry="5.23592" transform="rotate(-25.9035 176.572 152.857)" fill="#55529E"/>
<ellipse cx="176.61" cy="152.838" rx="2.51479" ry="2.50414" transform="rotate(-25.9035 176.61 152.838)" fill="#3D3B75"/>
<ellipse cx="176.197" cy="153.039" rx="1.14309" ry="1.13824" transform="rotate(-25.9035 176.197 153.039)" fill="#4E4C8B"/>
<path d="M68.4431 134.391C78.4824 141.139 96.6696 130.533 108.216 129.424" stroke="#475792" stroke-width="14.1419" stroke-miterlimit="10"/>
<path d="M65.4183 134.671C64.1887 144.608 73.4445 140.27 87.8457 135.306" stroke="#475792" stroke-width="14.1419" stroke-miterlimit="10"/>
<path d="M113.95 66.8364L116.527 67.9656L114.551 72.4751C114.239 73.1867 113.409 73.5108 112.698 73.1989C111.986 72.8871 111.662 72.0575 111.974 71.3459L113.95 66.8364Z" fill="white"/>
<path d="M71.5729 71.7803L109.655 80.9919C110.727 81.2514 111.383 82.3806 111.112 83.5005L110.874 84.4832C110.603 85.6038 109.504 86.3078 108.431 86.0484L70.3497 76.8368C69.2769 76.5773 68.6214 75.448 68.8923 74.3281L69.13 73.3455C69.4003 72.2254 70.5 71.5208 71.5729 71.7803Z" fill="#F6B11B"/>
<path d="M116.725 67.4695C117.067 65.8815 116.051 64.3186 114.461 63.9865L114.408 63.9753C113.888 63.8668 113.378 64.1983 113.266 64.7175L112.441 68.5479C112.327 69.0752 112.665 69.5941 113.192 69.7043L113.264 69.7192C114.84 70.0484 116.386 69.0434 116.725 67.4695Z" fill="white"/>
<path d="M115.472 64.8686C115.774 63.4701 114.874 62.0949 113.473 61.8101C113.026 61.7193 112.589 62.0048 112.493 62.4503L110.862 70.0236C110.763 70.4821 111.058 70.9329 111.518 71.0262C112.913 71.3098 114.277 70.418 114.577 69.0259L115.472 64.8686Z" fill="#FFB762"/>
<path d="M68.8861 75.5589C68.6232 71.5946 71.9994 68.3518 75.9499 68.7743L108.942 72.3028C113.226 72.761 115.842 77.2374 114.137 81.1947L112.867 84.1455C111.761 86.7116 109.118 88.2637 106.339 87.979L74.8334 84.7521C71.7298 84.4342 69.3082 81.9241 69.1017 78.8112L68.8861 75.5589Z" fill="#FABC43"/>
<path d="M71.8245 62.8284L74.1974 61.3222L75.8513 78.7024L69.6881 94.507L67.057 72.9027C66.5703 68.9062 68.4255 64.9861 71.8245 62.8284Z" fill="#FABC43"/>
<path d="M100.865 34.3901C89.9831 31.8013 79.0372 38.6357 76.4153 49.6544L60.8958 114.889C60.6814 115.789 61.2289 116.69 62.1182 116.902L98.3046 125.51C99.194 125.722 100.088 125.163 100.303 124.263L115.822 59.0286C118.443 48.0097 111.747 36.9787 100.865 34.3901Z" fill="#B8DEE5"/>
<rect x="85.6533" y="51.9539" width="28.8027" height="15.8414" rx="7.92068" transform="rotate(12.6398 85.6533 51.9539)" fill="#36488B"/>
<path d="M101.293 63.0311C101.385 62.6009 101.808 62.3269 102.238 62.4191L105.208 63.0554C105.638 63.1475 105.912 63.571 105.82 64.0011L105.201 66.8902C105.108 67.3204 104.685 67.5944 104.255 67.5022L101.285 66.8659C100.855 66.7737 100.581 66.3503 100.673 65.9201L101.293 63.0311Z" fill="#6EDCFF"/>
<path d="M93.3936 61.2501C93.4858 60.8199 93.9093 60.5459 94.3394 60.6381L97.3087 61.2744C97.7389 61.3665 98.0129 61.79 97.9207 62.2201L97.3016 65.1092C97.2094 65.5394 96.786 65.8134 96.3558 65.7212L93.3865 65.0849C92.9564 64.9927 92.6824 64.5693 92.7746 64.1391L93.3936 61.2501Z" fill="#6EDCFF"/>
<path d="M113.276 38.6465L108.461 40.2196" stroke="#BEDCE4" stroke-width="2.72873" stroke-miterlimit="10"/>
<path d="M111.006 47.7081C108.717 42.7158 104.343 39.1248 99.0065 37.8558" stroke="#ECFBFF" stroke-width="2.04655" stroke-miterlimit="10" stroke-linecap="round"/>
<path d="M100.053 73.9146L99.9597 74.3652C99.5806 76.1918 97.7759 77.3762 95.9493 76.9971L94.2721 76.6491C92.4455 76.27 91.2611 74.4652 91.6402 72.6386L91.7337 72.188" fill="white"/>
<path d="M100.053 73.9146L99.9597 74.3652C99.5806 76.1918 97.7759 77.3762 95.9493 76.9971L94.2721 76.6491C92.4455 76.27 91.2611 74.4652 91.6402 72.6386L91.7337 72.188" stroke="#A2CED8" stroke-width="1.82885" stroke-miterlimit="10" stroke-linecap="round" stroke-linejoin="round"/>
<path d="M80.2478 32.5195C83.1097 33.4199 84.339 35.5346 84.339 35.5346" stroke="#B8DEE5" stroke-width="2.72873" stroke-miterlimit="10" stroke-linecap="round"/>
<path d="M77.5971 35.3549C75.4077 34.895 74.0056 32.7473 74.4655 30.5579C74.9254 28.3685 77.0731 26.9664 79.2625 27.4263C81.4519 27.8862 82.854 30.0339 82.3941 32.2233C81.9342 34.4127 79.7865 35.8148 77.5971 35.3549Z" fill="#B8DEE5"/>
<path d="M78.0452 33.5287C76.7897 33.2649 75.9858 32.0334 76.2495 30.7779C76.5132 29.5225 77.7448 28.7185 79.0002 28.9822C80.2557 29.2459 81.0597 30.4775 80.7959 31.7329C80.5322 32.9884 79.3007 33.7924 78.0452 33.5287Z" fill="#F65539"/>
<path d="M57.375 128.759C57.4151 128.26 57.8143 127.866 58.3134 127.832L99.0067 125.067C99.6245 125.025 100.135 125.542 100.083 126.159C99.9774 127.427 99.8102 129.467 99.7008 130.968C98.9024 141.926 63.7349 135.251 57.8078 134.047C57.3118 133.947 56.9942 133.495 57.0348 132.991L57.375 128.759Z" fill="#FABC43"/>
<path fill-rule="evenodd" clip-rule="evenodd" d="M58.9601 130.017C57.4365 129.553 56.4478 128.117 56.544 126.527C57.7494 106.608 67.1627 73.4562 67.1627 73.4562L77.4507 83.8973L88.5911 94.4889L100.141 89.8503C100.141 89.8503 108.801 85.038 110.723 84.4391C108.234 105.48 103.595 120.496 100.873 127.97C99.6435 131.345 96.5249 133.54 92.9346 133.634C85.1006 133.839 70.7493 133.603 58.9601 130.017Z" fill="#F69F1C"/>
<path d="M94.9833 110.641L81.1863 109.127C79.7048 108.965 78.381 110.044 77.9312 111.465C76.384 116.352 72.3408 121.317 69.4519 123.3C68.5192 123.94 67.6939 124.885 67.5705 126.01L67.479 126.844C67.3259 128.238 68.2578 129.512 69.6417 129.743C76.5787 130.901 96.195 133.64 99.9367 128.305C100.824 127.041 100.69 124.71 100.575 123.664C100.536 123.311 100.404 122.98 100.23 122.67C98.7313 119.997 97.8616 115.894 97.4115 113.009C97.2173 111.764 96.2355 110.779 94.9833 110.641Z" fill="#FABC43"/>
<path d="M29.1909 15.5534C30.7855 28.8601 41.0639 26.224 40.4052 14.8847" stroke="#81BCCA" stroke-width="3.91484" stroke-linecap="round"/>
<path d="M40.4053 14.8848C40.7406 20.6568 38.242 24.1737 35.4974 24.4808" stroke="#81BCCA" stroke-width="3.91484" stroke-linecap="round"/>
<path d="M35.9287 23.9587L37.3504 31.6548" stroke="#81BCCA" stroke-width="6"/>
<path fill-rule="evenodd" clip-rule="evenodd" d="M62.5392 88.2035C64.4977 89.5976 67.0906 89.8785 69.0374 88.4684C70.5381 87.3815 72.1995 85.8529 73.2196 83.9132C74.4897 82.9776 70.5209 73.7611 70.5492 72.9991C60.0231 65.5963 55.0793 63.0775 49.8137 56.5769C46.5087 49.1501 45.3168 43.6564 42.4512 32.3183C41.6938 29.3215 38.4134 27.7422 35.5919 29.0047L34.264 29.5989C32.4645 30.4041 31.2965 32.1992 31.3454 34.17C31.9799 59.7333 40.3883 72.4363 62.5392 88.2035Z" fill="#FFDF60"/>
<path d="M31.2266 27.799C31.3302 27.2624 31.9214 27.0311 32.4477 27.1787C35.6255 28.07 38.6318 26.9462 40.1023 26.2234C40.6243 25.9668 41.2807 26.1389 41.5043 26.6759C41.9629 27.7774 42.4819 29.5254 41.6059 30.3465C38.4927 33.2644 33.5475 31.9659 32.3477 31.5913C32.1708 31.536 32.0184 31.4263 31.9196 31.2693C31.5946 30.7528 30.9121 29.4273 31.2266 27.799Z" fill="#FABC43"/>
<path d="M88.5366 92.5007C74.6727 84.9591 70.9435 72.1358 72.2817 66.203C72.2817 66.203 71.6151 63.1795 70.2265 64.2689C67.319 66.0146 67.0519 69.6451 67.1401 70.7619C68.7323 90.9226 88.5366 97.4226 88.5366 97.4226C88.5366 97.4226 107.671 96.0751 113.615 82.922C116.757 75.9685 112.456 75.4279 112.142 74.3393L111.199 78.455C109.733 87.5952 95.5806 92.3649 88.5366 92.5007Z" fill="#FABC43"/>
<path d="M115.916 60.0812C118.938 44.6258 87.4125 41.7061 74.1496 54.0037L74.6526 49.3466C75.8671 38.1031 85.9604 29.9691 97.2051 31.1718L99.1259 31.3772C111.67 32.7189 120.034 44.9686 116.717 57.1405L115.916 60.0812Z" fill="#438CFA"/>
<path d="M89.9536 41.0591L78.0045 51.0949C99.0537 42.7896 117.354 49.657 115.897 58.9688L115.22 61.7051L122.425 55.1756C127.86 50.2503 125.896 41.2854 118.9 39.0829L111.519 36.7594C104.068 34.4136 95.9353 36.0352 89.9536 41.0591Z" fill="#123770"/>
<path fill-rule="evenodd" clip-rule="evenodd" d="M111.201 37.7655C104.094 35.5281 96.3364 37.0748 90.6307 41.8668L80.7928 50.1295L77.1211 51.5545C76.7464 51.1083 76.8784 50.6616 77.3246 50.2869L89.2737 40.2511C95.5315 34.9952 104.04 33.2989 111.835 35.7529L118.984 38.0035C126.813 40.4684 128.953 50.5367 122.802 55.9723L114.951 62.911L115.769 59.3722L121.405 54.3912C126.325 50.0427 124.614 41.9881 118.35 40.0162L111.201 37.7655Z" fill="#0C4CAD"/>
<ellipse rx="3.11691" ry="5.2834" transform="matrix(0.971564 0.236778 -0.224661 0.974437 75.0662 57.4)" fill="#FFB762"/>
<path fill-rule="evenodd" clip-rule="evenodd" d="M73.5776 60.1654C73.8888 60.219 74.1972 60.0788 74.3878 59.827C74.8617 59.2006 75.2462 58.3777 75.4627 57.4384C75.6394 56.6719 75.6824 55.923 75.6107 55.2505C75.5762 54.9264 75.3784 54.6371 75.0725 54.5248C74.9766 54.4895 74.8777 54.4594 74.776 54.4348C73.3308 54.0845 71.8763 54.9762 71.5328 56.423L71.4196 56.9001C71.0783 58.3375 71.9629 59.7803 73.3986 60.1283C73.4583 60.1427 73.518 60.1551 73.5776 60.1654Z" fill="white"/>
<path d="M72.2683 58.7737L74.9331 57.8714L76.5121 62.5348C76.7613 63.2707 76.3667 64.0692 75.6308 64.3183C74.895 64.5675 74.0965 64.1729 73.8473 63.4371L72.2683 58.7737Z" fill="white"/>
<path d="M68.9301 141.445L95.8303 132.502C102.834 130.174 109.86 135.975 108.9 143.293L107.588 153.289" stroke="#8CC2CF" stroke-width="6.62403" stroke-miterlimit="10"/>
<path d="M68.9292 141.444L95.8293 132.502C102.833 130.174 109.859 135.975 108.899 143.293L107.587 153.289" stroke="#A2CED8" stroke-width="6.62403" stroke-miterlimit="10" stroke-dasharray="9.27 3.97"/>
<path d="M106.389 168.144C105.399 162.656 107.109 158.269 107.542 152.347" stroke="white" stroke-width="7.07093" stroke-miterlimit="10"/>
<path d="M112.443 160.002C111.457 158.391 109.277 158.017 107.81 159.208C106.378 160.37 106.26 162.515 107.557 163.828L110.158 166.462C110.722 167.032 111.618 167.105 112.265 166.633L113.995 165.373C114.673 164.879 114.858 163.947 114.42 163.232L112.443 160.002Z" fill="#FF7759"/>
<path d="M108.323 162.533C107.777 161.886 106.869 161.679 106.095 162.023L101.955 163.864C101.955 163.864 100.817 168.207 103.773 172.264C105.695 171.409 113.062 168.132 113.062 168.132L108.323 162.533Z" fill="#EB3131"/>
<path d="M124.589 162.134C122.879 158.289 118.376 156.559 114.532 158.269L111.798 159.485C107.953 161.195 106.223 165.697 107.933 169.542L108.052 169.809C108.479 170.771 109.605 171.203 110.566 170.776L123.742 164.916C124.703 164.488 125.135 163.362 124.708 162.401L124.589 162.134Z" fill="#F5F5F5"/>
<rect width="25.2408" height="4.20679" rx="1.26976" transform="matrix(-0.913705 0.406378 0.406378 0.913705 124.414 160.014)" fill="#E2E0E9"/>
<path fill-rule="evenodd" clip-rule="evenodd" d="M91.0263 143.961C84.1781 144.799 78.0792 146.24 73.58 147.29C70.4844 148.013 67.4097 146.398 66.1186 143.493L63.2416 137.019C69.7216 137.492 79.319 131.146 89.3093 129.924L91.0263 143.961Z" fill="#475792"/>
<path d="M80.5688 90.4687L84.929 86.4503C85.988 85.4744 87.3555 84.9006 88.7937 84.8288V84.8288C91.9668 84.6704 94.7392 86.9529 95.1931 90.0973L96.0436 95.9895C96.4669 98.9218 99.0523 101.05 102.011 100.903V100.903C105.178 100.745 107.873 103.183 108.031 106.35L108.057 106.876" stroke="white" stroke-width="2.0891" stroke-linecap="round"/>
<path d="M98.4594 92.6621L102.82 88.6436C103.879 87.6678 105.246 87.094 106.684 87.0222V87.0222C109.857 86.8638 112.63 89.1462 113.084 92.2907L113.934 98.1828C114.358 101.115 116.943 103.244 119.902 103.096V103.096C123.068 102.938 125.763 105.377 125.921 108.543L125.948 109.069" stroke="white" stroke-width="2.0891" stroke-linecap="round"/>
<path d="M107.067 107.971C107.039 107.395 107.482 106.905 108.059 106.876C108.635 106.847 109.125 107.291 109.154 107.867L109.258 109.954C109.287 110.53 108.843 111.02 108.267 111.049C107.691 111.078 107.2 110.634 107.172 110.058L107.067 107.971Z" fill="#CBD4D6"/>
<path d="M124.958 110.163C124.929 109.587 125.373 109.096 125.949 109.068C126.525 109.039 127.016 109.483 127.045 110.059L127.149 112.145C127.178 112.721 126.734 113.212 126.158 113.241C125.581 113.269 125.091 112.826 125.062 112.249L124.958 110.163Z" fill="#CBD4D6"/>
<ellipse cx="96" cy="239" rx="86" ry="6" fill="#6754D9"/>
<rect opacity="0.5" x="19" y="188" width="15" height="12" rx="2" fill="#B0A4FF"/>
<rect opacity="0.5" x="19" y="216" width="15" height="12" rx="2" fill="#B0A4FF"/>
<rect opacity="0.5" x="9" y="188" width="8" height="12" rx="2" fill="#B0A4FF"/>
<rect opacity="0.5" x="9" y="216" width="8" height="12" rx="2" fill="#B0A4FF"/>
<rect opacity="0.5" x="36" y="188" width="15" height="12" rx="2" fill="#B0A4FF"/>
<rect opacity="0.5" x="36" y="216" width="15" height="12" rx="2" fill="#B0A4FF"/>
<rect opacity="0.5" x="9" y="174" width="16" height="12" rx="2" fill="#B0A4FF"/>
<rect opacity="0.5" x="9" y="202" width="16" height="12" rx="2" fill="#B0A4FF"/>
<rect opacity="0.5" x="27" y="174" width="15" height="12" rx="2" fill="#B0A4FF"/>
<rect opacity="0.5" x="27" y="202" width="15" height="12" rx="2" fill="#B0A4FF"/>
<path d="M17 210.5H39L36 238.5H20L17 210.5Z" fill="#E0584F"/>
<ellipse cx="28" cy="238.5" rx="8" ry="2" fill="#E0584F"/>
<ellipse cx="28" cy="211.5" rx="13" ry="3" fill="#DCEEF8"/>
<ellipse cx="28" cy="210" rx="12" ry="2.5" fill="white"/>
<ellipse cx="28" cy="209" rx="9" ry="1.5" fill="#DCEEF8"/>
<path d="M19 207H37V209H19V207Z" fill="#DCEEF8"/>
<ellipse cx="28" cy="207" rx="9" ry="1.5" fill="white"/>
<path d="M15.5483 195.57C14.7583 195.819 14.3202 196.662 14.5696 197.452C14.8191 198.242 15.6617 198.68 16.4517 198.43L15.5483 195.57ZM27.8533 206.237L26.3802 206.52L27.8533 206.237ZM26.3484 198.412L24.8754 198.695L26.3484 198.412ZM20.7642 193.923L15.5483 195.57L16.4517 198.43L21.6676 196.783L20.7642 193.923ZM29.3263 205.954L27.8214 198.129L24.8754 198.695L26.3802 206.52L29.3263 205.954ZM29.5 207C29.5 206.699 29.4367 206.418 29.4036 206.276C29.351 206.051 29.3418 206.034 29.3263 205.954L26.3802 206.52C26.3988 206.617 26.4214 206.71 26.4378 206.777C26.4572 206.856 26.4691 206.902 26.482 206.958C26.4939 207.009 26.4996 207.038 26.5021 207.054C26.505 207.072 26.5 207.049 26.5 207H29.5ZM21.6676 196.783C23.0934 196.333 24.593 197.227 24.8754 198.695L27.8214 198.129C27.2002 194.898 23.9011 192.932 20.7642 193.923L21.6676 196.783Z" fill="#FFE074"/>
<path opacity="0.8" d="M21.1578 222.147C21.0726 220.987 21.9901 220 23.1525 220H24C25.1046 220 26 220.895 26 222V235.056C26 236.13 25.1297 237 24.0562 237C23.0379 237 22.1922 236.214 22.1176 235.199L21.1578 222.147Z" fill="#F1795E"/>
<path d="M36.6277 235.283V221L59.6561 221.262C60.5371 221.273 61.246 221.99 61.246 222.871V235.247C61.246 235.543 61.3277 235.834 61.482 236.086L63.6193 239.583C64.2742 240.655 63.503 242.03 62.247 242.03H41.0909C40.5068 242.03 39.9687 241.714 39.685 241.203L36.8301 236.064C36.6973 235.825 36.6277 235.556 36.6277 235.283Z" fill="#F1AA5E"/>
<path d="M35.9506 235.014L36.5 221.001L38 220.999L38.7156 235.27C38.7298 235.552 38.8177 235.825 38.9707 236.062L41.1432 239.427C41.9199 240.63 40.8553 242.171 39.4551 241.871L34.1118 240.726C32.8222 240.45 32.3952 238.824 33.3827 237.95L35.4097 236.155C35.738 235.864 35.9334 235.452 35.9506 235.014Z" fill="#DC7C46"/>
<rect x="42.959" y="227.26" width="15.4744" height="5.62705" rx="1.60825" fill="#E49C4F"/>
<rect opacity="0.6" x="41.4961" y="216.877" width="19.2438" height="1.74944" rx="0.874718" fill="#FCFF7E"/>
<path d="M38 217V221C38 221.552 38.4477 222 39 222H62C63.1046 222 64 221.105 64 220V218C64 216.895 63.1046 216 62 216H39C38.4477 216 38 216.448 38 217Z" fill="#FFD074"/>
<rect opacity="0.6" x="43" y="217" width="19.2438" height="1.74944" rx="0.874718" fill="#FFF27E"/>
<path d="M36.5 217.75V222H37.5V221H39.7368C39.8822 221 40 220.882 40 220.737V217.75C40 216.784 39.2165 216 38.25 216C37.2835 216 36.5 216.784 36.5 217.75Z" fill="#DC7C46"/>
<path d="M37.5 218.804C37.5 218.36 37.86 218 38.3041 218H40V220.75C40 221.44 39.4404 222 38.75 222C38.0596 222 37.5 221.44 37.5 220.75V218.804Z" fill="#E49C4F"/>
</g>
<defs>
<clipPath id="clip0">
<rect width="192" height="256" fill="white"/>
</clipPath>
</defs>
</svg>

