<svg width="66" height="66" viewBox="0 0 66 66" fill="none" xmlns="http://www.w3.org/2000/svg">
<g clip-path="url(#clip0)">
<circle cx="33" cy="33" r="31.5" fill="#0C8080" stroke="#28D8D8" stroke-width="3"/>
<mask id="mask0" mask-type="alpha" maskUnits="userSpaceOnUse" x="3" y="3" width="60" height="60">
<circle cx="33" cy="33" r="30" fill="#9C4050"/>
</mask>
<g mask="url(#mask0)">
<path d="M48.4241 43.8828L16.2557 45.6908C15.8194 45.717 15.4111 45.9148 15.1199 46.2408C14.8288 46.5669 14.6784 46.9949 14.7015 47.4315L14.7462 48.2262C14.7721 48.6625 14.9695 49.0708 15.2954 49.362C15.6213 49.6532 16.0492 49.8036 16.4856 49.7805L48.6539 47.9725C49.0902 47.9466 49.4985 47.7491 49.7897 47.4232C50.0809 47.0974 50.2314 46.6695 50.2082 46.2331L50.1636 45.4383C50.1376 45.002 49.9402 44.5935 49.6144 44.3021C49.2885 44.0107 48.8606 43.8599 48.4241 43.8828Z" fill="#F6B11B"/>
<path d="M21.5877 37.9516C19.1769 39.0592 16.7219 39.2726 13.9489 39.3177C11.316 39.3605 9.64575 36.3285 11.0824 34.1217L15.3552 27.5586C15.6457 27.1123 16.1068 26.8049 16.6305 26.7083L41.3558 22.1458C37.6955 23.9994 25.2984 36.2469 21.5877 37.9516Z" fill="#73573E"/>
<path d="M48.6214 33.1759L48.735 33.1695C49.0222 33.1546 49.3036 33.0832 49.5633 32.9594C49.8229 32.8357 50.0556 32.662 50.248 32.4483C50.4405 32.2345 50.589 31.985 50.685 31.7139C50.781 31.4428 50.8226 31.1554 50.8075 30.8682L50.7973 30.6868C50.7822 30.3995 50.7106 30.118 50.5867 29.8584C50.4628 29.5988 50.289 29.3661 50.0752 29.1737C49.8614 28.9812 49.6117 28.8328 49.3406 28.7368C49.0694 28.6408 48.7819 28.5992 48.4947 28.6143L48.3811 28.6207C48.2318 28.6291 48.0917 28.6958 47.9912 28.8066C47.8906 28.9173 47.8376 29.0631 47.8436 29.2125L48.0228 32.6335C48.0262 32.7086 48.0443 32.7822 48.0763 32.8502C48.1083 32.9181 48.1534 32.9791 48.2091 33.0295C48.2647 33.0799 48.3298 33.1188 48.4006 33.144C48.4714 33.1691 48.5464 33.1799 48.6214 33.1759Z" fill="#F65539"/>
<path d="M25.2411 46.677L17.163 47.0996C16.1958 47.168 15.2942 47.6133 14.652 48.3397C14.0098 49.0661 13.6784 50.0155 13.7291 50.9838C13.7797 51.952 14.2084 52.8617 14.9228 53.5171C15.6373 54.1725 16.5805 54.5213 17.5495 54.4885L25.6275 54.0646L25.2411 46.677Z" fill="#BEDCE4"/>
<path d="M16.0845 52.5639C6.03775 74.6039 24.927 77.79 29.6443 48.9825" stroke="#8CC2CF" stroke-width="4.29614" stroke-miterlimit="10" stroke-linecap="round"/>
<ellipse rx="2.73119" ry="4.62957" transform="matrix(0.997415 -0.0718567 0.0842719 0.996443 47.2488 31.3569)" fill="#FFB762"/>
<path d="M31.4702 9.46676C40.2779 9.00576 47.7997 15.8497 48.2609 24.7556L51.025 77.4737C51.0357 77.6456 51.0122 77.818 50.9561 77.9809C50.8999 78.1438 50.8121 78.294 50.6977 78.4228C50.5833 78.5516 50.4445 78.6566 50.2894 78.7316C50.1342 78.8066 49.9658 78.8501 49.7938 78.8598L20.5084 80.3945C20.3362 80.4032 20.1639 80.3777 20.0016 80.3195C19.8393 80.2613 19.6902 80.1715 19.5627 80.0555C19.4352 79.9394 19.332 79.7992 19.2589 79.643C19.1858 79.4868 19.1444 79.3178 19.1369 79.1455L16.3729 26.4274C15.9038 17.5219 22.6626 9.92906 31.4702 9.46676Z" fill="#B0DEE7"/>
<ellipse rx="2.73119" ry="4.62957" transform="matrix(0.997415 -0.0718567 0.0842719 0.996443 17.1216 32.824)" fill="#FFB762"/>
<path fill-rule="evenodd" clip-rule="evenodd" d="M16.6654 35.5223C16.9144 35.4828 17.1141 35.3016 17.1996 35.0644C17.436 34.4081 17.5412 33.6048 17.4687 32.7476C17.4093 32.0458 17.2384 31.3968 16.9896 30.8473C16.8823 30.6102 16.6619 30.4393 16.4021 30.424C16.2992 30.4179 16.1946 30.4186 16.089 30.4263C14.7895 30.5216 13.8152 31.6555 13.9165 32.9545L13.95 33.3829C14.0506 34.6735 15.1754 35.64 16.4664 35.5453C16.5337 35.5404 16.6 35.5327 16.6654 35.5223Z" fill="#F65539"/>
<path d="M47.6161 47.2346L35.6542 54.4148L20.9696 50.3659L19.6674 76.4259L46.779 74.9021L47.6161 47.2346Z" fill="#E9E9E9"/>
<circle r="0.89143" transform="matrix(-0.998754 -0.0499067 -0.0499067 0.998754 35.8765 57.6139)" fill="#D5D5D5"/>
<path d="M20.9896 55.5494L23.5909 55.4124C23.6563 55.4121 23.7211 55.3985 23.7811 55.3725C23.8411 55.3464 23.8952 55.3084 23.9401 55.2607C23.9849 55.2131 24.0196 55.1568 24.042 55.0953C24.0645 55.0338 24.0741 54.9684 24.0705 54.903C24.0668 54.8377 24.0499 54.7738 24.0207 54.7152C23.9915 54.6566 23.9507 54.6046 23.9008 54.5622C23.8509 54.5199 23.7929 54.4882 23.7303 54.469C23.6677 54.4498 23.6019 54.4436 23.5368 54.4506L20.9396 54.5901C20.8168 54.6034 20.7038 54.6634 20.6238 54.7576C20.5439 54.8519 20.5032 54.9732 20.5102 55.0966C20.5171 55.22 20.5711 55.336 20.6611 55.4207C20.7511 55.5054 20.8701 55.5523 20.9937 55.5518L20.9896 55.5494Z" fill="#A2CED8"/>
<path d="M35.5233 54.4084L38.4529 58.3663C38.9205 58.998 39.8429 59.0595 40.3903 58.4956L44.1848 54.5862L48.5725 45.88L35.536 54.154L20.8202 50.1035L22.3084 56.0432L32.0322 59.7176C32.6792 59.9621 33.4032 59.6454 33.6627 59.0042L35.5233 54.4084Z" fill="white"/>
<path d="M21.2037 59.5724L23.8037 59.4354C23.9265 59.4221 24.0396 59.3621 24.1195 59.2678C24.1994 59.1736 24.2401 59.0522 24.2331 58.9289C24.2262 58.8055 24.1722 58.6895 24.0822 58.6048C23.9922 58.5201 23.8732 58.4732 23.7496 58.4737L21.1484 58.6107C21.0255 58.624 20.9125 58.684 20.8326 58.7783C20.7527 58.8725 20.712 58.9939 20.7189 59.1172C20.7259 59.2406 20.7799 59.3566 20.8698 59.4413C20.9598 59.526 21.0789 59.5729 21.2024 59.5724L21.2037 59.5724Z" fill="#A2CED8"/>
<path d="M21.0972 57.5596L23.6986 57.4238C23.8214 57.4105 23.9344 57.3505 24.0143 57.2562C24.0942 57.162 24.1349 57.0407 24.128 56.9173C24.1211 56.7939 24.067 56.6779 23.9771 56.5932C23.8871 56.5085 23.7681 56.4616 23.6445 56.4621L21.0432 56.5991C20.9159 56.6063 20.7965 56.6637 20.7116 56.7588C20.6266 56.854 20.5828 56.979 20.59 57.1063C20.5971 57.2337 20.6546 57.353 20.7497 57.438C20.8448 57.523 20.9698 57.5667 21.0972 57.5596Z" fill="#A2CED8"/>
<path d="M20.8833 53.5346L23.4833 53.3976C23.6061 53.3843 23.7192 53.3243 23.7991 53.2301C23.879 53.1358 23.9197 53.0145 23.9127 52.8911C23.9058 52.7677 23.8518 52.6517 23.7618 52.567C23.6719 52.4823 23.5528 52.4354 23.4292 52.4359L20.8293 52.5729C20.7064 52.5862 20.5934 52.6462 20.5135 52.7404C20.4336 52.8347 20.3929 52.956 20.3998 53.0794C20.4068 53.2028 20.4608 53.3188 20.5507 53.4035C20.6407 53.4882 20.7598 53.5351 20.8833 53.5346Z" fill="#A2CED8"/>
<path d="M42.7192 11.8486L39.7698 14.969" stroke="#B8DEE5" stroke-width="2.14872" stroke-miterlimit="10"/>
<path d="M30.7593 37.9094L41.2534 37.3602C42.0003 37.3211 42.7322 37.1353 43.4073 36.8133C44.0824 36.4914 44.6875 36.0396 45.188 35.4838C45.6885 34.9279 46.0745 34.2789 46.3242 33.5739C46.5738 32.8688 46.6821 32.1215 46.6428 31.3746L46.6164 30.9035C46.5772 30.1567 46.3912 29.4249 46.0692 28.75C45.7472 28.075 45.2954 27.4701 44.7395 26.9697C44.1837 26.4694 43.5348 26.0834 42.8298 25.8339C42.1249 25.5843 41.3777 25.4761 40.6308 25.5153L30.1381 26.0645C28.6297 26.1437 27.2146 26.8188 26.2039 27.9413C25.1932 29.0637 24.6697 30.5417 24.7486 32.0501L24.7751 32.5212C24.8543 34.0292 25.5292 35.444 26.6514 36.4545C27.7736 37.4649 29.2513 37.9883 30.7593 37.9094Z" fill="#36488B"/>
<path d="M36.5744 32.9126C37.1385 32.8901 37.5679 32.4277 37.5478 31.8644L37.5398 31.6407C37.5184 31.0438 37.0027 30.5663 36.405 30.5901L34.4039 30.6697C33.8399 30.6921 33.4104 31.1546 33.4306 31.7179L33.4386 31.9416C33.4599 32.5385 33.9757 33.016 34.5734 32.9922L36.5744 32.9126Z" fill="#6EDCFF"/>
<path d="M41.4122 32.7465C40.8152 32.7702 40.2998 32.2939 40.2774 31.6977L40.268 31.448C40.2469 30.884 40.6766 30.4204 41.2413 30.3979L43.0886 30.3244C43.6856 30.3007 44.201 30.777 44.2234 31.3732L44.2327 31.623C44.2539 32.1869 43.8242 32.6505 43.2594 32.673L41.4122 32.7465Z" fill="#6EDCFF"/>
<path d="M42.4625 17.1789C41.0653 15.5856 39.3211 14.3341 37.3643 13.5207C35.4074 12.7072 33.2901 12.3535 31.1751 12.4867" stroke="#ECFBFF" stroke-width="1.61154" stroke-miterlimit="10" stroke-linecap="round"/>
<path d="M44.825 21.1282C44.5535 20.4844 44.2354 19.8613 43.8732 19.2639" stroke="#ECFBFF" stroke-width="1.61154" stroke-miterlimit="10" stroke-linecap="round"/>
<path d="M33.4783 40.614C35.4151 40.614 37.3525 40.6142 37.3525 40.6142" stroke="#8CC2CF" stroke-width="1.42994" stroke-linecap="round"/>
<path d="M44.7239 12.9286C45.3536 12.8932 45.9586 12.6719 46.4626 12.2926C46.9665 11.9134 47.3467 11.3933 47.555 10.798C47.7633 10.2027 47.7905 9.55899 47.633 8.94827C47.4756 8.33756 47.1406 7.78724 46.6704 7.36691C46.2001 6.94658 45.6159 6.6751 44.9914 6.5868C44.3669 6.49851 43.7303 6.59736 43.162 6.87086C42.5937 7.14435 42.1192 7.58022 41.7986 8.12334C41.478 8.66646 41.3256 9.29245 41.3608 9.92216C41.4082 10.7667 41.7892 11.5579 42.4199 12.1217C43.0505 12.6855 43.8793 12.9757 44.7239 12.9286Z" fill="#B0DEE7"/>
<path d="M44.6199 11.5804C44.9813 11.56 45.3285 11.433 45.6176 11.2154C45.9068 10.9978 46.1249 10.6993 46.2444 10.3577C46.3639 10.0161 46.3795 9.64673 46.2891 9.2963C46.1986 8.94587 46.0063 8.63012 45.7365 8.38898C45.4666 8.14784 45.1313 7.99214 44.773 7.94157C44.4146 7.89099 44.0493 7.94782 43.7233 8.10485C43.3972 8.26189 43.125 8.51209 42.9412 8.82381C42.7573 9.13553 42.67 9.49477 42.6903 9.85611C42.7176 10.3406 42.9362 10.7945 43.298 11.1179C43.6599 11.4412 44.1354 11.6076 44.6199 11.5804Z" fill="#F65539"/>
<path d="M17.508 51.4345C16.1061 52.8795 14.1064 59.4758 14.1945 64.3914C14.2857 69.4889 16.6221 72.7789 24.1983 66.6424" stroke="#8C6A4A" stroke-width="7.51923" stroke-miterlimit="10"/>
<path d="M47.7939 51.4514L36.9617 59.446C36.4547 59.8201 35.7878 59.8989 35.2076 59.6532L20.7855 53.5445L20.959 81.0619L48.0706 79.5381L47.7939 51.4514Z" fill="#A34A3B"/>
<path d="M16.5229 85.6547L52.8454 86.6233L50.3291 45.8664L36.7275 67.8583L16.9161 48.7733L16.5229 85.6547Z" fill="#73573E"/>
<path d="M49.6916 49.8435C55.4108 72.7813 39.6686 72.3987 22.5156 73.2929" stroke="#8CC2CF" stroke-width="4.29614" stroke-miterlimit="10"/>
<path d="M48.5533 48.938C55.2054 61.3943 54.4109 73.944 25.1708 74.0995" stroke="#8C6A4A" stroke-width="7.51923" stroke-miterlimit="10"/>
<path d="M50.2747 42.4561L53.8561 45.3861C54.0929 45.5786 54.2769 45.828 54.391 46.111C54.5051 46.394 54.5456 46.7014 54.5086 47.0042C54.4716 47.3071 54.3584 47.5957 54.1795 47.8429C54.0006 48.0901 53.762 48.2879 53.4858 48.4178L46.8569 51.5892C46.7291 51.6499 46.6191 51.7426 46.5375 51.8583C46.456 51.9739 46.4056 52.1087 46.3913 52.2495C46.377 52.3903 46.3992 52.5324 46.4558 52.6621C46.5124 52.7918 46.6014 52.9048 46.7144 52.99L47.5964 53.6591C47.7104 53.7457 47.8 53.8605 47.8563 53.9922C47.9126 54.1239 47.9338 54.2679 47.9176 54.4102C47.9014 54.5525 47.8486 54.6882 47.7641 54.8039C47.6797 54.9196 47.5667 55.0113 47.4361 55.0702L37.7265 67.9152C36.9605 68.262 36.2697 67.336 36.8211 66.7133L49.1136 42.5488C49.2574 42.3861 49.4589 42.2854 49.6754 42.2681C49.892 42.2508 50.1068 42.3182 50.2747 42.4561Z" fill="#A07650"/>
<path d="M16.1594 44.4554L12.9289 47.7683C12.7153 47.9862 12.5604 48.2548 12.4788 48.5488C12.3972 48.8429 12.3916 49.1529 12.4624 49.4497C12.5332 49.7466 12.6782 50.0206 12.8838 50.2461C13.0894 50.4717 13.3488 50.6414 13.6379 50.7393L20.5804 53.1479C20.7147 53.1938 20.8349 53.2735 20.9293 53.3793C21.0238 53.4852 21.0893 53.6136 21.1196 53.7522C21.1499 53.8909 21.1439 54.0349 21.1023 54.1705C21.0606 54.3062 20.9847 54.4287 20.8818 54.5264L20.0816 55.2901C19.9776 55.3887 19.901 55.5127 19.8595 55.6498C19.818 55.787 19.8129 55.9326 19.8448 56.0724C19.8767 56.2121 19.9445 56.3411 20.0414 56.4467C20.1384 56.5522 20.2612 56.6307 20.3977 56.6743L35.6917 67.9909C36.4917 68.2496 37.0745 67.2521 36.4567 66.6951L17.3249 44.4161C17.163 44.2712 16.9514 44.1944 16.7343 44.2017C16.5171 44.2091 16.3112 44.2999 16.1594 44.4554Z" fill="#A07650"/>
<path d="M29.2676 50.791C26.235 64.0395 24.5841 69.6254 17.832 69.9613" stroke="#81BCCA" stroke-width="4.29614" stroke-miterlimit="10" stroke-linecap="round"/>
<path d="M14.1945 64.3928C13.8656 70.9772 21.6723 76.7557 28.552 52.3126L28.797 51.3955" stroke="#8C6A4A" stroke-width="7.51923" stroke-miterlimit="10"/>
<path d="M30.3891 7.88468C36.3538 10.4443 39.501 16.6802 40.4352 22.853C40.4574 23.0002 40.5969 23.104 40.7451 23.0824L49.2877 21.8419C49.4274 21.8216 49.5239 21.6934 49.5056 21.5543C48.0437 10.4832 36.0554 6.1655 30.4017 7.41277C30.159 7.46629 30.1581 7.78554 30.3891 7.88468Z" fill="#73573E"/>
<path d="M30.0387 7.73319L26.3352 6.79304C25.4549 6.56959 25.2836 5.39378 26.0635 4.92841C26.4597 4.69196 26.9654 4.75097 27.2965 5.07231L30.0387 7.73319Z" stroke="#876649" stroke-width="1.07635"/>
<path d="M29.8252 7.84244L33.4193 6.79814C34.4718 6.49234 34.5551 5.03336 33.5442 4.60979C33.0698 4.41099 32.5211 4.54766 32.1953 4.94578L29.8252 7.84244Z" stroke="#876649" stroke-width="1.07635"/>
<path d="M50.4317 23.6288L47.257 22.1805C46.9678 22.0485 46.6505 21.9896 46.3331 22.0088L33.5458 22.785L21.5368 25.0207C23.8297 25.4376 27.0361 26.2952 29.3785 26.9583C31.4115 27.5339 33.5202 27.8072 35.6311 27.7146L51.5895 27.0145C52.9802 26.9535 53.374 25.0791 52.1253 24.4636L50.4317 23.6288Z" fill="#73573E" stroke="#73573E" stroke-width="1.88361" stroke-linejoin="round"/>
<path d="M30.5107 7.80369C22.2916 8.58447 16.3963 16.434 17.3433 25.3361L32.357 23.2702L47.1074 22.5087C46.1605 13.6066 38.7299 7.02292 30.5107 7.80369Z" fill="#A07650"/>
<path d="M29.1562 7.93304C24.4065 8.38423 20.2901 16.6091 21.1693 24.8748L28.4063 22.9413L38.0136 22.0537C37.1343 13.788 33.9059 7.48185 29.1562 7.93304Z" fill="#B2845B"/>
<path d="M28.9687 8.06172C24.1944 12.03 22.6623 18.0933 23.7057 24.5051C23.7276 24.6397 23.6451 24.7702 23.5136 24.8063L15.677 26.9532C15.5257 26.9946 15.371 26.8928 15.3472 26.7377C13.5277 14.8805 22.6101 7.32898 28.8331 7.60827C29.0683 7.61883 29.1498 7.91123 28.9687 8.06172Z" fill="#876649"/>
<path d="M19.9618 16.0656C20.5652 16.479 21.7952 16.1908 22.3886 15.3245C22.9821 14.4582 22.7142 13.3417 22.1107 12.9284C21.5073 12.515 20.537 12.8822 19.9436 13.7486C19.3502 14.6149 19.3583 15.6523 19.9618 16.0656Z" fill="#A07650"/>
<path d="M15.6943 26.8674C26.5072 22.7244 41.4803 21.836 49.9673 22.2608" stroke="#876649" stroke-width="1.76581" stroke-linecap="round"/>
<path d="M34.8108 44.5251C32.2334 52.57 25.2547 50.1161 26.9562 43.2038" stroke="#81BCCA" stroke-width="2.7549" stroke-linecap="round"/>
<path d="M18.2678 12.4657L20.6118 14.1567" stroke="#B0DEE7" stroke-width="2.14872" stroke-miterlimit="10" stroke-linecap="round"/>
<path d="M16.6706 13.9536C17.3003 13.9184 17.9055 13.6973 18.4097 13.3182C18.9138 12.9391 19.2941 12.4191 19.5027 11.8238C19.7112 11.2285 19.7386 10.5848 19.5812 9.97397C19.4239 9.36315 19.089 8.81271 18.6188 8.39225C18.1487 7.97178 17.5644 7.70017 16.9399 7.61177C16.3154 7.52337 15.6787 7.62215 15.1103 7.89562C14.5419 8.16908 14.0674 8.60495 13.7467 9.1481C13.426 9.69125 13.2736 10.3173 13.3088 10.9471C13.3562 11.7914 13.737 12.5824 14.3674 13.1462C14.9978 13.7099 15.8262 14.0003 16.6706 13.9536Z" fill="#B0DEE7"/>
<path d="M16.5679 12.607C16.9293 12.5867 17.2765 12.4597 17.5656 12.242C17.8548 12.0244 18.0729 11.7259 18.1924 11.3843C18.3119 11.0427 18.3275 10.6733 18.237 10.3229C18.1466 9.97248 17.9543 9.65673 17.6845 9.41559C17.4146 9.17445 17.0793 9.01875 16.721 8.96818C16.3626 8.9176 15.9973 8.97443 15.6713 9.13147C15.3452 9.28851 15.073 9.5387 14.8892 9.85042C14.7053 10.1621 14.618 10.5214 14.6383 10.8827C14.6656 11.3672 14.8842 11.8211 15.246 12.1445C15.6079 12.4678 16.0834 12.6342 16.5679 12.607Z" fill="#F65539"/>
</g>
</g>
<defs>
<clipPath id="clip0">
<rect width="66" height="66" fill="white"/>
</clipPath>
</defs>
</svg>

