<svg width="66" height="66" viewBox="0 0 66 66" fill="none" xmlns="http://www.w3.org/2000/svg">
<rect x="1.5" y="1.5" width="63" height="63" rx="31.5" fill="#69C656"/>
<rect x="1.5" y="1.5" width="63" height="63" rx="31.5" stroke="white" stroke-width="3"/>
<rect x="1.5" y="1.5" width="63" height="63" rx="31.5" stroke="#94FF7E" stroke-width="3"/>
<mask id="mask0" mask-type="alpha" maskUnits="userSpaceOnUse" x="3" y="3" width="60" height="60">
<path d="M3 33C3 16.4315 16.4315 3 33 3C49.5685 3 63 16.4315 63 33C63 49.5685 49.5685 63 33 63C16.4315 63 3 49.5685 3 33Z" fill="#9C4050"/>
</mask>
<g mask="url(#mask0)">
<path d="M20.6943 39.4243L47.5013 39.0455C48.2565 39.0349 48.8828 39.6441 48.8934 40.3989L48.9028 41.0611C48.9135 41.8163 48.3042 42.4426 47.5494 42.4533L20.7425 42.8321C19.9873 42.8428 19.361 42.2335 19.3503 41.4788L19.341 40.8165C19.3298 40.0618 19.9391 39.435 20.6943 39.4243Z" fill="#F6B11B"/>
<path d="M33.1401 10.9226C25.803 11.054 19.9633 17.1748 20.0959 24.5937L20.8823 68.5155C20.8931 69.1218 21.388 69.6043 21.9877 69.5935L46.3861 69.1567C46.9857 69.146 47.4627 68.6458 47.4519 68.0394L46.6654 24.1177C46.5324 16.6988 40.4768 10.7912 33.1401 10.9226Z" fill="#B0DEE7"/>
<path d="M36.2703 35.6302L36.2752 36.0247C36.2954 37.6233 35.3064 38.9441 34.0775 38.9596L33.6146 38.9764C32.3857 38.9919 31.3637 37.6965 31.3435 36.0979L31.3385 35.7034" fill="white"/>
<path d="M36.2703 35.6302L36.2752 36.0247C36.2954 37.6233 35.3064 38.9441 34.0775 38.9596L33.6146 38.9764C32.3857 38.9919 31.3637 37.6965 31.3435 36.0979L31.3385 35.7034" stroke="#8CC2CF" stroke-width="1.31307" stroke-miterlimit="10" stroke-linecap="round" stroke-linejoin="round"/>
<path d="M24.4198 76.129L24.5442 45.9461L24.6656 46.0017C31.0446 48.9179 38.4003 48.7929 44.6765 45.6616L44.5522 75.8445L24.4198 76.129Z" fill="white"/>
<path d="M24.5435 45.9453L24.6649 46.0008C31.0439 48.917 38.3996 48.7921 44.6758 45.6608" stroke="#E9E6E6" stroke-width="1.45049" stroke-linecap="round" stroke-linejoin="round"/>
<path d="M44.1496 47.5072L41.9829 47.5458C41.7617 47.5499 41.5791 47.3737 41.5751 47.1525C41.5711 46.9313 41.7473 46.7487 41.9684 46.7447L44.1352 46.706C44.3564 46.702 44.539 46.8782 44.543 47.0994C44.547 47.3206 44.3708 47.5032 44.1496 47.5072Z" fill="#A2CED8"/>
<path d="M44.2092 50.8587L42.0425 50.8974C41.8213 50.9014 41.6387 50.7252 41.6346 50.504C41.6306 50.2829 41.8068 50.1002 42.028 50.0962L44.1947 50.0576C44.4159 50.0535 44.5985 50.2297 44.6026 50.4509C44.6066 50.6721 44.4304 50.8552 44.2092 50.8587Z" fill="#A2CED8"/>
<path d="M47.983 31.3347L48.5121 31.3318C48.9617 31.3273 49.3911 31.1444 49.706 30.8235C50.0209 30.5025 50.1955 30.0697 50.1915 29.6201L50.1907 29.4795C50.1861 29.0299 50.0033 28.6005 49.6824 28.2856C49.3614 27.9708 48.9286 27.7961 48.479 27.8002L47.9509 27.803L47.983 31.3347Z" fill="#F65539"/>
<path d="M47.4469 32.7951L47.6219 32.7941C47.7495 32.793 47.8757 32.7668 47.9932 32.7169C48.1106 32.6671 48.2171 32.5945 48.3066 32.5035C48.396 32.4124 48.4666 32.3046 48.5144 32.1863C48.5621 32.0679 48.586 31.9413 48.5848 31.8137L48.5449 27.4008C48.5437 27.2733 48.5174 27.1473 48.4674 27.0299C48.4175 26.9125 48.345 26.8062 48.2539 26.7168C48.1629 26.6275 48.0551 26.557 47.9368 26.5093C47.8185 26.4616 47.692 26.4377 47.5645 26.4389L47.3884 26.4399C47.2608 26.441 47.1347 26.4672 47.0172 26.5171C46.8997 26.5669 46.7932 26.6395 46.7038 26.7305C46.6143 26.8216 46.5437 26.9294 46.496 27.0477C46.4482 27.1661 46.4243 27.2927 46.4255 27.4203L46.4664 31.8311C46.4674 31.9588 46.4935 32.0851 46.5433 32.2027C46.5931 32.3203 46.6656 32.4269 46.7567 32.5164C46.8478 32.606 46.9556 32.6767 47.0741 32.7245C47.1925 32.7723 47.3192 32.7963 47.4469 32.7951Z" fill="#FFB762"/>
<path d="M44.1745 49.1811L42.0078 49.2198C41.7866 49.2238 41.604 49.0476 41.6 48.8264C41.596 48.6052 41.7722 48.4226 41.9933 48.4186L44.1601 48.38C44.3813 48.3759 44.5639 48.5521 44.5679 48.7733C44.5719 48.9945 44.3962 49.1771 44.1745 49.1811Z" fill="#A2CED8"/>
<path d="M19.1971 31.605L18.6682 31.6216C18.2188 31.6335 17.7829 31.4666 17.4565 31.1575C17.13 30.8483 16.9396 30.4222 16.9271 29.9728L16.9227 29.8322C16.9107 29.3827 17.0776 28.9469 17.3868 28.6204C17.6959 28.294 18.122 28.1036 18.5715 28.0911L19.0993 28.0745L19.1971 31.605Z" fill="#F65539"/>
<path d="M19.7856 33.0443L19.6106 33.0498C19.4831 33.0534 19.356 33.0318 19.2368 32.9863C19.1176 32.9408 19.0085 32.8722 18.9157 32.7845C18.823 32.6968 18.7485 32.5917 18.6964 32.4752C18.6444 32.3586 18.6158 32.233 18.6123 32.1054L18.4899 27.6941C18.4864 27.5666 18.5081 27.4397 18.5537 27.3206C18.5993 27.2014 18.6679 27.0925 18.7556 26.9998C18.8433 26.9072 18.9483 26.8328 19.0648 26.7808C19.1813 26.7288 19.3068 26.7003 19.4343 26.6968L19.6103 26.6913C19.7379 26.6876 19.8649 26.7092 19.9841 26.7547C20.1034 26.8002 20.2125 26.8688 20.3052 26.9565C20.3979 27.0442 20.4724 27.1494 20.5245 27.2659C20.5765 27.3824 20.6051 27.5081 20.6086 27.6356L20.7299 32.0449C20.7337 32.1726 20.7122 32.2997 20.6667 32.4191C20.6213 32.5384 20.5527 32.6477 20.465 32.7405C20.3773 32.8333 20.2721 32.9079 20.1556 32.9601C20.039 33.0122 19.9132 33.0408 19.7856 33.0443Z" fill="#FFB762"/>
<rect x="24.4087" y="23.8517" width="18.7424" height="10.3083" rx="5.15414" transform="rotate(-1.07838 24.4087 23.8517)" fill="#36488B"/>
<path d="M41.2196 17.4817C38.7925 14.8256 35.3452 13.461 31.7627 13.7373" stroke="#ECFBFF" stroke-width="1.34073" stroke-miterlimit="10" stroke-linecap="round"/>
<path d="M43.2425 20.738C43.0056 20.201 42.7318 19.6882 42.4246 19.2017" stroke="#ECFBFF" stroke-width="1.34073" stroke-miterlimit="10" stroke-linecap="round"/>
<path d="M22.7626 11.804L25.1811 14.4331" stroke="#B0DEE7" stroke-width="1.78763" stroke-miterlimit="10"/>
<path d="M21.69 13.2451C20.2279 13.1433 19.1251 11.8756 19.2269 10.4135C19.3286 8.95141 20.5964 7.84864 22.0585 7.9504C23.5206 8.05215 24.6233 9.3199 24.5216 10.782C24.4198 12.2441 23.1521 13.3468 21.69 13.2451Z" fill="#B0DEE7"/>
<path d="M21.7914 12.1286C20.953 12.0702 20.3206 11.3433 20.379 10.5049C20.4373 9.66647 21.1643 9.03412 22.0027 9.09247C22.8411 9.15082 23.4735 9.87778 23.4151 10.7162C23.3568 11.5546 22.6298 12.1869 21.7914 12.1286Z" fill="#F65539"/>
<path d="M43.884 12.1624L41.7859 14.7336" stroke="#B0DEE7" stroke-width="1.78764" stroke-miterlimit="10"/>
<path d="M45.4129 13.4115C43.9637 13.6306 42.6114 12.6335 42.3923 11.1843C42.1732 9.73516 43.1703 8.38277 44.6195 8.16368C46.0686 7.94458 47.421 8.94174 47.6401 10.3909C47.8592 11.84 46.8621 13.1924 45.4129 13.4115Z" fill="#B0DEE7"/>
<path d="M45.2741 12.2991C44.4431 12.4247 43.6676 11.853 43.542 11.022C43.4163 10.191 43.9881 9.4155 44.8191 9.28986C45.6501 9.16423 46.4256 9.73602 46.5512 10.567C46.6768 11.398 46.1051 12.1735 45.2741 12.2991Z" fill="#F65539"/>
<path d="M47.7952 80.3306C47.7984 81.1376 47.1423 81.7921 46.3353 81.7869L40.1188 81.7465C38.524 81.7362 37.2366 80.4404 37.2366 78.8456L37.2366 52.3326L47.6417 42.0478L47.7952 80.3306Z" fill="#FCC027"/>
<path d="M19.6472 44.9916C2.21551 53.0703 2.57779 41.5874 19.6469 31.0712" stroke="#8CC2CF" stroke-width="3.57527" stroke-miterlimit="10" stroke-linecap="round"/>
<path d="M47.6922 44.9916C65.1239 53.0703 64.7616 41.5874 47.6925 31.0712" stroke="#8CC2CF" stroke-width="3.57527" stroke-miterlimit="10" stroke-linecap="round"/>
<path d="M19.6472 44.9916C2.21551 53.0703 2.57779 41.5874 19.6469 31.0712" stroke="#A2CED8" stroke-width="3.57527" stroke-miterlimit="10" stroke-dasharray="4.43 2.66"/>
<path d="M47.6922 44.9916C65.1239 53.0703 64.7616 41.5874 47.6925 31.0712" stroke="#A2CED8" stroke-width="3.57527" stroke-miterlimit="10" stroke-dasharray="4.43 2.66"/>
<path d="M30.1091 78.4477C30.0381 80.1081 28.6867 81.4262 27.025 81.4557L20.2933 81.5752C19.322 81.5924 18.5356 80.7902 18.5722 79.8194L20.0137 41.597L31.186 53.2671L30.1091 78.4477Z" fill="#FCC027"/>
<path d="M21.8613 45.3309C18.7741 44.6091 14.5435 47.3892 10.5546 47.8727" stroke="#FABC43" stroke-width="6.25672" stroke-miterlimit="10"/>
<path d="M45.4783 45.3309C48.5655 44.6091 52.7961 47.3892 56.785 47.8727" stroke="#FABC43" stroke-width="6.25672" stroke-miterlimit="10"/>
<path d="M19.2017 65.2357C19.1491 65.3396 19.1058 65.4425 19.0612 65.5459L18.9271 68.9294C19.0406 68.9751 19.169 68.9824 19.2957 68.9378C19.998 68.6888 21.0629 68.1464 21.8968 66.9799C22.2303 66.5136 22.4649 66.0332 22.6289 65.5656C22.6558 65.4879 22.7596 65.4947 22.7777 65.5746C22.9 66.1153 23.1057 66.682 23.4375 67.2413C24.1292 68.4083 25.0677 69.0413 25.7179 69.368C26.0444 69.5322 26.4322 69.3297 26.5025 68.9496C26.646 68.174 26.7303 66.9124 26.1866 65.5648C25.886 64.8194 25.4699 64.238 25.0322 63.7877C24.97 63.724 25.0311 63.6163 25.1127 63.6455C25.6871 63.8494 26.3553 63.9739 27.1037 63.9212C28.3955 63.8306 29.3716 63.2534 29.9557 62.8002C30.2497 62.5722 30.2665 62.1063 29.9888 61.8587C29.4226 61.3541 28.434 60.6772 27.0713 60.5431C26.3861 60.4757 25.7647 60.5611 25.2214 60.723C25.1381 60.7478 25.0839 60.6375 25.1494 60.5774C25.5597 60.1983 25.9539 59.7202 26.2779 59.1153C26.9228 57.9109 27.0128 56.7239 26.9827 55.9548C26.9676 55.5673 26.613 55.2987 26.2659 55.412C25.558 55.6434 24.4821 56.1585 23.6228 57.3034C23.2116 57.8511 22.9412 58.4227 22.7653 58.9712C22.7395 59.0512 22.6336 59.0456 22.6156 58.9635C22.4862 58.3783 22.2596 57.7597 21.8812 57.1539C21.1637 56.005 20.2113 55.3957 19.5542 55.0857C19.5288 55.0735 19.5027 55.068 19.4767 55.0602L19.3128 59.1949C19.5642 59.696 19.8642 60.1166 20.1836 60.4607C20.2393 60.5211 20.1865 60.6205 20.1091 60.6004C19.8436 60.5322 19.5601 60.4843 19.2622 60.4609L19.1282 63.8445C19.4879 63.8256 19.8281 63.7711 20.1415 63.686C20.2209 63.6646 20.2732 63.7673 20.214 63.8276C19.8431 64.2033 19.4905 64.6657 19.2017 65.2357Z" fill="#FFA51F"/>
<path d="M19.6853 38.3582L16.6524 41.0279C15.782 41.7938 16.0054 43.196 17.0716 43.6599L22.9499 46.2178C23.4481 46.4347 23.5414 47.0955 23.1217 47.4386L22.3736 48.0504C21.9493 48.3974 22.0499 49.0664 22.5574 49.2765L30.4631 53.8763C31.137 54.155 31.7161 53.3249 31.215 52.7991L20.7017 38.4027C20.431 38.1175 19.9806 38.0979 19.6853 38.3582Z" fill="#FFDF60"/>
<path fill-rule="evenodd" clip-rule="evenodd" d="M47.7727 61.1455C47.7668 61.1442 47.761 61.143 47.7551 61.1419C47.7317 61.1371 47.7083 61.1323 47.6852 61.1234C46.8905 60.8213 45.7287 60.2071 44.8104 58.9841C44.3262 58.3391 44.0202 57.6709 43.8311 57.0337C43.8046 56.9442 43.6793 56.9445 43.6539 57.0342C43.4806 57.6495 43.1971 58.2959 42.7461 58.9244C41.8035 60.2384 40.5661 60.8712 39.7453 61.169C39.3428 61.3148 38.9077 61.0402 38.8656 60.614C38.7821 59.768 38.8144 58.454 39.5002 57.0875C39.8447 56.4012 40.28 55.8503 40.7405 55.4076C40.8141 55.3375 40.7433 55.2191 40.6466 55.2516C40.0155 55.4628 39.2876 55.5944 38.475 55.5615C38.0335 55.5436 37.6225 55.4794 37.2439 55.3849L37.2323 52.3338L37.6321 51.9387C37.8226 51.8973 38.0206 51.8638 38.226 51.8398C39.1058 51.7365 39.9021 51.8334 40.5926 52.0234C40.6906 52.0507 40.756 51.9284 40.6786 51.8619C40.1966 51.4458 39.7281 50.9156 39.3486 50.2419L40.2045 49.396C40.3996 49.3888 40.5497 49.3181 40.5803 49.0991C40.5849 49.0664 40.5918 49.0347 40.6008 49.0042L41.0427 48.5674C41.1806 48.5271 41.3337 48.5309 41.4801 48.5906C41.8599 48.7455 41.8675 48.3137 41.8736 47.9654C41.8751 47.8811 41.8765 47.8018 41.8831 47.7368L42.0263 47.5952C42.0953 47.6387 42.1964 47.7506 42.345 47.9586C42.7713 48.555 43.0494 49.1674 43.2274 49.756C43.2538 49.8429 43.3767 49.8442 43.4036 49.7569C43.5679 49.2316 43.8148 48.6878 44.1793 48.1537C45.0905 46.8175 46.3132 46.1554 47.1263 45.8384C47.273 45.7816 47.425 45.7819 47.5618 45.8254L47.6146 49.5632C47.6095 49.5761 47.6044 49.589 47.5993 49.6019C47.5583 49.7056 47.5175 49.809 47.468 49.9136C47.1629 50.5594 46.7756 51.0903 46.3614 51.5269C46.2953 51.597 46.3635 51.707 46.4558 51.6786C46.8204 51.5659 47.2184 51.4852 47.6416 51.4427L47.6945 55.1806C47.3415 55.1727 47.004 55.137 46.6864 55.0779C46.5939 55.0604 46.5378 55.1732 46.6073 55.2364C47.0056 55.5964 47.3859 56.042 47.7137 56.5791L47.7671 60.3569L47.7727 61.1455Z" fill="#FFA51F"/>
<path d="M48.188 38.1503L51.1113 40.9396C51.9502 41.7399 51.6707 43.132 50.5867 43.5527L44.6104 45.8725C44.1039 46.0692 43.9842 46.7258 44.3898 47.0855L45.1127 47.7267C45.5228 48.0906 45.3954 48.755 44.8799 48.9445L37.9873 53.3067C37.3027 53.5582 36.7575 52.7055 37.2793 52.2002L47.1702 38.1535C47.4525 37.8799 47.9034 37.8784 48.188 38.1503Z" fill="#FFDF60"/>
<path d="M46.7945 25.4234L48.0564 25.5344L47.5699 23.1795L46.4392 21.5771L46.7945 25.4234Z" fill="#0C4CAD"/>
<path d="M39.1779 28.8332C38.9658 28.2602 38.3889 27.848 37.7089 27.8452C37.0288 27.8424 36.4486 28.2499 36.2318 28.8212" stroke="#56D8E3" stroke-width="1.29258" stroke-linecap="round"/>
<path d="M32.6691 29.0723C32.457 28.4994 31.8801 28.0871 31.2001 28.0843C30.52 28.0815 29.9398 28.4891 29.7231 29.0603" stroke="#56D8E3" stroke-width="1.29258" stroke-linecap="round"/>
<ellipse rx="8.34035" ry="6.88985" transform="matrix(1 0 0 -1 42.4273 27.5669)" fill="#30284F" stroke="#30284F" stroke-width="1.88432"/>
<path d="M48.818 23.5545C50.748 24.6433 51.9858 28.3566 50.748 31.1687C49.5102 33.9813 46.6406 35.2582 43.5105 35.6665" stroke="#8CC2CF" stroke-width="3.01898" stroke-miterlimit="10" stroke-linecap="round"/>
<circle r="8.00835" transform="matrix(1 0 0 -1 42.9554 25.3013)" fill="#30284F" stroke="#30284F" stroke-width="1.88432"/>
<path fill-rule="evenodd" clip-rule="evenodd" d="M27.0919 22.6122C23.7245 23.5361 21.4994 26.9188 22.122 30.1677C22.7446 33.4167 25.979 35.3016 29.3464 34.3778C30.9197 33.9461 32.2436 32.9778 33.1442 31.7371C33.5618 31.1619 34.8231 31.14 35.2556 31.7041C36.0563 32.7484 37.1624 33.6088 38.4743 34.1126C41.7336 35.3642 45.0294 33.9413 45.8359 30.9346C46.6423 27.9279 44.6539 24.4759 41.3947 23.2243C39.0511 22.3243 36.6885 22.8072 35.2462 24.2674C34.7575 24.7622 33.5166 24.7543 33.0553 24.2338C31.6725 22.6736 29.4138 21.9752 27.0919 22.6122Z" fill="#30284F"/>
<path d="M22.122 30.1677L21.1967 30.3451L22.122 30.1677ZM27.0919 22.6122L26.8426 21.7036L27.0919 22.6122ZM29.3464 34.3778L29.0971 33.4692V33.4692L29.3464 34.3778ZM38.4743 34.1126L38.8121 33.2331L38.4743 34.1126ZM45.8359 30.9346L44.9259 30.6906V30.6906L45.8359 30.9346ZM41.3947 23.2243L41.0569 24.1038L41.3947 23.2243ZM35.2556 31.7041L36.0033 31.1308L35.2556 31.7041ZM23.0473 29.9904C22.5252 27.2658 24.4062 24.326 27.3412 23.5208L26.8426 21.7036C23.0428 22.7461 20.4736 26.5718 21.1967 30.3451L23.0473 29.9904ZM29.0971 33.4692C26.2068 34.2621 23.5564 32.6474 23.0473 29.9904L21.1967 30.3451C21.9327 34.186 25.7513 36.3411 29.5957 35.2863L29.0971 33.4692ZM32.3818 31.1836C31.6001 32.2604 30.4531 33.0972 29.0971 33.4692L29.5957 35.2863C31.3862 34.7951 32.887 33.6952 33.9067 32.2906L32.3818 31.1836ZM34.5079 32.2773C35.41 33.4538 36.6556 34.4234 38.1366 34.9921L38.8121 33.2331C37.6691 32.7942 36.7027 32.043 36.0033 31.1308L34.5079 32.2773ZM38.1366 34.9921C41.8035 36.4002 45.7646 34.8374 46.7459 31.1787L44.9259 30.6906C44.2943 33.0453 41.6637 34.3281 38.8121 33.2331L38.1366 34.9921ZM46.7459 31.1787C47.6991 27.6245 45.3582 23.7371 41.7324 22.3448L41.0569 24.1038C43.9496 25.2146 45.5854 28.2313 44.9259 30.6906L46.7459 31.1787ZM41.7324 22.3448C39.0899 21.33 36.3172 21.8424 34.5759 23.6053L35.9165 24.9295C37.0598 23.772 39.0123 23.3187 41.0569 24.1038L41.7324 22.3448ZM27.3412 23.5208C29.337 22.9733 31.219 23.5824 32.3503 24.8587L33.7604 23.6089C32.126 21.7648 29.4907 20.9771 26.8426 21.7036L27.3412 23.5208ZM34.5759 23.6053C34.5905 23.5906 34.5702 23.6168 34.4789 23.6457C34.3924 23.673 34.2778 23.6908 34.1519 23.6892C34.0257 23.6877 33.9152 23.6671 33.8353 23.6391C33.751 23.6096 33.7405 23.5864 33.7604 23.6089L32.3503 24.8587C32.8318 25.4021 33.5733 25.5667 34.1291 25.5734C34.6882 25.5802 35.4199 25.4323 35.9165 24.9295L34.5759 23.6053ZM33.9067 32.2906C33.8811 32.3258 33.8756 32.3105 33.942 32.2837C34.0056 32.258 34.0997 32.2372 34.2097 32.2354C34.3197 32.2336 34.4136 32.2514 34.4766 32.2746C34.5424 32.2988 34.5355 32.3133 34.5079 32.2773L36.0033 31.1308C35.5301 30.5137 34.7486 30.342 34.179 30.3513C33.6088 30.3606 32.8362 30.5577 32.3818 31.1836L33.9067 32.2906Z" fill="#30284F"/>
<path d="M19.7098 23.5537C17.7799 24.6424 16.5421 28.3557 17.7799 31.1678C19.0176 33.9805 21.8873 35.2574 25.0173 35.6656" stroke="#8CC2CF" stroke-width="3.01898" stroke-miterlimit="10" stroke-linecap="round"/>
<ellipse cx="26.9534" cy="27.5666" rx="7.1316" ry="6.88985" transform="rotate(180 26.9534 27.5666)" fill="#30284F" stroke="#30284F" stroke-width="1.88432"/>
<circle cx="25.6784" cy="25.3015" r="8.00835" transform="rotate(180 25.6784 25.3015)" fill="#30284F" stroke="#30284F" stroke-width="1.88432"/>
<ellipse rx="6.11241" ry="5.99016" transform="matrix(1 0 0 -1 26.797 25.273)" fill="#36488B"/>
<path d="M41.4711 18.9051C45.0625 18.9051 47.9865 21.7602 47.9865 25.2975C47.9865 28.8347 45.0625 31.6898 41.4711 31.6898C37.8797 31.6898 34.9557 28.8347 34.9557 25.2975C34.9557 21.7602 37.8797 18.9051 41.4711 18.9051Z" fill="#36488B" stroke="#30284F" stroke-width="0.725247"/>
<path fill-rule="evenodd" clip-rule="evenodd" d="M17.2079 25.4581C17.2079 29.9677 20.8636 33.6234 25.3732 33.6234C29.8828 33.6234 33.5386 29.9677 33.5386 25.4581C33.5386 20.9485 29.8828 17.2927 25.3732 17.2927C20.8636 17.2927 17.2079 20.9485 17.2079 25.4581ZM25.3732 34.7122C20.2623 34.7122 16.1191 30.569 16.1191 25.4581C16.1191 20.3472 20.2623 16.204 25.3732 16.204C28.6686 16.204 31.5616 17.9264 33.2012 20.5201C33.5648 21.0954 34.609 21.0954 34.9726 20.5201C36.6122 17.9264 39.5052 16.204 42.8006 16.204C47.9115 16.204 52.0547 20.3472 52.0547 25.4581C52.0547 30.569 47.9115 34.7122 42.8006 34.7122C39.5052 34.7122 36.6122 32.9897 34.9726 30.396C34.609 29.8208 33.5648 29.8208 33.2012 30.396C31.5616 32.9897 28.6686 34.7122 25.3732 34.7122ZM34.6352 25.4581C34.6352 29.9677 38.291 33.6234 42.8006 33.6234C47.3102 33.6234 50.966 29.9677 50.966 25.4581C50.966 20.9485 47.3102 17.2927 42.8006 17.2927C38.291 17.2927 34.6352 20.9485 34.6352 25.4581Z" fill="#615980"/>
<path d="M27.4342 21.5753C27.6588 21.1258 28.2975 21.1258 28.5221 21.5753L29.4065 23.3458C29.4923 23.5175 29.6534 23.6387 29.8415 23.6731L31.7566 24.023C32.2289 24.1094 32.4204 24.6853 32.0946 25.0394L30.7047 26.5498C30.5812 26.6839 30.524 26.8665 30.5486 27.0475L30.8281 29.1002C30.8949 29.5908 30.3836 29.9535 29.9457 29.726L28.2576 28.8494C28.0823 28.7583 27.874 28.7583 27.6987 28.8494L26.0106 29.726C25.5727 29.9535 25.0614 29.5908 25.1282 29.1002L25.4077 27.0475C25.4323 26.8665 25.3751 26.6839 25.2516 26.5498L23.8617 25.0394C23.5359 24.6853 23.7274 24.1094 24.1997 24.023L26.1148 23.6731C26.3029 23.6387 26.464 23.5175 26.5498 23.3458L27.4342 21.5753Z" fill="#56D8E3"/>
<path d="M39.6435 21.5751C39.8695 21.1226 40.5124 21.1226 40.7385 21.5751L41.6288 23.3573C41.7151 23.5301 41.8773 23.6521 42.0666 23.6867L43.9944 24.039C44.4698 24.1259 44.6626 24.7056 44.3346 25.062L42.9355 26.5824C42.8112 26.7174 42.7536 26.9012 42.7784 27.0834L43.0598 29.1497C43.127 29.6435 42.6123 30.0085 42.1715 29.7796L40.4723 28.8972C40.2958 28.8055 40.0861 28.8055 39.9096 28.8972L38.2104 29.7796C37.7696 30.0085 37.2549 29.6435 37.3222 29.1497L37.6035 27.0834C37.6283 26.9012 37.5707 26.7174 37.4464 26.5824L36.0473 25.062C35.7194 24.7056 35.9121 24.1259 36.3875 24.039L38.3153 23.6867C38.5046 23.6521 38.6668 23.5301 38.7531 23.3573L39.6435 21.5751Z" fill="#56D8E3"/>
<ellipse opacity="0.5" cx="25.9555" cy="23.8276" rx="4.67625" ry="3.29749" transform="rotate(-25.977 25.9555 23.8276)" fill="white"/>
<ellipse opacity="0.5" cx="40.5902" cy="23.8192" rx="4.70711" ry="3.31925" transform="rotate(-25.977 40.5902 23.8192)" fill="white"/>
</g>
</svg>

