<?xml version="1.0"?>
<svg xmlns="http://www.w3.org/2000/svg" viewBox="0 0 112 112" fill="none">
<mask id="mask0" mask-type="alpha" maskUnits="userSpaceOnUse" x="0" y="0" width="112" height="112">
<rect width="112" height="112" fill="white"/>
</mask>
<g mask="url(#mask0)">
<rect x="83.8555" y="73.3311" width="17.5973" height="16.089" rx="4.02225" transform="rotate(-4.99358 83.8555 73.3311)" fill="#2B2C49"/>
<path d="M53.1104 21.501C65.3711 20.4296 75.0278 20.4156 76.7243 20.4224C76.8895 20.423 77.0418 20.5094 77.1282 20.6501L77.183 20.7393C77.2446 20.8396 77.3576 20.8964 77.4749 20.8862L77.534 20.881C77.6723 20.8689 77.7746 20.747 77.7625 20.6087L77.7453 20.4116C77.7427 20.3822 77.7645 20.3562 77.7939 20.3537C78.4751 20.2942 79.1376 20.5959 79.5398 21.1487L91.2252 37.2096L100.57 48.085C102.969 50.8779 104.432 54.3532 104.753 58.0214L105.046 61.3764L105.137 75.9816C105.152 78.3496 103.512 80.4069 101.2 80.9208L88.3293 83.782L58.7778 86.3641L53.1104 21.501Z" fill="#C52222"/>
<path d="M73.2995 79.2922L58.7766 86.3651L90.1152 83.096C93.7305 82.7188 95.448 78.4483 93.1005 75.673L92.5448 75.016C91.7374 74.0616 90.4323 73.6914 89.2441 74.0798L73.2995 79.2922Z" fill="#FF574C"/>
<path d="M100.567 48.0852L93.1495 39.4519L91.1667 52.7473C94.3841 51.5409 101.226 49.5973 102.853 51.4739C102.229 50.2661 101.463 49.1281 100.567 48.0852Z" fill="#C52222"/>
<path d="M94.4378 41.1049C93.9963 47.6036 92.239 51.5592 91.4155 52.7246C85.6923 54.2341 78.7394 58.7951 75.9784 60.8869C74.0936 53.1783 83.3465 43.1675 88.2085 39.1257L91.8994 38.0461L94.4378 41.1049Z" fill="#D22020"/>
<path d="M91.4179 52.7262C92.2413 51.5608 93.7701 47.8775 94.2116 41.3788" stroke="#871818" stroke-width="0.905006" stroke-linecap="round"/>
<path d="M83.895 30.1675L77.5331 20.8818" stroke="#532A21" stroke-width="0.905006" stroke-linecap="round"/>
<path d="M75.7766 60.3271C65.592 59.4238 56.5246 60.6058 56.5246 60.6058L56.9404 65.3646L59.4764 62.6195L75.7636 61.1964C76.3573 61.1445 76.3703 60.3797 75.7766 60.3271Z" fill="#532A21"/>
<path d="M90.8172 69.5685C90.6984 69.6524 90.5477 69.6807 90.4068 69.6451C82.6992 67.6958 77.6653 62.7242 76.3341 61.2834C76.1373 61.0703 76.1817 60.74 76.4176 60.571C89.1697 51.438 101.498 49.5427 102.644 51.2386C103.86 53.0387 104.437 55.4642 104.745 57.7613C105.161 60.8624 103.026 63.7512 100.018 64.6134L98.384 65.0818C97.0273 65.4707 95.7458 66.0853 94.5933 66.8998L90.8172 69.5685Z" fill="#E83434"/>
<path d="M76.7301 60.8211C79.2223 57.5752 82.0473 53.5735 91.0779 51.7447" stroke="#871818" stroke-width="0.80445" stroke-linecap="round"/>
<path d="M70.9509 74.1549C74.7636 73.6059 85.1094 71.6955 88.7956 70.367C97.4613 70.4147 92.976 72.5338 87.6457 74.2372C85.1782 75.0258 82.6127 75.4495 80.0321 75.675L71.1581 76.4504C70.5357 76.5048 69.987 76.0443 69.9326 75.4218C69.8782 74.7994 70.3324 74.2439 70.9509 74.1549Z" fill="#E95858"/>
<mask id="path-13-outside-1" maskUnits="userSpaceOnUse" x="76.866" y="48.6336" width="24.8664" height="13.0473" fill="black">
<rect fill="white" x="76.866" y="48.6336" width="24.8664" height="13.0473"/>
<path d="M99.4525 56.4538C99.9514 53.7206 99.4407 51.623 98.7819 50.1525C98.6935 49.9551 98.4827 49.8445 98.2686 49.8749C92.167 50.7433 87.3703 52.4887 83.8168 54.0656C81.6255 55.0381 78.5994 59.0734 78.5994 59.0734L83.0311 59.4489C83.8722 59.5202 84.7186 59.4991 85.5551 59.3862L92.0451 58.5098C92.5134 58.4465 92.9896 58.5382 93.4009 58.7709C93.9767 59.0967 94.6699 59.1412 95.2827 58.8919L98.5089 57.5795C98.9921 57.3829 99.3588 56.9671 99.4525 56.4538Z"/>
</mask>
<path d="M99.4525 56.4538C99.9514 53.7206 99.4407 51.623 98.7819 50.1525C98.6935 49.9551 98.4827 49.8445 98.2686 49.8749C92.167 50.7433 87.3703 52.4887 83.8168 54.0656C81.6255 55.0381 78.5994 59.0734 78.5994 59.0734L83.0311 59.4489C83.8722 59.5202 84.7186 59.4991 85.5551 59.3862L92.0451 58.5098C92.5134 58.4465 92.9896 58.5382 93.4009 58.7709C93.9767 59.0967 94.6699 59.1412 95.2827 58.8919L98.5089 57.5795C98.9921 57.3829 99.3588 56.9671 99.4525 56.4538Z" fill="#343180"/>
<path d="M98.7819 50.1525L98.0477 50.4814L98.0477 50.4814L98.7819 50.1525ZM99.4525 56.4538L100.244 56.5983L100.244 56.5983L99.4525 56.4538ZM98.5089 57.5795L98.2057 56.8344L98.5089 57.5795ZM95.2827 58.8919L95.5859 59.6371L95.5859 59.6371L95.2827 58.8919ZM92.0451 58.5098L91.9375 57.7125L91.9375 57.7125L92.0451 58.5098ZM85.5551 59.3862L85.4475 58.589L85.4475 58.589L85.5551 59.3862ZM83.0311 59.4489L83.0991 58.6473L83.0991 58.6473L83.0311 59.4489ZM78.5994 59.0734L77.9558 58.5907C77.7804 58.8247 77.7457 59.1355 77.8654 59.4024C77.985 59.6693 78.2401 59.8503 78.5315 59.875L78.5994 59.0734ZM83.8168 54.0656L83.4905 53.3303L83.8168 54.0656ZM98.2686 49.8749L98.3819 50.6714L98.3819 50.6714L98.2686 49.8749ZM93.4009 58.7709L93.0048 59.4711L93.0048 59.4711L93.4009 58.7709ZM98.0477 50.4814C98.6492 51.824 99.127 53.7569 98.6611 56.3094L100.244 56.5983C100.776 53.6844 100.232 51.4219 99.516 49.8236L98.0477 50.4814ZM98.2057 56.8344L94.9796 58.1468L95.5859 59.6371L98.812 58.3247L98.2057 56.8344ZM91.9375 57.7125L85.4475 58.589L85.6628 60.1834L92.1528 59.307L91.9375 57.7125ZM83.0991 58.6473L78.6674 58.2718L78.5315 59.875L82.9632 60.2505L83.0991 58.6473ZM78.5994 59.0734C79.243 59.556 79.243 59.5561 79.2429 59.5561C79.243 59.5561 79.2429 59.5561 79.2429 59.5561C79.243 59.5561 79.243 59.556 79.2431 59.5559C79.2434 59.5556 79.2438 59.555 79.2443 59.5543C79.2455 59.5527 79.2474 59.5502 79.25 59.5468C79.2551 59.5399 79.2631 59.5294 79.2738 59.5153C79.2952 59.4873 79.3274 59.4452 79.3695 59.391C79.4536 59.2825 79.577 59.1253 79.7322 58.9332C80.0431 58.5485 80.4792 58.0264 80.9809 57.4761C81.4838 56.9244 82.0447 56.353 82.6052 55.8652C83.1745 55.3698 83.7035 54.996 84.1432 54.8009L83.4905 53.3303C82.8345 53.6215 82.1635 54.1168 81.549 54.6515C80.9259 55.1938 80.3194 55.8136 79.7919 56.3922C79.2631 56.9723 78.8057 57.5199 78.4808 57.9221C78.318 58.1235 78.1879 58.2892 78.098 58.4052C78.053 58.4632 78.0181 58.5088 77.9941 58.5403C77.9821 58.5561 77.9728 58.5683 77.9664 58.5768C77.9632 58.581 77.9607 58.5843 77.9589 58.5866C77.958 58.5878 77.9573 58.5887 77.9568 58.5894C77.9566 58.5898 77.9564 58.5901 77.9562 58.5903C77.9561 58.5904 77.956 58.5905 77.956 58.5906C77.9559 58.5907 77.9558 58.5907 78.5994 59.0734ZM84.1432 54.8009C87.6496 53.2448 92.3733 51.5265 98.3819 50.6714L98.1552 49.0785C91.9606 49.9602 87.0911 51.7325 83.4905 53.3303L84.1432 54.8009ZM85.4475 58.589C84.6691 58.6941 83.8817 58.7136 83.0991 58.6473L82.9632 60.2505C83.8628 60.3267 84.7681 60.3042 85.6628 60.1834L85.4475 58.589ZM93.797 58.0707C93.2328 57.7516 92.5798 57.6258 91.9375 57.7125L92.1528 59.307C92.4471 59.2672 92.7463 59.3249 93.0048 59.4711L93.797 58.0707ZM94.9796 58.1468C94.5945 58.3035 94.1589 58.2754 93.797 58.0707L93.0048 59.4711C93.7946 59.9179 94.7453 59.979 95.5859 59.6371L94.9796 58.1468ZM98.6611 56.3094C98.6216 56.5261 98.4597 56.731 98.2057 56.8344L98.812 58.3247C99.5245 58.0348 100.096 57.408 100.244 56.5983L98.6611 56.3094ZM99.516 49.8236C99.2744 49.2843 98.7084 48.9998 98.1552 49.0785L98.3819 50.6714C98.2569 50.6892 98.1125 50.626 98.0477 50.4814L99.516 49.8236Z" fill="#871818" mask="url(#path-13-outside-1)"/>
<path d="M95.8943 51.5771L95.6651 52.3068C95.1615 53.9096 93.8113 55.1015 92.1584 55.4024L81.1322 57.4092C81.9859 56.7631 83.3818 55.0616 86.1875 53.9393C89.3279 52.6832 93.9514 52.0134 95.8943 51.5771Z" fill="#83A5BE"/>
<path d="M93.5297 52.6249C93.6157 53.6084 92.8881 54.4753 91.9046 54.5613C90.9211 54.6472 90.0542 53.9196 89.9683 52.9361C89.8823 51.9527 90.6488 51.5309 91.6323 51.445C92.6158 51.3591 93.4438 51.6415 93.5297 52.6249Z" fill="#92B9D7"/>
<path d="M89.328 53.6964C89.4017 54.5394 88.778 55.2824 87.935 55.3561C87.092 55.4297 86.349 54.8061 86.2753 53.9631C86.2017 53.1201 86.8587 52.7586 87.7016 52.685C88.5446 52.6113 89.2543 52.8534 89.328 53.6964Z" fill="#92B9D7"/>
<path d="M85.7635 54.7122C85.8249 55.4146 85.3052 56.0339 84.6027 56.0952C83.9002 56.1566 83.281 55.6369 83.2196 54.9344C83.1582 54.232 83.7057 53.9307 84.4082 53.8693C85.1107 53.808 85.7021 54.0097 85.7635 54.7122Z" fill="#92B9D7"/>
<path d="M99.482 56.2479C99.9216 53.547 99.4258 51.5798 98.7827 50.1523C98.6939 49.9551 98.4837 49.8444 98.2696 49.8747C92.2326 50.729 86.5908 52.442 83.0167 54.4335C80.7162 55.7154 78.5994 59.0734 78.5994 59.0734L80.1302 59.2641C80.1302 59.2641 82.8284 55.8963 84.1553 55.1993C89.3771 52.4561 97.4909 51.4385 97.4909 51.4385C98.1735 52.6578 98.3568 54.0041 98.3803 54.9886C98.4016 55.8751 97.7956 56.6103 96.9684 56.9299L92.7548 58.5575L93.3179 58.821C93.9523 59.1178 94.6818 59.1365 95.3306 58.8726L98.3169 57.6577C98.9202 57.4123 99.3774 56.8908 99.482 56.2479Z" fill="#A5D8FF"/>
<path d="M86.3927 82.4357L87.1422 78.1332C87.3148 77.1421 87.9617 76.2983 88.8739 75.8742L100.118 70.6469C100.439 70.4975 100.809 70.7182 100.831 71.0718L101.079 75.0769C101.23 77.5232 99.627 79.7337 97.2547 80.3496L87.0144 83.0086C86.6605 83.1005 86.33 82.7959 86.3927 82.4357Z" fill="#2F1940"/>
<path opacity="0.2" d="M96.4697 78.8813C97.8867 78.3215 100.577 72.9819 97.703 73.8277C96.1249 74.2922 92.6841 75.8866 92.6841 75.8866C92.6841 75.8866 90.0414 77.398 90.5284 79.1147C90.9086 80.455 93.4403 80.0779 96.4697 78.8813Z" fill="#9DB4F0"/>
<rect width="17.5973" height="16.089" rx="4.02225" transform="matrix(-0.996204 0.0870441 0.0870441 0.996204 31.7861 77.8809)" fill="#2B2C49"/>
<path d="M53.1285 21.499C40.8677 22.5701 31.355 24.2312 29.6853 24.532C29.5228 24.5613 29.3877 24.6728 29.327 24.8263L29.2885 24.9237C29.2453 25.0331 29.1439 25.1087 29.0266 25.119L28.9675 25.1242C28.8292 25.1362 28.7073 25.0339 28.6952 24.8956V24.8956C28.6831 24.7573 28.5612 24.655 28.4229 24.6671L28.3995 24.6691C27.8552 24.7167 27.3756 25.0459 27.1357 25.5368L18.3156 43.5797L10.9989 55.9109C9.11996 59.0776 8.2817 62.754 8.60222 66.4222L8.89537 69.7773L11.3389 84.1768C11.735 86.5115 13.7067 88.2533 16.0725 88.3585L29.2445 88.9442L58.796 86.3621L56.1235 24.3676C56.0543 22.7637 54.7339 21.499 53.1285 21.499V21.499Z" fill="#C52222"/>
<path d="M39.4225 81.4942L54.9519 85.9413L34.5174 88.8479C34.2039 88.8925 33.8866 88.9041 33.5706 88.8824L23.944 88.2222C21.4984 88.0545 19.7164 85.8353 20.0807 83.4112C20.4615 80.8778 22.8145 79.1259 25.3507 79.4875L39.4225 81.4942Z" fill="#FF574C"/>
<path d="M10.9998 55.9112L16.808 46.1223L21.0666 58.8723C17.6887 58.2422 10.6136 57.5145 9.33644 59.6449C9.7417 58.3472 10.2982 57.0937 10.9998 55.9112Z" fill="#C52222"/>
<path d="M15.8254 47.9748C17.3874 54.2985 19.804 57.8894 20.8171 58.8944C26.7155 59.3884 34.3539 62.6744 37.4359 64.2557C37.9552 56.3371 27.1064 48.0827 21.6171 44.9453L17.7949 44.5222L15.8254 47.9748Z" fill="#D22020"/>
<path d="M20.8153 58.8942C19.8023 57.8892 17.6579 54.5269 16.096 48.2032" stroke="#871818" stroke-width="0.905006" stroke-linecap="round"/>
<path d="M24.517 35.1029L28.945 25.1268" stroke="#532A21" stroke-width="0.905006" stroke-linecap="round"/>
<path fill-rule="evenodd" clip-rule="evenodd" d="M88.4595 39.1035C88.4595 39.1035 76.5004 51.9401 76.1079 59.8727C76.0805 60.4274 75.6754 60.9131 75.1222 60.9614L57.6971 62.484C57.1966 62.5277 56.7498 62.197 56.6333 61.724C56.6006 62.2101 56.218 62.6133 55.7175 62.6571L38.2924 64.1796C37.7391 64.228 37.2559 63.8198 37.1327 63.2783C35.3705 55.5339 21.3664 44.966 21.3664 44.966L54.901 42.0358L54.901 42.0357L88.4595 39.1035Z" fill="#E83434"/>
<path fill-rule="evenodd" clip-rule="evenodd" d="M26.3361 75.6582C25.8785 75.5594 25.8574 74.9631 26.2853 74.7732C33.5334 71.5563 36.5191 66.1986 37.2488 64.6713C37.3615 64.4354 37.2522 64.1635 37.0165 64.0502C22.8466 57.2346 10.3392 57.504 9.50319 59.3759C8.61745 61.3596 8.47033 63.8484 8.56538 66.1641C8.69369 69.2903 11.2974 71.765 14.4091 72.0925L16.0994 72.2705C17.503 72.4182 18.8716 72.8013 20.148 73.4036L22.2867 74.4128C22.7307 74.6224 22.642 75.2788 22.1582 75.3629L15.5287 76.5155C15.0134 76.6051 14.9657 77.3202 15.4643 77.4785C21.8955 79.5204 26.4122 80.5288 29.0033 81.0094C30.7341 81.3305 32.4972 81.3399 34.2509 81.1866L59.8903 78.9464C59.8905 78.9464 59.8907 78.9462 59.8906 78.946C59.8906 78.9457 59.8908 78.9455 59.891 78.9455L82.0486 77.0095C83.8022 76.8563 85.537 76.5412 87.1859 75.9249C89.6544 75.0021 93.9277 73.2257 99.9074 70.0995C100.371 69.8571 100.2 69.1611 99.6769 69.1622L90.9458 69.1811C90.8333 69.1814 90.7317 69.2148 90.6406 69.2808C86.0868 72.5756 63.9926 75.1647 58.6607 75.6996C53.3782 76.0949 33.7498 77.2586 26.3361 75.6582Z" fill="#E83434"/>
<path d="M76.869 60.9292C66.2665 59.8435 56.568 61.1078 56.568 61.1078L56.8947 64.8466L57.2214 68.5854L60.5391 64.8817C60.7728 64.6209 61.0885 64.4477 61.434 64.3909L76.8869 61.8484C77.4529 61.7553 77.4396 60.9876 76.869 60.9292Z" fill="#A8DDF3"/>
<path d="M37.455 64.7576C31.2136 59.7513 30.1898 58.1046 20.9789 57.8697" stroke="#871818" stroke-width="0.80445" stroke-linecap="round"/>
<mask id="path-33-outside-2" maskUnits="userSpaceOnUse" x="10.8928" y="54.3962" width="24.8664" height="13.0473" fill="black">
<rect fill="white" x="10.8928" y="54.3962" width="24.8664" height="13.0473"/>
<path d="M13.5514 63.9577C12.5861 61.3524 12.7253 59.198 13.119 57.6355C13.1719 57.4258 13.3603 57.2803 13.5764 57.2732C19.7362 57.0702 24.7628 57.9572 28.536 58.894C30.8628 59.4717 34.5428 62.921 34.5428 62.921L30.2434 64.0595C29.4274 64.2755 28.5902 64.4016 27.7467 64.4354L21.2031 64.6978C20.7309 64.7167 20.2779 64.8896 19.9132 65.1901C19.4025 65.6108 18.7276 65.7749 18.0808 65.6357L14.676 64.9027C14.1659 64.7929 13.7327 64.4469 13.5514 63.9577Z"/>
</mask>
<path d="M13.5514 63.9577C12.5861 61.3524 12.7253 59.198 13.119 57.6355C13.1719 57.4258 13.3603 57.2803 13.5764 57.2732C19.7362 57.0702 24.7628 57.9572 28.536 58.894C30.8628 59.4717 34.5428 62.921 34.5428 62.921L30.2434 64.0595C29.4274 64.2755 28.5902 64.4016 27.7467 64.4354L21.2031 64.6978C20.7309 64.7167 20.2779 64.8896 19.9132 65.1901C19.4025 65.6108 18.7276 65.7749 18.0808 65.6357L14.676 64.9027C14.1659 64.7929 13.7327 64.4469 13.5514 63.9577Z" fill="#343180"/>
<path d="M13.119 57.6355L13.8991 57.8321L13.8991 57.8321L13.119 57.6355ZM13.5514 63.9577L12.7971 64.2372L12.7971 64.2372L13.5514 63.9577ZM14.676 64.9027L14.8453 64.1162L14.676 64.9027ZM18.0808 65.6357L17.9115 66.4221L17.9115 66.4221L18.0808 65.6357ZM21.2031 64.6978L21.1709 63.894L21.1709 63.894L21.2031 64.6978ZM27.7467 64.4354L27.7145 63.6316L27.7145 63.6316L27.7467 64.4354ZM30.2434 64.0595L30.0374 63.2818L30.0374 63.2818L30.2434 64.0595ZM34.5428 62.921L35.0929 62.3341C35.3063 62.5341 35.3943 62.8342 35.3228 63.1178C35.2513 63.4014 35.0314 63.6238 34.7487 63.6987L34.5428 62.921ZM28.536 58.894L28.7298 58.1133L28.536 58.894ZM13.5764 57.2732L13.6029 58.0772L13.6029 58.0772L13.5764 57.2732ZM19.9132 65.1901L20.4247 65.811L20.4247 65.811L19.9132 65.1901ZM13.8991 57.8321C13.5396 59.2587 13.4042 61.2452 14.3057 63.6782L12.7971 64.2372C11.7679 61.4597 11.911 59.1372 12.339 57.4389L13.8991 57.8321ZM14.8453 64.1162L18.2501 64.8493L17.9115 66.4221L14.5067 65.6891L14.8453 64.1162ZM21.1709 63.894L27.7145 63.6316L27.779 65.2392L21.2353 65.5016L21.1709 63.894ZM30.0374 63.2818L34.3369 62.1434L34.7487 63.6987L30.4493 64.8371L30.0374 63.2818ZM34.5428 62.921C33.9926 63.508 33.9927 63.508 33.9927 63.508C33.9927 63.508 33.9928 63.5081 33.9927 63.5081C33.9927 63.508 33.9926 63.508 33.9925 63.5078C33.9922 63.5076 33.9918 63.5071 33.9911 63.5065C33.9896 63.5051 33.9873 63.503 33.9842 63.5001C33.9779 63.4942 33.9682 63.4852 33.9552 63.4733C33.9293 63.4493 33.8903 63.4135 33.8395 63.3674C33.7378 63.2751 33.589 63.1417 33.4029 62.9795C33.03 62.6544 32.5099 62.216 31.9204 61.761C31.3294 61.3048 30.6779 60.8394 30.0413 60.4562C29.3947 60.067 28.8089 59.7906 28.3421 59.6747L28.7298 58.1133C29.4264 58.2862 30.1731 58.6577 30.871 59.0777C31.5788 59.5037 32.2836 60.0089 32.9034 60.4873C33.5248 60.9669 34.0702 61.4268 34.46 61.7666C34.6552 61.9368 34.8121 62.0774 34.9207 62.176C34.9751 62.2253 35.0174 62.2642 35.0465 62.291C35.0611 62.3045 35.0723 62.3149 35.0801 62.3221C35.084 62.3258 35.087 62.3286 35.0892 62.3306C35.0902 62.3316 35.0911 62.3324 35.0917 62.333C35.092 62.3333 35.0923 62.3335 35.0925 62.3337C35.0926 62.3338 35.0927 62.3339 35.0928 62.3339C35.0928 62.334 35.0929 62.3341 34.5428 62.921ZM28.3421 59.6747C24.6189 58.7504 19.6688 57.8773 13.6029 58.0772L13.5499 56.4691C19.8036 56.2631 24.9067 57.1641 28.7298 58.1133L28.3421 59.6747ZM27.7145 63.6316C28.4993 63.6001 29.2782 63.4828 30.0374 63.2818L30.4493 64.8371C29.5765 65.0682 28.6811 65.203 27.779 65.2392L27.7145 63.6316ZM19.4016 64.5692C19.9019 64.1571 20.5232 63.92 21.1709 63.894L21.2353 65.5016C20.9386 65.5135 20.6539 65.6222 20.4247 65.811L19.4016 64.5692ZM18.2501 64.8493C18.6566 64.9368 19.0808 64.8336 19.4016 64.5692L20.4247 65.811C19.7243 66.388 18.7986 66.6131 17.9115 66.4221L18.2501 64.8493ZM14.3057 63.6782C14.3823 63.8848 14.5772 64.0585 14.8453 64.1162L14.5067 65.6891C13.7546 65.5272 13.0831 65.009 12.7971 64.2372L14.3057 63.6782ZM12.339 57.4389C12.4834 56.8659 12.9915 56.4875 13.5499 56.4691L13.6029 58.0772C13.7291 58.073 13.8604 57.9858 13.8991 57.8321L12.339 57.4389Z" fill="#871818" mask="url(#path-33-outside-2)"/>
<path d="M16.2092 58.5401L16.5615 59.219C17.3355 60.7102 18.8719 61.6498 20.552 61.6595L31.7591 61.7237C30.8062 61.2354 29.1364 59.8018 26.1786 59.1831C22.8679 58.4906 18.1984 58.6328 16.2092 58.5401Z" fill="#83A5BE"/>
<path d="M18.5455 59.1741C18.6314 60.1575 19.4983 60.8851 20.4818 60.7992C21.4653 60.7133 22.1929 59.8464 22.1069 58.8629C22.021 57.8794 21.193 57.597 20.2095 57.6829C19.226 57.7689 18.4595 58.1906 18.5455 59.1741Z" fill="#92B9D7"/>
<path d="M22.8691 59.5023C22.9428 60.3453 23.6859 60.9689 24.5288 60.8953C25.3718 60.8216 25.9955 60.0786 25.9218 59.2356C25.8481 58.3926 25.1384 58.1505 24.2954 58.2242C23.4525 58.2978 22.7955 58.6593 22.8691 59.5023Z" fill="#92B9D7"/>
<path d="M26.5561 59.8852C26.6174 60.5877 27.2367 61.1074 27.9391 61.046C28.6416 60.9847 29.1613 60.3654 29.1 59.6629C29.0386 58.9605 28.4471 58.7587 27.7447 58.8201C27.0422 58.8815 26.4947 59.1827 26.5561 59.8852Z" fill="#92B9D7"/>
<path d="M13.4867 63.76C12.5853 61.1763 12.7325 59.1528 13.1182 57.6354C13.1715 57.4259 13.3593 57.2804 13.5754 57.2731C19.6691 57.0674 25.5225 57.7761 29.3878 59.1176C31.8758 59.981 34.5428 62.921 34.5428 62.921L33.0683 63.3743C33.0683 63.3743 29.8269 60.5255 28.3992 60.0691C22.7808 58.2732 14.6135 58.6781 14.6135 58.6781C14.1527 59.9974 14.2057 61.3551 14.3532 62.3287C14.4861 63.2055 15.2103 63.8245 16.0804 63.9957L20.5125 64.8679L20.0036 65.2251C19.4303 65.6274 18.7151 65.7724 18.0304 65.6249L14.8786 64.9464C14.2419 64.8093 13.7012 64.375 13.4867 63.76Z" fill="#A5D8FF"/>
<path fill-rule="evenodd" clip-rule="evenodd" d="M42.7483 80.4469L58.1651 79.0998L58.1652 79.1013L73.5587 77.7563L83.8011 76.8613C84.7674 76.7769 85.561 77.6134 85.426 78.5739L84.9233 82.1507C84.8255 82.8462 84.2606 83.3822 83.5609 83.4434L58.7108 85.6147L58.7107 85.6132L33.884 87.7825C33.1842 87.8436 32.535 87.4137 32.318 86.7456L31.2026 83.3102C30.903 82.3876 31.5396 81.4262 32.5059 81.3418L42.7483 80.4469Z" fill="#12132D"/>
<mask id="mask1" mask-type="alpha" maskUnits="userSpaceOnUse" x="31" y="76" width="55" height="12">
<path fill-rule="evenodd" clip-rule="evenodd" d="M73.5576 77.7538L58.1643 79.0988L58.1408 79.1009L42.7475 80.4459L32.5051 81.3408C31.5388 81.4252 30.9023 82.3867 31.2018 83.3092L32.3173 86.7447C32.5342 87.4127 33.1835 87.8426 33.8832 87.7815L58.7097 85.6122L58.7332 85.6102L83.5598 83.4409C84.2595 83.3798 84.8244 82.8438 84.9222 82.1483L85.4249 78.5715C85.5599 77.6109 84.7663 76.7745 83.8 76.8589L73.5576 77.7538Z" fill="#212353"/>
</mask>
<g mask="url(#mask1)">
<path fill-rule="evenodd" clip-rule="evenodd" d="M89.0643 74.8829C88.926 74.895 88.8237 75.0169 88.8358 75.1552L88.9144 76.0547C88.9385 76.3313 88.7339 76.5752 88.4572 76.5993L87.681 76.6672C87.4044 76.6913 87.1606 76.4867 87.1364 76.21L87.058 75.3124C87.0459 75.1741 86.9239 75.0717 86.7856 75.0838C86.6473 75.0959 86.545 75.2178 86.5571 75.3561L86.6355 76.2538C86.6597 76.5304 86.455 76.7743 86.1784 76.7984L85.398 76.8666C85.1214 76.8908 84.8775 76.6862 84.8534 76.4095L84.7748 75.5107C84.7627 75.3724 84.6408 75.2701 84.5025 75.2821C84.3642 75.2942 84.2619 75.4161 84.2739 75.5545L84.3525 76.4533C84.3766 76.7299 84.172 76.9738 83.8954 76.9979L83.1149 77.0661C82.8383 77.0903 82.5944 76.8856 82.5702 76.609L82.4917 75.7102C82.4796 75.5719 82.3577 75.4696 82.2194 75.4817C82.0811 75.4937 81.9788 75.6157 81.9908 75.754L82.0694 76.6528C82.0935 76.9294 81.8889 77.1732 81.6123 77.1974L80.8361 77.2652C80.5595 77.2894 80.3156 77.0847 80.2915 76.8081L80.213 75.9097C80.2009 75.7714 80.079 75.6691 79.9407 75.6812C79.8023 75.6932 79.7 75.8152 79.7121 75.9535L79.7906 76.8519C79.8148 77.1285 79.6101 77.3724 79.3335 77.3965L78.553 77.4647C78.2764 77.4889 78.0325 77.2842 78.0084 77.0076L77.9299 76.1094C77.9178 75.971 77.7959 75.8687 77.6576 75.8808C77.5192 75.8929 77.4169 76.0148 77.429 76.1531L77.5075 77.0514C77.5317 77.328 77.327 77.5718 77.0504 77.596L76.2708 77.6641C75.9942 77.6883 75.7504 77.4836 75.7262 77.207L75.6478 76.3091C75.6357 76.1708 75.5137 76.0685 75.3754 76.0805C75.2371 76.0926 75.1348 76.2145 75.1469 76.3529L75.2253 77.2508C75.2495 77.5274 75.0449 77.7712 74.7682 77.7954L73.9878 77.8636C73.7112 77.8878 73.4673 77.6831 73.4432 77.4065L73.3646 76.5073C73.3525 76.369 73.2306 76.2667 73.0923 76.2787C72.954 76.2908 72.8516 76.4127 72.8637 76.5511L72.9423 77.4503C72.9665 77.7269 72.7618 77.9707 72.4852 77.9949L71.7085 78.0628C71.4319 78.0869 71.188 77.8823 71.1639 77.6057L71.0854 76.7081C71.0733 76.5698 70.9514 76.4675 70.8131 76.4796C70.6748 76.4917 70.5725 76.6136 70.5846 76.7519L70.663 77.6494C70.6872 77.926 70.4825 78.1699 70.2059 78.1941L69.4259 78.2622C69.1492 78.2864 68.9054 78.0817 68.8812 77.8051L68.8028 76.9078C68.7907 76.7695 68.6688 76.6671 68.5305 76.6792C68.3922 76.6913 68.2899 76.8132 68.3019 76.9515L68.3804 77.8489C68.4045 78.1255 68.1999 78.3693 67.9232 78.3935L67.1428 78.4617C66.8662 78.4859 66.6224 78.2812 66.5982 78.0046L66.5197 77.106C66.5076 76.9677 66.3857 76.8653 66.2474 76.8774C66.109 76.8895 66.0067 77.0114 66.0188 77.1497L66.0973 78.0483C66.1215 78.325 65.9168 78.5688 65.6402 78.593L64.8641 78.6608C64.5874 78.685 64.3436 78.4803 64.3194 78.2037L64.2409 77.3056C64.2289 77.1673 64.1069 77.0649 63.9686 77.077C63.8303 77.0891 63.728 77.211 63.7401 77.3493L63.8185 78.2475C63.8427 78.5241 63.6381 78.7679 63.3614 78.7921L62.5805 78.8603C62.3038 78.8845 62.06 78.6798 62.0358 78.4032L61.9574 77.5052C61.9453 77.3669 61.8234 77.2646 61.685 77.2767C61.5467 77.2888 61.4444 77.4107 61.4565 77.549L61.5349 78.447C61.5591 78.7236 61.3545 78.9675 61.0778 78.9916L60.2988 79.0597C60.0222 79.0839 59.7783 78.8792 59.7542 78.6026L59.6757 77.7047C59.6636 77.5664 59.5417 77.4641 59.4034 77.4762C59.2651 77.4883 59.1628 77.6102 59.1748 77.7485L59.2533 78.6463C59.2775 78.923 59.0728 79.1668 58.7962 79.191L58.0158 79.2592C57.7391 79.2833 57.4953 79.0787 57.4711 78.8021L57.3926 77.9032C57.3805 77.7648 57.2586 77.6625 57.1203 77.6746C56.9819 77.6867 56.8796 77.8086 56.8917 77.9469L56.9702 78.8458C56.9944 79.1225 56.7898 79.3663 56.5131 79.3905L55.7365 79.4583C55.4599 79.4825 55.216 79.2778 55.1919 79.0012L55.1133 78.1024C55.1013 77.9641 54.9793 77.8618 54.841 77.8739C54.7027 77.886 54.6004 78.0079 54.6125 78.1462L54.691 79.045C54.7152 79.3216 54.5105 79.5654 54.2339 79.5896L53.4538 79.6578C53.1772 79.6819 52.9333 79.4773 52.9092 79.2007L52.8308 78.3038C52.8187 78.1654 52.6968 78.0631 52.5585 78.0752C52.4202 78.0873 52.3178 78.2092 52.3299 78.3475L52.4083 79.2444C52.4325 79.5211 52.2278 79.7649 51.9512 79.7891L51.1708 79.8573C50.8941 79.8814 50.6503 79.6768 50.6261 79.4002L50.5476 78.5018C50.5356 78.3635 50.4136 78.2612 50.2753 78.2733C50.137 78.2854 50.0347 78.4073 50.0468 78.5456L50.1253 79.4439C50.1494 79.7205 49.9448 79.9644 49.6682 79.9886L48.8896 80.0566C48.613 80.0807 48.3691 79.8761 48.345 79.5995L48.2665 78.7014C48.2544 78.5631 48.1325 78.4608 47.9942 78.4729C47.8559 78.4849 47.7535 78.6069 47.7656 78.7452L47.8441 79.6432C47.8683 79.9199 47.6636 80.1637 47.387 80.1879L46.6085 80.2559C46.3319 80.2801 46.088 80.0754 46.0638 79.7988L45.9853 78.8995C45.9732 78.7612 45.8513 78.6589 45.713 78.671C45.5746 78.6831 45.4723 78.805 45.4844 78.9433L45.563 79.8425C45.5871 80.1192 45.3825 80.363 45.1059 80.3872L44.3263 80.4553C44.0496 80.4795 43.8058 80.2748 43.7816 79.9982L43.7032 79.1005C43.6911 78.9622 43.5692 78.8598 43.4309 78.8719C43.2926 78.884 43.1902 79.0059 43.2023 79.1442L43.2808 80.042C43.3049 80.3186 43.1003 80.5624 42.8236 80.5866L42.0436 80.6547C41.767 80.6789 41.5232 80.4743 41.499 80.1976L41.4206 79.3004C41.4085 79.162 41.2866 79.0597 41.1483 79.0718C41.01 79.0839 40.9076 79.2058 40.9197 79.3441L40.9981 80.2414C41.0223 80.518 40.8176 80.7619 40.541 80.786L39.7645 80.8539C39.4878 80.8781 39.244 80.6734 39.2198 80.3968L39.1413 79.4984C39.1292 79.3601 39.0073 79.2578 38.869 79.2699C38.7307 79.2819 38.6284 79.4039 38.6404 79.5422L38.7189 80.4405C38.7431 80.7172 38.5385 80.961 38.2618 80.9852L37.4818 81.0533C37.2052 81.0775 36.9614 80.8729 36.9372 80.5962L36.8587 79.698C36.8466 79.5597 36.7247 79.4574 36.5864 79.4695C36.4481 79.4816 36.3457 79.6035 36.3578 79.7418L36.4363 80.64C36.4605 80.9166 36.2558 81.1605 35.9792 81.1846L35.1982 81.2529C34.9216 81.277 34.6778 81.0724 34.6536 80.7958L34.5751 79.8976C34.563 79.7593 34.4411 79.657 34.3028 79.669C34.1645 79.6811 34.0622 79.803 34.0742 79.9414L34.1527 80.8395C34.1769 81.1162 33.9722 81.36 33.6956 81.3842L32.9161 81.4523C32.6395 81.4764 32.3956 81.2718 32.3715 80.9952L32.293 80.0972C32.2809 79.9589 32.159 79.8566 32.0207 79.8687C31.8824 79.8807 31.78 80.0027 31.7921 80.141L31.8706 81.0389C31.8948 81.3156 31.6901 81.5594 31.4135 81.5836L30.6374 81.6514C30.3608 81.6755 30.1169 81.4709 30.0928 81.1943L30.0142 80.2952C30.0021 80.1569 29.8802 80.0546 29.7419 80.0667C29.6036 80.0788 29.5012 80.2007 29.5133 80.339L29.5919 81.238C29.6161 81.5147 29.4114 81.7585 29.1348 81.7827L28.3543 81.8509C28.0777 81.875 27.8338 81.6704 27.8096 81.3938L27.7311 80.495C27.719 80.3567 27.5971 80.2544 27.4588 80.2665C27.3205 80.2785 27.2182 80.4005 27.2302 80.5388L27.3088 81.4375C27.3329 81.7141 27.1283 81.958 26.8517 81.9822L26.0711 82.0504C25.7945 82.0745 25.5506 81.8699 25.5265 81.5933L25.4481 80.6961C25.436 80.5578 25.3141 80.4555 25.1758 80.4676C25.0374 80.4796 24.9351 80.6016 24.9472 80.7399L25.0256 81.637C25.0498 81.9136 24.8451 82.1575 24.5685 82.1817L23.79 82.2497C23.5134 82.2738 23.2695 82.0692 23.2454 81.7926L23.1669 80.8942C23.1548 80.7559 23.0329 80.6536 22.8945 80.6657C22.7562 80.6778 22.6539 80.7997 22.666 80.938L22.7445 81.8363C22.7687 82.113 22.564 82.3568 22.2874 82.381L21.5098 82.4489C21.2331 82.4731 20.9893 82.2684 20.9651 81.9918L20.8867 81.0938C20.8746 80.9555 20.7527 80.8532 20.6144 80.8652C20.476 80.8773 20.3737 80.9992 20.3858 81.1376L20.4643 82.0356C20.4884 82.3122 20.2838 82.556 20.0072 82.5802L19.2263 82.6484C18.9497 82.6726 18.7058 82.4679 18.6816 82.1913L18.6032 81.2938C18.5911 81.1554 18.4692 81.0531 18.3309 81.0652C18.1926 81.0773 18.0903 81.1992 18.1024 81.3375L18.1808 82.2351C18.2049 82.5117 18.0003 82.7556 17.7237 82.7797L14.9239 83.0244C14.7856 83.0364 14.6833 83.1584 14.6954 83.2967C14.7074 83.435 14.8294 83.5373 14.9677 83.5252L17.7674 83.2806C18.0441 83.2564 18.2879 83.4611 18.3121 83.7377L18.38 84.5157C18.4042 84.7924 18.1996 85.0362 17.9229 85.0604L15.1241 85.3049C14.9858 85.317 14.8835 85.4389 14.8956 85.5772C14.9076 85.7156 15.0296 85.8179 15.1679 85.8058L17.9667 85.5612C18.2433 85.5371 18.4872 85.7417 18.5113 86.0184L18.5794 86.7978C18.6036 87.0744 18.399 87.3182 18.1223 87.3424L15.3217 87.5871C15.1834 87.5992 15.081 87.7211 15.0931 87.8594C15.1052 87.9978 15.2271 88.1001 15.3654 88.088L18.1661 87.8433C18.4427 87.8191 18.6866 88.0238 18.7107 88.3004L18.7787 89.0786C18.8029 89.3552 18.5983 89.5991 18.3216 89.6233L15.5216 89.8679C15.3833 89.88 15.281 90.0019 15.293 90.1402C15.3051 90.2785 15.427 90.3809 15.5654 90.3688L18.3654 90.1241C18.642 90.1 18.8859 90.3046 18.91 90.5812L18.9558 91.1045C18.9678 91.2428 19.0898 91.3452 19.2281 91.3331C19.3664 91.321 19.4687 91.1991 19.4566 91.0608L19.4109 90.5375C19.3867 90.2608 19.5914 90.017 19.868 89.9928L20.6489 89.9246C20.9255 89.9004 21.1693 90.1051 21.1935 90.3817L21.2392 90.9046C21.2513 91.0429 21.3732 91.1452 21.5115 91.1331C21.6498 91.121 21.7522 90.9991 21.7401 90.8608L21.6944 90.338C21.6702 90.0613 21.8749 89.8175 22.1515 89.7933L22.9291 89.7254C23.2057 89.7012 23.4496 89.9059 23.4737 90.1825L23.5194 90.705C23.5315 90.8433 23.6534 90.9457 23.7917 90.9336C23.93 90.9215 24.0323 90.7996 24.0203 90.6613L23.9746 90.1387C23.9504 89.8621 24.1551 89.6182 24.4317 89.5941L25.2102 89.5261C25.4868 89.5019 25.7307 89.7065 25.7548 89.9832L25.8006 90.5069C25.8127 90.6452 25.9346 90.7475 26.0729 90.7355C26.2112 90.7234 26.3136 90.6015 26.3015 90.4631L26.2557 89.9394C26.2315 89.6628 26.4362 89.4189 26.7128 89.3948L27.4934 89.3266C27.77 89.3024 28.0139 89.507 28.038 89.7837L28.0836 90.3058C28.0957 90.4441 28.2176 90.5464 28.356 90.5344C28.4943 90.5223 28.5966 90.4004 28.5845 90.262L28.5389 89.7399C28.5147 89.4633 28.7194 89.2194 28.996 89.1953L29.7765 89.1271C30.0531 89.1029 30.297 89.3076 30.3211 89.5842L30.3667 90.106C30.3788 90.2443 30.5007 90.3467 30.6391 90.3346C30.7774 90.3225 30.8797 90.2006 30.8676 90.0623L30.822 89.5404C30.7978 89.2638 31.0025 89.02 31.2791 88.9958L32.0552 88.928C32.3318 88.9038 32.5757 89.1085 32.5998 89.3851L32.6455 89.908C32.6576 90.0463 32.7795 90.1486 32.9178 90.1365C33.0562 90.1245 33.1585 90.0025 33.1464 89.8642L33.1007 89.3413C33.0765 89.0647 33.2812 88.8208 33.5578 88.7967L34.3373 88.7286C34.614 88.7044 34.8578 88.9091 34.882 89.1857L34.9276 89.7084C34.9397 89.8467 35.0617 89.949 35.2 89.9369C35.3383 89.9248 35.4406 89.8029 35.4285 89.6646L35.3828 89.1419C35.3587 88.8653 35.5633 88.6214 35.84 88.5973L36.6209 88.529C36.8976 88.5049 37.1414 88.7095 37.1656 88.9861L37.2112 89.5088C37.2233 89.6471 37.3452 89.7495 37.4836 89.7374C37.6219 89.7253 37.7242 89.6034 37.7121 89.4651L37.6664 88.9424C37.6423 88.6658 37.8469 88.4219 38.1235 88.3977L38.9036 88.3296C39.1802 88.3054 39.424 88.5101 39.4482 88.7867L39.4938 89.3092C39.5059 89.4475 39.6279 89.5498 39.7662 89.5378C39.9045 89.5257 40.0068 89.4037 39.9947 89.2654L39.9491 88.7429C39.9249 88.4663 40.1295 88.2225 40.4062 88.1983L41.1827 88.1304C41.4594 88.1063 41.7032 88.3109 41.7274 88.5876L41.7731 89.1111C41.7852 89.2495 41.9071 89.3518 42.0454 89.3397C42.1837 89.3276 42.2861 89.2057 42.274 89.0674L42.2282 88.5438C42.2041 88.2672 42.4087 88.0233 42.6854 87.9992L43.4654 87.931C43.742 87.9068 43.9858 88.1115 44.01 88.3881L44.0557 88.9113C44.0678 89.0496 44.1897 89.1519 44.328 89.1398C44.4664 89.1277 44.5687 89.0058 44.5566 88.8675L44.5109 88.3443C44.4867 88.0677 44.6914 87.8239 44.968 87.7997L45.7476 87.7316C46.0242 87.7074 46.2681 87.9121 46.2922 88.1887L46.3378 88.7103C46.3499 88.8486 46.4718 88.951 46.6101 88.9389C46.7484 88.9268 46.8508 88.8049 46.8387 88.6666L46.7931 88.1449C46.7689 87.8683 46.9736 87.6245 47.2502 87.6003L48.0287 87.5323C48.3053 87.5081 48.5492 87.7128 48.5733 87.9894L48.619 88.5122C48.6311 88.6505 48.753 88.7528 48.8913 88.7408C49.0296 88.7287 49.132 88.6067 49.1199 88.4684L49.0742 87.9456C49.05 87.669 49.2547 87.4252 49.5313 87.401L50.3099 87.333C50.5865 87.3088 50.8303 87.5134 50.8545 87.7901L50.9002 88.3126C50.9123 88.4509 51.0342 88.5533 51.1725 88.5412C51.3108 88.5291 51.4131 88.4072 51.401 88.2689L51.3554 87.7463C51.3312 87.4697 51.5359 87.2258 51.8125 87.2017L52.5929 87.1335C52.8695 87.1093 53.1134 87.314 53.1375 87.5906L53.1833 88.1145C53.1954 88.2529 53.3173 88.3552 53.4556 88.3431C53.594 88.331 53.6963 88.2091 53.6842 88.0708L53.6384 87.5468C53.6142 87.2702 53.8189 87.0264 54.0955 87.0022L54.8756 86.934C55.1522 86.9099 55.3961 87.1145 55.4203 87.3911L55.4659 87.9132C55.478 88.0515 55.5999 88.1539 55.7382 88.1418C55.8765 88.1297 55.9788 88.0078 55.9667 87.8694L55.9211 87.3474C55.897 87.0707 56.1016 86.8269 56.3782 86.8027L57.1549 86.7349C57.4315 86.7107 57.6753 86.9154 57.6995 87.192L57.7451 87.7139C57.7572 87.8523 57.8791 87.9546 58.0174 87.9425C58.1557 87.9304 58.2581 87.8085 58.246 87.6702L58.2004 87.1482C58.1762 86.8716 58.3809 86.6278 58.6575 86.6036L59.4379 86.5354C59.7145 86.5112 59.9584 86.7159 59.9825 86.9925L60.0282 87.5155C60.0403 87.6538 60.1622 87.7561 60.3006 87.7441C60.4389 87.732 60.5412 87.6101 60.5291 87.4717L60.4834 86.9487C60.4592 86.6721 60.6639 86.4283 60.9405 86.4041L61.7196 86.336C61.9962 86.3119 62.24 86.5165 62.2642 86.7931L62.3099 87.316C62.322 87.4543 62.4439 87.5567 62.5822 87.5446C62.7205 87.5325 62.8228 87.4106 62.8108 87.2723L62.7651 86.7494C62.7409 86.4727 62.9456 86.2289 63.2222 86.2047L64.0032 86.1365C64.2798 86.1123 64.5236 86.317 64.5478 86.5936L64.5935 87.1164C64.6056 87.2547 64.7275 87.357 64.8658 87.3449C65.0041 87.3328 65.1064 87.2109 65.0943 87.0726L65.0487 86.5498C65.0245 86.2732 65.2291 86.0294 65.5058 86.0052L66.2819 85.9374C66.5586 85.9132 66.8024 86.1179 66.8266 86.3945L66.8722 86.9168C66.8843 87.0551 67.0062 87.1574 67.1445 87.1453C67.2828 87.1332 67.3852 87.0113 67.3731 86.873L67.3274 86.3507C67.3033 86.0741 67.5079 85.8303 67.7845 85.8061L68.565 85.7379C68.8416 85.7137 69.0854 85.9184 69.1096 86.195L69.1553 86.7186C69.1674 86.8569 69.2894 86.9592 69.4277 86.9471C69.566 86.935 69.6683 86.8131 69.6562 86.6748L69.6105 86.1513C69.5863 85.8746 69.791 85.6308 70.0676 85.6066L70.8476 85.5385C71.1242 85.5143 71.3681 85.7189 71.3922 85.9956L71.438 86.5189C71.45 86.6572 71.572 86.7596 71.7103 86.7475C71.8486 86.7354 71.9509 86.6135 71.9388 86.4752L71.8931 85.9518C71.8689 85.6752 72.0736 85.4313 72.3502 85.4072L73.1269 85.3393C73.4035 85.3151 73.6474 85.5198 73.6716 85.7964L73.7171 86.3181C73.7292 86.4564 73.8511 86.5587 73.9894 86.5466C74.1278 86.5345 74.2301 86.4126 74.218 86.2743L74.1724 85.7526C74.1483 85.476 74.3529 85.2322 74.6295 85.208L75.41 85.1398C75.6866 85.1157 75.9304 85.3203 75.9546 85.5969L76.0003 86.1199C76.0124 86.2582 76.1343 86.3605 76.2726 86.3484C76.4109 86.3364 76.5132 86.2144 76.5012 86.0761L76.4555 85.5532C76.4313 85.2765 76.6359 85.0327 76.9126 85.0085L77.6921 84.9404C77.9687 84.9162 78.2126 85.1209 78.2367 85.3975L78.2824 85.9201C78.2945 86.0585 78.4164 86.1608 78.5547 86.1487C78.693 86.1366 78.7954 86.0147 78.7833 85.8764L78.7376 85.3538C78.7134 85.0771 78.9181 84.8333 79.1947 84.8091L79.9752 84.7409C80.2518 84.7168 80.4957 84.9214 80.5199 85.198L80.5655 85.7205C80.5776 85.8588 80.6995 85.9611 80.8378 85.9491C80.9761 85.937 81.0785 85.815 81.0664 85.6767L81.0207 85.1543C80.9966 84.8776 81.2012 84.6338 81.4778 84.6096L82.254 84.5418C82.5306 84.5176 82.7745 84.7223 82.7986 84.9989L82.8442 85.521C82.8563 85.6593 82.9782 85.7616 83.1166 85.7496C83.2549 85.7375 83.3572 85.6156 83.3451 85.4772L83.2995 84.9552C83.2753 84.6785 83.48 84.4347 83.7566 84.4105L84.5371 84.3423C84.8137 84.3182 85.0576 84.5228 85.0817 84.7994L85.1273 85.3215C85.1394 85.4598 85.2613 85.5621 85.3997 85.55C85.538 85.5379 85.6403 85.416 85.6282 85.2777L85.5826 84.7557C85.5584 84.4791 85.7631 84.2352 86.0397 84.211L86.8201 84.1428C87.0968 84.1187 87.3406 84.3233 87.3648 84.6L87.4105 85.1232C87.4226 85.2615 87.5445 85.3638 87.6828 85.3517C87.8211 85.3396 87.9234 85.2177 87.9114 85.0794L87.8656 84.5562C87.8415 84.2796 88.0461 84.0357 88.3227 84.0116L89.099 83.9437C89.3756 83.9196 89.6194 84.1242 89.6436 84.4008L89.6892 84.9222C89.7012 85.0605 89.8232 85.1629 89.9615 85.1508C90.0998 85.1387 90.2021 85.0168 90.19 84.8784L90.1445 84.3571C90.1203 84.0805 90.325 83.8366 90.6016 83.8124L91.3815 83.7443C91.6581 83.7201 91.902 83.9248 91.9262 84.2014L91.9718 84.724C91.9839 84.8623 92.1058 84.9647 92.2441 84.9526C92.3825 84.9405 92.4848 84.8186 92.4727 84.6803L92.427 84.1576C92.4029 83.881 92.6075 83.6372 92.8841 83.613L93.6642 83.5448C93.9408 83.5207 94.1846 83.7253 94.2088 84.002L94.2544 84.5244C94.2665 84.6627 94.3884 84.765 94.5268 84.753C94.6651 84.7409 94.7674 84.6189 94.7553 84.4806L94.7097 83.9582C94.6855 83.6816 94.8902 83.4377 95.1668 83.4136L95.9477 83.3453C96.2243 83.3212 96.4681 83.5258 96.4923 83.8024L96.5381 84.3261C96.5502 84.4644 96.6721 84.5667 96.8104 84.5546C96.9487 84.5425 97.051 84.4206 97.0389 84.2823L96.9932 83.7587C96.969 83.482 97.1737 83.2382 97.4503 83.214L98.226 83.1463C98.5027 83.1221 98.7465 83.3267 98.7707 83.6034L98.8163 84.1253C98.8284 84.2636 98.9503 84.3659 99.0886 84.3538C99.2269 84.3417 99.3292 84.2198 99.3171 84.0815L99.2715 83.5596C99.2474 83.283 99.452 83.0391 99.7286 83.015L102.532 82.77C102.67 82.758 102.772 82.636 102.76 82.4977C102.748 82.3594 102.626 82.2571 102.488 82.2692L99.6849 82.5141C99.4083 82.5383 99.1644 82.3336 99.1403 82.057L99.0723 81.2788C99.0481 81.0021 99.2527 80.7583 99.5294 80.7341L102.332 80.4893C102.47 80.4772 102.572 80.3552 102.56 80.2169C102.548 80.0786 102.426 79.9763 102.288 79.9884L99.4856 80.2332C99.209 80.2574 98.9651 80.0528 98.941 79.7761L98.8729 78.9967C98.8487 78.7201 99.0533 78.4762 99.33 78.4521L102.134 78.2071C102.273 78.195 102.375 78.073 102.363 77.9347C102.351 77.7964 102.229 77.6941 102.09 77.7062L99.2862 77.9512C99.0096 77.9754 98.7657 77.7707 98.7416 77.4941L98.6736 76.7161C98.6494 76.4394 98.8541 76.1956 99.1307 76.1714L101.934 75.9265C102.072 75.9144 102.175 75.7925 102.163 75.6542C102.151 75.5159 102.029 75.4135 101.89 75.4256L99.0869 75.6706C98.8103 75.6947 98.5665 75.4901 98.5423 75.2134L98.4637 74.3145C98.4517 74.1762 98.3297 74.0738 98.1914 74.0859C98.0531 74.098 97.9508 74.2199 97.9629 74.3582L98.0414 75.2572C98.0656 75.5338 97.8609 75.7777 97.5843 75.8018L96.8086 75.8696C96.532 75.8938 96.2881 75.6891 96.2639 75.4125L96.1855 74.5153C96.1735 74.377 96.0515 74.2746 95.9132 74.2867C95.7749 74.2988 95.6726 74.4207 95.6847 74.559L95.7631 75.4563C95.7872 75.7329 95.5826 75.9767 95.306 76.0009L94.5251 76.0692C94.2484 76.0933 94.0046 75.8887 93.9804 75.612L93.9019 74.7136C93.8898 74.5753 93.7679 74.473 93.6296 74.4851C93.4913 74.4971 93.389 74.6191 93.401 74.7574L93.4795 75.6558C93.5037 75.9324 93.2991 76.1763 93.0224 76.2004L92.2424 76.2686C91.9658 76.2928 91.722 76.0881 91.6978 75.8115L91.6193 74.9132C91.6072 74.7749 91.4853 74.6726 91.347 74.6847C91.2087 74.6968 91.1063 74.8187 91.1184 74.957L91.1969 75.8553C91.2211 76.1319 91.0164 76.3757 90.7398 76.3999L89.9599 76.468C89.6832 76.4922 89.4394 76.2876 89.4152 76.0109L89.3366 75.1114C89.3246 74.9731 89.2026 74.8708 89.0643 74.8829ZM98.1823 82.6454C98.4589 82.6212 98.6635 82.3774 98.6394 82.1007L98.5714 81.3225C98.5472 81.0459 98.3034 80.8412 98.0267 80.8654L97.251 80.9332C96.9744 80.9574 96.7697 81.2012 96.7939 81.4778L96.8619 82.256C96.8861 82.5327 97.1299 82.7373 97.4065 82.7132L98.1823 82.6454ZM95.9039 82.8445C96.1805 82.8203 96.3852 82.5764 96.361 82.2998L96.293 81.5216C96.2689 81.245 96.025 81.0403 95.7484 81.0645L94.9675 81.1327C94.6909 81.1569 94.4862 81.4007 94.5104 81.6774L94.5784 82.4556C94.6025 82.7322 94.8464 82.9369 95.123 82.9127L95.9039 82.8445ZM93.6204 83.044C93.897 83.0198 94.1017 82.776 94.0775 82.4993L94.0095 81.7211C93.9853 81.4445 93.7415 81.2398 93.4649 81.264L92.6849 81.3322C92.4082 81.3563 92.2036 81.6002 92.2277 81.8768L92.2957 82.655C92.3199 82.9316 92.5638 83.1363 92.8404 83.1121L93.6204 83.044ZM91.3378 83.2434C91.6144 83.2193 91.819 82.9754 91.7949 82.6988L91.7269 81.9206C91.7027 81.6439 91.4589 81.4393 91.1822 81.4635L90.4023 81.5316C90.1257 81.5558 89.921 81.7996 89.9452 82.0762L90.0132 82.8545C90.0374 83.1311 90.2812 83.3357 90.5578 83.3116L91.3378 83.2434ZM89.0552 83.4429C89.3318 83.4187 89.5365 83.1748 89.5123 82.8982L89.4443 82.12C89.4201 81.8434 89.1763 81.6387 88.8997 81.6629L88.1235 81.7307C87.8468 81.7549 87.6422 81.9987 87.6664 82.2754L87.7344 83.0536C87.7585 83.3302 88.0024 83.5349 88.279 83.5107L89.0552 83.4429ZM86.7764 83.642C87.053 83.6178 87.2576 83.374 87.2335 83.0973L87.1655 82.3191C87.1413 82.0425 86.8975 81.8378 86.6208 81.862L85.8404 81.9302C85.5638 81.9544 85.3591 82.1982 85.3833 82.4748L85.4513 83.2531C85.4755 83.5297 85.7193 83.7343 85.9959 83.7102L86.7764 83.642ZM84.4933 83.8415C84.7699 83.8173 84.9746 83.5734 84.9504 83.2968L84.8824 82.5186C84.8583 82.242 84.6144 82.0373 84.3378 82.0615L83.5573 82.1297C83.2807 82.1539 83.076 82.3977 83.1002 82.6743L83.1682 83.4525C83.1924 83.7292 83.4362 83.9338 83.7128 83.9097L84.4933 83.8415ZM82.2102 84.0409C82.4868 84.0168 82.6915 83.7729 82.6673 83.4963L82.5993 82.7181C82.5752 82.4415 82.3313 82.2368 82.0547 82.261L81.2785 82.3288C81.0019 82.353 80.7973 82.5968 80.8214 82.8734L80.8894 83.6517C80.9136 83.9283 81.1574 84.1329 81.4341 84.1088L82.2102 84.0409ZM79.9314 84.2401C80.2081 84.2159 80.4127 83.972 80.3886 83.6954L80.3206 82.9172C80.2964 82.6406 80.0525 82.4359 79.7759 82.4601L78.9954 82.5283C78.7188 82.5525 78.5142 82.7963 78.5383 83.0729L78.6063 83.8511C78.6305 84.1278 78.8743 84.3324 79.151 84.3083L79.9314 84.2401ZM77.6483 84.4395C77.925 84.4154 78.1296 84.1715 78.1054 83.8949L78.0374 83.1167C78.0133 82.8401 77.7694 82.6354 77.4928 82.6596L76.7133 82.7277C76.4367 82.7519 76.232 82.9957 76.2562 83.2723L76.3242 84.0505C76.3483 84.3272 76.5922 84.5318 76.8688 84.5077L77.6483 84.4395ZM75.3662 84.6389C75.6428 84.6148 75.8475 84.3709 75.8233 84.0943L75.7553 83.3161C75.7311 83.0395 75.4873 82.8348 75.2107 82.859L74.4302 82.9272C74.1536 82.9513 73.949 83.1952 73.9731 83.4718L74.0411 84.25C74.0653 84.5267 74.3091 84.7313 74.5858 84.7071L75.3662 84.6389ZM73.0831 84.8384C73.3598 84.8143 73.5644 84.5704 73.5403 84.2938L73.4723 83.5156C73.4481 83.2389 73.2042 83.0343 72.9276 83.0585L72.1509 83.1263C71.8743 83.1505 71.6696 83.3943 71.6938 83.671L71.7618 84.4492C71.786 84.7258 72.0298 84.9305 72.3064 84.9063L73.0831 84.8384ZM70.8038 85.0376C71.0805 85.0134 71.2851 84.7696 71.2609 84.4929L71.1929 83.7147C71.1688 83.4381 70.9249 83.2335 70.6483 83.2576L69.8683 83.3258C69.5917 83.3499 69.387 83.5938 69.4112 83.8704L69.4792 84.6486C69.5034 84.9253 69.7472 85.1299 70.0238 85.1057L70.8038 85.0376ZM68.5212 85.237C68.7978 85.2129 69.0025 84.969 68.9783 84.6924L68.9103 83.9142C68.8861 83.6376 68.6423 83.4329 68.3657 83.4571L67.5853 83.5253C67.3086 83.5494 67.104 83.7933 67.1281 84.0699L67.1961 84.8481C67.2203 85.1247 67.4642 85.3294 67.7408 85.3052L68.5212 85.237ZM66.2382 85.4365C66.5148 85.4123 66.7194 85.1685 66.6953 84.8919L66.6273 84.1137C66.6031 83.837 66.3593 83.6324 66.0826 83.6565L65.3065 83.7244C65.0299 83.7485 64.8252 83.9924 64.8494 84.269L64.9174 85.0472C64.9415 85.3238 65.1854 85.5285 65.462 85.5043L66.2382 85.4365ZM63.9594 85.6356C64.236 85.6115 64.4407 85.3676 64.4165 85.091L64.3485 84.3128C64.3243 84.0361 64.0805 83.8315 63.8039 83.8557L63.0229 83.9239C62.7463 83.9481 62.5416 84.1919 62.5658 84.4685L62.6338 85.2468C62.6579 85.5234 62.9018 85.728 63.1784 85.7039L63.9594 85.6356ZM61.6758 85.8352C61.9524 85.811 62.1571 85.5671 62.1329 85.2905L62.0649 84.5123C62.0407 84.2357 61.7969 84.031 61.5203 84.0552L60.7412 84.1233C60.4646 84.1474 60.26 84.3913 60.2841 84.6679L60.3521 85.4461C60.3763 85.7227 60.6201 85.9274 60.8968 85.9032L61.6758 85.8352ZM59.3941 86.0345C59.6708 86.0103 59.8754 85.7665 59.8513 85.4899L59.7833 84.7117C59.7591 84.435 59.5152 84.2304 59.2386 84.2546L58.4582 84.3227C58.1816 84.3469 57.9769 84.5908 58.0011 84.8674L58.0691 85.6456C58.0932 85.9222 58.3371 86.1269 58.6137 86.1027L59.3941 86.0345ZM57.1111 86.234C57.3877 86.2098 57.5924 85.966 57.5682 85.6894L57.5002 84.9111C57.476 84.6345 57.2322 84.4299 56.9556 84.454L56.1789 84.5219C55.9023 84.5461 55.6977 84.7899 55.7218 85.0665L55.7898 85.8447C55.814 86.1214 56.0578 86.326 56.3345 86.3019L57.1111 86.234ZM54.8319 86.4331C55.1085 86.409 55.3131 86.1651 55.289 85.8885L55.221 85.1103C55.1968 84.8337 54.953 84.629 54.6763 84.6532L53.8962 84.7213C53.6196 84.7455 53.415 84.9894 53.4391 85.266L53.5071 86.0442C53.5313 86.3208 53.7751 86.5255 54.0518 86.5013L54.8319 86.4331ZM52.5491 86.6326C52.8258 86.6084 53.0304 86.3646 53.0062 86.088L52.9383 85.3097C52.9141 85.0331 52.6702 84.8285 52.3936 84.8526L51.6132 84.9208C51.3366 84.945 51.1319 85.1888 51.1561 85.4655L51.2241 86.2437C51.2483 86.5203 51.4921 86.725 51.7687 86.7008L52.5491 86.6326ZM50.2661 86.8321C50.5427 86.8079 50.7474 86.5641 50.7232 86.2874L50.6552 85.5092C50.6311 85.2326 50.3872 85.0279 50.1106 85.0521L49.332 85.1201C49.0554 85.1443 48.8507 85.3882 48.8749 85.6648L48.9429 86.443C48.9671 86.7196 49.2109 86.9243 49.4875 86.9001L50.2661 86.8321ZM47.9849 87.0314C48.2616 87.0072 48.4662 86.7634 48.442 86.4868L48.374 85.7085C48.3499 85.4319 48.106 85.2273 47.8294 85.2514L47.0509 85.3195C46.7743 85.3436 46.5696 85.5875 46.5938 85.8641L46.6618 86.6423C46.686 86.9189 46.9298 87.1236 47.2064 87.0994L47.9849 87.0314ZM45.7038 87.2307C45.9804 87.2065 46.1851 86.9627 46.1609 86.6861L46.0929 85.9079C46.0688 85.6312 45.8249 85.4266 45.5483 85.4508L44.7687 85.5189C44.4921 85.543 44.2874 85.7869 44.3116 86.0635L44.3796 86.8417C44.4038 87.1183 44.6476 87.323 44.9242 87.2988L45.7038 87.2307ZM43.4216 87.4301C43.6982 87.406 43.9029 87.1621 43.8787 86.8855L43.8107 86.1073C43.7865 85.8306 43.5427 85.626 43.2661 85.6502L42.4861 85.7183C42.2094 85.7425 42.0048 85.9863 42.029 86.263L42.0969 87.0412C42.1211 87.3178 42.365 87.5225 42.6416 87.4983L43.4216 87.4301ZM41.139 87.6296C41.4156 87.6054 41.6202 87.3616 41.5961 87.0849L41.5281 86.3067C41.5039 86.0301 41.2601 85.8254 40.9834 85.8496L40.2069 85.9175C39.9303 85.9416 39.7256 86.1855 39.7498 86.4621L39.8178 87.2403C39.8419 87.5169 40.0858 87.7216 40.3624 87.6974L41.139 87.6296ZM38.8598 87.8287C39.1364 87.8045 39.3411 87.5607 39.3169 87.2841L39.2489 86.5059C39.2247 86.2292 38.9809 86.0246 38.7043 86.0488L37.9243 86.1169C37.6476 86.1411 37.443 86.3849 37.4671 86.6615L37.5351 87.4398C37.5593 87.7164 37.8032 87.921 38.0798 87.8969L38.8598 87.8287ZM36.5772 88.0282C36.8538 88.004 37.0584 87.7602 37.0343 87.4835L36.9663 86.7053C36.9421 86.4287 36.6983 86.224 36.4216 86.2482L35.6407 86.3164C35.364 86.3406 35.1594 86.5844 35.1836 86.8611L35.2516 87.6393C35.2757 87.9159 35.5196 88.1206 35.7962 88.0964L36.5772 88.0282ZM34.2936 88.2277C34.5702 88.2035 34.7749 87.9597 34.7507 87.6831L34.6827 86.9048C34.6585 86.6282 34.4147 86.4236 34.1381 86.4477L33.3585 86.5158C33.0819 86.54 32.8772 86.7839 32.9014 87.0605L32.9694 87.8387C32.9936 88.1153 33.2374 88.32 33.5141 88.2958L34.2936 88.2277ZM32.0114 88.4271C32.2881 88.4029 32.4927 88.1591 32.4685 87.8825L32.4005 87.1042C32.3764 86.8276 32.1325 86.623 31.8559 86.6471L31.0798 86.7149C30.8032 86.7391 30.5985 86.983 30.6227 87.2596L30.6907 88.0378C30.7149 88.3144 30.9587 88.5191 31.2354 88.4949L32.0114 88.4271ZM29.7327 88.6262C30.0094 88.602 30.214 88.3582 30.1898 88.0816L30.1218 87.3033C30.0977 87.0267 29.8538 86.8221 29.5772 86.8462L28.7967 86.9144C28.5201 86.9386 28.3154 87.1824 28.3396 87.4591L28.4076 88.2373C28.4318 88.5139 28.6756 88.7186 28.9522 88.6944L29.7327 88.6262ZM27.4496 88.8257C27.7262 88.8015 27.9309 88.5577 27.9067 88.2811L27.8387 87.5028C27.8146 87.2262 27.5707 87.0216 27.2941 87.0457L26.5135 87.1139C26.2369 87.1381 26.0323 87.3819 26.0564 87.6586L26.1244 88.4368C26.1486 88.7134 26.3924 88.9181 26.6691 88.8939L27.4496 88.8257ZM25.1664 89.0252C25.4431 89.001 25.6477 88.7572 25.6235 88.4805L25.5555 87.7023C25.5314 87.4257 25.2875 87.221 25.0109 87.2452L24.2324 87.3132C23.9558 87.3374 23.7511 87.5813 23.7753 87.8579L23.8433 88.6361C23.8675 88.9127 24.1113 89.1174 24.3879 89.0932L25.1664 89.0252ZM22.8853 89.2245C23.162 89.2003 23.3666 88.9565 23.3424 88.6799L23.2744 87.9016C23.2503 87.625 23.0064 87.4204 22.7298 87.4445L21.9522 87.5125C21.6756 87.5366 21.4709 87.7805 21.4951 88.0571L21.5631 88.8353C21.5873 89.112 21.8311 89.3166 22.1077 89.2924L22.8853 89.2245ZM20.6051 89.4237C20.8817 89.3996 21.0864 89.1557 21.0622 88.8791L20.9942 88.1009C20.9701 87.8243 20.7262 87.6196 20.4496 87.6438L19.6687 87.712C19.3921 87.7362 19.1874 87.98 19.2116 88.2566L19.2796 89.0349C19.3038 89.3115 19.5476 89.5161 19.8242 89.492L20.6051 89.4237ZM20.8629 86.5983C20.8871 86.8749 20.6824 87.1187 20.4058 87.1429L19.625 87.2111C19.3483 87.2353 19.1045 87.0306 19.0803 86.754L19.0122 85.9746C18.988 85.698 19.1927 85.4541 19.4693 85.43L20.2502 85.3617C20.5268 85.3376 20.7707 85.5422 20.7948 85.8188L20.8629 86.5983ZM23.1431 86.399C23.1673 86.6756 22.9627 86.9195 22.686 86.9437L21.9084 87.0116C21.6318 87.0358 21.388 86.8311 21.3638 86.5545L21.2957 85.7751C21.2715 85.4984 21.4762 85.2546 21.7528 85.2304L22.5304 85.1625C22.807 85.1383 23.0509 85.343 23.075 85.6196L23.1431 86.399ZM25.4243 86.1997C25.4484 86.4763 25.2438 86.7202 24.9671 86.7443L24.1887 86.8124C23.912 86.8365 23.6682 86.6319 23.644 86.3553L23.5759 85.5758C23.5517 85.2992 23.7564 85.0554 24.033 85.0312L24.8115 84.9632C25.0881 84.939 25.332 85.1437 25.3562 85.4203L25.4243 86.1997ZM27.7074 86.0002C27.7316 86.2768 27.527 86.5207 27.2503 86.5449L26.4698 86.6131C26.1931 86.6372 25.9493 86.4326 25.9251 86.1559L25.857 85.3765C25.8329 85.0999 26.0375 84.8561 26.3141 84.8319L27.0947 84.7637C27.3713 84.7395 27.6152 84.9442 27.6393 85.2208L27.7074 86.0002ZM29.9906 85.8007C30.0147 86.0773 29.8101 86.3212 29.5334 86.3454L28.7529 86.4136C28.4763 86.4377 28.2325 86.2331 28.2083 85.9565L28.1402 85.177C28.116 84.9004 28.3207 84.6566 28.5973 84.6324L29.3778 84.5642C29.6544 84.54 29.8983 84.7447 29.9225 85.0213L29.9906 85.8007ZM32.2692 85.6016C32.2934 85.8782 32.0888 86.1221 31.8121 86.1463L31.0361 86.2141C30.7594 86.2382 30.5156 86.0336 30.4914 85.757L30.4233 84.9775C30.3992 84.7009 30.6038 84.4571 30.8804 84.4329L31.6565 84.3651C31.9331 84.3409 32.177 84.5456 32.2011 84.8222L32.2692 85.6016ZM34.5514 85.4022C34.5756 85.6788 34.3709 85.9227 34.0943 85.9469L33.3148 86.015C33.0381 86.0391 32.7943 85.8345 32.7701 85.5579L32.702 84.7784C32.6778 84.5018 32.8825 84.258 33.1591 84.2338L33.9387 84.1657C34.2153 84.1415 34.4591 84.3462 34.4833 84.6228L34.5514 85.4022ZM36.835 85.2027C36.8592 85.4793 36.6545 85.7232 36.3779 85.7473L35.5969 85.8156C35.3203 85.8397 35.0764 85.6351 35.0523 85.3585L34.9842 84.579C34.96 84.3024 35.1646 84.0586 35.4413 84.0344L36.2222 83.9662C36.4989 83.942 36.7427 84.1466 36.7669 84.4233L36.835 85.2027ZM39.1176 85.0032C39.1418 85.2799 38.9371 85.5237 38.6605 85.5479L37.8805 85.616C37.6039 85.6402 37.36 85.4356 37.3359 85.1589L37.2678 84.3795C37.2436 84.1029 37.4482 83.859 37.7249 83.8349L38.5049 83.7667C38.7815 83.7425 39.0253 83.9472 39.0495 84.2238L39.1176 85.0032ZM41.3968 84.8041C41.421 85.0807 41.2163 85.3246 40.9397 85.3487L40.1631 85.4166C39.8865 85.4408 39.6427 85.2361 39.6185 84.9595L39.5504 84.1801C39.5262 83.9034 39.7309 83.6596 40.0075 83.6354L40.784 83.5676C41.0607 83.5434 41.3045 83.7481 41.3287 84.0247L41.3968 84.8041ZM43.6794 84.6047C43.7036 84.8813 43.4989 85.1251 43.2223 85.1493L42.4423 85.2174C42.1657 85.2416 41.9218 85.037 41.8977 84.7603L41.8296 83.9809C41.8054 83.7043 42.01 83.4604 42.2867 83.4363L43.0667 83.3681C43.3433 83.3439 43.5872 83.5486 43.6113 83.8252L43.6794 84.6047ZM45.9616 84.4052C45.9858 84.6819 45.7812 84.9257 45.5045 84.9499L44.7249 85.018C44.4483 85.0422 44.2045 84.8375 44.1803 84.5609L44.1122 83.7815C44.088 83.5048 44.2927 83.261 44.5693 83.2368L45.3489 83.1687C45.6255 83.1445 45.8694 83.3492 45.8935 83.6258L45.9616 84.4052ZM48.2427 84.2059C48.2669 84.4826 48.0623 84.7264 47.7856 84.7506L47.0072 84.8186C46.7305 84.8428 46.4867 84.6381 46.4625 84.3615L46.3944 83.5821C46.3702 83.3054 46.5749 83.0616 46.8515 83.0374L47.63 82.9694C47.9066 82.9452 48.1505 83.1499 48.1746 83.4265L48.2427 84.2059ZM50.5239 84.0066C50.5481 84.2832 50.3434 84.5271 50.0668 84.5512L49.2883 84.6193C49.0116 84.6434 48.7678 84.4388 48.7436 84.1622L48.6755 83.3827C48.6513 83.1061 48.856 82.8623 49.1326 82.8381L49.9112 82.7701C50.1878 82.7459 50.4317 82.9506 50.4558 83.2272L50.5239 84.0066ZM52.807 83.8071C52.8311 84.0838 52.6265 84.3276 52.3499 84.3518L51.5694 84.42C51.2928 84.4441 51.049 84.2395 51.0248 83.9628L50.9567 83.1834C50.9325 82.9068 51.1372 82.663 51.4138 82.6388L52.1942 82.5706C52.4708 82.5464 52.7147 82.7511 52.7389 83.0277L52.807 83.8071ZM55.0897 83.6077C55.1138 83.8843 54.9092 84.1281 54.6326 84.1523L53.8525 84.2205C53.5758 84.2446 53.332 84.04 53.3078 83.7634L53.2397 82.9839C53.2156 82.7073 53.4202 82.4635 53.6968 82.4393L54.4769 82.3711C54.7536 82.347 54.9974 82.5516 55.0216 82.8283L55.0897 83.6077ZM57.3689 83.4085C57.3931 83.6851 57.1884 83.929 56.9118 83.9532L56.1352 84.021C55.8586 84.0452 55.6147 83.8405 55.5905 83.5639L55.5224 82.7845C55.4983 82.5079 55.7029 82.264 55.9796 82.2399L56.7562 82.172C57.0328 82.1478 57.2766 82.3525 57.3008 82.6291L57.3689 83.4085ZM59.652 83.209C59.6761 83.4857 59.4715 83.7295 59.1949 83.7537L58.4144 83.8219C58.1378 83.846 57.894 83.6414 57.8698 83.3648L57.8017 82.5853C57.7775 82.3087 57.9822 82.0649 58.2588 82.0407L59.0392 81.9725C59.3158 81.9483 59.5597 82.153 59.5839 82.4296L59.652 83.209ZM61.9336 83.0097C61.9578 83.2863 61.7531 83.5301 61.4765 83.5543L60.6975 83.6224C60.4208 83.6466 60.177 83.4419 60.1528 83.1653L60.0847 82.3859C60.0606 82.1092 60.2652 81.8654 60.5418 81.8412L61.3209 81.7731C61.5975 81.749 61.8413 81.9536 61.8655 82.2303L61.9336 83.0097ZM64.2172 82.8101C64.2414 83.0868 64.0367 83.3306 63.7601 83.3548L62.9791 83.423C62.7025 83.4472 62.4587 83.2425 62.4345 82.9659L62.3664 82.1865C62.3422 81.9099 62.5469 81.666 62.8235 81.6419L63.6045 81.5736C63.8811 81.5494 64.1249 81.7541 64.1491 82.0307L64.2172 82.8101ZM66.496 82.611C66.5202 82.8877 66.3155 83.1315 66.0389 83.1557L65.2627 83.2235C64.9861 83.2477 64.7423 83.043 64.7181 82.7664L64.65 81.987C64.6258 81.7103 64.8305 81.4665 65.1071 81.4423L65.8832 81.3745C66.1599 81.3503 66.4037 81.555 66.4279 81.8316L66.496 82.611ZM68.779 82.4116C68.8032 82.6882 68.5985 82.932 68.3219 82.9562L67.5415 83.0244C67.2649 83.0486 67.021 82.8439 66.9969 82.5673L66.9288 81.7879C66.9046 81.5112 67.1092 81.2674 67.3859 81.2432L68.1663 81.175C68.4429 81.1509 68.6867 81.3555 68.7109 81.6321L68.779 82.4116ZM71.0617 82.2121C71.0858 82.4887 70.8812 82.7326 70.6045 82.7567L69.8245 82.8249C69.5479 82.8491 69.3041 82.6444 69.2799 82.3678L69.2118 81.5884C69.1876 81.3117 69.3923 81.0679 69.6689 81.0437L70.4489 80.9756C70.7255 80.9514 70.9694 81.1561 70.9935 81.4327L71.0617 82.2121ZM73.341 82.013C73.3651 82.2896 73.1605 82.5334 72.8839 82.5576L72.1072 82.6255C71.8305 82.6496 71.5867 82.445 71.5625 82.1683L71.4944 81.3889C71.4703 81.1123 71.6749 80.8685 71.9515 80.8443L72.7282 80.7764C73.0049 80.7523 73.2487 80.9569 73.2729 81.2335L73.341 82.013ZM75.624 81.8135C75.6482 82.0901 75.4435 82.3339 75.1669 82.3581L74.3865 82.4263C74.1099 82.4505 73.866 82.2458 73.8418 81.9692L73.7737 81.1898C73.7496 80.9131 73.9542 80.6693 74.2308 80.6451L75.0113 80.5769C75.2879 80.5528 75.5317 80.7574 75.5559 81.0341L75.624 81.8135ZM77.9062 81.6141C77.9303 81.8907 77.7257 82.1345 77.449 82.1587L76.6695 82.2268C76.3929 82.251 76.149 82.0463 76.1249 81.7697L76.0568 80.9903C76.0326 80.7137 76.2373 80.4698 76.5139 80.4456L77.2934 80.3775C77.57 80.3534 77.8139 80.558 77.8381 80.8346L77.9062 81.6141ZM80.1893 81.4146C80.2134 81.6912 80.0088 81.935 79.7322 81.9592L78.9517 82.0274C78.675 82.0516 78.4312 81.8469 78.407 81.5703L78.3389 80.7909C78.3148 80.5143 78.5194 80.2704 78.796 80.2462L79.5765 80.178C79.8532 80.1539 80.097 80.3585 80.1212 80.6352L80.1893 81.4146ZM82.468 81.2155C82.4922 81.4921 82.2876 81.7359 82.0109 81.7601L81.2348 81.8279C80.9582 81.8521 80.7143 81.6474 80.6901 81.3708L80.622 80.5914C80.5979 80.3148 80.8025 80.0709 81.0791 80.0468L81.8553 79.9789C82.1319 79.9548 82.3758 80.1594 82.3999 80.436L82.468 81.2155ZM84.7511 81.016C84.7753 81.2926 84.5707 81.5365 84.294 81.5606L83.5135 81.6288C83.2369 81.653 82.9931 81.4483 82.9689 81.1717L82.9008 80.3923C82.8766 80.1157 83.0813 79.8718 83.3579 79.8476L84.1384 79.7795C84.415 79.7553 84.6589 79.9599 84.683 80.2366L84.7511 81.016ZM87.0342 80.8165C87.0584 81.0931 86.8537 81.337 86.5771 81.3611L85.7967 81.4293C85.52 81.4535 85.2762 81.2488 85.252 80.9722L85.1839 80.1928C85.1597 79.9162 85.3644 79.6723 85.641 79.6482L86.4214 79.58C86.6981 79.5558 86.9419 79.7605 86.9661 80.0371L87.0342 80.8165ZM89.313 80.6174C89.3372 80.894 89.1325 81.1379 88.8559 81.162L88.0797 81.2298C87.8031 81.254 87.5592 81.0494 87.5351 80.7727L87.467 79.9933C87.4428 79.7167 87.6474 79.4728 87.9241 79.4487L88.7003 79.3809C88.9769 79.3567 89.2208 79.5613 89.2449 79.838L89.313 80.6174ZM91.5956 80.4179C91.6197 80.6946 91.4151 80.9384 91.1385 80.9626L90.3585 81.0307C90.0819 81.0549 89.8381 80.8502 89.8139 80.5736L89.7458 79.7942C89.7216 79.5176 89.9263 79.2737 90.2029 79.2496L90.9828 79.1814C91.2595 79.1572 91.5033 79.3619 91.5275 79.6385L91.5956 80.4179ZM93.8782 80.2185C93.9024 80.4951 93.6977 80.739 93.4211 80.7631L92.6411 80.8313C92.3645 80.8555 92.1206 80.6508 92.0965 80.3742L92.0284 79.5948C92.0042 79.3181 92.2088 79.0743 92.4855 79.0501L93.2655 78.982C93.5421 78.9578 93.7859 79.1625 93.8101 79.4391L93.8782 80.2185ZM96.1617 80.019C96.1859 80.2956 95.9812 80.5394 95.7046 80.5636L94.9237 80.6318C94.6471 80.656 94.4033 80.4514 94.3791 80.1747L94.311 79.3953C94.2868 79.1187 94.4915 78.8748 94.7681 78.8507L95.549 78.7824C95.8256 78.7583 96.0695 78.9629 96.0936 79.2396L96.1617 80.019ZM98.4401 79.8199C98.4643 80.0965 98.2596 80.3404 97.983 80.3645L97.2072 80.4323C96.9306 80.4565 96.6868 80.2518 96.6626 79.9752L96.5945 79.1958C96.5703 78.9192 96.775 78.6753 97.0516 78.6512L97.8273 78.5834C98.104 78.5592 98.3478 78.7639 98.372 79.0405L98.4401 79.8199ZM97.7836 78.0825C98.0602 78.0583 98.2649 77.8145 98.2407 77.5379L98.1727 76.7598C98.1485 76.4832 97.9047 76.2785 97.6281 76.3027L96.8523 76.3705C96.5757 76.3947 96.3711 76.6385 96.3952 76.9151L96.4632 77.6932C96.4874 77.9698 96.7312 78.1744 97.0078 78.1503L97.7836 78.0825ZM95.5052 78.2816C95.7819 78.2574 95.9865 78.0136 95.9623 77.7369L95.8944 76.9589C95.8702 76.6823 95.6263 76.4776 95.3497 76.5018L94.5688 76.57C94.2922 76.5942 94.0875 76.838 94.1117 77.1147L94.1797 77.8927C94.2039 78.1693 94.4477 78.374 94.7243 78.3498L95.5052 78.2816ZM93.2217 78.4811C93.4983 78.4569 93.703 78.2131 93.6788 77.9365L93.6108 77.1584C93.5867 76.8818 93.3428 76.6771 93.0662 76.7013L92.2862 76.7695C92.0096 76.7936 91.8049 77.0375 91.8291 77.3141L91.8971 78.0921C91.9212 78.3688 92.1651 78.5734 92.4417 78.5493L93.2217 78.4811ZM90.9391 78.6805C91.2157 78.6564 91.4204 78.4125 91.3962 78.1359L91.3282 77.3579C91.304 77.0812 91.0602 76.8766 90.7836 76.9008L90.0036 76.9689C89.727 76.9931 89.5224 77.2369 89.5465 77.5135L89.6145 78.2916C89.6387 78.5682 89.8825 78.7729 90.1591 78.7487L90.9391 78.6805ZM88.6565 78.88C88.9331 78.8558 89.1378 78.612 89.1136 78.3353L89.0456 77.5573C89.0215 77.2807 88.7776 77.076 88.501 77.1002L87.7248 77.168C87.4482 77.1922 87.2435 77.436 87.2677 77.7127L87.3357 78.4907C87.3598 78.7673 87.6037 78.972 87.8803 78.9478L88.6565 78.88ZM86.3777 79.0791C86.6543 79.0549 86.859 78.8111 86.8348 78.5345L86.7668 77.7564C86.7426 77.4798 86.4988 77.2751 86.2222 77.2993L85.4417 77.3675C85.1651 77.3917 84.9605 77.6355 84.9846 77.9121L85.0526 78.6902C85.0768 78.9668 85.3206 79.1715 85.5973 79.1473L86.3777 79.0791ZM84.0946 79.2786C84.3713 79.2544 84.5759 79.0106 84.5517 78.7339L84.4838 77.9559C84.4596 77.6793 84.2158 77.4746 83.9391 77.4988L83.1586 77.567C82.882 77.5912 82.6774 77.835 82.7015 78.1116L82.7695 78.8897C82.7937 79.1663 83.0375 79.3709 83.3142 79.3468L84.0946 79.2786ZM81.8115 79.4781C82.0882 79.4539 82.2928 79.2101 82.2686 78.9334L82.2007 78.1554C82.1765 77.8788 81.9326 77.6741 81.656 77.6983L80.8799 77.7661C80.6032 77.7903 80.3986 78.0341 80.4228 78.3107L80.4907 79.0888C80.5149 79.3654 80.7588 79.5701 81.0354 79.5459L81.8115 79.4781ZM79.5328 79.6772C79.8094 79.653 80.014 79.4092 79.9899 79.1325L79.9219 78.3545C79.8977 78.0779 79.6539 77.8732 79.3773 77.8974L78.5968 77.9656C78.3201 77.9898 78.1155 78.2336 78.1397 78.5102L78.2076 79.2883C78.2318 79.5649 78.4756 79.7695 78.7523 79.7454L79.5328 79.6772ZM77.2497 79.8767C77.5263 79.8525 77.7309 79.6087 77.7068 79.332L77.6388 78.554C77.6146 78.2774 77.3708 78.0727 77.0941 78.0969L76.3146 78.165C76.038 78.1892 75.8333 78.433 75.8575 78.7096L75.9255 79.4877C75.9497 79.7643 76.1935 79.9689 76.4701 79.9448L77.2497 79.8767ZM74.9675 80.0761C75.2441 80.0519 75.4488 79.8081 75.4246 79.5314L75.3566 78.7534C75.3325 78.4768 75.0886 78.2721 74.812 78.2963L74.0316 78.3645C73.7549 78.3886 73.5503 78.6325 73.5745 78.9091L73.6424 79.6872C73.6666 79.9638 73.9105 80.1684 74.1871 80.1443L74.9675 80.0761ZM72.6845 80.2756C72.9611 80.2514 73.1657 80.0075 73.1416 79.7309L73.0736 78.9529C73.0494 78.6763 72.8056 78.4716 72.529 78.4958L71.7523 78.5636C71.4756 78.5878 71.271 78.8316 71.2951 79.1083L71.3631 79.8863C71.3873 80.1629 71.6311 80.3676 71.9078 80.3434L72.6845 80.2756ZM70.4051 80.4747C70.6818 80.4505 70.8864 80.2067 70.8623 79.9301L70.7943 79.152C70.7701 78.8754 70.5263 78.6708 70.2496 78.6949L69.4696 78.7631C69.193 78.7873 68.9883 79.0311 69.0125 79.3077L69.0805 80.0858C69.1047 80.3624 69.3485 80.567 69.6251 80.5429L70.4051 80.4747ZM68.1225 80.6742C68.3991 80.65 68.6038 80.4061 68.5796 80.1295L68.5116 79.3515C68.4875 79.0749 68.2436 78.8702 67.967 78.8944L67.1866 78.9626C66.91 78.9867 66.7053 79.2306 66.7295 79.5072L66.7975 80.2852C66.8216 80.5619 67.0655 80.7665 67.3421 80.7423L68.1225 80.6742ZM65.8395 80.8736C66.1161 80.8495 66.3208 80.6056 66.2966 80.329L66.2286 79.551C66.2044 79.2743 65.9606 79.0697 65.684 79.0939L64.9078 79.1617C64.6312 79.1858 64.4265 79.4297 64.4507 79.7063L64.5187 80.4843C64.5429 80.761 64.7867 80.9656 65.0633 80.9415L65.8395 80.8736ZM63.5607 81.0727C63.8373 81.0486 64.042 80.8047 64.0178 80.5281L63.9498 79.7501C63.9257 79.4735 63.6818 79.2688 63.4052 79.293L62.6242 79.3612C62.3476 79.3854 62.1429 79.6292 62.1671 79.9058L62.2351 80.6839C62.2593 80.9605 62.5031 81.1652 62.7797 81.141L63.5607 81.0727ZM61.2771 81.2723C61.5537 81.2481 61.7584 81.0043 61.7342 80.7276L61.6662 79.9496C61.6421 79.673 61.3982 79.4683 61.1216 79.4925L60.3426 79.5606C60.0659 79.5847 59.8613 79.8286 59.8855 80.1052L59.9534 80.8832C59.9776 81.1599 60.2215 81.3645 60.4981 81.3403L61.2771 81.2723ZM58.9955 81.4716C59.2721 81.4475 59.4767 81.2036 59.4526 80.927L59.3846 80.149C59.3604 79.8723 59.1166 79.6677 58.8399 79.6919L58.0595 79.76C57.7829 79.7842 57.5782 80.0281 57.6024 80.3047L57.6704 81.0827C57.6946 81.3593 57.9384 81.564 58.215 81.5398L58.9955 81.4716ZM56.7124 81.6711C56.989 81.6469 57.1937 81.4031 57.1695 81.1265L57.1015 80.3484C57.0774 80.0718 56.8335 79.8672 56.5569 79.8913L55.7803 79.9592C55.5037 79.9834 55.299 80.2272 55.3232 80.5038L55.3912 81.2819C55.4153 81.5585 55.6592 81.7631 55.9358 81.739L56.7124 81.6711ZM54.4332 81.8703C54.7098 81.8461 54.9145 81.6023 54.8903 81.3256L54.8223 80.5476C54.7981 80.271 54.5543 80.0663 54.2777 80.0905L53.4976 80.1587C53.2209 80.1828 53.0163 80.4267 53.0405 80.7033L53.1084 81.4813C53.1326 81.7579 53.3764 81.9626 53.6531 81.9384L54.4332 81.8703ZM52.1505 82.0697C52.4271 82.0456 52.6317 81.8017 52.6076 81.5251L52.5396 80.7471C52.5154 80.4704 52.2716 80.2658 51.9949 80.2899L51.2145 80.3581C50.9379 80.3823 50.7333 80.6261 50.7574 80.9028L50.8254 81.6808C50.8496 81.9574 51.0934 82.1621 51.37 82.1379L52.1505 82.0697ZM49.8674 82.2692C50.144 82.245 50.3487 82.0012 50.3245 81.7246L50.2566 80.9465C50.2324 80.6699 49.9885 80.4653 49.7119 80.4894L48.9334 80.5575C48.6567 80.5816 48.4521 80.8255 48.4762 81.1021L48.5442 81.8801C48.5684 82.1567 48.8122 82.3614 49.0889 82.3372L49.8674 82.2692ZM47.5862 82.4685C47.8629 82.4444 48.0675 82.2005 48.0434 81.9239L47.9754 81.1459C47.9512 80.8692 47.7074 80.6646 47.4307 80.6887L46.6522 80.7568C46.3756 80.7809 46.171 81.0248 46.1951 81.3014L46.2631 82.0794C46.2873 82.3561 46.5311 82.5607 46.8078 82.5365L47.5862 82.4685ZM45.3051 82.6678C45.5818 82.6437 45.7864 82.3998 45.7622 82.1232L45.6943 81.3452C45.6701 81.0685 45.4263 80.8639 45.1496 80.8881L44.37 80.9562C44.0934 80.9803 43.8888 81.2242 43.9129 81.5008L43.9809 82.2788C44.0051 82.5555 44.2489 82.7601 44.5255 82.736L45.3051 82.6678ZM43.0229 82.8672C43.2995 82.8431 43.5042 82.5992 43.48 82.3226L43.412 81.5446C43.3879 81.268 43.144 81.0633 42.8674 81.0875L42.0874 81.1556C41.8108 81.1798 41.6061 81.4236 41.6303 81.7003L41.6983 82.4783C41.7224 82.7549 41.9663 82.9596 42.2429 82.9354L43.0229 82.8672ZM40.7403 83.0667C41.0169 83.0425 41.2216 82.7987 41.1974 82.5221L41.1294 81.744C41.1052 81.4674 40.8614 81.2627 40.5848 81.2869L39.8082 81.3548C39.5316 81.3789 39.3269 81.6228 39.3511 81.8994L39.4191 82.6774C39.4433 82.9541 39.6871 83.1587 39.9637 83.1345L40.7403 83.0667ZM38.4611 83.2658C38.7377 83.2417 38.9424 82.9978 38.9182 82.7212L38.8502 81.9432C38.8261 81.6665 38.5822 81.4619 38.3056 81.4861L37.5256 81.5542C37.249 81.5784 37.0443 81.8222 37.0685 82.0989L37.1365 82.8769C37.1606 83.1535 37.4045 83.3582 37.6811 83.334L38.4611 83.2658ZM36.1785 83.4653C36.4551 83.4411 36.6598 83.1973 36.6356 82.9206L36.5676 82.1426C36.5434 81.866 36.2996 81.6613 36.023 81.6855L35.242 81.7537C34.9654 81.7779 34.7607 82.0218 34.7849 82.2984L34.8529 83.0764C34.877 83.353 35.1209 83.5577 35.3975 83.5335L36.1785 83.4653ZM33.8949 83.6648C34.1715 83.6406 34.3762 83.3968 34.352 83.1202L34.284 82.3421C34.2598 82.0655 34.016 81.8609 33.7394 81.885L32.9599 81.9531C32.6832 81.9773 32.4786 82.2212 32.5027 82.4978L32.5707 83.2758C32.5949 83.5524 32.8387 83.7571 33.1154 83.7329L33.8949 83.6648ZM31.6127 83.8642C31.8894 83.84 32.094 83.5962 32.0699 83.3196L32.0019 82.5415C31.9777 82.2649 31.7339 82.0603 31.4572 82.0844L30.6812 82.1522C30.4045 82.1764 30.1999 82.4203 30.2241 82.6969L30.292 83.4749C30.3162 83.7515 30.56 83.9562 30.8367 83.932L31.6127 83.8642ZM29.334 84.0633C29.6107 84.0392 29.8153 83.7953 29.7912 83.5187L29.7232 82.7407C29.699 82.464 29.4552 82.2594 29.1785 82.2835L28.398 82.3517C28.1214 82.3759 27.9168 82.6198 27.9409 82.8964L28.0089 83.6744C28.0331 83.951 28.2769 84.1557 28.5536 84.1315L29.334 84.0633ZM27.0509 84.2628C27.3276 84.2386 27.5322 83.9948 27.508 83.7182L27.4401 82.9401C27.4159 82.6635 27.172 82.4589 26.8954 82.483L26.1149 82.5512C25.8382 82.5754 25.6336 82.8192 25.6578 83.0959L25.7257 83.8739C25.7499 84.1505 25.9937 84.3552 26.2704 84.331L27.0509 84.2628ZM24.7678 84.4623C25.0444 84.4381 25.249 84.1943 25.2249 83.9177L25.1569 83.1396C25.1327 82.863 24.8889 82.6584 24.6122 82.6825L23.8338 82.7505C23.5571 82.7747 23.3525 83.0186 23.3766 83.2952L23.4446 84.0732C23.4688 84.3498 23.7126 84.5545 23.9893 84.5303L24.7678 84.4623ZM22.4866 84.6616C22.7633 84.6374 22.9679 84.3936 22.9438 84.117L22.8758 83.3389C22.8516 83.0623 22.6078 82.8577 22.3311 82.8818L21.5535 82.9498C21.2769 82.974 21.0723 83.2178 21.0964 83.4944L21.1644 84.2725C21.1886 84.5491 21.4324 84.7537 21.709 84.7296L22.4866 84.6616ZM20.2064 84.8609C20.4831 84.8367 20.6877 84.5928 20.6635 84.3162L20.5956 83.5382C20.5714 83.2616 20.3275 83.0569 20.0509 83.0811L19.27 83.1493C18.9934 83.1735 18.7888 83.4173 18.8129 83.6939L18.8809 84.472C18.9051 84.7486 19.1489 84.9533 19.4256 84.9291L20.2064 84.8609Z" fill="#262748"/>
</g>
<path d="M30.9097 87.2766L29.4803 83.4113C29.0765 82.3193 28.1676 81.4915 27.0427 81.1912L15.3368 78.0661C14.9862 77.9725 14.655 78.2698 14.7102 78.6284L15.3471 82.7647C15.7074 85.1052 17.6255 86.8933 19.9854 87.089L30.3966 87.9521C30.7632 87.9825 31.0373 87.6217 30.9097 87.2766Z" fill="#2F1940"/>
<path opacity="0.2" d="M20.4238 85.5262C18.9313 85.2207 15.3561 80.4284 18.3328 80.7631C19.9676 80.9469 23.6327 81.9203 23.6327 81.9203C23.6327 81.9203 26.4975 82.9506 26.3156 84.7257C26.1736 86.1116 23.6149 86.1793 20.4238 85.5262Z" fill="#9DB4F0"/>
<path d="M61.345 86.8965L30.5648 89.586L13.7264 87.1202C12.4728 86.9366 11.421 88.0603 11.687 89.299C11.8639 90.1226 12.5837 90.7166 13.4258 90.7339L30.6961 91.0886L61.4763 88.3991L61.345 86.8965Z" fill="#8F1414"/>
<path d="M61.2136 85.3938L30.4334 88.0832L12.8103 86.4038C11.9173 86.3187 11.1658 87.0642 11.2439 87.9579C11.3079 88.6898 11.9141 89.2553 12.6487 89.2683L30.5647 89.5859L61.3449 86.8964L61.2136 85.3938Z" fill="#FF574C"/>
<path d="M36.7583 64.4328C46.9003 61.5343 56.5673 61.1065 56.5673 61.1065L56.894 64.8453L57.1173 67.0646L58.8146 65.4657L57.2206 68.5841L53.344 65.5126C53.0682 65.2941 52.7258 65.1769 52.374 65.1805L36.9007 65.3411C36.3281 65.347 36.2077 64.5902 36.7583 64.4328Z" fill="#A8DDF3"/>
<path fill-rule="evenodd" clip-rule="evenodd" d="M59.1392 60.33C59.1392 60.33 47.4814 60.9761 37.0067 63.861C36.4471 64.0152 36.5753 64.7653 37.1553 64.7437L52.5445 64.1712C52.8896 64.1583 53.2289 64.2621 53.5078 64.4658L57.0887 67.0814L57.0899 67.0772L57.0904 67.0831L60.1936 63.88C60.4326 63.6333 60.7475 63.4737 61.0878 63.427L76.5293 61.3051C77.1052 61.226 77.101 60.4551 76.5225 60.3982C69.3718 59.6948 62.6721 60.0482 59.1349 60.344L59.1392 60.33Z" fill="#1B1C36"/>
<path d="M15.4658 77.4808C21.897 79.5226 26.4137 80.531 29.0048 81.0116C30.7356 81.3327 32.4988 81.3421 34.2524 81.1889L58.1392 79.1017L59.8922 78.9486L82.0494 77.0126C83.803 76.8593 85.5378 76.5443 87.1867 75.9279C89.6552 75.0052 93.9286 73.2288 99.9082 70.1025" stroke="#FF574C" stroke-width="1.50834" stroke-linecap="round"/>
<path d="M58.9068 87.8656C58.8705 87.4507 59.1775 87.0849 59.5925 87.0487L87.1405 84.6416L103.296 79.293C104.499 78.8948 105.73 79.819 105.682 81.0851C105.651 81.9269 105.045 82.6367 104.219 82.7998L87.2718 86.1442L59.7237 88.5513C59.3088 88.5875 58.943 88.2805 58.9068 87.8656Z" fill="#8F1414"/>
<path d="M58.7753 86.3639C58.7391 85.9489 59.046 85.5832 59.461 85.5469L87.009 83.1399L104.074 78.4295C104.938 78.1908 105.808 78.7948 105.886 79.6884C105.95 80.4203 105.451 81.0824 104.73 81.2226L87.1403 84.6425L59.5923 87.0495C59.1773 87.0858 58.8116 86.7788 58.7753 86.3639Z" fill="#FF574C"/>
<path d="M26.9956 28.6278C27.259 28.0932 27.741 27.7024 28.3221 27.5699C39.7802 24.9571 62.0969 22.7951 78.6656 23.1928C79.2895 23.2078 79.8647 23.5162 80.2301 24.0222L89.9266 37.45C90.3836 38.0829 89.9765 38.9724 89.1988 39.0404L20.6164 45.0328C19.8358 45.101 19.2806 44.2897 19.6269 43.5867L26.9956 28.6278Z" fill="#1B1C36"/>
<path d="M28.2502 28.7205C40.529 25.2275 68.0602 23.6508 77.4811 24.2353C78.1939 24.2795 78.829 24.6512 79.2514 25.2271L87.2712 36.1617C87.7348 36.7939 87.3288 37.6899 86.5478 37.7582L21.2112 43.467L28.2502 28.7205Z" fill="#3E2C64"/>
<mask id="mask2" mask-type="alpha" maskUnits="userSpaceOnUse" x="21" y="24" width="67" height="20">
<path d="M28.2502 28.7205C40.529 25.2275 68.0602 23.6508 77.4811 24.2353C78.1939 24.2795 78.829 24.6512 79.2514 25.2271L87.2712 36.1617C87.7348 36.7939 87.3288 37.6899 86.5478 37.7582L21.2112 43.467L28.2502 28.7205Z" fill="#3E2C64"/>
</mask>
<g mask="url(#mask2)">
<path d="M28.7012 39.229C28.751 37.9233 29.746 36.8492 31.0442 36.6998L41.7911 35.4636C43.127 35.3099 44.3659 36.1822 44.6717 37.4917L48.0569 51.9881C48.4167 53.5291 47.3534 55.0394 45.7814 55.2203L31.079 56.9115C29.4671 57.0969 28.0691 55.8019 28.131 54.1805L28.7012 39.229Z" fill="#312153"/>
<path d="M32.011 33.3799C32.0578 32.152 32.9935 31.1419 34.2143 31.0015L37.9328 30.5737C39.1891 30.4292 40.3542 31.2495 40.6418 32.4809L41.9117 37.9194C42.2501 39.3685 41.2501 40.7888 39.7718 40.9589L34.5694 41.5573C33.0535 41.7317 31.7389 40.5138 31.797 38.9891L32.011 33.3799Z" fill="#312153"/>
<path d="M60.4273 35.8228C60.4771 34.517 61.4721 33.4429 62.7702 33.2936L73.5172 32.0574C74.8531 31.9037 76.092 32.7759 76.3978 34.0854L79.783 48.5819C80.1428 50.1228 79.0794 51.6332 77.5074 51.814L62.8051 53.5053C61.1931 53.6907 59.7952 52.3957 59.857 50.7743L60.4273 35.8228Z" fill="#312153"/>
<path d="M63.737 29.9737C63.7839 28.7458 64.7196 27.7357 65.9404 27.5952L69.6589 27.1675C70.9152 27.023 72.0803 27.8432 72.3678 29.0747L73.6378 34.5131C73.9762 35.9622 72.9762 37.3826 71.4979 37.5526L66.2955 38.1511C64.7796 38.3254 63.465 37.1076 63.5231 35.5828L63.737 29.9737Z" fill="#312153"/>
<circle cx="72.2219" cy="39.6104" r="6.40136" transform="rotate(-2.08562 72.2219 39.6104)" stroke="#21143D" stroke-width="1.60034"/>
<path d="M21.7043 41.4098C55.8068 35.0431 94.245 35.1809 94.245 35.1809L96.8885 51.483L22.1702 54.204C22.1702 54.204 16.7894 42.3273 21.7043 41.4098Z" fill="#444388"/>
</g>
<path opacity="0.8" d="M80.0492 41.3547L30.0833 45.7205C29.2008 45.7976 28.8573 46.8815 29.5627 47.4172C40.8729 56.0049 56.0024 56.317 69.678 56.1167C71.9743 56.0831 74.0559 54.5096 75.1237 52.4764C76.6769 49.5191 79.0667 45.7269 80.9967 43.1159C81.5384 42.3832 80.957 41.2754 80.0492 41.3547Z" fill="#FF4C41"/>
<path opacity="0.3" d="M73.1536 26.2034C68.0426 26.2066 61.3058 26.6043 57.0763 26.8937C54.3912 27.0774 51.7193 27.3753 49.0536 27.7463L35.0276 29.6989C32.3077 30.0775 30.0086 31.9046 29.0255 34.4688L26.8512 40.1403C26.5852 40.834 27.1375 41.5666 27.8776 41.502L81.6394 36.8045C82.3768 36.7401 82.7942 35.9278 82.4173 35.2907L79.1199 29.7174C77.8588 27.5859 75.6302 26.2019 73.1536 26.2034Z" fill="#AD87FF"/>
<path d="M93.3597 31.6892C92.2924 32.9609 92.6879 36.3634 93.0191 37.9056C98.5568 37.8931 101.673 36.3639 102.539 35.6009C102.431 34.9229 102.106 33.3407 101.673 32.4358C101.133 31.3046 94.6938 30.0996 93.3597 31.6892Z" fill="#262748"/>
<path d="M15.3594 38.5049C16.6311 39.5722 16.8317 42.9917 16.773 44.5681C11.317 45.5161 7.98261 44.5505 6.99739 43.9493C6.98651 43.2628 7.03202 41.6483 7.30112 40.682C7.63749 39.4742 13.7699 37.1708 15.3594 38.5049Z" fill="#262748"/>
<path d="M91.9828 37.9974L91.7727 38.4015C91.6078 38.7186 91.7217 39.1093 92.0313 39.288L92.1023 39.329C92.4537 39.5318 92.9013 39.3392 92.9956 38.9446C93.0495 38.719 93.2275 38.5438 93.454 38.4935L101.358 36.7364C101.451 36.7158 101.536 36.6693 101.603 36.6023L102.534 35.6782C102.64 35.5725 102.544 35.3932 102.397 35.4234L92.7671 37.4048C92.4298 37.4742 92.1417 37.6918 91.9828 37.9974Z" fill="#E95858"/>
<path d="M17.8091 44.4766L18.0862 44.8382C18.3036 45.1218 18.2591 45.5264 17.9852 45.7561L17.9224 45.8088C17.6115 46.0695 17.1373 45.9575 16.9759 45.5852C16.8837 45.3723 16.6781 45.2307 16.4463 45.2204L8.35714 44.8607C8.26223 44.8565 8.17045 44.8254 8.09244 44.7712L7.01559 44.0224C6.89248 43.9368 6.95613 43.7435 7.10601 43.7478L16.9339 44.029C17.2781 44.0389 17.5996 44.2033 17.8091 44.4766Z" fill="#E95858"/>
<path d="M94.9035 31.9825C94.5173 32.0954 94.237 32.3831 94.0375 32.7317C93.5868 33.5191 94.3962 34.2979 95.3 34.219L99.9877 33.8094C100.386 33.7745 100.846 33.5672 100.78 33.1726C100.757 33.0328 100.682 32.8871 100.523 32.7532C99.9779 32.2961 96.1338 31.6226 94.9035 31.9825Z" fill="#5D4C83"/>
<path d="M13.9842 39.0517C14.3842 39.096 14.7101 39.3306 14.9671 39.6394C15.5475 40.3367 14.8855 41.2441 13.9817 41.323L9.29398 41.7326C8.89546 41.7675 8.40645 41.643 8.40298 41.243C8.40176 41.1012 8.45023 40.9447 8.58404 40.7853C9.04115 40.2406 12.7102 38.9107 13.9842 39.0517Z" fill="#5D4C83"/>
<path d="M102.865 61.7867C98.5036 62.6313 87.7336 64.5452 80.9014 64.2876C80.4318 64.2699 80.2139 64.7971 80.5931 65.0746C82.0391 66.1328 85.0391 67.9741 90.1187 69.592C90.7612 69.7966 91.4644 69.6492 91.9811 69.2159L94.54 67.0698C95.4088 66.3412 96.4138 65.7927 97.4966 65.4563L99.8259 64.7327C100.935 64.3882 101.962 63.8213 102.845 63.0666L103.292 62.6839C103.688 62.3452 103.377 61.6876 102.865 61.7867Z" fill="#FF574D"/>
<path d="M11.4611 69.8319C15.5248 69.9828 24.8614 70.1503 33.4445 69.0084C33.9144 68.9459 34.1935 69.486 33.8501 69.8127C32.2419 71.3425 28.8768 74.2142 25.0886 75.504C24.5798 75.6772 24.0241 75.5997 23.5586 75.331L20.4586 73.5413C19.4767 72.9744 18.3917 72.6086 17.267 72.4651L14.8475 72.1564C13.6956 72.0094 12.5857 71.6292 11.5856 71.0391L11.1801 70.7998C10.7249 70.5312 10.933 69.8123 11.4611 69.8319Z" fill="#FF574D"/>
<path opacity="0.3" d="M94.727 51.1256C91.9604 51.6463 89.1084 53.8292 87.1394 55.774C86.0476 56.8523 86.7963 58.3276 88.3237 58.1791C90.4813 57.9694 93.1455 57.644 95.2803 57.4575C98.8968 57.1415 99.1262 55.4734 98.9233 53.1516C98.7649 51.3388 98.9449 50.3316 94.727 51.1256Z" fill="white"/>
<path opacity="0.3" d="M17.2538 57.8939C20.0688 57.9269 23.2562 59.5821 25.5326 61.1559C26.7949 62.0286 26.3134 63.6114 24.7834 63.73C22.6221 63.8977 19.9419 64.0392 17.8071 64.2258C14.1906 64.5418 13.6754 62.9388 13.4725 60.617C13.3141 58.8041 12.9622 57.8435 17.2538 57.8939Z" fill="white"/>
</g>
</svg>
