<?xml version="1.0"?>
<svg xmlns="http://www.w3.org/2000/svg" viewBox="0 0 112 112" fill="none">
<mask id="mask0" mask-type="alpha" maskUnits="userSpaceOnUse" x="0" y="0" width="112" height="112">
<rect width="112" height="112" fill="white"/>
</mask>
<g mask="url(#mask0)">
<path d="M61.2727 9.99865C50.4655 8.64397 42.951 15.7407 40.5446 19.4584L52.502 79.9431L78.2058 24.1792C77.0644 20.0168 72.0798 11.3533 61.2727 9.99865Z" fill="#9B9B9B"/>
<path d="M60.9677 5.80367C52.8626 4.12242 50.1513 11.3777 49.8089 15.2155L40.4419 20.2779L39.8164 53.4628L39.1909 86.6478L54.7466 88.5978L78.9218 25.1013C76.3976 24.2305 71.3802 21.5782 71.5042 17.935C71.6593 13.3812 71.099 7.90523 60.9677 5.80367Z" fill="#A7C5D2"/>
<path d="M60.4599 74.9322L60.0074 38.9136L55.7184 38.376L49.1794 73.5701C49.0996 73.9995 49.2189 74.4419 49.5037 74.773L53.3242 79.2144C53.8122 79.7818 54.6534 79.8811 55.2601 79.4428L59.8629 76.1184C60.2431 75.8437 60.4658 75.4012 60.4599 74.9322Z" fill="#AD4A36"/>
<path d="M54.5764 38.6608L53.2187 35.1524L54.4772 29.5213L64.4848 30.7758L60.9763 39.0716C60.6413 39.8635 59.8211 40.3364 58.9679 40.2295L56.1291 39.8736C55.4278 39.7857 54.8315 39.3199 54.5764 38.6608Z" fill="#CC5A43"/>
<path d="M31.7933 16.2832L48.672 10.9147L46.98 32.6648L52.2429 78.7207L49.984 96.7291C49.3034 102.155 44.3536 106.002 38.9279 105.321L27.2841 103.862C25.0232 103.579 23.4202 101.516 23.7036 99.2552L28.5791 60.3607C31.9903 47.8958 32.2771 24.714 31.7933 16.2832Z" fill="#182759"/>
<path d="M89.0561 23.8771L74.066 14.098L72.6659 35.9397L49.2974 77.7242C49.0808 78.1114 48.941 78.5369 48.8859 78.9771L46.7121 96.3184C46.032 101.744 49.8792 106.694 55.3052 107.375L70.9943 109.341C73.2552 109.625 75.3177 108.022 75.6011 105.761L80.5047 66.6416C79.9161 53.6267 86.1978 31.9204 89.0561 23.8771Z" fill="#1C2C65"/>
<rect x="14.1279" y="95.2695" width="9.64529" height="4.82265" rx="0.68895" transform="rotate(7.1448 14.1279 95.2695)" fill="#E3EFF4"/>
<rect x="76.3354" y="103.067" width="9.64529" height="4.82265" rx="0.68895" transform="rotate(7.1448 76.3354 103.067)" fill="#E3EFF4"/>
<path d="M13.0582 95.8584C13.7051 85.1149 18.5245 13.8874 32.4931 15.6384C34.8508 17.3701 34.0146 40.0552 31.1893 47.176C31.1391 47.3026 31.1064 47.4272 31.0894 47.5624L24.8698 97.18C24.7664 98.0054 24.0133 98.5907 23.1879 98.4872L14.3711 97.382C13.5874 97.2838 13.0107 96.6469 13.0582 95.8584Z" fill="#2A3C7A"/>
<path d="M86.7972 105.102C88.822 94.531 101.732 24.3176 87.7638 22.5667C85.0516 23.6629 80.2627 45.8526 81.243 53.4504C81.2604 53.5855 81.2613 53.7143 81.2444 53.8495L75.0248 103.467C74.9213 104.293 75.5066 105.046 76.332 105.149L85.1488 106.254C85.9325 106.352 86.6486 105.878 86.7972 105.102Z" fill="#2A3C7A"/>
<path d="M48.0147 22.8899C49.1461 13.8641 56.2259 11.4121 61.8671 12.1193L62.3761 8.05836C45.2385 5.91074 41.9795 15.8282 35.9617 28.6685C35.4823 29.6914 36.1339 30.8946 37.2548 31.0351L44.3742 31.9275L37.8827 33.2809C36.9411 33.4773 36.3662 34.4352 36.6397 35.3574C41.4759 51.6692 46.7525 65.2182 50.5038 75.8079C50.8284 76.7242 52.2264 76.4382 52.144 75.4696C50.4192 55.2136 46.9973 31.0061 48.0147 22.8899Z" fill="#2A3C7A"/>
<path d="M71.5084 25.5421C72.6434 16.4877 66.0947 12.6629 60.5258 11.9649L61.0365 7.89104C77.9603 10.0131 78.5977 20.4592 81.1975 34.4302C81.4036 35.5375 80.4763 36.5366 79.3588 36.3965L72.3483 35.5177L78.2236 38.428C79.0792 38.8518 79.3982 39.912 78.9058 40.7301C69.7513 55.9393 57.7478 68.2484 50.5389 77.8078C50.0494 78.4569 48.9104 77.8795 49.1976 77.1189C56.5809 57.5693 70.4696 33.8294 71.5084 25.5421Z" fill="#334689"/>
<ellipse cx="52.2674" cy="83.0111" rx="2.56001" ry="3.07202" transform="rotate(7.1448 52.2674 83.0111)" fill="#273A7A"/>
<ellipse cx="52.2684" cy="83.0112" rx="1.53601" ry="2.04801" transform="rotate(7.1448 52.2684 83.0112)" fill="#223267"/>
<path d="M60.9678 5.80306C52.8627 4.12181 50.1515 11.3771 49.809 15.2149C49.809 15.2149 51.898 28.9176 59.6284 29.7507C67.2705 30.5743 71.0426 21.6183 71.5044 17.9344C72.3783 10.9629 71.0992 7.90462 60.9678 5.80306Z" fill="#9EB7C1"/>
<path d="M47.0575 14.8382C49.7262 5.69725 58.1036 4.92724 62.2589 5.44811L61.8416 8.77697C60.2041 8.57172 52.1658 7.5641 51.2759 14.6635C50.6272 19.8386 53.9063 28.9603 59.228 29.6273C59.228 29.6273 54.7566 32.2165 51.9977 38.5673C51.6504 39.3669 50.3282 39.2926 50.1619 38.4368C49.1988 33.4797 47.4725 24.4284 46.796 19.82C46.5515 18.1545 46.5858 16.4541 47.0575 14.8382Z" fill="#E3EFF4"/>
<path d="M73.5066 18.6291C73.4177 8.96991 66.4357 5.97219 62.2585 5.44809L61.8413 8.77695C63.4787 8.9822 69.9964 9.62219 69.1065 16.7216C68.4579 21.8954 64.2335 29.497 59.2277 29.6273C59.2277 29.6273 62.5763 33.1008 63.6264 39.7192C63.7655 40.5962 65.1178 40.8499 65.4747 40.0368C67.5028 35.4164 71.0014 27.3723 72.6045 23.2482C73.1789 21.7708 73.5212 20.2142 73.5066 18.6291Z" fill="#E3EFF4"/>
<rect x="65.126" y="77.6191" width="3.35617" height="14.9532" rx="0.68895" transform="rotate(-30.3273 65.126 77.6191)" fill="#334689"/>
<rect width="3.35617" height="14.9532" rx="0.68895" transform="matrix(-0.711819 -0.702363 -0.702363 0.711819 41.0693 74.6035)" fill="#2A3C7A"/>
<rect x="55.3013" y="13" width="10" height="4" rx="1" transform="rotate(4.31859 55.3013 13)" fill="#A7C5D2"/>
</g>
</svg>
