<?xml version="1.0"?>
<svg xmlns="http://www.w3.org/2000/svg" viewBox="0 0 112 112" fill="none">
<mask id="mask0" mask-type="alpha" maskUnits="userSpaceOnUse" x="0" y="0" width="112" height="112">
<rect width="112" height="112" fill="white"/>
</mask>
<g mask="url(#mask0)">
<path d="M95.7308 114.613H83.0461C82.1156 110.897 81.1983 107.276 80.2662 103.96C79.1716 100.067 78.1234 96.8406 77.1114 94.5235C76.6044 93.3627 76.188 92.6217 75.8935 92.2017C75.8178 92.0938 75.764 92.0267 75.7336 91.9913C75.8107 92.0668 76.0428 92.2667 76.4535 92.4557L81.5985 81.2773C83.6885 82.2393 85.0877 83.88 85.9693 85.1373C86.9143 86.4851 87.7084 88.0415 88.3883 89.598C89.7499 92.7156 90.9807 96.604 92.1125 100.63C93.2194 104.567 94.2959 108.874 95.3401 113.051L95.4403 113.452C95.5374 113.84 95.6342 114.227 95.7308 114.613Z" fill="#223566"/>
<path d="M75.7336 91.9913C75.7138 91.972 75.7042 91.9608 75.7043 91.9601C75.7045 91.9593 75.7144 91.969 75.7336 91.9913Z" fill="#223566"/>
<path d="M83.0587 52.7921C82.8647 50.7081 81.0114 49.1803 78.9287 49.3874L78.8589 49.3944C78.1779 49.4621 77.6793 50.0669 77.7427 50.7483L78.2107 55.7751C78.2751 56.467 78.8905 56.9743 79.582 56.9055L79.6754 56.8962C81.7397 56.691 83.251 54.8576 83.0587 52.7921Z" fill="#F65539"/>
<path d="M32.2113 114.613L27.3515 46.696C26.3105 32.1395 37.1189 19.5049 51.4946 18.476C65.8694 17.4473 78.3677 28.4134 79.4096 42.9699L84.536 114.613L32.2113 114.613Z" fill="#B0DEE7"/>
<path d="M46.7299 114.612L45.2712 93.0874L77.5723 90.8984L79.1793 114.612L46.7299 114.612Z" fill="#E4E8EA"/>
<path d="M56.2701 114.612L55.6931 113.555L58.6384 99.5078L61.131 99.5078L64.7556 112.875L64.1642 114.612L56.2701 114.612Z" fill="#AD4A36"/>
<path d="M57.6552 100.453L55.6931 97.2422L55.6931 93.6172L64.529 93.6172L62.4427 100.066C62.2008 100.814 61.5043 101.32 60.7183 101.32L59.2018 101.32C58.5704 101.32 57.9845 100.992 57.6552 100.453Z" fill="#CC5A43"/>
<path d="M59.7197 91.7274L34.3999 80.251L40.7436 91.7274L51.2881 99.8891C52.4728 100.806 54.176 100.592 55.0968 99.4102L59.7197 93.4775L64.9356 98.7564C65.9719 99.8052 67.6554 99.8369 68.7304 98.8277L77.8998 90.2197L79.4857 78.2119L59.7197 91.7274Z" fill="white"/>
<path d="M32.6499 19.9262L38.0689 24.3982" stroke="#B0DEE7" stroke-width="3.51589" stroke-miterlimit="10"/>
<path d="M71.4438 19.7354L66.9152 24.4357" stroke="#B0DEE7" stroke-width="3.51589" stroke-miterlimit="10"/>
<path d="M49.5294 46.3258L30.5987 47.5666C27.7439 47.7537 25.6322 50.3002 25.9766 53.1403L26.0222 53.5166" stroke="#5B7DBE" stroke-width="3.41328" stroke-miterlimit="10" stroke-linecap="round"/>
<ellipse rx="4.01604" ry="6.80751" transform="matrix(0.997826 -0.0659004 0.0783212 0.996928 29.1528 56.2876)" fill="#FFB762"/>
<path fill-rule="evenodd" clip-rule="evenodd" d="M28.3946 60.2643C28.7979 60.2101 29.1229 59.9187 29.2598 59.5355C29.6007 58.5817 29.7552 57.4205 29.6578 56.1811C29.5785 55.1717 29.342 54.2356 28.9942 53.4373C28.8265 53.0522 28.4713 52.773 28.0518 52.7532C27.9203 52.7471 27.7871 52.7483 27.6526 52.7573C25.7409 52.8861 24.2984 54.5447 24.436 56.4558L24.4814 57.0859C24.6181 58.9845 26.2635 60.4155 28.1626 60.2876C28.2408 60.2824 28.3181 60.2746 28.3946 60.2643Z" fill="white"/>
<path d="M26.1943 57.7764L29.1203 55.6364L32.8652 60.7568C33.4561 61.5648 33.2802 62.6988 32.4722 63.2898C31.6642 63.8807 30.5302 63.7047 29.9393 62.8968L26.1943 57.7764Z" fill="white"/>
<path d="M69.1134 30.9221C64.3685 25.6723 57.6032 22.9513 50.5542 23.4563" stroke="#ECFBFF" stroke-width="2.63691" stroke-miterlimit="10" stroke-linecap="round"/>
<path d="M73.0615 37.3444C72.6013 36.2858 72.0685 35.2745 71.4695 34.3142" stroke="#ECFBFF" stroke-width="2.63691" stroke-miterlimit="10" stroke-linecap="round"/>
<path d="M66.5195 66.8857L66.5888 67.5739C66.8697 70.3631 64.9936 72.8573 62.4199 73.1165L60.0567 73.3545C57.4829 73.6137 55.1472 71.5436 54.8663 68.7544L54.797 68.0662" fill="white"/>
<path d="M66.5195 66.8857L66.5888 67.5739C66.8697 70.3631 64.9936 72.8573 62.4199 73.1165L60.0567 73.3545C57.4829 73.6137 55.1472 71.5436 54.8663 68.7544L54.797 68.0662" stroke="#8CC2CF" stroke-width="2.13755" stroke-miterlimit="10" stroke-linecap="round" stroke-linejoin="round"/>
<path d="M31.9508 23.9874C29.0748 24.1823 26.5854 22.0089 26.3905 19.1329C26.1956 16.2569 28.369 13.7675 31.245 13.5726C34.121 13.3777 36.6104 15.5512 36.8053 18.4271C37.0002 21.3031 34.8268 23.7925 31.9508 23.9874Z" fill="#B0DEE7"/>
<path d="M31.8537 21.7799C30.2046 21.8917 28.7771 20.6454 28.6653 18.9962C28.5536 17.3471 29.7999 15.9196 31.449 15.8078C33.0982 15.6961 34.5257 16.9424 34.6374 18.5915C34.7492 20.2407 33.5029 21.6682 31.8537 21.7799Z" fill="#F65539"/>
<path d="M74.2359 22.4317C71.36 22.6266 68.8706 20.4532 68.6757 17.5772C68.4808 14.7013 70.6542 12.2119 73.5302 12.017C76.4061 11.8221 78.8955 13.9955 79.0904 16.8715C79.2853 19.7474 77.1119 22.2368 74.2359 22.4317Z" fill="#B0DEE7"/>
<path d="M74.1391 20.2252C72.49 20.337 71.0625 19.0907 70.9507 17.4415C70.839 15.7924 72.0853 14.3649 73.7344 14.2531C75.3836 14.1414 76.8111 15.3877 76.9228 17.0368C77.0346 18.686 75.7883 20.1135 74.1391 20.2252Z" fill="#F65539"/>
<path d="M30.274 114.614L28.1624 79.3291L54.6216 114.614L30.274 114.614Z" fill="#1B2A5F"/>
<path d="M65.8435 114.614L84.3813 80.4184L86.6591 114.614L65.8435 114.614Z" fill="#1B2A5F"/>
<path fill-rule="evenodd" clip-rule="evenodd" d="M23.9585 114.614C20.7054 106.297 20.5422 94.4965 25.565 82.6152L36.8994 87.4068C32.831 97.0305 33.5123 105.757 35.6359 110.659C36.4533 112.546 37.328 113.52 37.8507 113.908C37.9138 113.955 37.9648 113.99 38.0047 114.015C38.2713 113.863 38.9285 113.39 39.8268 112.046C41.0519 110.212 42.426 107.18 43.6246 102.512L55.5436 105.572C54.6654 108.993 53.6253 112.011 52.4226 114.614L23.9585 114.614ZM38.1203 114.076L38.1216 114.076C38.1216 114.076 38.1165 114.075 38.105 114.07C38.1129 114.072 38.1181 114.074 38.1203 114.076Z" fill="#223566"/>
<path d="M64.1182 114.613L81.1783 71.6305C81.4758 70.8811 82.5303 70.8641 82.8518 71.6035L85.5293 77.7617C86.1549 79.2006 86.1285 80.8396 85.4568 82.2575L77.0228 100.063C76.6585 100.832 77.0889 101.742 77.9145 101.948C78.8654 102.186 79.2601 103.318 78.6511 104.086C76.8686 106.334 73.511 110.567 70.3005 114.613L64.1182 114.613Z" fill="#2E4082"/>
<path d="M47.4079 114.615C44.2621 112.099 41.3282 109.752 39.5574 108.335C38.744 107.684 38.8836 106.418 39.8121 105.946C40.6112 105.539 40.8452 104.507 40.2996 103.796L25.9009 85.0216C24.7295 83.4943 24.5422 81.429 25.4197 79.7159L28.0379 74.6045C28.3531 73.989 29.2137 73.9391 29.5979 74.514L56.4025 114.615L47.4079 114.615Z" fill="#2E4082"/>
<path d="M57.8246 89.5289C59.8012 94.3504 51.5562 94.0065 52.5104 88.6884C53.4643 83.3695 56.4183 82.5147 61.2397 80.5381" stroke="#81BCCA" stroke-width="5.30889" stroke-miterlimit="10" stroke-linecap="round"/>
<path d="M64.6658 47.0138C64.5879 45.5799 65.6716 44.3531 67.1001 44.2564C71.466 43.9607 77.1706 43.5828 81.2889 43.3111C83.7377 43.1496 85.8382 45.0348 85.9437 47.4882L86.2152 53.8003C86.4009 58.1176 83.0693 61.7886 78.742 62.0777C77.0071 62.1936 75.2728 62.3152 73.5394 62.4397C69.141 62.7556 65.3385 59.4126 65.0998 55.0126L64.6658 47.0138Z" fill="#30284F" stroke="#5B7DBE" stroke-width="1.75026"/>
<path d="M46.1717 45.7054L60.2856 44.7254C60.939 44.6817 61.5831 44.8984 62.0772 45.3282C62.5702 45.7571 62.8739 46.3633 62.9222 47.0148L63.4118 55.251C63.6712 59.615 60.3229 63.3663 55.9452 63.6596C54.2581 63.7726 52.5716 63.8909 50.8858 64.012C46.4875 64.3279 42.6849 60.9848 42.4462 56.5848L42.1056 50.3076C41.9761 47.9203 43.7867 45.871 46.1717 45.7054Z" fill="#30284F" stroke="#5B7DBE" stroke-width="1.75026"/>
<path opacity="0.5" d="M74.2664 55.8945L79.9726 48.9097C80.193 48.6439 80.3305 48.3192 80.3679 47.976C80.4053 47.6327 80.3409 47.286 80.1828 46.979C80.0247 46.672 79.7798 46.4183 79.4786 46.2494C79.1774 46.0805 78.8333 46.0039 78.4889 46.0291L71.6789 46.4792C70.9554 46.5273 70.2806 46.8607 69.8028 47.4062C69.325 47.9516 69.0833 48.6644 69.1308 49.388L69.4593 54.3592C69.6251 56.8101 72.7094 57.7987 74.2664 55.8945Z" fill="#82959E"/>
<path opacity="0.5" d="M50.7693 57.5391L56.4755 50.5542C56.696 50.2884 56.8335 49.9636 56.8709 49.6202C56.9082 49.2768 56.8437 48.93 56.6855 48.623C56.5272 48.316 56.2821 48.0623 55.9807 47.8935C55.6794 47.7247 55.335 47.6483 54.9905 47.6737L48.1856 48.1234C47.4621 48.1716 46.7873 48.505 46.3095 49.0505C45.8317 49.5959 45.59 50.3087 45.6375 51.0323L45.966 56.0035C46.128 58.4547 49.2123 59.4433 50.7693 57.5391Z" fill="#82959E"/>
<path d="M57.2705 44.9325L73.0229 43.8386" stroke="#5B7DBE" stroke-width="1.75026"/>
<path d="M62.0825 46.061L65.3642 45.8086" stroke="#5B7DBE" stroke-width="1.75026"/>
<path d="M54.0482 91.4128C50.4037 93.9639 50.7519 101.931 49.8244 108.772" stroke="#81BCCA" stroke-width="6.96437" stroke-miterlimit="10" stroke-linecap="round"/>
<path fill-rule="evenodd" clip-rule="evenodd" d="M26.5073 114.614L35.6367 110.659C36.4541 112.546 37.3288 113.52 37.8515 113.908C37.9146 113.955 37.9656 113.989 38.0055 114.015C38.2721 113.863 38.9293 113.39 39.8276 112.046C41.0528 110.212 42.4268 107.18 43.6254 102.512L43.6502 102.415L45.2641 96.8818L57.0775 100.327L55.5189 105.671C54.6461 109.051 53.6144 112.036 52.4233 114.614H26.5073ZM38.1224 114.076C38.1224 114.076 38.1165 114.073 38.1057 114.07C38.1173 114.075 38.1224 114.076 38.1224 114.076Z" fill="#223566"/>
</g>
</svg>
