<svg width="72" height="54" viewBox="0 0 72 54" fill="none" xmlns="http://www.w3.org/2000/svg">
<path fill-rule="evenodd" clip-rule="evenodd" d="M18 41.0039C31.3748 41.0039 44.6566 41.0039 57 41.0039C60.866 41.0039 64 37.8699 64 34.0039C64 30.7869 61.83 28.0768 58.8738 27.2575C58.0282 21.4578 53.0343 17.0039 47 17.0039C44.7317 17.0039 42.6105 17.6332 40.8012 18.7268C39.7246 12.6329 34.4029 8.00391 28 8.00391C20.8203 8.00391 15 13.8242 15 21.0039C15 21.2797 15.0086 21.5534 15.0255 21.8249C11.4801 23.3622 9 26.8934 9 31.0039C9 35.8418 12.5 41.0039 18 41.0039Z" fill="#9CEAE4"/>
<path fill-rule="evenodd" clip-rule="evenodd" d="M49.2211 7.41995C49.7123 7.7986 50 8.38372 50 9.00392V29.0039C50 30.1085 49.1046 31.0039 48 31.0039C46.8954 31.0039 46 30.1085 46 29.0039V11.5983L31 15.5457V19.5039C31 20.6085 30.1046 21.5039 29 21.5039C27.8954 21.5039 27 20.6085 27 19.5039V14.0039C27 13.0954 27.6124 12.301 28.491 12.0698L47.491 7.06978C48.0908 6.91194 48.7299 7.04129 49.2211 7.41995Z" fill="#FF6170"/>
<path d="M38.6415 13.5344C37.7439 12.258 36.6225 11.1504 35.3343 10.2686L28.491 12.0694C27.6124 12.3006 27 13.095 27 14.0036V17.0036H26C24.8954 17.0036 24 17.899 24 19.0036C24 19.7438 24.4022 20.3902 25 20.736V22.0165C19.9857 22.2765 16 26.4246 16 31.5036C16 36.7503 20.2533 41.0036 25.5 41.0036H42V32.246C42 27.0098 38.0708 22.6913 33 22.0782V20.736C33.5978 20.3902 34 19.7438 34 19.0036C34 17.899 33.1046 17.0036 32 17.0036H31V15.5453L38.6415 13.5344Z" fill="#59299D"/>
<path d="M44.9995 22.0039C43.8949 22.0039 42.9995 22.8993 42.9995 24.0039C42.9995 24.7442 43.4017 25.3905 43.9995 25.7363V29.2346L37.4579 37.789C36.4516 39.105 37.3899 41.0039 39.0466 41.0039H56.9523C58.609 41.0039 59.5474 39.105 58.541 37.789L51.9995 29.2347V25.7363C52.5973 25.3905 52.9995 24.7442 52.9995 24.0039C52.9995 22.8993 52.1041 22.0039 50.9995 22.0039H44.9995Z" fill="#FF6170"/>
<path d="M36 33.5039C36.6871 32.3283 36.5002 31.0039 34.8349 31.0039H23C21.6621 31.0039 21.1189 32.3566 22 33.5039C23.152 35.0039 25.9245 36.0039 28.8067 36.0039C31.6889 36.0039 35 35.2149 36 33.5039Z" fill="#9CEAE4"/>
<path d="M29.8067 31.0039C29.8067 32.1085 28.9112 33.0039 27.8067 33.0039C26.7021 33.0039 25.8067 32.1085 25.8067 31.0039C25.8067 29.8993 26.7021 29.0039 27.8067 29.0039C28.9112 29.0039 29.8067 29.8993 29.8067 31.0039Z" fill="#9CEAE4"/>
<path d="M34.8067 31.0039C34.8067 32.6608 33.4635 34.0039 31.8067 34.0039C30.1498 34.0039 28.8067 32.6608 28.8067 31.0039C28.8067 29.3471 30.1498 28.0039 31.8067 28.0039C33.4635 28.0039 34.8067 29.3471 34.8067 31.0039Z" fill="#9CEAE4"/>
</svg>
