<?xml version="1.0"?>
<svg xmlns="http://www.w3.org/2000/svg" viewBox="0 0 112 112" fill="none">
<mask id="mask0" style="mask-type:alpha" maskUnits="userSpaceOnUse" x="0" y="0" width="112" height="112">
<rect width="112" height="112" fill="white"/>
</mask>
<g mask="url(#mask0)">
<path d="M23.3453 66.1864L22.2077 66.3054C21.2405 66.4019 20.2746 66.1106 19.5222 65.4954C18.7697 64.8802 18.2922 63.9914 18.1945 63.0244L18.1629 62.7221C18.0664 61.7549 18.3578 60.789 18.973 60.0366C19.5882 59.2841 20.4769 58.8066 21.4439 58.7089L22.5793 58.5902L23.3453 66.1864Z" fill="#F65539"/>
<path d="M80.5642 60.5168L80.7534 60.497C81.2323 60.4489 81.697 60.307 82.1209 60.0793C82.5449 59.8516 82.9198 59.5426 83.2243 59.1699C83.5288 58.7972 83.7569 58.3682 83.8955 57.9074C84.0342 57.4466 84.0806 56.9629 84.0323 56.4841L84.0007 56.1818C83.9523 55.7028 83.8101 55.2381 83.5821 54.8142C83.3542 54.3902 83.045 54.0153 82.6721 53.7109C82.2993 53.4064 81.8702 53.1784 81.4092 53.0398C80.9482 52.9012 80.4645 52.8548 79.9856 52.9031L79.7963 52.9229C79.5474 52.9489 79.3187 53.0718 79.1596 53.2649C79.0004 53.458 78.9236 53.706 78.9456 53.9553L79.5201 59.6585C79.5317 59.7836 79.5681 59.9052 79.627 60.0162C79.6858 60.1272 79.7661 60.2255 79.8632 60.3053C79.9603 60.3851 80.0722 60.4449 80.1926 60.4812C80.3129 60.5175 80.4392 60.5296 80.5642 60.5168Z" fill="#F65539"/>
<path d="M79.0032 63.7437L79.3817 63.7041C79.6562 63.6765 79.9226 63.5951 80.1656 63.4645C80.4086 63.334 80.6236 63.1568 80.7981 62.9431C80.9726 62.7294 81.1033 62.4834 81.1827 62.2192C81.2621 61.9549 81.2886 61.6777 81.2607 61.4032L80.3054 51.9115C80.2778 51.637 80.1964 51.3706 80.0658 51.1275C79.9353 50.8845 79.7581 50.6696 79.5444 50.4951C79.3307 50.3205 79.0847 50.1899 78.8205 50.1105C78.5563 50.0311 78.279 50.0046 78.0045 50.0324L77.626 50.072C77.3515 50.0995 77.0851 50.1809 76.8421 50.3115C76.599 50.4421 76.3841 50.6193 76.2096 50.833C76.0351 51.0467 75.9044 51.2926 75.825 51.5569C75.7456 51.8211 75.7191 52.0984 75.7469 52.3729L76.7045 61.8643C76.732 62.1387 76.8133 62.4049 76.9437 62.6478C77.0742 62.8907 77.2511 63.1056 77.4646 63.2801C77.6781 63.4546 77.9238 63.5853 78.1878 63.6649C78.4518 63.7444 78.7289 63.7712 79.0032 63.7437Z" fill="#FFB762"/>
<path d="M24.8497 69.1931L24.4734 69.2325C24.1989 69.2603 23.9216 69.2338 23.6574 69.1544C23.3932 69.075 23.1472 68.9443 22.9335 68.7698C22.7198 68.5953 22.5426 68.3804 22.412 68.1373C22.2815 67.8943 22.2001 67.6279 22.1725 67.3534L21.215 57.8619C21.1874 57.5876 21.2142 57.3105 21.2937 57.0465C21.3733 56.7825 21.504 56.5368 21.6785 56.3233C21.853 56.1099 22.0679 55.9329 22.3108 55.8025C22.5537 55.672 22.8199 55.5907 23.0943 55.5632L23.4727 55.5236C23.7472 55.4958 24.0245 55.5223 24.2887 55.6017C24.553 55.6811 24.799 55.8118 25.0126 55.9863C25.2263 56.1608 25.4035 56.3757 25.5341 56.6188C25.6647 56.8618 25.7461 57.1282 25.7736 57.4027L26.7286 66.89C26.7567 67.1647 26.7304 67.4422 26.6512 67.7067C26.5719 67.9711 26.4413 68.2174 26.2668 68.4313C26.0923 68.6452 25.8773 68.8226 25.6341 68.9533C25.3909 69.0841 25.1244 69.1655 24.8497 69.1931Z" fill="#FFB762"/>
<path d="M39.8669 84.9548L26.3997 86.3106C24.7888 86.5027 23.3177 87.3195 22.3028 88.5852C21.2879 89.8508 20.8103 91.4643 20.9728 93.0785C21.1353 94.6926 21.9249 96.1785 23.1717 97.2165C24.4185 98.2545 26.0229 98.7617 27.6398 98.6289L41.1067 97.2709L39.8669 84.9548Z" fill="#BEDCE4"/>
<path d="M47.283 22.2651C61.9666 20.7865 75.0881 31.6202 76.5751 46.4678L85.4332 134.355C85.4649 134.641 85.4396 134.932 85.3588 135.208C85.2781 135.485 85.1434 135.743 84.9625 135.968C84.7816 136.192 84.5581 136.379 84.3049 136.516C84.0517 136.654 83.7737 136.741 83.4869 136.771L34.6647 141.69C34.3776 141.718 34.0877 141.69 33.8118 141.605C33.5358 141.521 33.2793 141.383 33.0569 141.199C32.8345 141.016 32.6507 140.79 32.516 140.535C32.3813 140.279 32.2984 140 32.2722 139.713L23.4141 51.8257C21.9141 36.9795 32.5997 23.7459 47.283 22.2651Z" fill="#B8DEE5"/>
<path d="M58.3245 70.4111L58.3759 71.0244C58.5846 73.51 56.8786 75.7014 54.585 75.8939L52.479 76.0707C50.1854 76.2632 48.1379 74.387 47.9293 71.9014L47.8778 71.2881" fill="white"/>
<path d="M58.3245 70.4111L58.3759 71.0244C58.5846 73.51 56.8786 75.7014 54.585 75.8939L52.479 76.0707C50.1854 76.2632 48.1379 74.387 47.9293 71.9014L47.8778 71.2881" stroke="#8CC2CF" stroke-width="1.90199" stroke-miterlimit="10" stroke-linecap="round" stroke-linejoin="round"/>
<path d="M70.3182 42.1661C70.1683 41.6428 69.9472 41.0695 69.6641 40.4662M67.8399 37.3877C66.2763 35.1893 64.1648 33.0199 61.8574 31.6641" stroke="white" stroke-width="2.56182" stroke-linecap="round"/>
<path d="M33.4728 100.131L37.8094 99.693C37.9188 99.6872 38.0258 99.6593 38.124 99.6109C38.2223 99.5625 38.3096 99.4946 38.3808 99.4114C38.4519 99.3281 38.5054 99.2313 38.5379 99.1267C38.5704 99.0221 38.5813 98.912 38.5699 98.8031C38.5586 98.6942 38.5251 98.5887 38.4717 98.4932C38.4182 98.3976 38.3458 98.3139 38.259 98.2472C38.1722 98.1804 38.0727 98.1321 37.9665 98.105C37.8604 98.078 37.7499 98.0729 37.6417 98.0899L33.3121 98.5317C33.1079 98.5639 32.9238 98.6733 32.7978 98.8372C32.6718 99.0012 32.6136 99.2072 32.6351 99.4129C32.6566 99.6185 32.7562 99.808 32.9134 99.9424C33.0706 100.077 33.2733 100.146 33.4798 100.135L33.4728 100.131Z" fill="#A2CED8"/>
<path d="M34.1494 106.834L38.4838 106.396C38.6881 106.364 38.8722 106.254 38.9981 106.09C39.1241 105.926 39.1824 105.72 39.1609 105.515C39.1394 105.309 39.0397 105.12 38.8826 104.985C38.7254 104.851 38.5227 104.782 38.3162 104.793L33.9796 105.231C33.7754 105.263 33.5913 105.372 33.4653 105.536C33.3393 105.7 33.2811 105.906 33.3026 106.112C33.3241 106.318 33.4237 106.507 33.5809 106.642C33.738 106.776 33.9408 106.845 34.1473 106.834L34.1494 106.834Z" fill="#A2CED8"/>
<path d="M33.8187 103.482L38.1555 103.046C38.3598 103.014 38.5439 102.904 38.6698 102.741C38.7958 102.577 38.854 102.371 38.8325 102.165C38.811 101.959 38.7114 101.77 38.5542 101.635C38.3971 101.501 38.1943 101.432 37.9879 101.443L33.6513 101.881C33.439 101.903 33.2442 102.009 33.1098 102.175C32.9754 102.341 32.9123 102.553 32.9345 102.765C32.9568 102.978 33.0624 103.172 33.2282 103.307C33.394 103.441 33.6064 103.504 33.8187 103.482Z" fill="#A2CED8"/>
<path d="M22.4197 34.9902L27.9927 38.6608" stroke="#BEDCE4" stroke-width="3.59538" stroke-miterlimit="10"/>
<path d="M44.3623 69.8553L61.8572 68.0937C63.1024 67.9683 64.3107 67.5989 65.4132 67.0066C66.5156 66.4142 67.4906 65.6104 68.2823 64.6412C69.0741 63.672 69.6672 62.5563 70.0277 61.3578C70.3882 60.1594 70.5091 58.9016 70.3835 57.6564L70.3014 56.8712C70.1758 55.6262 69.8062 54.4181 69.2137 53.316C68.6213 52.2138 67.8175 51.2391 66.8483 50.4475C65.8792 49.656 64.7636 49.0631 63.5653 48.7027C62.367 48.3423 61.1094 48.2214 59.8644 48.3471L42.3717 50.1085C39.857 50.3622 37.5461 51.6042 35.9472 53.5615C34.3482 55.5188 33.5922 58.031 33.8453 60.5457L33.9274 61.3309C34.181 63.845 35.4228 66.1553 37.3797 67.7539C39.3365 69.3525 41.8482 70.1084 44.3623 69.8553Z" fill="#36488B"/>
<path d="M49.0181 60.6909C49.7624 60.6253 50.3184 60.0141 50.3107 59.2702C50.3017 58.3958 49.5268 57.6967 48.652 57.7737L44.5409 58.1357C43.7966 58.2012 43.2406 58.8124 43.2483 59.5564C43.2573 60.4308 44.0322 61.1299 44.907 61.0529L49.0181 60.6909Z" fill="#6EDCFF"/>
<path d="M59.8475 61.3705C60.7837 61.2881 61.4631 60.4879 61.391 59.5525L61.158 56.5267C61.0809 55.5257 60.1778 54.7616 59.1759 54.8499L56.0957 55.1211C55.1595 55.2035 54.4801 56.0036 54.5522 56.939L54.7852 59.965C54.8623 60.966 55.7655 61.73 56.7673 61.6418L59.8475 61.3705Z" fill="#6EDCFF"/>
<path d="M67.1642 94.6448L81.1034 93.2396C82.7366 93.075 84.2375 92.2682 85.2759 90.9969C86.3142 89.7256 86.8051 88.0939 86.6404 86.4607C86.4757 84.8275 85.6689 83.3267 84.3977 82.2883C83.1264 81.2499 81.4946 80.7591 79.8615 80.9238L65.8154 82.3379L67.1642 94.6448Z" fill="#BEDCE4"/>
<path d="M71.8072 26.0927L67.1287 31.545" stroke="#B8DEE5" stroke-width="3.59538" stroke-miterlimit="10"/>
<path d="M75.2302 27.7313C76.2798 27.6215 77.2733 27.203 78.085 26.5287C78.8968 25.8543 79.4903 24.9544 79.7907 23.9427C80.091 22.9311 80.0846 21.853 79.7723 20.845C79.4601 19.8369 78.8559 18.9441 78.0362 18.2794C77.2166 17.6147 76.2182 17.208 75.1674 17.1106C74.1166 17.0132 73.0605 17.2296 72.1327 17.7324C71.2049 18.2352 70.4469 19.0018 69.9548 19.9353C69.4626 20.8689 69.2583 21.9273 69.3676 22.977C69.5149 24.3847 70.2152 25.6764 71.3145 26.568C72.4139 27.4595 73.8224 27.878 75.2302 27.7313Z" fill="#B8DEE5"/>
<path d="M74.9607 25.4925C75.563 25.4295 76.133 25.1893 76.5988 24.8024C77.0646 24.4154 77.4052 23.899 77.5775 23.3184C77.7497 22.7379 77.746 22.1193 77.5667 21.5409C77.3874 20.9625 77.0407 20.4502 76.5702 20.0689C76.0998 19.6876 75.5269 19.4543 74.9239 19.3986C74.3209 19.3429 73.715 19.4672 73.1826 19.7559C72.6503 20.0446 72.2155 20.4846 71.9333 21.0204C71.6511 21.5562 71.5341 22.1636 71.5971 22.7659C71.6815 23.5735 72.0834 24.3145 72.7142 24.8258C73.345 25.3372 74.1531 25.577 74.9607 25.4925Z" fill="#F65539"/>
<path d="M20.0179 37.7291C21.0609 37.5678 22.0327 37.1009 22.8103 36.3873C23.5879 35.6737 24.1365 34.7456 24.3866 33.7202C24.6367 32.6949 24.5772 31.6184 24.2155 30.6269C23.8539 29.6354 23.2063 28.7734 22.3547 28.15C21.5032 27.5265 20.4858 27.1695 19.4314 27.1243C18.377 27.079 17.3328 27.3474 16.4309 27.8955C15.529 28.4437 14.8099 29.247 14.3646 30.2038C13.9192 31.1606 13.7676 32.228 13.9289 33.271C14.1457 34.6694 14.9089 35.9245 16.0506 36.7604C17.1924 37.5964 18.6194 37.9448 20.0179 37.7291Z" fill="#BEDCE4"/>
<path d="M19.6192 35.5059C20.2176 35.4131 20.775 35.145 21.221 34.7354C21.667 34.3257 21.9816 33.7931 22.1249 33.2047C22.2681 32.6163 22.2337 31.9987 22.026 31.4299C21.8182 30.8611 21.4465 30.3667 20.9577 30.0091C20.469 29.6516 19.8852 29.447 19.2802 29.4213C18.6751 29.3956 18.0761 29.5498 17.5587 29.8645C17.0414 30.1793 16.629 30.6403 16.3737 31.1894C16.1184 31.7385 16.0316 32.351 16.1244 32.9494C16.2488 33.7519 16.6869 34.472 17.3423 34.9515C17.9977 35.4309 18.8167 35.6303 19.6192 35.5059Z" fill="#F65539"/>
<path d="M76.9709 83.7227C86.7007 88.3011 91.3765 107.408 92.7325 125.347" stroke="#F8F1BB" stroke-width="12.5817" stroke-miterlimit="10"/>
<path d="M42.6266 169.992L86.3872 166.65C88.4948 166.489 90.0553 164.623 89.8403 162.52L81.4689 80.6346C81.3395 79.369 79.5105 79.0431 78.8327 80.1198C64.5916 102.742 34.346 90.8218 34.346 90.8218L42.6266 169.992Z" fill="#F8F1BB"/>
<path d="M33.7521 171.285C33.8118 171.967 34.4083 172.475 35.0914 172.425L72.6764 169.685C75.4696 169.481 77.5538 167.028 77.3036 164.238L71.497 99.5072C71.2466 96.7168 68.7369 94.6881 65.9414 94.8722C33.5052 97.0086 26.1115 83.8855 26.1115 83.8855L33.7521 171.285Z" fill="#FFFACA"/>
<path d="M69.8596 101.401L44.3753 102.63C42.5313 102.719 41.0028 104.132 40.464 105.898C38.3734 112.749 32.4179 124.386 28.8293 129.314C28.2807 130.067 27.9565 130.966 27.9832 131.898L28.7396 158.293C28.746 158.517 28.7323 158.741 28.6988 158.963L24.7297 185.212C24.4423 187.113 25.6133 188.911 27.4898 189.329C39.0997 191.915 78.7103 199.321 97.9505 184.969C99.261 183.992 99.6057 182.215 98.9243 180.729L90.6785 162.744C90.3881 162.111 90.2054 161.433 90.1379 160.74L87.1832 130.361C87.0942 129.446 86.6635 128.606 86.0662 127.906C82.0027 123.149 76.2762 111.238 73.9534 104.335C73.3624 102.578 71.7106 101.311 69.8596 101.401Z" fill="#D82F2F"/>
<path d="M79.5547 76.8933C81.5926 77.5621 83.5417 78.7774 85.6205 80.6368C85.2751 86.0579 74.1792 108.049 70.861 114.519C70.3181 115.577 69.1154 116.099 67.9662 115.791L64.6015 114.891C63.0069 114.464 62.2274 112.666 63.0174 111.217C67.466 103.055 79.9136 79.893 79.5547 76.8933Z" fill="#363642"/>
<path d="M26.8949 91.9285C16.9156 109.748 15.6015 145.063 86.9476 140.158" stroke="#8CC2CF" stroke-width="7.18858" stroke-miterlimit="10" stroke-linecap="round"/>
<path d="M30.0309 93.6848C31.0009 91.9528 30.3831 89.7625 28.6512 88.7925C26.9192 87.8226 24.7289 88.4403 23.7589 90.1723L30.0309 93.6848ZM87.1941 143.744C89.1745 143.608 90.6696 141.892 90.5334 139.912C90.3973 137.931 88.6815 136.436 86.7011 136.572L87.1941 143.744ZM23.7589 90.1723C22.9958 91.535 22.281 92.9877 21.6372 94.5103L28.2581 97.31C28.7981 96.033 29.3962 94.8181 30.0309 93.6848L23.7589 90.1723ZM19.7362 99.9921C18.8976 103.067 18.3816 106.342 18.3612 109.681L25.5496 109.725C25.5657 107.091 25.9744 104.44 26.6715 101.884L19.7362 99.9921ZM18.8839 115.658C19.4871 118.885 20.6411 122.086 22.4894 125.115L28.6261 121.371C27.2651 119.141 26.4052 116.772 25.9502 114.337L18.8839 115.658ZM26.1865 129.927C28.3101 132.164 30.8927 134.199 33.9733 135.986L37.5803 129.768C35.045 128.298 33.0145 126.678 31.3998 124.977L26.1865 129.927ZM39.1426 138.546C41.8349 139.68 44.8167 140.663 48.1074 141.476L49.8326 134.498C46.8669 133.765 44.2451 132.895 41.9328 131.922L39.1426 138.546ZM53.5836 142.622C56.4179 143.115 59.4525 143.5 62.6983 143.768L63.29 136.604C60.2401 136.352 57.4204 135.993 54.8162 135.539L53.5836 142.622ZM68.166 144.099C71.0292 144.213 74.042 144.244 77.211 144.187L77.0809 137C74.0408 137.055 71.1669 137.024 68.4515 136.917L68.166 144.099ZM82.6396 144.008C84.1257 143.939 85.6437 143.851 87.1941 143.744L86.7011 136.572C85.2009 136.675 83.7347 136.76 82.3018 136.828L82.6396 144.008Z" fill="#A2CED8"/>
<path d="M29.8297 88.9377C18.6942 97.3905 23.5673 117.346 24.4262 128.709" stroke="#F8F1BB" stroke-width="12.5292" stroke-miterlimit="10"/>
<path d="M26.472 82.479C24.6417 83.429 22.1149 85.5521 21.5845 87.5298C27.4173 97.627 42.1287 112.429 45.6449 115.903C46.0859 116.339 46.774 116.383 47.2733 116.016L51.6126 112.821C52.2608 112.344 52.3097 111.392 51.7155 110.849C46.6209 106.195 26.3894 87.3978 26.472 82.479Z" fill="#363642"/>
<circle cx="70.6786" cy="105.245" r="2.56182" transform="rotate(14.9795 70.6786 105.245)" fill="#FFDD65"/>
<circle cx="42.3744" cy="106.952" r="2.56182" transform="rotate(14.9795 42.3744 106.952)" fill="#FFDD65"/>
<ellipse cx="23.7185" cy="13.9763" rx="11.7612" ry="12.3484" transform="rotate(-12.035 23.7185 13.9763)" fill="#F3EFCA"/>
<ellipse cx="41.4129" cy="5.05928" rx="11.7612" ry="12.3484" transform="rotate(-12.035 41.4129 5.05928)" fill="#F3EFCA"/>
<ellipse cx="61.2061" cy="5.98799" rx="11.7612" ry="12.3484" transform="rotate(-12.035 61.2061 5.98799)" fill="#F3EFCA"/>
<rect x="20.3503" y="9.90625" width="41.076" height="23.4386" rx="1.17196" transform="rotate(-12.035 20.3503 9.90625)" fill="#ECDBAF"/>
<path d="M17.2632 8.33105L63.113 -1.44392L66.4982 14.4342C66.8611 16.1365 65.292 17.7633 63.5517 17.7353C53.8185 17.5787 33.9848 21.468 24.6161 26.0129C23.0618 26.7669 21.0195 25.9503 20.6593 24.2607L17.2632 8.33105Z" fill="#F3EFCA"/>
<path d="M24.2998 32.9737C24.1056 31.8501 24.6972 30.7664 25.7168 30.2559C38.3976 23.9073 59.3437 21.7967 64.6868 22.0502C65.4518 22.0865 66.0193 22.6153 66.269 23.3393C66.5762 24.2302 66.7938 25.0215 66.9501 25.8456C67.2649 27.5051 65.892 28.9428 64.2034 28.9849C52.209 29.2843 41.687 29.5586 28.7713 36.0602C27.065 36.9191 24.9573 36.0992 24.5483 34.2333C24.4576 33.8193 24.3725 33.3945 24.2998 32.9737Z" fill="#F3EFCA"/>
</g>
</svg>
