<?xml version="1.0"?>
<svg xmlns="http://www.w3.org/2000/svg" viewBox="0 0 112 112" fill="none">
<mask id="mask0" style="mask-type:alpha" maskUnits="userSpaceOnUse" x="0" y="0" width="112" height="112">
<rect width="112" height="112" fill="white"/>
</mask>
<g mask="url(#mask0)">
<ellipse cx="34.4043" cy="39.2413" rx="22.9285" ry="17.0895" transform="rotate(-8.11292 34.4043 39.2413)" fill="#F3EFCA"/>
<ellipse cx="76.5076" cy="42.0798" rx="28.1228" ry="22.4084" transform="rotate(16.8807 76.5076 42.0798)" fill="#F3EFCA"/>
<path d="M21.4533 80.7709C21.8067 79.7667 22.1923 78.6968 23.1114 78.1597C30.5242 73.8278 67.6169 78.2997 76.9409 83.8238C78.5435 84.7733 78.9928 86.6788 79.1109 88.5378C79.2179 90.2215 79.3262 91.5331 79.3899 92.2561C79.4265 92.6714 79.4507 93.0999 79.27 93.4756C77.5788 96.9911 64.678 99.9017 49.5559 98.186C36.4342 96.6973 24.0163 91.8925 20.3493 88.2363C19.4016 87.2913 19.5953 85.8543 20.0676 84.6021C20.524 83.3922 21.0638 81.8776 21.4533 80.7709Z" fill="#E8DAA8"/>
<path d="M24.8552 74.323C24.8443 77.883 35.8047 82.3201 49.7617 84.4731C62.3586 86.4163 75.3256 84.5332 77.1513 81.4534L77.0088 86.121C76.0195 89.5003 63.0923 91.5263 49.2614 89.3927C34.6025 87.1314 23.3482 82.5266 23.802 78.9364L24.8552 74.323Z" fill="#DF6145"/>
<path d="M30.3361 53.127C34.8966 43.4672 80.6575 52.5962 81.3095 58.3001C81.494 59.9138 80.767 62.4963 79.7946 65.951C78.1457 71.8086 78.1794 76.5984 78.4013 79.2171C78.5238 80.663 78.6562 82.2833 77.4811 83.1345C73.9653 85.6812 63.2361 86.6894 50.2972 85.2214C37.4395 83.7626 26.8752 80.0207 23.8087 76.6637C22.9958 75.7738 23.1744 74.4634 23.557 73.3204C25.1593 68.5341 29.1887 55.5574 30.3361 53.127Z" fill="#E8DAA8"/>
<ellipse cx="51.1058" cy="46.9165" rx="21.6828" ry="17.7133" transform="rotate(4.16885 51.1058 46.9165)" fill="#F3EFCA"/>
</g>
</svg>
