<?xml version="1.0"?>
<svg xmlns="http://www.w3.org/2000/svg" viewBox="0 0 112 112" fill="none">
<mask id="mask0" style="mask-type:alpha" maskUnits="userSpaceOnUse" x="0" y="0" width="112" height="112">
<rect width="112" height="112" fill="white"/>
</mask>
<g mask="url(#mask0)">
<path d="M23.3988 20.9524C11.6323 17.8896 7.2687 22.7353 5.74968 28.0857C4.7042 31.7682 6.79341 35.4732 9.28141 38.3824C15.4715 45.6204 23.3206 58.0914 25.7544 62.5908C30.3557 71.0973 33.7306 93.0954 42.784 95.7238C51.8374 98.3522 66.4397 89.5908 84.2544 89.5908C100.901 89.5908 110.246 78.2019 99.7328 75.2814C89.2191 72.361 85.3123 41.6884 72.7544 30.5906C52.3113 12.5246 44.7181 26.5017 23.3988 20.9524Z" fill="#F9F2B5"/>
<path d="M32.502 78.7463L85.7772 65.9552C87.2408 65.6038 88.3106 64.3483 88.4252 62.8474L89.4577 49.3284C89.636 46.9943 87.4979 45.1578 85.2174 45.6862L28.3166 58.8713L32.502 78.7463Z" fill="#C05B3A"/>
<path d="M80.0036 53.5033L91.4042 50.4724C91.6801 50.399 91.9493 50.3021 92.2094 50.1824L100.628 46.3086C103.224 45.114 106.303 46.7979 107.117 49.8568C107.93 52.9158 106.093 55.9066 103.247 56.159L94.5169 56.9332C93.8983 56.988 93.287 57.0955 92.6885 57.2546L81.7726 60.1568L80.0036 53.5033Z" fill="#944B34"/>
<ellipse cx="30.4761" cy="68.8016" rx="7.74134" ry="10.1685" transform="rotate(-10.0238 30.4761 68.8016)" fill="#DB6F41"/>
<path fill-rule="evenodd" clip-rule="evenodd" d="M31.5154 78.8632L28.8385 74.2738C28.5284 73.7423 28.1673 73.2477 27.7582 72.7944L27.2306 72.2098C25.716 70.5314 25.8575 67.953 27.5467 66.4505C29.236 64.9481 31.8333 65.0907 33.3479 66.7691L34.304 67.8285C34.4278 67.9657 34.5656 68.0899 34.7164 68.2L38.2809 70.8048C37.8159 75.0649 35.2119 78.4333 31.702 78.8442C31.6398 78.8515 31.5776 78.8578 31.5154 78.8632Z" fill="#CF5F3C"/>
<path d="M31.6384 68.8256C31.9662 70.6801 31.0962 72.3843 29.6953 72.6319C28.2944 72.8795 26.893 71.5768 26.5652 69.7223C26.2374 67.8677 27.1073 66.1635 28.5082 65.9159C29.9091 65.6683 31.3105 66.971 31.6384 68.8256Z" fill="#C06143"/>
<ellipse cx="86.4606" cy="55.7143" rx="8.74082" ry="10.1506" transform="rotate(-4.36738 86.4606 55.7143)" fill="#C05B3A"/>
<path d="M31.5391 68.67C31.9643 70.5202 30.8091 72.3647 28.959 72.7899L26.9214 73.2581C26.7411 73.2996 26.5647 73.3566 26.3938 73.4287L17.8274 77.0428C15.2272 78.1398 12.2393 76.3486 11.5314 73.2682C10.8235 70.1879 12.7294 67.2719 15.5477 67.1236L24.1908 66.6689C24.8032 66.6367 25.41 66.5517 26.0058 66.4148L27.4193 66.0899C29.2694 65.6648 31.1139 66.8199 31.5391 68.67Z" fill="#A95135"/>
<ellipse cx="15.074" cy="70.1892" rx="2.26978" ry="2.63251" transform="rotate(45.1867 15.074 70.1892)" fill="#BE5D3F"/>
<path d="M37.4254 58.4168C36.2939 58.6697 35.985 60.1363 36.9184 60.824C37.2353 61.0575 37.6384 61.1413 38.0221 61.0533L87.0968 49.8046C88.2859 49.5321 88.3746 47.8723 87.2213 47.4745C87.0089 47.4013 86.7803 47.3884 86.561 47.4374L37.4254 58.4168Z" fill="#D3613C"/>
</g>
</svg>
