<?xml version="1.0"?>
<svg xmlns="http://www.w3.org/2000/svg" viewBox="0 0 112 112" fill="none">
<path fill-rule="evenodd" clip-rule="evenodd" d="M77.4089 19.0156C77.439 19.0208 77.4576 19.052 77.4495 19.0814C72.3487 37.4681 71.4627 47.7274 70.4254 59.7392C70.3494 60.619 70.2726 61.5081 70.1933 62.4105C69.7828 67.0806 66.5323 70.7789 62.2919 72.045C61.3892 72.3145 60.4953 72.6396 59.7153 73.168L32.9809 91.2786C25.9504 96.0413 16.332 93.4783 12.6036 85.8488C9.34513 79.1809 11.8718 71.129 18.3558 67.5184L39.4862 55.7515C41.1303 54.8359 42.3008 53.2543 42.6786 51.4107C45.1654 39.2752 47.0598 27.2588 47.9332 13.8893C47.9352 13.8585 47.9635 13.8361 47.9938 13.8415L77.4089 19.0156Z" fill="#DCEAF1"/>
<path d="M49.2853 13.8328C49.2108 14.2361 49.3094 14.7706 49.7888 15.4561C50.2719 16.1468 51.0841 16.899 52.2278 17.6441C54.5101 19.1309 57.8909 20.4453 61.8271 21.1726C65.7633 21.8999 69.3905 21.8803 72.0534 21.3071C73.3879 21.0199 74.4152 20.6076 75.1133 20.1351C75.806 19.6662 76.089 19.2022 76.1635 18.7989C76.238 18.3957 76.1395 17.8612 75.66 17.1757C75.1769 16.485 74.3648 15.7327 73.221 14.9877C70.9387 13.5008 67.558 12.1864 63.6218 11.4592C59.6856 10.7319 56.0584 10.7515 53.3954 11.3246C52.061 11.6118 51.0336 12.0242 50.3356 12.4967C49.6429 12.9656 49.3598 13.4296 49.2853 13.8328Z" fill="#D85139" stroke="#D7EAF4" stroke-width="2.58449"/>
<path d="M50.4019 20.2661L49.8859 26.5047" stroke="#C6DAE4" stroke-width="2.58449" stroke-linecap="round"/>
<path d="M72.749 23.8892L71.3317 29.7894" stroke="#C6DAE4" stroke-width="2.58449" stroke-linecap="round"/>
<path d="M67.6016 24.2646L66.3278 30.1779" stroke="#C6DAE4" stroke-width="2.58449" stroke-linecap="round"/>
<path d="M61.5415 23.9502L60.5165 30.1637" stroke="#C6DAE4" stroke-width="2.58449" stroke-linecap="round"/>
<path d="M56.2207 22.583L55.3191 28.6081" stroke="#C6DAE4" stroke-width="2.58449" stroke-linecap="round"/>
<g opacity="0.8">
<path d="M72.0924 43.9523C71.4731 48.3165 71.0747 52.3558 70.7065 56.5014L55.5053 60.1574C54.3388 60.438 53.358 59.2573 53.8478 58.1621L62.5801 38.6336C66.2032 38.9687 69.5864 41.0816 72.0924 43.9523Z" fill="#FFE374"/>
<path d="M61.8338 48.4466C61.7379 48.8206 61.3429 49.0505 61.0431 48.8072C60.8628 48.661 60.6989 48.4722 60.5543 48.2432C60.2582 47.7742 60.0509 47.1483 59.9473 46.4107C59.8438 45.6731 59.8465 44.842 59.9554 43.977C60.0263 43.4136 60.1411 42.845 60.2956 42.2885C60.4197 41.8416 60.9509 41.6775 61.3271 41.9487L62.7737 42.9915C63.007 43.1597 63.1135 43.4536 63.0421 43.7322L61.8338 48.4466Z" fill="#FD593B"/>
<path fill-rule="evenodd" clip-rule="evenodd" d="M61.0631 55.3441C61.4473 55.3504 61.7535 55.6669 61.7472 56.051C61.7343 56.832 61.1048 57.3368 60.5369 57.6059C59.9247 57.8961 59.1318 58.0488 58.2969 58.0351C57.462 58.0213 56.6745 57.8426 56.0722 57.5325C55.5135 57.2448 54.9008 56.7196 54.9137 55.9386C54.9265 55.1576 55.5561 54.6528 56.124 54.3837C56.7362 54.0935 57.5291 53.9408 58.364 53.9545C58.7481 53.9608 59.0544 54.2773 59.0481 54.6615C59.0417 55.0456 58.7252 55.3518 58.3411 55.3455C57.6731 55.3345 57.1004 55.4604 56.7197 55.6408C56.3824 55.8007 56.3187 55.9329 56.3071 55.9615C56.3177 55.9905 56.377 56.1247 56.709 56.2956C57.0835 56.4884 57.6517 56.6331 58.3198 56.6441C58.9878 56.6551 59.5604 56.5292 59.9412 56.3488C60.3234 56.1676 60.3543 56.022 60.3562 56.0224C60.3563 56.0224 60.3563 56.0225 60.3563 56.0229C60.3654 55.6412 60.6808 55.3378 61.0631 55.3441Z" fill="#FFFB8F"/>
<path fill-rule="evenodd" clip-rule="evenodd" d="M62.2847 45.5539C62.6104 45.9137 63.1424 46.24 63.8131 46.4036C64.4838 46.5673 65.1063 46.5227 65.5611 46.3534C66.0203 46.1825 66.238 45.9199 66.2973 45.677C66.3566 45.434 66.2843 45.1007 65.9554 44.7375C65.6297 44.3777 65.0978 44.0514 64.4271 43.8877C63.7563 43.724 63.1339 43.7686 62.6791 43.9379C62.2198 44.1088 62.0022 44.3714 61.9429 44.6144C61.8836 44.8573 61.9559 45.1906 62.2847 45.5539ZM61.2534 46.4876C60.7205 45.899 60.3901 45.1096 60.5914 44.2846C60.7927 43.4596 61.4496 42.9111 62.1938 42.6341C62.9423 42.3555 63.852 42.3154 64.7569 42.5362C65.6618 42.757 66.4507 43.2117 66.9867 43.8038C67.5197 44.3924 67.8501 45.1818 67.6488 46.0068C67.4475 46.8318 66.7905 47.3802 66.0464 47.6572C65.2979 47.9358 64.3882 47.976 63.4833 47.7552C62.5784 47.5343 61.7895 47.0796 61.2534 46.4876Z" fill="#FFFB8F"/>
<path d="M72.3598 42.134C72.1618 43.4266 71.9844 44.687 71.8232 45.9256C71.623 45.6544 71.4135 45.3893 71.1952 45.1313C68.9233 42.4459 65.8638 40.705 62.9354 40.5711C62.1379 40.5347 61.521 39.8587 61.5575 39.0613C61.5939 38.2639 62.2699 37.6469 63.0673 37.6834C66.5097 37.8407 69.8156 39.6023 72.3598 42.134Z" fill="#F8BC47"/>
<path d="M71.2267 51.0762C71.0293 52.9683 70.8558 54.8431 70.6878 56.7418C68.1099 57.8068 64.015 57.931 63.9532 57.8566C62.1907 55.7349 61.8241 51.8166 63.9355 50.0627C66.0469 48.3089 69.1872 48.607 70.9497 50.7287C71.0465 50.8452 71.1388 50.9611 71.2267 51.0762Z" fill="#FD593B"/>
<path d="M66.4004 52.0918C67.3997 51.2616 69.0064 51.5475 69.9889 52.7302C70.9713 53.913 71.2044 55.4534 70.205 56.2835C69.2056 57.1137 67.3111 56.7047 66.3286 55.5219C65.3461 54.3392 65.401 52.9219 66.4004 52.0918Z" fill="#FF846D"/>
</g>
<g opacity="0.8">
<path d="M17.2683 68.1882C17.6185 67.9491 17.9825 67.7238 18.3599 67.5137L34.6151 58.4617L41.9098 60.3307C43.2045 60.6624 43.5548 62.3361 42.5018 63.1592L23.7257 77.8358C20.4832 75.7157 18.3028 72.1109 17.2683 68.1882Z" fill="#FFE374"/>
<path d="M29.5754 68.5628C29.8647 68.2445 30.3734 68.224 30.5419 68.6198C30.6431 68.8577 30.7062 69.1291 30.7292 69.4299C30.7763 70.0461 30.6542 70.7703 30.3717 71.5505C30.0892 72.3308 29.6533 73.1476 29.0953 73.9425C28.7318 74.4603 28.3224 74.9604 27.8803 75.4278C27.5252 75.8031 26.9167 75.6878 26.6876 75.2247L25.8068 73.444C25.6647 73.1568 25.713 72.8119 25.9285 72.5748L29.5754 68.5628Z" fill="#FD593B"/>
<path fill-rule="evenodd" clip-rule="evenodd" d="M33.9643 62.1084C33.6278 61.9231 33.5052 61.5001 33.6905 61.1636C34.0877 60.4422 34.9292 60.2738 35.6196 60.3044C36.359 60.3372 37.2075 60.5955 38.014 61.0396C38.8206 61.4837 39.4926 62.0625 39.9157 62.6698C40.3108 63.2368 40.6184 64.038 40.2212 64.7594C39.824 65.4807 38.9825 65.6492 38.2921 65.6186C37.5527 65.5858 36.7042 65.3274 35.8977 64.8833C35.5612 64.6981 35.4386 64.275 35.6238 63.9385C35.8091 63.602 36.2321 63.4794 36.5687 63.6647C37.229 64.0283 37.8703 64.2073 38.3538 64.2288C38.8862 64.2524 39.0006 64.0919 39.0026 64.0884C39.0045 64.0848 39.0789 63.9024 38.7742 63.4651C38.4976 63.068 38.0034 62.6218 37.3431 62.2582C36.6827 61.8947 36.0414 61.7156 35.558 61.6942C35.0255 61.6706 34.9111 61.831 34.9092 61.8346C34.7239 62.1711 34.3009 62.2937 33.9643 62.1084Z" fill="#FFFB8F"/>
<path fill-rule="evenodd" clip-rule="evenodd" d="M27.6971 71.1609C27.5595 70.6196 27.1963 70.0078 26.6109 69.4879C26.0256 68.968 25.3751 68.6796 24.8213 68.6069C24.2629 68.5336 23.882 68.6814 23.6743 68.9153C23.4666 69.1491 23.3649 69.5448 23.5036 70.0907C23.6412 70.632 24.0044 71.2438 24.5898 71.7637C25.1752 72.2836 25.8256 72.572 26.3794 72.6447C26.9378 72.718 27.3187 72.5702 27.5264 72.3363C27.7341 72.1025 27.8359 71.7068 27.6971 71.1609ZM29.0454 70.8182C29.259 71.6587 29.1721 72.5783 28.5666 73.2601C27.9611 73.942 27.0582 74.1369 26.1983 74.024C25.3338 73.9105 24.4316 73.4838 23.666 72.8039C22.9004 72.124 22.3701 71.2784 22.1553 70.4334C21.9417 69.5929 22.0286 68.6733 22.6341 67.9915C23.2396 67.3096 24.1425 67.1147 25.0024 67.2276C25.8669 67.3411 26.7691 67.7678 27.5347 68.4477C28.3003 69.1276 28.8306 69.9732 29.0454 70.8182Z" fill="#FFFB8F"/>
<path d="M15.9033 69.2577C16.6435 68.6042 17.4642 68.0202 18.3605 67.5211L18.7105 67.3262C19.5997 70.9962 21.6586 74.1457 24.3809 75.7499C25.1471 76.2014 25.4021 77.1885 24.9506 77.9547C24.4991 78.7209 23.512 78.9759 22.7459 78.5244C19.4265 76.5684 17.0847 73.0928 15.9033 69.2577Z" fill="#F8BC47"/>
<path d="M23.565 64.6165L32.523 59.6281C32.4793 62.3586 30.8849 65.3486 28.3479 65.8795C26.5791 66.2498 24.8299 65.7269 23.565 64.6165Z" fill="#FD593B"/>
</g>
<path d="M55.8629 75.7843L43.9794 83.8345L45.5249 71.6363C49.2294 70.8768 53.3797 72.8745 55.8629 75.7843Z" fill="#FFE374"/>
<path d="M47.0064 78.2978C47.0181 78.5654 46.8021 78.7976 46.5541 78.6965C46.405 78.6357 46.2581 78.5433 46.116 78.4205C45.825 78.1687 45.5614 77.795 45.3441 77.3261C45.1269 76.8573 44.9614 76.305 44.8595 75.7088C44.7932 75.3205 44.7549 74.9199 44.7454 74.5193C44.7378 74.1977 45.0574 73.9818 45.3618 74.0861L46.5321 74.4872C46.7208 74.5518 46.8507 74.7255 46.8594 74.9248L47.0064 78.2978Z" fill="#FD593B"/>
<path fill-rule="evenodd" clip-rule="evenodd" d="M46.8299 76.1022C47.0774 76.2508 47.4529 76.3529 47.8943 76.3286C48.3356 76.3043 48.6976 76.1614 48.9273 75.9865C49.1607 75.8088 49.2006 75.6521 49.1961 75.5705C49.1916 75.4889 49.1347 75.3375 48.8831 75.1865C48.6356 75.0379 48.2602 74.9358 47.8188 74.9602C47.3774 74.9845 47.0155 75.1273 46.7858 75.3022C46.5524 75.4799 46.5124 75.6366 46.5169 75.7183C46.5214 75.7999 46.5784 75.9513 46.8299 76.1022ZM46.114 77.295C45.6018 76.9876 45.1653 76.4747 45.1278 75.7949C45.0903 75.115 45.4677 74.5573 45.943 74.1954C46.422 73.8306 47.0601 73.6087 47.7422 73.5711C48.4242 73.5335 49.0829 73.6839 49.5991 73.9937C50.1113 74.3011 50.5477 74.814 50.5852 75.4939C50.6227 76.1737 50.2453 76.7315 49.77 77.0934C49.291 77.4581 48.6529 77.68 47.9709 77.7177C47.2888 77.7553 46.6302 77.6049 46.114 77.295Z" fill="#FFFB8F"/>
<path d="M56.6372 75.2554L54.9727 76.383C54.3033 75.5464 53.4769 74.808 52.5531 74.2104C50.5042 72.8851 48.1226 72.3453 46.1515 72.846C45.6148 72.9824 45.0691 72.6578 44.9328 72.1211C44.7964 71.5844 45.121 71.0387 45.6577 70.9024C48.3058 70.2296 51.2575 70.984 53.6423 72.5266C54.7683 73.2549 55.8003 74.1797 56.6372 75.2554Z" fill="#F8BC47"/>
<path d="M53.0207 77.7077L48.3248 80.8888C48.2403 80.1959 48.3503 79.5133 48.7226 78.9489C49.6666 77.518 51.4991 77.0233 53.0207 77.7077Z" fill="#FD593B"/>
<path fill-rule="evenodd" clip-rule="evenodd" d="M84.505 17.0074C84.5354 17.0049 84.5614 17.0302 84.561 17.0607C84.3189 36.1403 86.079 46.2863 88.1398 58.1653C88.2907 59.0354 88.4433 59.9147 88.5968 60.8075C89.391 65.4273 87.1919 69.8319 83.4154 72.1379C82.6117 72.6286 81.8308 73.1709 81.2116 73.8804L59.9788 98.2136C54.3957 104.612 44.4417 104.587 38.8906 98.161C34.0391 92.5448 34.4285 84.1147 39.7769 78.9696L57.2069 62.2024C58.5631 60.8977 59.2915 59.0698 59.1865 57.1909C58.4957 44.8221 57.2624 32.7196 54.6967 19.569C54.6908 19.5388 54.7124 19.5099 54.7431 19.5074L84.505 17.0074Z" fill="#EEF3FF"/>
<path d="M55.9897 19.1698C56.0205 19.5787 56.2522 20.0704 56.8906 20.6109C57.5339 21.1556 58.5111 21.6758 59.807 22.1045C62.3931 22.96 65.9973 23.3686 69.9888 23.0678C73.9803 22.767 77.4825 21.8229 79.9112 20.5894C81.1282 19.9714 82.0164 19.3106 82.5708 18.6757C83.1211 18.0456 83.2764 17.5247 83.2456 17.1158C83.2148 16.7069 82.9831 16.2152 82.3447 15.6747C81.7014 15.1301 80.7242 14.6099 79.4283 14.1812C76.8422 13.3257 73.238 12.9171 69.2465 13.2179C65.255 13.5187 61.7528 14.4628 59.3241 15.6962C58.107 16.3143 57.2189 16.975 56.6644 17.61C56.1142 18.2401 55.9589 18.7609 55.9897 19.1698Z" fill="#D85139" stroke="#EEF3FF" stroke-width="2.58449"/>
<path d="M58.71 25.105L59.8024 31.2688" stroke="#C6E2F1" stroke-width="2.58449" stroke-linecap="round"/>
<path d="M81.2422 22.9082L81.3768 28.9748" stroke="#C6E2F1" stroke-width="2.58449" stroke-linecap="round"/>
<path d="M76.3608 24.5835L76.6375 30.626" stroke="#C6E2F1" stroke-width="2.58449" stroke-linecap="round"/>
<path d="M70.4209 25.8257L71.0147 32.0951" stroke="#C6E2F1" stroke-width="2.58449" stroke-linecap="round"/>
<path d="M64.9277 25.8613L65.5928 31.9171" stroke="#C6E2F1" stroke-width="2.58449" stroke-linecap="round"/>
<path d="M85.7249 42.4751C86.2393 46.8529 86.8843 50.8602 87.5857 54.9626L73.8199 62.3751C72.7635 62.9439 71.5141 62.0524 71.7083 60.8685L75.1706 39.7586C78.7593 39.1585 82.5696 40.3385 85.7249 42.4751Z" fill="#FFE374"/>
<path d="M76.9521 49.4367C76.9548 49.8227 76.6315 50.1458 76.2795 49.9871C76.0679 49.8917 75.8612 49.7509 75.6631 49.5664C75.2571 49.1884 74.897 48.6361 74.6087 47.9493C74.3205 47.2625 74.1111 46.4582 73.9958 45.5941C73.9207 45.0312 73.8866 44.4521 73.894 43.8746C73.9 43.4109 74.3718 43.1167 74.8047 43.283L76.4695 43.9223C76.738 44.0254 76.9159 44.2824 76.9179 44.57L76.9521 49.4367Z" fill="#FD593B"/>
<path fill-rule="evenodd" clip-rule="evenodd" d="M77.9665 56.3028C78.3395 56.211 78.7164 56.4389 78.8083 56.8119C78.995 57.5704 78.5151 58.2191 78.0346 58.6241C77.5166 59.0608 76.7889 59.4107 75.9781 59.6104C75.1674 59.8101 74.3604 59.8381 73.6989 59.6919C73.0852 59.5563 72.3589 59.2047 72.1721 58.4462C71.9853 57.6878 72.4653 57.0391 72.9458 56.634C73.4637 56.1973 74.1915 55.8474 75.0022 55.6477C75.3753 55.5559 75.7521 55.7838 75.844 56.1568C75.9358 56.5298 75.7079 56.9067 75.3349 56.9985C74.6862 57.1583 74.1646 57.4261 73.8425 57.6976C73.557 57.9383 73.5292 58.0824 73.5252 58.113C73.5429 58.1383 73.6345 58.2529 73.9991 58.3335C74.4104 58.4244 74.9968 58.4194 75.6455 58.2596C76.2942 58.0998 76.8158 57.832 77.1379 57.5605C77.4613 57.2879 77.4541 57.1391 77.456 57.139C77.456 57.139 77.4561 57.1392 77.4562 57.1395C77.3677 56.7681 77.5952 56.3943 77.9665 56.3028Z" fill="#FFFB8F"/>
<path fill-rule="evenodd" clip-rule="evenodd" d="M76.6505 46.5249C77.0572 46.7897 77.6547 46.9695 78.3451 46.9567C79.0354 46.9439 79.6258 46.742 80.0224 46.4622C80.4229 46.1798 80.5663 45.8704 80.5617 45.6204C80.5571 45.3704 80.4022 45.0665 79.9915 44.7992C79.5848 44.5344 78.9873 44.3545 78.297 44.3673C77.6067 44.3802 77.0162 44.5821 76.6196 44.8618C76.2192 45.1442 76.0757 45.4536 76.0803 45.7036C76.085 45.9537 76.2398 46.2575 76.6505 46.5249ZM75.8915 47.6907C75.226 47.2575 74.7052 46.5785 74.6894 45.7294C74.6736 44.8804 75.1689 44.1825 75.8178 43.7249C76.4705 43.2646 77.3399 42.9937 78.2711 42.9764C79.2024 42.9591 80.0812 43.1975 80.7506 43.6333C81.416 44.0665 81.9369 44.7455 81.9526 45.5946C81.9684 46.4436 81.4731 47.1415 80.8242 47.5991C80.1715 48.0594 79.3022 48.3303 78.3709 48.3476C77.4396 48.3649 76.5608 48.1265 75.8915 47.6907Z" fill="#FFFB8F"/>
<path d="M85.5203 40.6487C85.6585 41.9491 85.8085 43.213 85.9686 44.4517C85.7059 44.2406 85.4356 44.0377 85.1587 43.8439C82.2771 41.8268 78.8747 40.9239 76.009 41.5414C75.2286 41.7096 74.4597 41.2133 74.2915 40.433C74.1234 39.6526 74.6196 38.8837 75.4 38.7155C78.7686 37.9896 82.4146 38.8497 85.5203 40.6487Z" fill="#F8BC47"/>
<path d="M86.7056 49.584C86.9974 51.4639 87.3077 53.3209 87.6296 55.1997C85.4087 56.887 81.4809 58.0516 81.4021 57.9954C79.1568 56.3934 77.8029 52.6983 79.3971 50.4638C80.9913 48.2294 84.1038 47.7167 86.3491 49.3187C86.4724 49.4067 86.5913 49.4952 86.7056 49.584Z" fill="#FD593B"/>
<path d="M82.2974 51.7968C83.052 50.7392 84.6784 50.6057 85.93 51.4988C87.1817 52.3918 87.8 53.8218 87.0454 54.8794C86.2908 55.937 84.3546 56.0248 83.1029 55.1318C81.8512 54.2387 81.5428 52.8544 82.2974 51.7968Z" fill="#FF846D"/>
<path d="M38.8961 79.8946C39.1737 79.5741 39.4682 79.2635 39.7796 78.964L53.1882 66.0652L60.7183 66.0118C62.0548 66.0023 62.8204 67.5312 62.0121 68.5957L47.6007 87.5761C43.9247 86.3531 40.8969 83.4238 38.8961 79.8946Z" fill="#FFE374"/>
<path d="M50.8913 77.117C51.0899 76.7354 51.5766 76.5859 51.8404 76.9256C51.999 77.1298 52.1291 77.3761 52.2281 77.6611C52.4308 78.2449 52.4975 78.9763 52.4234 79.8028C52.3493 80.6292 52.1361 81.5303 51.7993 82.4412C51.5799 83.0346 51.3116 83.6225 51.0033 84.1873C50.7558 84.6408 50.1379 84.6845 49.7983 84.2951L48.4924 82.798C48.2818 82.5565 48.2405 82.2107 48.3884 81.9265L50.8913 77.117Z" fill="#FD593B"/>
<path fill-rule="evenodd" clip-rule="evenodd" d="M53.4889 69.757C53.1163 69.6637 52.8898 69.2859 52.9832 68.9133C53.1832 68.1145 53.9539 67.737 54.6293 67.5905C55.3526 67.4336 56.2389 67.4669 57.1321 67.6906C58.0252 67.9143 58.8226 68.3026 59.3866 68.7818C59.9133 69.2293 60.4151 69.9256 60.215 70.7244C60.015 71.5231 59.2443 71.9007 58.5689 72.0472C57.8456 72.2041 56.9593 72.1707 56.0661 71.947C55.6935 71.8537 55.467 71.476 55.5604 71.1033C55.6537 70.7307 56.0314 70.5042 56.4041 70.5975C57.1353 70.7807 57.8011 70.7902 58.274 70.6876C58.7949 70.5746 58.8645 70.3903 58.8655 70.3864C58.8665 70.3825 58.8919 70.1871 58.4858 69.8419C58.117 69.5286 57.5253 69.2232 56.7941 69.0401C56.0629 68.857 55.3971 68.8474 54.9242 68.95C54.4033 69.063 54.3336 69.2473 54.3327 69.2512C54.2393 69.6239 53.8616 69.8503 53.4889 69.757Z" fill="#FFFB8F"/>
<path fill-rule="evenodd" clip-rule="evenodd" d="M49.7377 80.1079C49.4666 79.6195 48.9593 79.1206 48.2607 78.7672C47.5621 78.4138 46.8596 78.3009 46.3056 78.3719C45.747 78.4434 45.4163 78.6835 45.2751 78.9626C45.134 79.2417 45.1365 79.6503 45.4099 80.1427C45.6811 80.631 46.1883 81.1299 46.8869 81.4833C47.5855 81.8367 48.288 81.9496 48.842 81.8786C49.4007 81.8071 49.7313 81.5671 49.8725 81.2879C50.0137 81.0088 50.0111 80.6003 49.7377 80.1079ZM50.954 79.4326C51.375 80.1908 51.5255 81.1021 51.1139 81.9159C50.7023 82.7296 49.879 83.1484 49.0188 83.2585C48.1539 83.3693 47.1727 83.1869 46.259 82.7247C45.3453 82.2626 44.6169 81.5802 44.1937 80.818C43.7727 80.0598 43.6222 79.1484 44.0337 78.3347C44.4453 77.5209 45.2687 77.1022 46.1289 76.992C46.9937 76.8812 47.9749 77.0637 48.8886 77.5258C49.8023 77.988 50.5307 78.6703 50.954 79.4326Z" fill="#FFFB8F"/>
<path d="M37.8484 81.2759C38.3975 80.4552 39.0421 79.6812 39.7814 78.9699L40.0701 78.6922C41.866 82.014 44.6601 84.5341 47.7016 85.3909C48.5576 85.6321 49.056 86.5215 48.8149 87.3775C48.5737 88.2334 47.6843 88.7319 46.8283 88.4907C43.1199 87.446 39.969 84.6828 37.8484 81.2759Z" fill="#F8BC47"/>
<path d="M44.0733 74.8342L51.4626 67.7259C52.1168 70.3772 51.3378 73.675 49.0202 74.8355C47.4042 75.6447 45.5796 75.5853 44.0733 74.8342Z" fill="#FD593B"/>
<path d="M78.1515 77.3943L68.7144 88.2094L67.0974 76.0205C70.4856 74.3412 75.0082 75.2142 78.1515 77.3943Z" fill="#FFE374"/>
<path d="M70.2294 82.0832C70.3089 82.3389 70.1593 82.6185 69.8937 82.584C69.734 82.5632 69.5685 82.5114 69.3998 82.4288C69.0541 82.2596 68.7039 81.9655 68.3743 81.5676C68.0446 81.1696 67.7437 80.6778 67.4932 80.1274C67.33 79.7688 67.1908 79.3912 67.0794 79.0063C66.99 78.6973 67.244 78.407 67.5649 78.4302L68.7988 78.5195C68.9978 78.5339 69.1677 78.6687 69.2269 78.8592L70.2294 82.0832Z" fill="#FD593B"/>
<path fill-rule="evenodd" clip-rule="evenodd" d="M69.4983 80.0037C69.7756 80.0842 70.1646 80.0872 70.5852 79.9511C71.0058 79.815 71.3193 79.5846 71.4968 79.3569C71.6772 79.1255 71.6758 78.9638 71.6507 78.886C71.6255 78.8082 71.5318 78.6764 71.2501 78.5946C70.9728 78.5141 70.5838 78.5111 70.1632 78.6472C69.7426 78.7833 69.4291 79.0137 69.2516 79.2414C69.0712 79.4728 69.0726 79.6345 69.0977 79.7123C69.1229 79.7901 69.2166 79.9219 69.4983 80.0037ZM69.1103 81.3397C68.5366 81.1731 67.9838 80.7885 67.7742 80.1407C67.5645 79.4929 67.7871 78.8573 68.1544 78.3862C68.5245 77.9113 69.0849 77.534 69.7348 77.3236C70.3847 77.1133 71.0599 77.0907 71.6381 77.2586C72.2118 77.4252 72.7646 77.8098 72.9742 78.4576C73.1839 79.1054 72.9613 79.741 72.594 80.2121C72.2239 80.687 71.6635 81.0643 71.0136 81.2747C70.3637 81.485 69.6885 81.5076 69.1103 81.3397Z" fill="#FFFB8F"/>
<path d="M78.7659 76.6844L77.444 78.1992C76.5834 77.561 75.596 77.0578 74.5503 76.7157C72.2312 75.9568 69.7906 76.0423 68.0125 77.0293C67.5283 77.298 66.9179 77.1234 66.6492 76.6392C66.3804 76.155 66.5551 75.5446 67.0393 75.2758C69.4281 73.9499 72.4746 73.9264 75.174 74.8097C76.4485 75.2268 77.6823 75.8577 78.7659 76.6844Z" fill="#F8BC47"/>
<path d="M75.8938 79.9789L72.1646 84.2525C71.9062 83.6041 71.8384 82.916 72.0545 82.2753C72.6022 80.6509 74.248 79.7052 75.8938 79.9789Z" fill="#FD593B"/>
</svg>
