<?xml version="1.0"?>
<svg xmlns="http://www.w3.org/2000/svg" viewBox="0 0 112 112" fill="none">
<mask id="mask0" mask-type="alpha" maskUnits="userSpaceOnUse" x="0" y="0" width="112" height="112">
<rect width="112" height="112" fill="white"/>
</mask>
<g mask="url(#mask0)">
<path d="M16.709 17.6551C17.8716 12.2641 21.673 7.82213 26.8196 5.84053C32.5565 3.63166 39.0475 4.82645 43.6218 8.93329L45.8279 10.9139C50.5807 15.181 54.1141 20.6345 56.0664 26.7161L61.5857 43.9095C68.8143 66.4277 78.119 88.2257 89.3798 109.023L96.9287 122.964C100.202 129.009 101.678 135.865 101.183 142.721L100.883 146.87C100.477 152.485 97.0934 157.451 92.0166 159.882C87.0532 162.26 81.2069 161.861 76.6124 158.831L71.8929 155.72C65.0436 151.204 59.9399 144.486 57.4254 136.677L52.8057 122.329C45.7962 100.559 36.8453 79.4633 26.061 59.2951L19.2343 46.5283C15.2078 38.9982 13.9857 30.2831 15.7858 21.9361L16.709 17.6551Z" fill="#C8B762"/>
<path d="M14.3419 18.6019C15.5045 13.2109 19.3058 8.76891 24.4524 6.78731C30.1893 4.57844 36.6803 5.77323 41.2546 9.88007L43.4607 11.8607C48.2135 16.1278 51.747 21.5813 53.6992 27.6629L59.2185 44.8562C66.4471 67.3744 75.7518 89.1725 87.0126 109.969L94.5615 123.911C97.8348 129.956 99.3108 136.812 98.8155 143.668L98.5158 147.817C98.1102 153.432 94.7262 158.398 89.6494 160.829C84.6861 163.206 78.8398 162.808 74.2453 159.778L69.5258 156.667C62.6764 152.151 57.5727 145.433 55.0582 137.624L50.4386 123.276C43.429 101.506 34.4782 80.4101 23.6938 60.2419L16.8671 47.475C12.8406 39.945 11.6185 31.2299 13.4186 22.8828L14.3419 18.6019Z" fill="#FFE247"/>
<path fill-rule="evenodd" clip-rule="evenodd" d="M64.7915 61.1274C58.7735 61.4019 52.6239 64.7589 49.2502 69.9256C46.2637 70.6528 43.6111 71.7259 41.5534 73.1499C39.3586 74.6688 37.6547 76.731 37.2478 79.3218C37.2134 79.4414 37.1885 79.5647 37.1738 79.6909C36.7766 83.1111 38.7496 86.1183 41.4768 88.4161C44.1451 90.6643 47.8834 92.5575 52.2094 93.9374C53.3526 94.9867 54.6413 95.9052 56.0602 96.6596C58.1377 97.7805 60.4635 98.5262 62.9534 98.7975C67.3376 99.2752 71.5484 98.2172 75.0328 96.0568C76.3089 95.8919 77.5378 95.6755 78.7084 95.4098C78.852 95.3772 79.3032 95.2984 79.4359 95.2404C79.4359 95.2404 73.471 84.1647 64.7915 61.1274Z" fill="white"/>
<g clip-path="url(#clip0)">
<path d="M65.5074 63.0997C58.8052 63.0211 52.2586 67.3013 49.6656 73.9109C46.3162 82.4484 50.522 92.0847 59.0596 95.4341C65.6692 98.0271 72.8592 96.215 77.3589 91.2472C77.3589 91.2472 65.5089 63.0992 65.5074 63.0997Z" fill="#6AC1FF"/>
<path d="M65.747 63.7566L62.1226 64.4267C61.891 64.4815 61.7499 64.7175 61.7654 64.9664C61.7894 65.2349 62.0365 65.4289 62.2991 65.4186L62.2796 65.4272L63.0895 65.3402C64.3547 65.2052 65.5117 66.1285 65.6451 67.395C65.7786 68.6615 64.855 69.8209 63.5899 69.956L60.9536 70.2492C60.722 70.304 60.5809 70.54 60.5964 70.7889C60.6203 71.0574 60.8675 71.2514 61.1301 71.2412L61.1106 71.2497L62.5293 71.094C63.0375 71.0344 63.4952 71.392 63.5487 71.9148C63.6077 72.4236 63.236 72.8768 62.7277 72.9364L61.5101 73.0739C61.0889 73.2 60.8147 73.6105 60.8677 74.0522C60.9152 74.5079 61.2919 74.8661 61.7251 74.8742L62.6355 74.7781C63.7526 74.6497 64.758 75.4651 64.8795 76.5973C65.0064 77.7156 64.1855 78.7372 63.0739 78.8515L61.9763 78.9713C61.6027 79.0999 61.356 79.4403 61.392 79.8429C61.4365 80.2651 61.8101 80.5897 62.2208 80.5728L63.8937 80.3873C65.9687 80.1652 67.839 81.6598 68.0584 83.7371C68.2779 85.8144 66.783 87.6886 64.7079 87.9106L63.912 88.0031C63.5048 88.1347 63.2362 88.5312 63.2892 88.9728C63.3396 89.4621 63.7498 89.8173 64.233 89.7802C64.219 89.7747 64.1995 89.7833 64.194 89.7973L67.199 89.4707C67.9949 89.3782 68.7223 89.9549 68.7997 90.7462L68.7942 90.7602C68.8857 91.557 68.3088 92.2858 67.4989 92.3728L66.2813 92.5102C65.8096 92.6004 65.4629 93.031 65.5134 93.5202C65.5638 94.0095 65.9795 94.3507 66.4518 94.3417L66.8064 94.3027C67.9905 94.1683 69.0545 94.958 69.3045 96.0922C72.4116 95.272 75.1242 93.5627 77.3125 91.1367L65.747 63.7566ZM65.3817 70.9503L66.5323 70.8189C67.0405 70.7593 67.5067 71.1365 67.5657 71.6452C67.6247 72.154 67.2475 72.6212 66.7392 72.6808L65.5886 72.8122C65.0804 72.8719 64.6142 72.4947 64.5552 71.9859C64.4877 71.4576 64.8594 71.0044 65.3817 70.9503Z" fill="#7471F2"/>
<path opacity="0.43" d="M49.04 83.8838C51.5568 88.4203 56.1516 91.7073 61.6969 92.3314C67.13 92.9428 72.0993 91.5793 75.5612 87.8694L77.4675 91.1926C74.0043 94.9903 68.8318 97.1303 63.3305 96.5112C56.2008 95.7088 50.6287 90.4804 49.04 83.8838Z" fill="#5653E7"/>
</g>
<path fill-rule="evenodd" clip-rule="evenodd" d="M50.7264 71.7082C44.3223 73.0643 39.9396 75.9278 39.5187 79.6679C38.9955 84.3172 44.7425 89.0065 53.3948 91.7258C51.0733 89.4051 49.5001 86.448 48.8532 83.2626C46.2817 81.6453 44.8408 79.7919 45.0454 77.9733C45.2455 76.195 46.987 74.734 49.7442 73.7302C50.0299 73.0255 50.3587 72.3509 50.7264 71.7082Z" fill="#3FDFAF"/>
<path d="M62.9513 93.7917C68.5888 94.4261 74.0843 94.2117 78.4072 93.2325L75.7824 87.5984C72.3637 88.2379 68.1367 88.3725 63.6183 87.864C52.8585 86.6532 44.5205 82.2541 44.9949 78.0383L39.4853 79.7347C38.7846 85.9609 49.2907 92.2544 62.9513 93.7917Z" fill="#3FDFAF"/>
<path d="M14.3415 18.604C15.5041 13.213 19.3054 8.77104 24.452 6.78944C30.1889 4.58057 36.6799 5.77536 41.2542 9.88221L43.4603 11.8628C46.1139 14.2452 48.3874 16.9975 50.2178 20.0224C52.743 24.1955 50.5817 29.3417 46.2861 31.6523L25.7982 42.6729C20.869 45.3243 14.562 43.4573 13.3973 37.9828C12.3461 33.0416 12.3374 27.897 13.4183 22.885L14.3415 18.604Z" fill="#FFF965"/>
<path d="M42.551 48.6662L43.6757 48.5075C44.3251 48.4158 44.8924 48.9518 44.8401 49.6078L44.5341 53.4475C44.4452 54.5628 45.9456 54.9984 46.4623 54.0073L51.1744 44.9696C51.6896 43.9815 50.8739 42.8217 49.7729 42.9771L48.3722 43.1748C47.7434 43.2636 47.186 42.7625 47.205 42.1256L47.3229 38.1877C47.3563 37.0749 45.8482 36.7097 45.3737 37.7157L41.1253 46.7226C40.6604 47.7082 41.4746 48.8181 42.551 48.6662Z" fill="#FF6666"/>
<path fill-rule="evenodd" clip-rule="evenodd" d="M42.9067 50.4915L42.8112 50.505C40.26 50.8651 38.3554 48.2411 39.4458 45.9295L43.6941 36.9225C45.0396 34.07 49.2731 35.1444 49.1803 38.2427L49.0919 41.1966L49.5139 41.1371C52.1234 40.7687 54.0306 43.5101 52.8222 45.8278L48.1101 54.8655C46.6433 57.6788 42.4357 56.4013 42.6829 53.2993L44.5347 53.4469C44.4458 54.5622 45.9462 54.9978 46.4629 54.0067L51.175 44.969C51.6902 43.9808 50.8745 42.8211 49.7735 42.9765L48.3728 43.1742C47.744 43.263 47.1866 42.7619 47.2056 42.1249L47.3235 38.1871C47.3568 37.0743 45.8488 36.709 45.3743 37.715L41.1259 46.722C40.661 47.7076 41.4752 48.8175 42.5516 48.6656L43.6763 48.5068C44.3257 48.4151 44.893 48.9512 44.8407 49.6071L44.5347 53.4469L42.6829 53.2993L42.9067 50.4915Z" fill="white"/>
<mask id="path-13-outside-1" maskUnits="userSpaceOnUse" x="52.7561" y="106.654" width="18.5987" height="20.5371" fill="black">
<rect fill="white" x="52.7561" y="106.654" width="18.5987" height="20.5371"/>
<path fill-rule="evenodd" clip-rule="evenodd" d="M60.5106 109.463C60.0773 108.743 59.0787 108.89 58.6558 109.616C56.953 112.541 54.9415 116.503 55.1082 118.65C55.3937 122.327 58.6523 125.073 62.3864 124.783C66.1206 124.494 68.9163 121.277 68.6308 117.6C68.522 116.199 67.3781 114.178 66.0034 112.213C65.3353 111.258 63.8105 111.618 63.261 112.646C62.7641 113.576 61.3654 112.612 61.2297 111.567C61.1375 110.858 60.9151 110.135 60.5106 109.463Z"/>
</mask>
<path fill-rule="evenodd" clip-rule="evenodd" d="M60.5106 109.463C60.0773 108.743 59.0787 108.89 58.6558 109.616C56.953 112.541 54.9415 116.503 55.1082 118.65C55.3937 122.327 58.6523 125.073 62.3864 124.783C66.1206 124.494 68.9163 121.277 68.6308 117.6C68.522 116.199 67.3781 114.178 66.0034 112.213C65.3353 111.258 63.8105 111.618 63.261 112.646C62.7641 113.576 61.3654 112.612 61.2297 111.567C61.1375 110.858 60.9151 110.135 60.5106 109.463Z" fill="#FFE666"/>
<path d="M58.6558 109.616L60.2951 110.57L60.2951 110.57L58.6558 109.616ZM60.5106 109.463L62.136 108.485L62.136 108.485L60.5106 109.463ZM55.1082 118.65L56.9994 118.503L55.1082 118.65ZM62.3864 124.783L62.5332 126.675L62.5333 126.675L62.3864 124.783ZM68.6308 117.6L66.7396 117.747L66.7396 117.747L68.6308 117.6ZM66.0034 112.213L67.5576 111.126L67.5576 111.126L66.0034 112.213ZM63.261 112.646L64.9339 113.54L64.9339 113.54L63.261 112.646ZM61.2297 111.567L63.1107 111.323L63.1107 111.323L61.2297 111.567ZM60.2951 110.57C60.2103 110.716 60.0381 110.856 59.7778 110.883C59.6407 110.898 59.4665 110.881 59.2871 110.796C59.0999 110.707 58.9642 110.572 58.8853 110.441L62.136 108.485C61.5078 107.441 60.4074 107.003 59.3809 107.111C58.4072 107.213 57.5242 107.79 57.0165 108.662L60.2951 110.57ZM56.9994 118.503C56.9554 117.937 57.2313 116.792 57.9249 115.171C58.5763 113.648 59.4618 112.002 60.2951 110.57L57.0165 108.662C56.147 110.155 55.1754 111.952 54.437 113.679C53.7408 115.306 53.0943 117.216 53.217 118.797L56.9994 118.503ZM62.2396 122.892C59.5225 123.103 57.2017 121.109 56.9994 118.503L53.217 118.797C53.5857 123.546 57.7821 127.043 62.5332 126.675L62.2396 122.892ZM66.7396 117.747C66.9419 120.353 64.9567 122.681 62.2396 122.892L62.5333 126.675C67.2844 126.306 70.8907 122.202 70.522 117.453L66.7396 117.747ZM64.4491 113.301C65.1085 114.243 65.6847 115.16 66.1014 115.979C66.5377 116.836 66.7145 117.423 66.7396 117.747L70.522 117.453C70.4383 116.376 69.9888 115.253 69.4822 114.258C68.9561 113.224 68.2729 112.148 67.5576 111.126L64.4491 113.301ZM64.9339 113.54C64.9211 113.564 64.913 113.566 64.9237 113.558C64.9361 113.55 64.9444 113.549 64.9342 113.551C64.9245 113.553 64.8583 113.563 64.753 113.527C64.6328 113.486 64.5199 113.402 64.4491 113.301L67.5576 111.126C66.7036 109.905 65.3304 109.619 64.2412 109.821C63.1848 110.017 62.1548 110.692 61.5882 111.752L64.9339 113.54ZM59.3486 111.811C59.5038 113.006 60.2992 113.977 61.1394 114.477C61.5762 114.737 62.2239 114.989 62.9763 114.9C63.8356 114.798 64.5369 114.283 64.9339 113.54L61.5882 111.752C61.6473 111.641 61.7584 111.49 61.9448 111.358C62.1336 111.226 62.3406 111.155 62.5299 111.133C62.876 111.092 63.0724 111.213 63.0804 111.217C63.109 111.234 63.0976 111.232 63.0818 111.21C63.0653 111.187 63.0971 111.218 63.1107 111.323L59.3486 111.811ZM58.8853 110.441C59.1369 110.859 59.2854 111.325 59.3486 111.811L63.1107 111.323C62.9897 110.391 62.6933 109.411 62.136 108.485L58.8853 110.441Z" fill="white" mask="url(#path-13-outside-1)"/>
<path fill-rule="evenodd" clip-rule="evenodd" d="M58.6574 109.614C59.0803 108.887 60.0789 108.74 60.5122 109.46C60.9167 110.133 61.1391 110.855 61.2312 111.564C61.367 112.61 62.7657 113.573 63.2626 112.644C63.812 111.616 65.3368 111.256 66.0049 112.211C67.3796 114.176 68.5236 116.197 68.6324 117.598C68.9179 121.275 66.1222 124.491 62.388 124.781C58.6538 125.071 55.3953 122.325 55.1098 118.647C54.9431 116.5 56.9546 112.539 58.6574 109.614Z" fill="#EC8A54"/>
</g>
<defs>
<clipPath id="clip0">
<rect width="33.2113" height="33.2113" fill="white" transform="translate(74.5186 101.5) rotate(-158.579)"/>
</clipPath>
</defs>
</svg>
