<?xml version="1.0"?>
<svg xmlns="http://www.w3.org/2000/svg" viewBox="0 0 112 112" fill="none">
<path d="M26.2185 52.1284L22.9417 51.2193L25.9135 44.3769C59.8832 49.7085 62.92 53.9585 56.5112 61.2736C55.375 62.5706 53.4964 62.8827 51.9286 62.165L49.8176 61.1987C48.5202 60.6048 47.0084 60.7213 45.8174 61.507L43.1455 63.2696C42.0203 64.0118 40.6041 64.1594 39.35 63.665L32.6529 61.0249C31.5081 60.5736 30.6237 59.6361 30.2397 58.467L29.043 54.824C28.6114 53.5098 27.5514 52.4982 26.2185 52.1284Z" fill="#FFD747"/>
<path fill-rule="evenodd" clip-rule="evenodd" d="M39.8074 72.3154L62.9107 54.1699L66.1184 58.2539L39.2773 79.3352C38.5305 79.9217 37.5231 80.0538 36.6503 79.6796C35.7776 79.3055 35.1787 78.4848 35.0886 77.5395L34.3441 69.7274C34.343 69.7158 34.342 69.7042 34.341 69.6926L31.6804 37.139L36.8563 36.7159L39.5155 69.2522L39.8074 72.3154Z" fill="#D7D0B9"/>
<path d="M19.5192 33.6423C20.2003 31.233 21.4579 29.0339 23.299 27.3372C28.9306 22.1473 42.2777 10.9717 54.2442 9.47985C71.5378 7.32392 89.2634 16.2739 97.3448 23.9001C99.4745 25.9098 101.002 28.0913 102.02 30.4368C102.237 30.9354 101.775 31.4389 101.25 31.297L102.031 33.818L102.223 33.8887C102.838 34.1146 103.299 34.6425 103.396 35.2906C103.785 37.863 103.72 40.5959 103.297 43.4816C103.242 43.8522 103.037 44.1831 102.734 44.4028L102.4 44.6444C101.217 51.5372 98.2695 56.6432 98.2695 56.6432L98.8092 57.1432C99.2176 57.5215 99.3649 58.1036 99.1988 58.635C98.6814 60.291 98.3971 61.4911 97.8581 62.6102C97.7319 62.8723 97.3922 62.9308 97.1722 62.7405L96.0712 64.1758L96.5771 64.6459C96.7233 64.7817 96.7681 64.9946 96.6925 65.1792C96.518 65.6051 96.3317 66.0865 96.1572 66.4796C89.6947 64.6866 16.5554 44.3944 16.5554 44.3944L17.0291 42.7829C17.0742 42.6294 17.1576 42.4899 17.2714 42.3774L17.8441 41.8118L18.1914 39.7047C18.0144 39.7786 17.8303 39.6154 17.8825 39.4309L19.5192 33.6423Z" fill="#FFD747"/>
<path d="M91.8734 65.2915C91.7591 65.7034 91.1757 66.4743 89.0354 67.1135C87.0057 67.7197 84.0914 68.0377 80.4331 67.9976C73.1456 67.9178 63.3512 66.4251 52.8091 63.5002C42.267 60.5754 33.1037 56.8083 26.8168 53.122C23.6608 51.2714 21.3269 49.4974 19.8997 47.9321C18.3947 46.2815 18.2919 45.3202 18.4062 44.9083C18.5204 44.4964 19.1038 43.7255 21.2442 43.0863C23.2738 42.4802 26.1881 42.1622 29.8465 42.2023C37.134 42.2821 46.9283 43.7747 57.4704 46.6996C68.0125 49.6245 77.1758 53.3916 83.4627 57.0779C86.6187 58.9284 88.9526 60.7025 90.3798 62.2678C91.8849 63.9184 91.9877 64.8796 91.8734 65.2915Z" fill="#FFD747" stroke="#FFD747" stroke-width="3.84167"/>
<path d="M90.3368 64.8637C89.3531 68.4094 72.8388 66.9232 53.4511 61.5442C34.0635 56.1652 19.1442 48.9302 20.1279 45.3845C21.1117 41.8387 37.626 43.3249 57.0136 48.704C76.4013 54.083 91.3206 61.3179 90.3368 64.8637Z" fill="#812828"/>
<path d="M89.2454 64.5589C88.4336 67.4849 72.5484 65.6322 53.7648 60.4207C34.9812 55.2093 20.4122 48.6126 21.224 45.6866C22.0358 42.7606 37.921 44.6134 56.7046 49.8248C75.4882 55.0363 90.0572 61.6329 89.2454 64.5589Z" fill="#812828" stroke="#902E2E" stroke-width="2.36052"/>
<path fill-rule="evenodd" clip-rule="evenodd" d="M38.8532 74.6144C40.1143 74.945 40.8686 76.2353 40.538 77.4964C39.2879 82.2653 36.7738 100.338 44.3988 103.03C46.0553 103.404 52.4224 97.8929 52.4224 97.8929L54.4584 99.8124C54.4584 99.8124 46.8 105.498 42.843 104.606C38.834 103.702 36.1149 100.15 34.9249 95.372C33.7275 90.564 33.925 84.1054 35.9713 76.2993C36.3019 75.0382 37.5921 74.2839 38.8532 74.6144Z" fill="#D7D0B9"/>
<path fill-rule="evenodd" clip-rule="evenodd" d="M42.995 102.558C51.9831 103.148 57.113 86.7978 58.9351 80.5864C59.3021 79.3354 60.6137 78.6188 61.8646 78.9858C63.1156 79.3528 63.8322 80.6644 63.4652 81.9153C61.0788 90.0505 57.8315 95.9926 54.2781 99.7816C50.7641 103.529 46.6197 105.467 42.6627 104.575C38.6537 103.671 35.9346 100.119 34.7447 95.3413C34.6739 95.0573 35.7565 102.084 42.995 102.558Z" fill="#E8E1CA"/>
<path d="M35.3256 78.5668C33.9353 84.48 33.6667 89.2675 34.1823 92.9718" stroke="#FEFFE3" stroke-width="1.41631"/>
<path d="M42.4725 75.6246C40.1857 73.805 37.5546 73.2453 35.4537 73.1441C34.2015 73.0837 33.2766 74.1822 33.6374 75.3828C33.8686 76.1522 34.175 76.9503 34.5029 77.7123C35.5206 80.0768 38.3928 80.8293 40.5904 79.4888C41.1693 79.1357 41.7425 78.7792 42.2561 78.4481C43.3007 77.7749 43.445 76.3984 42.4725 75.6246Z" stroke="#494C5B" stroke-width="2.36052" stroke-linejoin="round"/>
<path d="M41.2574 77.1806L35.7265 75.7141C33.243 75.0556 31.5852 72.7161 31.7869 70.1548L32.5132 60.9354L30.9316 52.9624C30.9316 52.9624 39.3626 58.4188 59.9117 62.9271C61.9151 63.3666 64.2675 65.8616 64.2675 65.8616L45.2477 76.6643C44.0365 77.3523 42.6038 77.5376 41.2574 77.1806Z" fill="#912E2E"/>
<path d="M52.2056 78.0807L55.261 50.512L59.5711 46.8206L89.5357 57.5999L90.9627 71.9458L70.1109 85.7582C69.0325 86.4726 67.6874 86.6567 66.4566 86.2586L55.1208 82.5914C53.2015 81.9705 51.9834 80.0857 52.2056 78.0807Z" fill="#C84E4E"/>
<path d="M86.983 69.0978L62.7238 83.2412C60.4658 84.5577 57.6455 82.8558 57.7577 80.2444L57.8348 78.4478L59.6759 45.8375" stroke="#E8E1CA" stroke-width="5.19315" stroke-linejoin="round"/>
<path d="M52.1472 47.5672L48.2323 46.2827L55.1136 40.824C55.1136 40.824 94.7976 55.6028 96.2114 65.4458C96.3644 66.5107 95.7588 67.4917 95.1341 68.3677L92.2524 72.409C91.7474 73.1172 90.8533 73.4339 90.0151 73.2013L86.2347 72.1525C85.408 71.9231 84.8087 71.2072 84.7283 70.3531L83.9725 62.3266C83.8268 60.7791 82.826 59.4439 81.3817 58.8698L75.5202 56.54C74.2638 56.0406 72.8426 56.1867 71.7139 56.9312L68.9286 58.7686C67.8034 59.5109 66.3871 59.6584 65.1331 59.1641L58.436 56.5239C57.2912 56.0726 56.4067 55.1352 56.0227 53.9661L54.788 50.2071C54.3775 48.9574 53.3971 47.9773 52.1472 47.5672Z" fill="#FFD747"/>
<path d="M53.4048 73.383C57.0339 73.4196 66.1449 75.1456 73.556 81.7572" stroke="#E76A6A" stroke-width="3.30473"/>
<path fill-rule="evenodd" clip-rule="evenodd" d="M17.6793 41.9279C17.6793 41.9279 18.1575 39.7182 18.2124 39.7006C23.0982 35.1649 41.5912 39.0439 51.7792 41.4256C66.6479 44.9015 83.3388 51.7951 97.2552 62.798L96.4896 64.6018C82.7552 53.6183 66.1533 46.7252 51.3493 43.2644C41.001 41.2253 23.6846 37.4131 17.6793 41.9279Z" fill="#E2B338"/>
<path d="M101.119 45.1507L102.398 44.6439C101.447 50.4201 99.7395 54.9713 98.8899 57.2237C96.0684 54.9305 92.7044 52.839 89.1704 51.219C88.8459 51.0703 88.567 50.8369 88.3685 50.5403L80.8593 39.3208C80.3748 38.597 80.4483 37.6356 81.0372 36.9938L84.1576 33.5928C84.6641 33.0407 85.4491 32.8403 86.1583 33.082L89.7263 34.2981C90.1771 34.4517 90.5531 34.77 90.7792 35.1892L93.3099 39.8821C93.4625 40.1651 93.6848 40.4045 93.9558 40.5775L101.119 45.1507Z" fill="#E2B338"/>
<path d="M57.108 85.7463C51.4317 108.008 31.1445 109.145 34.2612 84.3735" stroke="#FEFFE3" stroke-width="1.41631"/>
<path d="M64.8685 82.7066C62.5817 80.887 59.9506 80.3273 57.8497 80.2261C56.5975 80.1658 55.6726 81.2642 56.0334 82.4648C56.2646 83.2342 56.571 84.0324 56.8989 84.7944C57.9166 87.1588 60.7888 87.9114 62.9864 86.5709C63.5653 86.2177 64.1385 85.8612 64.6521 85.5302C65.6967 84.8569 65.841 83.4804 64.8685 82.7066Z" stroke="#494C5B" stroke-width="2.36052" stroke-linejoin="round"/>
<path d="M51.9512 101.306L48.9417 100.479C48.6518 100.399 48.3434 100.465 48.0957 100.635C46.6154 101.653 44.6032 102.275 43.0342 102.625C42.5506 102.733 42.4807 103.467 42.9459 103.638L45.6702 104.637C45.7885 104.681 45.9143 104.701 46.04 104.691C48.2655 104.516 50.6523 103.149 52.1068 102.101C52.4172 101.877 52.3202 101.407 51.9512 101.306Z" stroke="#494C5B" stroke-width="1.88842"/>
<path d="M41.9169 102.494C41.7859 103.065 41.8404 103.204 41.8792 103.331L44.0529 102.186L47.2317 100.955L52.7441 100.61L48.7788 99.3236C48.3031 99.1692 47.786 99.2107 47.3383 99.4336C45.7248 100.237 44.0818 100.995 43.0271 101.376C42.5086 101.563 42.04 101.956 41.9169 102.494Z" fill="#494C5B"/>
<path d="M44.9129 42.0065C32.3607 39.3529 24.6402 39.6801 21.3874 40.372C20.7326 40.5113 20.363 41.1592 20.4827 41.8179C20.6711 42.8551 22.0397 43.4874 23.0775 43.3018C27.8934 42.4404 37.9229 44.1201 44.1254 45.4695C45.039 45.6682 45.9543 45.1386 46.2269 44.2442C46.5278 43.2571 45.9225 42.22 44.9129 42.0065Z" fill="#FFF065"/>
<path d="M53.4779 20.1997C52.9827 20.1387 52.4838 20.0791 51.985 20.021C44.7158 19.1744 37.0448 20.1723 31.2297 24.6155C28.364 26.805 27.0514 28.6839 25.8541 30.9168C24.9705 32.5647 26.3402 34.6108 28.2098 34.6386C33.1658 34.7125 38.5985 35.465 42.0715 36.3214C43.2417 36.6099 44.4907 36.0865 45.0815 35.036C47.0565 31.524 49.9877 27.7881 54.0475 25.1092C56.0775 23.7695 55.8919 20.4968 53.4779 20.1997Z" fill="#FFF065"/>
</svg>
