<?xml version="1.0"?>
<svg xmlns="http://www.w3.org/2000/svg" viewBox="0 0 112 112" fill="none">
<mask id="mask0" mask-type="alpha" maskUnits="userSpaceOnUse" x="0" y="0" width="112" height="112">
<rect width="112" height="112" fill="white"/>
</mask>
<g mask="url(#mask0)">
<path d="M79.5332 50.4551L83.0963 50.8414L82.4202 57.0768C82.3135 58.0608 81.4294 58.7719 80.4454 58.6652C79.4615 58.5585 78.7504 57.6744 78.8571 56.6905L79.5332 50.4551Z" fill="white"/>
<path d="M96.6011 112.967L82.8758 112.967C82.8144 108.972 82.4007 105.077 81.742 101.437C80.7034 95.698 79.1094 90.9124 77.5871 87.7247C76.8115 86.1005 76.1711 85.1374 75.8022 84.6979C75.7457 84.6306 75.7099 84.5929 75.6958 84.5787C75.7191 84.6006 75.8024 84.675 75.95 84.7747C76.2112 84.9512 77.1638 85.5369 78.6579 85.5369L78.6579 71.811C80.8521 71.811 82.5666 72.6801 83.6339 73.4012C84.7355 74.1455 85.6239 75.0496 86.3155 75.8736C87.7009 77.5242 88.9216 79.6078 89.9732 81.8098C92.1053 86.2746 94.03 92.2596 95.2485 98.9932C96.0253 103.286 96.5374 108.014 96.6011 112.967Z" fill="#FFDF60"/>
<path d="M29.9177 72.6724L79.7146 69.2978C81.1175 69.2027 82.3459 70.3241 82.4452 71.7885L82.5322 73.0735C82.6315 74.5388 81.5647 75.8148 80.1627 75.9098L30.3658 79.2845C28.963 79.3795 27.7345 78.2582 27.6353 76.7937L27.5482 75.5088C27.4481 74.0444 28.5149 72.7675 29.9177 72.6724Z" fill="#F6B11B"/>
<path d="M83.1368 50.16C82.945 48.0996 81.1126 46.589 79.0535 46.7938L78.9844 46.8007C78.3112 46.8676 77.8182 47.4656 77.8809 48.1393L78.3436 53.1092C78.4073 53.7933 79.0157 54.2948 79.6993 54.2269L79.7917 54.2177C81.8327 54.0147 83.3269 52.2021 83.1368 50.16Z" fill="white"/>
<path d="M80.6211 47.4791C80.4522 45.6645 78.8336 44.3375 77.0211 44.5276C76.4437 44.5882 76.0224 45.102 76.0763 45.6801L76.9911 55.5065C77.0464 56.1014 77.577 56.5364 78.1712 56.474C79.9753 56.2847 81.2915 54.6793 81.1233 52.8731L80.6211 47.4791Z" fill="#FFB762"/>
<path d="M28.1059 78.2885C26.27 73.572 29.132 68.3402 34.0938 67.3424L75.5323 59.0092C80.9134 57.927 85.8039 62.3658 85.2467 67.8262L84.8312 71.8979C84.4699 75.4388 81.8524 78.3357 78.366 79.0531L38.8492 87.184C34.9565 87.985 31.0538 85.8614 29.6121 82.1578L28.1059 78.2885Z" fill="#FABC43"/>
<path d="M26.7992 61.6976L29.1063 58.9597L37.7646 79.4458L36.3215 101.008L24.8601 75.7627C22.7399 71.0927 23.4944 65.6197 26.7992 61.6976Z" fill="#FABC43"/>
<path d="M32.2807 112.971L27.3405 43.9316C26.3113 29.5398 36.9973 17.0481 51.2104 16.0309C65.4225 15.0138 77.7794 25.8559 78.8095 40.2476L84.0133 112.971L32.2807 112.971Z" fill="#B8DEE5"/>
<rect x="39.4468" y="43.1963" width="36.6915" height="20.1802" rx="10.0901" transform="rotate(-4.83525 39.4468 43.1963)" fill="#36488B"/>
<path d="M62.6857 50.6738C62.6332 50.1159 63.0429 49.621 63.6008 49.5684L67.4522 49.2057C68.0102 49.1531 68.5051 49.5629 68.5576 50.1208L68.9105 53.8681C68.9631 54.4261 68.5534 54.921 67.9954 54.9735L64.1441 55.3363C63.5861 55.3888 63.0912 54.9791 63.0387 54.4212L62.6857 50.6738Z" fill="#6EDCFF"/>
<path d="M52.4125 51.5313C52.36 50.9733 52.7697 50.4784 53.3276 50.4258L57.179 50.0631C57.737 50.0106 58.2319 50.4203 58.2844 50.9782L58.6374 54.7256C58.6899 55.2835 58.2802 55.7784 57.7222 55.831L53.8709 56.1937C53.3129 56.2462 52.818 55.8365 52.7655 55.2786L52.4125 51.5313Z" fill="#6EDCFF"/>
<path d="M67.9253 16.4565L62.676 20.2101" stroke="#BEDCE4" stroke-width="3.4761" stroke-miterlimit="10"/>
<path d="M68.626 28.3375C63.9349 23.1471 57.246 20.4569 50.2769 20.9562" stroke="#ECFBFF" stroke-width="2.60708" stroke-miterlimit="10" stroke-linecap="round"/>
<path d="M65.3428 64.3721L65.4015 64.9555C65.6396 67.32 63.8998 69.4495 61.5353 69.6876L59.3642 69.9063C56.9997 70.1444 54.8702 68.4045 54.6321 66.04L54.5733 65.4566" fill="white"/>
<path d="M65.3428 64.3721L65.4015 64.9555C65.6396 67.32 63.8998 69.4495 61.5353 69.6876L59.3642 69.9063C56.9997 70.1444 54.8702 68.4045 54.6321 66.04L54.5733 65.4566" stroke="#A2CED8" stroke-width="2.32976" stroke-miterlimit="10" stroke-linecap="round" stroke-linejoin="round"/>
<path d="M26.0868 19.4922L31.5742 23.7479" stroke="#B8DEE5" stroke-width="3.4761" stroke-miterlimit="10" stroke-linecap="round"/>
<path d="M25.5157 23.5288C22.6795 23.8083 20.155 21.7355 19.877 18.8992C19.5991 16.0628 21.6729 13.5369 24.5091 13.2575C27.3453 12.978 29.8699 15.0508 30.1478 17.8871C30.4258 20.7235 28.3519 23.2494 25.5157 23.5288Z" fill="#B8DEE5"/>
<path d="M25.3517 21.3505C23.7253 21.5103 22.2773 20.3214 22.1174 18.695C21.9576 17.0686 23.1465 15.6206 24.7729 15.4608C26.3993 15.3009 27.8473 16.4898 28.0071 18.1162C28.167 19.7426 26.9781 21.1906 25.3517 21.3505Z" fill="#F65539"/>
<path d="M70.153 19.5804C67.322 19.2518 65.2936 16.6904 65.6222 13.8595C65.9509 11.0286 68.5122 9.00009 71.3431 9.32874C74.1741 9.6574 76.2026 12.2187 75.8739 15.0497C75.5453 17.8806 72.9839 19.9091 70.153 19.5804Z" fill="#B8DEE5"/>
<path d="M70.4556 17.4167C68.8323 17.2283 67.6691 15.7595 67.8576 14.1362C68.046 12.5129 69.5148 11.3497 71.1381 11.5382C72.7614 11.7266 73.9246 13.1954 73.7362 14.8187C73.5477 16.442 72.079 17.6052 70.4556 17.4167Z" fill="#F65539"/>
<path d="M57.1033 112.972L56.6104 93.9588L71.623 84.7125L82.3463 73.1313L84.8071 112.972L57.1033 112.972Z" fill="#F69F1C"/>
<path d="M27.8444 112.973L25.2007 76.396L41.7605 86.1033L58.8922 92.8721L60.6606 112.973L27.8444 112.973Z" fill="#F69F1C"/>
<path d="M15.0711 112.972C13.5379 107.879 14.1661 102.025 15.7475 96.4095C17.6314 89.7201 21.1876 82.2199 26.1409 74.3926L37.7395 81.7324C33.2607 88.8099 30.3809 95.083 28.9594 100.13C27.4741 105.404 27.8566 108.326 28.4001 109.515L28.4141 109.546C28.5959 109.948 28.9757 110.788 31.7391 110.78C35.0218 110.771 40.4509 109.395 48.406 105.284L52.3789 112.972L15.0711 112.972Z" fill="#FFDF60"/>
<path d="M58.4616 91.3604C38.7306 87.5 29.2938 73.345 28.6504 65.6242C28.6504 65.6242 27.133 67.1662 25.8625 69.0211C24.6905 70.7321 23.6124 71.8073 24.1468 73.1306C33.1542 95.4351 59.3196 95.864 59.3196 95.864C59.3196 95.864 83.6488 83.6394 85.2699 70.128C86.4278 60.4768 80.9954 61.4652 80.1968 60.2627L80.6253 65.6244C82.341 77.2913 66.9687 88.5009 58.4616 91.3604Z" fill="#FABC43"/>
<path d="M43.0956 112.973L39.9863 105.912C38.6416 102.858 40.027 99.2922 43.0808 97.9475L45.5497 96.8604C46.7463 96.3335 48.0197 96.2259 49.2071 96.4727C49.8796 95.3337 50.1223 94.5437 50.2154 93.8964C50.3806 92.7479 50.2301 90.9732 48.8153 87.2211C47.5135 83.7683 49.2571 79.914 52.7099 78.6121C56.1626 77.3102 60.017 79.0539 61.3189 82.5066C62.4275 85.4469 63.2813 88.3382 63.5457 91.2619L69.1845 88.7789C72.5616 87.2918 76.5048 88.824 77.9919 92.2011C78.8338 94.1131 78.708 96.2065 77.8275 97.9329C78.2379 98.4151 78.586 98.9643 78.8543 99.5735C79.8067 101.736 79.5207 104.131 78.3049 105.964C78.5907 106.353 78.8387 106.778 79.0412 107.238C79.8835 109.151 79.7571 111.246 78.8753 112.973H74.7482C76.262 112.069 76.9 110.157 76.1711 108.502C76.1117 108.367 76.0449 108.238 75.9714 108.114C75.6719 107.611 75.2609 107.204 74.785 106.911C73.8456 106.334 72.653 106.204 71.5633 106.658L74.1683 105.511C74.9259 105.177 75.5086 104.611 75.8692 103.932C76.3614 103.006 76.4397 101.872 75.9842 100.837C75.9097 100.668 75.8235 100.507 75.727 100.356C75.2315 99.5789 74.4647 99.0461 73.61 98.829C72.8698 98.641 72.0637 98.6897 71.3107 99.0213L53.1956 106.998L55.8266 112.973H55.8196L53.1884 106.997L53.7541 106.748C53.8137 106.724 53.8728 106.698 53.9312 106.67L73.3059 98.1385C74.242 97.7263 74.9109 96.9586 75.2239 96.0637C75.5102 95.2455 75.4988 94.3209 75.1219 93.4649C74.3328 91.6729 72.2403 90.8599 70.4483 91.649L60.1991 96.1621C60.2524 95.8951 60.2987 95.6254 60.338 95.3527C60.469 94.4416 60.5156 93.5295 60.4875 92.6086C60.4008 89.77 59.6042 86.8479 58.3845 83.613C57.6937 81.7809 55.6484 80.8556 53.8163 81.5464C51.9841 82.2372 51.0589 84.2825 51.7497 86.1147C53.2256 90.029 53.5981 92.4054 53.3194 94.343C53.1623 95.4349 52.7731 96.5597 52.0128 97.8863C51.557 98.6817 50.9677 99.5496 50.2151 100.526C49.9399 100.197 49.5985 99.9373 49.2199 99.7597C48.4863 99.4155 47.6134 99.3782 46.8135 99.7304L44.3446 100.818C42.8759 101.464 42.2096 103.179 42.8563 104.648L46.5222 112.973H43.0956Z" fill="white"/>
<path d="M74.7456 112.971H54.9127C54.2483 111.438 52.6435 108.211 50.1821 106.225C48.6584 104.995 48.4201 102.763 49.6499 101.239C52.0658 98.2458 53.0432 96.2444 53.3168 94.3429C53.5956 92.4053 53.223 90.0289 51.7471 86.1146C51.0563 84.2824 51.9815 82.2371 53.8137 81.5463C55.6459 80.8555 57.6911 81.7808 58.382 83.6129C59.9974 87.8972 60.8705 91.6331 60.3354 95.3526C60.2961 95.6257 60.2496 95.8959 60.1962 96.1634L70.4487 91.6488C72.2407 90.8596 74.3332 91.6727 75.1223 93.4647C75.9114 95.2567 75.0984 97.3492 73.3063 98.1383L72.1274 98.6574C73.71 98.4557 75.3021 99.302 75.9778 100.837C76.8009 102.706 75.9529 104.888 74.0838 105.711L72.4965 106.41C74.0066 106.227 75.5214 107.038 76.1661 108.502C76.8946 110.156 76.2577 112.067 74.7456 112.971Z" fill="#438CFA"/>
<path d="M55.8214 112.973L46.524 112.973L42.8587 104.649C42.212 103.18 42.8783 101.465 44.347 100.819L46.8159 99.7315C48.2845 99.0848 49.9994 99.7511 50.6461 101.22L55.8214 112.973Z" fill="#3276DC"/>
<path opacity="0.8" d="M44.0241 104.004C43.68 103.222 44.0345 102.31 44.8158 101.966L47.2155 100.909C47.9968 100.565 48.909 100.92 49.2531 101.701C49.5971 102.482 49.2427 103.395 48.4614 103.739L46.0617 104.795C45.2804 105.139 44.3681 104.785 44.0241 104.004Z" fill="#438CFA"/>
<path d="M65.5203 96.974L70.5779 94.7328" stroke="#5CB1FF" stroke-width="3.28719" stroke-linecap="round"/>
<path d="M54.9661 84.0298C55.3081 83.9785 55.8469 84.0726 56.0436 84.2179" stroke="#5CB1FF" stroke-width="2.93499" stroke-linecap="round"/>
<path d="M79.3376 41.4957C77.0976 21.5599 37.6739 30.0718 26.2624 50.0882L25.0921 44.2369C22.2668 30.1104 31.4195 16.3657 45.5431 13.5256L47.9557 13.0404C63.7115 9.87203 78.5607 21.557 79.1864 37.616L79.3376 41.4957Z" fill="#2F76E2"/>
<path d="M40.5154 28.3132L29.8352 45.0786C52.235 26.9348 77.0988 28.2788 78.8908 40.1507L79.1148 43.7346L85.3714 33.0446C90.0909 24.9809 84.2753 14.8389 74.932 14.8389H65.0752C55.1241 14.8389 45.8619 19.9204 40.5154 28.3132Z" fill="#123770"/>
<path fill-rule="evenodd" clip-rule="evenodd" d="M65.0729 16.1841C55.5811 16.1841 46.7464 21.0311 41.6467 29.0365L32.8534 42.8399L28.937 45.9758C28.311 45.577 28.3006 44.9838 28.6994 44.3578L39.3796 27.5923C44.9729 18.8121 54.6625 13.4961 65.0729 13.4961H74.6206C85.077 13.4961 91.5283 24.9117 86.1341 33.8693L79.2483 45.3039L78.8884 40.691L83.8314 32.4826C88.1468 25.3165 82.9857 16.1841 74.6206 16.1841H65.0729Z" fill="#0C4CAD"/>
<ellipse rx="3.9706" ry="6.73048" transform="matrix(0.997826 -0.0659004 0.0783212 0.996928 28.6732 53.8661)" fill="#FFB762"/>
<path fill-rule="evenodd" clip-rule="evenodd" d="M27.926 57.7944C28.324 57.7399 28.6444 57.4518 28.7794 57.0735C29.1155 56.1312 29.2678 54.9844 29.1716 53.7605C29.0931 52.7616 28.8589 51.8353 28.5146 51.0455C28.3489 50.6655 27.9986 50.3898 27.5845 50.3697C27.4528 50.3633 27.3193 50.3644 27.1844 50.3735C25.2944 50.5008 23.8682 52.1406 24.0042 54.03L24.0491 54.6531C24.1843 56.5302 25.8111 57.945 27.6887 57.8186C27.7687 57.8132 27.8478 57.8051 27.926 57.7944Z" fill="white"/>
<path d="M25.8032 56.6021L28.6961 54.4863L32.3986 59.5488C32.9829 60.3476 32.8089 61.4688 32.0101 62.0531C31.2112 62.6373 30.09 62.4633 29.5058 61.6645L25.8032 56.6021Z" fill="white"/>
</g>
</svg>
