<?xml version="1.0"?>
<svg xmlns="http://www.w3.org/2000/svg" viewBox="0 0 112 112" fill="none">
<mask id="mask0" mask-type="alpha" maskUnits="userSpaceOnUse" x="0" y="0" width="112" height="112">
<rect width="112" height="112" fill="white"/>
</mask>
<g mask="url(#mask0)">
<path d="M30.1689 72.2646L85.6227 71.4809C87.1849 71.4588 88.4805 72.7192 88.5025 74.2805L88.5219 75.6505C88.544 77.2127 87.2836 78.5083 85.7223 78.5304L30.2685 79.314C28.7063 79.3361 27.4107 78.0757 27.3886 76.5144L27.3693 75.1444C27.3463 73.5831 28.6067 72.2866 30.1689 72.2646Z" fill="#F6B11B"/>
<path d="M55.9291 13.3138C40.7513 13.5856 28.6712 26.2475 28.9454 41.5945L30.5724 132.452C30.5947 133.707 31.6185 134.705 32.8589 134.683L83.3303 133.779C84.5707 133.757 85.5574 132.722 85.5351 131.468L83.9081 40.6097C83.633 25.2628 71.106 13.042 55.9291 13.3138Z" fill="#B0DEE7"/>
<path d="M62.4072 61.7872L62.4175 62.6032C62.4593 65.9102 60.4134 68.6424 57.8712 68.6744L56.9137 68.7091C54.3715 68.7412 52.2573 66.0616 52.2156 62.7546L52.2053 61.9386" fill="white"/>
<path d="M62.4072 61.7872L62.4175 62.6032C62.4593 65.9102 60.4134 68.6424 57.8712 68.6744L56.9137 68.7091C54.3715 68.7412 52.2573 66.0616 52.2156 62.7546L52.2053 61.9386" stroke="#8CC2CF" stroke-width="2.71626" stroke-miterlimit="10" stroke-linecap="round" stroke-linejoin="round"/>
<path d="M37.8849 148.2L38.1421 85.7628L38.3934 85.8777C51.5892 91.9104 66.8053 91.6518 79.7886 85.1743L79.5314 147.612L37.8849 148.2Z" fill="white"/>
<path d="M38.1398 85.7645L38.3911 85.8794C51.5869 91.912 66.8031 91.6535 79.7863 85.176" stroke="#E9E6E6" stroke-width="3.00054" stroke-linecap="round" stroke-linejoin="round"/>
<path d="M78.6745 88.9885L74.1923 89.0684C73.7348 89.0767 73.357 88.7123 73.3487 88.2547C73.3404 87.7972 73.7049 87.4194 74.1624 87.4111L78.6446 87.3311C79.1021 87.3228 79.4799 87.6873 79.4882 88.1448C79.4965 88.6024 79.132 88.9801 78.6745 88.9885Z" fill="#A2CED8"/>
<path d="M78.8188 95.926L74.3366 96.0059C73.8791 96.0142 73.5013 95.6498 73.493 95.1922C73.4847 94.7347 73.8492 94.3569 74.3067 94.3486L78.7889 94.2686C79.2464 94.2603 79.6242 94.6248 79.6325 95.0823C79.6408 95.5399 79.2763 95.9186 78.8188 95.926Z" fill="#A2CED8"/>
<path d="M86.615 55.5267L87.7095 55.5208C88.6395 55.5114 89.5278 55.1332 90.1792 54.4693C90.8306 53.8053 91.1917 52.91 91.1834 51.9799L91.1818 51.689C91.1724 50.759 90.7942 49.8707 90.1303 49.2193C89.4663 48.568 88.571 48.2068 87.6409 48.2151L86.5485 48.221L86.615 55.5267Z" fill="#F65539"/>
<path d="M85.4912 58.5487L85.8533 58.5468C86.1173 58.5445 86.3783 58.4903 86.6213 58.3871C86.8643 58.2839 87.0846 58.1339 87.2696 57.9455C87.4546 57.7571 87.6007 57.5342 87.6994 57.2893C87.7982 57.0445 87.8477 56.7826 87.8452 56.5186L87.7627 47.3901C87.7601 47.1262 87.7057 46.8655 87.6024 46.6227C87.4991 46.3799 87.349 46.1598 87.1607 45.9751C86.9723 45.7903 86.7495 45.6444 86.5047 45.5458C86.26 45.4472 85.9983 45.3977 85.7345 45.4002L85.3703 45.4022C85.1063 45.4044 84.8454 45.4587 84.6023 45.5618C84.3593 45.665 84.139 45.815 83.954 46.0034C83.769 46.1918 83.6229 46.4148 83.5242 46.6596C83.4254 46.9044 83.3759 47.1664 83.3784 47.4304L83.463 56.5547C83.465 56.8189 83.519 57.0801 83.6221 57.3233C83.7251 57.5666 83.8751 57.7871 84.0635 57.9724C84.2519 58.1576 84.475 58.3038 84.72 58.4027C84.965 58.5016 85.227 58.5512 85.4912 58.5487Z" fill="#FFB762"/>
<path d="M78.7485 92.4605L74.2663 92.5405C73.8087 92.5488 73.431 92.1843 73.4227 91.7268C73.4143 91.2692 73.7788 90.8914 74.2364 90.8831L78.7186 90.8031C79.1761 90.7948 79.5539 91.1593 79.5622 91.6169C79.5705 92.0744 79.2069 92.4522 78.7485 92.4605Z" fill="#A2CED8"/>
<path d="M27.0724 56.0956L25.9784 56.13C25.0487 56.1548 24.1471 55.8095 23.4717 55.1699C22.7964 54.5304 22.4025 53.6489 22.3767 52.7192L22.3675 52.4284C22.3427 51.4987 22.688 50.5971 23.3276 49.9218C23.9671 49.2464 24.8486 48.8525 25.7783 48.8267L26.8702 48.7924L27.0724 56.0956Z" fill="#F65539"/>
<path d="M28.298 59.0734L27.9362 59.0847C27.6723 59.0922 27.4095 59.0476 27.1628 58.9534C26.9162 58.8593 26.6905 58.7174 26.4987 58.536C26.3069 58.3545 26.1527 58.1371 26.045 57.896C25.9373 57.655 25.8782 57.3951 25.871 57.1312L25.6178 48.0058C25.6106 47.742 25.6554 47.4795 25.7497 47.233C25.844 46.9866 25.9859 46.7612 26.1673 46.5696C26.3487 46.378 26.5661 46.2241 26.807 46.1165C27.0479 46.0089 27.3077 45.9499 27.5714 45.9427L27.9354 45.9313C28.1993 45.9238 28.4621 45.9684 28.7088 46.0626C28.9554 46.1567 29.1811 46.2986 29.3729 46.48C29.5647 46.6615 29.7189 46.8789 29.8266 47.12C29.9343 47.361 29.9934 47.6209 30.0006 47.8848L30.2516 57.0061C30.2593 57.2702 30.2149 57.5332 30.1209 57.7801C30.0268 58.027 29.885 58.2529 29.7036 58.4449C29.5221 58.6369 29.3046 58.7913 29.0634 58.8991C28.8222 59.007 28.5621 59.0662 28.298 59.0734Z" fill="#FFB762"/>
<rect x="37.8582" y="37.4147" width="38.7713" height="21.324" rx="10.662" transform="rotate(-1.07838 37.8582 37.4147)" fill="#36488B"/>
<path d="M72.6195 26.8741C67.5989 21.3797 60.4676 18.5567 53.0566 19.1283" stroke="#ECFBFF" stroke-width="2.77347" stroke-miterlimit="10" stroke-linecap="round"/>
<path d="M76.8153 33.6093C76.3251 32.4985 75.7589 31.4377 75.1233 30.4311" stroke="#ECFBFF" stroke-width="2.77347" stroke-miterlimit="10" stroke-linecap="round"/>
<path d="M34.4501 15.1366L39.4531 20.5752" stroke="#B0DEE7" stroke-width="3.69796" stroke-miterlimit="10"/>
<path d="M32.2218 18.1129C29.1973 17.9024 26.9161 15.2799 27.1266 12.2554C27.337 9.23085 29.9595 6.94963 32.9841 7.16012C36.0086 7.37062 38.2898 9.99312 38.0793 13.0176C37.8688 16.0422 35.2463 18.3234 32.2218 18.1129Z" fill="#B0DEE7"/>
<path d="M32.4319 15.8022C30.6975 15.6814 29.3894 14.1776 29.5101 12.4433C29.6308 10.709 31.1346 9.40086 32.869 9.52156C34.6033 9.64226 35.9114 11.1461 35.7907 12.8804C35.67 14.6147 34.1662 15.9229 32.4319 15.8022Z" fill="#F65539"/>
<path d="M76.2319 142.32C78.9209 142.32 81.3082 144.04 82.1585 146.591L85.8422 157.642C87.406 157.642 88.6566 156.343 88.5968 154.78L85.5848 76.0731L64.3942 100.447L64.3951 130.483C64.3953 137.02 69.6948 142.32 76.2319 142.32Z" fill="#FCC027"/>
<path d="M78.1438 15.8708L73.8036 21.1899" stroke="#B0DEE7" stroke-width="3.69796" stroke-miterlimit="10"/>
<path d="M81.3017 18.4528C78.304 18.906 75.5064 16.8432 75.0531 13.8455C74.5999 10.8477 76.6627 8.05012 79.6604 7.59689C82.6582 7.14366 85.4558 9.20642 85.909 12.2042C86.3623 15.202 84.2995 17.9995 81.3017 18.4528Z" fill="#B0DEE7"/>
<path d="M81.0137 16.1491C79.2947 16.409 77.6905 15.2262 77.4306 13.5072C77.1707 11.7882 78.3535 10.184 80.0725 9.92407C81.7915 9.66418 83.3957 10.847 83.6556 12.566C83.9155 14.285 82.7327 15.8892 81.0137 16.1491Z" fill="#F65539"/>
<path d="M28.0111 83.7839C-8.04872 100.496 -9.16621 74.5678 26.1434 52.8137" stroke="#8CC2CF" stroke-width="7.39592" stroke-miterlimit="10" stroke-linecap="round"/>
<path d="M85.2319 82.6765C119.339 103.079 121.086 79.378 88.2538 54.0394" stroke="#8CC2CF" stroke-width="7.39593" stroke-miterlimit="10" stroke-linecap="round"/>
<path d="M28.011 83.7842C-8.04879 100.496 -9.16572 74.5678 26.1439 52.8137" stroke="#A2CED8" stroke-width="7.39592" stroke-miterlimit="10" stroke-dasharray="9.16 5.5"/>
<path d="M85.2319 82.6765C119.339 103.079 121.086 79.378 88.2538 54.0394" stroke="#A2CED8" stroke-width="7.39593" stroke-miterlimit="10" stroke-dasharray="9.16 5.5"/>
<path d="M38.2732 143.009C35.4944 143.009 33.0275 144.787 32.1488 147.423L28.5126 158.331C26.9489 158.331 25.6983 157.032 25.7581 155.469L28.7701 76.7621L51.8814 100.903L50.4922 131.335C50.1941 137.866 44.8117 143.009 38.2732 143.009Z" fill="#FCC027"/>
<path d="M32.592 84.4886C26.2056 82.9955 17.454 88.7465 9.20256 89.7467" stroke="#FABC43" stroke-width="12.9429" stroke-miterlimit="10"/>
<path d="M80.5923 82.8953C87.1001 82.0804 95.2 88.7178 103.301 90.5782" stroke="#FABC43" stroke-width="12.9429" stroke-miterlimit="10"/>
<path d="M27.0819 125.664C26.9731 125.879 26.8834 126.092 26.7911 126.306L26.5137 133.305C26.7485 133.4 27.0142 133.415 27.2763 133.323C28.729 132.807 30.9318 131.685 32.6569 129.272C33.3468 128.308 33.8322 127.314 34.1714 126.347C34.227 126.186 34.4417 126.2 34.4792 126.365C34.7323 127.484 35.1578 128.656 35.8441 129.813C37.2749 132.227 39.2163 133.537 40.5613 134.213C41.2368 134.552 42.0391 134.133 42.1844 133.347C42.4814 131.743 42.6557 129.133 41.5309 126.345C40.9091 124.803 40.0483 123.6 39.143 122.669C39.0143 122.537 39.1407 122.314 39.3094 122.375C40.4977 122.797 41.88 123.054 43.4281 122.945C46.1005 122.758 48.1195 121.564 49.3279 120.626C49.9361 120.154 49.9708 119.191 49.3964 118.679C48.225 117.635 46.18 116.234 43.361 115.957C41.9437 115.818 40.6583 115.994 39.5343 116.329C39.362 116.381 39.25 116.152 39.3854 116.028C40.2342 115.244 41.0497 114.255 41.7199 113.004C43.0538 110.512 43.2401 108.057 43.1779 106.465C43.1465 105.664 42.4131 105.108 41.695 105.343C40.2307 105.821 38.005 106.887 36.2274 109.255C35.3768 110.388 34.8174 111.571 34.4535 112.705C34.4002 112.871 34.1811 112.859 34.1438 112.689C33.8763 111.479 33.4075 110.199 32.6247 108.946C31.1405 106.569 29.1704 105.309 27.811 104.668C27.7584 104.642 27.7044 104.631 27.6506 104.615L27.3117 113.168C27.8316 114.205 28.4523 115.075 29.113 115.787C29.2282 115.911 29.1189 116.117 28.9589 116.076C28.4096 115.935 27.8231 115.835 27.207 115.787L26.9297 122.786C27.6737 122.747 28.3775 122.635 29.0258 122.459C29.1901 122.414 29.2984 122.627 29.1759 122.751C28.4086 123.529 27.6792 124.485 27.0819 125.664Z" fill="#FFA51F"/>
<path d="M28.0863 70.0626L21.8123 75.5852C20.0118 77.1698 20.4739 80.0704 22.6796 81.03L34.8397 86.3212C35.8703 86.77 36.0631 88.1369 35.195 88.8467L33.6474 90.1122C32.7696 90.8301 32.9779 92.214 34.0276 92.6486L50.3817 102.164C51.7758 102.741 52.9736 101.023 51.937 99.9356L30.1888 70.1547C29.6289 69.5648 28.6972 69.5243 28.0863 70.0626Z" fill="#FFDF60"/>
<path fill-rule="evenodd" clip-rule="evenodd" d="M74.3087 89.175C74.4512 89.2689 74.6581 89.4995 74.9593 89.9213C75.8413 91.1551 76.4165 92.4218 76.7848 93.6394C76.8394 93.8193 77.0936 93.8218 77.1492 93.6414C77.489 92.5547 77.9998 91.4298 78.7538 90.325C80.6387 87.5608 83.168 86.1911 84.8501 85.5355C85.1536 85.4179 85.468 85.4186 85.751 85.5085L85.8602 93.2407C85.8496 93.2674 85.8391 93.2941 85.8285 93.3208C85.7438 93.5351 85.6593 93.749 85.5571 93.9656C84.9258 95.3014 84.1248 96.3997 83.2679 97.3029C83.1311 97.4477 83.2722 97.6754 83.4632 97.6166C84.2173 97.3834 85.0407 97.2166 85.9162 97.1287L86.0254 104.861C85.2954 104.845 84.5973 104.771 83.9402 104.648C83.7489 104.612 83.6327 104.846 83.7765 104.976C84.6005 105.721 85.3872 106.643 86.0653 107.754L86.1988 117.203C86.1829 117.199 86.1669 117.196 86.151 117.193C86.1025 117.183 86.0542 117.173 86.0063 117.154C84.3623 116.529 81.959 115.259 80.0594 112.729C79.0577 111.395 78.4247 110.013 78.0335 108.694C77.9789 108.509 77.7196 108.51 77.6671 108.695C77.3085 109.968 76.7221 111.305 75.7892 112.606C73.8393 115.324 71.2795 116.633 69.5816 117.249C68.7489 117.55 67.8488 116.982 67.7619 116.101C67.5891 114.351 67.6558 111.633 69.0745 108.806C69.7873 107.386 70.6877 106.246 71.6404 105.331C71.7924 105.186 71.6461 104.941 71.446 105.008C70.1405 105.445 68.6348 105.717 66.9538 105.649C66.0462 105.612 65.2008 105.481 64.4217 105.287L64.3976 98.9716L65.2282 98.1507C65.6168 98.067 66.0204 97.999 66.4387 97.95C68.2587 97.7365 69.9058 97.9368 71.3342 98.3299C71.5371 98.3863 71.6724 98.1333 71.5122 97.9957C70.5173 97.137 69.5501 96.0429 68.7661 94.6537L70.5462 92.8941C70.9426 92.8762 71.2463 92.728 71.309 92.2807C71.3175 92.2199 71.3298 92.1609 71.3457 92.1038L72.2853 91.1751C72.5653 91.0977 72.8744 91.1081 73.1701 91.2286C73.956 91.549 73.9717 90.6558 73.9843 89.9354C73.9872 89.7677 73.99 89.6094 74.0023 89.4779L74.3087 89.175Z" fill="#FFA51F"/>
<path d="M87.0436 69.6304L93.0908 75.4004C94.8262 77.056 94.2481 79.9357 92.0056 80.8059L79.6429 85.6047C78.5951 86.0117 78.3476 87.3698 79.1865 88.1139L80.682 89.4405C81.5303 90.1931 81.2666 91.5675 80.2003 91.9595L65.9421 100.983C64.526 101.504 63.398 99.7397 64.4775 98.6944L84.9381 69.6369C85.5222 69.071 86.4548 69.0679 87.0436 69.6304Z" fill="#FFDF60"/>
<path d="M84.1368 43.3088L86.7472 43.5384L85.7409 38.667L83.4019 35.3523L84.1368 43.3088Z" fill="#0C4CAD"/>
<path d="M68.3897 50.3577C67.9509 49.1724 66.7576 48.3196 65.3508 48.3139C63.944 48.3081 62.7438 49.1511 62.2954 50.3328" stroke="#56D8E3" stroke-width="2.67388" stroke-linecap="round"/>
<path d="M54.9197 50.8512C54.481 49.6659 53.2876 48.8131 51.8808 48.8074C50.4741 48.8016 49.2738 49.6447 48.8254 50.8264" stroke="#56D8E3" stroke-width="2.67388" stroke-linecap="round"/>
<ellipse rx="17.2531" ry="14.2526" transform="matrix(1 0 0 -1 75.1228 45.1019)" fill="#30284F" stroke="#30284F" stroke-width="3.89796"/>
<path d="M88.3443 36.8002C92.3367 39.0524 94.8972 46.7339 92.3367 52.5511C89.7762 58.3694 83.8399 61.0109 77.365 61.8555" stroke="#8CC2CF" stroke-width="6.24516" stroke-miterlimit="10" stroke-linecap="round"/>
<circle r="16.5663" transform="matrix(1 0 0 -1 76.2116 40.416)" fill="#30284F" stroke="#30284F" stroke-width="3.89796"/>
<path fill-rule="evenodd" clip-rule="evenodd" d="M43.3922 34.8552C36.4263 36.7663 31.8234 43.7639 33.1113 50.4848C34.3991 57.2057 41.0901 61.1049 48.0559 59.1938C51.3124 58.3004 54.0524 56.2953 55.9156 53.7266C56.7779 52.5378 59.3755 52.4924 60.269 53.658C61.9255 55.8192 64.214 57.5997 66.9288 58.6422C73.6709 61.2312 80.4889 58.2879 82.1571 52.0681C83.8253 45.8483 79.712 38.7074 72.9698 36.1183C68.1192 34.2556 63.2293 35.2565 60.2461 38.281C59.2373 39.3038 56.6833 39.2877 55.7308 38.2123C52.8704 34.983 48.1967 33.537 43.3922 34.8552Z" fill="#30284F"/>
<path d="M33.1113 50.4848L31.1971 50.8516L33.1113 50.4848ZM43.3922 34.8552L42.8765 32.9756L43.3922 34.8552ZM48.0559 59.1938L47.5403 57.3142H47.5403L48.0559 59.1938ZM66.9288 58.6422L66.2301 60.4616L66.9288 58.6422ZM82.1571 52.0681L84.0395 52.573L82.1571 52.0681ZM72.9698 36.1183L73.6685 34.2989V34.2989L72.9698 36.1183ZM60.2461 38.281L58.8586 36.9124L60.2461 38.281ZM55.7308 38.2123L57.1897 36.9201L55.7308 38.2123ZM35.0254 50.118C33.9454 44.4817 37.8365 38.4004 43.9078 36.7347L42.8765 32.9756C35.0162 35.1321 29.7014 43.0461 31.1971 50.8516L35.0254 50.118ZM47.5403 57.3142C41.5612 58.9546 36.0786 55.6143 35.0254 50.118L31.1971 50.8516C32.7196 58.7971 40.6189 63.2551 48.5716 61.0733L47.5403 57.3142ZM54.3379 52.5823C52.7209 54.8116 50.3471 56.5442 47.5403 57.3142L48.5716 61.0733C52.2776 60.0565 55.3838 57.7791 57.4932 54.871L54.3379 52.5823ZM58.7221 54.8436C60.5882 57.2783 63.1656 59.2849 66.2301 60.4616L67.6274 56.8227C65.2624 55.9145 63.2628 54.3601 61.8158 52.4724L58.7221 54.8436ZM66.2301 60.4616C73.8155 63.3745 82.0096 60.1415 84.0395 52.573L80.2746 51.5632C78.9681 56.4343 73.5263 59.088 67.6274 56.8227L66.2301 60.4616ZM84.0395 52.573C86.0115 45.2207 81.169 37.1791 73.6685 34.2989L72.2712 37.9378C78.255 40.2356 81.639 46.476 80.2746 51.5632L84.0395 52.573ZM73.6685 34.2989C68.1991 32.1986 62.4602 33.2609 58.8586 36.9124L61.6337 39.6496C63.9984 37.2522 68.0392 36.3127 72.2712 37.9378L73.6685 34.2989ZM43.9078 36.7347C48.0375 35.6017 51.9319 36.8628 54.2718 39.5046L57.1897 36.9201C53.809 33.1031 48.3559 31.4724 42.8765 32.9756L43.9078 36.7347ZM58.8586 36.9124C58.8884 36.8821 58.847 36.9359 58.6603 36.995C58.4834 37.0511 58.2487 37.0877 57.9907 37.0847C57.7322 37.0816 57.5058 37.0393 57.3424 36.9818C57.1702 36.9213 57.149 36.8741 57.1897 36.9201L54.2718 39.5046C55.2662 40.6273 56.7955 40.9686 57.944 40.9823C59.0992 40.9962 60.6085 40.6891 61.6337 39.6496L58.8586 36.9124ZM57.4932 54.871C57.4408 54.9432 57.4293 54.912 57.5649 54.8572C57.6948 54.8046 57.8874 54.7618 58.1126 54.7581C58.3379 54.7544 58.5301 54.791 58.6589 54.8384C58.7931 54.8879 58.7787 54.9175 58.7221 54.8436L61.8158 52.4724C60.8386 51.1974 59.2261 50.8413 58.0486 50.8607C56.8698 50.88 55.2761 51.2889 54.3379 52.5823L57.4932 54.871Z" fill="#30284F"/>
<path d="M28.1291 36.7993C24.1367 39.0514 21.5762 46.7329 24.1367 52.5502C26.6972 58.3685 32.6335 61.0099 39.1084 61.8545" stroke="#8CC2CF" stroke-width="6.24516" stroke-miterlimit="10" stroke-linecap="round"/>
<ellipse cx="43.1162" cy="45.1037" rx="14.7527" ry="14.2526" transform="rotate(-180 43.1162 45.1037)" fill="#30284F" stroke="#30284F" stroke-width="3.89796"/>
<circle cx="40.4717" cy="40.416" r="16.5663" transform="rotate(-180 40.4717 40.416)" fill="#30284F" stroke="#30284F" stroke-width="3.89796"/>
<ellipse rx="12.6443" ry="12.3915" transform="matrix(1 0 0 -1 42.7879 40.3543)" fill="#36488B"/>
<path d="M73.1345 27.1818C80.5638 27.1818 86.6124 33.0879 86.6124 40.4052C86.6124 47.7225 80.5638 53.6286 73.1345 53.6286C65.7052 53.6286 59.6566 47.7225 59.6566 40.4052C59.6566 33.0879 65.7052 27.1818 73.1345 27.1818Z" fill="#36488B" stroke="#30284F" stroke-width="1.50027"/>
<path fill-rule="evenodd" clip-rule="evenodd" d="M22.9538 40.7414C22.9538 50.0701 30.5163 57.6325 39.845 57.6325C49.1737 57.6325 56.7362 50.0701 56.7362 40.7414C56.7362 31.4126 49.1737 23.8502 39.845 23.8502C30.5163 23.8502 22.9538 31.4126 22.9538 40.7414ZM39.845 59.8847C29.2724 59.8847 20.7017 51.3139 20.7017 40.7414C20.7017 30.1688 29.2724 21.598 39.845 21.598C46.6596 21.598 52.6426 25.1588 56.0349 30.5213C56.7867 31.7098 58.9407 31.7098 59.6925 30.5213C63.0847 25.1588 69.0677 21.598 75.8824 21.598C86.4549 21.598 95.0257 30.1688 95.0257 40.7414C95.0257 51.3139 86.4549 59.8847 75.8824 59.8847C69.0677 59.8847 63.0847 56.3239 59.6925 50.9614C58.9407 49.7729 56.7867 49.7729 56.0349 50.9614C52.6426 56.3239 46.6596 59.8847 39.845 59.8847ZM58.9912 40.7414C58.9912 50.0701 66.5536 57.6325 75.8824 57.6325C85.2111 57.6325 92.7735 50.0701 92.7735 40.7414C92.7735 31.4126 85.2111 23.8502 75.8824 23.8502C66.5536 23.8502 58.9912 31.4126 58.9912 40.7414Z" fill="#615980"/>
<path d="M44.1038 30.3912C44.5683 29.4614 45.8896 29.4614 46.3541 30.3912L48.1838 34.0538C48.3612 34.409 48.6945 34.6597 49.0836 34.7308L53.0453 35.4548C54.0223 35.6333 54.4184 36.8247 53.7444 37.5571L50.8692 40.6816C50.6138 40.9591 50.4954 41.3369 50.5464 41.7113L51.1246 45.9576C51.2627 46.9725 50.2051 47.7226 49.2992 47.2522L45.8071 45.4387C45.4445 45.2504 45.0135 45.2504 44.6508 45.4387L41.1588 47.2522C40.2529 47.7226 39.1952 46.9725 39.3334 45.9576L39.9116 41.7113C39.9625 41.3369 39.8441 40.9591 39.5887 40.6816L36.7135 37.5571C36.0395 36.8247 36.4357 35.6333 37.4127 35.4548L41.3743 34.7308C41.7635 34.6597 42.0967 34.409 42.2741 34.0538L44.1038 30.3912Z" fill="#56D8E3"/>
<path d="M69.3694 30.3929C69.837 29.4569 71.167 29.4569 71.6346 30.3929L73.4763 34.0797C73.6549 34.4372 73.9903 34.6895 74.3821 34.7611L78.3699 35.4899C79.3533 35.6696 79.7521 36.8688 79.0736 37.6061L76.1794 40.7512C75.9224 41.0306 75.8032 41.4108 75.8545 41.7877L76.4365 46.062C76.5756 47.0836 75.5109 47.8387 74.599 47.3651L71.0839 45.5397C70.7189 45.3501 70.285 45.3501 69.92 45.5397L66.4049 47.3651C65.4931 47.8387 64.4284 47.0836 64.5675 46.062L65.1495 41.7877C65.2008 41.4108 65.0816 41.0306 64.8245 40.7512L61.9304 37.6061C61.2519 36.8688 61.6507 35.6696 62.6341 35.4899L66.6219 34.7611C67.0136 34.6895 67.3491 34.4372 67.5277 34.0797L69.3694 30.3929Z" fill="#56D8E3"/>
<ellipse opacity="0.5" cx="41.0433" cy="37.3649" rx="9.67345" ry="6.8213" transform="rotate(-25.977 41.0433 37.3649)" fill="white"/>
<ellipse opacity="0.5" cx="71.315" cy="37.348" rx="9.73729" ry="6.86632" transform="rotate(-25.977 71.315 37.348)" fill="white"/>
</g>
</svg>
