<?xml version="1.0"?>
<svg xmlns="http://www.w3.org/2000/svg" viewBox="0 0 112 112" fill="none">
<path d="M57.4215 25.4151C57.5586 20.5034 61.5747 16.5902 66.4882 16.5805L74.3848 16.5649C79.127 16.5556 83.0792 20.194 83.4613 24.9208L84.93 43.0907L90.7431 73.3313C91.8217 78.9422 90.742 84.7534 87.72 89.6024L86.0594 92.2671C82.961 97.2387 77.5215 100.265 71.6634 100.277C65.4432 100.289 59.7129 96.9037 56.722 91.4498L55.765 89.7048C53.7844 86.0932 52.9461 81.9657 53.3607 77.8675L56.9467 42.4285L57.4215 25.4151Z" fill="#DADDE6"/>
<path d="M58.9917 21.9815C59.2314 15.7646 64.3345 10.8448 70.556 10.8325C76.674 10.8205 81.7489 15.5636 82.1498 21.6685L83.61 43.9069L87.9547 70.803C88.6721 75.2442 87.8439 79.7971 85.6084 83.7011L84.0427 86.4353C81.5173 90.8456 76.8278 93.5704 71.7457 93.5804C66.3115 93.5911 61.3476 90.5002 58.9597 85.6188L57.5064 82.648C55.9342 79.4342 55.277 75.8496 55.6067 72.2871L58.0839 45.5228L58.9917 21.9815Z" fill="#C14C4C"/>
<path d="M62.6489 23.2848C62.64 18.7939 66.2734 15.1461 70.7643 15.1373C75.2552 15.1284 78.903 18.7618 78.9118 23.2527L78.9335 34.2542C78.9424 38.7451 75.309 42.3928 70.8181 42.4017C66.3272 42.4106 62.6794 38.7771 62.6706 34.2862L62.6489 23.2848Z" fill="#503323"/>
<path d="M62.6606 29.025C62.6517 24.5341 66.2851 20.8864 70.776 20.8775C75.2669 20.8687 78.9147 24.5021 78.9236 28.993L78.9481 41.4294C78.9569 45.9203 75.3235 49.568 70.8326 49.5769C66.3417 49.5858 62.694 45.9523 62.6851 41.4614L62.6606 29.025Z" fill="#9C9070"/>
<path d="M64.1138 38.5886C64.1065 34.8902 67.0987 31.8862 70.7971 31.8789C74.4955 31.8716 77.4995 34.8638 77.5068 38.5622L77.5408 55.7818L64.1478 55.8082L64.1138 38.5886Z" fill="#E36060"/>
<path d="M65.0824 37.9129C63.5204 36.762 63.3891 34.9192 63.3874 34.0458L63.3648 22.566C63.3567 18.4714 66.6695 15.1455 70.7642 15.1374C74.8588 15.1293 78.1847 18.4422 78.1928 22.5368L78.215 33.7774C78.2767 35.3042 77.8627 36.9184 76.3025 37.9522C75.1743 38.6997 74.161 39.7746 74.1637 41.1279L74.1917 55.3389C74.1931 56.0186 74.6711 56.6042 75.3368 56.7415L78.2079 57.3337C79.0994 57.5176 79.9319 56.8366 79.9496 55.9265C80.0272 51.9395 80.5117 46.3185 83.1865 42.1964C83.5201 41.6823 83.7145 41.0844 83.6848 40.4722L82.7981 22.1852C82.4829 15.6852 77.1144 10.5808 70.6068 10.5936C64.0261 10.6066 58.6454 15.8437 58.4544 22.4217L57.9278 40.559C57.9107 41.1488 58.1038 41.7217 58.4289 42.2142C61.1633 46.356 61.8331 52.1728 61.9691 56.2154C61.9996 57.1205 62.8277 57.7975 63.7153 57.6181L65.6735 57.2225C66.3232 57.0912 66.7985 56.532 66.8233 55.8697L67.3662 41.3911C67.4211 39.9284 66.2608 38.7811 65.0824 37.9129Z" fill="#734334"/>
<path d="M64.6246 54.8508C67.0647 54.6688 72.6765 54.0908 76.5732 50.0439" stroke="#B8BAC0" stroke-width="2.4825" stroke-linecap="round" stroke-linejoin="round"/>
<path d="M64.6148 50.0676C67.0549 49.8679 72.6676 49.7115 76.5635 45.2607" stroke="#B8BAC0" stroke-width="2.4825" stroke-linecap="round" stroke-linejoin="round"/>
<path d="M64.6065 45.523C67.0466 45.3233 72.6588 44.9278 76.5547 40.4771" stroke="#B8BAC0" stroke-width="2.4825" stroke-linecap="round" stroke-linejoin="round"/>
<path d="M76.5827 54.8265C74.142 54.6542 68.5279 54.0984 64.6152 50.0669" stroke="#D9DBE8" stroke-width="2.4825" stroke-linecap="round" stroke-linejoin="round"/>
<path d="M76.5735 50.0434C74.1327 49.8534 68.5199 49.9583 64.6064 45.5229" stroke="#D9DBE8" stroke-width="2.4825" stroke-linecap="round" stroke-linejoin="round"/>
<path d="M76.5632 45.2606C74.1224 45.0706 68.5091 44.9364 64.5957 40.501" stroke="#D9DBE8" stroke-width="2.4825" stroke-linecap="round" stroke-linejoin="round"/>
<path d="M58.9411 76.1585C58.4397 64.4405 70.1333 71.2589 73.7694 76.1287C80.7237 85.4423 63.0533 99.3486 58.9411 76.1585Z" fill="#CA5151"/>
<path d="M26.0596 35.7956C30.5156 35.454 37.3829 39.6829 36.5275 42.0903" stroke="#EAEAEA" stroke-width="2.76166" stroke-linecap="round" stroke-linejoin="round"/>
<path d="M36.9115 30.2904C39.1371 27.576 39.1832 23.8841 38.8974 20.7671C38.6579 18.1563 39.5377 15.6071 41.4274 13.7898C43.7376 11.5681 47.1286 10.6602 50.0274 12.0276C61.0653 17.2343 58.6458 24.9888 59.5289 27.2853C60.8185 31.7037 52.2963 43.3012 47.3909 49.7674C42.7046 49.1825 37.1793 52.3216 32.8836 55.5447C30.4179 57.3948 26.4059 55.4249 26.7234 52.3587L28.6486 33.7642C31.9907 33.7251 35.0767 32.5281 36.9115 30.2904Z" fill="#804F3F"/>
<path d="M38.9729 30.719C41.4434 27.706 41.6247 23.7733 41.4608 20.6253C41.3632 18.7508 42.1768 16.9512 43.7108 15.8693C45.0626 14.916 46.7912 14.6278 48.357 15.1613C62.3979 19.9462 62.2824 25.1334 63.2241 27.5823C64.5137 32.0008 55.9915 43.5982 51.0861 50.0645C43.3421 49.0979 35.6317 54.0593 31.4227 59.227C30.2263 60.696 28.0814 61.2252 26.5093 60.1678L25.2195 59.3003C24.1573 58.5859 23.6102 57.3151 23.7988 56.049C24.5587 50.9481 26.1464 39.2101 26.7369 34.8246C26.8547 33.9495 27.7515 33.4242 28.6058 33.647C32.9486 34.7798 36.4739 33.7669 38.9729 30.719Z" fill="#5E3F2E"/>
<path d="M24.9349 102.889C22.919 104.196 17.0734 97.179 18.6271 94.8986C41.1438 90.7241 63.7696 26.7962 70.3053 25.3682C74.1226 24.5341 77.427 26.9338 79.5084 29.3037C80.7749 30.7457 80.9105 32.8106 80.1137 34.5566C74.8121 46.1731 67.7491 47.7075 58.2444 67.007C44.7677 94.3717 31.7313 100.985 24.9349 102.889Z" fill="#ECECEC"/>
<path d="M28.6025 35.0631C28.5233 33.0321 29.5483 31.0763 31.4664 30.4038C34.6634 29.2829 39.3896 28.6952 40.3005 34.4857C43.0677 34.4522 48.0853 31.427 52.2164 28.5697C55.9999 25.9529 56.4967 20.6799 53.5316 17.1626C51.9325 15.2657 53.5276 12.7028 55.8544 13.564C61.2862 15.5744 68.3374 19.2598 71.2843 25.4427C72.9048 30.9953 62.026 43.8952 54.6984 54.8608C41.8149 74.1408 33.6294 91.7469 18.7104 95.1193C12.4123 88.3267 18.5911 73.4585 26.7906 58.8386C29.0578 52.4239 28.9114 42.9844 28.6025 35.0631Z" fill="#D75959"/>
<path d="M48.8453 28.4227C52.2046 24.3256 50.9771 12.8126 44.096 15.1323C44.096 15.1323 40.4012 11.522 48.2296 11.5271C56.058 11.5322 70.1854 18.8346 71.4628 25.4176C72.7524 29.836 64.2301 41.4335 59.3248 47.8997C51.5808 46.9331 43.8704 51.8945 39.6614 57.0622C38.4649 58.5312 36.3201 59.0604 34.748 58.0031L33.4582 57.1356C32.396 56.4212 31.8517 55.1522 32.0551 53.8884C32.8077 49.213 34.3514 39.069 35.033 34.5753C35.2076 33.4239 36.3992 32.7397 37.5524 32.9027C41.9896 33.5301 46.4356 31.3617 48.8453 28.4227Z" fill="#804F3F"/>
<path d="M23.9515 54.8664C23.6351 53.1181 25.3776 52.2738 27.5815 51.6968C30.831 50.8462 35.0836 50.5767 35.2195 48.8474" stroke="#E0E0E0" stroke-width="2.76166" stroke-linecap="round" stroke-linejoin="round"/>
<path d="M24.3861 48.84C23.6032 44.514 35.4259 45.7231 35.6541 42.8211" stroke="#E0E0E0" stroke-width="2.76166" stroke-linecap="round" stroke-linejoin="round"/>
<path d="M24.8128 42.8141C24.0298 38.488 36.8047 39.3352 37.0329 36.4331" stroke="#E0E0E0" stroke-width="2.76166" stroke-linecap="round" stroke-linejoin="round"/>
<path d="M35.0009 54.5213C30.5449 54.8629 23.6777 50.6339 24.5331 48.2266" stroke="white" stroke-width="2.76166" stroke-linecap="round" stroke-linejoin="round"/>
<path d="M35.4228 48.4915C30.9668 48.8331 24.0996 44.6042 24.955 42.1968" stroke="white" stroke-width="2.76166" stroke-linecap="round" stroke-linejoin="round"/>
<path d="M35.8583 42.4647C31.4023 42.8063 24.5351 38.5773 25.3905 36.17" stroke="white" stroke-width="2.76166" stroke-linecap="round" stroke-linejoin="round"/>
<path d="M24.1723 54.8067C22.8988 57.6716 24.9679 59.4492 26.1617 59.9798L27.4317 55.2938L26.6949 53.5909C27.0077 53.0198 24.7708 54.3922 24.1723 54.8067Z" fill="#5E3F2E"/>
<path d="M23.4482 71.6036C30.0683 63.7209 31.9929 74.9939 30.4575 80.1021C25.9338 95.1521 12.3667 89.0526 23.4482 71.6036Z" fill="#E86363"/>
</svg>
