<?xml version="1.0"?>
<svg xmlns="http://www.w3.org/2000/svg" viewBox="0 0 112 112" fill="none">
<path fill-rule="evenodd" clip-rule="evenodd" d="M104.542 39.268C104.534 39.2316 104.525 39.1954 104.515 39.1593C104.505 39.1228 104.495 39.0865 104.483 39.0506C104.494 39.0868 104.505 39.1232 104.515 39.1599C104.524 39.1958 104.533 39.2319 104.542 39.268ZM104.476 39.027L100.669 24.8196L100.659 24.783C99.0639 18.8282 81.3576 18.3987 61.1114 23.8237C40.8675 29.248 25.7492 38.4716 27.3409 44.4265L27.3407 44.4265L31.1927 58.8026L31.1955 58.8019C29.6068 52.847 44.7242 43.6245 64.9664 38.2006C85.061 32.8162 102.654 33.199 104.476 39.027Z" fill="#515073"/>
<path fill-rule="evenodd" clip-rule="evenodd" d="M100.637 24.7025C100.646 24.7302 100.654 24.758 100.661 24.786L100.661 24.7863L100.662 24.786L104.515 39.1621L104.513 39.1626L104.513 39.1631C106.109 45.1179 90.9893 54.343 70.743 59.7679C50.4968 65.1929 32.7905 64.7634 31.1949 58.8086C31.1857 58.7742 31.177 58.7397 31.1689 58.705L27.3707 44.5299C29.1356 50.3902 46.7573 50.7848 66.8906 45.3901C87.1369 39.9652 102.256 30.7401 100.661 24.7853C100.653 24.7576 100.645 24.73 100.637 24.7025Z" fill="#33324B"/>
<path d="M99.9484 24.9782C100.253 26.1167 99.7953 27.561 98.3403 29.2835C96.9024 30.9859 94.6031 32.8187 91.5807 34.6628C85.5446 38.3458 76.7724 41.9846 66.6974 44.6842C56.6223 47.3838 47.206 48.6186 40.1371 48.4471C36.5976 48.3613 33.6899 47.9236 31.5934 47.1683C29.4722 46.404 28.3532 45.3823 28.0482 44.2438C27.7431 43.1053 28.2013 41.6611 29.6562 39.9386C31.0942 38.2362 33.3935 36.4033 36.4158 34.5592C42.452 30.8763 51.2242 27.2375 61.2992 24.5379C71.3742 21.8383 80.7905 20.6035 87.8595 20.775C91.399 20.8608 94.3066 21.2985 96.4032 22.0538C98.5244 22.8181 99.6433 23.8397 99.9484 24.9782Z" stroke="#918FBF" stroke-width="1.4679"/>
<path d="M75.5444 43.1913C75.1116 41.5759 75.8097 39.8702 77.2509 39.0218L79.7708 37.5383C80.2304 37.2678 80.7427 37.0992 81.2732 37.044L83.6814 36.7932C85.5004 36.6039 87.1874 37.7645 87.6607 39.531L90.9775 51.9096C91.4104 53.525 90.7123 55.2307 89.2711 56.0791L86.7511 57.5626C86.2916 57.8331 85.7792 58.0017 85.2488 58.0569L82.8406 58.3076C81.0216 58.497 79.3346 57.3364 78.8613 55.5698L75.5444 43.1913Z" fill="#4A486C"/>
<path d="M77.7142 42.6528C77.4638 41.7185 77.8436 40.7293 78.6549 40.2025L80.9189 38.7326C81.2319 38.5294 81.5908 38.4079 81.9628 38.3792L84.2649 38.2014C85.3365 38.1187 86.315 38.8113 86.5932 39.8495L89.8926 52.1632C90.143 53.0975 89.7632 54.0867 88.9519 54.6134L86.6878 56.0834C86.3749 56.2866 86.016 56.4081 85.644 56.4368L83.3419 56.6146C82.2703 56.6973 81.2918 56.0047 81.0136 54.9665L77.7142 42.6528Z" fill="#676597"/>
<path d="M79.3806 43.1281C79.1397 42.2291 79.6002 41.2904 80.4586 40.9307L83.6221 39.605C84.4536 39.2566 85.4016 39.7216 85.6349 40.5925L88.5825 51.593C88.8234 52.492 88.3629 53.4307 87.5045 53.7904L84.341 55.116C83.5095 55.4645 82.5616 54.9995 82.3282 54.1286L79.3806 43.1281Z" fill="#33324B"/>
<path d="M25.3292 43.2329L19.94 47.502C18.0788 48.9764 17.2717 51.4158 17.8863 53.7094L22.7901 72.0107C23.7368 75.5439 27.1109 77.8652 30.7491 77.4862L53.7801 75.0873C56.8725 74.7652 59.7865 73.4827 62.1128 71.4198L66.2994 67.7073C68.4084 65.8372 69.2797 62.936 68.5502 60.2134L63.5633 41.602C62.7974 38.7437 60.0484 36.8818 57.1099 37.2311L32.8136 40.1201C30.0788 40.4452 27.4879 41.5228 25.3292 43.2329Z" fill="#34CB79"/>
<path d="M56.9598 40.1244C59.1649 38.3968 62.4181 39.4828 63.1431 42.1886L67.9974 60.3054C68.6792 62.8499 67.8491 65.5603 65.8592 67.2865L63.2026 69.5912C61.0228 71.4822 57.6156 70.4386 56.8687 67.6512L51.966 49.3539C51.2519 46.689 52.1979 43.8553 54.3696 42.1538L56.9598 40.1244Z" fill="#28B658" stroke="#34CB79" stroke-width="1.11624"/>
<path d="M26.9561 42.9929L51.0377 40.4345C54.3165 40.0861 57.3611 42.1761 58.2145 45.361L58.8028 47.5566" stroke="#28B658" stroke-width="1.11624" stroke-linecap="round"/>
<path d="M56.3159 49.0546C55.9503 47.6905 56.3887 46.2369 57.4474 45.3023L58.2796 44.5676C59.1079 43.8363 60.4162 44.2308 60.7022 45.2981L61.3173 47.5935C61.6828 48.9576 61.2445 50.4112 60.1857 51.3458L59.3535 52.0805C58.5252 52.8118 57.2169 52.4173 56.9309 51.35L56.3159 49.0546Z" fill="#209A2C"/>
<path fill-rule="evenodd" clip-rule="evenodd" d="M58.7013 44.3067C58.8726 44.481 59.0045 44.7025 59.0747 44.9646L59.6898 47.26C60.0553 48.6242 59.617 50.0777 58.5583 51.0124L57.7261 51.7471C57.5955 51.8623 57.453 51.9496 57.3044 52.0108C57.1331 51.8365 57.0013 51.615 56.931 51.3529L56.316 49.0575C55.9505 47.6933 56.3888 46.2398 57.4475 45.3051L58.2797 44.5704C58.4103 44.4551 58.5528 44.3678 58.7013 44.3067Z" fill="#386C3D"/>
<path d="M61.2254 65.9467C61.0798 65.4035 61.2544 64.8246 61.676 64.4524L64.6318 61.8429C64.9617 61.5517 65.4827 61.7088 65.5966 62.1338C65.7422 62.6771 65.5676 63.2559 65.146 63.6282L62.1902 66.2377C61.8603 66.5289 61.3393 66.3718 61.2254 65.9467Z" fill="#209A2C"/>
<path d="M60.5516 63.4315C60.406 62.8882 60.5806 62.3094 61.0022 61.9371L63.958 59.3276C64.2879 59.0364 64.8089 59.1935 64.9228 59.6186C65.0684 60.1618 64.8938 60.7407 64.4722 61.1129L61.5164 63.7224C61.1865 64.0136 60.6655 63.8565 60.5516 63.4315Z" fill="#209A2C"/>
<path fill-rule="evenodd" clip-rule="evenodd" d="M46.7943 76.2767C45.7736 77.7228 44.738 79.183 43.8349 80.7053C42.5603 82.854 40.7842 84.6722 38.5443 85.9654C30.6646 90.5148 20.029 86.8451 14.7888 77.7689C9.54873 68.6928 11.6885 57.6472 19.5682 53.0978C21.9224 51.7386 24.5227 51.1131 27.1517 51.1462C28.9098 51.1684 30.6832 51.0442 32.4373 50.9229C37.8164 50.5509 43.568 53.7024 46.8367 59.364C50.16 65.12 49.9531 71.8012 46.7943 76.2767Z" fill="#209A2C"/>
<ellipse cx="28.7922" cy="69.6698" rx="16.1855" ry="18.9761" transform="rotate(-30 28.7922 69.6698)" fill="#28B658"/>
<path d="M37.5574 64.8345C42.5759 73.5267 40.506 83.7549 33.437 87.8362C26.368 91.9175 16.4751 88.5959 11.4567 79.9038C6.43828 71.2116 8.50812 60.9833 15.5771 56.902C22.6462 52.8207 32.539 56.1423 37.5574 64.8345Z" fill="#386C3D" stroke="#28B658" stroke-width="2.23248"/>
<path d="M37.5445 64.8416C41.6192 71.8993 39.9131 80.1466 34.2422 83.4207C28.5713 86.6948 20.5758 84.0487 16.5011 76.991C12.4264 69.9334 14.1325 61.686 19.8034 58.412C25.4743 55.1379 33.4698 57.784 37.5445 64.8416Z" fill="#FFEF40" stroke="#FFBD38" stroke-width="2.25831"/>
<path d="M37.5574 64.8345C42.5759 73.5267 40.506 83.7549 33.437 87.8362C26.368 91.9175 16.4751 88.5959 11.4567 79.9038C6.43828 71.2116 8.50812 60.9833 15.5771 56.902C22.6462 52.8207 32.539 56.1423 37.5574 64.8345Z" stroke="#28B658" stroke-width="2.23248"/>
<path fill-rule="evenodd" clip-rule="evenodd" d="M20.0063 73.7424C22.4327 74.3926 25.1184 72.2373 26.005 68.9286C26.8916 65.6198 25.6433 62.4105 23.2169 61.7603C20.7905 61.1101 18.1047 63.2654 17.2182 66.5741C16.3316 69.8829 17.5799 73.0922 20.0063 73.7424ZM30.7446 77.0015C31.7234 76.4364 31.8922 74.8963 31.1216 73.5616C30.351 72.2268 28.9328 71.6029 27.954 72.168C26.9752 72.7331 26.8064 74.2733 27.577 75.608C28.3476 76.9427 29.7658 77.5666 30.7446 77.0015Z" fill="white"/>
<path d="M38.9446 69.0592L39.7373 68.9495C41.1303 68.7568 42.3862 68.0091 43.2196 66.8763L44.7398 64.8099" stroke="#209A2C" stroke-width="1.11624" stroke-linecap="round"/>
<path d="M8.30664 71.8771L9.2533 71.816" stroke="#209A2C" stroke-width="1.11624" stroke-linecap="round"/>
<path d="M47.186 43.7392C48.0117 43.5179 48.7417 43.1885 49.2546 42.8219C49.5098 42.6395 49.7281 42.4359 49.8731 42.2164C50.0177 41.9974 50.1128 41.7234 50.0355 41.4349C49.9581 41.1463 49.7388 40.9565 49.504 40.8392C49.2688 40.7216 48.9779 40.6544 48.6657 40.6241C48.0383 40.563 47.2413 40.6427 46.4156 40.864C45.59 41.0852 44.8599 41.4147 44.3471 41.7812C44.0919 41.9636 43.8736 42.1672 43.7286 42.3867C43.584 42.6057 43.4889 42.8797 43.5662 43.1683C43.6435 43.4568 43.8629 43.6466 44.0977 43.7639C44.3329 43.8815 44.6238 43.9487 44.936 43.9791C45.5634 44.0401 46.3604 43.9604 47.186 43.7392Z" fill="#FB5959" stroke="#209A2C" stroke-width="0.744161"/>
<rect x="43.542" y="41.6332" width="5.95329" height="1.48832" transform="rotate(-15 43.542 41.6332)" fill="#FB5959"/>
<path d="M48.9299 40.1912C48.9324 40.2004 48.9426 40.2531 48.8654 40.3701C48.7884 40.4865 48.6479 40.6281 48.4351 40.7802C48.0119 41.0827 47.369 41.3798 46.6067 41.5841C45.8444 41.7883 45.1391 41.8525 44.6213 41.8021C44.361 41.7768 44.1685 41.7244 44.0437 41.662C43.9183 41.5994 43.9008 41.5486 43.8983 41.5394C43.8958 41.5302 43.8857 41.4775 43.9629 41.3605C44.0398 41.244 44.1803 41.1025 44.3931 40.9504C44.8163 40.6478 45.4592 40.3507 46.2215 40.1465C46.9838 39.9422 47.6891 39.8781 48.2069 39.9285C48.4672 39.9538 48.6597 40.0061 48.7846 40.0685C48.9099 40.1312 48.9275 40.182 48.9299 40.1912Z" fill="#CC3838" stroke="#FB5959" stroke-width="0.744161"/>
</svg>
