<?xml version="1.0"?>
<svg xmlns="http://www.w3.org/2000/svg" viewBox="0 0 112 112" fill="none">
<path d="M31.3536 54.6482C30.3103 50.3478 32.9508 46.0158 37.2513 44.9726C41.5517 43.9293 45.8837 46.5698 46.9269 50.8702L53.0744 76.2109C54.194 80.8262 50.8362 85.3205 46.0929 85.5553L40.8727 85.8137C36.0469 86.0526 32.2357 81.7701 33.0331 77.0046L34.3057 69.3992C34.4744 68.391 34.4372 67.359 34.1962 66.3656L31.3536 54.6482Z" fill="#DF9948"/>
<path d="M43.944 51.1195C43.6516 49.9143 44.2858 48.6621 45.5127 48.4817C47.9077 48.1296 50.6822 48.4562 52.3576 48.734C53.2965 48.8898 54.0191 49.6109 54.2422 50.5361L62.7353 85.7571C63.0617 87.1104 62.2303 88.4723 60.8774 88.8005L47.9614 91.9338C46.8907 92.1936 45.7754 91.7286 45.2062 90.7853L38.4266 79.548C37.9565 78.7687 38.3782 77.7571 39.2626 77.5426C45.0478 76.1391 48.5999 70.3116 47.1964 64.5265L43.944 51.1195Z" fill="#EFAF4F"/>
<path d="M28.4429 57.2648C28.3075 56.7183 28.3807 56.1406 28.6944 55.6731C29.1927 54.9304 30.0742 53.7619 31.242 52.794C32.3853 51.8464 33.9214 52.6534 34.2714 54.0964L37.8779 68.9627C38.811 72.8092 36.407 76.6941 32.5605 77.6273C31.456 77.8952 30.8841 79.1331 31.4119 80.1396C32.3324 81.8948 30.0817 83.5841 28.6535 82.21L25.7797 79.4453C25.2999 78.9836 25.5825 78.1717 26.2453 78.1078C30.0348 77.7425 32.6151 74.0962 31.6992 70.401L28.4429 57.2648Z" fill="#EFAF4F"/>
<path d="M50.8042 68.7908C50.6868 68.3067 50.7129 67.8057 50.8779 67.3357C51.8408 64.592 55.1766 54.7084 54.411 51.5523C56.1158 58.5798 58.2536 63.2307 60.1111 66.2346C62.3459 69.8486 65.0828 73.4322 66.3762 77.4797L69.0072 85.7129C69.4256 87.0221 68.7191 88.4253 67.4183 88.8689L59.1873 91.6759C57.783 92.1548 56.2707 91.3245 55.921 89.8827L50.8042 68.7908Z" fill="#EFAF4F"/>
<path d="M32.6548 58.122C32.6548 58.122 35.379 57.3894 49.1509 61.9089C49.1509 61.9089 42.1956 64.206 34.4393 71.9963C34.4393 71.9963 42.1956 72.9701 45.9952 75.6556M47.3664 54.5531C38.9496 58.122 34.4393 65.4778 34.4393 65.4778C41.871 65.4778 48.7808 71.0854 48.7808 71.0854C39.5988 71.6717 31.9147 76.4752 31.9147 76.4752" stroke="#6A5742" stroke-width="2.59678" stroke-linecap="round" stroke-linejoin="round"/>
<path d="M13.3763 98.0596C11.4137 87.8489 18.1002 77.9804 28.311 76.0178L28.8417 75.9158C39.0524 73.9532 48.9209 80.6397 50.8835 90.8504L51.1398 92.1838L13.6326 99.393L13.3763 98.0596Z" fill="#FABD63"/>
<path d="M54.3102 89.2031C53.0137 82.3866 54.309 75.2454 62.7514 70.3765" stroke="#E3A343" stroke-width="1.94758"/>
<path fill-rule="evenodd" clip-rule="evenodd" d="M12.5615 99.3876C12.5306 99.3319 12.508 99.2737 12.494 99.2132C12.0443 97.2707 20.6182 93.6271 31.6441 91.0749C38.1272 89.5743 44.0146 88.7851 47.8568 88.7845C50.4633 88.784 53.2743 88.8422 55.7456 88.0138C61.5341 86.0736 68.8158 84.0661 70.33 85.6445L71.7313 91.0749C71.9329 92.0374 70.6939 92.8125 69.7119 92.8674C64.6614 93.1495 54.8524 96.3746 51.2173 97.6222C50.6384 97.8209 50.028 97.5906 49.7082 97.1166L13.9438 105.374L12.5615 99.3876Z" fill="#7D7D7D"/>
<path fill-rule="evenodd" clip-rule="evenodd" d="M59.392 93.4447C55.7071 94.6856 51.5061 94.6622 47.6239 94.8796C43.846 95.0912 38.7596 95.8591 33.2444 97.1357C22.1414 99.7057 13.5052 103.364 13.9548 105.306C14.0197 105.587 14.2701 105.816 14.6847 105.995C20.6727 106.331 26.6779 106.069 32.5208 104.716C33.3354 104.528 34.1277 104.343 34.8726 104.17C39.9184 103.002 44.4547 101.61 47.8604 100.255C47.8824 100.252 47.9044 100.248 47.9263 100.243C51.8976 99.3844 64.8008 96.0172 70.319 93.0958C72.7532 91.8071 71.4943 90.8356 71.4069 90.8251C68.6919 90.4995 63.6329 92.0166 59.392 93.4447Z" fill="#686868"/>
<ellipse cx="25.9799" cy="81.9502" rx="7.14114" ry="3.24597" transform="rotate(-22.3055 25.9799 81.9502)" fill="#FFD976"/>
<path d="M60.955 24.9821C61.1488 25.6725 61.8655 26.0752 62.556 25.8814C63.2464 25.6876 63.649 24.9709 63.4552 24.2805L60.955 24.9821ZM49.2212 55.1132V16.4319H46.6245V55.1132H49.2212ZM58.2083 15.1947L60.955 24.9821L63.4552 24.2805L60.7085 14.4931L58.2083 15.1947ZM53.7999 11.8532C55.8522 11.8532 57.6538 13.2188 58.2083 15.1947L60.7085 14.4931C59.8395 11.3965 57.0161 9.25642 53.7999 9.25642V11.8532ZM49.2212 16.4319C49.2212 13.9031 51.2712 11.8532 53.7999 11.8532V9.25642C49.837 9.25642 46.6245 12.469 46.6245 16.4319H49.2212Z" fill="#55493C"/>
<path d="M47.6219 15.9494C46.0305 11.5295 42.1551 3.49852 39.385 6.73357C36.6148 9.96862 43.722 14.2254 47.6219 15.9494Z" stroke="#55493C" stroke-width="2.59678" stroke-linejoin="round"/>
<path d="M46.7832 16.1697C48.5297 17.8922 51.8895 23.1687 51.3568 30.4942" stroke="#55493C" stroke-width="2.59678" stroke-linecap="round" stroke-linejoin="round"/>
<path d="M46.805 16.4942C48.658 15.0635 55.2576 15.4518 54.725 22.7773" stroke="#55493C" stroke-width="2.59678" stroke-linecap="round" stroke-linejoin="round"/>
<path d="M47.2963 16.3962C45.7929 20.8468 42.0776 28.953 39.2438 25.7736C36.4101 22.5941 43.4314 18.1972 47.2963 16.3962Z" stroke="#55493C" stroke-width="2.59678" stroke-linejoin="round"/>
<path d="M79.0314 24.2222C80.297 19.9818 77.8855 15.5184 73.6451 14.2528C69.4048 12.9872 64.9413 15.3988 63.6758 19.6391L56.2183 44.6257C54.8601 49.1765 57.9796 53.8394 62.7043 54.3206L67.9039 54.8502C72.7108 55.3399 76.7396 51.2615 76.1912 46.4609L75.3159 38.7996C75.1999 37.784 75.2908 36.7554 75.5832 35.7758L79.0314 24.2222Z" fill="#DF9948"/>
<path d="M66.6455 20.0453C67.0002 18.857 66.432 17.5735 65.2162 17.3295C62.8428 16.8533 60.055 17.035 58.3675 17.2254C57.4217 17.3321 56.6626 18.0146 56.3917 18.927L46.0777 53.6585C45.6814 54.9929 46.4409 56.3962 47.7748 56.7944L60.5103 60.5954C61.566 60.9105 62.7041 60.5041 63.3215 59.5917L70.6765 48.7223C71.1866 47.9686 70.8181 46.9364 69.946 46.6761C64.2417 44.9736 60.9975 38.9692 62.7 33.2649L66.6455 20.0453Z" fill="#EFAF4F"/>
<path d="M81.8025 26.9897C81.9662 26.4511 81.9231 25.8703 81.6342 25.3872C81.1752 24.6195 80.3557 23.4067 79.2398 22.3794C78.1474 21.3736 76.5714 22.0996 76.1467 23.5225L71.7718 38.181C70.6398 41.9738 72.8385 45.9785 76.6312 47.1105C77.7204 47.4355 78.227 48.7014 77.6475 49.6792C76.6371 51.3841 78.7968 53.1882 80.2946 51.8903L83.3083 49.2788C83.8115 48.8427 83.5715 48.0171 82.9129 47.9189C79.1475 47.3569 76.7604 43.5814 77.8673 39.9388L81.8025 26.9897Z" fill="#EFAF4F"/>
<path d="M58.874 37.3354C59.0164 36.8581 59.0164 36.3565 58.8761 35.8785C58.0572 33.0884 55.2401 23.0447 56.1689 19.9327C54.1008 26.862 51.7239 31.3954 49.7126 34.2985C47.2928 37.7914 44.3733 41.2277 42.871 45.2025L39.8153 53.2877C39.3294 54.5734 39.9619 56.0114 41.2379 56.5221L49.3117 59.7535C50.6891 60.3047 52.2426 59.5543 52.6669 58.1326L58.874 37.3354Z" fill="#EFAF4F"/>
<path d="M77.5548 27.6249C77.5548 27.6249 74.8724 26.7515 60.8841 30.5484C60.8841 30.5484 67.7105 33.2043 75.051 41.3875C75.051 41.3875 67.2546 41.9565 63.3204 44.4407M63.0488 23.2955C71.2686 27.2974 75.3901 34.8779 75.3901 34.8779C67.9685 34.4913 60.7763 39.7318 60.7763 39.7318C69.9154 40.795 77.3391 45.9917 77.3391 45.9917" stroke="#6A5742" stroke-width="2.59678" stroke-linecap="round" stroke-linejoin="round"/>
<path d="M94.7272 68.5109C97.2183 58.416 91.0543 48.2131 80.9595 45.722L80.4348 45.5925C70.3399 43.1014 60.137 49.2654 57.6459 59.3602L57.3206 60.6784L94.4019 69.8291L94.7272 68.5109Z" fill="#FABD63"/>
<path d="M54.3086 57.5358C55.958 50.7959 55.036 43.597 46.8583 38.2955" stroke="#E3A343" stroke-width="1.94758"/>
<path fill-rule="evenodd" clip-rule="evenodd" d="M95.4719 69.8804C95.5057 69.8262 95.5313 69.7694 95.5484 69.7096C96.0985 67.7932 87.7259 63.7084 76.8476 60.5861C70.4513 58.7503 64.613 57.6559 60.776 57.4554C58.1731 57.3194 55.3628 57.2312 52.938 56.2754C47.2583 54.0367 40.0908 51.6531 38.4965 53.1506L36.8147 58.5007C36.5633 59.4515 37.7603 60.29 38.7381 60.3958C43.7671 60.9403 53.395 64.6713 56.9603 66.1064C57.5281 66.3349 58.1497 66.1367 58.4936 65.68L93.78 75.7871L95.4719 69.8804Z" fill="#7D7D7D"/>
<path fill-rule="evenodd" clip-rule="evenodd" d="M50.8248 62.1674C53.5348 63.2005 56.5437 63.47 59.4202 63.8403C63.259 64.3346 68.9211 65.591 75.0875 67.3998C85.8918 70.5689 94.1531 74.2333 93.5396 75.5845C92.9262 76.9357 83.6702 75.462 72.8659 72.2929C67.9558 70.8527 63.5709 69.3102 60.3056 67.9289C60.284 67.9238 60.2626 67.9182 60.2411 67.9121C56.3715 66.8226 38.4773 61.5175 37.4052 59.9733C36.3616 58.8806 37.6469 58.3281 37.7346 58.3308C40.7743 58.4259 46.5152 60.5246 50.8248 62.1674Z" fill="#686868"/>
<ellipse rx="6.83282" ry="3.30566" transform="matrix(-0.963508 0.267678 0.267678 0.963508 73.6822 50.717)" fill="#FFD976"/>
</svg>
