<?xml version="1.0"?>
<svg xmlns="http://www.w3.org/2000/svg" viewBox="0 0 112 112" fill="none">
<path d="M33.4155 68.7657C33.5366 66.9936 32.1982 65.4588 30.4261 65.3377L24.2049 64.9125C22.4328 64.7914 20.8981 66.1298 20.7769 67.9019L19.1621 91.5299C18.8852 95.5805 21.9444 99.0885 25.9949 99.3653L28.0907 99.5085C29.8628 99.6297 31.3975 98.2913 31.5186 96.5192L33.4155 68.7657Z" fill="#E2BB47"/>
<rect x="19.6006" y="78.2361" width="13.1372" height="4.69186" rx="0.459451" transform="rotate(3.90983 19.6006 78.2361)" fill="#29252E"/>
<path d="M32.4804 68.7018C32.6015 66.9297 31.2631 65.395 29.491 65.2739L23.2699 64.8487C21.4978 64.7276 19.963 66.066 19.8419 67.8381L18.2696 90.8426C17.9693 95.2375 21.2885 99.0437 25.6833 99.3441L27.1556 99.4447C28.9277 99.5658 30.4625 98.2274 30.5836 96.4553L32.4804 68.7018Z" fill="#E2BB47"/>
<rect x="18.665" y="78.173" width="13.1372" height="4.69186" rx="0.459451" transform="rotate(3.90983 18.665 78.173)" fill="#29252E"/>
<path d="M77.0149 22.5941C78.9973 22.2593 83.7683 22.8676 86.9931 27.9789C91.024 34.368 87.4552 96.907 76.2849 95.203" stroke="#976823" stroke-width="6.5686"/>
<path d="M81.2381 22.7209C83.2204 22.3861 87.9914 22.9944 91.2162 28.1057C95.2472 34.4948 91.6784 97.0338 80.5081 95.3298" stroke="#C5A23A" stroke-width="2.34593"/>
<path d="M26.0171 18.7642C26.3458 13.9542 30.5116 10.3214 35.3216 10.6502L80.4431 13.734C85.872 14.1051 89.9722 18.8069 89.6012 24.2358L84.5338 98.3791C84.2051 103.189 80.0393 106.822 75.2293 106.493L28.9871 103.333C24.1771 103.004 20.5444 98.8382 20.8731 94.0282L26.0171 18.7642Z" fill="#FFDA58"/>
<path d="M20.9502 92.906L84.6109 97.2569L84.5343 98.3776C84.2056 103.188 80.0398 106.82 75.2298 106.492L28.9876 103.331C24.1776 103.002 20.5449 98.8367 20.8736 94.0267L20.9502 92.906Z" fill="#29252E"/>
<rect x="75.1846" y="16.7062" width="14.7024" height="89.593" rx="7.35122" transform="rotate(3.90983 75.1846 16.7062)" fill="#F0C74C"/>
<rect x="77.2471" y="39.8521" width="9.38371" height="4.69186" rx="1.40756" transform="rotate(3.90983 77.2471 39.8521)" fill="#29252E"/>
<path d="M66.1825 15.946C66.6793 15.9706 67.1657 15.7973 67.535 15.4639C67.9042 15.1306 68.1262 14.6644 68.1522 14.1676L68.1831 13.543C68.2936 11.2784 67.5014 9.06241 65.9803 7.38114C64.4591 5.69986 62.3332 4.69057 60.0689 4.57467L54.1705 4.2793C52.2017 4.18286 50.2751 4.8715 48.8135 6.19408C47.352 7.51666 46.4749 9.36511 46.3748 11.3337C46.3845 11.8089 46.5741 12.2628 46.9053 12.6037C47.2365 12.9446 47.6847 13.1472 48.1594 13.1706C48.6342 13.194 49.1001 13.0364 49.4633 12.7298C49.8264 12.4231 50.0598 11.9901 50.1162 11.5182C50.166 10.5437 50.6004 9.62871 51.324 8.97406C52.0476 8.31942 53.0014 7.97853 53.976 8.02619L59.8819 8.32086C61.152 8.38616 62.3443 8.95243 63.1976 9.8955C64.0508 10.8386 64.4953 12.0815 64.4335 13.3518L64.4011 13.9765C64.3765 14.4738 64.5503 14.9605 64.8843 15.3298C65.2183 15.6991 65.6852 15.9207 66.1825 15.946Z" fill="#F0C74C"/>
<path d="M30.9162 44.5347C30.9854 43.5221 31.8624 42.7573 32.875 42.8265L36.5421 43.0771C37.5547 43.1463 38.3195 44.0233 38.2503 45.036L34.7085 96.8579C34.4829 100.159 36.599 103.167 39.7818 104.069L32.5011 103.572C32.4656 103.569 32.4305 103.563 32.3962 103.554C29.2434 102.659 27.1473 99.6796 27.3707 96.4101L30.9162 44.5347Z" fill="#7B2659"/>
<path d="M61.2658 46.6094C61.335 45.5968 62.212 44.832 63.2246 44.9012L66.8917 45.1518C67.9043 45.221 68.6691 46.098 68.5999 47.1107L65.0581 98.9326C64.8325 102.233 66.9486 105.241 70.1315 106.144L62.8507 105.646C62.8152 105.644 62.7801 105.638 62.7458 105.628C59.593 104.734 57.4969 101.754 57.7204 98.4848L61.2658 46.6094Z" fill="#7B2659"/>
<path d="M23.6001 19.7247C23.9712 14.2958 28.673 10.1956 34.1019 10.5666L81.3794 13.7978C86.2913 14.1335 90.001 18.3875 89.6653 23.2994L89.3014 28.624L89.5024 25.6832C89.7623 21.8808 86.8905 18.5876 83.0881 18.3278C79.2857 18.0679 75.9925 20.9397 75.7327 24.7421L74.6799 40.1459C74.2558 46.3504 68.8823 51.0364 62.6778 50.6123L32.9149 48.5782C26.7104 48.1541 22.0244 42.7806 22.4484 36.5761L23.6001 19.7247Z" fill="#0A9C79"/>
<rect x="29.061" y="37.9634" width="7.35122" height="53.7558" rx="1.83781" transform="rotate(3.90983 29.061 37.9634)" fill="#A53A7A"/>
<path d="M27.4438 48.1498L34.7779 48.651C35.7906 48.7203 36.5554 49.5973 36.4861 50.6099L36.4191 51.5905C36.3499 52.6032 35.4729 53.3679 34.4603 53.2987L28.9597 52.9228C27.9471 52.8536 27.1823 51.9766 27.2515 50.964L27.4438 48.1498ZM27.4438 48.1498L27.7057 44.3174C27.775 43.3048 28.652 42.54 29.6646 42.6092L35.1652 42.9851C36.1778 43.0543 36.9426 43.9314 36.8734 44.944L36.7984 46.0411" stroke="#E169B1" stroke-width="1.83781" stroke-linecap="round" stroke-linejoin="round"/>
<rect x="30.2207" y="21.0026" width="7.35122" height="24.3509" rx="1.83781" transform="rotate(3.90983 30.2207 21.0026)" fill="#C74F97"/>
<path d="M45.8057 11.3669L38.4314 10.8629C34.0956 10.9663 30.5524 14.3555 30.2567 18.6824L28.5526 43.6167C28.4834 44.6293 29.2482 45.5063 30.2608 45.5755L33.968 45.8289C34.9806 45.8981 35.8576 45.1333 35.9269 44.1207L37.631 19.1864C37.9267 14.8595 41.4699 11.4703 45.8057 11.3669Z" fill="#C74F97"/>
<rect width="10.1079" height="3.67561" rx="1.37835" transform="matrix(-0.997673 -0.0681864 -0.0681864 0.997673 35.2339 75.6877)" fill="#C74F97"/>
<path d="M26.7524 85.2389L32.253 85.6148" stroke="#EEA6D1" stroke-width="0.918903" stroke-linecap="round" stroke-dasharray="1.84 1.84"/>
<path d="M29.9795 38.0269L35.4801 38.4028" stroke="#EEA6D1" stroke-width="0.918903" stroke-linecap="round" stroke-dasharray="1.84 1.84"/>
<rect x="59.3159" y="40.0311" width="7.35122" height="53.7558" rx="1.83781" transform="rotate(3.90983 59.3159 40.0311)" fill="#A53A7A"/>
<path d="M66.8681 50.8439L59.534 50.3426C58.5214 50.2734 57.6444 51.0382 57.5752 52.0508L57.5082 53.0315C57.4389 54.0441 58.2037 54.9211 59.2164 54.9903L64.717 55.3663C65.7296 55.4355 66.6066 54.6707 66.6758 53.658L66.8681 50.8439ZM66.8681 50.8439L67.1301 47.0115C67.1993 45.9989 66.4345 45.1219 65.4218 45.0527L59.9213 44.6767C58.9086 44.6075 58.0316 45.3723 57.9624 46.3849L57.8874 47.4821" stroke="#E169B1" stroke-width="1.83781" stroke-linecap="round" stroke-linejoin="round"/>
<path d="M76.2314 13.4452L68.8572 12.9412C64.5214 13.0445 60.9782 16.4338 60.6825 20.7606L58.9784 45.6949C58.9092 46.7076 59.6739 47.5846 60.6866 47.6538L64.3938 47.9072C65.4064 47.9764 66.2834 47.2116 66.3526 46.1989L68.0568 21.2646C68.3525 16.9378 71.8957 13.5485 76.2314 13.4452Z" fill="#C74F97"/>
<rect width="10.1079" height="3.67561" rx="1.37835" transform="matrix(-0.997673 -0.0681864 -0.0681864 0.997673 65.4907 77.7555)" fill="#C74F97"/>
<path d="M57.0093 87.3066L62.5099 87.6826" stroke="#EEA6D1" stroke-width="0.918903" stroke-linecap="round" stroke-dasharray="1.84 1.84"/>
<path d="M60.2363 40.0924L65.7369 40.4683" stroke="#EEA6D1" stroke-width="0.918903" stroke-linecap="round" stroke-dasharray="1.84 1.84"/>
<path d="M45.8027 11.3658L38.5078 10.8673C35.8197 10.9194 33.4415 12.2088 31.9721 14.1828L38.1399 16.2503C40.2917 12.8703 43.1146 11.4179 45.8027 11.3658Z" fill="#A53A7A"/>
<path d="M76.23 13.4437L68.935 12.9451C66.2469 12.9973 63.8687 14.2867 62.3993 16.2607L68.5906 18.565C70.2508 14.9162 73.5418 13.4958 76.23 13.4437Z" fill="#A53A7A"/>
<path d="M34.8883 12.973C33.7942 12.8981 32.6858 13.2003 32.0102 14.0642C31.6317 14.5483 31.2263 15.1783 30.8985 15.9546C30.2937 17.3869 31.5123 18.7689 33.0634 18.8749L35.0291 19.0093C36.465 19.1074 37.6826 17.9377 38.2235 16.6039C39.1736 14.2612 39.0043 13.2544 36.4822 13.0819C35.9208 13.0436 35.3718 13.006 34.8883 12.973Z" fill="#E169B1"/>
<path d="M65.3156 15.0508C64.2214 14.976 63.113 15.2782 62.4374 16.1421C62.0589 16.6262 61.6536 17.2561 61.3257 18.0325C60.721 19.4648 61.9395 20.8468 63.4906 20.9528L65.4563 21.0872C66.8923 21.1853 68.1098 20.0155 68.6508 18.6817C69.6008 16.3391 69.4316 15.3322 66.9095 15.1598C66.348 15.1214 65.7991 15.0839 65.3156 15.0508Z" fill="#E169B1"/>
<rect x="76.5474" y="50.8798" width="16.0808" height="23.8915" rx="3.67561" transform="rotate(3.90983 76.5474 50.8798)" fill="#9EC6EB"/>
<path d="M77.6891 54.4098C77.767 53.2706 78.7536 52.4102 79.8928 52.488C81.032 52.5659 81.8924 53.5525 81.8145 54.6917L81.5796 58.1296C81.5277 58.8891 80.8699 59.4627 80.1104 59.4107L78.7353 59.3168C77.9758 59.2649 77.4022 58.6071 77.4541 57.8476L77.6891 54.4098Z" fill="#D9EAFF"/>
<rect x="75.0024" y="59.9857" width="17.9186" height="2.75671" rx="0.918903" transform="rotate(3.90983 75.0024 59.9857)" fill="#80A5C8"/>
<path d="M86.8573 64.7207C86.7795 64.3653 87.0646 64.0347 87.4276 64.0595L90.3678 64.2605C90.64 64.2791 90.8672 64.475 90.9256 64.7415L91.039 65.2596C91.3058 66.4783 91.3981 67.7288 91.313 68.9735L90.5563 80.0463C90.4784 81.1855 89.4918 82.0459 88.3526 81.968C87.2134 81.8901 86.353 80.9035 86.4308 79.7643L87.1876 68.6915C87.2727 67.4468 87.1804 66.1964 86.9136 64.9777L86.8573 64.7207Z" fill="#FC6969"/>
<rect x="85.8486" y="63.0277" width="5.97287" height="1.83781" rx="0.918903" transform="rotate(3.90983 85.8486 63.0277)" fill="#D7ECFF"/>
<path d="M74.3122 70.0684C74.3814 69.0558 75.2584 68.291 76.271 68.3602L90.4809 69.3314C91.4935 69.4006 92.2583 70.2776 92.1891 71.2902L90.6046 94.4735C90.2512 99.6439 85.7733 103.549 80.6029 103.195L77.1301 102.958C74.3453 102.768 72.2422 100.356 72.4325 97.5713L74.3122 70.0684Z" fill="#FFDA58"/>
<rect x="73.042" y="81.9561" width="18.8375" height="4.59451" rx="0.459451" transform="rotate(3.90983 73.042 81.9561)" fill="#29252E"/>
<path d="M48.383 56.2193C36.8754 55.4342 40.6466 59.0938 51.6677 69.284C52.927 70.4484 52.556 72.5347 51.0089 73.275C44.7953 76.2486 39.9442 79.9228 39.7277 83.087C39.4733 86.8041 50.5028 87.1186 51.6641 83.9028C52.5455 81.4621 46.9855 76.1347 42.3536 72.9385C40.7919 71.8609 40.6479 69.2787 42.2319 68.2343C54.31 60.2708 57.9784 56.8739 48.383 56.2193Z" stroke="#443F4B" stroke-width="1.87674"/>
<rect x="51.5938" y="57.3779" width="3.75348" height="2.81511" rx="0.938371" transform="rotate(3.90983 51.5938 57.3779)" fill="#CFAF3B"/>
<rect x="50.7632" y="69.5492" width="3.75348" height="2.81511" rx="0.938371" transform="rotate(3.90983 50.7632 69.5492)" fill="#CFAF3B"/>
<rect x="49.9307" y="81.7206" width="3.75348" height="2.81511" rx="0.938371" transform="rotate(3.90983 49.9307 81.7206)" fill="#CFAF3B"/>
<rect x="39.8921" y="56.5787" width="3.75348" height="2.81511" rx="0.938371" transform="rotate(3.90983 39.8921 56.5787)" fill="#CFAF3B"/>
<rect x="39.0581" y="68.7484" width="3.75348" height="2.81511" rx="0.938371" transform="rotate(3.90983 39.0581 68.7484)" fill="#CFAF3B"/>
<rect x="38.2275" y="80.9197" width="3.75348" height="2.81511" rx="0.938371" transform="rotate(3.90983 38.2275 80.9197)" fill="#CFAF3B"/>
</svg>
