<?xml version="1.0"?>
<svg xmlns="http://www.w3.org/2000/svg" viewBox="0 0 112 112" fill="none">
<path d="M100.336 51.7206C102.091 51.467 103.501 50.3074 104.38 48.7232C105.26 47.1396 105.633 45.1013 105.326 42.9796C105.019 40.858 104.085 39.0086 102.793 37.7386C101.501 36.4683 99.8209 35.7551 98.0659 36.0087C96.3109 36.2623 94.9014 37.4219 94.0217 39.0061C93.1422 40.5898 92.7695 42.6281 93.0761 44.7497C93.3827 46.8714 94.3171 48.7208 95.6089 49.9907C96.9011 51.261 98.5813 51.9742 100.336 51.7206Z" fill="#252F55" stroke="#32427B" stroke-width="1.24749"/>
<path d="M102.006 51.0824C103.761 50.8289 105.17 49.6692 106.05 48.085C106.929 46.5014 107.302 44.4631 106.995 42.3414C106.689 40.2198 105.754 38.3704 104.463 37.1005C103.17 35.8301 101.49 35.1169 99.7353 35.3705C97.9804 35.6241 96.5708 36.7837 95.6911 38.3679C94.8117 39.9516 94.4389 41.9899 94.7455 44.1115C95.0521 46.2332 95.9866 48.0826 97.2783 49.3525C98.5705 50.6229 100.251 51.336 102.006 51.0824Z" fill="#32427B" stroke="#32427B" stroke-width="1.24749"/>
<path d="M85.5083 40.8172L97.8195 36.6894L100.875 50.9333L89.6747 54.6882L85.5083 40.8172Z" fill="#252F55"/>
<ellipse cx="99.2011" cy="43.8647" rx="5.56485" ry="7.31381" transform="rotate(-8.22214 99.2011 43.8647)" fill="#252F55"/>
<path d="M77.5091 46.079C79.264 45.8254 80.6736 44.6658 81.5533 43.0816C82.4328 41.498 82.8055 39.4597 82.4989 37.338C82.1923 35.2164 81.2579 33.367 79.9661 32.097C78.6739 30.8267 76.9937 30.1135 75.2388 30.3671C73.4838 30.6207 72.0742 31.7803 71.1945 33.3645C70.3151 34.9481 69.9424 36.9865 70.2489 39.1081C70.5555 41.2297 71.49 43.0792 72.7817 44.3491C74.0739 45.6194 75.7541 46.3326 77.5091 46.079Z" fill="#252F55" stroke="#32427B" stroke-width="1.24749"/>
<path d="M79.179 45.4408C80.934 45.1873 82.3435 44.0276 83.2233 42.4434C84.1027 40.8598 84.4754 38.8215 84.1688 36.6998C83.8623 34.5782 82.9278 32.7288 81.636 31.4589C80.3438 30.1885 78.6636 29.4753 76.9087 29.7289C75.1537 29.9825 73.7442 31.1421 72.8644 32.7263C71.985 34.31 71.6123 36.3483 71.9189 38.4699C72.2254 40.5916 73.1599 42.441 74.4517 43.7109C75.7439 44.9813 77.424 45.6944 79.179 45.4408Z" fill="#32427B" stroke="#32427B" stroke-width="1.24749"/>
<path d="M62.6812 35.1755L74.9924 31.0477L78.0481 45.2915L66.8475 49.0464L62.6812 35.1755Z" fill="#252F55"/>
<ellipse cx="76.3739" cy="38.2231" rx="5.56485" ry="7.31381" transform="rotate(-8.22214 76.3739 38.2231)" fill="#252F55"/>
<path d="M69.8931 43.9231L85.4536 39.2021L90.5805 63.1002L76.8832 67.1956L69.8931 43.9231Z" fill="#2E346C"/>
<ellipse cx="87.7724" cy="51.2454" rx="9.33661" ry="12.271" transform="rotate(-8.22214 87.7724 51.2454)" fill="#2E346C"/>
<path d="M45.9468 38.5668L61.5074 33.8458L66.6342 57.7439L52.937 61.8392L45.9468 38.5668Z" fill="#2E346C"/>
<ellipse cx="63.8261" cy="45.8891" rx="9.33661" ry="12.271" transform="rotate(-8.22214 63.8261 45.8891)" fill="#2E346C"/>
<path fill-rule="evenodd" clip-rule="evenodd" d="M47.8951 36.7824C46.3826 36.4371 44.8104 36.4493 43.3034 36.8178L35.3351 38.7666L32.8918 39.3131C28.7591 40.2374 25.6597 43.6693 25.16 47.8746L24.3022 55.0917C24.0577 57.149 24.4595 59.2315 25.452 61.0501L27.4583 64.7267C28.7139 67.0276 30.8243 68.7421 33.3335 69.4999L69.4465 80.4058C69.8629 80.5316 70.2841 80.6291 70.7074 80.699C72.4318 81.5197 74.3569 81.8291 76.2542 81.588L82.7104 80.7677C83.9555 80.6095 85.1596 80.2179 86.2595 79.6133L90.7379 77.1519C93.5606 75.6005 95.4609 72.7822 95.8411 69.5838L96.8862 60.79C97.2533 57.7015 96.1594 54.6184 93.9279 52.4519L88.9821 47.65C87.6702 46.3763 86.0336 45.4875 84.251 45.0807L47.8951 36.7824Z" fill="#334483"/>
<path d="M37.335 44.0735L37.422 43.3421C37.5035 42.6562 37.9957 42.0898 38.6724 41.9516C43.403 40.9851 53.1873 40.087 62.1496 42.8368C70.7964 45.4898 71.3343 48.4219 70.3083 49.9022C70.0642 50.2544 69.8285 50.6285 69.778 51.054L69.6779 51.8957" stroke="#2E346C" stroke-width="1.24749"/>
<path d="M96.0645 65.5955C96.3689 65.4342 96.4849 65.0567 96.3236 64.7523C96.1623 64.4479 95.7848 64.3319 95.4804 64.4932L96.0645 65.5955ZM78.6896 70.1298L85.5418 70.2575L85.565 69.0102L78.7128 68.8825L78.6896 70.1298ZM88.6795 69.5085L96.0645 65.5955L95.4804 64.4932L88.0955 68.4062L88.6795 69.5085ZM85.5418 70.2575C86.6343 70.2778 87.714 70.0201 88.6795 69.5085L88.0955 68.4062C87.3168 68.8188 86.4461 69.0266 85.565 69.0102L85.5418 70.2575Z" fill="#2E346C"/>
<path d="M16.0252 46.2772L29.3494 41.7217L36.0668 73.0339L25.1839 76.7696L16.0252 46.2772Z" fill="#252F55"/>
<ellipse cx="32.3901" cy="57.4954" rx="12.2332" ry="16.0779" transform="rotate(-8.22214 32.3901 57.4954)" fill="#252F55"/>
<ellipse cx="21.8805" cy="59.9346" rx="12.5503" ry="16.7692" transform="rotate(-8.22214 21.8805 59.9346)" stroke="#607BC2" stroke-width="2.49499"/>
<ellipse cx="19.9325" cy="60.7089" rx="12.7592" ry="16.7692" transform="rotate(-8.22214 19.9325 60.7089)" fill="#32427B"/>
<ellipse cx="21.8695" cy="60.4278" rx="10.8022" ry="14.1972" transform="rotate(-8.22214 21.8695 60.4278)" fill="#252F55"/>
<ellipse cx="23.7521" cy="60.9415" rx="9.15645" ry="12.0342" transform="rotate(-8.22214 23.7521 60.9415)" fill="#56348D"/>
<ellipse opacity="0.4" cx="23.3184" cy="63.0826" rx="7.71693" ry="5.44165" transform="rotate(-113.222 23.3184 63.0826)" fill="#5C61D6"/>
<ellipse opacity="0.6" cx="21.6501" cy="56.296" rx="5.30133" ry="3.99915" transform="rotate(-53.2221 21.6501 56.296)" fill="#BBDEFF"/>
<ellipse cx="19.9325" cy="60.7089" rx="12.7592" ry="16.7692" transform="rotate(-8.22214 19.9325 60.7089)" stroke="#607BC2" stroke-width="2.49499"/>
<path d="M45.4591 56.7642C43.6221 53.9979 42.9212 50.0344 42.9805 47.4082C43.006 46.2797 44.1136 45.6636 45.1947 45.988L57.6999 49.7408C58.6894 50.0378 59.3347 51.0306 58.9676 51.9963C56.7281 57.8883 48.2182 60.9191 45.4591 56.7642Z" fill="#3A509E"/>
<path d="M48.9576 55.2093L62.8548 50.4579L69.861 83.1164L58.5102 87.0128L48.9576 55.2093Z" fill="#252F55"/>
<ellipse cx="66.0223" cy="66.9134" rx="12.7592" ry="16.7692" transform="rotate(-8.22214 66.0223 66.9134)" fill="#252F55"/>
<ellipse cx="55.38" cy="70.2003" rx="12.5503" ry="16.7692" transform="rotate(-8.22214 55.38 70.2003)" stroke="#607BC2" stroke-width="2.49499"/>
<ellipse cx="53.432" cy="70.9726" rx="12.7592" ry="16.7692" transform="rotate(-8.22214 53.432 70.9726)" fill="#32427B"/>
<ellipse cx="55.369" cy="70.6916" rx="10.8022" ry="14.1972" transform="rotate(-8.22214 55.369 70.6916)" fill="#252F55"/>
<ellipse cx="57.2516" cy="71.2051" rx="9.15645" ry="12.0342" transform="rotate(-8.22214 57.2516 71.2051)" fill="#56348D"/>
<ellipse opacity="0.4" cx="56.9883" cy="72.9791" rx="7.71693" ry="5.44165" transform="rotate(-113.222 56.9883 72.9791)" fill="#5C61D6"/>
<ellipse opacity="0.6" cx="54.7927" cy="66.1319" rx="5.30133" ry="3.99915" transform="rotate(-53.2221 54.7927 66.1319)" fill="#BBDEFF"/>
<ellipse cx="53.432" cy="70.9726" rx="12.7592" ry="16.7692" transform="rotate(-8.22214 53.432 70.9726)" stroke="#607BC2" stroke-width="2.49499"/>
<path d="M57.2848 49.5895L44.7389 45.8812C44.2559 45.7384 43.9712 46.2379 44.3658 46.5509C45.6385 47.5605 47.6275 48.9015 49.6691 49.5173C51.9739 50.2126 54.9988 50.3968 57.1894 50.3908C57.7326 50.3893 57.8058 49.7435 57.2848 49.5895Z" fill="#5471BD"/>
<path d="M62.7849 43.1198L67.8771 40.7938" stroke="#2E346C" stroke-width="1.24749"/>
</svg>
