<?xml version="1.0"?>
<svg xmlns="http://www.w3.org/2000/svg" viewBox="0 0 112 112" fill="none">
<path d="M69.3003 22.9985L52.6943 20.6638C51.2745 20.4642 50.2854 19.1514 50.485 17.7316C51.329 11.7286 56.8839 7.547 62.8869 8.391C68.8899 9.23501 73.0765 14.7862 72.2325 20.7892C72.0329 22.209 70.7201 23.1982 69.3003 22.9985Z" stroke="#443F65" stroke-width="4.61003"/>
<rect x="55.8691" y="16.1642" width="11.7406" height="15.6542" rx="5.87032" transform="rotate(8.00317 55.8691 16.1642)" fill="#8F97DE"/>
<path d="M91.4795 71.7177C88.6564 91.7972 70.0909 105.786 50.0114 102.963C29.932 100.139 15.9435 81.5739 18.7666 61.4945C18.793 61.3066 19.5408 55.9879 19.5146 56.1741C19.4884 56.3603 40.3383 27.4506 60.2299 30.2473C80.015 33.029 92.2736 65.9494 92.2736 65.9494C92.2448 66.2506 91.5213 71.4201 91.4795 71.7177Z" fill="#A9ABD1"/>
<path d="M50.7299 98.4911C70.809 101.314 89.3749 87.3253 92.198 67.2462C95.0211 47.1671 81.0323 28.6012 60.9531 25.7781C40.874 22.9551 22.3081 36.9438 19.4851 57.023C16.662 77.1021 30.6508 95.668 50.7299 98.4911Z" fill="#BAE3FF"/>
<path d="M51.7538 91.2135C67.8138 93.4715 82.6635 82.2828 84.9215 66.2228C87.1795 50.1628 75.9907 35.3131 59.9308 33.0551C43.8708 30.7971 29.0211 41.9859 26.7631 58.0459C24.5051 74.1059 35.6939 88.9555 51.7538 91.2135Z" fill="#F7C450"/>
<rect x="26.2359" y="23.5789" width="68.4726" height="68.4726" rx="34.2363" transform="rotate(7.75876 26.2359 23.5789)" fill="#3F3E69" stroke="#EBEDFF" stroke-width="5.26713"/>
<path d="M51.9412 57.3445C52.1106 57.3306 52.2591 57.2257 52.3287 57.0706L58.3735 43.6001C58.5709 43.1602 59.2245 43.2725 59.2638 43.753L60.4668 58.4686C60.4807 58.638 60.5856 58.7865 60.7407 58.8561L74.2112 64.9009C74.6511 65.0983 74.5389 65.752 74.0583 65.7912L59.3427 66.9942C59.1733 67.0081 59.0248 67.113 58.9552 67.2681L52.9104 80.7386C52.713 81.1785 52.0594 81.0663 52.0201 80.5857L50.8171 65.8701C50.8032 65.7007 50.6983 65.5523 50.5432 65.4827L37.0727 59.4378C36.6328 59.2404 36.7451 58.5868 37.2256 58.5475L51.9412 57.3445Z" fill="#62609B"/>
<path d="M50.0679 60.9944C50.1391 60.8861 50.162 60.753 50.131 60.6271L47.8308 51.2666C47.7296 50.855 48.1855 50.5328 48.5397 50.7655L56.596 56.0576C56.7043 56.1288 56.8374 56.1517 56.9633 56.1207L66.3238 53.8205C66.7353 53.7193 67.0576 54.1752 66.8249 54.5294L61.5327 62.5857C61.4616 62.694 61.4387 62.8271 61.4696 62.953L63.7699 72.3135C63.871 72.7251 63.4152 73.0473 63.061 72.8146L55.0047 67.5225C54.8963 67.4513 54.7633 67.4284 54.6374 67.4593L45.2769 69.7596C44.8653 69.8608 44.5431 69.4049 44.7758 69.0507L50.0679 60.9944Z" fill="#62609B"/>
<path d="M73.7631 48.035C74.6813 47.6543 75.4787 48.7824 74.8134 49.5209L59.6001 66.4087C59.2257 66.8242 58.7627 67.1503 58.2453 67.3628L37.5383 75.8662C36.6221 76.2424 35.8284 75.1196 36.4889 74.3814L51.415 57.6992C51.788 57.2824 52.2499 56.9547 52.7665 56.7405L73.7631 48.035Z" fill="#FF5B5B"/>
<path d="M73.79 48.0255C74.7073 47.6467 75.503 48.7725 74.8398 49.5109L59.4492 66.6463C59.2491 66.869 58.8941 66.8482 58.7214 66.6038L52.2979 57.5158C52.1252 57.2714 52.2241 56.9298 52.5008 56.8156L73.79 48.0255Z" fill="white"/>
<circle cx="55.6444" cy="62.1687" r="4.19741" transform="rotate(9.7472 55.6444 62.1687)" fill="#3F3E69"/>
<circle cx="60.3068" cy="35.0543" r="2.33189" transform="rotate(9.7472 60.3068 35.0543)" fill="#D4D2FF"/>
<circle cx="83.3028" cy="66.4534" r="2.33189" transform="rotate(9.7472 83.3028 66.4534)" fill="#D4D2FF"/>
<circle cx="50.9088" cy="89.752" r="2.33189" transform="rotate(9.7472 50.9088 89.752)" fill="#D4D2FF"/>
<circle cx="28.6027" cy="57.0572" r="2.33189" transform="rotate(9.7472 28.6027 57.0572)" fill="#D4D2FF"/>
<rect x="37.48" y="38.3699" width="1.86551" height="4.66378" rx="0.932757" transform="rotate(-35.2528 37.48 38.3699)" fill="#62609B"/>
<rect x="69.5103" y="83.6969" width="1.86551" height="4.66378" rx="0.932757" transform="rotate(-35.2528 69.5103 83.6969)" fill="#62609B"/>
<rect x="79.6323" y="44.2728" width="1.86551" height="4.66378" rx="0.932757" transform="rotate(54.7472 79.6323 44.2728)" fill="#62609B"/>
<rect x="34.3115" y="76.3062" width="1.86551" height="4.66378" rx="0.932757" transform="rotate(54.7472 34.3115 76.3062)" fill="#62609B"/>
<path opacity="0.3" fill-rule="evenodd" clip-rule="evenodd" d="M53.2346 42.6268C57.961 39.7216 57.0233 33.2033 51.5077 33.8017C44.8628 34.5226 39.0331 37.5662 34.7388 42.0369C29.411 47.5836 36.4762 52.9279 43.0283 48.9004L53.2346 42.6268Z" fill="#FDFCFF"/>
</svg>
