<?xml version="1.0"?>
<svg xmlns="http://www.w3.org/2000/svg" viewBox="0 0 112 112" fill="none">
<path d="M106.642 64.7786L102.637 86.3654C102.545 86.8638 102.068 87.2253 101.561 87.2253H49.2122C48.71 87.2253 48.2365 86.8702 48.1391 86.3775L44.058 65.734L38.5396 20.8306H76.1463C76.8441 20.8306 77.4965 21.1766 77.8878 21.7543L106.467 63.9408C106.633 64.1862 106.696 64.4872 106.642 64.7786Z" fill="#3D2F64"/>
<path d="M103.552 65.6603L99.7101 86.369C99.6177 86.8674 99.141 87.2289 98.6342 87.2289H46.2958C45.7889 87.2289 45.3124 86.8674 45.2199 86.369L41.378 65.6603C41.2494 64.9672 41.7814 64.3274 42.4864 64.3274H102.444C103.149 64.3274 103.681 64.9672 103.552 65.6603Z" fill="#3D2F64"/>
<path d="M21.7862 87.2296H53.7349L38.3114 40.9579L21.7862 87.2296Z" fill="#322751"/>
<path d="M69.0124 64.7871L65.008 86.3716C64.9155 86.87 64.4808 87.2315 63.9739 87.2315H50.5515C50.194 87.2315 49.8598 87.0494 49.6693 86.7469C41.8732 74.3673 39.6315 59.9883 38.4419 42.612C38.4244 42.3571 38.0462 42.3461 38.0144 42.5996C35.8865 59.5202 33.6383 73.4502 27.9469 86.6033C27.7815 86.9855 27.4035 87.2315 26.9871 87.2315H11.5415C11.0393 87.2315 10.6071 86.8764 10.5097 86.3837L6.52047 66.2049C6.46171 65.9077 6.52505 65.5994 6.69621 65.3494L36.5556 21.7401C37.3918 20.5189 39.1942 20.5202 40.0286 21.7426L68.8351 63.9459C69.0029 64.1919 69.0667 64.4943 69.0124 64.7871Z" fill="#4A407C"/>
<path d="M68.5874 65.2407L40.1433 23.2952C39.3139 22.072 37.5148 22.0631 36.6732 23.278L6.58711 66.7116" stroke="#635D92" stroke-width="1.89229" stroke-linecap="round"/>
<path d="M40.1001 21.5558L69.533 64.8636C69.8621 65.3478 69.1914 65.8806 68.7941 65.4504L39.9144 34.1761C39.0793 33.2718 37.6497 33.2746 36.8182 34.182L6.87482 66.8582C6.47819 67.291 5.80447 66.7572 6.13517 66.2721L36.6223 21.5533C37.4581 20.3274 39.2661 20.3288 40.1001 21.5558Z" fill="#635D92"/>
<path d="M83.131 39.0814C80.061 36.3305 78.1626 34.0428 76.377 30.199C76.1793 29.7735 75.7555 29.494 75.2864 29.494H58.5105C57.6472 29.494 57.0743 30.3897 57.4467 31.1685C59.2731 34.988 60.9086 37.7625 63.8935 40.8539C64.1127 41.081 64.416 41.2065 64.7316 41.2065H82.3428C83.4483 41.2065 83.9543 39.8192 83.131 39.0814Z" fill="#4A407C"/>
<path d="M76.6657 39.7537C76.4413 39.4731 76.1014 39.3097 75.742 39.3097H69.8188C69.5213 39.3097 69.3558 39.6539 69.5417 39.8863L71.465 42.2905C71.6895 42.5711 72.0294 42.7345 72.3888 42.7345H78.3119C78.6095 42.7345 78.7749 42.3903 78.5891 42.1579L76.6657 39.7537Z" fill="#635D92"/>
</svg>
