<?xml version="1.0"?>
<svg xmlns="http://www.w3.org/2000/svg" viewBox="0 0 112 112" fill="none">
<path fill-rule="evenodd" clip-rule="evenodd" d="M32.6461 24.361C37.0855 14.823 47.9443 10.0976 57.9496 13.3497L83.5976 21.6864C93.6029 24.9385 99.6081 35.1454 97.591 45.4707L94.8468 59.5189C94.1628 63.0202 94.3903 66.6384 95.5073 70.0264L100.05 83.8036C100.099 83.9534 100.136 84.1076 100.185 84.2575C100.413 84.9528 100.438 85.5989 100.247 86.187C98.3521 92.0174 75.8423 89.9265 49.9701 81.517C24.0979 73.1075 4.66064 61.5638 6.55574 55.7334C6.74813 55.1416 7.15297 54.6313 7.75221 54.201C7.87675 54.1116 7.99411 54.0118 8.11857 53.9222L19.8942 45.4482C22.7897 43.3644 25.1011 40.5714 26.6065 37.3371L32.6461 24.361Z" fill="#FFDD6B"/>
<path d="M50.2941 80.529C62.723 84.5689 74.2886 87.3458 82.95 88.5629C87.2722 89.1702 90.9221 89.3966 93.6123 89.1782C94.9526 89.0694 96.1189 88.8457 97.0282 88.4641C97.9292 88.0859 98.7349 87.4819 99.0453 86.5268C99.3558 85.5717 99.0592 84.6094 98.5527 83.7738C98.0416 82.9304 97.2297 82.0637 96.2095 81.1877C94.1619 79.4293 91.0764 77.4664 87.2232 75.4164C79.5015 71.3083 68.5134 66.7543 56.0845 62.7144C43.6556 58.6745 32.0899 55.8976 23.4286 54.6806C19.1064 54.0733 15.4564 53.8468 12.7663 54.0652C11.426 54.174 10.2597 54.3977 9.35039 54.7794C8.44941 55.1575 7.6437 55.7615 7.33324 56.7166C7.02279 57.6718 7.31939 58.6341 7.82584 59.4697C8.337 60.313 9.14888 61.1797 10.1691 62.0558C12.2167 63.8141 15.3022 65.777 19.1554 67.827C26.8771 71.9351 37.8651 76.4891 50.2941 80.529Z" fill="#9F6719" stroke="#E2B04B" stroke-width="2.08134"/>
<path d="M58.7581 14.1932C55.8645 15.3125 50.3497 21.385 46.1055 36.8041C41.8613 52.2231 38.4898 56.2017 37.3585 57.8796" stroke="#E2B04B" stroke-width="1.38756" stroke-linecap="round" stroke-dasharray="1.39 4.16"/>
<path fill-rule="evenodd" clip-rule="evenodd" d="M25.0233 40.1495C25.6208 39.2584 26.1506 38.3194 26.6065 37.3399L27.2208 36.0201C28.8789 36.0771 30.6563 36.2052 32.5464 36.4078C40.2543 37.234 50.0914 39.3281 61.8697 43.1565C73.648 46.9849 82.8364 51.0749 89.557 54.9386C91.6016 56.114 93.4385 57.2802 95.0611 58.4246L94.8468 59.5217C94.6116 60.7259 94.4842 61.944 94.4637 63.1617C92.6388 61.7364 90.3261 60.1823 87.4823 58.5474C81.0643 54.8577 72.1519 50.8757 60.583 47.1153C49.014 43.3549 39.4636 41.3358 32.1027 40.5468C29.4218 40.2594 27.0632 40.1389 25.0233 40.1495Z" fill="white"/>
<path fill-rule="evenodd" clip-rule="evenodd" d="M16.3786 47.9809L19.4766 45.7515C22.0423 45.7261 25.0024 45.8969 28.3346 46.2899C36.3426 47.2344 46.6243 49.4781 58.9952 53.4991C65.0288 55.4603 70.4106 57.4709 75.1564 59.4732C75.6859 59.6966 75.9341 60.307 75.7106 60.8366C75.4872 61.3661 74.8768 61.6143 74.3473 61.3908C69.6605 59.4134 64.3343 57.4231 58.3518 55.4785C46.0799 51.4896 35.9341 49.282 28.0908 48.357C23.2649 47.7878 19.3568 47.71 16.3786 47.9809ZM97.3958 75.7487L98.7671 79.908C96.6269 77.514 92.7776 74.5542 87.0351 71.3335C80.1468 67.4702 70.642 63.2905 58.3701 59.3017C57.8236 59.124 57.5245 58.5369 57.7021 57.9903C57.8798 57.4437 58.4669 57.1446 59.0135 57.3223C71.3844 61.3433 81.0203 65.5737 88.0533 69.5182C91.9251 71.6897 95.0416 73.793 97.3958 75.7487ZM61.0434 50.2633C60.4968 50.0856 59.9097 50.3847 59.732 50.9313C59.5543 51.4779 59.8534 52.065 60.4 52.2427C72.3789 56.1363 81.3971 60.3386 87.6497 64.209C88.1383 64.5115 88.7797 64.3606 89.0822 63.8719C89.3848 63.3832 89.2338 62.7418 88.7451 62.4393C82.3176 58.4605 73.1388 54.1948 61.0434 50.2633Z" fill="#E2B04B"/>
<ellipse cx="58.9448" cy="27.607" rx="2.08134" ry="2.77511" transform="rotate(18.0063 58.9448 27.607)" fill="#4B4F69" stroke="#B5B7CC" stroke-width="1.38756"/>
<ellipse cx="41.2573" cy="24.3838" rx="2.08134" ry="2.77511" transform="rotate(18.0063 41.2573 24.3838)" fill="#4B4F69" stroke="#B5B7CC" stroke-width="1.38756"/>
<path d="M78.1782 73.624C77.7133 70.8387 75.3602 68.7258 72.5377 68.8132C66.866 68.9887 61.4647 69.933 56.0419 71.6949C53.8971 72.3917 52.7415 74.665 53.2915 76.852L54.4246 81.3571C55.9432 87.3947 61.8422 91.2555 67.983 90.2307L73.2303 89.3549C77.2995 88.6758 80.0478 84.8265 79.3687 80.7572L78.1782 73.624Z" fill="#2A3962"/>
<path d="M20.7094 83.2131C20.2446 80.4278 21.7841 77.6653 24.482 76.8313C29.9033 75.1555 35.3186 74.2947 41.0196 74.2001C43.2744 74.1627 45.1056 75.9374 45.2956 78.1846L45.6869 82.8134C46.2113 89.017 41.8857 94.5841 35.7449 95.609L30.4976 96.4847C26.4284 97.1638 22.579 94.4156 21.8999 90.3463L20.7094 83.2131Z" fill="#2A3962"/>
<path fill-rule="evenodd" clip-rule="evenodd" d="M49.65 79.6539C48.9641 79.7684 48.4809 80.3902 48.5395 81.0831L48.6643 82.5596C49.3198 90.3141 43.9128 97.273 36.2368 98.5541L30.9895 99.4298C25.2926 100.381 19.9035 96.5331 18.9527 90.8361L18.4673 87.9272C18.2533 86.6453 16.8464 85.9497 15.6979 86.558C14.7177 87.0772 13.5029 86.652 13.0606 85.6347L12.6301 84.6448C12.0002 83.1964 12.6435 81.5102 14.0781 80.8495L16.6559 79.6622C17.6978 79.1823 18.4721 78.291 19.1064 77.3352C20.1286 75.7949 21.6568 74.5751 23.5996 73.9745C29.2926 72.2147 34.9883 71.3097 40.97 71.2104C41.9879 71.1935 42.9464 71.3871 43.8136 71.7473C44.9923 72.2368 46.2525 72.6477 47.5114 72.4376L49.335 72.1332C50.5928 71.9233 51.6506 71.1267 52.6059 70.2821C53.3087 69.6609 54.1515 69.1673 55.1185 68.8532C60.8083 67.0046 66.4893 66.011 72.4451 65.8266C74.4667 65.7641 76.2993 66.4141 77.7624 67.5279C78.6692 68.2182 79.6854 68.803 80.8193 68.9178L83.7853 69.2181C85.3566 69.3771 86.5126 70.763 86.3873 72.3374L86.3054 73.3658C86.2153 74.4973 85.1809 75.3125 84.0597 75.1357C82.746 74.9286 81.6155 76.0693 81.8344 77.3811L82.3158 80.2654C83.2666 85.9623 79.419 91.3514 73.722 92.3022L68.4748 93.1779C60.7988 94.459 53.425 89.633 51.5268 82.0859L51.1644 80.645C50.9948 79.9707 50.3359 79.5394 49.65 79.6539ZM24.4821 76.8292C21.7842 77.6632 20.2446 80.4257 20.7095 83.211L21.9 90.3442C22.5791 94.4135 26.4284 97.1617 30.4977 96.4826L35.745 95.6069C41.8858 94.582 46.2114 89.0149 45.6869 82.8113L45.2957 78.1825C45.1057 75.9353 43.2744 74.1605 41.0196 74.198C35.3186 74.2926 29.9034 75.1534 24.4821 76.8292ZM78.1781 73.624C77.7132 70.8387 75.3601 68.7258 72.5376 68.8132C66.8659 68.9887 61.4646 69.9331 56.0418 71.6949C53.897 72.3918 52.7414 74.665 53.2914 76.8521L54.4245 81.3571C55.9431 87.3948 61.8421 91.2555 67.9829 90.2307L73.2302 89.355C77.2994 88.6758 80.0477 84.8265 79.3686 80.7572L78.1781 73.624Z" fill="#D9E7EB"/>
<path d="M23.8648 83.961C23.4573 81.5194 25.1062 79.2098 27.5478 78.8024L32.2214 78.0224C34.8471 77.5842 36.6919 80.5393 35.1451 82.7058L30.0238 89.879C28.477 92.0455 25.0829 91.2603 24.6447 88.6346L23.8648 83.961Z" fill="#4978A8"/>
<path d="M57.0181 78.4263C56.6106 75.9848 58.2595 73.6752 60.7011 73.2677L65.3748 72.4877C68.0005 72.0495 69.8452 75.0046 68.2984 77.1711L63.1771 84.3443C61.6303 86.5108 58.2363 85.7257 57.7981 83.1L57.0181 78.4263Z" fill="#4978A8"/>
<path d="M82.3344 42.5151L84.2739 35.889C84.6578 34.5775 86.1799 33.9855 87.349 34.693L92.0357 37.5291C92.7793 37.9791 93.165 38.8439 93.003 39.6978L91.77 46.1943C91.5123 47.5522 90.0269 48.2864 88.7916 47.6665L83.3984 44.9601C82.4998 44.5091 82.052 43.4801 82.3344 42.5151Z" fill="#E2B04B" stroke="#BF9236" stroke-width="1.38756" stroke-linecap="round"/>
</svg>
