<?xml version="1.0"?>
<svg xmlns="http://www.w3.org/2000/svg" viewBox="0 0 112 112" fill="none">
<path d="M23.5905 45.6791L23.0357 46.6003C22.742 47.0935 22.6222 47.6729 22.6968 48.2394C22.7714 48.8059 23.0357 49.3246 23.4446 49.7067L60.3201 84.2785L41.5765 56.1662L23.5905 45.6791Z" fill="#FF7779"/>
<path d="M84.8431 34.514L85.6843 35.2057C86.1016 35.5624 86.3833 36.0586 86.4819 36.6103C86.5805 37.1621 86.4898 37.7355 86.2253 38.2337L61.8038 84.0721L71.0128 50.7839L84.8431 34.514Z" fill="#FF7779"/>
<path d="M47.718 32.1604C45.8474 35.2307 38.5364 34.1047 31.3738 29.6909C24.2111 25.2771 19.92 19.2066 21.8162 16.1004L23.9549 12.5966C26.8414 11.0684 32.1078 14.8236 38.1572 18.5764C44.2067 22.3292 49.7129 25.6289 49.7004 28.9109L47.718 32.1604Z" fill="#FAB428"/>
<path d="M49.6973 28.9242C51.5683 25.8604 47.2835 19.7849 40.127 15.3541C32.9705 10.9234 25.6523 9.81525 23.7813 12.879C21.9103 15.9428 26.195 22.0183 33.3515 26.4491C40.508 30.8798 47.8263 31.988 49.6973 28.9242Z" fill="#FFDF60"/>
<path d="M45.2145 23.9374C46.3796 22.0122 43.678 18.2156 39.1803 15.4576C34.6827 12.6995 30.0921 12.0244 28.927 13.9495C27.7619 15.8747 30.4634 19.6713 34.9611 22.4293C39.4587 25.1874 44.0493 25.8626 45.2145 23.9374Z" fill="#FFF18D"/>
<path d="M40.9538 56.2642L60.1835 84.0938C60.2967 84.227 60.4419 84.3275 60.605 84.3858C60.7682 84.444 60.944 84.458 61.1157 84.4265C61.2873 84.395 61.4491 84.3189 61.5855 84.2057C61.722 84.0924 61.8285 83.9456 61.895 83.7794L71.7825 50.5353L69.5756 45.843L41.4589 51.0317L40.9538 56.2642Z" fill="#FF8D9E"/>
<path d="M28.8856 36.5265L22.9717 46.666C22.8521 46.8727 22.7764 47.1024 22.7498 47.3397C22.7232 47.577 22.7462 47.8165 22.8174 48.042C22.8885 48.2674 23.0062 48.4738 23.1624 48.647C23.3185 48.8203 23.5097 48.9565 23.7229 49.0465L42.4246 56.8696L68.0682 39.8645L28.8856 36.5265Z" fill="#FF8D9E"/>
<path d="M77.1506 27.6122L85.5173 34.9653C85.7195 35.1447 85.8814 35.367 85.9922 35.6173C86.103 35.8677 86.1602 36.1405 86.16 36.4175C86.1597 36.6945 86.1021 36.9695 85.9909 37.224C85.8797 37.4786 85.7175 37.707 85.515 37.8941L70.432 51.7198L64.0475 40.3296L77.1506 27.6122Z" fill="#FF8D9E"/>
<path d="M41.1744 27.662L62.8249 23.6779C63.4767 23.5629 64.1425 23.5985 64.7735 23.782L76.881 27.3935C77.0308 27.4374 77.1663 27.5207 77.2741 27.6353C77.3819 27.7499 77.4584 27.8918 77.4961 28.0472C77.5337 28.2026 77.5312 28.3661 77.4888 28.5218C77.4464 28.6775 77.3656 28.8201 77.2543 28.9355L67.2074 39.3631C66.6865 39.8975 66.0191 40.2546 65.2984 40.3843L43.8796 44.3445C43.1487 44.48 42.3993 44.3718 41.7416 44.0358L29.2854 37.789C29.1454 37.7195 29.026 37.6136 28.939 37.4816C28.852 37.3496 28.8003 37.196 28.7889 37.0358C28.7776 36.8756 28.807 36.7143 28.8742 36.5677C28.9415 36.4211 29.0443 36.2942 29.1726 36.1995L39.3398 28.4871C39.882 28.0682 40.5107 27.7854 41.1744 27.662Z" fill="#FF7779"/>
<path d="M44.2141 44.2626L64.9509 40.4665C65.3773 40.3908 65.8135 40.4483 66.2027 40.6316C66.5918 40.815 66.9159 41.1156 67.1326 41.4942L71.1741 48.7426C71.3439 49.0465 71.439 49.3895 71.4511 49.7423C71.4632 50.0952 71.392 50.4475 71.2436 50.7692C71.0952 51.0909 70.8739 51.3725 70.5987 51.59C70.3235 51.8075 70.0024 51.9546 69.6629 52.0185L43.2319 56.8735C42.8917 56.9371 42.543 56.9151 42.2161 56.8094C41.8891 56.7036 41.5937 56.5173 41.3552 56.2664C41.1167 56.0156 40.9423 55.7077 40.8471 55.3694C40.7519 55.0311 40.7388 54.6725 40.8087 54.3246L42.4324 46.041C42.5179 45.5956 42.7351 45.1855 43.0541 44.8672C43.3731 44.5488 43.7783 44.3376 44.2141 44.2626Z" fill="#FF97B7"/>
<path d="M102.254 51.9217C104.576 55.8852 98.8842 63.4305 89.5819 68.8189C80.2797 74.2072 70.8513 75.3615 68.5037 71.3476L65.8555 66.8201C65.883 62.647 73.2964 58.9938 81.181 54.4581C89.0656 49.9223 96.1116 45.7235 99.7971 47.7241L102.254 51.9217Z" fill="#FAB428"/>
<path d="M99.8079 47.7364C97.4928 43.7765 88.0626 44.9206 78.745 50.2918C69.4274 55.663 63.7508 63.2273 66.0659 67.1872C68.381 71.1471 77.8112 70.003 87.1288 64.6318C96.4464 59.2606 102.123 51.6962 99.8079 47.7364Z" fill="#FFDF60"/>
<path d="M91.4853 49.7658C90.0241 47.2894 84.1167 48.0314 78.2907 51.4231C72.4648 54.8148 68.9264 59.5718 70.3875 62.0482C71.8487 64.5246 77.7561 63.7826 83.5821 60.3909C89.408 56.9992 92.9464 52.2422 91.4853 49.7658Z" fill="#FFF18D"/>
<path d="M57.2301 105.634C54.7792 110.278 44.0198 109.294 33.1808 103.504C22.3418 97.7135 15.5401 89.2497 18.025 84.5509L20.8278 79.2505C24.8983 76.763 32.9136 81.7638 42.0702 86.6906C51.2268 91.6174 59.5507 95.9324 59.8278 100.718L57.2301 105.634Z" fill="#FAB428"/>
<path d="M59.8223 100.736C62.2743 96.1009 55.4814 87.6293 44.6499 81.8138C33.8184 75.9983 23.0499 75.0411 20.5979 79.6759C18.1459 84.3106 24.9389 92.7823 35.7704 98.5978C46.6019 104.413 57.3703 105.37 59.8223 100.736Z" fill="#FFDF60"/>
<path d="M52.8363 93.8739C54.3616 90.9625 50.0817 85.6708 43.2768 82.0546C36.4719 78.4384 29.7189 77.8671 28.1935 80.7785C26.6682 83.6899 30.9481 88.9815 37.753 92.5977C44.5579 96.2139 51.3109 96.7853 52.8363 93.8739Z" fill="#FFF18D"/>
</svg>
