<?xml version="1.0"?>
<svg xmlns="http://www.w3.org/2000/svg" viewBox="0 0 112 112" fill="none">
<path fill-rule="evenodd" clip-rule="evenodd" d="M32.5611 13.2068C31.6806 13.0865 30.8692 13.7027 30.7489 14.5832C30.6285 15.4637 31.2447 16.2751 32.1252 16.3955L64.5702 20.8307C65.4507 20.9511 66.2621 20.3348 66.3824 19.4543C66.5028 18.5738 65.8866 17.7624 65.006 17.6421L32.5611 13.2068ZM49.37 66.9358C49.4903 66.0553 50.3017 65.4391 51.1822 65.5594L72.2657 68.4415C73.1462 68.5619 73.7625 69.3733 73.6421 70.2538C73.5217 71.1343 72.7103 71.7506 71.8298 71.6302L50.7463 68.7481C49.8658 68.6277 49.2496 67.8163 49.37 66.9358ZM48.571 72.7815C48.6512 72.1945 49.1922 71.7837 49.7792 71.8639L71.9255 74.8913C72.5126 74.9716 72.9234 75.5125 72.8431 76.0995C72.7629 76.6865 72.222 77.0974 71.635 77.0171L49.4886 73.9897C48.9016 73.9095 48.4908 73.3685 48.571 72.7815ZM49.1983 76.1138C48.6113 76.0336 48.0703 76.4444 47.9901 77.0314C47.9099 77.6184 48.3207 78.1594 48.9077 78.2396L71.0541 81.267C71.6411 81.3473 72.182 80.9364 72.2622 80.3494C72.3425 79.7624 71.9317 79.2215 71.3446 79.1412L49.1983 76.1138ZM47.118 83.4096C47.1982 82.8226 47.7391 82.4118 48.3262 82.492L51.8811 82.978C52.4681 83.0582 52.8789 83.5991 52.7987 84.1862C52.7184 84.7732 52.1775 85.184 51.5905 85.1037L48.0356 84.6178C47.4485 84.5375 47.0377 83.9966 47.118 83.4096ZM26.5716 45.1414C26.6719 44.4076 27.348 43.8941 28.0818 43.9944L82.2317 51.3967C82.9655 51.497 83.479 52.1731 83.3787 52.9069C83.2784 53.6407 82.6022 54.1542 81.8684 54.0539L27.7185 46.6516C26.9848 46.5513 26.4712 45.8751 26.5716 45.1414ZM31.6895 19.5837C30.809 19.4633 29.9976 20.0795 29.8772 20.96C29.7569 21.8406 30.3731 22.6519 31.2536 22.7723L49.2385 25.2308C50.119 25.3512 50.9304 24.735 51.0508 23.8545C51.1711 22.9739 50.5549 22.1626 49.6744 22.0422L31.6895 19.5837Z" fill="#7161D2"/>
<path fill-rule="evenodd" clip-rule="evenodd" d="M92.7193 62.1538C92.996 62.1198 93.2086 61.8668 93.1746 61.5736L93.1229 61.128C92.6896 57.3926 92.7281 53.6175 93.2374 49.8917L97.348 19.821C97.6599 17.5393 96.0631 15.4367 93.7814 15.1248L31.8326 6.65644C29.5509 6.34453 27.4483 7.94138 27.1364 10.2231L23.0257 40.2937C22.5164 44.0196 22.478 47.7947 22.9113 51.5301L23.038 52.6224C21.648 55.2686 20.7248 58.1349 20.3093 61.0955L15.9989 91.806C15.678 94.0923 17.276 96.2043 19.5635 96.517L81.0035 104.916C83.2809 105.227 85.3807 103.637 85.6982 101.36L89.9805 70.6542C90.3948 67.6834 91.3215 64.8073 92.7193 62.1538Z" fill="#BCB195"/>
<path d="M22.9673 52.2659L92.1686 61.7257C90.7707 64.3176 89.8503 67.1399 89.4514 70.0577L85.1129 101.795C84.801 104.077 82.6984 105.674 80.4167 105.362L19.4782 97.0317C17.1964 96.7198 15.5996 94.6172 15.9115 92.3355L20.25 60.5979C20.6489 57.6801 21.5693 54.8578 22.9673 52.2659Z" fill="#EBDDB8"/>
<rect x="51.8613" y="64.1074" width="24.4979" height="3.12739" rx="1.56369" transform="rotate(7.78408 51.8613 64.1074)" fill="#C9BD9F"/>
<rect x="51.0137" y="70.3046" width="24.4979" height="2.08492" rx="1.04246" transform="rotate(7.78408 51.0137 70.3046)" fill="#C9BD9F"/>
<rect x="50.4492" y="74.4358" width="24.4979" height="2.08492" rx="1.04246" transform="rotate(7.78408 50.4492 74.4358)" fill="#C9BD9F"/>
<rect x="49.6025" y="80.6329" width="4.69108" height="2.08492" rx="1.04246" transform="rotate(7.78408 49.6025 80.6329)" fill="#C9BD9F"/>
<path d="M22.9672 52.2661L92.1686 61.7259C91.5178 58.8551 91.1533 55.8999 91.0922 52.9568C90.8774 42.6032 92.2484 32.2776 95.1575 22.3388L95.3303 21.7483C96.0465 19.3016 94.419 16.7908 91.8932 16.4455L31.0471 8.12785C29.002 7.8483 27.0602 9.10696 26.4804 11.0879L25.9561 12.879C23.047 22.8178 21.676 33.1433 21.8908 43.497C21.9519 46.44 22.3164 49.3952 22.9672 52.2661Z" fill="#EBDDB8"/>
<path d="M23.4834 52.3364L82.098 60.349" stroke="#BCB195" stroke-width="0.521231" stroke-linecap="round" stroke-dasharray="1.04 1.04"/>
<rect x="33.0508" y="13.1372" width="35.9649" height="3.12739" rx="1.56369" transform="rotate(7.78408 33.0508 13.1372)" fill="#BCB195"/>
<rect x="28.957" y="43.09" width="57.3354" height="2.60616" rx="1.30308" transform="rotate(7.78408 28.957 43.09)" fill="#BCB195"/>
<rect x="28.1816" y="34.5657" width="50.0382" height="0.521231" rx="0.260616" transform="rotate(7.78408 28.1816 34.5657)" fill="#BCB195"/>
<path d="M50.355 36.3408C53.0241 34.5921 55.7275 32.8802 58.3255 31.0255C58.6568 30.7891 58.9957 30.5603 59.301 30.291C59.5369 30.0829 59.6494 29.8668 59.214 29.8775C57.7899 29.9126 56.1955 30.4966 54.8953 30.987C53.0757 31.6733 51.3773 32.5508 49.9078 33.8411C48.9428 34.6883 46.0726 37.4373 48.9758 37.6154C51.7894 37.7879 54.4916 36.0776 56.3431 34.0896C56.7204 33.6845 57.4213 32.5938 56.2737 33.2338C53.9243 34.5439 51.8284 36.732 49.9811 38.6565C49.0718 39.6037 50.4629 39.0871 50.9616 38.934C53.2133 38.2426 55.3785 37.2976 57.5489 36.3918C59.3395 35.6445 61.1629 34.9401 62.9229 34.1212C63.8403 33.6944 63.8187 33.5721 62.9924 34.1379C61.7644 34.9787 60.5952 35.9009 59.3721 36.7486C59.0353 36.982 57.9629 37.5761 58.341 37.4181C60.3345 36.585 62.4451 36.083 64.5057 35.4493C64.6421 35.4074 65.3061 35.0103 65.183 35.4271C64.8684 36.492 64.3176 37.5332 63.8813 38.5484C63.4368 39.5825 62.3668 43.3328 60.6582 43.028C59.647 42.8476 58.5317 41.9158 57.7537 41.3471C56.5872 40.4942 55.4239 39.5764 54.4323 38.519C54.2577 38.3328 53.4242 37.5387 53.7799 37.1532C54.3004 36.5889 55.9968 36.8125 56.5707 36.8318C60.155 36.9527 63.7064 37.5298 67.2547 38.0055C67.3619 38.0198 68.9103 38.4862 68.9791 37.983" stroke="#697291" stroke-width="0.56726" stroke-linecap="round" stroke-linejoin="round"/>
<rect x="31.2422" y="19.3722" width="21.3705" height="3.12739" rx="1.56369" transform="rotate(7.78408 31.2422 19.3722)" fill="#BCB195"/>
<path d="M23.2436 60.5908C23.5087 58.7456 25.2195 57.4647 27.0647 57.7297L46.5539 60.5296C48.3991 60.7947 49.6801 62.5055 49.415 64.3506L45.2551 93.3062C44.99 95.1513 43.2793 96.4323 41.4341 96.1672L21.9448 93.3673C20.0996 93.1022 18.8187 91.3915 19.0838 89.5463L23.2436 60.5908Z" fill="white"/>
<path d="M41.9493 83.2634L24.2183 81.2355C23.9776 81.209 23.7362 81.2786 23.5467 81.4294C23.3571 81.5801 23.2349 81.7997 23.2066 82.0402L23.1566 82.4782C23.1298 82.7188 23.1993 82.9602 23.3499 83.1497C23.5006 83.3393 23.72 83.4615 23.9605 83.4898L41.6915 85.5176C41.9321 85.5444 42.1735 85.4749 42.363 85.3242C42.5526 85.1736 42.6748 84.9541 42.703 84.7137L42.7531 84.2757C42.7799 84.035 42.7104 83.7935 42.5598 83.6039C42.4092 83.4143 42.1898 83.2919 41.9493 83.2634Z" fill="#F6B11B"/>
<path d="M25.0471 75.3612L24.671 75.3182C24.3515 75.2801 24.0603 75.1168 23.8612 74.8641C23.6621 74.6114 23.5714 74.29 23.6091 73.9706L23.6205 73.8706C23.6586 73.5511 23.8219 73.2599 24.0746 73.0608C24.3273 72.8617 24.6487 72.771 24.9682 72.8087L25.3436 72.8517L25.0471 75.3612Z" fill="#F65539"/>
<path d="M43.9362 77.6309L43.9988 77.6381C44.157 77.6568 44.3173 77.6442 44.4706 77.601C44.6239 77.5578 44.7672 77.4848 44.8923 77.3862C45.0174 77.2876 45.1218 77.1653 45.1996 77.0263C45.2774 76.8873 45.327 76.7343 45.3457 76.5761L45.3571 76.4762C45.3758 76.3179 45.3631 76.1576 45.3198 76.0043C45.2765 75.851 45.2035 75.7077 45.1048 75.5826C45.0061 75.4575 44.8838 75.3531 44.7447 75.2753C44.6057 75.1975 44.4527 75.1478 44.2945 75.1292L44.2319 75.122C44.1496 75.1126 44.0669 75.1359 44.0016 75.1869C43.9364 75.2379 43.8938 75.3125 43.8831 75.3947L43.6603 77.2788C43.6551 77.3201 43.6581 77.362 43.6692 77.402C43.6803 77.4421 43.6992 77.4796 43.7248 77.5124C43.7505 77.5451 43.7824 77.5725 43.8187 77.5928C43.855 77.6131 43.8949 77.6261 43.9362 77.6309Z" fill="#F65539"/>
<path d="M43.205 78.5609L43.3301 78.5752C43.4208 78.586 43.5127 78.5788 43.6006 78.554C43.6885 78.5292 43.7707 78.4873 43.8424 78.4307C43.9141 78.3742 43.974 78.304 44.0186 78.2243C44.0631 78.1446 44.0916 78.0569 44.1022 77.9662L44.4733 74.8301C44.484 74.7394 44.4768 74.6474 44.452 74.5595C44.4272 74.4716 44.3854 74.3895 44.3288 74.3178C44.2722 74.2461 44.2021 74.1862 44.1224 74.1416C44.0427 74.097 43.9549 74.0686 43.8642 74.058L43.7391 74.0436C43.6484 74.0329 43.5565 74.0401 43.4686 74.0649C43.3807 74.0897 43.2985 74.1316 43.2268 74.1881C43.1551 74.2447 43.0952 74.3148 43.0506 74.3946C43.0061 74.4743 42.9776 74.562 42.967 74.6527L42.5966 77.7889C42.5859 77.8795 42.5931 77.9714 42.6178 78.0592C42.6426 78.1471 42.6844 78.2292 42.7409 78.3009C42.7974 78.3726 42.8674 78.4324 42.9471 78.4771C43.0267 78.5217 43.1143 78.5502 43.205 78.5609Z" fill="#FFB762"/>
<path d="M25.3116 76.4467L25.1872 76.4325C25.0965 76.4218 25.0088 76.3934 24.9291 76.3488C24.8494 76.3042 24.7792 76.2444 24.7227 76.1726C24.6661 76.1009 24.6242 76.0188 24.5994 75.9309C24.5746 75.843 24.5674 75.7511 24.5782 75.6604L24.9485 72.5242C24.9592 72.4335 24.9877 72.3459 25.0324 72.2663C25.077 72.1866 25.1368 72.1166 25.2085 72.0601C25.2802 72.0036 25.3623 71.9618 25.4502 71.937C25.538 71.9123 25.6299 71.9051 25.7205 71.9158L25.8457 71.9301C25.9364 71.9408 26.0241 71.9692 26.1038 72.0138C26.1835 72.0584 26.2537 72.1183 26.3102 72.19C26.3668 72.2617 26.4087 72.3438 26.4335 72.4317C26.4583 72.5196 26.4655 72.6116 26.4547 72.7023L26.0838 75.8369C26.0733 75.9277 26.0449 76.0155 26.0003 76.0953C25.9558 76.1751 25.8959 76.2453 25.8242 76.302C25.7525 76.3586 25.6703 76.4006 25.5823 76.4254C25.4944 76.4502 25.4024 76.4575 25.3116 76.4467Z" fill="#FFB762"/>
<path d="M29.0355 82.6153L24.5859 82.0889C24.0515 82.0356 23.5175 82.1942 23.0988 82.5306C22.6802 82.8669 22.4103 83.3542 22.3472 83.8875C22.2841 84.4209 22.4328 84.9577 22.7614 85.3824C23.0901 85.8072 23.5723 86.086 24.1043 86.1589L28.5541 86.6846L29.0355 82.6153Z" fill="#BEDCE4"/>
<path fill-rule="evenodd" clip-rule="evenodd" d="M23.1373 93.5388L21.9442 93.3674C20.7569 93.1968 19.8033 92.4277 19.3448 91.4093C19.5675 90.468 19.8633 89.3411 20.2233 88.2266C20.542 87.2395 20.9278 86.2094 21.3816 85.3076C21.8046 84.4671 22.4131 83.4754 23.2864 82.838L25.742 86.2021C25.7423 86.2019 25.7421 86.202 25.7417 86.2024C25.7352 86.2078 25.6622 86.269 25.5373 86.4413C25.4087 86.6187 25.2615 86.8632 25.1021 87.18C24.7815 87.817 24.4713 88.6253 24.1867 89.5066C23.7006 91.0118 23.3377 92.576 23.1373 93.5388Z" fill="#FABC43"/>
<path fill-rule="evenodd" clip-rule="evenodd" d="M40.9039 96.0909L23.3907 93.5749L26.0911 70.725C26.6697 65.8193 31.0711 62.3076 35.9227 62.8807C40.7743 63.4545 44.2392 67.8958 43.6563 72.801L40.9039 96.0909Z" fill="#A8DBE4"/>
<path d="M38.3128 87.0555L25.9707 85.6439L25.4911 89.8373L37.8332 91.2489L38.3128 87.0555Z" fill="white"/>
<path d="M25.8852 87.0611L27.318 87.2301C27.3537 87.2361 27.3903 87.2347 27.4255 87.2261C27.4607 87.2175 27.4938 87.2018 27.5228 87.18C27.5517 87.1582 27.5759 87.1308 27.5939 87.0993C27.6119 87.0678 27.6233 87.033 27.6275 86.997C27.6316 86.961 27.6283 86.9245 27.6179 86.8898C27.6075 86.8551 27.5901 86.8229 27.5668 86.7951C27.5435 86.7673 27.5148 86.7446 27.4825 86.7282C27.4501 86.7119 27.4148 86.7023 27.3786 86.7001L25.9479 86.5328C25.8795 86.5286 25.8122 86.5507 25.7598 86.5947C25.7073 86.6386 25.6738 86.7011 25.666 86.769C25.6582 86.837 25.6768 86.9054 25.718 86.9601C25.7592 87.0147 25.8197 87.0515 25.8872 87.0628L25.8852 87.0611Z" fill="#A2CED8"/>
<path d="M25.6145 89.2776L27.0465 89.4465C27.1148 89.4507 27.1821 89.4286 27.2346 89.3846C27.287 89.3407 27.3206 89.2783 27.3284 89.2103C27.3362 89.1423 27.3176 89.0739 27.2764 89.0192C27.2352 88.9646 27.1746 88.9278 27.1071 88.9165L25.6744 88.7475C25.6061 88.7433 25.5388 88.7654 25.4863 88.8094C25.4339 88.8534 25.4003 88.9158 25.3925 88.9838C25.3848 89.0518 25.4034 89.1201 25.4446 89.1748C25.4857 89.2295 25.5463 89.2662 25.6138 89.2775L25.6145 89.2776Z" fill="#A2CED8"/>
<path d="M25.7529 88.1661L27.1856 88.3358C27.2539 88.34 27.3212 88.3179 27.3737 88.2739C27.4261 88.23 27.4597 88.1676 27.4675 88.0996C27.4752 88.0316 27.4566 87.9632 27.4155 87.9085C27.3743 87.8539 27.3137 87.8171 27.2462 87.8058L25.8135 87.6368C25.7433 87.6288 25.6728 87.649 25.6175 87.6929C25.5622 87.7369 25.5266 87.801 25.5186 87.8712C25.5105 87.9414 25.5307 88.0119 25.5747 88.0672C25.6186 88.1225 25.6828 88.1581 25.7529 88.1661Z" fill="#A2CED8"/>
<path d="M26.0161 85.946L27.4481 86.1149C27.5164 86.1191 27.5838 86.097 27.6362 86.053C27.6887 86.009 27.7222 85.9466 27.73 85.8786C27.7378 85.8106 27.7192 85.7423 27.678 85.6876C27.6368 85.6329 27.5763 85.5962 27.5088 85.5849L26.0768 85.416C26.0085 85.4118 25.9411 85.4339 25.8887 85.4779C25.8362 85.5218 25.8027 85.5842 25.7949 85.6522C25.7871 85.7202 25.8057 85.7886 25.8469 85.8433C25.8881 85.8979 25.9486 85.9347 26.0161 85.946Z" fill="#A2CED8"/>
<path fill-rule="evenodd" clip-rule="evenodd" d="M40.1737 65.4637L42.076 64.0369L42.7901 64.9889L40.8878 66.4157L40.1737 65.4637Z" fill="#A8DBE4"/>
<path fill-rule="evenodd" clip-rule="evenodd" d="M29.7069 64.8826L28.2494 63.223L29.1435 62.4377L30.6011 64.0973L29.7069 64.8826Z" fill="#A8DBE4"/>
<path d="M31.5676 78.0554L37.348 78.7391C37.7595 78.7878 38.1764 78.755 38.5752 78.6425C38.9739 78.53 39.3466 78.34 39.6719 78.0835C39.9972 77.827 40.2688 77.5089 40.4712 77.1473C40.6735 76.7858 40.8027 76.388 40.8513 75.9765L40.881 75.7169C40.9296 75.3055 40.8966 74.8886 40.7841 74.4899C40.6715 74.0913 40.4816 73.7187 40.225 73.3934C39.9685 73.0682 39.6504 72.7967 39.2889 72.5944C38.9275 72.3921 38.5297 72.2629 38.1183 72.2144L32.3385 71.5307C31.5077 71.4326 30.6718 71.6685 30.0149 72.1866C29.3579 72.7047 28.9336 73.4625 28.8353 74.2933L28.8056 74.553C28.7075 75.3837 28.9434 76.2193 29.4613 76.8761C29.9793 77.533 30.7369 77.9571 31.5676 78.0554Z" fill="#36488B"/>
<path d="M35.9745 74.8179C35.9977 74.6344 36.1654 74.5044 36.3489 74.5277L37.6158 74.6882C37.7994 74.7115 37.9293 74.8791 37.9061 75.0627L37.7499 76.2954C37.7266 76.4789 37.559 76.6088 37.3754 76.5856L36.1085 76.425C35.925 76.4018 35.795 76.2341 35.8183 76.0506L35.9745 74.8179Z" fill="#6EDCFF"/>
<path d="M32.5995 74.352C32.6227 74.1684 32.7904 74.0385 32.9739 74.0618L34.2408 74.2223C34.4244 74.2456 34.5543 74.4132 34.5311 74.5967L34.3749 75.8294C34.3516 76.013 34.184 76.1429 34.0004 76.1196L32.7335 75.9591C32.55 75.9358 32.42 75.7682 32.4433 75.5847L32.5995 74.352Z" fill="#6EDCFF"/>
<path fill-rule="evenodd" clip-rule="evenodd" d="M35.4274 64.9443C36.5266 65.0625 37.5841 65.4313 38.5185 66.0223C39.4528 66.6133 40.2391 67.4108 40.8169 68.3533C40.9457 68.5635 41.2205 68.6294 41.4307 68.5006C41.6409 68.3718 41.7068 68.097 41.578 67.8868C40.9288 66.8278 40.0454 65.9319 38.9956 65.2679C37.9459 64.6039 36.7578 64.1896 35.5228 64.0568C35.2777 64.0305 35.0577 64.2078 35.0313 64.4529C35.005 64.698 35.1823 64.918 35.4274 64.9443Z" fill="#ECFBFF"/>
<path fill-rule="evenodd" clip-rule="evenodd" d="M41.6134 68.9818C41.384 69.072 41.2713 69.3311 41.3616 69.5605C41.4953 69.9003 41.6041 70.2494 41.687 70.6051C41.743 70.8452 41.9829 70.9944 42.2229 70.9384C42.463 70.8825 42.6122 70.6425 42.5562 70.4025C42.4635 70.0045 42.3417 69.6138 42.1921 69.2336C42.1018 69.0042 41.8427 68.8915 41.6134 68.9818Z" fill="#ECFBFF"/>
<path d="M37.1628 87.7012L41.7686 88.2455C42.3082 88.3092 42.8511 88.156 43.2778 87.8195C43.7044 87.483 43.9799 86.9908 44.0437 86.4511C44.1074 85.9115 43.9542 85.3686 43.6177 84.942C43.2812 84.5153 42.789 84.2398 42.2493 84.1761L37.6084 83.6271L37.1628 87.7012Z" fill="#A8DBE4"/>
<path fill-rule="evenodd" clip-rule="evenodd" d="M32.1855 78.5981C32.3782 78.4945 32.6183 78.5668 32.7218 78.7595C32.8249 78.9515 33.0355 79.1365 33.3528 79.2889C33.666 79.4394 34.0518 79.5425 34.4525 79.5891C34.8529 79.6358 35.2508 79.6241 35.5847 79.558C35.9281 79.4901 36.1573 79.3742 36.2735 79.2532C36.425 79.0955 36.6757 79.0904 36.8335 79.2419C36.9912 79.3935 36.9962 79.6442 36.8447 79.8019C36.5678 80.0902 36.1556 80.2525 35.7385 80.335C35.3119 80.4194 34.8301 80.4306 34.3608 80.3759C33.8917 80.3212 33.4176 80.1987 33.0098 80.0028C32.6062 79.8089 32.2349 79.5268 32.024 79.1343C31.9205 78.9417 31.9928 78.7016 32.1855 78.5981Z" fill="#7EBDCC"/>
<path d="M43.4239 65.2922C43.771 65.3319 44.1221 65.2678 44.4327 65.108C44.7434 64.9482 44.9997 64.6999 45.1692 64.3944C45.3387 64.089 45.4139 63.7401 45.3851 63.3919C45.3564 63.0438 45.2251 62.7119 45.0078 62.4384C44.7905 62.1649 44.497 61.9619 44.1643 61.8552C43.8317 61.7484 43.4749 61.7427 43.139 61.8388C42.8031 61.9348 42.5032 62.1283 42.2773 62.3948C42.0514 62.6612 41.9095 62.9887 41.8697 63.3358C41.8164 63.8013 41.9503 64.2689 42.2417 64.6358C42.5332 65.0027 42.9584 65.2388 43.4239 65.2922Z" fill="#A8DBE4"/>
<path d="M43.4943 64.5473C43.6934 64.5701 43.8949 64.5333 44.0731 64.4416C44.2513 64.3499 44.3983 64.2074 44.4956 64.0321C44.5928 63.8569 44.6359 63.6567 44.6194 63.457C44.6029 63.2572 44.5275 63.0668 44.4028 62.9099C44.2781 62.753 44.1097 62.6366 43.9188 62.5754C43.728 62.5142 43.5232 62.511 43.3305 62.5662C43.1379 62.6213 42.9658 62.7324 42.8363 62.8853C42.7067 63.0383 42.6254 63.2262 42.6026 63.4253C42.5721 63.6923 42.6489 63.9605 42.8161 64.171C42.9833 64.3814 43.2273 64.5167 43.4943 64.5473Z" fill="#F65539"/>
<path d="M27.6869 63.4958C28.034 63.5356 28.3851 63.4716 28.6958 63.3119C29.0066 63.1522 29.263 62.9039 29.4326 62.5985C29.6022 62.2931 29.6775 61.9442 29.6489 61.596C29.6202 61.2478 29.489 60.9159 29.2717 60.6423C29.0544 60.3687 28.7609 60.1657 28.4283 60.0589C28.0956 59.9521 27.7387 59.9463 27.4028 60.0423C27.0669 60.1384 26.767 60.3318 26.541 60.5983C26.3151 60.8648 26.1732 61.1923 26.1333 61.5394C26.0801 62.0048 26.2139 62.4723 26.5052 62.8391C26.7965 63.206 27.2215 63.4422 27.6869 63.4958Z" fill="#A8DBE4"/>
<path d="M27.7502 62.7509C27.9493 62.7737 28.1507 62.7369 28.3289 62.6452C28.5072 62.5535 28.6542 62.411 28.7514 62.2357C28.8487 62.0605 28.8918 61.8603 28.8753 61.6606C28.8588 61.4608 28.7834 61.2705 28.6587 61.1135C28.534 60.9566 28.3655 60.8402 28.1747 60.779C27.9838 60.7178 27.7791 60.7146 27.5864 60.7698C27.3937 60.825 27.2217 60.936 27.0921 61.0889C26.9626 61.2419 26.8813 61.4298 26.8585 61.6289C26.8279 61.8959 26.9047 62.1642 27.072 62.3746C27.2392 62.585 27.4831 62.7204 27.7502 62.7509Z" fill="#F65539"/>
<path fill-rule="evenodd" clip-rule="evenodd" d="M41.2141 96.1365L23.1773 93.5453L24.2609 84.0709L32.4256 90.9952L42.5457 84.4941L41.2141 96.1365Z" fill="#FABC43"/>
<path fill-rule="evenodd" clip-rule="evenodd" d="M24.3382 93.7119L23.1494 93.5411L23.3774 91.547C23.5883 91.2657 23.8392 91.0168 24.1221 90.808C24.132 90.8008 24.1392 90.7906 24.1427 90.7789C24.1462 90.7672 24.1457 90.7547 24.1414 90.7433C24.1371 90.7318 24.1291 90.7222 24.1188 90.7157C24.1084 90.7092 24.0962 90.7063 24.0841 90.7075C23.8806 90.7248 23.676 90.7258 23.4724 90.7104L23.729 88.4669C23.968 88.5146 24.2018 88.586 24.4267 88.6801C24.4381 88.6851 24.4508 88.6861 24.4629 88.6829C24.4749 88.6798 24.4855 88.6728 24.4931 88.6629C24.5007 88.6531 24.5048 88.641 24.5047 88.6286C24.5046 88.6161 24.5003 88.6041 24.4926 88.5944C24.2497 88.2822 24.0584 87.9331 23.9259 87.5604C23.9032 87.4947 23.8854 87.4329 23.8675 87.3706C23.8647 87.3609 23.8619 87.3512 23.8591 87.3414L24.1153 85.1016C24.2035 85.0826 24.2956 85.0946 24.3759 85.1358C25.0645 85.4813 25.6323 86.0271 26.0047 86.7015C26.1772 87.0177 26.3016 87.3578 26.3739 87.7107C26.3761 87.7223 26.382 87.733 26.3907 87.7411C26.3994 87.7491 26.4105 87.7542 26.4223 87.7556C26.4341 87.7569 26.446 87.7545 26.4563 87.7486C26.4667 87.7427 26.4748 87.7336 26.4796 87.7227C26.6341 87.3482 26.8495 87.0017 27.1172 86.6975C27.4315 86.3388 27.4178 86.5056 27.3993 86.73C27.382 86.9393 27.3606 87.1988 27.5976 87.1285C27.6551 87.1111 27.7158 87.1071 27.7751 87.1167C27.8344 87.1263 27.8907 87.1493 27.9398 87.1839C27.9888 87.2185 28.0294 87.2639 28.0583 87.3165C28.0872 87.3691 28.1038 87.4277 28.1067 87.4877C28.1161 87.7243 28.3796 87.703 28.6188 87.6836C28.9108 87.66 29.1666 87.6394 28.8789 88.0948C28.6208 88.506 28.2828 88.8613 27.885 89.1397C27.8741 89.147 27.866 89.1578 27.8622 89.1703C27.8583 89.1828 27.8589 89.1962 27.8639 89.2083C27.8689 89.2204 27.8779 89.2304 27.8895 89.2366C27.901 89.2428 27.9143 89.2448 27.9272 89.2422C28.4015 89.1599 28.8874 89.1706 29.3576 89.2739C30.0745 89.4354 30.7308 89.797 31.2503 90.3167C31.2934 90.3591 31.3263 90.4107 31.3465 90.4677C31.3667 90.5247 31.3736 90.5855 31.3668 90.6456C31.3599 90.7056 31.3394 90.7633 31.3069 90.8143C31.2744 90.8652 31.2306 90.9081 31.179 90.9396C30.521 91.3398 29.7573 91.5319 28.9882 91.4906C28.5426 91.4653 28.1053 91.3587 27.698 91.1762C27.6863 91.171 27.6732 91.1699 27.6609 91.1732C27.6486 91.1764 27.6377 91.1837 27.63 91.1938C27.6223 91.204 27.6183 91.2165 27.6187 91.2293C27.619 91.242 27.6236 91.2543 27.6318 91.2641C27.9066 91.5854 28.1243 91.9514 28.2754 92.3462C28.511 92.9724 28.5807 93.6477 28.4792 94.3068L26.8637 94.0747C26.6128 93.8321 26.395 93.5549 26.2177 93.2498C26.0053 92.882 25.8592 92.4798 25.7859 92.0615C25.7842 92.0494 25.7785 92.0383 25.7698 92.0299C25.7611 92.0214 25.7498 92.016 25.7377 92.0147C25.7256 92.0133 25.7135 92.0159 25.7031 92.0222C25.6926 92.0285 25.6846 92.038 25.6802 92.0494C25.5136 92.4591 25.2748 92.8355 24.9752 93.1609C24.7825 93.3681 24.5688 93.5526 24.3382 93.7119Z" fill="#F69F1C"/>
<path fill-rule="evenodd" clip-rule="evenodd" d="M40.5813 96.0448L36.9749 95.5267C36.7324 95.2258 36.5383 94.8886 36.4 94.5273C36.1416 93.8395 36.083 93.0925 36.2311 92.3729C36.2431 92.3136 36.2684 92.2579 36.3052 92.2099C36.3419 92.1619 36.3892 92.123 36.4433 92.096C36.4974 92.069 36.5569 92.0547 36.6174 92.0542C36.6778 92.0537 36.7376 92.067 36.7921 92.0931C37.4888 92.4224 38.0695 92.9547 38.4581 93.62C38.67 93.988 38.8159 94.3901 38.8892 94.8083C38.8909 94.8203 38.8966 94.8314 38.9053 94.8399C38.914 94.8484 38.9253 94.8537 38.9374 94.8551C38.9494 94.8565 38.9616 94.8538 38.9721 94.8475C38.9825 94.8413 38.9905 94.8317 38.9949 94.8204C39.1618 94.4108 39.4005 94.0344 39.6999 93.7089C40.2003 93.1708 40.8429 92.7855 41.5532 92.5975C41.572 92.5935 41.5911 92.5908 41.6103 92.5895L41.2977 95.3228C41.0937 95.5957 40.8526 95.8388 40.5813 96.0448Z" fill="#F69F1C"/>
<path fill-rule="evenodd" clip-rule="evenodd" d="M41.2549 96.1417L41.2063 96.1348C41.2068 95.8097 41.2095 95.4828 41.2121 95.1547L41.2121 95.1546L41.2121 95.1546C41.2238 93.7306 41.2356 92.2819 41.067 90.8443C40.861 89.0867 40.4098 87.6519 39.5796 86.6248L42.8187 84.0065C44.3614 85.915 44.9571 88.2558 45.2037 90.3593C45.2894 91.09 45.3359 91.8291 45.36 92.5471L45.251 93.3059C45.0403 94.7726 43.9161 95.8828 42.5371 96.1434L41.2549 96.1417Z" fill="#FABC43"/>
<path d="M43.035 82.7023L44.7155 84.6375C44.8267 84.7648 44.9038 84.9182 44.9396 85.0834C44.9754 85.2486 44.9687 85.4202 44.9201 85.582C44.8715 85.7439 44.7826 85.8909 44.6618 86.0091C44.541 86.1273 44.3922 86.2129 44.2292 86.2579L40.3131 87.3679C40.2376 87.3891 40.1689 87.4294 40.1135 87.4849C40.0582 87.5404 40.018 87.6093 39.997 87.6848C39.976 87.7603 39.9748 87.84 39.9935 87.9161C40.0123 87.9922 40.0503 88.0622 40.104 88.1193L40.5228 88.5673C40.5769 88.6253 40.6151 88.6963 40.6335 88.7735C40.6519 88.8506 40.6499 88.9313 40.6278 89.0074C40.6056 89.0836 40.564 89.1527 40.5071 89.208C40.4502 89.2632 40.3798 89.3027 40.303 89.3226L32.9281 91.2708C32.4775 91.3883 32.1871 90.818 32.5465 90.5298L42.3923 82.6441C42.4862 82.5687 42.6055 82.5326 42.7254 82.5435C42.8452 82.5544 42.9562 82.6113 43.035 82.7023Z" fill="#FFDF60"/>
<path d="M24.2128 80.595L22.1387 82.1008C22.0016 82.1997 21.8919 82.3318 21.8198 82.4847C21.7477 82.6376 21.7155 82.8063 21.7264 82.975C21.7372 83.1437 21.7907 83.3069 21.8818 83.4493C21.9729 83.5917 22.0986 83.7086 22.2472 83.7892L25.8116 85.7548C25.8806 85.7924 25.9388 85.8472 25.9804 85.9138C26.022 85.9805 26.0458 86.0567 26.0493 86.1352C26.0529 86.2137 26.0361 86.2918 26.0007 86.362C25.9652 86.4321 25.9123 86.4919 25.8469 86.5356L25.3386 86.8775C25.2725 86.9216 25.2191 86.9821 25.1836 87.0531C25.148 87.1241 25.1316 87.2031 25.136 87.2824C25.1403 87.3616 25.1652 87.4384 25.2082 87.5051C25.2512 87.5718 25.3109 87.6262 25.3814 87.6628L32.126 91.2258C32.5385 91.442 32.9501 90.9521 32.665 90.5901L24.8527 80.6827C24.7779 80.5884 24.6696 80.5267 24.5504 80.5103C24.4311 80.494 24.3102 80.5243 24.2128 80.595Z" fill="#FFDF60"/>
</svg>
