<?xml version="1.0"?>
<svg xmlns="http://www.w3.org/2000/svg" viewBox="0 0 112 112" fill="none">
<path d="M41.7095 9.70649C41.5085 8.738 42.2887 7.84571 43.2754 7.91564L72.2843 9.97183C73.2163 10.0379 73.9909 10.7151 74.1807 11.6299C75.2379 16.7245 75.5875 21.9406 75.2196 27.1307L73.8382 46.6198L41.1618 44.3037L42.6351 23.5172C42.9629 18.893 42.6514 14.2456 41.7095 9.70649Z" fill="#7564BE" stroke="#D0DFE0" stroke-width="3.21586"/>
<path d="M44.0157 29.7278C56.8822 28.8115 63.7204 30.5902 73.3707 32.4531L72.275 44.6847C63.1566 40.1199 53.3449 37.2219 43.4354 39.243C42.9409 39.7555 44.0157 29.7278 44.0157 29.7278Z" fill="#7B7FE1"/>
<path fill-rule="evenodd" clip-rule="evenodd" d="M64.862 25.1764C61.8944 26.1852 58.5739 24.8387 57.1857 21.9416C55.9443 19.3509 56.6374 16.3328 58.6896 14.5214C58.4537 14.6016 58.2201 14.6966 57.9898 14.807C54.8624 16.3055 53.542 20.0557 55.0406 23.1831C56.5392 26.3105 60.2893 27.6309 63.4167 26.1323C63.9534 25.8751 64.4369 25.5517 64.862 25.1764Z" fill="#FFE074"/>
<path d="M30.9341 38.6142C31.9 34.6121 35.6321 31.906 39.7362 32.2318L76.3609 35.1396C81.6171 35.5569 86.1287 39.0162 87.3147 44.1538C89.7741 54.8072 92.635 74.3075 87.3303 94.499C86.0313 99.4433 82.062 103.23 77.01 104.011C75.0195 104.318 72.803 104.55 70.5466 104.579C68.0161 104.612 64.8424 104.296 62.4753 104.172L27.5419 71.7512C25.2181 69.5945 24.2398 66.3511 24.9837 63.2692L30.9341 38.6142Z" fill="#89C8F5"/>
<path d="M28.267 41.079C28.7072 36.072 33.2604 32.4393 38.2527 33.023C45.5824 33.88 56.7909 35.0538 69.9851 35.9776C73.6648 36.2352 76.8013 38.736 77.5288 42.3522C79.6101 52.6993 82.6129 75.15 76.1585 99.0216C75.1865 102.616 71.7824 104.928 68.0642 104.722C56.8155 104.099 33.4182 102.535 23.0998 99.8547L28.267 41.079Z" fill="#B0DEFF"/>
<path d="M67.6748 34.5302C67.794 32.8804 69.2281 31.6396 70.8779 31.7588L75.1896 32.0704C76.8394 32.1896 78.0802 33.6236 77.961 35.2734C77.9413 35.5468 77.7037 35.7524 77.4303 35.7326L68.134 35.0609C67.8606 35.0412 67.655 34.8036 67.6748 34.5302Z" fill="#425177"/>
<path d="M34.3176 38.3993C34.6399 36.8741 33.5658 35.4016 32.014 35.2527C29.8601 35.046 27.8855 36.4455 27.2707 38.5202C22.7192 53.8792 15.7061 64.7634 17.3413 92.6449C17.5814 96.7383 20.8473 99.9699 24.929 100.362C26.8588 100.547 28.4665 98.906 28.327 96.9723C26.8275 76.1885 32.4005 47.4713 34.3176 38.3993Z" fill="#C9E8FF"/>
<ellipse cx="48.975" cy="73.6597" rx="13.483" ry="14.446" transform="rotate(5.48135 48.975 73.6597)" fill="#89BADD"/>
<path fill-rule="evenodd" clip-rule="evenodd" d="M68.0705 93.6868C67.9202 92.9293 67.9695 92.0741 68.4939 91.5072C71.7619 87.9744 73.9202 83.3626 74.4176 78.18C75.6145 65.7067 66.737 54.65 53.9829 53.4261C41.2289 52.2022 29.9193 61.3217 28.7224 73.7951C27.5254 86.2684 36.8943 97.3722 49.6484 98.5961C52.9579 98.9137 56.1371 98.5316 59.0516 97.5737C59.4387 97.4465 59.8574 97.6272 60.1063 97.9499C61.2351 99.4138 63.3369 99.6854 64.8008 98.5566L66.8309 96.9912C67.8717 96.1886 68.3099 94.8942 68.0705 93.6868Z" fill="#C9E8FF"/>
<rect x="64.1709" y="90.9784" width="3.71943" height="5.77486" rx="1.85971" transform="rotate(52.364 64.1709 90.9784)" stroke="#AAD8FA" stroke-width="1.05529"/>
<ellipse cx="48.1547" cy="75.6553" rx="20.0505" ry="21.1058" transform="rotate(5.48135 48.1547 75.6553)" fill="#C9E8FF"/>
<rect x="50.376" y="55.1387" width="2.38537" height="3.42184" rx="1.19269" transform="rotate(5.48135 50.376 55.1387)" fill="#A1D1F4"/>
<rect x="46.7393" y="92.8685" width="2.32274" height="3.19319" rx="1.16137" transform="rotate(5.48135 46.7393 92.8685)" fill="#A1D1F4"/>
<rect x="63.5273" y="61.741" width="2.42261" height="3.51437" rx="1.21131" transform="rotate(50.4813 63.5273 61.741)" fill="#A1D1F4"/>
<rect width="2.43722" height="3.37268" rx="1.21861" transform="matrix(0.771417 -0.636329 -0.636329 -0.771417 59.7373 91.609)" fill="#A1D1F4"/>
<rect x="67.6406" y="76.2448" width="2.64107" height="3.27599" rx="1.32054" transform="rotate(95.4813 67.6406 76.2448)" fill="#A1D1F4"/>
<ellipse cx="48.4471" cy="75.6859" rx="14.1805" ry="15.9852" transform="rotate(5.48135 48.4471 75.6859)" fill="#72AAD2"/>
<ellipse cx="47.1906" cy="75.565" rx="13.7965" ry="14.782" transform="rotate(5.48135 47.1906 75.565)" fill="#89BADD"/>
<path d="M41.1611 60.134L49.9813 60.9804L47.1573 90.4092L38.3371 89.5628L41.1611 60.134Z" fill="#89BADD"/>
<path d="M47.674 75.614C47.1571 81.0002 42.7165 84.9807 37.7555 84.5046C32.7945 84.0286 29.1918 79.2763 29.7087 73.8901C30.2255 68.5038 34.6662 64.5234 39.6272 64.9994C44.5882 65.4755 48.1909 70.2278 47.674 75.614Z" fill="#37467C"/>
<path d="M48.7013 75.7117C48.1845 81.0979 43.7438 85.0784 38.7828 84.6023C33.8218 84.1262 30.2191 79.3739 30.736 73.9877C31.2529 68.6015 35.6935 64.621 40.6545 65.0971C45.6155 65.5731 49.2182 70.3255 48.7013 75.7117Z" fill="#482B78"/>
<path d="M34.0406 68.2722C34.1988 66.6228 35.5528 65.4034 37.0647 65.5485L44.7299 66.284C46.2418 66.4291 47.3392 67.8838 47.1809 69.5332L46.0346 81.4789C45.8763 83.1283 44.5224 84.3478 43.0104 84.2027L35.3452 83.4671C33.8333 83.322 32.736 81.8673 32.8942 80.218L34.0406 68.2722Z" fill="#482B78"/>
<path d="M46.6053 75.5079C46.1622 80.1262 42.6388 83.5663 38.7357 83.1918C34.8327 82.8173 32.0278 78.7698 32.471 74.1516C32.9142 69.5334 36.4375 66.0932 40.3406 66.4677C44.2437 66.8423 47.0485 70.8897 46.6053 75.5079Z" fill="#5F3A9A"/>
<path opacity="0.3" d="M38.5333 71.9757C40.4551 71.7305 42.4534 73.6102 42.9966 76.1742C43.5398 78.7382 42.4222 81.0155 40.5003 81.2608C38.5785 81.506 36.5802 79.6263 36.037 77.0623C35.4938 74.4983 36.6114 72.221 38.5333 71.9757Z" fill="#A56FFF"/>
<path opacity="0.6" d="M41.6825 68.7053C43.0589 69.7652 42.9765 71.9418 41.4985 73.5669C40.0205 75.192 37.7065 75.6503 36.3301 74.5904C34.9537 73.5306 35.0361 71.354 36.5141 69.7288C37.9921 68.1037 40.3061 67.6454 41.6825 68.7053Z" fill="white"/>
<path fill-rule="evenodd" clip-rule="evenodd" d="M37.467 89.4839C45.0518 90.2118 51.8327 84.214 52.6125 76.0874C53.3923 67.9609 47.8758 60.783 40.291 60.0552C32.7063 59.3273 25.9254 65.3252 25.1456 73.4517C24.3658 81.5782 29.8823 88.7561 37.467 89.4839ZM37.7286 84.1991C42.4604 84.6531 46.7025 80.7885 47.2035 75.5672C47.7045 70.3459 44.2748 65.7452 39.543 65.2911C34.8112 64.837 30.5692 68.7016 30.0681 73.9229C29.5671 79.1442 32.9968 83.745 37.7286 84.1991Z" fill="#EAF6FF"/>
<path d="M37.2424 84.4556C42.0861 84.9204 46.3763 81.0425 46.9043 75.5403C47.4323 70.0381 43.9578 65.4152 39.1141 64.9504C34.2704 64.4856 29.9802 68.3634 29.4522 73.8656C28.9242 79.3678 32.3987 83.9908 37.2424 84.4556Z" stroke="#37467C" stroke-width="0.515653"/>
<path d="M37.5242 84.2233C42.2293 84.6748 46.4044 80.7553 46.9049 75.5401C47.4053 70.3249 44.0518 65.6829 39.3467 65.2314C34.6416 64.7799 30.4666 68.6994 29.9661 73.9146C29.4657 79.1299 32.8192 83.7718 37.5242 84.2233Z" stroke="#37467C" stroke-width="0.515653"/>
<path d="M37.5241 84.2217C42.2291 84.6732 46.4042 80.7537 46.9047 75.5385C47.4051 70.3232 44.0516 65.6813 39.3465 65.2298C34.6511 64.7792 30.2108 68.6625 29.7093 73.8884C29.2078 79.1143 32.8287 83.7711 37.5241 84.2217Z" stroke="#37467C" stroke-width="0.515653"/>
<path d="M26.2189 72.5155C26.2733 71.9485 26.777 71.533 27.344 71.5874C27.9109 71.6418 28.3265 72.1455 28.2721 72.7125L28.075 74.7657C28.0206 75.3327 27.5169 75.7482 26.9499 75.6938C26.383 75.6394 25.9674 75.1356 26.0218 74.5687L26.2189 72.5155Z" fill="#9EBED4"/>
<ellipse cx="25.6389" cy="59.463" rx="2.10949" ry="3.35174" transform="rotate(10.6259 25.6389 59.463)" stroke="#AAD8FA" stroke-width="1.23757"/>
<path d="M27.2991 59.7738C26.9578 61.5931 25.7528 62.8939 24.6077 62.6791C23.4627 62.4642 22.8111 60.8152 23.1525 58.9958C23.4938 57.1764 24.6988 55.8757 25.8438 56.0905C26.9889 56.3053 27.6404 57.9544 27.2991 59.7738Z" fill="white" stroke="#AAD8FA" stroke-width="1.00037"/>
<path d="M38.1023 39.0753C38.2723 37.3035 39.8465 36.005 41.6182 36.175L44.7404 36.4746C46.3422 36.6283 47.5001 38.8773 46.9817 40.4006C46.365 42.2125 45.6733 44.8696 45.0765 48.6978C44.8154 50.3726 43.3486 51.613 41.6561 51.5215L40.2875 51.4475C38.4576 51.3485 37.0784 49.7457 37.2534 47.9215L38.1023 39.0753Z" fill="#72AAD2"/>
<path d="M36.8316 39.9892C37.016 38.0669 38.7239 36.6582 40.6461 36.8426C42.5684 37.0271 43.9771 38.7349 43.7927 40.6571L43.1277 47.5866C42.9432 49.5089 41.2354 50.9176 39.3132 50.7332C37.3909 50.5487 35.9822 48.8409 36.1666 46.9186L36.8316 39.9892Z" fill="#F1F7FF" stroke="#72AAD2" stroke-width="0.999573"/>
<path d="M40.5967 37.3677L39.3653 50.2" stroke="#D2E3F9" stroke-width="1.28913"/>
<path d="M43.2383 40.8577L37.3354 40.2912" stroke="#D2E3F9" stroke-width="1.28913"/>
<path d="M42.9316 44.0679L37.0287 43.5014" stroke="#D2E3F9" stroke-width="1.28913"/>
<path d="M42.623 47.2751L36.7202 46.7087" stroke="#D2E3F9" stroke-width="1.28913"/>
<path fill-rule="evenodd" clip-rule="evenodd" d="M89.898 62.0446L90.0004 65.0441C89.2047 66.1988 87.639 67.6198 86.2562 67.9926C86.1677 68.0165 86.0743 68.0388 85.979 68.0567C85.9664 68.1039 85.9529 68.1578 85.9386 68.2189C85.8365 68.6549 85.7264 69.3151 85.612 70.1663C85.3843 71.861 85.1506 74.227 84.9268 76.8735C84.5079 81.8286 84.127 87.727 83.8873 91.9444C85.7441 91.8127 87.9044 90.7817 88.6199 88.8591L88.0814 91.7718C86.644 93.2398 84.9871 93.5923 83.0332 93.503C82.827 93.4935 82.6331 93.4021 82.4947 93.2489C82.3563 93.0958 82.2848 92.8937 82.2963 92.6876C82.5317 88.4324 82.9364 82.0525 83.3854 76.7432C83.6097 74.0906 83.8459 71.6939 84.0789 69.9603C84.1948 69.0975 84.3127 68.3773 84.4324 67.8663C84.4907 67.6171 84.5581 67.3789 84.6409 67.1902C84.6803 67.1006 84.7443 66.972 84.8462 66.8553C84.9383 66.7498 85.1885 66.5146 85.5806 66.5523C85.5782 66.552 85.5792 66.552 85.5836 66.5516C87.1891 66.4318 90.0992 63.5702 89.898 62.0446Z" fill="#6DB7EC"/>
<rect x="59.6055" y="39.2839" width="12.3757" height="4.12522" rx="2.06261" transform="rotate(1.96844 59.6055 39.2839)" fill="#89C8F5"/>
<rect x="61.4902" y="44.5109" width="8.25045" height="2.06261" rx="1.03131" transform="rotate(1.96844 61.4902 44.5109)" fill="#89C8F5"/>
</svg>
