<?xml version="1.0"?>
<svg xmlns="http://www.w3.org/2000/svg" viewBox="0 0 112 112" fill="none">
<path fill-rule="evenodd" clip-rule="evenodd" d="M25.3107 100.449L43.3005 92.7112C44.7804 92.0746 46.3257 91.6022 47.9087 91.3027L63.0722 88.4329C64.7162 88.1218 66.3194 87.6244 67.8508 86.9503L81.9832 80.7297C83.4576 80.0807 84.9989 79.5954 86.5792 79.2825L105.782 75.4802C106.854 75.1474 107.407 73.8822 107.028 72.6652L89.3469 15.7505C88.9654 14.5225 87.7874 13.8062 86.7242 14.1361L67.5216 17.9384C65.9413 18.2514 64.4001 18.7367 62.9256 19.3857L48.7932 25.6062C47.2619 26.2803 45.6587 26.7776 44.0148 27.0888L28.8511 29.9586C27.2682 30.2582 25.7229 30.7305 24.243 31.3671L6.2532 39.1051C5.18051 39.4379 4.62848 40.7031 5.00656 41.9201L22.6879 98.8348C23.0661 100.052 24.2476 100.779 25.3107 100.449Z" fill="#CFE8EB"/>
<path fill-rule="evenodd" clip-rule="evenodd" d="M24.3222 91.6519C25.0488 93.9906 27.6508 95.1751 29.8916 94.1872L43.2857 88.2816C43.9786 87.9761 44.7033 87.7484 45.4464 87.6025L63.5736 84.0454C64.3169 83.8995 65.0417 83.6717 65.7347 83.3661L82.2577 76.0802C82.9664 75.7677 83.7083 75.5365 84.4691 75.3912L98.3089 72.7471C100.714 72.2875 102.182 69.8352 101.45 67.4983L87.1699 21.8953C86.5476 19.9081 84.5339 18.7028 82.4884 19.0933L67.7232 21.9119C66.9611 22.0574 66.218 22.2889 65.5083 22.6021L48.9995 29.886C48.3036 30.1931 47.5755 30.4217 46.8289 30.5677L28.8249 34.0869C28.0792 34.2326 27.352 34.4609 26.6568 34.7674L12.4044 41.0512C10.4988 41.8913 9.52681 44.0268 10.1447 46.0157L24.3222 91.6519Z" fill="#9AE0F3"/>
<path d="M28.4428 55.3098C27.4914 55.7002 25.7136 57.0521 26.2142 59.3362C25.7253 59.4893 24.1968 59.5796 21.9942 58.7161C19.2409 57.6368 21.0812 60.9437 23.2599 62.7577C25.4386 64.5717 20.3904 65.5979 19.7219 67.7489C19.0533 69.8999 21.9005 69.5629 23.9496 67.5344C25.5888 65.9116 27.0103 67.5929 27.5162 68.6364C28.6833 68.3633 34.4557 64.9099 30.8951 63.1403C27.1185 61.2633 31.3656 61.1785 35.3502 59.3641C36.0614 59.0402 36.699 59.8265 37.0213 59.5575C38.7238 58.1367 35.9186 55.4649 33.9725 54.9649L31.1033 57.805L28.4428 55.3098Z" fill="#2FBC68"/>
<path fill-rule="evenodd" clip-rule="evenodd" d="M52.2727 29.2123L52.2691 31.1757C52.2637 34.1322 54.063 37.9882 56.8844 37.1046C58.3461 36.6468 59.8884 36.4467 60.6984 37.3248C61.5084 38.2028 62.3393 41.8549 61.9895 41.4473C59.1708 38.1628 57.9393 40.8618 57.1431 42.6067C56.8167 43.322 56.5635 43.8769 56.3041 43.7937C55.4119 43.5072 52.9727 45.9687 54.0263 46.7704C54.8691 47.4118 58.2112 51.307 59.7769 53.1744C59.5453 53.2705 59.1176 53.0843 58.6306 52.8722C57.6544 52.4472 56.4397 51.9182 56.0874 53.3519C53.6297 53.409 51.3727 53.9732 53.632 57.9622C51.862 58.6833 49.7067 58.4049 48.4417 58.2415C47.9342 58.176 47.57 58.1289 47.4315 58.1723C46.9919 58.31 46.268 57.8734 45.4152 57.3592C43.9049 56.4485 41.9906 55.2941 40.5357 56.6538C39.8855 57.2616 40.3097 57.934 40.9089 58.8838C41.8681 60.4042 43.2757 62.6354 41.4409 66.4498C41.0436 67.2759 41.3205 68.3014 42.0971 68.7885C44.9324 70.567 47.5009 73.4286 42.0442 75.1375C38.2763 76.3175 36.4836 76.3337 35.4187 76.3433C34.9879 76.3472 34.6762 76.3501 34.4011 76.4284C33.0797 76.805 33.5038 78.7228 34.0095 80.0004C34.762 81.9017 33.9147 83.2164 33.1635 84.382C32.2757 85.7596 31.5222 86.9288 33.7031 88.612C33.7031 88.612 29.8547 89.8173 31.4636 93.4976L43.2871 88.2846C43.98 87.9791 44.7046 87.7513 45.4478 87.6055L63.5749 84.0484C64.3182 83.9025 65.043 83.6747 65.7361 83.3691L82.2591 76.0831C82.9678 75.7706 83.7096 75.5395 84.4704 75.3941L98.3102 72.75C100.653 72.3025 102.106 69.9649 101.504 67.6845L87.1017 21.6947C86.4095 19.8295 84.4644 18.7193 82.4897 19.0963L67.7245 21.9148C66.9624 22.0603 66.2194 22.2919 65.5096 22.605L53.7099 27.8113C53.1841 28.2585 52.703 28.7252 52.2727 29.2123Z" fill="#2FBC68"/>
<ellipse cx="59.1526" cy="30.1579" rx="1.02465" ry="1.05878" transform="rotate(-17.389 59.1526 30.1579)" fill="white"/>
<path fill-rule="evenodd" clip-rule="evenodd" d="M96.0826 50.3606C95.5198 50.3826 94.8792 50.3702 94.293 50.2888C93.8383 50.2256 93.4317 50.1229 93.1226 49.9722C92.8126 49.8211 92.6323 49.6381 92.5667 49.4287C92.4822 49.1587 92.2683 48.9457 92.0183 48.7804C91.7642 48.6125 91.4437 48.4744 91.0951 48.3648C90.3973 48.1454 89.5461 48.0277 88.7856 48.0332C88.4048 48.0359 88.0395 48.0695 87.7231 48.1401C87.4116 48.2095 87.1234 48.3199 86.9186 48.4927C86.7006 48.6767 86.5777 48.9341 86.6316 49.246C86.6811 49.5326 86.8743 49.8271 87.1808 50.1313C87.7413 50.6875 87.9847 51.1607 88.0527 51.5604C88.12 51.9559 88.0214 52.315 87.8255 52.6586C87.6266 53.0074 87.3346 53.3279 87.0306 53.6391C86.9801 53.6908 86.9288 53.7427 86.8774 53.7947L86.8773 53.7947C86.6311 54.0437 86.3829 54.2947 86.2166 54.5337C85.961 54.901 85.3819 55.2833 84.7117 55.6178C84.0546 55.9458 83.3583 56.2047 82.9208 56.3417L83.0739 56.8306C83.5327 56.6869 84.2549 56.4184 84.9404 56.0762C85.6128 55.7407 86.3003 55.3103 86.6371 54.8263C86.7757 54.6272 86.9841 54.4161 87.2295 54.1676C87.2837 54.1127 87.3397 54.0559 87.3971 53.9971C87.7029 53.684 88.0363 53.3232 88.2706 52.9123C88.5078 52.4962 88.6501 52.0171 88.5578 51.4744C88.4662 50.9359 88.1496 50.371 87.5417 49.7676C87.2639 49.492 87.1591 49.2904 87.1364 49.1587C87.118 49.0522 87.1485 48.9691 87.249 48.8843C87.3626 48.7884 87.558 48.7018 87.8346 48.6401C88.1062 48.5796 88.4336 48.548 88.7893 48.5455C89.5018 48.5403 90.2994 48.6517 90.9414 48.8535C91.2627 48.9545 91.5349 49.075 91.7357 49.2078C91.9406 49.3432 92.0437 49.4729 92.0778 49.5818C92.2021 49.9787 92.5218 50.2493 92.8981 50.4328C93.2755 50.6167 93.7416 50.7294 94.2224 50.7962C94.8931 50.8894 95.6221 50.8971 96.241 50.8664L96.0826 50.3606Z" fill="#9AE0F3"/>
<path fill-rule="evenodd" clip-rule="evenodd" d="M91.7951 36.6665C91.6125 36.7692 91.43 36.8822 91.2541 37.0049C90.5876 37.4696 89.9596 38.1125 89.8402 38.9181C89.8289 38.994 89.8075 39.035 89.7899 39.0573C89.7737 39.0779 89.7509 39.0951 89.7117 39.1074C89.6205 39.1359 89.4574 39.1315 89.2055 39.0567C88.711 38.9097 88.038 38.5431 87.3055 38.0753C86.311 37.4403 85.2685 36.6612 84.4777 36.0702L84.4777 36.0702L84.4777 36.0701C84.1014 35.7889 83.7821 35.5503 83.5521 35.3901C83.1292 35.0954 82.682 35.0837 82.2466 35.2245C81.826 35.3605 81.4032 35.6422 80.9912 35.9505C80.8151 36.0822 80.644 36.2163 80.4727 36.3505C80.2255 36.5442 79.978 36.7382 79.7147 36.9258C79.2787 37.2364 78.8441 37.495 78.4051 37.6325C76.8438 38.1214 75.5088 37.2829 74.4657 36.0491C73.4267 34.8201 72.7435 33.2684 72.5138 32.5351C72.383 32.1174 72.0503 31.9041 71.656 31.8446C71.2766 31.7874 70.824 31.8661 70.3664 32.0238C69.4473 32.3407 68.4054 33.0125 67.6789 33.8179L68.0594 34.161C68.7277 33.4201 69.6961 32.7968 70.5334 32.5082C70.9541 32.3632 71.3163 32.3115 71.5796 32.3512C71.828 32.3887 71.9659 32.4996 72.0249 32.6882C72.2699 33.4704 72.9816 35.0872 74.0745 36.3799C75.1633 37.6678 76.6971 38.7042 78.5582 38.1214C79.0738 37.9599 79.5603 37.6648 80.012 37.343C80.2785 37.1531 80.5493 36.9413 80.8079 36.7389C80.9781 36.6057 81.143 36.4767 81.2981 36.3607C81.7067 36.0549 82.0711 35.8197 82.4042 35.712C82.7225 35.6091 82.9954 35.6266 83.2593 35.8104C83.4662 35.9546 83.7698 36.1813 84.1342 36.4535C84.932 37.0495 86.0219 37.8635 87.0297 38.5071C87.7652 38.9768 88.4904 39.3787 89.0596 39.5478C89.3395 39.6309 89.6246 39.6715 89.8647 39.5963C89.9912 39.5567 90.105 39.485 90.1919 39.3749C90.2774 39.2667 90.3258 39.1356 90.3469 38.9933C90.4345 38.4027 90.9137 37.8668 91.5471 37.4251C91.6788 37.3333 91.8148 37.2472 91.9519 37.1671L91.7951 36.6665Z" fill="#9AE0F3"/>
<path fill-rule="evenodd" clip-rule="evenodd" d="M99.2978 60.6305C97.5251 59.7132 95.0492 58.5777 92.8483 57.9854C92.5141 57.8954 92.1876 57.9075 91.8836 58.0253C91.5864 58.1405 91.3454 58.343 91.15 58.579C90.7687 59.0395 90.5003 59.7025 90.2919 60.399C90.0192 61.31 89.8123 62.4256 89.6223 63.4501L89.6223 63.4501C89.5241 63.9794 89.4305 64.4844 89.3346 64.9244C89.1862 65.6049 89.037 66.117 88.8737 66.42C88.8353 66.4913 88.8013 66.5408 88.7736 66.5737C88.7678 66.5806 88.7626 66.5865 88.7579 66.5914C88.7031 66.5607 88.6007 66.4822 88.4523 66.3017C88.2878 66.1015 88.0933 65.8088 87.8664 65.4002C87.4129 64.5834 86.8582 63.355 86.1754 61.6013C84.7971 58.0614 83.5851 55.7045 82.5041 54.1759C81.4279 52.6542 80.4372 51.8909 79.4809 51.6596C78.5056 51.4236 77.6964 51.7718 77.0769 52.1482C76.8568 52.2819 76.6413 52.4319 76.453 52.563C76.3832 52.6116 76.317 52.6577 76.2558 52.6993C76.0074 52.8682 75.8351 52.9679 75.7015 53.0098C75.7032 53.0092 75.704 53.009 75.704 53.0089C75.704 53.0088 75.7033 53.0087 75.7019 53.0087C75.687 53.0081 75.592 53.0042 75.3655 52.8624C75.1191 52.7081 74.8295 52.4627 74.4922 52.1577C74.3968 52.0714 74.2973 51.9801 74.1951 51.8863L74.195 51.8863C73.9506 51.662 73.691 51.4238 73.4341 51.2056C73.0685 50.895 72.6724 50.5929 72.269 50.3885C71.8687 50.1858 71.4 50.0482 70.9188 50.1615C70.4218 50.2786 70.0307 50.6339 69.7342 51.1637C69.1634 52.1835 68.8158 54.0745 68.728 57.2201C68.6593 59.681 68.1209 61.2347 67.3685 62.1724C66.6312 63.0913 65.6382 63.4807 64.4944 63.5092C63.3338 63.5381 62.0332 63.1922 60.76 62.6427C59.4923 62.0956 58.2853 61.3614 57.3222 60.6505L57.3216 60.65L52.0741 56.7475L51.4627 57.5697L56.7116 61.4733L56.7131 61.4744C57.7285 62.224 59.0032 63.0006 60.354 63.5835C61.6996 64.1642 63.1546 64.5675 64.5199 64.5335C65.9021 64.499 67.2052 64.0133 68.1677 62.8136C69.1152 61.6328 69.6803 59.8245 69.7522 57.2487C69.8402 54.0984 70.1933 52.4414 70.6283 51.6641C70.8347 51.2953 71.0228 51.1897 71.1537 51.1589C71.3004 51.1243 71.5083 51.1518 71.806 51.3026C72.1005 51.4518 72.4236 51.6916 72.7708 51.9865C73.0121 52.1915 73.2477 52.4077 73.4855 52.626C73.5913 52.7231 73.6976 52.8206 73.805 52.9178C74.1406 53.2212 74.4901 53.5232 74.8216 53.7308C75.1272 53.9221 75.5616 54.1273 76.0078 53.9876C76.302 53.8954 76.5867 53.7133 76.8319 53.5467C76.9118 53.4923 76.989 53.4386 77.0652 53.3855L77.0652 53.3855C77.2442 53.2609 77.4179 53.14 77.609 53.0238C78.1383 52.7022 78.6542 52.5138 79.24 52.6555C79.8447 52.8018 80.6511 53.3303 81.6675 54.7676C82.6791 56.198 83.8555 58.4671 85.2206 61.9731C85.9095 63.7423 86.4838 65.0208 86.9706 65.8976C87.2139 66.3358 87.4425 66.6867 87.6607 66.9522C87.8734 67.2111 88.1061 67.4259 88.3678 67.5405C88.6594 67.6683 88.9702 67.6618 89.247 67.5007C89.4902 67.3591 89.6567 67.1269 89.7757 66.9062C90.0149 66.4623 90.188 65.8203 90.3357 65.1426C90.4465 64.6341 90.5465 64.0931 90.6474 63.5463L90.6475 63.546C90.8295 62.5607 91.0149 61.557 91.2735 60.6927C91.4729 60.0263 91.6944 59.5282 91.9392 59.2325C92.0569 59.0903 92.1631 59.0159 92.2538 58.9808C92.3377 58.9483 92.4399 58.9366 92.5821 58.9748C95.0954 59.6512 98.0279 61.0871 99.734 62.0237L99.2978 60.6305Z" fill="#9AE0F3"/>
<path fill-rule="evenodd" clip-rule="evenodd" d="M79.3727 19.689C79.1568 19.8103 78.9807 19.9207 78.8467 20.0255C78.749 20.1019 78.7034 20.1526 78.6839 20.1774C78.6869 20.266 78.7092 20.3994 78.7639 20.6043C78.7953 20.7221 78.8324 20.8462 78.8748 20.9879C78.916 21.1256 78.9618 21.2786 79.0039 21.4356C79.1671 22.0437 79.3311 22.8915 78.9404 23.7196C78.544 24.5598 77.6796 25.1756 76.2939 25.6033C74.9029 26.0327 72.8643 26.3118 69.9124 26.3874C68.4404 26.4251 67.2338 26.9988 66.9221 28.0054C66.731 28.6225 66.7981 29.0695 66.9577 29.4522C67.1256 29.8547 67.3991 30.2046 67.7406 30.6415L67.8036 30.7222C68.1381 31.1509 68.5728 31.7133 68.732 32.3987C68.9068 33.1515 68.7304 33.9188 68.1669 34.731C66.3047 37.4149 63.263 40.1995 61.9776 41.2581L60.9884 40.0596C62.2329 39.0347 65.1534 36.3517 66.9011 33.833C67.2849 33.2798 67.2912 32.9463 67.2378 32.7164C67.1688 32.4192 66.9646 32.1175 66.6032 31.6544C66.5757 31.6192 66.5474 31.5831 66.5182 31.546L66.5179 31.5456C66.202 31.1434 65.7985 30.6295 65.5441 30.0196C65.2476 29.309 65.1554 28.489 65.4557 27.5193C66.0659 25.5486 68.187 24.8908 69.8395 24.8485C72.7372 24.7743 74.6156 24.5008 75.8132 24.1311C77.0161 23.7598 77.4118 23.3305 77.5507 23.0361C77.6953 22.7295 77.6699 22.3534 77.5227 21.805C77.4873 21.6729 77.4479 21.5409 77.4058 21.4004L77.4027 21.3899L77.4026 21.3897C77.3627 21.2562 77.3197 21.1126 77.2821 20.9717C77.2159 20.7237 77.1481 20.4219 77.1491 20.1135L79.3727 19.689Z" fill="#9AE0F3"/>
<path fill-rule="evenodd" clip-rule="evenodd" d="M65.0405 86.3208C65.3128 87.1973 66.2876 87.6413 67.1276 87.2715L82.9416 80.3096C83.6569 79.9948 84.022 79.1933 83.7902 78.447L65.6474 20.0472C65.375 19.1704 64.3997 18.7265 63.5596 19.0969L47.7484 26.0681C47.0337 26.3833 46.669 27.1845 46.9007 27.9305L65.0405 86.3208Z" fill="#717C7C" fill-opacity="0.278431"/>
<path fill-rule="evenodd" clip-rule="evenodd" d="M25.5425 100.375L43.836 92.4816C44.7986 92.0662 45.2924 90.9914 44.9806 89.9905L27.1026 32.6008C26.7401 31.4371 25.4482 30.8452 24.3302 31.3304L5.8679 39.3431C5.04121 39.7919 4.6721 40.8682 4.98889 41.8879L22.7248 98.978C23.1396 100.28 24.4838 100.956 25.5425 100.375Z" fill="#717C7C" fill-opacity="0.278431"/>
<path d="M66.4487 44.0651L67.9785 47.598" stroke="#FCFF79" stroke-width="0.819719" stroke-linejoin="round"/>
<path d="M66.3971 44.6263C66.7038 44.0618 67.4495 43.1574 67.9779 44.056C68.5062 44.9547 67.7351 45.5056 67.2836 45.6687C67.8278 45.2909 68.9581 44.7923 69.1251 45.8214C69.3339 47.1076 68.3437 47.1925 67.6662 47.437" stroke="#FCFF79" stroke-width="0.819719" stroke-linecap="round" stroke-linejoin="round"/>
<path d="M51.0068 73.6854C51.8527 70.9279 57.6615 71.9531 56.1514 77.3481C54.4808 83.3163 46.2 78.0257 50.371 71.9222" stroke="#FCFF79" stroke-width="1.02465" stroke-linecap="round" stroke-linejoin="round"/>
<path d="M65.1258 46.3049C64.6786 49.1798 70.1931 51.4866 71.1946 45.9419C72.3025 39.8081 62.7941 39.8641 63.8121 47.4945" stroke="#FCFF79" stroke-width="1.02465" stroke-linecap="round" stroke-linejoin="round"/>
<path d="M67.9633 48.963C68.0006 51.062 70.1026 52.5516 71.3388 53.2474C71.8197 53.5182 72.0671 54.0999 71.873 54.6165L71.5699 55.4231L71.1941 56.4232C71.0315 56.8557 71.1806 57.3446 71.4931 57.685C71.8609 58.0857 72.2968 58.6948 72.4485 59.4458C72.5303 59.8512 72.2569 60.2466 71.9424 60.5153C71.4946 60.898 70.8458 61.5773 70.1831 62.6361C69.9487 63.0105 70.0116 63.4935 70.3124 63.8171L71.4916 65.0856C71.7405 65.3534 71.8279 65.7336 71.7208 66.0832L71.3335 67.3481C71.1406 67.9781 70.4117 68.265 69.8412 67.9353L68.6694 67.2584C68.2996 67.0447 67.8362 67.0828 67.5062 67.354L66.6893 68.0254C66.4343 68.235 66.2958 68.5546 66.3174 68.884L66.4689 71.1953C66.494 71.5776 66.7303 71.914 67.0814 72.0673L68.3513 72.6218C68.7452 72.7937 68.9575 73.2248 68.8538 73.6419L68.836 73.7135C68.6869 74.3133 67.9606 74.549 67.4877 74.151V74.151C67.3602 74.0437 67.2035 73.977 67.0378 73.9595L65.1581 73.7607C64.6956 73.7117 64.2581 73.9805 64.0927 74.4153L63.9155 74.881C63.5775 75.7695 62.3166 75.7586 61.994 74.8643L61.3966 73.2083C61.3214 72.9998 61.1806 72.8213 60.9953 72.6996L59.2501 71.5531C58.8681 71.3021 58.366 71.3346 58.0194 71.6326L55.8778 73.4745" stroke="#FCFF79" stroke-width="1.02465"/>
<path d="M52.1987 76.708L54.2312 75.9748" stroke="#FCFF79" stroke-width="0.819719" stroke-linecap="round" stroke-linejoin="round"/>
<path d="M52.4068 77.9945C52.1344 77.0035 51.7076 74.9244 52.1801 74.5361C52.6525 74.1478 53.7325 76.2454 54.2134 77.3428" stroke="#FCFF79" stroke-width="0.819719" stroke-linecap="round"/>
<path d="M43.5904 44.4622L45.893 43.4746C46.3446 43.2809 46.5293 42.739 46.29 42.3099C45.9087 41.6259 44.062 41.3001 43.3228 41.0415C42.8342 40.8705 42.3098 40.5795 41.8308 40.2621C41.2422 39.872 40.456 39.8819 39.8618 40.2634C38.8515 40.9121 37.4219 41.5501 36.1268 41.3329C33.8531 40.9515 33.8468 47.1842 35.2794 46.3855C36.3475 45.7901 38.326 46.4902 39.3627 46.9981C39.5042 47.0675 39.6304 47.1631 39.7408 47.2756L39.9005 47.4384C40.7802 48.3351 42.3057 47.8551 42.5134 46.6163L42.6804 45.6205C42.7669 45.1047 43.1098 44.6683 43.5904 44.4622Z" fill="#2FBC68"/>
<circle cx="46.0087" cy="80.7635" r="1.02465" transform="rotate(-17.389 46.0087 80.7635)" fill="white"/>
<circle cx="82.2958" cy="45.7782" r="1.02465" transform="rotate(-17.389 82.2958 45.7782)" fill="white"/>
</svg>
