<?xml version="1.0"?>
<svg xmlns="http://www.w3.org/2000/svg" viewBox="0 0 112 112" fill="none">
<mask id="mask0" mask-type="alpha" maskUnits="userSpaceOnUse" x="0" y="0" width="112" height="112">
<rect width="112" height="112" fill="white"/>
</mask>
<g mask="url(#mask0)">
<path d="M61.7995 -37.332C61.9454 -38.3482 62.8718 -39.065 63.8922 -38.9512L71.5198 -38.1003C72.5591 -37.9843 73.3096 -37.0508 73.1997 -36.0109L67.7788 15.2708C67.6932 16.0806 68.1328 16.855 68.872 17.1965L69.2866 17.3881C69.9462 17.6929 70.3744 18.3469 70.3899 19.0732L70.4199 20.4682C70.4448 21.6319 69.4276 22.5447 68.2733 22.3942L55.4069 20.7172C54.3561 20.5802 53.6201 19.6105 53.7708 18.5616L61.7995 -37.332Z" fill="#70522E"/>
<path d="M42.4873 51.8706C43.4356 43.3704 41.548 40.2903 42.3212 33.3599C43.2314 25.2002 49.6729 20.6066 56.4631 19.5626C56.4637 19.5573 62.4089 20.2246 65.7448 20.5963C76.1001 21.7501 87.0938 26.4851 85.7859 38.2087C85.0128 45.1391 82.4929 47.7275 81.5446 56.2278C80.5689 64.9742 91.1193 70.3708 87.7542 86.2561C85.9067 94.9774 80.247 106.459 56.4621 103.806L46.5508 102.7C37.1946 97.6002 29.7275 86.1526 29.813 79.7923C30.0313 63.5559 41.5116 60.617 42.4873 51.8706Z" fill="#975F2B"/>
<path d="M33.5058 32.3745C34.8488 20.336 46.5762 18.4573 56.9295 19.6109C67.2847 20.7647 78.2785 25.4997 76.9706 37.2234C76.1975 44.1537 73.6776 46.7421 72.7293 55.2424C71.7536 63.9888 82.3039 69.3854 78.9389 85.2707C77.0914 93.992 71.4317 105.474 47.6468 102.821C25.9175 100.396 20.8778 87.721 20.9976 78.8069C21.216 62.5706 32.6962 59.6317 33.672 50.8853C34.6202 42.385 32.7327 39.3049 33.5058 32.3745Z" fill="#F5D561"/>
<ellipse cx="53.3342" cy="50.4536" rx="8.8724" ry="10.7736" transform="rotate(6.36545 53.3342 50.4536)" fill="#805334"/>
<path d="M35.8588 81.3757C35.919 80.8362 36.4051 80.4477 36.9445 80.5079L62.7038 83.3815C63.2432 83.4417 63.6318 83.9278 63.5716 84.4672C63.2437 87.4063 60.5954 89.5231 57.6563 89.1952L40.5868 87.2909C37.6477 86.9631 35.5309 84.3147 35.8588 81.3757Z" fill="#976F3D"/>
<path d="M39.5795 83.3783C39.6488 82.7565 40.2092 82.3087 40.831 82.378L57.9721 84.2903C58.5939 84.3596 59.0418 84.9199 58.9724 85.5418C58.903 86.1636 58.3427 86.6114 57.7209 86.5421L40.5798 84.6298C39.958 84.5605 39.5101 84.0001 39.5795 83.3783Z" fill="#F6E7CF"/>
<path d="M58.9575 -35.1026C59.1227 -36.0998 60.0394 -36.7935 61.044 -36.6814L68.7163 -35.8255C69.7534 -35.7098 70.5034 -34.7799 70.3969 -33.7419L63.4751 33.7171C63.3673 34.7681 62.4231 35.5297 61.373 35.4125L49.5259 34.0909C48.443 33.9701 47.683 32.9657 47.861 31.8907L58.9575 -35.1026Z" fill="#8B6A4A"/>
<path d="M42.7066 83.6193L60.408 -35.8031L63.842 -46.5793" stroke="#FFFAF3" stroke-width="1.01399" stroke-linecap="round"/>
<path d="M56.6497 84.8235L68.6318 -35.1962L71.4711 -46.3575" stroke="#FFFAF3" stroke-width="1.01399" stroke-linecap="round"/>
<path d="M47.0865 84.0241L62.9977 -36.1472L66.1921 -59.0659" stroke="#FFFAF3" stroke-width="1.01399" stroke-linecap="round"/>
<path d="M51.8681 84.4202L65.5163 -35.8674L73.4696 -58.574" stroke="#FFFAF3" stroke-width="1.01399" stroke-linecap="round"/>
<path fill-rule="evenodd" clip-rule="evenodd" d="M69.1447 81.9691C72.5713 82.7768 76.0039 80.6539 76.8116 77.2273C77.6194 73.8008 75.4964 70.3682 72.0699 69.5604C68.6433 68.7526 65.2107 70.8756 64.4029 74.3022C63.5952 77.7287 65.7181 81.1613 69.1447 81.9691Z" fill="#CEB350"/>
<circle cx="70.2891" cy="74.6081" r="5.65728" transform="rotate(13.2644 70.2891 74.6081)" fill="#94E1D3" stroke="white" stroke-width="1.43424"/>
<path fill-rule="evenodd" clip-rule="evenodd" d="M68.9629 76.7631C69.6782 75.6637 70.186 73.5691 70.2642 72.979L71.2599 73.9524C71.1627 74.6853 70.8553 76.6746 70.3306 77.9065C69.807 79.1357 70.1597 79.0408 69.0066 80.0503L66.706 78.9032C67.6158 78.1068 68.1531 78.0075 68.9629 76.7631Z" fill="#96794D"/>
<circle cx="70.2891" cy="74.6081" r="5.65728" transform="rotate(13.2644 70.2891 74.6081)" stroke="white" stroke-width="1.43424"/>
<path d="M68.2945 71.9218C69.8097 71.295 70.622 71.8506 71.038 72.7515C71.3475 73.4219 70.4501 73.8252 69.8114 73.4548C69.3616 73.1939 68.9492 73.0582 68.5698 72.9904C67.8625 72.8641 67.6306 72.1964 68.2945 71.9218Z" fill="#2FB85D"/>
<path d="M70.9466 72.9157C72.9578 72.1466 73.875 73.4307 74.2075 74.8185C74.2986 75.1987 73.7917 75.4033 73.4841 75.1621C72.7681 74.6008 71.9511 74.3151 71.1978 74.1563C70.4948 74.0081 70.2756 73.1723 70.9466 72.9157Z" fill="#2FB85D"/>
<path d="M71.3343 73.4263C72.0992 74.4403 72.0277 75.4419 71.6341 76.2641C71.3241 76.9115 70.4866 76.5138 70.4352 75.7979C70.3943 75.2276 70.3139 74.6616 70.2159 74.1373C70.0792 73.4064 70.8865 72.8327 71.3343 73.4263Z" fill="#2FB85D"/>
<rect x="64.8526" y="57.3788" width="6.69311" height="6.69311" rx="3.34656" transform="rotate(22.145 64.8526 57.3788)" fill="#9683E4" stroke="white" stroke-width="1.27488"/>
<path d="M65.5464 61.2793C65.8781 60.4643 66.8102 60.0735 67.6252 60.4052C68.4402 60.7369 68.8345 61.6675 68.5029 62.4824C68.1712 63.2974 67.2391 63.6882 66.4241 63.3565C65.6091 63.0248 65.2147 62.0942 65.5464 61.2793Z" fill="#AE9CF7"/>
<path d="M35.7137 40.4045C34.5818 28.9936 39.6254 23.2199 44.2103 23.6102C45.3536 23.7075 46.3646 24.6475 46.2372 25.7879C45.8809 28.9783 40.4112 31.7468 37.302 40.5167C37.015 41.3263 35.7985 41.2593 35.7137 40.4045Z" fill="#FFF383"/>
</g>
</svg>
