<?xml version="1.0"?>
<svg xmlns="http://www.w3.org/2000/svg" viewBox="0 0 112 112" fill="none">
<path d="M64.1912 104.926C53.8685 106.971 44.3708 102.927 42.9775 95.8944C41.5842 88.8615 48.8229 81.5026 59.1456 79.4579C69.4682 77.4132 78.9659 81.4569 80.3592 88.4898C81.7525 95.5227 74.5138 102.882 64.1912 104.926Z" fill="#9EC6EB"/>
<path d="M62.8885 98.3343C52.5763 100.377 43.2357 97.0811 42.0255 90.973C40.8154 84.8648 48.1941 78.2573 58.5063 76.2146C68.8185 74.172 78.1592 77.4678 79.3693 83.5759C80.5794 89.6841 73.2007 96.2916 62.8885 98.3343Z" fill="#404560" stroke="#404560" stroke-width="4.95652"/>
<path d="M29.9843 30.214C28.2104 21.2634 34.0284 12.5695 42.979 10.7957L47.9104 9.81836C56.8611 8.04453 65.555 13.8625 67.3288 22.8131L78.2489 77.9154C79.254 82.9874 75.9572 87.9139 70.8852 88.9191L51.9081 92.6799C46.836 93.6851 41.9095 90.3883 40.9043 85.3162L29.9843 30.214Z" fill="#9EC6EB"/>
<path d="M62.474 96.2469C52.1513 98.2916 42.6552 94.256 41.2639 87.2332C39.8726 80.2104 47.1129 72.8597 57.4356 70.815C67.7583 68.7702 77.2543 72.8058 78.6457 79.8286C80.037 86.8514 72.7967 94.2021 62.474 96.2469Z" fill="#9EC6EB"/>
<path d="M52.4072 45.4552C42.095 47.4978 32.7517 44.1887 31.5383 38.064C30.3249 31.9393 37.701 25.3184 48.0132 23.2758C58.3254 21.2332 67.6687 24.5423 68.8821 30.667C70.0954 36.7916 62.7194 43.4125 52.4072 45.4552Z" fill="#404560" stroke="#404560" stroke-width="4.95652"/>
<path d="M29.4498 27.5127C27.5578 17.9654 33.7636 8.69188 43.3109 6.7998L46.0784 6.25133C55.6258 4.35926 64.8992 10.5651 66.7913 20.1124L68.2818 27.6332C68.3455 27.9549 68.1364 28.2674 67.8147 28.3311L31.6382 35.5005C31.3165 35.5643 31.004 35.3552 30.9403 35.0335L29.4498 27.5127Z" fill="#9EC6EB"/>
<path d="M51.9487 43.1354C41.626 45.1801 32.143 41.2107 30.7679 34.2694C29.3927 27.3281 36.6461 20.0435 46.9688 17.9988C57.2915 15.9541 66.7744 19.9235 68.1496 26.8648C69.5248 33.8061 62.2714 41.0907 51.9487 43.1354Z" fill="#9EC6EB"/>
<path d="M33.6992 30.6733L33.2869 28.5928C32.8559 26.4179 35.1881 24.766 37.3663 25.18C40.6415 25.8026 44.0566 27.5218 44.7047 30.792L44.9758 32.1601C45.6656 35.6408 42.7821 39.201 39.3832 38.1821C38.6874 37.9735 38.0208 37.705 37.3923 37.3543C35.0691 36.058 34.2164 33.283 33.6992 30.6733Z" fill="#D9EAFF"/>
<path d="M47.123 18.7831C42.2506 19.7482 37.8722 18.3682 37.3438 15.7008C36.8153 13.0333 40.3369 10.0885 45.2093 9.1234C50.0818 8.15826 54.4601 9.53824 54.9886 12.2057C55.517 14.8731 51.9955 17.8179 47.123 18.7831Z" fill="#AED6FB"/>
<path d="M43.672 80.9877L38.5195 54.9884C38.1322 53.0338 40.4405 51.8521 42.432 51.9187C45.6633 52.0269 48.3155 53.598 48.944 56.7694L54.5767 85.1918C55.2271 88.4737 52.8742 91.8647 49.844 90.4463C49.4017 90.2393 48.9483 89.9888 48.4861 89.6876C45.6063 87.8111 44.3402 84.3593 43.672 80.9877Z" fill="#D9EAFF"/>
<path d="M83.3908 82.2668L81.8224 82.4248C81.543 82.4529 81.3308 82.6872 81.3175 82.9677C81.1773 85.9282 80.0424 88.4455 78.5681 90.2209C78.3145 90.5263 78.4214 91.0031 78.7927 91.1435L81.9748 92.3467C83.9367 93.0886 86.0844 91.8384 86.4082 89.7661L86.9866 86.0647C87.3207 83.9268 85.5438 82.0501 83.3908 82.2668Z" stroke="#D7ECFF" stroke-width="3.30435"/>
<path d="M81.194 80.9644C81.2062 86.2251 80.021 87.7164 77.4647 91.361" stroke="#404560" stroke-width="4.75064" stroke-linecap="round"/>
<path fill-rule="evenodd" clip-rule="evenodd" d="M66.6479 47.2256L73.0496 39.3795C85.5075 48.9065 85.4371 86.9404 80.2963 91.7289C78.1866 93.6939 77.8052 91.8849 77.7803 89.9843C77.7641 88.7419 76.5037 85.274 76.3668 84.0391C74.6026 68.1211 75.7528 64.3742 66.6479 47.2256Z" fill="#F75B5B"/>
<path d="M66.4732 46.6239C72.0809 52.8808 73.4921 64.6708 74.8054 72.441C76.136 80.314 75.1273 79.3217 76.0094 86.0193" stroke="#FF9999" stroke-width="1.78149"/>
<path d="M71.3274 37.6655L69.3022 35.9915C69.0139 35.7532 68.5765 35.8659 68.4188 36.2051C67.1824 38.8639 65.2026 40.7547 63.1923 41.8347C62.8911 41.9965 62.7838 42.3842 62.9777 42.666L64.1935 44.4328C65.371 46.1439 67.8165 46.3572 69.2724 44.8757L71.579 42.5286C72.9366 41.1471 72.8204 38.8995 71.3274 37.6655Z" stroke="#D7ECFF" stroke-width="3.30435"/>
<path d="M81.8191 90.6067L79.7939 88.9327C79.5056 88.6944 79.0682 88.8071 78.9105 89.1463C77.6741 91.805 75.6943 93.6959 73.684 94.7758C73.3828 94.9377 73.2755 95.3254 73.4694 95.6071L74.6852 97.374C75.8627 99.0851 78.3082 99.2983 79.7641 97.8169L82.0707 95.4697C83.4283 94.0883 83.3121 91.8407 81.8191 90.6067Z" stroke="#D7ECFF" stroke-width="3.30435"/>
<path d="M69.5541 34.616C67.6751 39.5296 65.3439 41.3814 61.1068 43.7574" stroke="#404560" stroke-width="4.75064" stroke-linecap="round"/>
<path d="M80.0463 87.5571C78.1673 92.4708 75.8361 94.3226 71.599 96.6985" stroke="#404560" stroke-width="4.75064" stroke-linecap="round"/>
</svg>
