<?xml version="1.0"?>
<svg xmlns="http://www.w3.org/2000/svg" viewBox="0 0 112 112" fill="none">
<path fill-rule="evenodd" clip-rule="evenodd" d="M25.7832 96.0202C25.6676 99.5905 21.6659 101.419 18.6948 99.4356L8.91114 92.9051C7.47823 91.907 6.84904 90.093 7.44501 88.4516C11.0697 78.4685 39.0163 31.3611 50.2944 27.0894C48.4007 25.4925 48.0654 22.6847 49.5107 20.6729C52.1305 17.026 55.6906 12.0559 57.1505 10.3603C57.2937 10.194 57.4437 10.0197 57.6014 9.83654C59.0723 8.12717 61.6757 7.97122 63.4629 9.34664C73.3912 16.9877 90.0723 22.0029 101.532 19.8738C103.856 19.9158 105.672 21.5522 105.368 23.8568C103.384 38.9205 90.5375 62.7935 74.0871 64.8532C73.5993 64.9143 73.1071 64.8003 72.6811 64.5549L68.5791 61.1253C67.7669 60.6574 67.3046 59.7425 67.3643 58.8071C68.9365 34.1584 52.6411 35.4344 50.1485 39.1961C50.1241 39.233 50.1007 39.2694 50.0773 39.3057C50.0395 39.3644 50.002 39.4226 49.9612 39.4814C49.7485 39.7881 49.1968 40.5873 48.3945 41.7754C47.098 43.6954 46.5116 46.1232 45.9344 48.5129C45.6155 49.8329 45.2995 51.1413 44.8681 52.3461C44.4381 53.5473 43.823 54.813 43.0356 56.058C41.5874 58.3475 39.8492 60.1036 38.2572 61.0432C38.1438 61.1101 38.0291 61.1771 37.9137 61.2446C36.6509 61.9826 35.2997 62.7723 34.5982 64.0303C33.9049 65.2737 33.8987 66.8637 33.8928 68.3898C33.8905 68.9646 33.8883 69.5303 33.8495 70.0651C33.7081 72.0114 32.8299 74.4979 31.3062 76.9069C30.675 77.9047 29.9888 78.8012 29.2836 79.5729C29.2049 79.659 29.1259 79.7453 29.0467 79.8317C27.408 81.6204 25.6849 83.5013 25.2906 85.8811C24.9975 87.6497 25.0007 89.1585 25.3766 90.318C25.7859 91.5806 25.856 93.771 25.7832 96.0202Z" fill="#494D62"/>
<path fill-rule="evenodd" clip-rule="evenodd" d="M29.2223 81.1456L29.2956 81.0687C30.0792 80.2461 30.8309 79.2845 31.5101 78.2138C33.022 75.8304 33.9447 73.267 34.0743 71.1116C34.1055 70.5933 34.1026 70.0617 34.0981 69.5781L34.0968 69.4436C34.0924 68.9948 34.0884 68.5839 34.1024 68.1809C34.1338 67.2772 34.2544 66.6501 34.502 66.2055C34.6926 65.8634 35.0189 65.5294 35.5234 65.1695C35.9529 64.863 36.4185 64.599 36.9536 64.2957C37.0672 64.2313 37.184 64.165 37.3042 64.0963C39.0879 63.076 40.8838 61.2478 42.3219 58.9809C43.1116 57.7359 43.7316 56.4569 44.1654 55.2234C44.5892 54.0187 44.9037 52.6654 45.1956 51.41C45.3058 50.9358 45.4128 50.4754 45.5212 50.0425C45.9416 48.3631 46.411 46.9365 47.1734 45.8129C47.9116 44.725 48.4186 43.9948 48.6121 43.7174C48.6665 43.6394 48.7145 43.5651 48.7472 43.5145L48.7514 43.508L48.7556 43.5014C49.2581 42.7161 49.0602 41.6519 48.2712 41.0678L40.2564 35.1338C39.5116 34.5824 38.4728 34.6984 37.9061 35.3964C23.4362 53.2163 15.0273 67.4016 10.2496 77.2624C9.86714 78.0518 10.1787 79.0146 10.9628 79.4665L23.6857 86.8003C24.1722 87.0808 24.7606 87.1138 25.2625 86.889C25.7643 86.6641 26.1166 86.2095 26.2066 85.6708C26.4673 84.1091 27.6429 82.8028 29.2223 81.1456Z" fill="#F7C74C"/>
<path d="M70.471 61.5159C85.7462 56.4431 100.618 32.2657 98.2512 20.9054C98.1732 20.531 98.433 20.1644 98.8145 20.1379C99.9804 20.0567 101.038 20.001 102.031 19.9389C104.169 19.8051 106.116 21.4041 105.877 23.5333C104.333 37.3181 92.3172 60.5836 75.2184 65.0822C74.1384 65.3664 73.0032 65.0345 72.1688 64.2923L70.2407 62.5771C69.8828 62.2587 70.0164 61.6668 70.471 61.5159Z" fill="#BBCCDB"/>
<path d="M90.5768 23.5001L87.5919 22.6415C86.8243 22.4206 86.0627 22.9922 86.046 23.7908C85.9674 27.5436 85.4618 32.3241 81.1294 41.6522C80.6081 42.7744 81.7546 43.727 82.6146 42.8373C87.894 37.3747 90.3511 29.3761 91.4125 24.9112C91.5595 24.2928 91.1877 23.6758 90.5768 23.5001Z" fill="#7A80A3"/>
<path d="M18.9872 73.7757C22.7681 65.6239 34.4893 51.5762 40.8103 43.822C41.4799 43.0006 41.4671 41.8241 40.7876 41.0108C39.9372 39.9931 38.3892 39.943 37.5162 40.9414C29.5028 50.1059 20.6782 65.0823 16.246 72.4909C15.8241 73.1961 16.0606 74.1053 16.7697 74.5205C17.5676 74.9876 18.5982 74.6144 18.9872 73.7757Z" fill="#FFE456"/>
</svg>
