<?xml version="1.0"?>
<svg xmlns="http://www.w3.org/2000/svg" viewBox="0 0 112 112" fill="none">
<path d="M35.0944 31.0638C34.6178 27.7891 36.8861 24.748 40.1609 24.2714L80.9224 18.3389C84.1971 17.8623 87.2382 20.1306 87.7148 23.4053L96.8667 86.2871C97.5988 91.317 94.1147 95.988 89.0849 96.72L45.5719 103.053L35.0944 31.0638Z" fill="#FF9B81"/>
<path d="M33.0705 31.358C32.5939 28.0833 34.8622 25.0422 38.1369 24.5656L77.8865 18.7804C81.1613 18.3037 84.2023 20.5721 84.6789 23.8468L94.42 90.7763C94.8267 93.5707 92.8911 96.1657 90.0968 96.5724L43.548 103.347L33.0705 31.358Z" fill="#EE6052"/>
<mask id="path-3-inside-1" fill="white">
<rect x="32.0889" y="9.94531" width="30.3524" height="33.4842" rx="2.89553" transform="rotate(-8.28082 32.0889 9.94531)"/>
</mask>
<rect x="32.0889" y="9.94531" width="30.3524" height="33.4842" rx="2.89553" transform="rotate(-8.28082 32.0889 9.94531)" fill="#EDCD9E" stroke="#E1F3F2" stroke-width="7.23883" mask="url(#path-3-inside-1)"/>
<path d="M40.4245 15.5858C38.6856 14.9733 39.0708 25.0684 39.387 28.0279L61.3607 24.8298L60.4828 18.798C60.4563 19.4029 59.746 20.3477 57.1171 19.2878C53.831 17.963 55.0279 12.0179 52.541 13.8223C50.054 15.6268 47.539 19.5999 45.5196 19.8938C43.5002 20.1877 42.5981 16.3515 40.4245 15.5858Z" fill="#E4C18D"/>
<path fill-rule="evenodd" clip-rule="evenodd" d="M88.1263 26.2339L87.735 23.5456C87.2471 20.1933 84.2701 17.851 81.0859 18.3145L77.6265 18.818C77.6034 19.3223 77.6275 19.8363 77.7032 20.3565C78.3132 24.5476 82.0342 27.4747 86.0146 26.8954C86.7679 26.7857 87.4765 26.5585 88.1263 26.2339Z" fill="#FFF58C"/>
<path fill-rule="evenodd" clip-rule="evenodd" d="M85.2935 27.0023L84.8517 23.9672C84.3638 20.6149 81.3868 18.2727 78.2026 18.7361L76.9053 18.9249C76.8822 19.4292 76.9063 19.9433 76.982 20.4635C77.592 24.6545 81.313 27.5816 85.2935 27.0023Z" fill="#F38A56"/>
<path fill-rule="evenodd" clip-rule="evenodd" d="M96.9177 86.6357L97.3089 89.3241C97.7968 92.6765 95.611 95.7702 92.4268 96.2336L88.9674 96.7371C88.8015 96.2603 88.6781 95.7607 88.6024 95.2405C87.9924 91.0493 90.7247 87.1829 94.7051 86.6036C95.4583 86.494 96.2024 86.5098 96.9177 86.6357Z" fill="#FFF58C"/>
<path fill-rule="evenodd" clip-rule="evenodd" d="M93.9829 86.7069L94.4247 89.7421C94.9126 93.0944 92.7267 96.1882 89.5425 96.6516L88.2452 96.8404C88.0793 96.3636 87.9559 95.864 87.8802 95.3438C87.2702 91.1526 90.0025 87.2862 93.9829 86.7069Z" fill="#F38A56"/>
<path d="M28.3063 34.1189C27.8297 30.8441 30.098 27.8031 33.3728 27.3265L74.1343 21.3939C77.409 20.9173 80.4501 23.1856 80.9267 26.4604L89.9314 88.3303C90.4194 91.6835 88.0967 94.7975 84.7435 95.2855L38.1947 102.06L28.3063 34.1189Z" fill="#EBF3F7"/>
<rect x="81.0425" y="72.2753" width="1.67942" height="10.574" rx="0.83971" transform="rotate(-8.28082 81.0425 72.2753)" fill="#DAE2E5"/>
<rect x="77.9233" y="51.7164" width="1.4275" height="14.9797" rx="0.713749" transform="rotate(-8.28082 77.9233 51.7164)" fill="#DAE2E5"/>
<rect x="76.0894" y="39.1172" width="1.4275" height="5.99188" rx="0.713749" transform="rotate(-8.28082 76.0894 39.1172)" fill="#DAE2E5"/>
<rect x="74.1479" y="25.7751" width="1.4275" height="10.4858" rx="0.713749" transform="rotate(-8.28082 74.1479 25.7751)" fill="#DAE2E5"/>
<path d="M84.4036 76.4219C84.3468 76.0318 84.617 75.6696 85.0071 75.6128C85.3972 75.556 85.7594 75.8262 85.8162 76.2163L87.2784 86.2631C87.3352 86.6532 87.065 87.0155 86.6749 87.0723C86.2848 87.129 85.9226 86.8588 85.8658 86.4687L84.4036 76.4219Z" fill="#DAE2E5"/>
<path d="M83.3723 85.8722C83.3156 85.4821 83.5858 85.1199 83.9758 85.0631C84.3659 85.0063 84.7282 85.2765 84.7849 85.6666L85.6581 91.6657C85.7148 92.0558 85.4446 92.4181 85.0546 92.4749C84.6645 92.5316 84.3022 92.2614 84.2455 91.8713L83.3723 85.8722Z" fill="#DAE2E5"/>
<rect x="81.8271" y="58.7167" width="1.4275" height="10.4858" rx="0.713749" transform="rotate(-8.28082 81.8271 58.7167)" fill="#DAE2E5"/>
<rect x="80.5327" y="49.822" width="1.4275" height="5.99188" rx="0.713749" transform="rotate(-8.28082 80.5327 49.822)" fill="#DAE2E5"/>
<rect x="77.9443" y="32.0352" width="1.4275" height="14.9797" rx="0.713749" transform="rotate(-8.28082 77.9443 32.0352)" fill="#DAE2E5"/>
<path d="M19.9157 33.2735C19.4391 29.9988 21.7074 26.9577 24.9821 26.4811L64.7317 20.6959C68.0065 20.2193 71.0475 22.4876 71.5241 25.7623L80.6761 88.6441C81.4082 93.674 77.9241 98.345 72.8942 99.077L32.4171 104.968C31.2993 105.131 30.2613 104.357 30.0986 103.239L19.9157 33.2735Z" fill="#FF9B81"/>
<path d="M16.8796 33.7152C16.403 30.4405 18.6713 27.3994 21.946 26.9228L62.7076 20.9903C65.9823 20.5136 69.0233 22.782 69.4999 26.0567L79.5356 95.0101C79.7796 96.6867 78.6182 98.2437 76.9416 98.4877L34.4406 104.673C30.5284 105.243 26.8955 102.533 26.3261 98.6209L16.8796 33.7152Z" fill="#FF6D60"/>
<path d="M16.8791 33.716C16.4025 30.4413 18.6708 27.4003 21.9455 26.9236L26.1354 26.3138L37.4759 104.232L33.4282 104.822C30.0749 105.31 26.9609 102.987 26.4729 99.6337L16.8791 33.716Z" fill="#EE6052"/>
<rect x="26.1787" y="28.2148" width="1.4275" height="7.48984" rx="0.713749" transform="rotate(-8.28082 26.1787 28.2148)" fill="#D96241"/>
<rect x="27.689" y="38.5914" width="1.4275" height="7.48984" rx="0.713749" transform="rotate(-8.28082 27.689 38.5914)" fill="#D96241"/>
<rect x="29.1992" y="48.9685" width="1.4275" height="7.48984" rx="0.713749" transform="rotate(-8.28082 29.1992 48.9685)" fill="#D96241"/>
<rect x="30.7095" y="59.3436" width="1.4275" height="7.48984" rx="0.713749" transform="rotate(-8.28082 30.7095 59.3436)" fill="#D96241"/>
<rect x="32.2192" y="69.7189" width="1.4275" height="7.48984" rx="0.713749" transform="rotate(-8.28082 32.2192 69.7189)" fill="#D96241"/>
<rect x="33.7295" y="80.0978" width="1.4275" height="7.48984" rx="0.713749" transform="rotate(-8.28082 33.7295 80.0978)" fill="#D96241"/>
<rect x="35.332" y="91.1101" width="1.4275" height="7.48984" rx="0.713749" transform="rotate(-8.28082 35.332 91.1101)" fill="#D96241"/>
<path fill-rule="evenodd" clip-rule="evenodd" d="M72.3027 27.9656L71.9206 25.3396C71.444 22.0651 68.5277 19.7784 65.4071 20.2326L62.0168 20.726C61.994 21.2187 62.0174 21.7208 62.0913 22.2289C62.6872 26.3228 66.3322 29.1805 70.2331 28.6127C70.9713 28.5053 71.6659 28.283 72.3027 27.9656Z" fill="#FFF58C"/>
<path fill-rule="evenodd" clip-rule="evenodd" d="M69.5269 28.7172L69.0954 25.7525C68.6188 22.478 65.7025 20.1913 62.5819 20.6454L61.3105 20.8305C61.2877 21.3231 61.3111 21.8253 61.3851 22.3334C61.9809 26.4272 65.626 29.2849 69.5269 28.7172Z" fill="#FFBB59"/>
<path fill-rule="evenodd" clip-rule="evenodd" d="M81.1755 88.9278L81.5667 91.6162C82.0547 94.9686 79.9204 98.0548 76.7998 98.509L73.4095 99.0024C73.2455 98.5253 73.1231 98.0256 73.0474 97.5054C72.4374 93.3142 75.1052 89.4572 79.0061 88.8894C79.7443 88.782 80.4738 88.7999 81.1755 88.9278Z" fill="#FFF58C"/>
<path fill-rule="evenodd" clip-rule="evenodd" d="M78.2983 88.9902L78.7401 92.0254C79.228 95.3777 77.0937 98.464 73.9731 98.9182L72.7017 99.1032C72.5377 98.6261 72.4153 98.1264 72.3396 97.6062C71.7296 93.415 74.3974 89.558 78.2983 88.9902Z" fill="#FFBB59"/>
<path d="M60.3461 59.6086C64.5158 62.9291 54.3384 67.222 51.5834 75.4194L50.758 72.9567C52.1137 67.5768 57.2207 57.1198 60.3461 59.6086Z" fill="#54D296"/>
<path d="M59.3955 51.3093C63.2031 54.4619 53.4649 56.4163 51.5788 64.2736L50.8452 62.0845C53.5369 52.9832 57.5484 49.78 59.3955 51.3093Z" fill="#54D296"/>
<path d="M45.6032 49.2656C50.4346 47.7687 46.054 57.0207 51.1601 62.8617L48.9699 62.2938C43.3645 55.1013 43.2595 49.9917 45.6032 49.2656Z" fill="#54D296"/>
<path d="M43.7749 60.7019C49.1956 58.5459 44.972 69.5135 51.3511 75.7091L48.7846 75.2635C41.7134 67.5712 41.1453 61.7477 43.7749 60.7019Z" fill="#54D296"/>
<path d="M60.3841 42.269C64.1918 45.4216 53.9021 47.8955 52.016 55.7528L51.8338 53.0443C54.5256 43.943 58.537 40.7397 60.3841 42.269Z" fill="#54D296"/>
<path d="M59.0705 33.2838C63.3127 35.8047 53.9017 39.2036 53.153 47.2128L52.1085 45.1724C53.4804 35.8182 57.0127 32.0609 59.0705 33.2838Z" fill="#54D296"/>
<path d="M49.5712 39.7748C54.5561 39.2887 48.5007 47.5309 52.3252 54.3524L50.3079 53.341C46.2612 45.0813 47.1531 40.0106 49.5712 39.7748Z" fill="#54D296"/>
<path d="M54.8293 38.7029C51.7112 52.5614 49.9107 73.9562 53.2437 85.7483C53.4403 86.444 53.0828 87.2071 52.4112 87.47C51.7396 87.7329 51.008 87.3942 50.801 86.7021C46.0989 70.9848 50.2237 50.4285 54.0105 38.415C54.322 37.4269 55.0564 37.6937 54.8293 38.7029Z" fill="#54D296"/>
</svg>
