<?xml version="1.0"?>
<svg xmlns="http://www.w3.org/2000/svg" viewBox="0 0 112 112" fill="none">
<rect x="38.041" y="11.5104" width="48.1365" height="51.5264" rx="1.59352" transform="rotate(10.2149 38.041 11.5104)" fill="#CBA060"/>
<path d="M48.7153 13.4352L39.6079 11.794C38.7418 11.638 37.9131 12.2136 37.757 13.0797L29.0642 61.3201C28.9082 62.1862 29.4838 63.0149 30.3499 63.1709L37.8891 64.5295C38.7552 64.6856 39.5839 64.1099 39.7399 63.2438L48.7153 13.4352Z" fill="#BD9354"/>
<rect x="46.4302" y="26.1115" width="37.9668" height="4.06787" rx="0.70595" transform="rotate(100.215 46.4302 26.1115)" fill="#FFE074"/>
<rect x="48.4331" y="26.4722" width="37.9668" height="3.38989" rx="0.70595" transform="rotate(100.215 48.4331 26.4722)" fill="#E3C066"/>
<path d="M44.3164 32.6782C41.4562 32.1628 39.9091 27.4637 40.6154 23.5443C41.3216 19.6249 44.0139 17.9693 46.874 18.4847C49.7341 19 51.6791 21.4912 50.9728 25.4107C50.2666 29.3301 47.1765 33.1936 44.3164 32.6782Z" fill="#894A2F"/>
<path d="M43.557 27.2227C42.1911 26.9766 41.4523 24.7326 41.7896 22.8608C42.1269 20.9891 43.4125 20.1985 44.7784 20.4446C46.1442 20.6907 47.073 21.8804 46.7358 23.7521C46.3985 25.6239 44.9228 27.4689 43.557 27.2227Z" fill="#AA5E3E"/>
<rect x="55.772" y="27.7927" width="37.9668" height="4.74585" rx="0.70595" transform="rotate(100.215 55.772 27.7927)" fill="#FFE074"/>
<rect x="57.1045" y="28.0328" width="37.9668" height="2.71191" rx="0.70595" transform="rotate(100.215 57.1045 28.0328)" fill="#E3C066"/>
<path d="M53.1254 34.2649C50.2653 33.7495 48.7182 29.0504 49.4245 25.131C50.1307 21.2115 52.8229 19.5559 55.6831 20.0713C58.5432 20.5867 60.4882 23.0779 59.7819 26.9974C59.0756 30.9168 55.9856 34.7803 53.1254 34.2649Z" fill="#935337"/>
<path d="M52.3661 28.8087C51.0002 28.5625 50.2614 26.3185 50.5987 24.4468C50.9359 22.5751 52.2216 21.7844 53.5875 22.0306C54.9533 22.2767 55.8821 23.4663 55.5448 25.3381C55.2076 27.2098 53.7319 29.0548 52.3661 28.8087Z" fill="#AA5E3E"/>
<rect x="72.4531" y="30.7987" width="37.9668" height="4.06787" rx="0.70595" transform="rotate(100.215 72.4531 30.7987)" fill="#FFE074"/>
<rect x="73.7876" y="31.0406" width="37.9668" height="2.71191" rx="0.70595" transform="rotate(100.215 73.7876 31.0406)" fill="#E3C066"/>
<path d="M69.9443 37.295C67.0841 36.7797 65.537 32.0806 66.2433 28.1611C66.9496 24.2417 69.6418 22.5861 72.5019 23.1015C75.3621 23.6169 77.307 26.1081 76.6008 30.0275C75.8945 33.947 72.8044 37.8104 69.9443 37.295Z" fill="#935337"/>
<path d="M69.1873 31.8377C67.8215 31.5916 67.0827 29.3476 67.4199 27.4758C67.7572 25.6041 69.0429 24.8135 70.4087 25.0596C71.7746 25.3057 72.7034 26.4954 72.3661 28.3671C72.0289 30.2388 70.5532 32.0838 69.1873 31.8377Z" fill="#AA5E3E"/>
<path d="M76.1934 17.6971L85.968 19.4585C86.8342 19.6146 87.4098 20.4432 87.2537 21.3094L78.3205 70.8842C78.1644 71.7503 77.3357 72.3259 76.4696 72.1699L68.2632 70.6911C67.397 70.535 66.8214 69.7064 66.9775 68.8402L76.1934 17.6971Z" fill="#BD9354"/>
<rect x="37.9204" y="12.1765" width="40.0007" height="49.4924" rx="1.59352" transform="rotate(10.2149 37.9204 12.1765)" stroke="#DFB575" stroke-width="2.52441"/>
<rect x="66.3257" y="13.842" width="56.476" height="4.2357" rx="0.70595" transform="rotate(100.215 66.3257 13.842)" fill="#FFE074"/>
<rect x="68.0674" y="14.1517" width="56.476" height="3.17678" rx="0.70595" transform="rotate(100.215 68.0674 14.1517)" fill="#E3C066"/>
<path d="M63.8784 20.4871C61.0182 19.9717 59.4711 15.2726 60.1774 11.3531C60.8837 7.43369 63.5759 5.7781 66.436 6.29349C69.2961 6.80888 71.2411 9.30008 70.5349 13.2195C69.8286 17.139 66.7385 21.0025 63.8784 20.4871Z" fill="#894A2F"/>
<path d="M63.117 15.0317C61.7512 14.7856 61.0123 12.5415 61.3496 10.6698C61.6869 8.79807 62.9726 8.00745 64.3384 8.25357C65.7043 8.4997 66.6331 9.68937 66.2958 11.5611C65.9585 13.4328 64.4829 15.2778 63.117 15.0317Z" fill="#AA5E3E"/>
<path d="M30.2886 37.6965C30.4447 36.8304 31.2733 36.2548 32.1395 36.4108L80.812 45.1815C81.6781 45.3376 82.2537 46.1662 82.0977 47.0324L71.6602 104.952C71.5037 105.821 70.6726 106.398 69.804 106.242L21.1405 97.4727C20.2719 97.3162 19.6946 96.4852 19.8512 95.6165L30.2886 37.6965Z" fill="#EBBF7C"/>
<path d="M33.1544 42.99C33.3105 42.1239 34.1391 41.5483 35.0053 41.7043L67.9503 47.641C68.8165 47.797 69.3921 48.6257 69.236 49.4918L60.6328 97.2351C60.4763 98.1037 59.6452 98.681 58.7766 98.5244L25.8406 92.5895C24.972 92.4329 24.3947 91.6019 24.5512 90.7333L33.1544 42.99Z" fill="#FFE296"/>
<rect x="35.9336" y="48.7714" width="28.2021" height="37.7418" rx="3.38989" transform="rotate(10.2149 35.9336 48.7714)" fill="#EED28A"/>
<path d="M72.8468 45.3664C73.0029 44.5002 73.8315 43.9246 74.6977 44.0807L83.5883 45.6828C84.4545 45.8388 85.0301 46.6675 84.874 47.5336L74.4369 105.454C74.2804 106.322 73.4494 106.9 72.5807 106.743L63.6991 105.143C62.8305 104.986 62.2532 104.155 62.4097 103.286L72.8468 45.3664Z" fill="#935337"/>
</svg>
