<?xml version="1.0"?>
<svg xmlns="http://www.w3.org/2000/svg" viewBox="0 0 112 112" fill="none">
<ellipse cx="55.3517" cy="53.8964" rx="23.3205" ry="7.15515" fill="#BE8F48"/>
<path d="M31.2158 32.8912H79.2968L72.226 91.2947H38.2865L31.2158 32.8912Z" fill="#DADCF2"/>
<ellipse cx="55.2568" cy="90.8671" rx="17.0751" ry="5.25668" fill="#DADCF2"/>
<path fill-rule="evenodd" clip-rule="evenodd" d="M55.3517 61.0532C67.5467 61.0532 77.5553 58.1812 78.5849 54.5215L75.9389 76.3777C75.9941 76.567 76.0222 76.7587 76.0222 76.9525C76.0222 80.4651 66.7677 83.3126 55.3518 83.3126C44.9184 83.3126 36.2904 80.9342 34.8825 77.8433H34.7429L32.1113 54.4952C33.1002 58.1675 43.1276 61.0532 55.3517 61.0532ZM32.1113 54.4952L32.0333 53.8028C32.0319 53.8345 32.0312 53.8662 32.0312 53.898C32.0312 54.0991 32.0583 54.2983 32.1113 54.4952ZM78.6706 53.8135L78.6702 53.8028H78.6719L78.6706 53.8135Z" fill="#E2B064"/>
<path d="M75.9059 55.3944C76.9234 54.6563 77.0822 54.1297 77.0822 53.8964H78.6722C78.6722 57.848 68.2313 61.0515 55.3517 61.0515C42.4722 61.0515 32.0312 57.848 32.0312 53.8964H33.6213C33.6213 54.1297 33.7801 54.6563 34.7975 55.3944C35.7795 56.1067 37.3027 56.8143 39.3281 57.4357C43.3592 58.6726 49.0248 59.4615 55.3517 59.4615C61.6787 59.4615 67.3443 58.6726 71.3754 57.4357C73.4008 56.8143 74.924 56.1067 75.9059 55.3944Z" fill="#BE8F48"/>
<path opacity="0.5" d="M47.7406 62.5279C43.3755 62.3764 39.7308 61.5161 37.4471 60.7836C36.5578 60.4984 35.6012 61.2062 35.6882 62.136L36.6556 72.4806C36.8981 75.0733 37.9939 77.6145 40.4379 78.5134C41.6382 78.955 43.071 79.2897 44.6558 79.3763C46.3526 79.4689 47.6573 78.0551 47.8128 76.3629L48.9595 63.8867C49.0254 63.1698 48.4602 62.5528 47.7406 62.5279Z" fill="#F4DB80"/>
<ellipse cx="55.2951" cy="31.8983" rx="24.2951" ry="7.27725" fill="#A08E8D" stroke="#D2D5E9" stroke-width="2.11642"/>
<path fill-rule="evenodd" clip-rule="evenodd" d="M73.4861 35.6017C73.0706 35.4548 72.6318 35.3119 72.1704 35.1737C67.8973 33.8938 61.9305 33.0868 55.2948 33.0868C48.6591 33.0868 42.6924 33.8938 38.4192 35.1737C37.9579 35.3119 37.5191 35.4548 37.1035 35.6017C37.5191 35.7486 37.9579 35.8915 38.4192 36.0297C42.6924 37.3097 48.6591 38.1167 55.2948 38.1167C61.9305 38.1167 67.8973 37.3097 72.1704 36.0297C72.6318 35.8915 73.0706 35.7486 73.4861 35.6017Z" fill="#85726A"/>
<path d="M86.8379 38.5762L41.2431 12.252L38.6557 15.3106L38.6148 16.8044L84.2096 43.1286L85.4828 42.3462L86.8379 38.5762Z" fill="#A52E2E"/>
<ellipse cx="61.0808" cy="30.536" rx="29.17" ry="8.54211" transform="rotate(30 61.0808 30.536)" fill="#B43A3A"/>
<ellipse cx="64.0385" cy="25.4139" rx="26.3242" ry="7.88502" transform="rotate(30 64.0385 25.4139)" fill="#A52E2E"/>
<ellipse cx="62.2339" cy="28.5457" rx="27.0356" ry="7.55648" transform="rotate(30 62.2339 28.5457)" fill="#A52E2E"/>
<ellipse cx="64.0382" cy="25.4141" rx="22.0554" ry="5.91377" transform="rotate(30 64.0382 25.4141)" fill="#8D2222"/>
<path d="M48.2446 20.8009C48.7165 21.3103 49.5844 22.1369 50.246 22.7557C50.6342 23.1188 50.4836 23.7695 49.9742 23.9211C49.2837 24.1266 48.5325 23.9983 47.9735 23.5438C46.5778 22.4089 45.3782 21.1971 44.3217 19.7963C43.7144 18.9911 44.3865 17.9175 45.3903 18.0153C45.8312 18.0583 46.2316 18.2884 46.4972 18.643C46.9425 19.2373 47.6651 20.1753 48.2446 20.8009Z" fill="#B84242"/>
<path d="M58.4376 24.7226C58.8998 24.3683 59.5299 24.3272 60.0343 24.6184L65.4977 27.7727C66.002 28.0639 66.2814 28.6301 66.2057 29.2075L65.3134 36.0124L52.9905 28.8978L58.4376 24.7226Z" fill="#A52E2E"/>
<path d="M59.5806 25.3469C59.7511 25.2988 59.9339 25.3216 60.0874 25.4102L64.7829 28.1212C64.9364 28.2098 65.0476 28.3567 65.0912 28.5284C65.2344 29.0918 64.6293 29.55 64.1259 29.2593L59.4303 26.5484C58.9269 26.2577 59.0211 25.5046 59.5806 25.3469Z" fill="#542830"/>
<path opacity="0.5" d="M47.0399 28.2794C44.3771 26.5076 41.5817 23.4693 40.3215 21.8689C40.0262 21.494 39.4618 21.4154 39.1377 21.7254C38.9064 21.9465 38.8712 22.3022 39.0666 22.5795C41.052 25.3982 44.5823 28.3632 46.33 29.4731C46.616 29.6546 46.9781 29.621 47.2056 29.4035C47.5313 29.092 47.4437 28.5481 47.0399 28.2794Z" fill="#DE6464" stroke="#DE6464" stroke-width="2.16089"/>
</svg>
