<?xml version="1.0"?>
<svg xmlns="http://www.w3.org/2000/svg" viewBox="0 0 112 112" fill="none">
<path d="M88.1935 102.256L92.3808 98.9877C97.0378 95.378 97.8914 88.8443 94.3692 84.2114L92.6158 82.038L71.9655 98.3653L73.7189 100.539C77.1142 104.949 83.5606 105.778 88.1935 102.256Z" fill="#37384F"/>
<path d="M32.5026 60.1196L65.1462 34.7243C65.6474 34.2892 66.4861 34.7104 66.5174 35.2916L67.0272 44.2115C67.2395 47.61 68.3966 50.6953 70.4343 53.3543C81.7103 67.902 81.8945 67.8839 92.8399 82.2454C93.1461 82.5203 93.0487 82.8753 92.9512 83.2303C91.486 85.7865 88.9297 89.1885 85.171 92.4512C80.5717 96.3421 75.8472 97.9082 72.9882 98.9366C72.5845 99.0166 72.2295 98.9192 72.1007 98.693L49.977 70.1656C48.0925 67.6441 45.4562 65.7751 42.4388 64.9468L32.8628 61.9363C31.9353 61.4908 31.824 60.5059 32.5026 60.1196Z" fill="#E7AA4F"/>
<path d="M72.5327 99.0433C70.9777 97.0157 74.3562 91.6591 80.0474 87.1506C85.8062 82.671 91.6615 80.6682 93.2842 82.7248C94.8322 84.8209 91.4607 90.1089 85.7696 94.6175C80.0108 99.0971 74.0878 101.071 72.5327 99.0433Z" fill="#E7AA4F"/>
<path d="M81.7887 103.816C80.7411 102.451 83.017 98.8421 86.8508 95.805C90.7301 92.7874 94.6745 91.4383 95.7676 92.8236C96.8104 94.2356 94.5393 97.7978 90.7055 100.835C86.8262 103.853 82.8363 105.182 81.7887 103.816Z" fill="#37384F"/>
<path d="M30.8748 61.0313C28.0608 57.3521 33.6309 48.0488 43.2653 40.3769C53.0186 32.7602 63.0777 29.5375 66.0108 33.2719C68.8163 37.0723 63.2547 46.2545 53.6203 53.9263C43.867 61.5431 33.6889 64.7106 30.8748 61.0313Z" fill="#37384F"/>
<path d="M40.9686 59.8689L62.604 43.2856C67.0814 39.8384 67.9481 33.205 64.4121 28.7032L50.9697 11.2704C49.9709 10.0418 48.5649 10.9919 47.3363 11.9907L14.3064 36.7074C13.0779 37.7062 11.075 38.397 12.9438 40.6279L26.3863 58.0608C30.0997 62.6113 36.4912 63.3161 40.9686 59.8689Z" fill="#37384F"/>
<path d="M55.4082 44.9814C56.2914 44.6331 57.0417 44.0515 57.6341 43.3281C58.6017 42.3139 60.3034 40.4183 60.6876 39.7362C62.5329 36.6002 62.3068 32.4033 59.8889 29.3768L57.7617 26.7254C55.6346 24.074 51.9888 23.3685 49.0969 24.9374C48.5134 25.2695 47.9965 25.7182 47.4795 26.167L44.8855 28.8022C41.8841 31.1286 41.3689 35.5158 43.6953 38.5172L46.9354 42.8523C49.2044 45.3457 52.6419 46.0925 55.4082 44.9814Z" fill="#4C4E68"/>
<path d="M80.6219 88.2211C83.1111 86.3723 83.4524 82.7228 81.6779 80.3641L71.4663 67.4322C69.6175 64.943 65.968 64.6017 63.6093 66.3762C61.12 68.225 60.7787 71.8745 62.5533 74.2332L72.7649 87.1651C74.8184 89.7106 78.2632 89.9957 80.6219 88.2211Z" fill="#37384F"/>
<path d="M72.0637 77.2767C73.4248 76.3292 73.5493 74.2716 72.5456 73.1154L69.5164 69.3113C68.5689 67.9502 66.5113 67.8257 65.355 68.8294C63.994 69.7769 63.8695 71.8345 64.8732 72.9908L67.9024 76.7949C68.8499 78.1559 70.9075 78.2804 72.0637 77.2767Z" fill="#CD564F"/>
<path d="M14.7049 40.8226C12.796 38.3898 19.3965 29.9902 29.5312 22.2745C39.6658 14.5589 49.3341 10.628 51.2186 13.1495C53.1275 15.5822 46.3983 23.7556 36.288 31.3825C26.2665 39.0338 16.5251 43.2309 14.7049 40.8226Z" fill="#37384F" stroke="#37384F" stroke-width="5.71171" stroke-miterlimit="10"/>
<path d="M17.1162 37.954C15.5136 35.7962 20.9412 28.8879 29.3705 22.5173C37.7998 16.1468 45.8932 12.7379 47.5846 14.9201C49.2116 16.9891 43.6709 23.9618 35.3304 30.3567C26.9254 36.6386 18.7432 40.0231 17.1162 37.954Z" fill="#FFEE71"/>
<path d="M25.8639 31.3716C24.8584 30.0178 28.2636 25.6837 33.552 21.6869C38.8404 17.6901 43.9181 15.5514 44.9792 16.9205C46 18.2186 42.5239 22.5931 37.2911 26.6052C32.018 30.5463 26.8847 32.6697 25.8639 31.3716Z" fill="#FFFBDC"/>
</svg>
