<?xml version="1.0"?>
<svg xmlns="http://www.w3.org/2000/svg" viewBox="0 0 112 112" fill="none">
<path d="M81.5884 32.8554C82.2645 33.571 82.6023 34.5417 82.5166 35.5224L79.9504 64.8833C79.7847 66.7796 78.113 68.1826 76.2167 68.0168L53.3257 66.0161C51.4294 65.8504 50.0264 64.1787 50.1922 62.2824L52.7515 33C52.8412 31.974 53.385 31.0419 54.234 30.4588L62.3026 24.9181C62.9616 24.4655 63.7575 24.2561 64.5539 24.3258L73.0328 25.0668C73.8737 25.1403 74.6585 25.5199 75.2382 26.1335L81.5884 32.8554Z" fill="#C6EAFF"/>
<rect x="23.5552" y="30.5438" width="78.7003" height="50.552" rx="4.59564" transform="rotate(4.995 23.5552 30.5438)" fill="#534283"/>
<rect x="14.3994" y="29.7435" width="78.7003" height="50.552" rx="4.59564" transform="rotate(4.995 14.3994 29.7435)" fill="#483B6C"/>
<path d="M89.0355 33.5481C89.1184 32.5999 89.9542 31.8984 90.9024 31.9813L94.336 32.2814C95.2842 32.3643 95.9856 33.2001 95.9028 34.1483L95.8027 35.2928L88.9355 34.6926L89.0355 33.5481Z" fill="#C2DBF3"/>
<path d="M20.3607 27.5455C20.4436 26.5973 21.2794 25.8959 22.2276 25.9787L25.6612 26.2788C26.6094 26.3617 27.3108 27.1975 27.228 28.1457L27.1279 29.2902L20.2607 28.69L20.3607 27.5455Z" fill="#C2DBF3"/>
<path d="M37.5787 28.4738C37.6339 27.8417 38.1911 27.374 38.8233 27.4293L41.1124 27.6293C41.7445 27.6846 42.2121 28.2418 42.1569 28.8739L42.1068 29.4462C42.0516 30.0783 41.4944 30.5459 40.8623 30.4907L38.5732 30.2906C37.9411 30.2354 37.4734 29.6782 37.5287 29.046L37.5787 28.4738Z" fill="#C2DBF3"/>
<path d="M84.7272 36.6329C84.893 34.7365 86.5646 33.3336 88.461 33.4993L96.4728 34.1996C98.3692 34.3653 99.7721 36.037 99.6063 37.9333L99.4063 40.2224L84.5272 38.922L84.7272 36.6329Z" fill="#8FB9E0"/>
<path d="M16.0544 30.6327C16.2201 28.7363 17.8918 27.3334 19.7881 27.4991L27.8 28.1994C29.6963 28.3651 31.0992 30.0368 30.9335 31.9331L30.7334 34.2222L15.8543 32.9218L16.0544 30.6327Z" fill="#8FB9E0"/>
<path d="M34.4689 31.0864C34.5794 29.8222 35.6938 28.8869 36.958 28.9974L42.6808 29.4975C43.945 29.608 44.8803 30.7225 44.7698 31.9867L44.6698 33.1313C44.5593 34.3955 43.4448 35.3308 42.1806 35.2203L36.4579 34.7201C35.1936 34.6096 34.2583 33.4952 34.3688 32.2309L34.4689 31.0864Z" fill="#8FB9E0"/>
<path d="M86.2827 33.0699C86.0407 32.6676 86.3573 32.1606 86.825 32.2014L98.3119 33.2054C98.7796 33.2463 99.0035 33.8005 98.6953 34.1547L98.2291 34.6906C98.1085 34.8293 97.9288 34.9018 97.7457 34.8858L87.0911 33.9546C86.908 33.9386 86.7437 33.836 86.6489 33.6785L86.2827 33.0699Z" fill="#AFD0EE"/>
<path d="M17.6079 27.0694C17.3659 26.6671 17.6825 26.1601 18.1502 26.201L29.6371 27.205C30.1048 27.2459 30.3287 27.8001 30.0205 28.1543L29.5543 28.6902C29.4336 28.8288 29.254 28.9014 29.0709 28.8854L18.4163 27.9542C18.2332 27.9382 18.0689 27.8356 17.9741 27.6781L17.6079 27.0694Z" fill="#AFD0EE"/>
<path d="M22.1077 33.8752C22.2742 31.979 23.9465 30.5755 25.8429 30.7406L99.6684 37.1665C101.565 37.3316 102.967 39.0027 102.801 40.8989L101.84 51.8399C101.757 52.7881 100.921 53.4898 99.9725 53.4073L22.7133 46.6824C21.7651 46.5999 21.0639 45.7644 21.1472 44.8162L22.1077 33.8752Z" fill="#C8DBF0"/>
<path d="M12.9528 33.0768C13.1186 31.1805 14.7902 29.7775 16.6866 29.9433L90.5097 36.3955C92.4061 36.5612 93.809 38.2329 93.6433 40.1292L92.687 51.0706C92.6041 52.0188 91.7683 52.7203 90.8201 52.6374L13.5633 45.8851C12.6151 45.8022 11.9137 44.9664 11.9965 44.0182L12.9528 33.0768Z" fill="#AFD0EE"/>
<path d="M12.0571 43.3774L92.7477 50.4299" stroke="#8FB4E0" stroke-width="1.72336"/>
<path d="M18.2596 77.9411C18.3425 76.9929 19.1783 76.2914 20.1265 76.3743L97.3834 83.1266C98.3316 83.2095 99.033 84.0453 98.9502 84.9935L98.7001 87.8549C98.5343 89.7512 96.8627 91.1541 94.9663 90.9884L21.1431 84.5362C19.2467 84.3704 17.8438 82.6988 18.0095 80.8024L18.2596 77.9411Z" fill="#B1CFF2"/>
<path d="M9.10337 77.1406C9.18624 76.1924 10.0221 75.4909 10.9702 75.5738L88.2271 82.3261C89.1753 82.409 89.8768 83.2448 89.7939 84.193L89.5438 87.0544C89.3781 88.9507 87.7064 90.3537 85.8101 90.1879L11.9868 83.7357C10.0905 83.57 8.68754 81.8983 8.85328 80.002L9.10337 77.1406Z" fill="#AFD0EE"/>
<path d="M11.3413 77.9141L92.0319 84.9665" stroke="#8FB4E0" stroke-width="1.72336"/>
<path d="M78.1533 32.5523C78.8294 33.2679 79.1672 34.2386 79.0815 35.2193L76.5153 64.5802C76.3496 66.4765 74.6779 67.8795 72.7816 67.7137L49.8907 65.713C47.9943 65.5473 46.5914 63.8756 46.7571 61.9793L49.3164 32.6969C49.4061 31.6709 49.9499 30.7388 50.7989 30.1557L58.8676 24.615C59.5266 24.1624 60.3224 23.953 61.1188 24.0227L69.5977 24.7637C70.4387 24.8372 71.2234 25.2168 71.8031 25.8304L78.1533 32.5523Z" fill="#C6EAFF"/>
<path d="M75.8633 32.3521C76.5394 33.0678 76.8772 34.0384 76.7915 35.0191L74.2253 64.38C74.0596 66.2763 72.3879 67.6793 70.4916 67.5135L47.6006 65.5128C45.7043 65.3471 44.3013 63.6754 44.4671 61.7791L47.0264 32.4967C47.1161 31.4707 47.6599 30.5386 48.5089 29.9555L56.5775 24.4148C57.2365 23.9622 58.0324 23.7529 58.8288 23.8225L67.3077 24.5635C68.1486 24.637 68.9334 25.0166 69.5131 25.6302L75.8633 32.3521Z" fill="#C2DBF3"/>
<path d="M50.1517 36.3276C50.2346 35.3794 51.0704 34.678 52.0186 34.7608L71.4759 36.4614C72.424 36.5443 73.1255 37.3801 73.0426 38.3283C72.9598 39.2765 72.1239 39.9779 71.1758 39.8951L51.7185 38.1945C50.7703 38.1116 50.0688 37.2758 50.1517 36.3276Z" fill="#AFD0EE"/>
<path d="M70.8861 29.7716C71.6247 30.5359 71.0187 31.8071 69.9599 31.7145L54.5231 30.3653C53.4429 30.2709 53.0827 28.8703 53.9834 28.2665L58.5491 25.2057C58.7668 25.0597 59.0278 24.9926 59.2889 25.0154L66.5081 25.6464C66.7839 25.6705 67.0418 25.7934 67.2342 25.9926L70.8861 29.7716Z" fill="#D8EAFF"/>
<ellipse cx="59.0112" cy="63.6266" rx="13.4997" ry="13.7869" transform="rotate(4.995 59.0112 63.6266)" fill="#5A2B80"/>
<ellipse cx="60.311" cy="63.4541" rx="20.5256" ry="20.9676" transform="rotate(4.995 60.311 63.4541)" fill="#C2DBF3"/>
<circle cx="57.3187" cy="63.1947" r="19.8187" transform="rotate(4.995 57.3187 63.1947)" fill="#3C315C" stroke="#C6EAFF" stroke-width="2.29782"/>
<path d="M72.8231 61.1606C73.8825 69.7351 67.7673 77.7094 59.1643 78.9717C50.5613 80.2339 42.7283 74.3061 41.6688 65.7316C40.6094 57.1571 46.7246 49.1828 55.3276 47.9205C63.9306 46.6583 71.7636 52.5861 72.8231 61.1606Z" fill="#482B78"/>
<path d="M69.9091 61.6094C70.8175 68.9614 65.7688 75.7701 58.6325 76.8172C51.4962 77.8642 44.9746 72.7531 44.0662 65.4012C43.1578 58.0492 48.2065 51.2405 55.3429 50.1934C62.4792 49.1464 69.0007 54.2575 69.9091 61.6094Z" fill="#5F3A9A"/>
<path d="M65.3769 62.2737C65.9668 67.0482 62.6881 71.4699 58.0536 72.1498C53.4192 72.8298 49.184 69.5106 48.594 64.7361C48.0041 59.9617 51.2828 55.54 55.9173 54.86C60.5517 54.18 64.7869 57.4992 65.3769 62.2737Z" fill="#552F94"/>
<path opacity="0.3" d="M66.989 64.3655C68.533 66.5449 67.3715 70.337 64.3947 72.8353C61.4178 75.3337 57.7529 75.5921 56.2088 73.4127C54.6648 71.2332 55.8263 67.4411 58.8032 64.9428C61.78 62.4445 65.4449 62.186 66.989 64.3655Z" fill="#A56FFF"/>
<path opacity="0.6" d="M57.7028 53.2112C59.3599 54.7048 58.636 57.8622 56.086 60.2637C53.536 62.6651 50.1256 63.4011 48.4685 61.9075C46.8115 60.414 47.5354 57.2565 50.0854 54.8551C52.6354 52.4537 56.0458 51.7177 57.7028 53.2112Z" fill="white"/>
<path d="M12.0538 38.3535C12.1643 37.0893 13.2788 36.154 14.543 36.2645L25.8545 37.2531C27.1188 37.3636 28.054 38.478 27.9436 39.7423L24.6911 76.9552C24.4149 80.1158 26.7531 82.9019 29.9137 83.1781L34.0535 83.5399L33.6547 88.1029L13.0529 86.3023C10.2084 86.0537 8.10395 83.5462 8.35257 80.7017L12.0538 38.3535Z" fill="#BC7C61"/>
<path d="M10.7745 38.2445C10.885 36.9803 11.9995 36.045 13.2637 36.1555L24.2221 37.1133C25.4864 37.2238 26.4216 38.3382 26.3112 39.6025L23.0587 76.8154C22.7825 79.976 25.1207 82.762 28.2813 83.0383L32.202 83.381L31.8031 87.944L11.7736 86.1934C8.92906 85.9448 6.82466 83.4373 7.07327 80.5928L10.7745 38.2445Z" fill="#A36A5D"/>
<rect x="13.3218" y="81.7144" width="70.658" height="4.59564" transform="rotate(4.995 13.3218 81.7144)" fill="#A36A5D"/>
<path d="M87.6602 42.6565L101.967 43.9069C103.231 44.0174 104.167 45.1319 104.056 46.3961L100.355 88.7443C100.106 91.5888 97.5987 93.6932 94.7541 93.4446L83.3087 92.4443L87.6602 42.6565Z" fill="#BC7C61"/>
<path d="M83.4539 44.5976C83.5644 43.3333 84.6788 42.398 85.9431 42.5085L91.0935 42.9587C92.3578 43.0692 93.2931 44.1836 93.1826 45.4479L89.4813 87.7961C89.2327 90.6406 86.7252 92.745 83.8807 92.4964L66.1402 90.9459L66.539 86.3828L73.9786 87.0331C77.1391 87.3093 79.9252 84.9711 80.2015 81.8105L83.4539 44.5976Z" fill="#A36A5D"/>
<path d="M31.934 62.4786C32.0909 63.8964 30.9115 65.1034 29.4904 64.9792C28.0693 64.855 27.1171 63.4617 27.5176 62.0926L29.117 56.6249C29.267 56.112 29.7583 55.7763 30.2907 55.8228C30.8231 55.8693 31.2486 56.2852 31.3074 56.8164L31.934 62.4786Z" fill="#AFD0EE"/>
<path d="M30.9297 62.6059C30.8708 63.2801 30.2764 63.779 29.6022 63.72C28.9279 63.6611 28.4291 63.0667 28.488 62.3925C28.547 61.7182 29.1413 61.2194 29.8156 61.2783C30.4898 61.3373 30.9887 61.9316 30.9297 62.6059Z" fill="#483B6C"/>
<path d="M13.04 40.0925L21.0463 40.5245C22.0207 40.5771 22.7571 41.4274 22.67 42.3993L18.8739 84.727" stroke="#83574D" stroke-width="1.72336" stroke-linecap="round" stroke-dasharray="5.74 4.6"/>
<path d="M90.8708 46.9229L87.8192 46.6431C86.8681 46.5559 86.0274 47.2589 85.9449 48.2104L82.2935 90.3248" stroke="#83574D" stroke-width="1.72336" stroke-linecap="round" stroke-dasharray="5.74 4.6"/>
<path d="M93.9604 43.2069L102.258 43.9322C103.207 44.015 103.908 44.8509 103.825 45.799L102.925 56.1C102.842 57.0481 102.006 57.7496 101.058 57.6667L99.3412 57.5167C96.8127 57.2957 94.9421 55.0668 95.1631 52.5383L95.8134 45.0988C95.8962 44.1506 95.1948 43.3148 94.2466 43.2319L93.9604 43.2069Z" fill="#A6C4E8"/>
<path d="M95.6787 43.3567L103.977 44.0819C104.925 44.1648 105.626 45.0006 105.543 45.9488L104.843 53.9606C104.65 56.173 102.7 57.8098 100.487 57.6164C98.2748 57.4231 96.638 55.4728 96.8314 53.2604L97.5316 45.2486C97.6145 44.3004 96.913 43.4646 95.9648 43.3817L95.6787 43.3567Z" fill="#C2D8F3"/>
<ellipse cx="101.224" cy="52.4903" rx="2.29782" ry="2.87228" transform="rotate(4.99501 101.224 52.4903)" fill="#A6C4E8"/>
<ellipse cx="100.651" cy="52.4421" rx="1.72337" ry="2.29782" transform="rotate(4.99501 100.651 52.4421)" fill="#8EB3DE"/>
</svg>
