<?xml version="1.0"?>
<svg xmlns="http://www.w3.org/2000/svg" viewBox="0 0 112 112" fill="none">
<path d="M17.5667 86.8456C17.6037 86.2084 18.1503 85.7219 18.7875 85.759L23.9795 86.061C24.6167 86.0981 25.1032 86.6447 25.0661 87.2819L24.764 92.4739C24.6528 94.3855 23.013 95.845 21.1014 95.7337L20.5245 95.7002C18.6129 95.589 17.1534 93.9491 17.2646 92.0375L17.5667 86.8456Z" fill="#E4BB50"/>
<rect x="74.1655" y="88.9799" width="7.51212" height="9.82354" rx="3.46713" transform="rotate(3.32987 74.1655 88.9799)" fill="#E4BB50"/>
<rect x="87.4351" y="89.7523" width="7.51212" height="9.82354" rx="3.46713" transform="rotate(3.32987 87.4351 89.7523)" fill="#CA9632"/>
<rect x="31.479" y="86.4974" width="7.51212" height="9.82354" rx="3.46713" transform="rotate(3.32987 31.479 86.4974)" fill="#CA9632"/>
<path d="M14.406 31.7252L102.095 36.7725L98.9586 90.677C98.7275 94.6488 95.3217 97.682 91.3498 97.4533L18.0507 93.2343C14.0753 93.0055 11.0389 89.596 11.2702 85.6208L14.406 31.7252Z" fill="#BD6945"/>
<path d="M29.2236 50.0281C29.3086 48.1152 30.9277 46.6445 32.84 46.7433L78.2241 49.0876C80.1364 49.1864 81.6177 50.8172 81.5328 52.7302L79.9693 87.9417C79.8843 89.8547 78.2652 91.3254 76.3529 91.2266L30.9688 88.8822C29.0565 88.7834 27.5751 87.1526 27.6601 85.2396L29.2236 50.0281Z" fill="#A65338"/>
<path d="M15.8148 49.3344C15.9012 47.4216 17.5214 45.9503 19.4338 46.0484L74.7986 48.8876C76.7109 48.9857 78.1912 50.6159 78.1048 52.5288L76.5149 87.7394C76.4286 89.6523 74.8083 91.1235 72.896 91.0254L17.5311 88.1862C15.6188 88.0882 14.1386 86.458 14.2249 84.5451L15.8148 49.3344Z" fill="#DD8545"/>
<path d="M17.3214 72.676C17.4246 70.4363 20.335 69.6537 21.5631 71.5354L28.7377 82.5286C29.7708 84.1115 28.5816 86.1909 26.698 86.0953L19.6115 85.7358C18.0179 85.6549 16.7855 84.2972 16.859 82.7032L17.3214 72.676Z" fill="#EB9546"/>
<path d="M45.3933 22.6506L45.5453 20.0383C45.7765 16.0648 49.185 13.031 53.1585 13.2622L60.6906 13.7005C64.6641 13.9317 67.6979 17.3402 67.4667 21.3137L67.3147 23.926" stroke="#964C34" stroke-width="5.40512"/>
<path d="M35.2388 21.8848L91.773 25.1741C97.8264 25.5263 102.448 30.7191 102.096 36.7725L34.601 32.8455L35.2388 21.8848Z" fill="#FF9933"/>
<rect x="38.0132" y="63.7227" width="14.4464" height="9.82354" rx="1.73357" transform="rotate(3.32987 38.0132 63.7227)" fill="#DDB03D"/>
<path d="M84.8904 34.0336C85.15 29.5732 88.9762 26.1677 93.4367 26.4272L94.0136 26.4608C98.474 26.7203 101.879 30.5466 101.62 35.007L101.519 36.7377L84.7898 35.7643L84.8904 34.0336Z" fill="#55291A"/>
<path d="M55.1748 40.9888L84.9645 42.722L84.7992 45.5635C84.6921 47.4034 83.7139 49.0819 82.1657 50.0819L56.1901 66.8602C54.9048 67.6904 53.3887 68.09 51.8612 68.0011L47.0436 67.7208L55.1748 40.9888Z" fill="#C16C2E"/>
<path d="M83.5394 47.2705L84.2946 34.2907C84.5634 29.671 88.5263 26.1439 93.146 26.4126V26.4126C97.7657 26.6814 101.293 30.6444 101.024 35.2641L100.94 36.7063" stroke="#C16C2E" stroke-width="2.31142" stroke-linecap="round"/>
<path d="M12.1123 31.3673C12.4591 25.407 17.572 20.8564 23.5323 21.2032L83.6964 24.7045L82.5595 44.2453C82.4514 46.1018 81.4565 47.7929 79.8862 48.7891L51.7545 66.636C50.4795 67.4449 48.9827 67.8328 47.4753 67.7451L40.1059 67.3164C38.4412 67.2195 36.8615 66.5483 35.6362 65.4172L13.4392 44.9271C12.168 43.7537 11.4895 42.0724 11.5899 40.3454L12.1123 31.3673Z" fill="#FF9933"/>
<rect x="38.0132" y="63.7227" width="13.2907" height="9.82354" rx="1.73357" transform="rotate(3.32987 38.0132 63.7227)" fill="#DDB03D"/>
<rect x="36.2822" y="63.6234" width="13.8685" height="9.82354" rx="1.73357" transform="rotate(3.32987 36.2822 63.6234)" fill="#FFE34F"/>
<path d="M37.7457 68.3368C37.7643 68.0182 38.0376 67.775 38.3562 67.7935L47.5863 68.3305C47.9049 68.3491 48.1481 68.6224 48.1296 68.941L47.9617 71.8254C47.9432 72.144 47.6699 72.3872 47.3513 72.3687L38.1212 71.8317C37.8026 71.8131 37.5594 71.5398 37.5779 71.2212L37.7457 68.3368Z" fill="#DDB03D"/>
<path d="M85.3682 35.7991L102.098 36.7724L98.8419 92.7298C98.6751 95.5972 96.2153 97.7865 93.3479 97.6196L87.0022 97.2504C84.1348 97.0836 81.9456 94.6238 82.1124 91.7564L85.3682 35.7991Z" fill="#964C34"/>
<path d="M95.1751 36.3668C95.2121 35.7296 95.7587 35.2431 96.3959 35.2801C97.0332 35.3172 97.5197 35.8638 97.4826 36.501L93.992 96.4943C93.9549 97.1315 93.4083 97.618 92.7711 97.5809C92.1339 97.5438 91.6474 96.9972 91.6845 96.36L95.1751 36.3668Z" fill="#A65338"/>
<path d="M90.5579 36.0999C90.5949 35.4627 91.1416 34.9762 91.7788 35.0133C92.416 35.0504 92.9025 35.597 92.8654 36.2342L89.3748 96.2274C89.3377 96.8646 88.7911 97.3511 88.1539 97.3141C87.5167 97.277 87.0302 96.7304 87.0673 96.0932L90.5579 36.0999Z" fill="#A65338"/>
<path d="M85.367 35.7975C85.404 35.1603 85.9506 34.6738 86.5878 34.7109C87.225 34.7479 87.7115 35.2946 87.6745 35.9318L84.373 92.6745C84.3056 93.8338 85.1906 94.8282 86.3499 94.8956L92.9041 95.277L92.77 97.5822L85.857 97.18C83.6215 97.0499 81.9147 95.1322 82.0448 92.8967L85.367 35.7975Z" fill="#A65338"/>
<path d="M102.096 36.7705C102.134 36.1333 101.647 35.5866 101.01 35.5496C100.373 35.5125 99.826 35.999 99.7889 36.6362L96.4996 93.1704C96.4255 94.4448 95.3322 95.4178 94.0578 95.3437L90.5966 95.1423C90.5225 96.4155 91.4945 97.5076 92.7677 97.5817L94.5006 97.6825C96.7308 97.8123 98.6439 96.1095 98.7737 93.8793L102.096 36.7705Z" fill="#A65338"/>
<path d="M16.4642 32.3666L16.1464 37.8277C16.007 40.2244 18.2868 42.0341 20.5893 41.3544L42.0682 35.014L49.1999 32.9088C52.9276 31.8084 52.2998 26.348 48.4196 26.1222L25.0104 24.7602C20.55 24.5007 16.7237 27.9062 16.4642 32.3666Z" fill="#FFBC3A"/>
<rect x="88.4546" y="38.6349" width="9.24569" height="5.77855" rx="1.15571" transform="rotate(3.32987 88.4546 38.6349)" fill="#DDB03D"/>
<rect x="90.3192" y="36.4298" width="7.51212" height="4.62284" rx="0.577855" transform="rotate(3.32987 90.3192 36.4298)" stroke="#DDB03D" stroke-width="1.15571"/>
<rect x="90.1855" y="38.7365" width="8.66783" height="5.77855" rx="1.15571" transform="rotate(3.32987 90.1855 38.7365)" fill="#C99021"/>
</svg>
