<?xml version="1.0"?>
<svg xmlns="http://www.w3.org/2000/svg" viewBox="0 0 112 112" fill="none">
<rect x="63.9243" y="97.2204" width="4.61162" height="10.7735" rx="2.30581" transform="rotate(-30.4315 63.9243 97.2204)" fill="#EBC338"/>
<path d="M62.9511 98.5369C61.3302 97.9607 59.9638 96.8802 58.8688 95.5534L58.0347 94.5427C42.9582 76.2749 31.2194 55.4928 23.3568 33.1502C22.6819 31.2323 22.5206 29.1703 23.0836 27.2166C24.5117 22.2614 28.0822 12.6775 34.8284 10.2263L51.9861 37.7306L46.3061 40.9609C44.1943 42.1619 43.2665 44.718 44.1162 46.9939C47.1549 55.1327 51.4123 62.7627 56.7427 69.6227L57.6123 70.7419C59.2848 72.8944 62.2844 73.4917 64.6539 72.1442L68.725 69.8289L84.7369 98.1789C76.9642 102.598 67.3602 100.104 62.9511 98.5369Z" fill="#FBD85E"/>
<path d="M55.9429 81.6371L59.46 83.1793C59.2485 80.6595 60.3351 74.9616 62.4532 72.8306C61.8137 73.0232 59.0704 72.8653 57.1338 70.1909C54.7131 66.8479 49.5451 60.2037 44.2354 47.268C43.9871 46.1928 43.7182 43.7476 44.6298 42.5682C43.5686 42.9255 40.2265 42.9328 35.3478 40.1039L35.1211 46.1131C41.1572 64.2029 51.5174 77.3332 55.9429 81.6371Z" fill="#EBC338"/>
<ellipse cx="76.5752" cy="84.0059" rx="14.9758" ry="9.88204" transform="rotate(-124.065 76.5752 84.0059)" fill="#D09F1F" stroke="#FBD85E" stroke-width="2.63521"/>
<path opacity="0.5" d="M77.0801 88.5101C77.6583 88.1192 78.6073 88.5125 79.1997 89.3888C79.7922 90.265 79.8038 91.2922 79.2256 91.6831C78.6474 92.0741 77.6984 91.6807 77.106 90.8045C76.5135 89.9283 76.5019 88.901 77.0801 88.5101Z" fill="#AC7C34"/>
<path opacity="0.5" d="M72.8238 84.7712C73.4019 84.3803 74.3509 84.7737 74.9434 85.6499C75.5359 86.5261 75.5474 87.5533 74.9692 87.9442C74.3911 88.3352 73.4421 87.9418 72.8496 87.0656C72.2572 86.1894 72.2456 85.1622 72.8238 84.7712Z" fill="#AC7C34"/>
<path opacity="0.5" d="M70.5288 79.7724C71.107 79.3814 72.056 79.7748 72.6485 80.651C73.2409 81.5272 73.2525 82.5545 72.6743 82.9454C72.0961 83.3363 71.1472 82.943 70.5547 82.0667C69.9622 81.1905 69.9507 80.1633 70.5288 79.7724Z" fill="#AC7C34"/>
<path opacity="0.5" d="M71.9854 75.6899C72.5636 75.2989 73.5126 75.6923 74.105 76.5685C74.6975 77.4447 74.709 78.4719 74.1309 78.8629C73.5527 79.2538 72.6037 78.8604 72.0112 77.9842C71.4188 77.108 71.4072 76.0808 71.9854 75.6899Z" fill="#AC7C34"/>
<path opacity="0.5" d="M76.4932 77.4775C77.0714 77.0866 78.0204 77.48 78.6128 78.3562C79.2053 79.2324 79.2169 80.2596 78.6387 80.6505C78.0605 81.0415 77.1115 80.6481 76.5191 79.7719C75.9266 78.8957 75.915 77.8685 76.4932 77.4775Z" fill="#AC7C34"/>
<path opacity="0.5" d="M80.087 82.2186C80.6651 81.8277 81.6141 82.221 82.2066 83.0972C82.799 83.9735 82.8106 85.0007 82.2324 85.3916C81.6543 85.7826 80.7053 85.3892 80.1128 84.513C79.5204 83.6368 79.5088 82.6095 80.087 82.2186Z" fill="#AC7C34"/>
<path opacity="0.5" d="M80.7764 87.1336C81.3546 86.7426 82.3036 87.136 82.896 88.0122C83.4885 88.8884 83.5001 89.9157 82.9219 90.3066C82.3437 90.6975 81.3947 90.3042 80.8023 89.428C80.2098 88.5517 80.1982 87.5245 80.7764 87.1336Z" fill="#AC7C34"/>
<path fill-rule="evenodd" clip-rule="evenodd" d="M64.3726 91.5119C69.3854 98.9255 76.9414 101.563 81.9852 99.3745C78.4826 100.975 73.0083 100.678 71.6013 100.506C68.3346 98.9439 65.2025 96.2677 62.7353 92.619C60.0503 88.648 58.6585 84.2961 58.6211 80.4398C58.5928 77.5299 59.2072 74.7394 60.7628 72.7041C60.7628 72.7041 61.5023 73.1162 63.8324 72.5489C61.656 74.0205 60.5641 76.9949 60.5974 80.4206C60.6305 83.8373 61.8741 87.8168 64.3726 91.5119Z" fill="#EBC338"/>
<path fill-rule="evenodd" clip-rule="evenodd" d="M29.7195 31.0087C25.9105 22.9104 27.5069 15.0682 31.966 11.852C28.8 14.0442 26.2569 18.901 25.6849 20.1978C25.3575 23.804 26.0564 27.8641 27.931 31.8498C29.9712 36.1875 32.9999 39.6085 36.295 41.6121C38.7815 43.124 41.4938 44.0226 44.0383 43.726C44.0383 43.726 44.0623 42.8798 45.7409 41.1673C43.3636 42.2855 40.2491 41.7032 37.3218 39.9234C34.4024 38.1482 31.6179 35.045 29.7195 31.0087Z" fill="#EBC338"/>
<ellipse cx="42.8294" cy="24.4483" rx="14.9746" ry="9.88204" transform="rotate(-115.187 42.8294 24.4483)" fill="#D09F1F" stroke="#FBD85E" stroke-width="2.63521"/>
<path opacity="0.5" d="M38.9005 21.2544C39.5791 20.9306 39.7688 19.8896 39.3242 18.9294C38.8795 17.9691 37.9689 17.4531 37.2903 17.777C36.6117 18.1008 36.422 19.1417 36.8666 20.102C37.3113 21.0623 38.2218 21.5782 38.9005 21.2544Z" fill="#AC7C34"/>
<path opacity="0.5" d="M39.8145 26.8955C40.4932 26.5717 40.6829 25.5307 40.2382 24.5705C39.7936 23.6102 38.883 23.0943 38.2044 23.4181C37.5257 23.7419 37.336 24.7828 37.7807 25.7431C38.2253 26.7034 39.1359 27.2193 39.8145 26.8955Z" fill="#AC7C34"/>
<path opacity="0.5" d="M42.9683 31.4035C43.647 31.0796 43.8367 30.0387 43.392 29.0784C42.9474 28.1181 42.0368 27.6022 41.3582 27.926C40.6795 28.2498 40.4898 29.2908 40.9345 30.2511C41.3791 31.2113 42.2897 31.7273 42.9683 31.4035Z" fill="#AC7C34"/>
<path opacity="0.5" d="M47.4459 32.1152C48.1245 31.7914 48.3142 30.7505 47.8696 29.7902C47.4249 28.8299 46.5143 28.314 45.8357 28.6378C45.1571 28.9616 44.9674 30.0026 45.412 30.9628C45.8567 31.9231 46.7673 32.4391 47.4459 32.1152Z" fill="#AC7C34"/>
<path opacity="0.5" d="M48.4176 27.2125C49.0962 26.8887 49.2859 25.8478 48.8412 24.8875C48.3966 23.9272 47.486 23.4113 46.8074 23.7351C46.1288 24.0589 45.9391 25.0999 46.3837 26.0601C46.8283 27.0204 47.7389 27.5364 48.4176 27.2125Z" fill="#AC7C34"/>
<path opacity="0.5" d="M46.233 21.6697C46.9116 21.3459 47.1013 20.3049 46.6567 19.3446C46.212 18.3844 45.3014 17.8684 44.6228 18.1922C43.9442 18.5161 43.7545 19.557 44.1991 20.5173C44.6438 21.4776 45.5544 21.9935 46.233 21.6697Z" fill="#AC7C34"/>
<path opacity="0.5" d="M42.2364 18.6364C42.915 18.3125 43.1047 17.2716 42.6601 16.3113C42.2155 15.351 41.3049 14.8351 40.6262 15.1589C39.9476 15.4827 39.7579 16.5237 40.2026 17.484C40.6472 18.4442 41.5578 18.9602 42.2364 18.6364Z" fill="#AC7C34"/>
<path opacity="0.8" d="M62.0197 87.0559C64.875 94.084 70.1308 97.9892 73.7267 99.1888C74.4089 99.4163 75.1424 99.2072 75.6856 98.7359C77.0733 97.532 76.6029 95.1899 75.05 94.2083C71.3688 91.8812 69 88.3355 67.7091 85.5068C67.0444 84.0502 65.456 83.1176 63.9083 83.5272C62.3481 83.9401 61.4123 85.5607 62.0197 87.0559Z" fill="#FFE768"/>
</svg>
