<?xml version="1.0"?>
<svg xmlns="http://www.w3.org/2000/svg" viewBox="0 0 112 112" fill="none">
<path opacity="0.3" d="M44.2587 60.9359C55.316 60.5053 63.9307 51.1925 63.5001 40.1352C63.0694 29.0778 53.7566 20.4632 42.6993 20.8938C31.6419 21.3244 23.0273 30.6372 23.4579 41.6945C23.8885 52.7519 33.2013 61.3665 44.2587 60.9359Z" fill="#BCE5F0"/>
<path opacity="0.8" d="M38.5434 40.3173C39.7443 35.2504 38.3417 30.5797 35.4107 29.8851C32.4797 29.1904 29.1302 32.7348 27.9293 37.8016C26.7284 42.8685 28.1309 47.5392 31.0619 48.2338C33.9929 48.9285 37.3425 45.3841 38.5434 40.3173Z" fill="white"/>
<path d="M43.9914 67.7745C56.8467 67.2739 66.8622 56.4468 66.3615 43.5915C65.8609 30.7362 55.0338 20.7207 42.1784 21.2213C29.3231 21.722 19.3077 32.5491 19.8083 45.4044C20.309 58.2597 31.1361 68.2752 43.9914 67.7745Z" stroke="#35487A" stroke-width="9.32018"/>
<path d="M44.6237 64.3745C57.479 63.8739 67.4945 53.0468 66.9939 40.1914C66.4932 27.3361 55.6661 17.3207 42.8108 17.8213C29.9555 18.3219 19.94 29.1491 20.4407 42.0044C20.9413 54.8597 31.7684 64.8751 44.6237 64.3745Z" stroke="#3E599F" stroke-width="8.52414"/>
<path d="M59.2991 67.5943C57.4324 65.5397 57.5832 62.3549 59.6437 60.4879C61.6983 58.6213 64.8832 58.7721 66.7501 60.8326L74.1296 68.9588C75.9963 71.0133 75.8454 74.1982 73.7849 76.0651C71.7303 77.9318 68.5455 77.7809 66.6786 75.7204L59.2991 67.5943Z" fill="#FFEA80"/>
<path d="M20.838 45.4775C18.8551 35.1209 24.0613 25.054 32.9615 20.4274" stroke="#5E7ECC" stroke-width="8.52414" stroke-linecap="round"/>
<path d="M63.5749 77.4411C60.389 73.9306 60.6506 68.4953 64.1612 65.3094C67.6717 62.1235 73.107 62.3851 76.2929 65.8956L93.8636 85.253C97.0495 88.7636 96.788 94.1989 93.2774 97.3848C89.7669 100.571 84.3316 100.309 81.1457 96.7985L63.5749 77.4411Z" fill="#D8915D"/>
<ellipse rx="4.7188" ry="2.94925" transform="matrix(-0.756551 0.653935 0.653935 0.756551 90.3684 93.6442)" fill="#FFEA80"/>
<path opacity="0.8" d="M70.5882 70.1654C69.3696 68.1882 66.6027 67.9203 65.02 69.6211C63.7745 70.9625 63.7676 73.0411 65.0056 74.3882L68.3579 78.0386C70.671 80.5586 74.7403 77.9413 73.4078 74.7928C73.3485 74.6487 73.2748 74.5101 73.1916 74.3767L70.5882 70.1654Z" fill="#ECB16B"/>
</svg>
