<?xml version="1.0"?>
<svg xmlns="http://www.w3.org/2000/svg" viewBox="0 0 112 112" fill="none">
<path d="M73.0215 71.1701C60.2629 79.8319 37.1816 87.3154 18.669 89.3924C14.0077 89.9154 10.8077 85.2506 12.54 80.8917L19.7689 62.7018C20.2485 61.4951 21.2508 60.572 22.4928 60.1932L83.0168 41.7344C77.9268 45.9013 76.64 58.3764 76.3163 64.833C76.1904 67.346 75.1032 69.7569 73.0215 71.1701Z" fill="#835035"/>
<path d="M75.1035 70.94C62.3449 79.6018 39.2636 87.0853 20.751 89.1622C16.0898 89.6852 12.8898 85.0204 14.622 80.6616L21.851 62.4716C22.3305 61.265 23.3328 60.3419 24.5748 59.9631L85.0988 41.5043C80.0088 45.6712 78.722 58.1462 78.3984 64.6028C78.2724 67.1158 77.1852 69.5267 75.1035 70.94Z" fill="#5C3F35"/>
<path d="M39.259 24.3169C53.283 26.9867 62.9987 38.8878 67.9314 51.7026C68.049 52.0081 68.3979 52.1649 68.7059 52.0485L86.4651 45.3343C86.7555 45.2245 86.9021 44.9034 86.7968 44.6134C78.4086 21.5284 50.6138 17.9383 39.0622 23.2974C38.5665 23.5274 38.7158 24.2135 39.259 24.3169Z" fill="#835035"/>
<path d="M38.4309 24.154L30.031 23.8905C28.0345 23.8279 27.1091 21.3838 28.5634 20.0146C29.3024 19.3189 30.4163 19.2059 31.2799 19.7391L38.4309 24.154Z" stroke="#A46B42" stroke-width="2.36738"/>
<path d="M38.021 24.4928L45.2452 20.546C47.3607 19.3903 46.8478 16.2173 44.476 15.7868C43.3628 15.5848 42.2491 16.1384 41.7382 17.1479L38.021 24.4928Z" stroke="#A46B42" stroke-width="2.36738"/>
<path d="M91.7911 50.1377L84.3432 48.5443C83.623 48.3902 82.8751 48.425 82.1723 48.6452L53.4492 57.6437L28.4616 67.6095C37.4793 67.272 41.1249 71.954 49.0636 70.8558C75.384 67.2148 92.1136 61.0498 100.513 57.2364C103.033 56.0922 102.595 52.7897 99.907 52.1299L91.7911 50.1377Z" fill="#835035" stroke="#9C693A" stroke-width="4.14291" stroke-linejoin="round"/>
<path d="M89.7632 48.6259L82.2581 47.0203C81.5743 46.874 80.865 46.8978 80.1925 47.0896L53.0963 54.8189L28.3638 65.3136C37.3815 64.9761 40.6564 69.853 48.5952 68.7548C77.093 64.8125 93.5615 58.2085 100.717 54.7093C102.402 53.8854 102.069 51.6466 100.248 51.1996L89.7632 48.6259Z" fill="#835035" stroke="#835035" stroke-width="4.14291" stroke-linejoin="round"/>
<path d="M40.6854 23.4826C23.4029 29.0559 14.4625 48.7096 20.7166 67.3802L51.983 55.8254L83.3023 47.1973C77.0482 28.5266 57.968 17.9092 40.6854 23.4826Z" fill="#A46B42"/>
<path d="M39.0333 24.2217C21.9863 29.7191 13.2369 49.3111 19.491 67.9818L50.3252 56.5664L81.2236 48.074C74.9695 29.4033 56.0803 18.7243 39.0333 24.2217Z" fill="#B77B43"/>
<path d="M36.6233 25.0036C26.6361 28.2244 21.6941 47.8409 27.5011 65.1767L42.1276 57.5932L62.3409 51.1323C56.534 33.7964 46.6106 21.7829 36.6233 25.0036Z" fill="#C08D50"/>
<path d="M38.3183 24.9174C29.9454 35.7036 29.5293 49.4524 34.8098 62.7287C34.9207 63.0074 34.8055 63.3269 34.5401 63.4667L18.7268 71.7928C18.4215 71.9535 18.041 71.8081 17.9164 71.4863C8.38724 46.8825 24.3142 26.3581 37.812 24.0078C38.3222 23.919 38.6358 24.5083 38.3183 24.9174Z" fill="#A46B42"/>
<path d="M36.2694 25.3712C27.8966 36.1575 27.4805 49.9063 32.761 63.1825C32.8718 63.4613 32.7567 63.7808 32.4913 63.9205L16.678 72.2466C16.3727 72.4074 15.9922 72.2619 15.8675 71.9402C6.33841 47.3364 22.2653 26.8119 35.7632 24.4616C36.2733 24.3728 36.587 24.9622 36.2694 25.3712Z" fill="#835035"/>
<path d="M16.6851 72.0532C37.9445 58.0288 69.6819 49.0225 88.1114 45.9113" stroke="#9C693A" stroke-width="3.88381" stroke-linecap="round"/>
</svg>
