<?xml version="1.0"?>
<svg xmlns="http://www.w3.org/2000/svg" viewBox="0 0 112 112" fill="none">
<path d="M54.3535 87.2882L61.7456 86.8776L62.6871 105.331C62.7334 106.239 62.0098 107 61.1008 107C60.3892 107 59.7645 106.527 59.5718 105.842L54.3535 87.2882Z" fill="#3C3B42"/>
<path d="M55.4082 77.6386C55.4082 75.8242 56.8791 74.3533 58.6936 74.3533H87.2399C92.1872 74.3533 96.1979 78.3639 96.1979 83.3113C96.1979 89.4822 91.1954 94.4848 85.0244 94.4848H58.6936C56.8791 94.4848 55.4082 93.0139 55.4082 91.1994V77.6386Z" fill="#CA3D23"/>
<path d="M79.9531 87.1367L87.3452 86.7261L88.2867 105.18C88.333 106.088 87.6094 106.849 86.7004 106.849C85.9888 106.849 85.3641 106.376 85.1714 105.691L79.9531 87.1367Z" fill="#444251"/>
<path d="M56.7138 12.372L53.0247 14.5597C51.1548 15.6686 50.34 17.952 51.0853 19.9941L64.7893 57.5392L73.0561 87.2998C74.1744 91.3255 78.2653 93.7559 82.3357 92.8127L89.3089 91.1968C90.5187 90.9165 91.4671 89.9779 91.76 88.7711L96.1395 70.7251C99.0161 70.7251 101.348 68.3932 101.348 65.5166V65.2961C101.348 62.2182 98.8528 59.723 95.7749 59.723H78.9731C76.4873 59.723 74.4952 57.6648 74.5764 55.1803L74.6509 52.8977C74.92 44.6624 74.1596 36.4257 72.3873 28.3789L70.1455 18.1998C68.8218 12.1894 62.0074 9.23275 56.7138 12.372Z" fill="#A52242"/>
<path d="M55.9333 12.7426L52.1247 15.1352C49.9448 16.5046 49.0526 19.2347 50.0032 21.6272L60.9147 49.0898C64.7131 58.6497 67.2208 68.6731 68.3716 78.8954L69.3482 87.5695C69.7925 91.5161 73.1304 94.4993 77.102 94.4993H84.8653C86.4738 94.4993 87.8459 93.3346 88.107 91.7473L91.4888 71.1952C92.0237 67.9443 89.5155 64.9896 86.2209 64.9896H76.9044C73.9559 64.9896 71.5657 62.5994 71.5657 59.6509V51.4128C71.5657 44.4283 70.8264 37.4635 69.3601 30.6348L66.4729 17.1886C65.4554 12.45 60.0373 10.1644 55.9333 12.7426Z" fill="#A52242"/>
<path d="M63.7187 94.4844H85.0207C91.2262 94.4844 96.2568 89.4538 96.2568 83.2482V59.781C92.0228 59.781 88.5905 63.2133 88.5905 67.4474V82.3119C88.5905 84.5097 86.8088 86.2914 84.611 86.2914H63.7187V94.4844Z" fill="#C33054"/>
<path fill-rule="evenodd" clip-rule="evenodd" d="M94.4599 70.725H95.9061C98.9443 70.725 101.407 68.2621 101.407 65.2239C101.407 62.1858 98.9443 59.7229 95.9061 59.7229H94.4599C91.2508 59.7229 88.6494 62.1858 88.6494 65.2239L88.6494 70.3354C89.7153 71.54 92.6702 70.725 94.4599 70.725Z" fill="#C33054"/>
<path d="M44.9458 87.2861L37.3484 87.2861L36.5964 105.335C36.5585 106.242 37.2839 106.998 38.1919 106.998C38.9074 106.998 39.5356 106.522 39.7293 105.834L44.9458 87.2861Z" fill="#3C3B42"/>
<path d="M49.1629 15.8563H28.6514L35.2221 74.5823H71.8742C69.7302 74.5823 67.9471 72.9299 67.7786 70.7925C65.1577 37.5436 63.5135 22.5007 55.062 17.1849C53.3236 16.0915 51.2166 15.8563 49.1629 15.8563Z" fill="#D73A60"/>
<path opacity="0.7" d="M49.6853 17.8955H42.2105C39.5935 17.8955 38.6475 21.3479 40.8989 22.6819L47.1836 26.406C49.3787 27.7067 51.8833 28.393 54.4348 28.393C56.6386 28.393 58.175 26.2068 57.4284 24.1334L57.0445 23.0673C55.9271 19.9643 52.9834 17.8955 49.6853 17.8955Z" fill="#EE5974"/>
<path d="M68.1577 87.2861L60.5603 87.2861L59.8083 105.335C59.7705 106.242 60.4958 106.998 61.4039 106.998C62.1193 106.998 62.7475 106.522 62.9412 105.834L68.1577 87.2861Z" fill="#444251"/>
<path d="M52.5322 74.3938H91.4914C95.1203 74.3938 98.0622 77.3356 98.0622 80.9645V83.1044C98.0622 85.1456 96.4074 86.8004 94.3661 86.8004H52.5322V74.3938Z" fill="#D73A60"/>
<path d="M72.0498 78.5737C72.0498 77.6045 72.8356 76.8187 73.8048 76.8187H93.3125C94.3184 76.8187 95.1339 77.6342 95.1339 78.6402C95.1339 79.206 94.6752 79.6647 94.1093 79.6647H73.1408C72.5382 79.6647 72.0498 79.1763 72.0498 78.5737Z" fill="#E7506E"/>
<path d="M44.6416 77.6386C44.6416 75.8242 46.1125 74.3533 47.927 74.3533H62.5329C66.1618 74.3533 69.1037 77.2951 69.1037 80.9241V83.0637C69.1037 85.105 67.4488 86.7599 65.4075 86.7599H47.927C46.1125 86.7599 44.6416 85.289 44.6416 83.4745L44.6416 77.6386Z" fill="#A52242"/>
<path d="M18.933 12.372L15.2439 14.5597C13.3741 15.6686 12.5592 17.952 13.3046 19.9941L27.0085 57.5392L35.688 88.7852C36.6261 92.1624 39.701 94.4996 43.2061 94.4996H66.1774V86.76H63.6024C61.4046 86.76 59.6229 84.9784 59.6229 82.7806V65.0617C59.6229 62.1132 57.2327 59.723 54.2842 59.723H42.1718C39.1563 59.723 36.7393 57.2273 36.8358 54.2133L36.879 52.8663C37.1422 44.6517 36.3811 36.4362 34.6134 28.4097L32.3648 18.1998C31.0411 12.1894 24.2266 9.23275 18.933 12.372Z" fill="#A52242"/>
<path fill-rule="evenodd" clip-rule="evenodd" d="M57.1533 12.127C60.7925 11.32 64.4464 13.5284 65.402 17.1618L70.1337 35.1536C71.6776 41.0238 72.4592 47.0684 72.4592 53.1383V54.0219C72.4592 57.1975 74.9889 60.252 79.2107 59.7231H78.9729C76.9673 59.7231 75.2832 58.3834 74.7499 56.5609C74.3638 55.7853 74.1457 54.9176 74.1457 54.0219V53.1383C74.1457 46.9236 73.3455 40.7349 71.7648 34.7246L67.033 16.7328C66.3726 14.2218 64.6745 12.2588 62.5192 11.1842C60.7489 10.9433 58.8823 11.2237 57.1533 12.127Z" fill="#921E3A"/>
<path d="M65.1464 61.4479L62.5132 70.8369C62.0059 72.6457 63.3655 74.4391 65.2441 74.4391H80.4584C82.6996 74.4391 84.5922 72.7749 84.8789 70.5521L86.1824 60.443C86.4111 58.6693 84.9613 57.1292 83.1771 57.2505L69.1357 58.2047C67.2536 58.3326 65.6558 59.6316 65.1464 61.4479Z" fill="#EE8652"/>
<path d="M67.131 74.4397H49.8839C48.8968 74.4397 47.9437 74.0797 47.2031 73.4272C46.522 72.8272 46.2063 71.9134 46.3715 71.0209L48.4952 59.5545C48.7616 58.1159 50.0785 57.1161 51.5358 57.2459L64.9435 58.4408C66.0922 58.5431 67.152 59.1013 67.8861 59.9907C68.2047 60.3766 68.4117 60.8423 68.4846 61.3374L69.937 71.1898C70.1894 72.9024 68.8621 74.4397 67.131 74.4397Z" fill="#F3C58E"/>
<path d="M54.8318 66.3663L50.595 71.1241C49.9629 71.8339 48.8731 71.8916 48.1696 71.2524C47.8925 71.0006 47.7644 70.6239 47.8306 70.2554L49.4571 61.1982C49.7172 59.7494 51.0425 58.7404 52.5083 58.8751L62.8554 59.8261C63.295 59.8665 63.6992 60.0841 63.9751 60.4287C64.3934 60.9514 64.2122 61.7278 63.6057 62.0113L55.7491 65.683C55.4001 65.8461 55.088 66.0786 54.8318 66.3663Z" fill="#FDCF99"/>
<path d="M18.1506 12.7426L14.342 15.1352C12.1621 16.5046 11.2699 19.2347 12.2205 21.6272L23.132 49.0898C26.9304 58.6497 29.4381 68.6731 30.5889 78.8954L31.5655 87.5695C32.0098 91.5161 35.3477 94.4993 39.3192 94.4993H49.54C51.2942 94.4993 52.739 93.1212 52.8217 91.3689L54.3166 59.7227H39.1217C36.1732 59.7227 33.783 57.3324 33.783 54.3839V51.4128C33.783 44.4283 33.0437 37.4635 31.5774 30.6348L28.6902 17.1886C27.6727 12.45 22.2546 10.1644 18.1506 12.7426Z" fill="#A52242"/>
<path fill-rule="evenodd" clip-rule="evenodd" d="M18.5928 12.5733C21.9021 12.3001 25.0285 14.4304 25.9017 17.7506L30.8489 36.5612C32.2561 41.912 33.1217 47.3906 33.4325 52.9145C33.6432 56.6568 36.1158 59.8917 39.6717 61.077L43.6093 62.3895C44.0511 62.5368 44.5287 62.298 44.676 61.8562C44.8232 61.4144 44.5844 60.9368 44.1426 60.7896L40.205 59.477C37.3049 58.5103 35.2882 55.8719 35.1164 52.8198C34.7992 47.183 33.9159 41.5923 32.4799 36.1323L27.5328 17.3216C26.7509 14.3488 24.5145 12.1441 21.7872 11.2725C20.8145 11.4661 19.8511 11.8271 18.9333 12.3714L18.5928 12.5733Z" fill="#921E3A"/>
<path fill-rule="evenodd" clip-rule="evenodd" d="M29.5432 70.725H54.0457V59.7229H29.5432C26.5697 59.7229 24.1592 62.1858 24.1592 65.2239C24.1592 68.2621 26.5697 70.725 29.5432 70.725Z" fill="#B12648"/>
<path d="M85.4899 94.4849H63.1346C56.929 94.4849 51.8984 89.4543 51.8984 83.2487V64.7559H59.6233V82.7806C59.6233 84.9784 61.405 86.76 63.6028 86.76H85.4899V94.4849Z" fill="#C43054"/>
<path fill-rule="evenodd" clip-rule="evenodd" d="M52.7904 70.725H54.2367C57.2748 70.725 59.7377 68.2621 59.7377 65.2239C59.7377 62.1858 57.2748 59.7229 54.2367 59.7229H52.7904C49.5814 59.7229 46.98 62.1858 46.98 65.2239C46.98 68.2621 49.5814 70.725 52.7904 70.725Z" fill="#C33054"/>
</svg>
