<?xml version="1.0"?>
<svg xmlns="http://www.w3.org/2000/svg" viewBox="0 0 112 112" fill="none">
<path d="M33.3152 91.4718C33.2636 91.2174 33.4279 90.9693 33.6822 90.9177L93.0952 78.8499L95.4339 90.3641C95.7439 91.8903 94.758 93.3788 93.2318 93.6888L36.5823 105.195C36.3279 105.247 36.0798 105.083 36.0281 104.828L33.3152 91.4718Z" fill="#CB7D34"/>
<path d="M32.9617 96.8191C32.91 96.5647 33.0744 96.3166 33.3287 96.265L92.7417 84.1972L93.1159 86.0395C93.1676 86.2938 93.0033 86.5419 92.7489 86.5936L33.7965 98.5678C33.5421 98.6195 33.294 98.4551 33.2424 98.2008L32.9617 96.8191Z" fill="#C7AE89"/>
<path d="M54.9216 12.5111L57.1434 23.4495C57.5954 25.6752 56.1576 27.846 53.932 28.298V28.298C51.7063 28.7501 49.5355 27.3123 49.0835 25.0866L45.9028 9.4274C45.5799 7.83763 46.6069 6.2871 48.1967 5.96419V5.96419C49.7864 5.64128 51.337 6.66827 51.6599 8.25805L54.5131 22.3053C54.7069 23.2592 54.0907 24.1895 53.1368 24.3832V24.3832C52.1829 24.577 51.2526 23.9608 51.0589 23.0069L48.3226 9.53537" stroke="#515B7D" stroke-width="1.40991" stroke-linecap="round"/>
<path d="M15.4968 20.2788C15.1868 18.7526 16.1728 17.2641 17.6989 16.9541L75.7302 5.16698C77.2564 4.85699 78.7449 5.8429 79.0549 7.36908L94.1606 81.7387C94.4706 83.2649 93.4847 84.7534 91.9585 85.0634L60.1795 91.5183L32.5599 99.2247C32.0343 99.3713 31.4948 99.0411 31.3862 98.5064L15.4968 20.2788Z" fill="#FFCC49"/>
<rect x="39.9648" y="15.6018" width="20.4325" height="26.1239" rx="0.939941" transform="rotate(-18.8973 39.9648 15.6018)" fill="#E0B441"/>
<rect x="40.1436" y="14.1282" width="20.4325" height="26.1239" rx="0.939941" transform="rotate(-18.8973 40.1436 14.1282)" fill="#DFF9FF"/>
<path d="M44.0194 19.0419C44.1239 19.201 44.8242 20.6869 45.1056 19.9259C45.329 19.3219 45.5119 18.6876 45.7089 18.0735C45.8798 17.541 46.1111 16.987 46.2107 16.4397" stroke="#35B559" stroke-width="0.939941" stroke-linecap="round" stroke-linejoin="round"/>
<path d="M45.9336 25.6853C45.9734 25.7424 47.1922 27.6054 47.3188 27.4256C47.4602 27.2249 47.4181 26.8857 47.4597 26.6571C47.6267 25.7401 47.5305 24.8357 47.6408 23.9317" stroke="#35B559" stroke-width="0.939941" stroke-linecap="round" stroke-linejoin="round"/>
<path opacity="0.5" d="M47.8153 18.8419C48.4201 17.6415 48.9943 16.3783 48.9634 15.003C48.9562 14.6819 48.8726 14.1026 48.7284 14.7694C48.5657 15.5216 48.4087 16.8112 49.0827 17.386C49.9958 18.1647 51.6566 16.4473 52.1164 15.8267C52.2928 15.5885 52.414 14.9219 52.643 15.1101C52.799 15.2384 52.8352 15.8484 52.874 16.0167C52.9859 16.5021 53.0158 17.0893 53.583 16.6856C54.7797 15.8337 55.7284 14.7313 57.3574 15.0279" stroke="#5664AD" stroke-width="0.939941" stroke-linecap="round" stroke-linejoin="round"/>
<path opacity="0.5" d="M51.224 25.4649C51.4356 24.3593 51.9319 23.2616 53.2922 23.539C53.8214 23.6469 54.1745 24.0388 54.6432 24.265C55.1576 24.5131 55.7508 24.3136 56.2521 24.131C57.1172 23.8159 57.9172 23.2101 58.8397 23.0948C59.6458 22.994 60.2869 22.8982 60.9125 22.3715" stroke="#5664AD" stroke-width="0.939941" stroke-linecap="round" stroke-linejoin="round"/>
<path opacity="0.5" d="M52.7453 33.4119C53.3997 32.611 54.0121 31.7473 55.0769 31.5002C55.6608 31.3647 56.2842 31.4105 56.877 31.3326C58.0787 31.1745 58.6885 30.0839 59.587 29.3857C60.0676 29.0122 60.721 28.9951 61.2939 28.8618C61.6419 28.7809 61.8317 28.5381 62.1397 28.4087" stroke="#5664AD" stroke-width="0.939941" stroke-linecap="round" stroke-linejoin="round"/>
<path d="M46.022 10.0033L45.905 9.42764C45.5821 7.83787 46.6091 6.28733 48.1989 5.96442V5.96442C49.7887 5.64152 51.3392 6.66851 51.6621 8.25828L53.5799 17.6999C53.7736 18.6537 53.1574 19.5841 52.2035 19.7778V19.7778C51.2497 19.9716 50.3194 19.3554 50.1256 18.4015L48.3248 9.5356" stroke="#515B7D" stroke-width="1.40991" stroke-linecap="round"/>
<path fill-rule="evenodd" clip-rule="evenodd" d="M36.3488 49.3267C36.4137 49.2037 36.5516 49.138 36.688 49.1651C36.9785 49.2229 37.0349 49.6138 36.7726 49.7514L35.8769 50.2213L36.3488 49.3267ZM36.7937 48.6338C36.4222 48.5599 36.0464 48.7389 35.8697 49.0739L35.1823 50.3772L33.8526 49.5249C33.5539 49.3335 33.164 49.3664 32.9016 49.6052C32.3853 50.0751 32.6943 50.9348 33.3917 50.9684L34.0882 51.002C31.2037 51.9419 28.1558 56.1812 29.8751 61.3312C29.7128 61.4731 29.6738 61.7161 29.7931 61.9037C29.8946 62.0634 30.0811 62.1364 30.2561 62.101L29.7728 63.3229C29.3158 64.4779 30.3434 65.6134 31.5222 65.2219C32.2645 64.9753 33.0837 64.6959 33.9704 64.3935C36.4507 63.5476 39.4595 62.5214 42.7927 61.5289C43.6011 61.2883 44.1619 60.5511 44.2382 59.7111C44.2575 59.4988 44.2814 59.271 44.3111 59.0338L47.8866 58.1428C48.5664 57.9734 48.5728 57.0095 47.8953 56.831L46.9765 56.589L46.3669 56.4478C46.4717 56.4309 46.5749 56.4148 46.6763 56.3994C46.9189 56.3626 47.0858 56.1361 47.049 55.8935C47.0123 55.6509 46.7858 55.484 46.5431 55.5208C46.4562 55.5339 46.368 55.5477 46.2785 55.5619C44.722 51.2188 40.1215 49.8559 37.0913 50.1924C37.7282 49.7879 37.5594 48.7862 36.7937 48.6338ZM33.2662 50.0058C33.3473 49.932 33.4679 49.9218 33.5603 49.981L34.3251 50.4712L33.4178 50.4274C33.2021 50.417 33.1065 50.1511 33.2662 50.0058Z" fill="#E0B441"/>
<mask id="path-14-outside-1" maskUnits="userSpaceOnUse" x="24.5433" y="42.9343" width="27.3017" height="23.397" fill="black">
<rect fill="white" x="24.5433" y="42.9343" width="27.3017" height="23.397"/>
<path fill-rule="evenodd" clip-rule="evenodd" d="M36.3224 48.0302C36.3872 47.9072 36.5252 47.8415 36.6616 47.8686C36.9521 47.9264 37.0085 48.3173 36.7462 48.4549L35.8505 48.9249L36.3224 48.0302ZM36.7673 47.3374C36.3958 47.2634 36.02 47.4425 35.8433 47.7775L35.1556 49.0811L33.8266 48.2293C33.5279 48.0379 33.1379 48.0708 32.8756 48.3096C32.3593 48.7796 32.6683 49.6392 33.3656 49.6728L34.0623 49.7065C31.1773 50.6457 28.1283 54.8858 29.8485 60.0367C29.6879 60.1789 29.6498 60.4207 29.7685 60.6075C29.8699 60.7668 30.0559 60.8398 30.2306 60.8049L29.7474 62.0263C29.2905 63.1814 30.318 64.3169 31.4969 63.9253C32.2392 63.6787 33.0583 63.3994 33.945 63.097L33.945 63.0969C36.4254 62.251 39.4341 61.2249 42.7674 60.2324C43.5757 59.9917 44.1365 59.2545 44.2129 58.4146C44.2321 58.2025 44.256 57.9751 44.2856 57.7383L47.8616 56.8472C48.5414 56.6778 48.5478 55.7138 47.8703 55.5354L46.9515 55.2933L46.3404 55.1518C46.4459 55.1348 46.5497 55.1186 46.6518 55.1031C46.8944 55.0664 47.0613 54.8399 47.0245 54.5972C46.9877 54.3546 46.7613 54.1877 46.5186 54.2245C46.4311 54.2378 46.3423 54.2516 46.2522 54.2659C44.6933 49.9214 40.0877 48.5605 37.0582 48.9001C37.7029 48.4983 37.5356 47.4902 36.7673 47.3374ZM33.2402 48.7102C33.3213 48.6364 33.4419 48.6262 33.5343 48.6854L34.2991 49.1756L33.3917 49.1318C33.1761 49.1214 33.0805 48.8555 33.2402 48.7102Z"/>
</mask>
<path fill-rule="evenodd" clip-rule="evenodd" d="M36.3224 48.0302C36.3872 47.9072 36.5252 47.8415 36.6616 47.8686C36.9521 47.9264 37.0085 48.3173 36.7462 48.4549L35.8505 48.9249L36.3224 48.0302ZM36.7673 47.3374C36.3958 47.2634 36.02 47.4425 35.8433 47.7775L35.1556 49.0811L33.8266 48.2293C33.5279 48.0379 33.1379 48.0708 32.8756 48.3096C32.3593 48.7796 32.6683 49.6392 33.3656 49.6728L34.0623 49.7065C31.1773 50.6457 28.1283 54.8858 29.8485 60.0367C29.6879 60.1789 29.6498 60.4207 29.7685 60.6075C29.8699 60.7668 30.0559 60.8398 30.2306 60.8049L29.7474 62.0263C29.2905 63.1814 30.318 64.3169 31.4969 63.9253C32.2392 63.6787 33.0583 63.3994 33.945 63.097L33.945 63.0969C36.4254 62.251 39.4341 61.2249 42.7674 60.2324C43.5757 59.9917 44.1365 59.2545 44.2129 58.4146C44.2321 58.2025 44.256 57.9751 44.2856 57.7383L47.8616 56.8472C48.5414 56.6778 48.5478 55.7138 47.8703 55.5354L46.9515 55.2933L46.3404 55.1518C46.4459 55.1348 46.5497 55.1186 46.6518 55.1031C46.8944 55.0664 47.0613 54.8399 47.0245 54.5972C46.9877 54.3546 46.7613 54.1877 46.5186 54.2245C46.4311 54.2378 46.3423 54.2516 46.2522 54.2659C44.6933 49.9214 40.0877 48.5605 37.0582 48.9001C37.7029 48.4983 37.5356 47.4902 36.7673 47.3374ZM33.2402 48.7102C33.3213 48.6364 33.4419 48.6262 33.5343 48.6854L34.2991 49.1756L33.3917 49.1318C33.1761 49.1214 33.0805 48.8555 33.2402 48.7102Z" fill="#F5F5F5"/>
<path d="M36.6616 47.8686L36.9752 46.2922L36.9752 46.2922L36.6616 47.8686ZM36.3224 48.0302L34.9007 47.2803L34.9007 47.2803L36.3224 48.0302ZM36.7462 48.4549L37.4929 49.8782L37.4929 49.8782L36.7462 48.4549ZM35.8505 48.9249L34.4288 48.175L32.0144 52.7525L36.5972 50.3482L35.8505 48.9249ZM35.8433 47.7775L34.4216 47.0276L34.4216 47.0276L35.8433 47.7775ZM36.7673 47.3374L37.0809 45.761L37.0809 45.761L36.7673 47.3374ZM35.1556 49.0811L34.2883 50.4344L35.7612 51.3783L36.5773 49.831L35.1556 49.0811ZM33.8266 48.2293L32.9593 49.5826L32.9593 49.5826L33.8266 48.2293ZM32.8756 48.3096L31.7937 47.1209L31.7937 47.1209L32.8756 48.3096ZM33.3656 49.6728L33.4431 48.0674L33.4431 48.0674L33.3656 49.6728ZM34.0623 49.7065L34.5599 51.2348L34.1397 48.101L34.0623 49.7065ZM29.8485 60.0367L30.9141 61.2401L31.7096 60.5356L31.373 59.5276L29.8485 60.0367ZM29.7685 60.6075L31.1249 59.7451L31.1249 59.7451L29.7685 60.6075ZM30.2306 60.8049L31.7252 61.3962L32.8112 58.651L29.9161 59.2287L30.2306 60.8049ZM29.7474 62.0263L31.242 62.6176L31.242 62.6176L29.7474 62.0263ZM31.4969 63.9253L32.0036 65.4507L32.0036 65.4507L31.4969 63.9253ZM33.945 63.097L34.4638 64.6182L34.4638 64.6182L33.945 63.097ZM33.945 63.0969L33.4262 61.5757L33.4262 61.5757L33.945 63.0969ZM42.7674 60.2324L43.2261 61.7728L43.2261 61.7728L42.7674 60.2324ZM44.2129 58.4146L45.8136 58.56L45.8136 58.56L44.2129 58.4146ZM44.2856 57.7383L43.8969 56.1787L42.8273 56.4453L42.6907 57.5392L44.2856 57.7383ZM47.8616 56.8472L48.2503 58.4068L47.8616 56.8472ZM47.8703 55.5354L48.2798 53.9811L48.2798 53.9811L47.8703 55.5354ZM46.9515 55.2933L47.3609 53.7391L47.3376 53.7329L47.3142 53.7275L46.9515 55.2933ZM46.3404 55.1518L46.085 53.5649L45.9777 56.7176L46.3404 55.1518ZM46.6518 55.1031L46.8926 56.6923L46.8926 56.6923L46.6518 55.1031ZM46.5186 54.2245L46.2778 52.6353L46.2778 52.6353L46.5186 54.2245ZM46.2522 54.2659L44.7393 54.8088L45.1894 56.063L46.5053 55.8532L46.2522 54.2659ZM37.0582 48.9001L36.2082 47.5359L37.2373 50.4973L37.0582 48.9001ZM33.5343 48.6854L32.667 50.0386L32.667 50.0386L33.5343 48.6854ZM33.2402 48.7102L32.1583 47.5215L32.1583 47.5215L33.2402 48.7102ZM34.2991 49.1756L34.2216 50.781L40.2354 51.0712L35.1664 47.8223L34.2991 49.1756ZM33.3917 49.1318L33.4692 47.5264L33.4692 47.5264L33.3917 49.1318ZM36.9752 46.2922C36.1413 46.1263 35.2974 46.5282 34.9007 47.2803L37.744 48.78C37.4771 49.2862 36.9092 49.5567 36.3479 49.445L36.9752 46.2922ZM37.4929 49.8782C39.0972 49.0366 38.752 46.6458 36.9752 46.2922L36.3479 49.445C35.1521 49.2071 34.9198 47.5981 35.9995 47.0316L37.4929 49.8782ZM36.5972 50.3482L37.4929 49.8782L35.9995 47.0316L35.1038 47.5016L36.5972 50.3482ZM34.9007 47.2803L34.4288 48.175L37.2721 49.6747L37.744 48.78L34.9007 47.2803ZM37.2649 48.5273C37.1098 48.8215 36.7798 48.9786 36.4536 48.9138L37.0809 45.761C36.0119 45.5482 34.9301 46.0635 34.4216 47.0276L37.2649 48.5273ZM36.5773 49.831L37.2649 48.5273L34.4216 47.0276L33.734 48.3313L36.5773 49.831ZM32.9593 49.5826L34.2883 50.4344L36.0229 47.7279L34.6939 46.8761L32.9593 49.5826ZM33.9575 49.4983C33.6821 49.7489 33.2728 49.7835 32.9593 49.5826L34.6939 46.8761C33.7831 46.2924 32.5938 46.3928 31.7937 47.1209L33.9575 49.4983ZM33.4431 48.0674C34.1751 48.1027 34.4994 49.005 33.9575 49.4983L31.7937 47.1209C30.2191 48.5541 31.1615 51.1757 33.2882 51.2783L33.4431 48.0674ZM34.1397 48.101L33.4431 48.0674L33.2882 51.2783L33.9848 51.3119L34.1397 48.101ZM31.373 59.5276C29.9312 55.2103 32.5363 51.8936 34.5599 51.2348L33.5647 48.1781C29.8183 49.3978 26.3254 54.5613 28.324 60.5459L31.373 59.5276ZM31.1249 59.7451C31.4366 60.2353 31.3354 60.867 30.9141 61.2401L28.7829 58.8334C28.0404 59.4909 27.863 60.606 28.4121 61.4698L31.1249 59.7451ZM29.9161 59.2287C30.3705 59.138 30.8584 59.3259 31.1249 59.7451L28.4121 61.4698C28.8814 62.2078 29.7412 62.5416 30.5451 62.3811L29.9161 59.2287ZM31.242 62.6176L31.7252 61.3962L28.736 60.2137L28.2528 61.435L31.242 62.6176ZM30.9902 62.4C30.9873 62.4009 30.9968 62.3975 31.0167 62.3969C31.0363 62.3963 31.0597 62.3987 31.0843 62.4054C31.1336 62.4188 31.1705 62.4445 31.1944 62.4707C31.2182 62.4966 31.2341 62.528 31.2406 62.5621C31.2482 62.6015 31.2394 62.6242 31.242 62.6176L28.2528 61.435C27.3243 63.7822 29.4516 66.2983 32.0036 65.4507L30.9902 62.4ZM33.4261 61.5757C32.5379 61.8786 31.7252 62.1558 30.9902 62.4L32.0036 65.4507C32.7531 65.2017 33.5787 64.9201 34.4638 64.6182L33.4261 61.5757ZM33.4262 61.5757L33.4261 61.5757L34.4638 64.6182L34.4639 64.6182L33.4262 61.5757ZM42.3087 58.6919C38.9414 59.6945 35.905 60.7303 33.4262 61.5757L34.4639 64.6182C36.9458 63.7717 39.9269 62.7552 43.2261 61.7728L42.3087 58.6919ZM42.6122 58.2691C42.5905 58.5074 42.4372 58.6536 42.3087 58.6919L43.2261 61.7728C44.7142 61.3297 45.6826 60.0016 45.8136 58.56L42.6122 58.2691ZM42.6907 57.5392C42.6586 57.7958 42.6329 58.0413 42.6122 58.2691L45.8136 58.56C45.8314 58.3638 45.8534 58.1544 45.8805 57.9375L42.6907 57.5392ZM47.4729 55.2876L43.8969 56.1787L44.6742 59.2979L48.2503 58.4068L47.4729 55.2876ZM47.4609 57.0897C46.5302 56.8445 46.539 55.5203 47.4729 55.2876L48.2503 58.4068C50.5438 57.8352 50.5655 54.5832 48.2798 53.9811L47.4609 57.0897ZM46.542 56.8476L47.4609 57.0897L48.2798 53.9811L47.3609 53.7391L46.542 56.8476ZM45.9777 56.7176L46.5888 56.8592L47.3142 53.7275L46.7031 53.586L45.9777 56.7176ZM46.411 53.514C46.3039 53.5302 46.1953 53.5472 46.085 53.5649L46.5957 56.7387C46.6965 56.7225 46.7955 56.707 46.8926 56.6923L46.411 53.514ZM45.4354 54.838C45.3391 54.203 45.7759 53.6102 46.411 53.514L46.8926 56.6923C48.0129 56.5225 48.7834 55.4767 48.6137 54.3564L45.4354 54.838ZM46.7594 55.8137C46.1244 55.9099 45.5316 55.4731 45.4354 54.838L48.6137 54.3564C48.4439 53.2361 47.3981 52.4656 46.2778 52.6353L46.7594 55.8137ZM46.5053 55.8532C46.5914 55.8395 46.6761 55.8263 46.7594 55.8137L46.2778 52.6353C46.1861 52.6492 46.0932 52.6637 45.9991 52.6787L46.5053 55.8532ZM37.2373 50.4973C39.8262 50.2071 43.5213 51.4141 44.7393 54.8088L47.7651 53.7231C45.8654 48.4286 40.3491 46.9138 36.8792 47.3028L37.2373 50.4973ZM36.4536 48.9138C35.7703 48.7778 35.6365 47.8922 36.2082 47.5359L37.9083 50.2642C39.7693 49.1044 39.3008 46.2027 37.0809 45.761L36.4536 48.9138ZM34.4016 47.3322C33.6971 46.8806 32.7772 46.9583 32.1583 47.5215L34.3221 49.8989C33.8655 50.3145 33.1868 50.3718 32.667 50.0386L34.4016 47.3322ZM35.1664 47.8223L34.4016 47.3322L32.667 50.0386L33.4318 50.5288L35.1664 47.8223ZM33.3143 50.7372L34.2216 50.781L34.3766 47.5701L33.4692 47.5264L33.3143 50.7372ZM32.1583 47.5215C30.9403 48.6301 31.6693 50.6578 33.3143 50.7372L33.4692 47.5264C34.6829 47.5849 35.2207 49.081 34.3221 49.8989L32.1583 47.5215Z" fill="#F5F5F5" mask="url(#path-14-outside-1)"/>
<path d="M42.7635 60.2371C38.2387 61.5844 34.3118 62.9937 31.493 63.9301C30.3142 64.3216 29.2866 63.1861 29.7435 62.0311L31.2439 58.2383C31.3556 57.9562 31.5919 57.7418 31.8836 57.6582L45.7907 53.6717C44.7351 54.5065 44.3496 56.8727 44.209 58.4193C44.1327 59.2592 43.5718 59.9964 42.7635 60.2371Z" fill="#5C4835"/>
<path d="M35.4859 49.5378C38.684 50.2027 40.8608 52.9629 41.9399 55.9137C41.9656 55.984 42.0448 56.0213 42.1158 55.9958L46.2046 54.5282C46.2715 54.5042 46.3062 54.4313 46.2833 54.3646C44.4533 49.0508 38.1082 48.1223 35.4448 49.3038C35.3305 49.3545 35.362 49.5121 35.4859 49.5378Z" fill="#73573E"/>
<path d="M35.2981 49.4976L33.3774 49.4049C32.9209 49.3829 32.7186 48.8202 33.0566 48.5125C33.2284 48.3562 33.4836 48.3347 33.6791 48.46L35.2981 49.4976Z" stroke="#876649" stroke-width="0.541684"/>
<path d="M35.2028 49.5725L36.8707 48.6974C37.3592 48.4411 37.2541 47.7132 36.7131 47.6056C36.4592 47.5551 36.2023 47.6775 36.0815 47.9064L35.2028 49.5725Z" stroke="#876649" stroke-width="0.541685"/>
<path d="M46.9455 55.296L45.2347 54.8997C45.0788 54.8636 44.9165 54.8663 44.7619 54.9076L38.533 56.5714L32.8342 58.877C34.0069 58.8529 35.6742 58.9546 36.8958 59.0471C37.9561 59.1273 39.0235 59.0508 40.0553 58.7937L47.8557 56.8498C48.5355 56.6804 48.5419 55.7165 47.8644 55.538L46.9455 55.296Z" fill="#A07650" stroke="#A07650" stroke-width="0.947948" stroke-linejoin="round"/>
<path d="M35.534 49.4861C31.5586 50.6945 29.4375 55.1564 30.7963 59.452L37.994 56.929L45.1924 55.0759C43.8336 50.7803 39.5094 48.2777 35.534 49.4861Z" fill="#A07650"/>
<path d="M34.8827 49.6829C32.5854 50.3813 31.3791 54.8501 32.6407 58.8385L36.0162 57.16L40.6656 55.7598C39.4039 51.7713 37.18 48.9846 34.8827 49.6829Z" fill="#B2845B"/>
<path d="M34.8001 49.7671C32.843 52.2025 32.6948 55.3463 33.8517 58.404C33.876 58.4682 33.8484 58.5409 33.7871 58.5718L30.1372 60.4157C30.0668 60.4513 29.9803 60.4165 29.953 60.3425C27.8678 54.6769 31.5907 50.0427 34.6878 49.5571C34.8049 49.5387 34.8744 49.6747 34.8001 49.7671Z" fill="#876649"/>
<path d="M30.1394 60.3717C35.0572 57.2452 42.3528 55.3071 46.5811 54.6664" stroke="#876649" stroke-width="0.888661" stroke-linecap="round"/>
<path fill-rule="evenodd" clip-rule="evenodd" d="M25.0146 24.9996C25.8867 24.073 26.7794 23.3224 27.5294 22.8527C27.9008 22.6201 28.264 22.4391 28.5896 22.3505C28.8739 22.2731 29.3307 22.2137 29.6672 22.5314C29.9061 22.7529 29.957 23.044 29.944 23.295L32.3156 25.4994C32.6281 25.7848 32.8284 26.1495 32.9155 26.5362C32.9769 26.6706 33.0054 26.8328 33.0032 27.0175L33.313 28.3893C33.4623 29.0344 33.7828 29.5893 34.2587 30.0342C35.2818 30.9806 35.9119 31.557 36.4509 32.0501L36.4509 32.0501C37.2962 32.8234 37.9174 33.3918 39.4796 34.8604C39.4934 34.8692 39.5041 34.8791 39.5122 34.89C39.5368 34.9033 39.5594 34.9193 39.58 34.9381C39.6048 34.9621 39.6257 34.9897 39.6428 35.0205L39.8342 35.1908C40.3429 35.6701 40.5546 36.3419 40.4588 36.9838C40.4908 37.3189 40.1813 37.9239 39.6638 38.4956C39.1876 39.0123 38.6708 39.3558 38.3332 39.4108C37.6677 39.6187 36.9254 39.4766 36.3946 38.9825L36.0896 38.7112C36.063 38.7067 36.041 38.6955 36.0268 38.6781L30.8716 33.9126C30.4295 33.4892 29.8641 33.2149 29.2588 33.1524L27.7313 32.9378C27.441 32.9869 27.1954 32.9599 27.0135 32.8473C26.6389 32.7874 26.2729 32.6216 25.9592 32.3458L23.4865 30.0473C23.2572 30.0609 23.0002 30.016 22.7893 29.8184C22.4413 29.4967 22.4884 29.0232 22.5516 28.7424C22.6259 28.4127 22.7899 28.0378 23.0047 27.6508C23.4386 26.8691 24.1429 25.9259 25.0146 24.9996Z" fill="#E0B441"/>
<g opacity="0.9">
<mask id="path-26-outside-2" maskUnits="userSpaceOnUse" x="19.2682" y="18.1815" width="24.9325" height="22.2564" fill="black">
<rect fill="white" x="19.2682" y="18.1815" width="24.9325" height="22.2564"/>
<path fill-rule="evenodd" clip-rule="evenodd" d="M25.1694 23.7193C26.0414 22.7926 26.9342 22.0421 27.6842 21.5723C28.0555 21.3397 28.4188 21.1588 28.7443 21.0702C29.0286 20.9928 29.4855 20.9333 29.822 21.2511C30.0589 21.4708 30.111 21.759 30.0991 22.0086L32.4729 24.215C32.7847 24.4998 32.9849 24.8636 33.0723 25.2495C33.1363 25.3884 33.165 25.5573 33.1608 25.75L33.4672 27.1068C33.6165 27.7519 33.937 28.3068 34.4129 28.7517C35.436 29.698 36.066 30.2744 36.605 30.7675L36.6051 30.7675C37.4503 31.5408 38.0716 32.1092 39.6338 33.5779C39.6459 33.5855 39.6555 33.5941 39.6632 33.6034C39.6912 33.6176 39.7167 33.6351 39.7398 33.6561C39.7666 33.682 39.7888 33.7122 39.8066 33.7461L39.9899 33.9091C40.4987 34.3886 40.7103 35.0605 40.6145 35.7024C40.6455 36.0378 40.3361 36.6419 39.8193 37.2128C39.3472 37.725 38.8351 38.0671 38.4975 38.1265C37.8297 38.3383 37.0834 38.1971 36.5503 37.7008L36.2443 37.4287C36.2175 37.4243 36.1953 37.4131 36.181 37.3955L31.0258 32.6301C30.5837 32.2066 30.0183 31.9323 29.413 31.8698L27.8817 31.6547C27.5947 31.7021 27.3517 31.6747 27.1715 31.563C26.7966 31.5032 26.4304 31.3374 26.1165 31.0614L23.6478 28.7666C23.4168 28.7814 23.1569 28.7375 22.944 28.5381C22.596 28.2164 22.6432 27.7429 22.7064 27.4621C22.7806 27.1324 22.9447 26.7574 23.1595 26.3705C23.5934 25.5888 24.2977 24.6455 25.1694 23.7193Z"/>
</mask>
<path fill-rule="evenodd" clip-rule="evenodd" d="M25.1694 23.7193C26.0414 22.7926 26.9342 22.0421 27.6842 21.5723C28.0555 21.3397 28.4188 21.1588 28.7443 21.0702C29.0286 20.9928 29.4855 20.9333 29.822 21.2511C30.0589 21.4708 30.111 21.759 30.0991 22.0086L32.4729 24.215C32.7847 24.4998 32.9849 24.8636 33.0723 25.2495C33.1363 25.3884 33.165 25.5573 33.1608 25.75L33.4672 27.1068C33.6165 27.7519 33.937 28.3068 34.4129 28.7517C35.436 29.698 36.066 30.2744 36.605 30.7675L36.6051 30.7675C37.4503 31.5408 38.0716 32.1092 39.6338 33.5779C39.6459 33.5855 39.6555 33.5941 39.6632 33.6034C39.6912 33.6176 39.7167 33.6351 39.7398 33.6561C39.7666 33.682 39.7888 33.7122 39.8066 33.7461L39.9899 33.9091C40.4987 34.3886 40.7103 35.0605 40.6145 35.7024C40.6455 36.0378 40.3361 36.6419 39.8193 37.2128C39.3472 37.725 38.8351 38.0671 38.4975 38.1265C37.8297 38.3383 37.0834 38.1971 36.5503 37.7008L36.2443 37.4287C36.2175 37.4243 36.1953 37.4131 36.181 37.3955L31.0258 32.6301C30.5837 32.2066 30.0183 31.9323 29.413 31.8698L27.8817 31.6547C27.5947 31.7021 27.3517 31.6747 27.1715 31.563C26.7966 31.5032 26.4304 31.3374 26.1165 31.0614L23.6478 28.7666C23.4168 28.7814 23.1569 28.7375 22.944 28.5381C22.596 28.2164 22.6432 27.7429 22.7064 27.4621C22.7806 27.1324 22.9447 26.7574 23.1595 26.3705C23.5934 25.5888 24.2977 24.6455 25.1694 23.7193Z" fill="#F5F5F5"/>
<path d="M27.6842 21.5723L26.831 20.2102L26.831 20.2102L27.6842 21.5723ZM25.1694 23.7193L26.3399 24.8208L26.3399 24.8208L25.1694 23.7193ZM28.7443 21.0702L29.1666 22.621L29.1666 22.621L28.7443 21.0702ZM29.822 21.2511L28.729 22.4295L28.7237 22.4247L28.7185 22.4197L29.822 21.2511ZM30.0991 22.0086L29.0048 23.1858L28.4582 22.6777L28.4936 21.9323L30.0991 22.0086ZM32.4729 24.215L31.3891 25.402L31.3838 25.3972L31.3786 25.3923L32.4729 24.215ZM33.0723 25.2495L31.6125 25.922L31.5419 25.769L31.5047 25.6046L33.0723 25.2495ZM33.1608 25.75L31.593 26.1041L31.5496 25.912L31.5539 25.715L33.1608 25.75ZM33.4672 27.1068L31.9013 27.4691L31.8994 27.4608L33.4672 27.1068ZM34.4129 28.7517L33.3215 29.9317L33.3151 29.9257L34.4129 28.7517ZM36.605 30.7675L35.5288 31.9614L35.5201 31.9534L36.605 30.7675ZM36.6051 30.7675L37.6812 29.5736L37.69 29.5817L36.6051 30.7675ZM39.6338 33.5779L38.7712 34.9341L38.6433 34.8527L38.5329 34.7489L39.6338 33.5779ZM39.6632 33.6034L38.9346 35.0361L38.6379 34.8852L38.4255 34.6289L39.6632 33.6034ZM39.7398 33.6561L40.8209 32.4667L40.8399 32.4839L40.8583 32.5018L39.7398 33.6561ZM39.8066 33.7461L38.7385 34.9472L38.5194 34.7524L38.3832 34.4928L39.8066 33.7461ZM39.9899 33.9091L41.058 32.7081L41.0754 32.7235L41.0922 32.7394L39.9899 33.9091ZM40.6145 35.7024L39.014 35.8504L38.9961 35.6571L39.0248 35.465L40.6145 35.7024ZM39.8193 37.2128L41.0108 38.2915L41.006 38.2968L41.0012 38.3021L39.8193 37.2128ZM38.4975 38.1265L38.0115 36.5944L38.1137 36.562L38.2192 36.5434L38.4975 38.1265ZM36.5503 37.7008L37.6184 36.4998L37.6321 36.512L37.6455 36.5244L36.5503 37.7008ZM36.2443 37.4287L36.5073 35.8431L36.9655 35.9191L37.3125 36.2277L36.2443 37.4287ZM36.181 37.3955L37.272 36.2152L37.3561 36.2929L37.4283 36.3817L36.181 37.3955ZM31.0258 32.6301L29.9347 33.8104L29.9242 33.8007L29.9139 33.7908L31.0258 32.6301ZM29.413 31.8698L29.2479 33.4686L29.2186 33.4656L29.1894 33.4615L29.413 31.8698ZM27.8817 31.6547L27.6197 30.0689L27.862 30.0289L28.1053 30.063L27.8817 31.6547ZM27.1715 31.563L27.4248 29.9758L27.7435 30.0267L28.0178 30.1966L27.1715 31.563ZM26.1165 31.0614L25.0551 32.2684L25.0385 32.2537L25.0222 32.2386L26.1165 31.0614ZM23.6478 28.7666L23.545 27.1626L24.2354 27.1183L24.7421 27.5894L23.6478 28.7666ZM22.944 28.5381L24.035 27.3577L24.043 27.3651L22.944 28.5381ZM22.7064 27.4621L21.1383 27.1091L21.1383 27.1091L22.7064 27.4621ZM23.1595 26.3705L21.7542 25.5904L21.7542 25.5904L23.1595 26.3705ZM28.5374 22.9345C27.9329 23.3131 27.1446 23.9657 26.3399 24.8208L23.9989 22.6177C24.9383 21.6196 25.9354 20.7711 26.831 20.2102L28.5374 22.9345ZM29.1666 22.621C29.0572 22.6508 28.8463 22.741 28.5374 22.9345L26.831 20.2102C27.2647 19.9385 27.7804 19.6668 28.3221 19.5193L29.1666 22.621ZM28.7185 22.4197C28.7886 22.4859 28.8708 22.5366 28.9538 22.5699C29.0332 22.6017 29.0983 22.6117 29.1368 22.6147C29.2002 22.6197 29.2143 22.608 29.1666 22.621L28.3221 19.5193C28.6955 19.4177 29.9297 19.1422 30.9254 20.0824L28.7185 22.4197ZM28.4936 21.9323C28.4932 21.9418 28.4906 22.0056 28.5207 22.1013C28.5547 22.2094 28.6227 22.331 28.729 22.4295L30.9149 20.0726C31.6298 20.7356 31.7288 21.5745 31.7046 22.0848L28.4936 21.9323ZM31.3786 25.3923L29.0048 23.1858L31.1934 20.8313L33.5672 23.0378L31.3786 25.3923ZM31.5047 25.6046C31.4861 25.5226 31.4465 25.4544 31.3891 25.402L33.5566 23.0281C34.123 23.5452 34.4836 24.2046 34.6399 24.8943L31.5047 25.6046ZM31.5539 25.715C31.5544 25.6918 31.5472 25.7804 31.6125 25.922L34.5321 24.5769C34.7254 24.9964 34.7756 25.4228 34.7677 25.785L31.5539 25.715ZM31.8994 27.4608L31.593 26.1041L34.7286 25.3959L35.035 26.7527L31.8994 27.4608ZM33.3151 29.9257C32.6046 29.2613 32.1221 28.4234 31.9013 27.4691L35.0331 26.7444C35.1109 27.0804 35.2695 27.3522 35.5107 27.5777L33.3151 29.9257ZM35.5201 31.9534C34.9803 31.4595 34.3478 30.8809 33.3215 29.9317L35.5042 27.5717C36.5242 28.5151 37.1518 29.0893 37.6899 29.5816L35.5201 31.9534ZM35.529 31.9614L35.5289 31.9614L37.6811 29.5736L37.6812 29.5737L35.529 31.9614ZM38.5329 34.7489C36.9773 33.2865 36.3616 32.7233 35.5201 31.9534L37.69 29.5817C38.539 30.3584 39.1659 30.9319 40.7347 32.4068L38.5329 34.7489ZM38.4255 34.6289C38.5322 34.7576 38.6518 34.8582 38.7712 34.9341L40.4965 32.2217C40.6399 32.3129 40.7788 32.4306 40.9009 32.578L38.4255 34.6289ZM38.6587 34.8455C38.7449 34.9238 38.8385 34.9872 38.9346 35.0361L40.3919 32.1708C40.5438 32.248 40.6886 32.3465 40.8209 32.4667L38.6587 34.8455ZM38.3832 34.4928C38.4403 34.6015 38.5187 34.711 38.6213 34.8104L40.8583 32.5018C41.0144 32.6531 41.1373 32.8228 41.23 32.9995L38.3832 34.4928ZM38.9217 35.1102L38.7385 34.9472L40.8748 32.5451L41.058 32.7081L38.9217 35.1102ZM39.0248 35.465C39.0452 35.3283 39.0022 35.1869 38.8876 35.0789L41.0922 32.7394C41.9951 33.5903 42.3754 34.7926 42.2041 35.9398L39.0248 35.465ZM38.6278 36.134C38.8098 35.933 38.9325 35.7499 38.9977 35.6251C39.0301 35.563 39.0362 35.5384 39.0324 35.5516C39.0301 35.5596 39.0225 35.5871 39.0167 35.6319C39.011 35.6755 39.0048 35.7512 39.014 35.8504L42.2149 35.5543C42.2743 36.1963 42.024 36.7746 41.847 37.1135C41.636 37.5173 41.3456 37.9217 41.0108 38.2915L38.6278 36.134ZM38.2192 36.5434C38.1232 36.5603 38.0791 36.5842 38.0955 36.5765C38.1063 36.5714 38.1419 36.553 38.1998 36.5133C38.317 36.433 38.4727 36.3021 38.6374 36.1235L41.0012 38.3021C40.6937 38.6357 40.3574 38.9319 40.0161 39.1656C39.7046 39.3789 39.2704 39.6226 38.7757 39.7095L38.2192 36.5434ZM37.6455 36.5244C37.7294 36.6025 37.8632 36.6414 38.0115 36.5944L38.9834 39.6585C37.7963 40.0351 36.4374 39.7918 35.4551 38.8773L37.6455 36.5244ZM37.3125 36.2277L37.6184 36.4998L35.4821 38.9019L35.1762 38.6298L37.3125 36.2277ZM37.4283 36.3817C37.1313 36.0163 36.754 35.884 36.5073 35.8431L35.9813 39.0144C35.6809 38.9646 35.2593 38.8099 34.9338 38.4093L37.4283 36.3817ZM32.1168 31.4498L37.272 36.2152L35.09 38.5758L29.9347 33.8104L32.1168 31.4498ZM29.5781 30.271C30.5611 30.3725 31.4541 30.8146 32.1376 31.4694L29.9139 33.7908C29.7133 33.5986 29.4755 33.4921 29.2479 33.4686L29.5781 30.271ZM28.1053 30.063L29.6366 30.2782L29.1894 33.4615L27.6581 33.2464L28.1053 30.063ZM28.0178 30.1966C27.8796 30.111 27.7563 30.0824 27.686 30.0736C27.6194 30.0653 27.5929 30.0733 27.6197 30.0689L28.1437 33.2405C27.6482 33.3224 26.9611 33.3234 26.3251 32.9294L28.0178 30.1966ZM27.1779 29.8544C27.2625 29.9288 27.3481 29.9636 27.4248 29.9758L26.9181 33.1502C26.245 33.0428 25.5983 32.746 25.0551 32.2684L27.1779 29.8544ZM24.7421 27.5894L27.2108 29.8841L25.0222 32.2386L22.5535 29.9439L24.7421 27.5894ZM24.043 27.3651C23.9457 27.274 23.831 27.2156 23.7265 27.186C23.6313 27.1591 23.5646 27.1613 23.545 27.1626L23.7506 30.3706C23.2497 30.4027 22.4898 30.315 21.8451 29.711L24.043 27.3651ZM24.2744 27.8151C24.2628 27.8668 24.2741 27.8525 24.2663 27.7886C24.2614 27.7492 24.248 27.6809 24.2097 27.5984C24.1696 27.5116 24.1103 27.4273 24.035 27.3577L21.8531 29.7184C20.8103 28.7546 21.0611 27.452 21.1383 27.1091L24.2744 27.8151ZM24.5648 27.1505C24.384 27.4762 24.3007 27.6985 24.2744 27.8151L21.1383 27.1091C21.2605 26.5663 21.5054 26.0387 21.7542 25.5904L24.5648 27.1505ZM26.3399 24.8208C25.5345 25.6766 24.9185 26.5134 24.5648 27.1505L21.7542 25.5904C22.2683 24.6642 23.0609 23.6145 23.9989 22.6177L26.3399 24.8208Z" fill="#F5F5F5" mask="url(#path-26-outside-2)"/>
<path d="M39.387 37.567L40.0858 36.8063C40.8638 35.9651 40.8188 34.6845 39.9952 33.9083L39.5894 33.5474L36.1498 37.3391L36.5556 37.7C37.3478 38.4375 38.6109 38.3907 39.387 37.567Z" fill="#37384F"/>
<path d="M27.3586 31.2626L32.8091 25.3483C32.8913 25.2488 33.0657 25.3028 33.0903 25.4133L33.473 27.108C33.6223 27.7532 33.9429 28.308 34.4187 28.753C37.0465 31.1833 37.0812 31.174 39.6396 33.5792C39.7072 33.6221 39.6998 33.6933 39.6925 33.7645C39.4931 34.3017 39.1114 35.0359 38.4946 35.7819C37.7367 36.6752 36.8804 37.1266 36.3649 37.4152C36.29 37.4434 36.2188 37.4361 36.1868 37.3968L31.0316 32.6314C30.5895 32.2079 30.0241 31.9336 29.4188 31.8711L27.4858 31.5996C27.2936 31.5437 27.2408 31.3584 27.3586 31.2626Z" fill="#E7AA4F"/>
<path d="M36.2793 37.4506C35.9163 37.1113 36.3932 35.9759 37.3409 34.9292C38.3024 33.8859 39.3616 33.3147 39.7386 33.6573C40.1025 34.01 39.6247 35.132 38.6771 36.1787C37.7155 37.222 36.6424 37.7898 36.2793 37.4506Z" fill="#E7AA4F"/>
<path d="M38.2072 38.0687C37.9626 37.8402 38.2839 37.0753 38.9223 36.3702C39.57 35.6674 40.2835 35.2826 40.5375 35.5134C40.7826 35.751 40.4608 36.5068 39.8224 37.2119C39.1746 37.9147 38.4518 38.2972 38.2072 38.0687Z" fill="#37384F"/>
<path d="M27.0737 31.4886C26.4164 30.8727 27.1876 28.9101 28.7906 27.1307C30.4182 25.358 32.2448 24.4185 32.9268 25.0411C33.5864 25.6805 32.8128 27.6195 31.2099 29.399C29.5823 31.1716 27.7311 32.1044 27.0737 31.4886Z" fill="#37384F"/>
<path d="M28.9732 30.9436L32.5936 27.0713C33.3423 26.267 33.2966 24.9669 32.4745 24.2163L29.339 21.3017C29.1082 21.098 28.8688 21.3251 28.6651 21.556L23.1188 27.3525C22.915 27.5833 22.5529 27.7798 22.9827 28.1481L26.1182 31.0626C26.9759 31.8169 28.2245 31.7479 28.9732 30.9436Z" fill="#37384F"/>
<path d="M31.2665 27.626C31.4248 27.531 31.5502 27.3954 31.6407 27.2377C31.7939 27.0123 32.0598 26.5943 32.1116 26.4512C32.3654 25.7907 32.188 24.9928 31.6275 24.4895L31.1347 24.0489C30.642 23.6082 29.9201 23.5894 29.4155 23.9827C29.3142 24.065 29.2293 24.1676 29.1445 24.2702L28.7311 24.8586C28.2297 25.4008 28.271 26.2588 28.8132 26.7602L29.5732 27.4883C30.0881 27.8941 30.7714 27.9275 31.2665 27.626Z" fill="#4C4E68"/>
<path d="M37.4862 35.1155C37.9046 34.6814 37.8535 33.9704 37.4377 33.5746L35.0657 31.4202C34.6315 31.0018 33.9206 31.0529 33.5248 31.4687C33.1064 31.9029 33.1575 32.6138 33.5733 33.0096L35.9453 35.164C36.4205 35.5867 37.0904 35.5313 37.4862 35.1155Z" fill="#37384F"/>
<path d="M35.4953 33.287C35.7261 33.0618 35.6843 32.6631 35.4548 32.4733L34.7522 31.8404C34.527 31.6096 34.1283 31.6515 33.9385 31.8809C33.7077 32.1062 33.7496 32.5048 33.9791 32.6946L34.6817 33.3275C34.9069 33.5583 35.3056 33.5165 35.4953 33.287Z" fill="#CD564F"/>
<path d="M23.3241 28.1298C22.8802 27.7241 23.878 25.902 25.5755 24.0982C27.2731 22.2944 29.0021 21.2314 29.4442 21.6549C29.8881 22.0606 28.8584 23.8434 27.1626 25.6294C25.4847 27.4173 23.7502 28.5336 23.3241 28.1298Z" fill="#37384F" stroke="#37384F" stroke-width="1.11073" stroke-miterlimit="10"/>
<path d="M23.6984 27.5024C23.322 27.1396 24.1424 25.6411 25.5558 24.1497C26.9693 22.6584 28.4129 21.7459 28.807 22.1105C29.1852 22.4554 28.3452 23.9699 26.9496 25.4631C25.538 26.9366 24.0766 27.8473 23.6984 27.5024Z" fill="#FFEE71"/>
<path d="M25.1644 25.9564C24.9282 25.7288 25.443 24.7887 26.3297 23.853C27.2165 22.9174 28.1222 22.3449 28.3695 22.5736C28.6067 22.79 28.0797 23.7402 27.2041 24.677C26.3185 25.6015 25.4016 26.1728 25.1644 25.9564Z" fill="#FFFBDC"/>
</g>
<mask id="path-40-outside-3" maskUnits="userSpaceOnUse" x="30.1956" y="68.7939" width="19.4618" height="21.8046" fill="black">
<rect fill="white" x="30.1956" y="68.7939" width="19.4618" height="21.8046"/>
<path fill-rule="evenodd" clip-rule="evenodd" d="M39.496 74.5019C38.121 75.0991 37.4904 76.6978 38.0876 78.0729C38.6847 79.4479 40.2835 80.0785 41.6585 79.4813C43.0335 78.8841 43.6641 77.2854 43.0669 75.9104C42.4698 74.5354 40.871 73.9048 39.496 74.5019ZM39.414 72.1506C39.3749 72.1567 39.3358 72.1649 39.2968 72.1753C37.1172 72.7538 35.6632 74.6903 35.5973 76.832C35.5963 76.8646 35.5967 76.8968 35.5984 76.9288C35.5894 77.6117 35.7215 78.3075 36.0113 78.9746C36.4366 79.9541 37.1392 80.7276 37.9871 81.2432C37.9828 81.252 37.9786 81.2609 37.9745 81.27L37.7638 81.7402C37.3254 81.8249 36.9338 82.1147 36.7376 82.5528L35.3418 85.9352C35.0219 86.6496 35.3417 87.4892 36.0561 87.8091C36.7705 88.129 37.6101 87.8092 37.93 87.0948L39.3258 83.7124C39.5159 83.2879 39.4801 82.8193 39.2699 82.4417L39.4908 81.949C39.5043 81.9189 39.5158 81.8884 39.5255 81.8576C40.5091 82.0711 41.5665 81.9891 42.5602 81.5576C45.0819 80.4624 46.2384 77.5304 45.1432 75.0087C44.1651 72.7564 41.7216 71.5932 39.414 72.1506ZM41.3334 78.7231C42.2902 78.3076 42.729 77.1951 42.3135 76.2383C41.898 75.2815 40.7855 74.8427 39.8287 75.2582C38.8719 75.6737 38.4331 76.7862 38.8486 77.743C39.2641 78.6999 40.3766 79.1386 41.3334 78.7231Z"/>
</mask>
<path fill-rule="evenodd" clip-rule="evenodd" d="M39.496 74.5019C38.121 75.0991 37.4904 76.6978 38.0876 78.0729C38.6847 79.4479 40.2835 80.0785 41.6585 79.4813C43.0335 78.8841 43.6641 77.2854 43.0669 75.9104C42.4698 74.5354 40.871 73.9048 39.496 74.5019ZM39.414 72.1506C39.3749 72.1567 39.3358 72.1649 39.2968 72.1753C37.1172 72.7538 35.6632 74.6903 35.5973 76.832C35.5963 76.8646 35.5967 76.8968 35.5984 76.9288C35.5894 77.6117 35.7215 78.3075 36.0113 78.9746C36.4366 79.9541 37.1392 80.7276 37.9871 81.2432C37.9828 81.252 37.9786 81.2609 37.9745 81.27L37.7638 81.7402C37.3254 81.8249 36.9338 82.1147 36.7376 82.5528L35.3418 85.9352C35.0219 86.6496 35.3417 87.4892 36.0561 87.8091C36.7705 88.129 37.6101 87.8092 37.93 87.0948L39.3258 83.7124C39.5159 83.2879 39.4801 82.8193 39.2699 82.4417L39.4908 81.949C39.5043 81.9189 39.5158 81.8884 39.5255 81.8576C40.5091 82.0711 41.5665 81.9891 42.5602 81.5576C45.0819 80.4624 46.2384 77.5304 45.1432 75.0087C44.1651 72.7564 41.7216 71.5932 39.414 72.1506ZM41.3334 78.7231C42.2902 78.3076 42.729 77.1951 42.3135 76.2383C41.898 75.2815 40.7855 74.8427 39.8287 75.2582C38.8719 75.6737 38.4331 76.7862 38.8486 77.743C39.2641 78.6999 40.3766 79.1386 41.3334 78.7231Z" fill="#F5F5F5"/>
<path d="M38.0876 78.0729L39.5603 77.4333L38.0876 78.0729ZM39.496 74.5019L40.1356 75.9747L39.496 74.5019ZM43.0669 75.9104L44.5397 75.2708L44.5397 75.2708L43.0669 75.9104ZM39.2968 72.1753L38.8848 70.6233L38.8848 70.6233L39.2968 72.1753ZM39.414 72.1506L39.6616 73.7371L39.7268 73.7269L39.791 73.7114L39.414 72.1506ZM35.5973 76.832L33.9924 76.7826L33.9924 76.7826L35.5973 76.832ZM35.5984 76.9288L37.2039 76.95L37.2046 76.8963L37.2018 76.8427L35.5984 76.9288ZM36.0113 78.9746L34.5385 79.6142L34.5385 79.6142L36.0113 78.9746ZM37.9871 81.2432L39.4292 81.9493L40.0738 80.6328L38.8213 79.8712L37.9871 81.2432ZM37.9745 81.27L39.4397 81.9268L39.4405 81.9251L37.9745 81.27ZM37.7638 81.7402L38.0687 83.3166L38.8878 83.1582L39.229 82.3969L37.7638 81.7402ZM36.7376 82.5528L35.2721 81.8965L35.2624 81.9183L35.2533 81.9403L36.7376 82.5528ZM35.3418 85.9352L36.8072 86.5914L36.8169 86.5697L36.826 86.5477L35.3418 85.9352ZM36.0561 87.8091L36.7124 86.3437L36.7124 86.3437L36.0561 87.8091ZM37.93 87.0948L39.3954 87.751L39.4052 87.7293L39.4143 87.7073L37.93 87.0948ZM39.3258 83.7124L37.8604 83.0561L37.8506 83.0779L37.8415 83.0999L39.3258 83.7124ZM39.2699 82.4417L37.8047 81.7849L37.4755 82.5194L37.867 83.2226L39.2699 82.4417ZM39.4908 81.949L38.0257 81.2919L38.0256 81.2922L39.4908 81.949ZM39.5255 81.8576L39.866 80.2885L38.4339 79.9777L37.9939 81.3756L39.5255 81.8576ZM42.5602 81.5576L41.9206 80.0848L41.9206 80.0848L42.5602 81.5576ZM45.1432 75.0087L43.6705 75.6483L45.1432 75.0087ZM42.3135 76.2383L43.7863 75.5987L42.3135 76.2383ZM41.3334 78.7231L40.6938 77.2503L40.6938 77.2503L41.3334 78.7231ZM39.8287 75.2582L40.4683 76.731L39.8287 75.2582ZM38.8486 77.743L37.3758 78.3827L37.3758 78.3827L38.8486 77.743ZM39.5603 77.4333C39.3164 76.8716 39.574 76.2186 40.1356 75.9747L38.8564 73.0292C36.668 73.9796 35.6644 76.5241 36.6148 78.7125L39.5603 77.4333ZM41.0189 78.0085C40.4573 78.2524 39.8042 77.9949 39.5603 77.4333L36.6148 78.7125C37.5652 80.9009 40.1097 81.9045 42.2981 80.9541L41.0189 78.0085ZM41.5942 76.55C41.8381 77.1116 41.5805 77.7646 41.0189 78.0085L42.2981 80.9541C44.4865 80.0037 45.4901 77.4592 44.5397 75.2708L41.5942 76.55ZM40.1356 75.9747C40.6972 75.7308 41.3503 75.9883 41.5942 76.55L44.5397 75.2708C43.5893 73.0824 41.0448 72.0788 38.8564 73.0292L40.1356 75.9747ZM39.7087 73.7272C39.6935 73.7312 39.6778 73.7345 39.6616 73.7371L39.1664 70.5642C39.0721 70.5789 38.9781 70.5986 38.8848 70.6233L39.7087 73.7272ZM37.2022 76.8814C37.2469 75.4287 38.2347 74.1184 39.7087 73.7272L38.8848 70.6233C35.9996 71.3892 34.0795 73.9518 33.9924 76.7826L37.2022 76.8814ZM37.2018 76.8427C37.2025 76.8558 37.2026 76.8687 37.2022 76.8814L33.9924 76.7826C33.99 76.8604 33.9909 76.9378 33.9951 77.0148L37.2018 76.8427ZM37.484 78.335C37.2866 77.8803 37.1979 77.4102 37.2039 76.95L33.9929 76.9076C33.9809 77.8132 34.1565 78.7346 34.5385 79.6142L37.484 78.335ZM38.8213 79.8712C38.2475 79.5223 37.773 79.0004 37.484 78.335L34.5385 79.6142C35.1002 80.9077 36.0309 81.9329 37.1529 82.6151L38.8213 79.8712ZM39.4405 81.9251C39.4367 81.9336 39.4329 81.9417 39.4292 81.9493L36.5451 80.537C36.5327 80.5624 36.5205 80.5883 36.5086 80.6149L39.4405 81.9251ZM39.229 82.3969L39.4397 81.9268L36.5093 80.6133L36.2986 81.0834L39.229 82.3969ZM38.203 83.209C38.176 83.2692 38.1211 83.3065 38.0687 83.3166L37.459 80.1637C36.5297 80.3434 35.6915 80.9601 35.2721 81.8965L38.203 83.209ZM36.826 86.5477L38.2218 83.1653L35.2533 81.9403L33.8575 85.3227L36.826 86.5477ZM36.7124 86.3437C36.8079 86.3865 36.8495 86.4971 36.8072 86.5914L33.8764 85.2789C33.1943 86.802 33.8755 88.5919 35.3998 89.2745L36.7124 86.3437ZM36.4646 86.4385C36.5074 86.3429 36.618 86.3014 36.7124 86.3437L35.3998 89.2745C36.9229 89.9566 38.7128 89.2754 39.3954 87.751L36.4646 86.4385ZM37.8415 83.0999L36.4458 86.4823L39.4143 87.7073L40.81 84.3249L37.8415 83.0999ZM37.867 83.2226C37.8417 83.1772 37.8346 83.1137 37.8604 83.0561L40.7912 84.3686C41.1972 83.4622 41.1185 82.4614 40.6729 81.6608L37.867 83.2226ZM38.0256 81.2922L37.8047 81.7849L40.7351 83.0984L40.956 82.6057L38.0256 81.2922ZM37.9939 81.3756C38.0029 81.347 38.0135 81.319 38.0257 81.2919L40.9558 82.6061C40.995 82.5187 41.0288 82.4297 41.0571 82.3396L37.9939 81.3756ZM41.9206 80.0848C41.2456 80.378 40.5319 80.433 39.866 80.2885L39.185 83.4267C40.4864 83.7092 41.8875 83.6003 43.1998 83.0304L41.9206 80.0848ZM43.6705 75.6483C44.4124 77.3566 43.6289 79.3429 41.9206 80.0848L43.1998 83.0304C46.5349 81.582 48.0644 77.7042 46.616 74.3691L43.6705 75.6483ZM39.791 73.7114C41.3532 73.334 43.0085 74.124 43.6705 75.6483L46.616 74.3691C45.3217 71.3888 42.0901 69.8524 39.037 70.5898L39.791 73.7114ZM40.8407 76.8779C40.903 77.0213 40.8372 77.1881 40.6938 77.2503L41.973 80.1959C43.7432 79.4271 44.555 77.3689 43.7863 75.5987L40.8407 76.8779ZM40.4683 76.731C40.6117 76.6687 40.7784 76.7345 40.8407 76.8779L43.7863 75.5987C43.0175 73.8285 40.9592 73.0167 39.1891 73.7855L40.4683 76.731ZM40.3214 77.1034C40.2591 76.96 40.3249 76.7933 40.4683 76.731L39.1891 73.7855C37.4189 74.5542 36.6071 76.6125 37.3758 78.3827L40.3214 77.1034ZM40.6938 77.2503C40.5504 77.3126 40.3836 77.2469 40.3214 77.1034L37.3758 78.3827C38.1446 80.1528 40.2028 80.9647 41.973 80.1959L40.6938 77.2503Z" fill="#F5F5F5" mask="url(#path-40-outside-3)"/>
<path d="M44.1044 75.4604C44.9505 77.4088 44.057 79.6742 42.1086 80.5203C40.1603 81.3665 37.8949 80.473 37.0487 78.5246C36.2025 76.5762 37.0961 74.3108 39.0444 73.4647C40.9928 72.6185 43.2582 73.512 44.1044 75.4604Z" stroke="#5B78C1" stroke-width="2.26365"/>
<path d="M39.4899 81.9499C39.6774 81.5317 39.4904 81.0396 39.0712 80.8523C38.653 80.6647 38.1609 80.8517 37.9736 81.2709L37.2323 82.9248C37.0447 83.343 37.2318 83.8351 37.6509 84.0224C38.0691 84.2099 38.5612 84.0229 38.7485 83.6037L39.4899 81.9499Z" fill="#FFEA80"/>
<path d="M39.5869 73.2701C37.9041 73.7167 36.7793 75.2122 36.7284 76.8677" stroke="#7596E9" stroke-width="2.26365" stroke-linecap="round"/>
<path d="M39.3248 83.7133C39.6448 82.9989 39.3249 82.1593 38.6105 81.8394C37.8962 81.5195 37.0565 81.8393 36.7366 82.5537L35.3408 85.9361C35.0209 86.6505 35.3408 87.4901 36.0552 87.81C36.7695 88.1299 37.6091 87.8101 37.9291 87.0957L39.3248 83.7133Z" fill="#D8915D"/>
<path opacity="0.8" d="M36.9486 82.6457C37.0931 82.2905 37.5363 82.1714 37.8405 82.4052C38.0799 82.5896 38.1377 82.9279 37.9729 83.1811L37.5266 83.867C37.2186 84.3404 36.4846 84.0252 36.6157 83.4762C36.6214 83.4511 36.6296 83.4265 36.6395 83.4025L36.9486 82.6457Z" fill="#ECB16B"/>
<path d="M31.4952 99.0359C31.1852 97.5098 32.1711 96.0212 33.6973 95.7112L91.7286 83.9241C93.2548 83.6141 94.2407 82.1256 93.9307 80.5995L93.7436 79.6783L94.3049 82.4417C94.6149 83.9679 93.629 85.4564 92.1028 85.7664L89.8 86.2341C89.2913 86.3375 88.9626 86.8336 89.066 87.3424L89.9079 91.4875C90.0112 91.9962 90.5074 92.3248 91.0161 92.2215L92.8584 91.8473C94.3846 91.5373 95.3705 90.0488 95.0605 88.5226L94.8734 87.6015L95.4347 90.3649C95.7447 91.8911 94.7588 93.3796 93.2326 93.6896L35.6618 105.383C34.1357 105.693 32.6472 104.707 32.3372 103.181L31.4952 99.0359Z" fill="#E9A43D"/>
<path d="M32.8756 98.7554C32.7722 98.2467 33.1009 97.7505 33.6096 97.6472L91.6409 85.8601L92.7635 91.3869C92.8152 91.6412 92.6508 91.8893 92.3965 91.941L34.8257 103.635C34.317 103.738 33.8208 103.409 33.7175 102.901L32.8756 98.7554Z" fill="#CB7D34"/>
<path d="M33.241 98.2001C33.1893 97.9458 33.3537 97.6977 33.608 97.646L93.021 85.5783L93.3952 87.4205C93.7052 88.9467 92.7193 90.4352 91.1931 90.7452L34.5435 102.252C34.2891 102.303 34.0411 102.139 33.9894 101.885L33.241 98.2001Z" fill="#DFC6A1"/>
<rect x="32.6885" y="97.8343" width="1.40991" height="4.6997" rx="0.46997" transform="rotate(-11.4815 32.6885 97.8343)" fill="#B57865"/>
<path d="M36.1943 98.5627L42.6423 97.253L44.6225 107.002C44.6965 107.367 44.3381 107.669 43.9916 107.534L41.1489 106.428L38.9629 108.555C38.6964 108.815 38.2486 108.676 38.1746 108.312L36.1943 98.5627Z" fill="#C85151"/>
<rect x="59.5244" y="69.4166" width="25.8607" height="14.6031" rx="0.939941" transform="rotate(-18.8973 59.5244 69.4166)" fill="#E0B441"/>
<rect x="59.7041" y="67.9387" width="25.8607" height="14.6031" rx="0.939941" transform="rotate(-18.8973 59.7041 67.9387)" fill="#DFF9FF"/>
<path d="M64.125 70.8215C65.2493 70.2256 66.2664 69.4548 67.3734 68.8336C67.7912 68.5991 67.7675 69.6366 68.0955 69.1739C68.5571 68.5226 69.1155 68.3182 69.8316 68.6221C70.6639 68.9752 71.1516 67.8334 71.9199 67.7884C73.2842 67.7085 75.1003 67.5898 76.3052 66.8755C76.968 66.4826 77.846 66.4462 78.5879 66.2902C78.9009 66.2243 79.4523 66.1458 78.9653 65.9147" stroke="#5664AD" stroke-width="0.939941" stroke-linecap="round" stroke-linejoin="round"/>
<path d="M66.0552 76.4069C66.0576 75.3684 66.2802 74.1768 66.8009 73.2674C67.3996 72.2218 67.894 73.1895 68.1001 73.8335C68.1395 73.9568 68.158 74.5042 68.3766 74.541C68.8822 74.6261 69.5644 74.4093 70.0435 74.302C70.7061 74.1537 71.6504 73.991 72.0549 73.3622C72.206 73.1273 72.0123 72.8847 72.1145 72.675C72.222 72.4547 72.8924 72.8664 72.9916 72.9064C73.7644 73.2183 74.218 72.9022 74.6945 72.2728C75.1662 71.6497 75.2718 71.6486 75.9319 71.3906C76.9515 70.9921 77.7941 70.1885 78.9066 70.0172C80.0607 69.8395 81.2237 69.8269 82.3432 69.4465C82.7127 69.3209 83.0144 69.1755 83.2828 68.8959C83.3788 68.7959 83.3842 69.041 83.3961 69.0998" stroke="#5664AD" stroke-width="0.939941" stroke-linecap="round" stroke-linejoin="round"/>
<rect x="65.5029" y="6.76611" width="5.16967" height="81.7749" rx="0.46997" transform="rotate(-11.4815 65.5029 6.76611)" fill="#EE6767"/>
<rect x="81.499" y="85.525" width="5.16967" height="10.8093" rx="0.46997" transform="rotate(-11.4815 81.499 85.525)" fill="#C85151"/>
</svg>
