<?xml version="1.0"?>
<svg xmlns="http://www.w3.org/2000/svg" viewBox="0 0 112 112" fill="none">
<rect x="25.4769" y="13.3101" width="29.742" height="38.8846" rx="3.41501" transform="rotate(-3.99863 25.4769 13.3101)" fill="#445B9A" stroke="#EEE4D4" stroke-width="2.47298"/>
<path d="M49.8307 28.7033C49.1766 24.803 45.7 22.0144 41.7507 22.2224C37.7123 22.4351 34.5106 25.7069 34.3854 29.7489L34.0482 40.6373C34.0244 41.4065 34.6722 42.0267 35.4396 41.9696L50.4339 40.8526C51.1943 40.7959 51.7416 40.0981 51.6155 39.3461L49.8307 28.7033Z" fill="#D78253" stroke="#D78253" stroke-width="3.01448"/>
<path d="M50.0121 44.5405L36.9922 45.405C37.8546 43.6128 39.5922 42.3275 41.6494 42.0978L44.3278 41.7988C46.6418 41.5405 48.8293 42.6488 50.0121 44.5405Z" fill="#E6BB65" stroke="#E6BB65" stroke-width="3.01448"/>
<path d="M37.6031 33.4496C38.042 35.8745 40.2373 37.567 42.695 37.3756C45.2177 37.179 47.1732 35.0664 47.1763 32.5341L47.1808 28.8158C47.1845 25.7655 44.5624 23.3924 41.5297 23.7014C38.5224 24.0079 36.4034 26.8221 36.9416 29.795L37.6031 33.4496Z" fill="#D78253" stroke="#D78253" stroke-width="3.01448"/>
<path d="M36.1523 32.2192C36.1756 32.3481 36.2923 32.438 36.423 32.4279C36.5571 32.4174 36.661 32.3051 36.6612 32.1705L36.6625 31.1353C36.6627 30.9284 36.4849 30.7675 36.2792 30.7884C36.0753 30.8092 35.9316 31.0001 35.9681 31.2017L36.1523 32.2192Z" fill="#E6BB65" stroke="#E6BB65" stroke-width="3.01448"/>
<path d="M34.8577 46.8839C35.3427 43.4891 38.0676 40.8437 41.4709 40.4638L44.3776 40.1393C47.8696 39.7494 51.146 41.8457 52.2498 45.176L53.5632 49.1384L34.3437 50.4819L34.8577 46.8839Z" fill="#5C84A8"/>
<path d="M42.8775 40.7454C42.9319 41.0941 43.2428 41.3423 43.595 41.3183C43.9624 41.2932 44.2459 40.9814 44.2362 40.613L44.1121 35.9106L42.1534 36.1102L42.8775 40.7454Z" fill="#E6BB65" stroke="#E6BB65" stroke-width="3.01448"/>
<path d="M49.4968 26.2937C52.3903 30.5109 50.7472 35.5949 50.9548 33.2216C49.0846 34.6495 45.2229 32.3883 42.3293 28.1712C40.8805 26.0596 39.9491 23.858 39.615 22.0067C39.2819 20.1606 42.1942 22.5799 43.128 21.867C44.9981 20.4392 46.6032 22.0765 49.4968 26.2937Z" fill="#D78253"/>
<mask id="path-9-inside-1" fill="white">
<path fill-rule="evenodd" clip-rule="evenodd" d="M41.1478 24.5704C40.7265 23.5299 39.544 22.898 38.6655 23.5969C36.799 25.0816 35.7684 27.5216 36.2262 30.0506L36.8877 33.7052C37.4637 36.887 40.3442 39.108 43.5692 38.8567C45.9673 38.6699 47.9747 37.1636 48.9004 35.0843C49.2874 34.2153 48.6677 33.3004 47.8434 32.8256C46.2672 31.9178 44.5555 30.2849 43.0917 28.1514C42.2742 26.9601 41.6215 25.74 41.1478 24.5704Z"/>
</mask>
<path fill-rule="evenodd" clip-rule="evenodd" d="M41.1478 24.5704C40.7265 23.5299 39.544 22.898 38.6655 23.5969C36.799 25.0816 35.7684 27.5216 36.2262 30.0506L36.8877 33.7052C37.4637 36.887 40.3442 39.108 43.5692 38.8567C45.9673 38.6699 47.9747 37.1636 48.9004 35.0843C49.2874 34.2153 48.6677 33.3004 47.8434 32.8256C46.2672 31.9178 44.5555 30.2849 43.0917 28.1514C42.2742 26.9601 41.6215 25.74 41.1478 24.5704Z" fill="#E6BB65"/>
<path d="M36.2262 30.0506L39.1925 29.5137L36.2262 30.0506ZM36.8877 33.7052L33.9214 34.2422L36.8877 33.7052ZM43.5692 38.8567L43.8034 41.8621L43.8034 41.8621L43.5692 38.8567ZM43.0917 28.1514L45.5773 26.4459L45.5773 26.4459L43.0917 28.1514ZM41.1478 24.5704L38.3538 25.702L41.1478 24.5704ZM36.7889 21.2377C34.0984 23.3779 32.5944 26.911 33.2599 30.5876L39.1925 29.5137C38.9424 28.1322 39.4995 26.7853 40.5421 25.956L36.7889 21.2377ZM33.2599 30.5876L33.9214 34.2422L39.854 33.1683L39.1925 29.5137L33.2599 30.5876ZM33.9214 34.2422C34.7731 38.947 39.0372 42.2334 43.8034 41.8621L43.3351 35.8513C41.6512 35.9825 40.1543 34.8271 39.854 33.1683L33.9214 34.2422ZM43.8034 41.8621C47.3446 41.5862 50.2954 39.3625 51.6543 36.3104L46.1466 33.8582C45.6539 34.9646 44.59 35.7536 43.3351 35.8513L43.8034 41.8621ZM49.3479 30.2135C48.2536 29.5832 46.8532 28.3054 45.5773 26.4459L40.606 29.8569C42.2579 32.2644 44.2807 34.2524 46.3389 35.4378L49.3479 30.2135ZM45.5773 26.4459C44.8769 25.4251 44.3297 24.3966 43.9419 23.4389L38.3538 25.702C38.9133 27.0835 39.6716 28.495 40.606 29.8569L45.5773 26.4459ZM51.6543 36.3104C52.299 34.8624 52.0392 33.4355 51.4915 32.3989C50.9717 31.4151 50.163 30.6829 49.3479 30.2135L46.3389 35.4378C46.3279 35.4315 46.313 35.4217 46.291 35.4C46.2703 35.3795 46.2176 35.3228 46.1608 35.2153C46.1031 35.1061 46.0285 34.9188 46.0088 34.6627C45.9881 34.3928 46.0341 34.1108 46.1466 33.8582L51.6543 36.3104ZM40.5421 25.956C40.312 26.139 39.9992 26.2758 39.6484 26.309C39.315 26.3405 39.0458 26.2702 38.8685 26.1926C38.5495 26.0528 38.4144 25.8516 38.3538 25.702L43.9419 23.4389C43.4599 22.2488 42.5229 21.2114 41.2877 20.6703C39.9621 20.0895 38.2287 20.0925 36.7889 21.2377L40.5421 25.956Z" fill="#E6BB65" mask="url(#path-9-inside-1)"/>
<path d="M19.2209 63.4402C19.1593 62.646 19.5729 61.8905 20.2752 61.5145L21.7745 60.7119C22.2414 60.462 22.7881 60.4066 23.2956 60.5578L25.8868 61.33C26.363 61.4719 26.875 61.4322 27.3237 61.2185L29.0476 60.3973C29.37 60.2437 29.7275 60.1789 30.0833 60.2095L32.7502 60.4391C32.9739 60.4583 33.1992 60.4399 33.4168 60.3846L35.8277 59.7721C36.1887 59.6804 36.568 59.6909 36.9234 59.8024L39.6846 60.669C40.1072 60.8016 40.5618 60.7908 40.9776 60.6382L46.3574 58.6639C46.7904 58.505 47.265 58.5 47.7013 58.6498L49.1262 59.1392C49.5534 59.2859 50.0175 59.2843 50.4436 59.1347L53.1841 58.1725C53.7245 57.9828 54.3202 58.0329 54.8213 58.3101L55.3695 58.6134C56.0522 58.9911 56.8919 58.9391 57.5228 58.4801L57.9609 58.1614C58.5265 57.7498 59.2656 57.6623 59.9117 57.9304L63.5527 59.441C64.2905 59.7472 65.1397 59.5868 65.7151 59.0326L67.2394 57.5644C67.7413 57.081 68.458 56.8923 69.1328 57.066L72.0758 57.8234C72.4526 57.9203 72.853 57.8439 73.1676 57.615C73.9922 57.0151 75.1553 57.5515 75.2342 58.5682L78.0651 95.0383C78.1509 96.1439 77.3242 97.1097 76.2185 97.1956L24.1687 101.236C23.0631 101.322 22.0972 100.495 22.0114 99.3892L19.2209 63.4402Z" fill="#E4DDD3"/>
<rect x="48.5176" y="77.3109" width="24.7646" height="14.7249" rx="1.33863" transform="rotate(-4.43849 48.5176 77.3109)" fill="#D1C8BC"/>
<rect x="23.8291" y="79.2271" width="22.7566" height="2.3426" rx="1.1713" transform="rotate(-4.43849 23.8291 79.2271)" fill="#D1C8BC"/>
<rect x="23.2842" y="72.221" width="3.34657" height="4.35053" rx="1.33863" transform="rotate(-4.43849 23.2842 72.221)" fill="#D1C8BC"/>
<rect x="28.6201" y="71.8045" width="24.0953" height="4.35053" rx="1.33863" transform="rotate(-4.43849 28.6201 71.8045)" fill="#D1C8BC"/>
<rect x="54.3154" y="69.8122" width="18.4061" height="4.35053" rx="1.33863" transform="rotate(-4.43849 54.3154 69.8122)" fill="#D1C8BC"/>
<rect x="24.4473" y="87.2343" width="17.0675" height="2.3426" rx="1.1713" transform="rotate(-4.43849 24.4473 87.2343)" fill="#D1C8BC"/>
<rect x="24.7539" y="91.2408" width="10.3744" height="2.3426" rx="1.1713" transform="rotate(-4.43849 24.7539 91.2408)" fill="#D1C8BC"/>
<rect x="37.1084" y="90.2838" width="10.3744" height="2.3426" rx="1.1713" transform="rotate(-4.43849 37.1084 90.2838)" fill="#D1C8BC"/>
<rect x="24.1348" y="83.2316" width="8.03176" height="2.3426" rx="1.1713" transform="rotate(-4.43849 24.1348 83.2316)" fill="#D1C8BC"/>
<rect x="34.1484" y="82.4568" width="10.709" height="2.3426" rx="1.1713" transform="rotate(-4.43849 34.1484 82.4568)" fill="#D1C8BC"/>
<rect x="66.3443" y="37.0455" width="33.0058" height="35.5622" rx="3.25197" transform="rotate(9.44253 66.3443 37.0455)" fill="#AE5151" stroke="#EEE4D4" stroke-width="2.35492"/>
<path d="M87.8628 53.2847C88.1745 50.8958 86.5614 48.6811 84.192 48.2451L81.176 47.6901C78.0892 47.122 75.159 49.2637 74.763 52.3772C74.7399 52.5595 74.8768 52.7228 75.0603 52.7317L87.7826 53.3517C87.8227 53.3536 87.8576 53.3245 87.8628 53.2847Z" fill="#5B3026" stroke="#5B3026" stroke-width="2.87056"/>
<path d="M84.7141 70.3413L72.464 68.26C73.6595 66.791 75.5533 65.9852 77.5095 66.2278L80.0563 66.5438C82.2567 66.8167 84.0373 68.3274 84.7141 70.3413Z" fill="#E6BB65" stroke="#E6BB65" stroke-width="2.87055"/>
<path d="M74.6072 55.8641C74.6002 55.9887 74.6884 56.0978 74.8117 56.1173C74.9382 56.1373 75.0593 56.0563 75.0893 55.9317L75.3196 54.9732C75.3656 54.7816 75.2365 54.5932 75.0414 54.5671C74.8479 54.5412 74.6726 54.6862 74.6618 54.881L74.6072 55.8641Z" fill="#E6BB65" stroke="#E6BB65" stroke-width="2.87055"/>
<path d="M70.1511 69.1612C71.3517 66.1243 74.461 64.2774 77.6971 64.6789L80.4611 65.0217C83.7816 65.4336 86.352 68.1003 86.6372 71.4291L86.9766 75.3897L68.8786 72.3798L70.1511 69.1612Z" fill="#479E79"/>
<path d="M78.9375 65.2496C78.9108 65.5846 79.1438 65.8833 79.4753 65.939C79.8211 65.9971 80.1527 65.7711 80.2252 65.4277L81.1512 61.045L79.293 60.7963L78.9375 65.2496Z" fill="#E6BB65" stroke="#E6BB65" stroke-width="2.87056"/>
<path d="M74.9582 57.4008C74.7874 60.4752 76.9637 63.1697 80.0062 63.6509C83.1291 64.1448 86.1192 62.1452 86.8584 59.0686L87.6856 55.6258C88.5623 51.9773 86.1036 48.3881 82.3866 47.8906C78.7007 47.3973 75.3607 50.1585 75.1545 53.8696L74.9582 57.4008Z" fill="#E5BB65"/>
<path d="M76.2972 51.0852C77.5153 49.3295 79.4137 48.1585 81.526 47.8558C81.1899 47.3675 80.6027 47.0787 79.9769 47.1498L78.7755 47.2862C77.0782 47.4789 75.9058 49.0781 76.2328 50.7547L76.2972 51.0852Z" fill="#5B3026" stroke="#5B3026" stroke-width="2.87056"/>
<path d="M88.0071 52.4463C88.349 51.1108 87.8038 49.6635 86.6097 48.7771L85.1114 47.6648C84.2869 47.0526 83.1642 47.1478 82.4523 47.8252C83.996 48.564 86.1196 50.0382 87.888 52.8983C87.9278 52.7515 87.9676 52.6005 88.0071 52.4463Z" fill="#5B3026" stroke="#5B3026" stroke-width="2.87056"/>
<path d="M27.2012 66.2603C34.3774 68.8232 52.2155 74.2566 68.2083 69.3358" stroke="#E35C5C" stroke-width="3.07554"/>
<path d="M27.2012 66.2602C34.3774 68.8232 43.604 60.6218 43.604 49.3448" stroke="#E35C5C" stroke-width="3.07554"/>
<circle opacity="0.15" cx="69.5918" cy="69.6936" r="3.3418" fill="#161616"/>
<circle cx="68.4746" cy="68.5768" r="3.3418" fill="#EFAF4F"/>
<circle opacity="0.15" cx="28.0633" cy="66.9427" r="3.20675" transform="rotate(-9.73814 28.0633 66.9427)" fill="#161616"/>
<circle cx="26.8279" cy="66.0671" r="3.20675" transform="rotate(-9.73814 26.8279 66.0671)" fill="#436CBA"/>
<circle opacity="0.15" cx="44.9873" cy="50.2153" r="3.3418" fill="#161616"/>
<circle cx="43.8701" cy="49.0984" r="3.3418" fill="#EFAF4F"/>
</svg>
