<?xml version="1.0"?>
<svg xmlns="http://www.w3.org/2000/svg" viewBox="0 0 112 112" fill="none">
<path fill-rule="evenodd" clip-rule="evenodd" d="M54.6851 75.4065L49.0156 76.1601L52.2623 100.586L72.8312 97.8517L69.5846 73.4261L64.1223 74.1521L66.4488 91.6554C66.5904 92.7204 65.8418 93.6985 64.7768 93.8401L59.1963 94.5818C58.1313 94.7234 57.1532 93.9748 57.0116 92.9098L54.6851 75.4065Z" fill="#453F69"/>
<path fill-rule="evenodd" clip-rule="evenodd" d="M52.4667 75.7014L46.4482 76.5014L49.6949 100.927L70.2639 98.193L67.0172 73.7674L60.7936 74.5946L63.1202 92.0979C63.2617 93.1629 62.5131 94.141 61.4482 94.2826L56.9779 94.8768C55.9129 95.0183 54.9348 94.2697 54.7933 93.2047L52.4667 75.7014Z" fill="#342F4F"/>
<path d="M47.8841 102.865C47.6396 101.025 48.9326 99.3357 50.7722 99.0911L76.5856 95.66C78.4251 95.4155 80.1146 96.7085 80.3591 98.548L47.8841 102.865Z" fill="#50497C"/>
<path d="M37.0609 104.303C36.8164 102.464 38.1094 100.774 39.9489 100.53L65.7624 97.0987C67.6019 96.8541 69.2913 98.1472 69.5359 99.9867L37.0609 104.303Z" fill="#453F69"/>
<path d="M3.68977 32.4134C3.30511 28.7596 5.89956 25.4637 9.54155 24.9796L94.8173 13.6447C98.6024 13.1416 102.057 15.8608 102.456 19.6582L107.892 71.2899C108.277 74.9437 105.682 78.2395 102.04 78.7236L16.7645 90.0586C12.9794 90.5617 9.52508 87.8425 9.1253 84.0451L3.68977 32.4134Z" fill="#453F69"/>
<path d="M6.06904 32.5154C5.80646 29.9103 7.65934 27.5673 10.2548 27.2223L93.0507 16.217C95.7651 15.8562 98.2397 17.813 98.5143 20.5375L103.18 66.8222C103.442 69.4273 101.589 71.7704 98.9938 72.1154L16.1979 83.1207C13.4835 83.4815 11.0089 81.5246 10.7343 78.8001L6.06904 32.5154Z" fill="#D66161"/>
<path d="M39.9531 34.8158C39.9097 33.9135 40.5646 33.1285 41.46 33.0094L63.554 30.0727C64.5625 29.9386 65.47 30.6957 65.5189 31.712C65.5624 32.6142 64.9074 33.3993 64.012 33.5183L41.918 36.4551C40.9095 36.5891 40.002 35.832 39.9531 34.8158Z" fill="#FFE074"/>
<path opacity="0.9" d="M20.4943 45.5613C20.4312 44.2924 21.3517 43.1871 22.6111 43.0197L84.9873 34.7286C86.4026 34.5405 87.6766 35.6017 87.7476 37.0277L87.8029 38.1399C87.866 39.4088 86.9454 40.5141 85.686 40.6815L23.3098 48.9726C21.8945 49.1607 20.6205 48.0995 20.5496 46.6735L20.4943 45.5613Z" fill="#F5F5F5"/>
<path d="M79.1314 36.0244C79.0302 34.7311 79.958 33.5845 81.2438 33.4136L86.0132 32.7797C87.4013 32.5952 88.6598 33.6135 88.769 35.0095L89.0898 39.1093C89.191 40.4025 88.2632 41.5491 86.9774 41.72L82.208 42.354C80.8199 42.5385 79.5614 41.5202 79.4522 40.1241L79.1314 36.0244Z" fill="#D8B7B7"/>
<rect x="11.1064" y="30.0296" width="82.2636" height="3.47593" rx="1.73796" transform="rotate(-7.57142 11.1064 30.0296)" fill="#C95050"/>
<path d="M26.55 56.552C26.4173 55.3029 27.3039 54.1756 28.549 54.0101L40.6071 52.4073C41.8994 52.2355 43.079 53.1632 43.2167 54.4596L43.8901 60.7987C44.0228 62.0477 43.1362 63.175 41.8911 63.3405L29.8331 64.9433C28.5407 65.1151 27.3611 64.1874 27.2234 62.891L26.55 56.552Z" fill="#C95050"/>
<path d="M27.7316 69.836C27.5989 68.587 28.4855 67.4596 29.7306 67.2941L41.7887 65.6914C43.081 65.5196 44.2606 66.4473 44.3983 67.7436L45.0718 74.0827C45.2045 75.3317 44.3179 76.4591 43.0728 76.6246L31.0147 78.2274C29.7224 78.3991 28.5428 77.4715 28.405 76.1751L27.7316 69.836Z" fill="#C95050"/>
<path d="M46.0754 53.9567C45.9427 52.7077 46.8293 51.5803 48.0744 51.4148L60.1324 49.812C61.4248 49.6403 62.6044 50.5679 62.7421 51.8643L63.4155 58.2034C63.5482 59.4524 62.6616 60.5798 61.4165 60.7453L49.3584 62.348C48.0661 62.5198 46.8865 61.5921 46.7488 60.2957L46.0754 53.9567Z" fill="#C95050"/>
<path d="M47.259 67.2404C47.1263 65.9914 48.0129 64.8641 49.258 64.6986L61.316 63.0958C62.6083 62.924 63.788 63.8517 63.9257 65.1481L64.5991 71.4871C64.7318 72.7362 63.8452 73.8635 62.6001 74.029L50.542 75.6318C49.2497 75.8036 48.0701 74.8759 47.9324 73.5795L47.259 67.2404Z" fill="#C95050"/>
<path d="M65.6008 51.3614C65.4681 50.1124 66.3547 48.985 67.5998 48.8195L79.6578 47.2168C80.9501 47.045 82.1298 47.9727 82.2675 49.269L82.9409 55.6081C83.0736 56.8571 82.187 57.9845 80.9419 58.15L68.8838 59.7528C67.5915 59.9245 66.4119 58.9968 66.2742 57.7005L65.6008 51.3614Z" fill="#C95050"/>
<path d="M66.7844 64.6452C66.6517 63.3961 67.5382 62.2688 68.7834 62.1033L80.8414 60.5005C82.1337 60.3287 83.3134 61.2564 83.4511 62.5528L84.1245 68.8919C84.2572 70.1409 83.3706 71.2682 82.1255 71.4337L70.0674 73.0365C68.7751 73.2083 67.5955 72.2806 67.4578 70.9842L66.7844 64.6452Z" fill="#C95050"/>
</svg>
