<?xml version="1.0"?>
<svg xmlns="http://www.w3.org/2000/svg" viewBox="0 0 112 112" fill="none">
<path d="M61.8787 23.6878C63.5128 19.2302 65.0772 10.3645 58.2622 10.5632C49.7434 10.8115 43.9468 34.3004 38.3205 34.9348" stroke="#5B4AA6" stroke-width="2.83099"/>
<path d="M60.3452 19.6328L64.0475 18.6283C64.723 18.445 65.3716 18.9982 65.2973 19.6942L65.0189 22.3008C64.9849 22.6191 64.7998 22.9017 64.5215 23.06L62.5578 24.177C62.0719 24.4534 61.4538 24.2753 61.1893 23.7828L59.7292 21.0637C59.4263 20.4996 59.7273 19.8004 60.3452 19.6328Z" stroke="#38446C" stroke-width="4.97473" stroke-linecap="round"/>
<path d="M27.4229 101.311C27.4229 97.4453 30.5569 94.3113 34.4229 94.3113H60.4228C64.2888 94.3113 67.4228 97.4453 67.4228 101.311H27.4229Z" fill="#38446C"/>
<path d="M38.48 98.8197L20.4004 50.0383M44.9391 98.0914L28.0851 52.622" stroke="#38446C" stroke-width="4"/>
<path d="M60.215 19.3831L28.6142 42.2966M62.0701 23.1998L29.547 50.7039" stroke="#38446C" stroke-width="4"/>
<path d="M19.6626 48.0244L27.6539 40.4425C28.2079 39.9168 29.123 40.1855 29.305 40.9271L31.0753 48.1421C31.1526 48.4569 31.0717 48.7895 30.8585 49.0336L29.0891 51.0601C28.8528 51.3306 28.4891 51.4529 28.1374 51.3798L20.1451 49.7203C19.3586 49.557 19.0799 48.5772 19.6626 48.0244Z" stroke="#38446C" stroke-width="6" stroke-linecap="round"/>
<path d="M63.4785 23.3361L65.7345 29.0981" stroke="#BDC4E1" stroke-width="3.44721" stroke-linecap="round"/>
<path fill-rule="evenodd" clip-rule="evenodd" d="M65.1419 25.5059C61.4555 26.4592 59.24 30.2205 60.1934 33.9069L60.3556 34.534C55.1363 41.3321 53.2516 52.9404 53.9634 55.6925C54.9167 59.3789 63.9078 60.242 74.0454 57.6202C84.183 54.9984 91.6282 49.8845 90.6748 46.1981C89.923 43.291 81.8462 33.1454 73.4932 30.2721C72.4648 26.6954 68.7672 24.5683 65.1419 25.5059Z" fill="#38446C"/>
<ellipse cx="72.0272" cy="49.8384" rx="15.5125" ry="5.74535" transform="rotate(-14.5002 72.0272 49.8384)" fill="#E5D479"/>
<path fill-rule="evenodd" clip-rule="evenodd" d="M70.7478 50.3976C74.2381 50.4232 77.0882 47.6145 77.1138 44.1242C77.1162 43.7958 77.0935 43.4731 77.0476 43.1579C75.0395 43.3239 72.8485 43.6934 70.5887 44.2778C68.5127 44.8147 66.5754 45.4822 64.8499 46.2294C65.7243 48.6442 68.0293 50.3777 70.7478 50.3976Z" fill="#FFFB96"/>
</svg>
