<?xml version="1.0"?>
<svg xmlns="http://www.w3.org/2000/svg" viewBox="0 0 112 112" fill="none">
<path d="M20.7059 54.7731C20.2914 53.3715 20.2311 51.8889 20.5305 50.4583C20.8299 49.0277 21.4796 47.6937 22.4213 46.5759C23.363 45.4581 24.5674 44.5915 25.9264 44.0537C27.2855 43.5158 28.7567 43.3236 30.2084 43.4942C31.66 43.6648 33.0466 44.1929 34.2439 45.0312C35.4412 45.8695 36.4118 46.9918 37.0687 48.2975C37.7256 49.6032 38.0482 51.0514 38.0077 52.5125C37.9672 53.9735 37.5649 55.4017 36.8367 56.669C36.1694 57.8253 35.7917 59.1986 36.2174 60.4649L36.233 60.5179C36.5284 61.3907 36.8194 62.2648 36.9781 62.8035C38.4965 66.4114 42.2953 69.7124 45.4763 72.4804C47.9141 74.5986 49.9901 76.401 50.3972 77.7832C54.1517 86.7024 46.3588 88.7574 44.8387 89.0708C44.6753 89.1189 44.5041 89.1405 44.3407 89.1886L36.4142 91.523C36.2464 91.5724 36.0786 91.6219 35.9186 91.6978C34.4814 92.2602 27.0523 94.6544 25.1338 85.2233C24.7638 83.4128 25.5793 80.4948 26.4866 77.2043C27.6276 73.0291 28.9389 68.3239 28.2164 64.616L27.7157 62.9159C27.3438 61.6529 26.2968 60.7376 25.1309 60.1356C24.0674 59.5897 23.1264 58.8326 22.3656 57.9105C21.6047 56.9885 21.04 55.9209 20.7059 54.7731Z" fill="#3B3D44"/>
<path d="M21.2356 97.6124C21.1568 95.6532 21.7344 93.7238 22.8769 92.1302C24.0194 90.5367 25.6613 89.3702 27.5421 88.8159L50.3591 82.0963C52.2396 81.5422 54.2513 81.6325 56.0746 82.3528C57.8979 83.0732 59.4281 84.3821 60.4222 86.0718C60.6485 86.456 60.7841 86.8868 60.8189 87.3313C60.8536 87.7759 60.7866 88.2225 60.6227 88.6372C60.4589 89.0519 60.2027 89.4237 59.8735 89.7245C59.5444 90.0253 59.151 90.2471 58.7232 90.3729L24.9946 100.306C24.5669 100.432 24.1161 100.459 23.6764 100.385C23.2368 100.31 22.8199 100.137 22.4575 99.8769C22.095 99.6172 21.7966 99.2783 21.5849 98.8859C21.3731 98.4935 21.2537 98.058 21.2356 97.6124Z" fill="#51545B"/>
<ellipse cx="41.3966" cy="93.7966" rx="20.5068" ry="6.83561" transform="rotate(-16.4099 41.3966 93.7966)" fill="#51545B"/>
<ellipse cx="38.9813" cy="85.602" rx="12.8168" ry="5.12671" transform="rotate(-16.4099 38.9813 85.602)" fill="#3B3D44"/>
<path d="M97.7177 31.311C97.1027 22.2265 89.808 15.3438 86.7049 12.8084C86.5491 12.6722 86.3629 12.5753 86.1619 12.526C85.9609 12.4766 85.751 12.4763 85.5498 12.5249C85.3486 12.5735 85.1621 12.6697 85.0058 12.8053C84.8495 12.941 84.728 13.1122 84.6516 13.3045L84.0698 14.6468C83.7253 15.4267 83.1824 16.1028 82.4952 16.6076C81.808 17.1123 81.0005 17.4282 80.1532 17.5236L76.085 17.9487C75.0884 18.0477 74.1258 18.3653 73.2659 18.8787C72.406 19.3921 71.6698 20.0888 71.1099 20.9192C70.7014 21.528 70.0933 21.9752 69.3904 22.1836L63.0773 24.1436C61.9791 24.4937 61.0567 25.2511 60.4998 26.2603C59.9428 27.2694 59.7936 28.4536 60.0828 29.5694C60.2286 30.143 60.5442 30.6593 60.9882 31.0507C61.4322 31.442 61.984 31.6903 62.5713 31.763C63.775 31.8623 65.2425 32.0473 65.879 32.1081L67.0827 32.2074C69.6531 32.3991 72.2074 32.767 74.7275 33.3086C74.8362 33.3629 74.9604 33.3775 75.0787 33.3498L75.1447 33.3712C75.4008 33.4159 75.6385 33.5337 75.8293 33.7104C76.02 33.8871 76.1556 34.1151 76.2198 34.3671C76.2839 34.619 76.2739 34.8842 76.1909 35.1306C76.1079 35.377 75.9555 35.5941 75.7519 35.7559C72.6399 38.1649 67.8875 42.0098 64.7097 45.5641C62.8875 47.5936 62.2246 50.0726 61.883 51.5731C61.8525 51.7616 61.8393 51.9526 61.8436 52.1436C61.8266 53.2693 62.1754 54.3701 62.8375 55.2807C63.4996 56.1913 64.4393 56.8625 65.5154 57.1934L82.9547 62.8574C84.0767 63.2237 85.2892 63.2023 86.3975 62.7966C87.5059 62.3909 88.4457 61.6245 89.0661 60.6205L89.1089 60.4886C91.1681 56.6293 98.4178 42.6034 97.7177 31.311Z" fill="#DEEBF1"/>
<path d="M52.7609 54.0865C54.1281 51.835 56.0067 50.0827 58.0986 49.1077C60.1906 48.1326 62.3761 47.9906 64.3084 48.7042L87.7467 57.3657C89.6786 58.0793 91.2463 59.6081 92.2008 61.7092C93.1552 63.8103 93.4417 66.3631 93.0147 68.9621C92.9177 69.5532 92.7132 70.1322 92.4167 70.655C92.1201 71.1779 91.7394 71.6307 91.3035 71.9792C90.8675 72.3277 90.3877 72.5626 89.9007 72.6661C89.4137 72.7696 88.9322 72.7389 88.4928 72.5764L53.8457 59.7727C53.4063 59.6105 53.0206 59.3207 52.7179 58.9254C52.4152 58.53 52.2035 58.0396 52.0989 57.4914C51.9943 56.9431 51.9995 56.3515 52.1142 55.7615C52.2289 55.1715 52.4501 54.5986 52.7609 54.0865Z" fill="#D2E1EC"/>
<ellipse cx="74.5626" cy="56.9646" rx="18.85" ry="6.73214" transform="rotate(20.2815 74.5626 56.9646)" fill="#D2E1EC"/>
<ellipse cx="72.1765" cy="63.3034" rx="21.5428" ry="7.59955" transform="rotate(20.2815 72.1765 63.3034)" fill="#A1B2BC"/>
</svg>
