<?xml version="1.0"?>
<svg xmlns="http://www.w3.org/2000/svg" viewBox="0 0 112 112" fill="none">
<mask id="mask0" mask-type="alpha" maskUnits="userSpaceOnUse" x="0" y="0" width="112" height="112">
<rect width="112" height="112" fill="white"/>
</mask>
<g mask="url(#mask0)">
<rect width="62.9933" height="65.8157" rx="3.93708" transform="matrix(-0.994418 0.105516 0.105516 0.994418 95.7852 19.205)" fill="#3F3E5F"/>
<path d="M33.9302 23.1156L10.768 25.5733C7.25429 25.9461 4.70815 29.0967 5.08097 32.6104L11.2176 90.4443C11.5904 93.958 14.7411 96.5041 18.2547 96.1313L41.417 93.6736L33.9302 23.1156Z" fill="#C8C3B1"/>
<path d="M33.9302 23.1156L10.768 25.5733C7.25429 25.9461 4.70815 29.0967 5.08097 32.6104L11.2176 90.4443C11.5904 93.958 14.7411 96.5041 18.2547 96.1313L41.417 93.6736L33.9302 23.1156Z" fill="#C4BFAB"/>
<path fill-rule="evenodd" clip-rule="evenodd" d="M11.6904 92.2734C12.7621 94.7961 15.3875 96.4354 18.2546 96.1312L41.4168 93.6735L40.939 89.1699L11.6904 92.2734Z" fill="#BAAD94"/>
<path fill-rule="evenodd" clip-rule="evenodd" d="M5.1592 30.7225C5.67764 28.0311 7.90054 25.8774 10.7676 25.5731L33.9299 23.1154L34.4077 27.619L5.1592 30.7225Z" fill="#D0CDBE"/>
<path fill-rule="evenodd" clip-rule="evenodd" d="M93.0579 16.8484C96.5715 16.4756 99.7222 19.0217 100.095 22.5354L106.245 80.4954C106.618 84.0091 104.072 87.1597 100.558 87.5325L41.8314 93.7639C38.3178 94.1367 35.1672 91.5906 34.7943 88.0769L28.6443 30.1169C28.2715 26.6032 30.8176 23.4526 34.3313 23.0798L93.0579 16.8484ZM90.3957 24.4097C92.5579 24.1803 94.4968 25.7472 94.7262 27.9094L99.8677 76.3647C100.097 78.527 98.5303 80.4658 96.368 80.6953L44.4929 86.1996C42.3306 86.4291 40.3918 84.8622 40.1624 82.6999L35.0209 34.2446C34.7914 32.0824 36.3583 30.1435 38.5205 29.9141L90.3957 24.4097Z" fill="#E0DDD1"/>
<rect width="60.0405" height="56.2616" rx="3.93708" transform="matrix(-0.994418 0.105516 0.105516 0.994418 94.3306 24.1638)" stroke="#B1AA8D" stroke-width="1.87011"/>
<path d="M52.3192 43.3182C52.2618 42.7776 51.7771 42.3859 51.2366 42.4433L45.3639 43.0664C44.8233 43.1238 44.4316 43.6085 44.489 44.149L47.3621 71.2263C47.4195 71.7669 47.9042 72.1586 48.4447 72.1013L54.3174 71.4781C54.858 71.4208 55.2497 70.9361 55.1923 70.3955L52.3192 43.3182Z" fill="#6973A8"/>
<path d="M54.8299 29.666C54.7726 29.1254 54.2879 28.7337 53.7473 28.7911L50.811 29.1026C48.6487 29.3321 47.0819 31.2709 47.3113 33.4331L52.3366 80.7936C52.566 82.9558 54.5049 84.5227 56.6671 84.2933L59.6035 83.9817C60.144 83.9243 60.5358 83.4396 60.4784 82.8991L54.8299 29.666Z" fill="#A23F3F"/>
<rect width="46.2607" height="58.1822" rx="3.93708" transform="matrix(-0.994418 0.105516 0.105516 0.994418 95.2041 23.0463)" fill="#CF5757"/>
<rect width="8.73879" height="5.69919" rx="1.47641" transform="matrix(-0.994418 0.105516 0.105516 0.994418 92.2661 25.4238)" fill="#D2BB80"/>
<rect width="2.46068" height="14.1645" rx="1.23034" transform="matrix(-0.994418 0.105516 0.105516 0.994418 97.1626 31.3258)" fill="#EC7777"/>
<rect width="2.46068" height="14.1645" rx="1.23034" transform="matrix(-0.994418 0.105516 0.105516 0.994418 99.9121 58.9185)" fill="#EC7777"/>
<ellipse rx="0.902227" ry="2.41515" transform="matrix(-0.994418 0.105516 0.105516 0.994418 47.1184 49.506)" fill="#818DCE"/>
<rect width="3.60891" height="4.8303" transform="matrix(-0.994418 0.105516 0.105516 0.994418 46.8643 47.1042)" fill="#818DCE"/>
<ellipse rx="0.902227" ry="2.41515" transform="matrix(-0.994418 0.105516 0.105516 0.994418 43.531 49.8866)" fill="#6973A8"/>
<ellipse rx="0.902227" ry="2.41515" transform="matrix(-0.994418 0.105516 0.105516 0.994418 47.9494 57.314)" fill="#818DCE"/>
<rect width="3.60891" height="4.8303" transform="matrix(-0.994418 0.105516 0.105516 0.994418 47.6953 54.9124)" fill="#818DCE"/>
<ellipse rx="0.902227" ry="2.41515" transform="matrix(-0.994418 0.105516 0.105516 0.994418 44.3606 57.6953)" fill="#6973A8"/>
<ellipse rx="0.902227" ry="2.41515" transform="matrix(-0.994418 0.105516 0.105516 0.994418 48.7761 65.1191)" fill="#818DCE"/>
<rect width="3.60891" height="4.8303" transform="matrix(-0.994418 0.105516 0.105516 0.994418 48.5205 62.7167)" fill="#818DCE"/>
<ellipse rx="0.902227" ry="2.41515" transform="matrix(-0.994418 0.105516 0.105516 0.994418 45.1872 65.4994)" fill="#6973A8"/>
<path d="M62.2808 43.273C62.218 42.6805 61.6866 42.251 61.094 42.3139L58.1274 42.6287C55.7571 42.8802 54.0395 45.0056 54.291 47.3759L56.2594 65.9269C56.5109 68.2972 58.6363 70.0148 61.0066 69.7633L63.9732 69.4485C64.5658 69.3856 64.9952 68.8543 64.9323 68.2617L62.2808 43.273Z" fill="#38435A"/>
<rect width="38.5397" height="27.2869" rx="4.3159" transform="matrix(-0.994418 0.105516 0.105516 0.994418 93.8252 38.8401)" fill="#4B5A77"/>
<rect width="16.7524" height="17.6586" rx="1.93006" transform="matrix(-0.994418 0.105516 0.105516 0.994418 92.2104 43.668)" fill="#38435A"/>
<ellipse rx="7.56567" ry="9.97786" transform="matrix(-0.994418 0.105516 0.105516 0.994418 66.8453 54.8448)" fill="#869DCC"/>
<ellipse rx="6.74752" ry="9.20117" transform="matrix(-0.994418 0.105516 0.105516 0.994418 68.47 54.6739)" fill="#D1E0FF"/>
<ellipse rx="4.90729" ry="6.74752" transform="matrix(-0.994418 0.105516 0.105516 0.994418 68.4703 54.6758)" fill="#7592CD"/>
<path fill-rule="evenodd" clip-rule="evenodd" d="M68.2553 61.3639C65.9351 61.0146 63.9385 58.4682 63.5909 55.1925C63.2434 51.9168 64.6611 49.0081 66.8564 48.1797C69.1766 48.529 71.1732 51.0753 71.5208 54.3511C71.8683 57.6268 70.4506 60.5354 68.2553 61.3639Z" fill="#93AFE8"/>
<path fill-rule="evenodd" clip-rule="evenodd" d="M69.1302 60.8963L67.8098 48.4521C67.5005 48.3205 67.1812 48.2282 66.8555 48.1792C66.0803 48.4717 65.4153 49.1392 65.4153 49.1392L66.645 60.729C66.645 60.729 67.4351 61.24 68.2545 61.3634C68.5626 61.2471 68.8554 61.0898 69.1302 60.8963Z" fill="#7592CD"/>
<path d="M68.885 47.8442L66.5389 48.0932L67.3803 51.5508L67.7525 55.0582L68.1247 58.5656L68.0276 62.1229L70.3737 61.8739L70.3802 61.8039C70.5964 59.4682 70.5807 57.1169 70.3332 54.7844C70.0857 52.4518 69.6077 50.1496 68.9061 47.9113L68.885 47.8442Z" fill="#D1E0FF"/>
<rect width="3.84413" height="4.0813" rx="1.02219" transform="matrix(-0.995188 0.0979859 0.0979859 0.995188 82.5981 56.7488)" fill="#BD9168"/>
<rect width="2.5199" height="3.1959" rx="0.817749" transform="matrix(-0.995188 0.0979859 0.0979859 0.995188 82.2949 57.2238)" fill="#DDCC8E"/>
<rect width="3.84413" height="4.0813" rx="1.02219" transform="matrix(-0.995188 0.0979859 0.0979859 0.995188 82.0947 51.6652)" fill="#BD9168"/>
<rect width="2.5199" height="3.1959" rx="0.817749" transform="matrix(-0.995188 0.0979859 0.0979859 0.995188 81.791 52.1404)" fill="#DDCC8E"/>
<rect width="3.84413" height="4.0813" rx="1.02219" transform="matrix(-0.995188 0.0979859 0.0979859 0.995188 81.5923 46.576)" fill="#BD9168"/>
<rect width="2.5199" height="3.1959" rx="0.817749" transform="matrix(-0.995188 0.0979859 0.0979859 0.995188 81.2886 47.051)" fill="#DDCC8E"/>
<rect width="3.84413" height="4.08269" rx="1.0304" transform="matrix(-0.995188 0.0979859 0.0979859 0.995188 87.4795 56.2682)" fill="#BD9168"/>
<rect width="2.5199" height="3.1959" rx="0.817749" transform="matrix(-0.995188 0.0979859 0.0979859 0.995188 87.1807 56.7916)" fill="#DDCC8E"/>
<rect width="3.84413" height="4.08269" rx="1.0304" transform="matrix(-0.995188 0.0979859 0.0979859 0.995188 86.9829 51.1838)" fill="#BD9168"/>
<rect width="2.5199" height="3.1959" rx="0.817749" transform="matrix(-0.995188 0.0979859 0.0979859 0.995188 86.6836 51.7075)" fill="#DDCC8E"/>
<rect width="3.84413" height="4.08269" rx="1.0304" transform="matrix(-0.995188 0.0979859 0.0979859 0.995188 86.4785 46.0952)" fill="#BD9168"/>
<rect width="2.5199" height="3.1959" rx="0.817749" transform="matrix(-0.995188 0.0979859 0.0979859 0.995188 86.1802 46.6174)" fill="#DDCC8E"/>
<rect width="3.98414" height="4.06665" rx="1.0304" transform="matrix(-0.995188 0.0979859 0.0979859 0.995188 92.3862 55.7894)" fill="#BD9168"/>
<rect width="2.61168" height="3.18334" rx="0.817749" transform="matrix(-0.995188 0.0979859 0.0979859 0.995188 92.0728 56.3121)" fill="#DDCC8E"/>
<rect width="3.98414" height="4.06665" rx="1.0304" transform="matrix(-0.995188 0.0979859 0.0979859 0.995188 91.8853 50.7032)" fill="#BD9168"/>
<rect width="2.61168" height="3.18334" rx="0.817749" transform="matrix(-0.995188 0.0979859 0.0979859 0.995188 91.5728 51.225)" fill="#DDCC8E"/>
<rect width="3.98414" height="4.06665" rx="1.0304" transform="matrix(-0.995188 0.0979859 0.0979859 0.995188 91.3828 45.615)" fill="#BD9168"/>
<rect width="2.61168" height="3.18334" rx="0.817749" transform="matrix(-0.995188 0.0979859 0.0979859 0.995188 91.0688 46.137)" fill="#DDCC8E"/>
</g>
</svg>
