<?xml version="1.0"?>
<svg xmlns="http://www.w3.org/2000/svg" viewBox="0 0 112 112" fill="none">
<path fill-rule="evenodd" clip-rule="evenodd" d="M22.6064 59.8881H80.1487L67.9056 46.4214H10.3633L22.6064 59.8881Z" fill="#FFF069"/>
<path d="M31.7867 73.2352L28.046 76.9759C30.9264 78.3575 32.0377 79.3872 32.8833 81.8132L64.4648 77.534L67.4994 59.6834L31.7867 73.2352Z" fill="#EAF0F5"/>
<path d="M28.432 77.641L60.7578 73.9511L97.8282 23.3249L66.153 26.4244C64.842 26.5527 63.6471 27.2315 62.8655 28.2918L27.5787 76.1664C27.0971 76.8197 27.6257 77.733 28.432 77.641Z" fill="#F2B03D"/>
<path d="M48.7604 57.9502L65.5336 56.421C66.5956 56.3242 67.5649 55.7759 68.195 54.9154L78.0195 41.4984C78.4899 40.8559 77.9872 39.9581 77.1937 40.0233L61.0547 41.3486C59.7166 41.4585 58.4915 42.1418 57.695 43.2225L47.928 56.4735C47.4525 57.1187 47.9622 58.023 48.7604 57.9502Z" fill="#E18C3D"/>
<path d="M64.2828 35.8255L80.4436 34.7829C81.4878 34.7155 82.4553 34.211 83.1084 33.3934L84.3034 31.8973C84.8119 31.2608 84.3133 30.3246 83.5013 30.3913L67.4219 31.7117C66.1177 31.8188 64.9192 32.4709 64.1209 33.5077L63.4867 34.3313C62.9992 34.9645 63.4853 35.8769 64.2828 35.8255Z" fill="#FFCB65"/>
<path d="M44.1561 62.5691L63.5256 60.785" stroke="#DCE4EB" stroke-width="2.78767" stroke-linecap="round"/>
<path d="M38.8655 68.3624L40.0978 68.2624M59.2673 66.5919L55.7527 66.9156L54.2612 67.0565M51.5185 67.2586L50.4808 67.4012L48.7235 67.563M46.259 67.7629L43.7945 67.9627L42.5978 68.0381" stroke="#DCE4EB" stroke-width="1.85844" stroke-linecap="round"/>
<path d="M64.9787 78.6821L101.411 29.7568C102.513 28.2771 102.363 26.2131 101.059 24.9086L100.196 24.0457C98.9935 22.8437 97.0047 22.9882 95.989 24.3514L59.2818 73.6202C60.7691 73.5467 64.9473 76.0451 64.9787 78.6821Z" fill="#405080"/>
<path d="M28.5813 77.1422L59.4931 73.4395C60.9084 73.27 62.3231 73.7595 63.331 74.7674L63.8289 75.2653C64.9422 76.3786 64.2535 78.2852 62.6858 78.43L32.6447 81.2055" stroke="#405080" stroke-width="2.78767" stroke-linecap="round" stroke-linejoin="round"/>
<path fill-rule="evenodd" clip-rule="evenodd" d="M49.2702 13.2731C49.3525 12.9839 50.231 11.3477 50.1437 11.06C50.0564 10.7723 49.8882 10.5158 49.6591 10.3211C49.4384 10.1435 49.174 10.0282 48.8938 9.98695C48.6135 9.9457 48.3274 9.98005 48.0649 10.0865L16.311 22.9367C16.0456 23.0308 15.8103 23.1942 15.6293 23.4099C15.4484 23.6256 15.3285 23.8858 15.282 24.1635C15.2331 24.4615 15.2741 24.7672 15.3996 25.0418C15.5251 25.3164 15.7296 25.5475 15.9868 25.7056L25.8225 31.9391C28.004 33.3231 29.6759 35.379 30.5868 37.7966L30.635 37.924C31.2114 39.443 31.4695 41.0642 31.3929 42.6871L30.8012 55.0499C30.5535 60.4485 31.9868 65.791 34.9036 70.3406C37.8203 74.8902 42.0768 78.4228 47.086 80.4512L47.3744 80.5728C48.067 80.854 48.648 81.3551 49.0276 81.9991C49.4072 82.643 49.5644 83.394 49.475 84.1361C49.4431 84.5278 49.3203 84.9067 49.1166 85.2428L48.5002 86.0829C48.3042 86.2772 48.1855 86.5364 48.1666 86.8118C48.1477 87.0872 48.2299 87.36 48.3976 87.5792C48.5654 87.7985 48.807 87.9491 49.0777 88.003C49.3485 88.0568 49.6297 88.0101 49.8686 87.8717L66.1483 81.7137C66.3957 81.6506 66.6144 81.506 66.7695 81.3032C66.9246 81.1004 67.0068 80.8513 67.0028 80.596C66.9989 80.3407 66.909 80.0943 66.7477 79.8964C66.5864 79.6985 66.363 79.5607 66.1138 79.5053L65.1084 79.1573C64.9306 79.0925 64.764 78.9998 64.6156 78.8824C64.0066 78.3851 63.5884 77.6925 63.4319 76.922C63.2754 76.1514 63.3907 75.3504 63.7574 74.6549L63.9144 74.3649C66.5226 69.416 67.2045 63.9727 66.3564 58.4432C65.5083 52.9138 61.7654 47.5016 57.794 43.5619L55.8845 38.5137L50.3167 35.529C49.1031 34.3218 48.7242 32.7538 48.1159 31.1539C47.2022 28.7361 49.3894 27.2102 46.7978 21.5323C51.2061 16.7577 49.2702 13.2731 49.2702 13.2731Z" fill="#9C4247"/>
<path d="M65.8479 58.5254C65.0089 53.0552 61.4546 47.7649 57.5334 43.8377C57.4494 43.7536 57.3842 43.6532 57.3422 43.5421L55.605 38.9496C55.535 38.7644 55.401 38.6103 55.2274 38.5152L50.1035 35.7075" stroke="#E68A62" stroke-width="2.18911" stroke-linejoin="round"/>
<path d="M49.0566 12.2485L49.7285 16.7685C49.7584 16.97 49.7132 17.1755 49.6015 17.3459L46.9104 21.4501C46.7647 21.6723 46.7342 21.9507 46.8281 22.1992L48.1994 25.8242C48.2611 25.9874 48.2702 26.1643 48.2264 26.3332C47.9909 27.2401 47.2291 30.2857 47.3299 31.3658C47.3353 31.4237 47.3506 31.4786 47.3717 31.5328C47.9666 33.064 48.8686 34.4571 50.0217 35.6268C50.0765 35.6824 50.1395 35.7292 50.2079 35.7667L55.2286 38.5179C55.4022 38.613 55.5362 38.7671 55.6062 38.9523L57.3434 43.5448C57.3854 43.6559 57.451 43.7567 57.5349 43.8408C57.7344 44.0406 57.9329 44.2439 58.1302 44.4506" stroke="#E68A62" stroke-width="2.18911" stroke-linecap="round" stroke-linejoin="round"/>
<path fill-rule="evenodd" clip-rule="evenodd" d="M29.4804 23.457L38.2604 29.4533C42.6148 32.4271 44.9845 37.5517 44.4299 42.7955C44.3667 43.393 44.6705 43.9696 45.199 44.2555L48.5999 46.0947C48.9168 46.2661 49.1139 46.5978 49.1128 46.9581C49.1015 50.8168 51.3596 54.3217 54.8779 55.9065L58.6331 57.598C61.1374 58.726 63.8163 56.409 63.0609 53.7683L60.5903 45.1307C63.7846 48.8331 65.8848 53.3698 66.6303 58.2299C67.4784 63.7594 66.5281 69.4151 63.92 74.364L63.763 74.654C63.3962 75.3495 63.2809 76.1505 63.4374 76.921C63.5939 77.6916 64.0121 78.3842 64.6212 78.8815C64.7696 78.9989 64.9362 79.0916 65.114 79.1564L66.1193 79.5044C66.3685 79.5598 66.5919 79.6975 66.7532 79.8954C66.9145 80.0933 67.0044 80.3398 67.0084 80.5951C67.0123 80.8503 66.9301 81.0995 66.7751 81.3023C66.62 81.5051 66.4012 81.6497 66.1539 81.7128L49.8741 87.8708C49.6353 88.0092 49.354 88.0559 49.0833 88.0021C48.8125 87.9482 48.5709 87.7975 48.4032 87.5783C48.2354 87.3591 48.1533 87.0862 48.1721 86.8108C48.191 86.5355 48.3097 86.2763 48.5057 86.082L49.1221 85.2419C49.3258 84.9058 49.4486 84.5269 49.4805 84.1352C49.5699 83.393 49.4127 82.6421 49.0332 81.9981C48.6536 81.3542 48.0725 80.8531 47.3799 80.5719L47.0915 80.4503C42.0824 78.4219 37.8258 74.8893 34.9091 70.3397C31.9923 65.7901 30.5591 60.4476 30.8067 55.049L31.3985 42.6862C31.475 41.0633 31.2169 39.4421 30.6406 37.9231L30.5924 37.7957C29.6814 35.3781 28.0095 33.3222 25.828 31.9382L15.9923 25.7047C15.7351 25.5466 15.5307 25.3155 15.4052 25.0409C15.2797 24.7663 15.2387 24.4606 15.2875 24.1626C15.334 23.8849 15.4539 23.6247 15.6349 23.409C15.8158 23.1933 16.0511 23.0299 16.3165 22.9358L38.7398 13.5328C39.0023 13.4263 39.2884 13.3919 39.5687 13.4332C39.8489 13.4744 40.1133 13.5897 40.334 13.7673C40.5631 13.962 40.7313 14.2185 40.8186 14.5062C40.9059 14.7939 40.9085 15.1006 40.8262 15.3898L40.6938 16.8383L29.4804 23.457Z" fill="#D64E4E"/>
<ellipse rx="15.9841" ry="5.85227" transform="matrix(-0.935322 0.353797 0.353797 0.935322 32.5562 17.3304)" fill="#9C4247"/>
<path d="M49.3263 10.8605C48.439 8.51475 40.2209 9.44968 30.9706 12.9487C21.7204 16.4477 14.9409 21.1858 15.8282 23.5316C16.5329 25.3946 21.8617 25.1882 28.6593 23.2715" stroke="#E1674B" stroke-width="3.25587" stroke-linecap="round"/>
<path d="M30.1135 37.6361C32.0284 38.738 38.7483 37.2222 42.1697 35.7061" stroke="#E1674B" stroke-width="2.56283" stroke-linecap="round"/>
<path d="M29.1489 22.5905L38.6604 29.6294C42.9046 32.7703 45.1695 37.9228 44.6142 43.1735V43.1735C44.5485 43.7948 44.8643 44.3943 45.4138 44.6915L48.6543 46.4439C49.0487 46.6572 49.2939 47.0699 49.2925 47.5182V47.5182C49.2812 51.4137 51.0723 55.2854 54.7244 56.6407C57.9127 57.8238 61.633 58.1558 63.3182 54.4199" stroke="#E68A62" stroke-width="2.18911"/>
<path d="M29.4985 22.7478L38.6572 29.6289C42.9014 32.7698 45.1664 37.9222 44.6111 43.1729C44.5454 43.7942 44.8612 44.3937 45.4107 44.6909L48.6512 46.4434C49.0455 46.6566 49.2907 47.0694 49.2894 47.5177C49.2834 49.5782 49.7818 51.6322 50.7932 53.3105" stroke="#EF875B" stroke-width="2.18911" stroke-linecap="round"/>
<ellipse cx="29.0918" cy="23.2777" rx="1.45414" ry="1.69649" transform="rotate(-45.5827 29.0918 23.2777)" fill="#EF875B"/>
<path d="M43.2802 34.9685C43.6169 35.563 43.4769 36.2789 42.9673 36.5675C42.4578 36.8562 41.7717 36.6083 41.435 36.0138C41.0982 35.4193 41.2383 34.7034 41.7478 34.4148C42.2573 34.1261 42.9434 34.3741 43.2802 34.9685Z" fill="#EF875B"/>
<path d="M49.2035 31.8815C49.3851 32.4976 49.1803 33.1009 48.7461 33.2289C48.3119 33.3568 47.8127 32.9612 47.6311 32.3451C47.4495 31.7289 47.6542 31.1257 48.0884 30.9977C48.5226 30.8697 49.0218 31.2654 49.2035 31.8815Z" fill="#EF875B"/>
<ellipse cx="49.7196" cy="11.6284" rx="1.50083" ry="1.75097" transform="rotate(3.85444 49.7196 11.6284)" fill="#EF875B"/>
<path fill-rule="evenodd" clip-rule="evenodd" d="M19.8276 58.4214V99.5862C19.8276 100.681 20.2625 101.731 21.0365 102.505C21.4197 102.888 21.8747 103.192 22.3754 103.399C22.8761 103.607 23.4128 103.713 23.9548 103.713H73.136C74.2306 103.713 75.2803 103.279 76.0543 102.505C76.8283 101.731 77.2631 100.681 77.2631 99.5862V58.4214H19.8276Z" fill="#E1BA6F"/>
<path fill-rule="evenodd" clip-rule="evenodd" d="M70.1262 103.71V100.666H19.9761C20.1632 101.354 20.5272 101.988 21.0404 102.502C21.4236 102.885 21.8786 103.189 22.3793 103.396C22.88 103.604 23.4167 103.71 23.9587 103.71H70.1262Z" fill="#CDAA65"/>
<path fill-rule="evenodd" clip-rule="evenodd" d="M47.1709 58.4214V99.5862C47.1709 100.681 47.6057 101.731 48.3797 102.505C49.1537 103.279 50.2035 103.713 51.2981 103.713H88.6853C89.7799 103.713 90.8296 103.279 91.6036 102.505C92.3776 101.731 92.8124 100.681 92.8124 99.5862V58.4214H47.1709Z" fill="#FEDD84"/>
<path d="M84.9702 69.9828L54.3305 71.2832C53.5844 71.3149 52.9965 71.7402 53.0174 72.2332L53.7873 90.3741C53.8378 91.5648 54.8442 92.4889 56.0349 92.438L89.8847 90.9909C88.4185 91.0536 87.179 89.916 87.1161 88.4497L86.3591 70.8181C86.3382 70.3251 85.7163 69.9512 84.9702 69.9828Z" fill="#FCF3DB"/>
<path d="M59.708 88.5015L89.4365 87.1172C90.1646 87.0801 90.7753 87.4517 90.8005 87.947C90.9625 89.5064 89.7802 90.8811 88.2142 90.9545L55.9551 92.4652C57.3909 92.3926 58.5012 91.1788 58.4458 89.7422L58.4351 89.4654C58.41 88.97 58.9798 88.5385 59.708 88.5015Z" fill="white"/>
<path d="M81.4352 77.3651L81.4334 77.322C81.3955 76.4291 80.641 75.7361 79.7482 75.774L60.0717 76.6091C59.1789 76.647 58.4858 77.4015 58.5237 78.2943L58.5255 78.3375C58.5634 79.2303 59.3179 79.9234 60.2107 79.8855L79.8872 79.0504C80.7801 79.0125 81.4731 78.258 81.4352 77.3651Z" fill="#F1E1B6"/>
<path d="M78.4581 81.2259L60.258 81.9983C59.4014 82.0347 58.7397 82.8345 58.7761 83.691C58.8124 84.5476 59.5331 85.1366 60.3897 85.1003L78.5897 84.3278C79.4463 84.2915 80.1112 83.5676 80.0749 82.711C80.0385 81.8545 79.3147 81.1895 78.4581 81.2259Z" fill="#F1E1B6"/>
<path fill-rule="evenodd" clip-rule="evenodd" d="M92.8012 58.4619H47.1597L58.3273 46.1653C58.6625 45.7967 59.0711 45.5022 59.5268 45.3007C59.9825 45.0992 60.4752 44.9951 60.9735 44.9952H103.255C103.408 44.9954 103.558 45.0401 103.686 45.1237C103.815 45.2074 103.916 45.3265 103.978 45.4665C104.04 45.6066 104.06 45.7616 104.035 45.9128C104.011 46.064 103.943 46.2049 103.84 46.3183L92.8012 58.4619Z" fill="#E1BA6F"/>
<path fill-rule="evenodd" clip-rule="evenodd" d="M9.22185 44.9952H31.9649C32.8029 44.9953 33.6319 45.1678 34.4003 45.5019C35.1688 45.836 35.8603 46.3247 36.432 46.9374L47.1699 58.4619H19.8286L8.60277 46.4178C8.49104 46.2971 8.41689 46.1464 8.38938 45.9842C8.36186 45.822 8.38216 45.6552 8.44781 45.5044C8.51346 45.3535 8.62161 45.225 8.75906 45.1346C8.89651 45.0442 9.05732 44.9957 9.22185 44.9952Z" fill="#D1A95A"/>
</svg>
