<?xml version="1.0"?>
<svg xmlns="http://www.w3.org/2000/svg" viewBox="0 0 112 112" fill="none">
<path d="M26.6611 54.9845L91.6072 51.1059L96.6231 91.7721C96.8187 93.3577 95.6352 94.7794 94.0404 94.8746L34.6326 98.4225C33.174 98.5096 31.8987 97.448 31.7198 95.9977L26.6611 54.9845Z" fill="#CCC9C4"/>
<path d="M24.2129 13.991C24.1217 12.4646 25.2852 11.1534 26.8115 11.0622L86.2302 7.51376C87.7566 7.42261 89.0678 8.58605 89.1589 10.1124L91.6071 51.1067L26.6611 54.9853L24.2129 13.991Z" fill="#CCC9C4"/>
<path d="M24.1536 96.7195C25.6864 96.2529 27.1702 96.0987 28.488 96.1573C31.1355 96.275 33.7868 97.0211 36.4389 96.8257L71.3527 94.4195L71.9069 101.944L28.4538 104.979C26.3663 105.133 24.1202 105.259 22.7755 103.981C20.5748 101.889 20.9155 97.7054 24.1536 96.7195Z" fill="#B0A38F"/>
<path fill-rule="evenodd" clip-rule="evenodd" d="M71.6685 98.7115L28.3188 101.3C26.7925 101.391 25.4813 100.228 25.3901 98.7017L25.2545 96.4311C26.3936 96.1874 27.4882 96.1096 28.4874 96.154C29.5466 96.2011 30.6063 96.3487 31.6664 96.4965C33.2563 96.718 34.8472 96.9396 36.4383 96.8224L71.3521 94.4162L71.6685 98.7115Z" fill="#9F9079"/>
<path d="M25.1928 97.2417C28.6472 96.0274 30.9149 96.7529 32.615 97.9363L26.2849 55.6486L24.9703 13.3834C24.9562 12.9313 24.881 12.4673 24.5979 12.1145C22.2957 9.24532 13.3278 10.1141 13.7149 15.369L16.344 56.2434L21.4537 103.194C21.2936 101.013 23.1178 97.9711 25.1928 97.2417Z" fill="#FAF4E5"/>
<path d="M32.2585 97.7975C30.8667 95.5358 21.3282 95.7836 21.7325 101.272C21.9391 104.076 24.4805 105.312 28.3801 105.024L71.369 102.457" stroke="#CCC9C4" stroke-width="1.38429" stroke-linecap="round"/>
<path d="M22.8311 14.0735C22.7399 12.5471 23.9033 11.2359 25.4297 11.1448L84.8484 7.59628C86.3747 7.50513 87.686 8.66857 87.7771 10.1949L90.2253 51.1892L25.2792 55.0678L22.8311 14.0735Z" fill="#EFECDD"/>
<path d="M25.2793 55.067L90.2253 51.1884L95.2412 91.8546C95.4368 93.4403 94.2534 94.8619 92.6585 94.9572L33.2508 98.505C31.7921 98.5921 30.5169 97.5305 30.338 96.0802L25.2793 55.067Z" fill="#E4E2D9"/>
<path d="M34.2347 76.0535C34.1077 75.0317 34.8708 74.1152 35.8988 74.0551L57.191 72.8116C58.1282 72.7569 58.947 73.4387 59.0628 74.3703L60.3849 85.0006C60.512 86.0225 59.7488 86.939 58.7208 86.999L37.4286 88.2426C36.4915 88.2973 35.6727 87.6155 35.5568 86.6839L34.2347 76.0535Z" fill="#C3BFB6"/>
<path d="M62.6937 74.3934C62.5666 73.3715 63.3298 72.455 64.3578 72.395L85.65 71.1514C86.5871 71.0967 87.406 71.7785 87.5218 72.7101L88.8439 83.3405C88.971 84.3623 88.2078 85.2788 87.1798 85.3389L65.8876 86.5824C64.9505 86.6371 64.1317 85.9553 64.0158 85.0237L62.6937 74.3934Z" fill="#C3BFB6"/>
<path d="M81.0418 36.7156C82.3137 36.6397 83.4064 37.6092 83.4824 38.8811L84.2388 51.5479L30.8081 54.7388L30.0516 42.072C29.9756 40.8001 30.9452 39.7074 32.2171 39.6314L81.0418 36.7156Z" fill="#DCD9CD"/>
<path d="M30.8076 54.7368L84.2666 51.5442L85.8661 65.1845C86.0205 66.5014 85.0358 67.6772 83.7122 67.7562L34.8668 70.6733C33.6459 70.7462 32.5803 69.8537 32.4378 68.6389L30.8076 54.7368Z" fill="#D2CEBD"/>
<path opacity="0.5" d="M30.409 48.0614L30.8079 54.7403L32.4888 69.0752C32.6028 70.047 33.4553 70.761 34.432 70.7027L84.1703 67.7323C85.2298 67.669 86.0178 66.7274 85.8933 65.6734L84.2524 51.7797L83.5372 39.8038L74.0947 40.3677C73.5859 40.3981 73.1981 40.8352 73.2285 41.3439L73.4623 45.2591C73.4927 45.7679 73.1049 46.205 72.5961 46.2354L68.6809 46.4692C68.1722 46.4996 67.7844 46.9366 67.8147 47.4454L68.1243 52.629C68.1288 52.7043 68.1425 52.7788 68.1651 52.8508L68.3472 53.4298C68.5273 54.0026 68.1212 54.592 67.5218 54.6278L66.521 54.6876C66.0564 54.7153 65.6438 54.3928 65.5587 53.9352L65.3674 52.9075L64.8448 44.1559C64.8144 43.6471 64.3773 43.2593 63.8685 43.2897L53.9654 43.8811C53.4566 43.9115 53.0688 44.3486 53.0992 44.8573L53.6219 53.6089L54.7543 59.4284C54.861 59.9763 54.4606 60.4926 53.9035 60.5259L53.0257 60.5783C52.5524 60.6066 52.1347 60.2716 52.0595 59.8035L51.0885 53.7602L50.4283 42.7056C50.3979 42.1968 49.9609 41.809 49.4521 41.8394L42.5429 42.252C42.0341 42.2824 41.6463 42.7194 41.6767 43.2282L42.0756 49.9071C42.106 50.4158 41.7181 50.8529 41.2094 50.8833L37.2942 51.1171C36.7854 51.1475 36.3483 50.7597 36.3179 50.2509L36.2217 48.6388C36.1913 48.13 35.7542 47.7422 35.2454 47.7726L30.409 48.0614Z" fill="#B4AFAF"/>
<path d="M26.9561 21.2241L84.5323 17.7857" stroke="#C2C6CD" stroke-width="0.461431" stroke-linecap="round"/>
<rect x="74.2061" y="15.1672" width="9.69005" height="1.38429" rx="0.692146" transform="rotate(-3.41765 74.2061 15.1672)" fill="#C4C4C4"/>
<rect x="65.4556" y="15.6898" width="5.9986" height="1.38429" rx="0.692146" transform="rotate(-3.41765 65.4556 15.6898)" fill="#C4C4C4"/>
<rect x="27.2251" y="17.9729" width="15.6887" height="1.38429" rx="0.692146" transform="rotate(-3.41765 27.2251 17.9729)" fill="#D19595"/>
<path d="M26.6538 16.1569L84.2301 12.7184" stroke="#C2C6CD" stroke-width="0.461431" stroke-linecap="round"/>
<path d="M34.0391 93.3739L91.6153 89.9354" stroke="#C2C6CD" stroke-width="0.461431" stroke-linecap="round"/>
<rect x="28.9375" y="23.4169" width="5.9986" height="5.53717" rx="1.38429" transform="rotate(-3.41765 28.9375 23.4169)" fill="#626262"/>
<rect x="37.228" y="22.9218" width="11.0743" height="5.53717" rx="1.38429" transform="rotate(-3.41765 37.228 22.9218)" fill="#626262"/>
<rect x="50.584" y="22.1241" width="11.0743" height="5.53717" rx="1.38429" transform="rotate(-3.41765 50.584 22.1241)" fill="#626262"/>
<rect x="63.9424" y="21.3264" width="18.9187" height="5.53717" rx="1.38429" transform="rotate(-3.41765 63.9424 21.3264)" fill="#626262"/>
<rect x="29.665" y="34.9536" width="41.0674" height="1.84572" rx="0.922862" transform="rotate(-3.41765 29.665 34.9536)" fill="#85B0D7"/>
<rect x="29.4722" y="31.7278" width="41.0674" height="1.84572" rx="0.922862" transform="rotate(-3.41765 29.4722 31.7278)" fill="#626262"/>
</svg>
