<?xml version="1.0"?>
<svg xmlns="http://www.w3.org/2000/svg" viewBox="0 0 112 112" fill="none">
<path opacity="0.5" fill-rule="evenodd" clip-rule="evenodd" d="M38.2159 19.6415C38.1653 20.5522 38.3556 21.4199 38.731 22.1831L37.3959 22.192C34.3084 22.2125 31.5958 24.2455 30.7095 27.2031L28.0287 36.1486C20.9361 42.6903 17.1408 52.5421 18.7624 62.7871C19.8285 69.5224 23.069 75.3731 27.6549 79.7367L31.1324 90.8033C32.058 93.7488 34.7975 95.7455 37.8849 95.725L43.1288 95.6901L46.4284 95.6682C47.6476 95.66 48.803 95.1223 49.5942 94.1947C50.3568 93.3005 51.4594 92.767 52.6339 92.7239L54.4105 92.6587C55.6445 92.6135 56.8275 93.1532 57.6021 94.1148C58.3508 95.0443 59.4827 95.5813 60.6762 95.5734L64.0066 95.5513L69.2505 95.5164C72.338 95.4959 75.0506 93.4629 75.9369 90.5053L80.4838 75.3331C80.6796 74.6796 80.8634 74.0235 81.0352 73.365L81.0375 73.3648C84.6649 73.0917 87.3588 69.8897 87.0073 66.2689L86.2302 58.2629L87.1278 58.1367C87.7032 58.0558 88.104 57.5238 88.0231 56.9485L87.4844 53.1164C87.4648 52.977 87.4187 52.8478 87.3519 52.7332L81.7356 18.2061C81.1683 14.7185 78.2038 12.1256 74.6717 12.0276C74.3233 12.0179 73.9798 12.0327 73.6428 12.0702L73.596 12.0677L71.2613 12.045L46.389 11.1316C42.1219 10.9749 38.5149 14.2637 38.2779 18.5271L38.2159 19.6415ZM83.8661 66.5739C84.0121 68.0779 83.1348 69.4412 81.8082 69.9815C82.5334 66.2908 82.8882 62.5462 82.8729 58.8034L83.1086 58.7703L83.8661 66.5739Z" fill="black" fill-opacity="0.2"/>
<path d="M34.5808 98.1612C37.2473 98.4913 39.775 96.8894 40.6147 94.337L52.1374 59.314C52.5562 58.041 53.4572 56.9828 54.647 56.3663L79.5552 43.4594C80.4568 42.9921 81.477 42.8034 82.4861 42.9171L87.7192 43.5069C90.8733 43.8623 92.9485 46.971 92.0673 50.0203L86.0063 70.9943L79.9893 91.5606C77.7949 99.0609 70.7086 104.05 62.9077 103.586L34.5808 98.1612Z" fill="#682D20"/>
<path d="M69.1892 105.167C64.2967 102.736 61.0976 97.8538 60.8224 92.3976L60.7245 90.4564C60.6801 89.5761 60.0358 88.8422 59.1687 88.684L36.4254 84.5367C33.5328 84.0092 30.7907 86.0192 30.4231 88.9365L30.0652 91.7779C29.5308 96.0197 32.4953 99.9069 36.7274 100.514L69.1892 105.167Z" fill="#AE5336"/>
<path d="M41.3704 100.164C40.8694 99.3322 41.5567 98.2914 42.5181 98.4256L46.5425 98.9873C47.8061 99.1637 48.9225 99.9009 49.581 100.994L50.4902 102.503L42.0717 101.328L41.3704 100.164Z" fill="#652428"/>
<path d="M89.0315 49.0174C89.1583 48.0268 90.0642 47.3266 91.0548 47.4535C92.0453 47.5804 92.7455 48.4862 92.6186 49.4768L89.0315 49.0174ZM89.4431 60.0376L87.6495 59.8079L89.4431 60.0376ZM61.7787 89.6665L61.917 93.8107L58.3026 93.9314L58.1643 89.7871L61.7787 89.6665ZM77.1601 96.5934L79.02 92.1259L82.3587 93.5158L80.4988 97.9833L77.1601 96.5934ZM87.6495 59.8079L89.0315 49.0174L92.6186 49.4768L91.2367 60.2673L87.6495 59.8079ZM79.02 92.1259C83.3245 81.7862 86.2268 70.9171 87.6495 59.8079L91.2367 60.2673C89.7729 71.6964 86.7871 82.8784 82.3587 93.5158L79.02 92.1259ZM69.5594 101.47C72.8615 101.587 75.8902 99.6439 77.1601 96.5934L80.4988 97.9833C78.6496 102.425 74.2394 105.255 69.431 105.084L69.5594 101.47ZM61.917 93.8107C62.056 97.9753 65.3951 101.322 69.5594 101.47L69.431 105.084C63.3672 104.868 58.505 99.9956 58.3026 93.9314L61.917 93.8107Z" fill="#CA6F47"/>
<path d="M90.5835 50.3822C89.6118 50.135 89.0581 49.1316 89.0739 48.1292C89.1013 46.3903 88.4838 44.6876 87.228 43.3914L85.8916 41.1432L87.2031 41.5469C90.6816 42.6176 92.6978 45.3856 92.6156 48.9856C92.5923 50.0054 91.5721 50.6336 90.5835 50.3822Z" fill="#AF5D3A"/>
<path d="M46.006 9.96869C48.6795 10.2373 50.7896 12.3593 51.0432 15.0342L54.3308 49.7067C54.5566 52.0883 56.455 53.9666 58.8388 54.167L80.2795 55.9702C82.6991 56.1736 84.8217 54.368 85.0087 51.947L86.9784 26.4472C87.5603 18.9135 82.2857 12.1853 74.8309 10.952L46.006 9.96869Z" fill="#682D20"/>
<path d="M81.3076 10.7982C75.9983 12.0852 71.7972 16.1381 70.3205 21.3979L69.7951 23.2692C69.5569 24.1178 68.766 24.6909 67.8855 24.653L44.7884 23.6606C41.8508 23.5344 39.6219 20.967 39.9096 18.0408L40.1898 15.1906C40.6081 10.9358 44.3599 7.80164 48.6213 8.14725L81.3076 10.7982Z" fill="#AE5336"/>
<path d="M68.8986 23.8128L70.2134 18.8031C71.3649 14.416 75.7159 11.669 80.1719 12.5158V12.5158C84.5146 13.3411 87.5316 17.3144 87.16 21.7193L84.3126 55.4783" stroke="#CA6F47" stroke-width="3.61646"/>
<path d="M83.1991 56.1665L81.8996 66.915C81.5692 69.648 79.0565 71.5752 76.3313 71.1858L54.0612 68.004" stroke="#C1872F" stroke-width="3.15604"/>
<rect x="65.8672" y="51.6869" width="21.0406" height="5.97377" rx="1.05201" transform="rotate(4.43561 65.8672 51.6869)" fill="#CFA149"/>
<rect x="62.7124" y="51.5119" width="21.0406" height="5.97377" rx="1.05201" transform="rotate(4.43561 62.7124 51.5119)" fill="#E7BE56"/>
<path fill-rule="evenodd" clip-rule="evenodd" d="M37.0724 16.7627C34.7112 16.3363 32.3685 17.5976 31.4245 19.8034L24.4707 36.0512C20.1842 46.0667 18.8699 57.1041 20.6846 67.8461L23.7391 85.9273C24.0588 87.8195 25.6311 89.2477 27.5453 89.3845C28.6998 89.467 29.8482 89.054 30.6941 88.2638C31.584 87.4325 32.8011 87.0127 34.0132 87.1319L56.2811 89.3219C57.5135 89.4431 58.6213 90.1253 59.2842 91.1713C59.9248 92.182 60.9822 92.855 62.169 93.0073L62.7642 93.0837C65.1138 93.3853 67.3781 92.0907 68.3101 89.9129L75.0111 74.2559C75.9898 71.969 76.8134 69.6293 77.4802 67.2525C77.7184 66.4034 78.5383 65.8524 79.3337 65.4715C81.2683 64.5452 82.8718 61.7079 83.2232 58.2199C83.5724 54.7539 82.5819 51.6709 80.8906 50.3629C80.2009 49.8295 79.5284 49.1254 79.4722 48.2553C79.318 45.871 79.0129 43.49 78.5554 41.1266L75.2484 24.0457C74.8397 21.9344 73.0771 20.3523 70.934 20.1731C69.7544 20.0745 68.5799 20.415 67.636 21.1294L67.482 21.2459C66.4146 22.0538 65.0813 22.4284 63.7493 22.2946L42.8782 20.1978C41.7603 20.0855 40.7558 19.4663 40.1532 18.5181C39.6045 17.6548 38.7197 17.0602 37.713 16.8784L37.0724 16.7627Z" fill="#F1C657"/>
<ellipse cx="80.5513" cy="58.162" rx="2.88301" ry="5.02482" transform="rotate(5.75322 80.5513 58.162)" fill="#DFB036"/>
<ellipse cx="81.0989" cy="58.1544" rx="2.80673" ry="5.02482" transform="rotate(5.75322 81.0989 58.1544)" fill="#DFB036"/>
<path d="M83.3819 58.5042C83.186 60.4484 82.2818 61.9494 81.3623 61.8568C80.4428 61.7641 79.8562 60.1129 80.0521 58.1687C80.2479 56.2245 81.1522 54.7235 82.0717 54.8162C82.9912 54.9088 83.5778 56.56 83.3819 58.5042Z" fill="#FBCD59"/>
<path d="M49.5704 84.2703C66.004 82.7828 78.1262 68.3203 76.646 51.9673C75.1658 35.6143 60.6438 23.5635 44.2102 25.0509C27.7766 26.5384 15.6545 41.001 17.1347 57.3539C18.6149 73.7069 33.1368 85.7578 49.5704 84.2703Z" fill="#FFF280"/>
<path d="M48.1719 79.7696C61.8398 78.5324 71.9059 66.3276 70.6551 52.5093C69.4044 38.691 57.3104 28.4919 43.6425 29.7291C29.9746 30.9662 19.9085 43.1711 21.1592 56.9894C22.41 70.8077 34.504 81.0067 48.1719 79.7696Z" fill="#C59842"/>
<path d="M19.4124 42.9972C21.894 37.2315 26.1651 32.3562 31.5918 29.1279C32.694 28.4721 34.085 29.0402 34.5169 30.2478C34.8869 31.2827 34.4108 32.4213 33.4616 32.9752C28.9623 35.6003 25.3915 39.5993 23.2569 44.3565C22.8321 45.3032 21.8126 45.863 20.8025 45.6263C19.622 45.3496 18.9331 44.1109 19.4124 42.9972Z" fill="white"/>
<path d="M49.183 78.3312C62.2627 77.1473 71.9062 65.5844 70.7223 52.5047C69.5384 39.425 57.9755 29.7815 44.8958 30.9654C31.8161 32.1493 22.1726 43.7123 23.3565 56.7919C24.5404 69.8716 36.1034 79.5151 49.183 78.3312Z" fill="#40404F"/>
<path fill-rule="evenodd" clip-rule="evenodd" d="M37.7731 36.819C38.3459 36.5317 38.9373 36.2691 39.5465 36.033C40.1557 35.7969 40.7697 35.5925 41.3865 35.4188C41.9248 35.2674 42.4839 35.5809 42.6354 36.1191C42.7869 36.6573 42.4734 37.2165 41.9352 37.368C41.3801 37.5242 40.8273 37.7083 40.2781 37.9211C39.729 38.1339 39.1964 38.3704 38.6811 38.6289C38.1813 38.8796 37.5729 38.6777 37.3221 38.1779C37.0714 37.6781 37.2733 37.0697 37.7731 36.819ZM33.8542 40.7111C34.2543 41.1017 34.262 41.7426 33.8714 42.1428C33.0539 42.9802 32.324 43.8913 31.6886 44.8606C31.3821 45.3282 30.7545 45.4588 30.2868 45.1523C29.8192 44.8457 29.6886 44.2181 29.9952 43.7505C30.7014 42.6732 31.513 41.66 32.4225 40.7283C32.8131 40.3282 33.4541 40.3205 33.8542 40.7111ZM46.9048 35.6542C46.9372 35.0959 47.416 34.6697 47.9743 34.7022C49.2741 34.7778 50.5565 34.9796 51.8042 35.2998C52.3458 35.4388 52.6722 35.9905 52.5332 36.5321C52.448 36.864 51.1463 38.1074 50.1507 39.021C49.5706 39.5533 48.6535 39.3959 48.2841 38.7005C47.6668 37.5384 46.885 35.993 46.9048 35.6542ZM28.5526 49.0808C28.9621 49.1859 30.2626 50.5049 31.2212 51.5251C31.7806 52.1203 31.5955 53.0763 30.8565 53.4243C29.6246 54.0043 28.0106 54.7288 27.6746 54.7093C27.1164 54.6768 26.6902 54.198 26.7226 53.6398C26.7982 52.34 27 51.0576 27.3202 49.8098C27.4592 49.2682 28.011 48.9419 28.5526 49.0808ZM56.4618 38.2664C56.7683 37.7988 57.3959 37.6682 57.8635 37.9747C58.9409 38.6809 59.9541 39.4926 60.8858 40.4021C61.2859 40.7927 61.2936 41.4337 60.903 41.8338C60.5124 42.2339 59.8714 42.2416 59.4713 41.851C58.6338 41.0335 57.7227 40.3035 56.7535 39.6682C56.2858 39.3617 56.1552 38.7341 56.4618 38.2664ZM28.1395 58.9786C28.6778 58.8271 29.2369 59.1407 29.3884 59.6789C29.5446 60.2339 29.7287 60.7868 29.9415 61.3359C30.1543 61.885 30.3908 62.4176 30.6493 62.933C30.9 63.4328 30.6981 64.0412 30.1984 64.2919C29.6986 64.5426 29.0902 64.3407 28.8394 63.841C28.5521 63.2682 28.2895 62.6767 28.0534 62.0675C27.8174 61.4583 27.6129 60.8444 27.4393 60.2275C27.2878 59.6893 27.6013 59.1301 28.1395 58.9786ZM63.4361 45.3017C63.9359 45.051 64.5443 45.2529 64.795 45.7527C65.0824 46.3255 65.345 46.9169 65.5811 47.5261C65.8171 48.1353 66.0216 48.7493 66.1952 49.3661C66.3467 49.9044 66.0332 50.4635 65.4949 50.615C64.9567 50.7665 64.3976 50.453 64.2461 49.9147C64.0899 49.3597 63.9057 48.8068 63.693 48.2577C63.4802 47.7086 63.2437 47.176 62.9852 46.6606C62.7344 46.1609 62.9363 45.5524 63.4361 45.3017ZM32.7315 67.7599C33.1221 67.3598 33.7631 67.352 34.1632 67.7426C35.0006 68.5602 35.9117 69.2901 36.881 69.9254C37.3486 70.232 37.4792 70.8596 37.1727 71.3272C36.8662 71.7948 36.2386 71.9254 35.7709 71.6189C34.6936 70.9127 33.6804 70.1011 32.7487 69.1916C32.3486 68.801 32.3409 68.16 32.7315 67.7599ZM65.9599 54.8843C66.5181 54.9168 66.9443 55.3956 66.9118 55.9538C66.8362 57.2536 66.6345 58.5361 66.3143 59.7838C66.1753 60.3254 65.6235 60.6518 65.0819 60.5128C64.7483 60.4272 63.357 59.015 62.3378 57.9432C61.7697 57.3458 61.9526 56.3781 62.7039 56.0385C63.8939 55.5006 65.4438 54.8543 65.9599 54.8843ZM41.1013 73.0615C41.1888 72.7203 42.5888 71.4847 43.6128 70.617C44.179 70.1373 45.0317 70.279 45.4011 70.9227C46.0027 71.971 46.7607 73.4071 46.7297 73.9395C46.6973 74.4977 46.2184 74.9239 45.6602 74.8914C44.3604 74.8158 43.078 74.614 41.8303 74.2938C41.2887 74.1548 40.9623 73.6031 41.1013 73.0615ZM63.3476 64.4414C63.8153 64.7479 63.9459 65.3755 63.6393 65.8431C62.9331 66.9205 62.1215 67.9337 61.212 68.8653C60.8214 69.2654 60.1804 69.2732 59.7803 68.8826C59.3802 68.492 59.3725 67.851 59.7631 67.4509C60.5806 66.6134 61.3105 65.7023 61.9459 64.7331C62.2524 64.2654 62.88 64.1348 63.3476 64.4414ZM50.9991 73.4745C50.8476 72.9363 51.1611 72.3771 51.6993 72.2257C52.2543 72.0694 52.8072 71.8853 53.3563 71.6726C53.9055 71.4598 54.438 71.2233 54.9534 70.9647C55.4532 70.714 56.0616 70.9159 56.3123 71.4157C56.5631 71.9155 56.3612 72.5239 55.8614 72.7746C55.2886 73.062 54.6972 73.3246 54.0879 73.5606C53.4787 73.7967 52.8648 74.0012 52.2479 74.1748C51.7097 74.3263 51.1506 74.0128 50.9991 73.4745Z" fill="#696980"/>
<path opacity="0.3" fill-rule="evenodd" clip-rule="evenodd" d="M40.7747 43.9048C43.5638 40.6047 41.3733 35.958 37.4387 37.7437C33.3387 39.6044 30.2344 42.7599 28.39 46.5071C25.7769 51.8157 32.3033 53.9279 36.1227 49.4089L40.7747 43.9048Z" fill="#D1FFCA"/>
<path d="M46.413 55.284L40.5386 38.8989" stroke="#CA6073" stroke-width="1.2367" stroke-linecap="round"/>
<path d="M49.5039 55.2852C49.5039 56.9928 48.1197 58.377 46.4121 58.377C44.7046 58.377 43.3203 56.9928 43.3203 55.2852C43.3203 53.5777 44.7046 52.1934 46.4121 52.1934C48.1197 52.1934 49.5039 53.5777 49.5039 55.2852Z" fill="#DCE1EE"/>
<path d="M46.4116 55.2834L56.3054 54.0467" stroke="#DCE1EE" stroke-width="3.09175" stroke-linecap="round"/>
<path d="M46.4116 55.285L52.0277 68.7101" stroke="#DCE1EE" stroke-width="1.85505" stroke-linecap="round"/>
<path d="M48.2687 55.2834C48.2687 56.308 47.4382 57.1385 46.4137 57.1385C45.3891 57.1385 44.5586 56.308 44.5586 55.2834C44.5586 54.2589 45.3891 53.4283 46.4137 53.4283C47.4382 53.4283 48.2687 54.2589 48.2687 55.2834Z" fill="#40404F"/>
</svg>
