<?xml version="1.0"?>
<svg xmlns="http://www.w3.org/2000/svg" viewBox="0 0 112 113" fill="none">
<path fill-rule="evenodd" clip-rule="evenodd" d="M56.899 76.0378L56.8983 76.0434L56.8949 76.071L56.8802 76.1902C56.8671 76.2976 56.8475 76.4602 56.8227 76.674C56.7731 77.1017 56.7023 77.7336 56.6196 78.5372C56.454 80.1452 56.2409 82.436 56.053 85.1497C55.6755 90.6007 55.4068 97.6581 55.8031 104.287C55.9706 107.089 56.2516 109.685 56.6512 111.988H48.1622C47.8072 109.61 47.581 107.171 47.4385 104.787C47.0118 97.6501 47.3041 90.193 47.6934 84.5709C47.8889 81.7481 48.1107 79.3628 48.2841 77.6789C48.3708 76.8365 48.4456 76.1684 48.4991 75.7076C48.5258 75.4772 48.5473 75.2985 48.5623 75.1756L48.5798 75.0336L48.5846 74.995L48.5864 74.9805C48.5864 74.9805 48.5867 74.9785 52.7429 75.5081L48.5867 74.9785C48.8792 72.6831 50.9771 71.0594 53.2725 71.3519C55.5677 71.6444 57.1912 73.7426 56.899 76.0378Z" fill="#212B4B"/>
<path fill-rule="evenodd" clip-rule="evenodd" d="M55.7111 75.2031C57.0279 75.3234 57.9978 76.4884 57.8775 77.8052L57.6052 80.7855C57.5723 81.1449 57.5389 81.5217 57.5053 81.9144L57.2499 84.8962C57.1371 86.2137 55.9776 87.1902 54.6602 87.0774L48.6966 86.5666C47.3792 86.4538 46.4026 85.2943 46.5155 83.9769L46.7708 80.9951C46.8063 80.5814 46.8415 80.1843 46.8761 79.8052L47.1485 76.8249C47.2688 75.5081 48.4338 74.5382 49.7505 74.6585L55.7111 75.2031ZM54.3925 92.4202C55.7148 92.4152 56.7907 93.4831 56.7956 94.8053L56.8068 97.798C56.8096 98.546 56.8185 99.2959 56.8343 100.045L56.8973 103.037C56.9251 104.359 55.876 105.453 54.554 105.481L48.5699 105.607C47.2479 105.635 46.1537 104.586 46.1259 103.264L46.063 100.272C46.0458 99.4568 46.0362 98.6447 46.0332 97.8383L46.022 94.8456C46.017 93.5234 47.0849 92.4475 48.4072 92.4425L54.3925 92.4202ZM54.8293 110.42C56.055 110.094 57.3117 110.78 57.7122 111.964H49.0241L54.8293 110.42Z" fill="#84362C"/>
<path fill-rule="evenodd" clip-rule="evenodd" d="M50.7128 71.0713C52.9977 71.4369 54.5536 73.5855 54.188 75.8704C51.6637 91.6475 49.2016 103.398 46.1582 111.988H37.1978C40.3232 104.411 43.0138 92.6704 45.9137 74.5465C46.2792 72.2616 48.4279 70.7057 50.7128 71.0713Z" fill="#333F68"/>
<path fill-rule="evenodd" clip-rule="evenodd" d="M52.5932 70.7583C54.72 69.8468 57.1831 70.832 58.0946 72.9589C60.6838 79.0004 62.9116 85.493 65.0233 91.6472C65.1689 92.0718 65.3141 92.4947 65.4587 92.9158C67.7299 99.5272 69.8752 105.648 72.2852 110.753C72.4844 111.175 72.6838 111.587 72.8835 111.988H63.645C61.4434 106.946 59.473 101.283 57.5337 95.6382C57.3966 95.2391 57.2596 94.84 57.1227 94.4409C54.986 88.2153 52.8538 82.0027 50.3926 76.2598C49.4811 74.1329 50.4663 71.6698 52.5932 70.7583Z" fill="#333F68"/>
<path fill-rule="evenodd" clip-rule="evenodd" d="M60.4054 82.0039C61.6539 81.5683 63.0191 82.2273 63.4546 83.4758L64.4405 86.3014C64.5696 86.6716 64.6982 87.0414 64.8261 87.4106L65.8063 90.2382C66.2394 91.4875 65.5777 92.8514 64.3283 93.2845L58.6731 95.2448C57.4237 95.6779 56.0599 95.0162 55.6268 93.7668L54.6466 90.9392C54.5207 90.5759 54.3946 90.213 54.2681 89.8505L53.2822 87.0248C52.8467 85.7763 53.5056 84.4112 54.7541 83.9756L60.4054 82.0039ZM66.0337 98.4412C67.2701 97.9726 68.6523 98.595 69.121 99.8314L70.1817 102.63C70.4511 103.34 70.7213 104.039 70.9929 104.724L72.0955 107.507C72.5827 108.736 71.9811 110.127 70.7518 110.614L67.2819 111.99H62.3383C62.243 111.84 62.1564 111.67 62.0796 111.476L60.977 108.694C60.6834 107.953 60.3937 107.204 60.1074 106.448L59.0467 103.65C58.578 102.414 59.2004 101.031 60.4368 100.563L66.0337 98.4412Z" fill="#A44134"/>
<path fill-rule="evenodd" clip-rule="evenodd" d="M51.9261 82.4277C53.226 82.6699 54.0834 83.92 53.8413 85.2198L53.2932 88.1619C53.2127 88.5941 53.1321 89.0223 53.0514 89.4466L52.4923 92.3866C52.2453 93.6856 50.992 94.5384 49.693 94.2913L43.813 93.1731C42.514 92.9261 41.6612 91.6728 41.9082 90.3739L42.4673 87.4338C42.5454 87.0231 42.6235 86.6081 42.7017 86.1888L43.2497 83.2467C43.4919 81.9468 44.742 81.0894 46.0419 81.3315L51.9261 82.4277ZM48.1077 101.56C49.3767 101.931 50.1045 103.261 49.7331 104.53L48.8927 107.403C48.6333 108.289 48.3697 109.15 48.1014 109.985L47.9771 110.372C47.6528 111.381 46.7033 112.057 45.6433 112.033L39.4022 111.891C37.8021 111.855 36.6876 110.289 37.1772 108.765L37.844 106.689C38.0817 105.95 38.3177 105.179 38.5525 104.377L39.3929 101.505C39.7643 100.236 41.0941 99.5079 42.3631 99.8793L48.1077 101.56Z" fill="#BB4B3B"/>
<path d="M42.1914 66.4286C42.5889 62.4818 46.1107 59.6045 50.0575 60.002L59.6637 60.9695C63.6105 61.367 66.4877 64.8888 66.0902 68.8356L65.3705 75.9819C65.1386 78.2842 63.0842 79.9626 60.7819 79.7307L45.2205 78.1634C42.9181 77.9316 41.2397 75.8772 41.4716 73.5749L42.1914 66.4286Z" fill="#263257"/>
<rect x="23.9863" y="13.7319" width="78.8094" height="54.2075" rx="9.63193" transform="rotate(5.75127 23.9863 13.7319)" fill="#8FBFEB"/>
<rect x="14.9326" y="12.8223" width="76.2311" height="54.2075" rx="9.63193" transform="rotate(5.75127 14.9326 12.8223)" fill="#C6EAFF"/>
<rect x="19.0063" y="24.6094" width="24.7146" height="20.7188" rx="4.37815" transform="rotate(5.75127 19.0063 24.6094)" fill="#489BE7"/>
<rect x="16.8198" y="55.7603" width="12.5094" height="4.16981" rx="2.0849" transform="rotate(5.75127 16.8198 55.7603)" fill="#8FBFEB"/>
<rect x="23.1006" y="29.2275" width="9.59056" height="2.91887" rx="1.45943" transform="rotate(5.75127 23.1006 29.2275)" fill="#54ADFF"/>
<rect x="22.5625" y="34.6211" width="18.7641" height="2.91887" rx="1.45943" transform="rotate(5.75127 22.5625 34.6211)" fill="#54ADFF"/>
<rect x="34.7158" y="30.3975" width="7.08867" height="2.91887" rx="1.45943" transform="rotate(5.75127 34.7158 30.3975)" fill="#54ADFF"/>
<rect x="30.5083" y="57.1367" width="6.25471" height="4.16981" rx="2.0849" transform="rotate(5.75127 30.5083 57.1367)" fill="#8FBFEB"/>
<rect x="38.3945" y="57.9312" width="6.25471" height="4.16981" rx="2.0849" transform="rotate(5.75127 38.3945 57.9312)" fill="#8FBFEB"/>
<path d="M75.8984 18.1312L93.2934 20.7117L87.7413 67.6224C86.8085 67.5284 86.1297 66.6941 86.2274 65.7617L86.4529 63.6113C86.675 61.4927 85.1327 59.597 83.0132 59.3836L62.0783 57.2751C53.9798 56.4594 50.2312 46.7966 55.6608 40.7328L75.8984 18.1312Z" fill="#8FBFEB"/>
<rect x="41.3354" y="16.2163" width="43.535" height="37.3157" rx="9.953" transform="rotate(5.75127 41.3354 16.2163)" fill="#3C315C" stroke="#E2F3FF" stroke-width="3.26016"/>
<circle cx="61.296" cy="36.5745" r="16.5666" transform="rotate(5.97061 61.296 36.5745)" fill="#4A3A78"/>
<path d="M75.672 34.5736C76.5142 42.4961 70.7506 49.7525 62.7987 50.7812C54.8468 51.81 47.7178 46.2215 46.8756 38.299C46.0333 30.3765 51.7969 23.1201 59.7488 22.0914C67.7007 21.0627 74.8298 26.6511 75.672 34.5736Z" fill="#482B78"/>
<path d="M72.9769 34.9398C73.699 41.7326 68.9371 47.9311 62.3408 48.7844C55.7446 49.6378 49.8119 44.8229 49.0898 38.03C48.3676 31.2372 53.1295 25.0387 59.7258 24.1853C66.322 23.332 72.2547 28.1469 72.9769 34.9398Z" fill="#5F3A9A"/>
<path d="M68.7925 35.4787C69.2614 39.8901 66.169 43.9155 61.8853 44.4697C57.6016 45.0238 53.7488 41.897 53.2798 37.4856C52.8108 33.0742 55.9033 29.0488 60.187 28.4946C64.4707 27.9404 68.3235 31.0673 68.7925 35.4787Z" fill="#552F94"/>
<path opacity="0.3" d="M70.2486 37.4314C71.6381 39.4651 70.5076 42.9432 67.7237 45.2C64.9397 47.4567 61.5566 47.6375 60.1671 45.6038C58.7777 43.5701 59.9082 40.0919 62.6921 37.8352C65.476 35.5784 68.8592 35.3977 70.2486 37.4314Z" fill="#A56FFF"/>
<path opacity="0.6" d="M62.0496 26.228C63.734 27.7991 62.9312 31.0462 60.2563 33.4807C57.5814 35.9151 54.0475 36.615 52.363 35.0439C50.6785 33.4728 51.4814 30.2257 54.1563 27.7913C56.8311 25.3568 60.3651 24.6569 62.0496 26.228Z" fill="white"/>
<path d="M80.6227 73.9493C84.9569 74.3599 88.8148 71.1934 89.2517 66.8558L89.6552 64.4635C89.8465 62.5641 90.6761 60.7857 92.0084 59.4185C92.9458 58.4566 93.5294 57.2054 93.664 55.869L96.2136 28.9398C96.6474 24.6325 93.5454 20.7842 89.2633 20.2783L89.1248 20.2631C89.1711 20.2678 89.2172 20.2728 89.2633 20.2783L93.793 20.7739C96.3008 22.6357 97.794 25.7317 97.4583 29.0651L94.9087 55.9944C94.7457 57.6122 94.0392 59.1271 92.9043 60.2916C91.7694 61.4561 91.0628 62.971 90.8999 64.5888L90.4963 66.9812C90.1587 70.3332 88.0567 73.0811 85.2039 74.397L80.6227 73.9493Z" fill="#77B3DE"/>
</svg>
