<?xml version="1.0"?>
<svg xmlns="http://www.w3.org/2000/svg" viewBox="0 0 112 112" fill="none">
<path d="M22.4013 69.215C22.7376 69.0375 23.056 68.8283 23.3779 68.6259C23.7286 68.4053 24.098 68.2142 24.4815 68.0586C45.4427 59.5515 68.4826 58.7426 95.2685 70.3012L75.553 84.38C68.36 89.4221 59.1226 90.113 50.5909 88.0223C36.3377 84.5296 22.842 83.9774 8.55833 86.7375C2.88461 87.2076 2.39856 80.5369 4.34106 78.7877C4.42802 78.7094 4.52834 78.6494 4.63183 78.5948L22.4013 69.215Z" fill="#F37A54"/>
<path d="M62.7055 32.7789C62.1058 27.228 66.4172 22.3671 72.0001 22.2999L72.4568 22.2944C84.3349 22.1514 95.2379 28.8476 100.482 39.5064C102.352 43.3067 103.473 47.4312 103.785 51.6551L104.98 67.8649C105.174 70.4875 103.37 72.8649 100.747 73.0521C84.9056 74.1821 66.4081 67.0485 66.4081 67.0485L62.7055 32.7789Z" fill="#F37A54"/>
<path d="M23.8506 44.0985C25.9769 32.9521 34.5544 24.153 45.643 21.7431L60.1634 18.5874C60.9593 18.4144 61.7707 18.3223 62.5852 18.3125L72.292 18.1953C84.1682 18.052 95.0711 24.7425 100.322 35.3959C102.198 39.2029 103.323 43.3358 103.636 47.5685L104.832 63.7629C105.026 66.3862 103.222 68.7642 100.598 68.9516C84.725 70.085 66.1881 62.9503 66.1881 62.9503L23.6092 70.6777L23.3165 50.2151C23.2871 48.1634 23.4661 46.114 23.8506 44.0985Z" fill="#3C81E8"/>
<path d="M57.6067 16.7156C57.8802 15.736 58.7566 15.0462 59.7731 15.0106L64.8269 14.8332C65.7798 14.7998 66.6579 15.3474 67.047 16.2178L67.1543 16.4578C67.2154 16.5944 67.2495 16.7416 67.2547 16.8912C67.2874 17.8232 66.5584 18.6052 65.6264 18.638L59.3225 18.8592C58.3673 18.8927 57.5657 18.1455 57.5321 17.1902C57.5279 17.068 57.5424 16.9459 57.5753 16.8282L57.6067 16.7156Z" fill="#F37A54"/>
<path d="M22.302 43.0658C24.599 32.4876 32.7536 24.161 43.2815 21.6437L53.9953 19.082C54.7433 18.9031 55.5085 18.8064 56.2775 18.7934L62.766 18.6838C75.4777 18.4691 86.6384 27.0988 89.6297 39.4555C90.0878 41.3478 90.3549 43.2814 90.4269 45.2271L91.2542 67.5672C91.2897 68.5263 90.5365 69.3304 89.5771 69.3576L22.8314 71.2503L21.7933 49.149C21.6974 47.1078 21.8684 45.0627 22.302 43.0658Z" fill="#69B7FF"/>
<path d="M22.7042 64.8956C23.1895 64.5358 23.7194 64.2331 24.2792 64.0059C45.2404 55.4989 65.0275 57.229 91.8134 68.7877L75.3508 80.3274C68.1578 85.3694 58.9203 86.0603 50.3886 83.9696C36.1354 80.4769 21.0906 80.5277 6.80694 83.2877C4.24359 83.783 2.38829 79.96 4.48541 78.405L22.7042 64.8956Z" fill="#154692"/>
<path opacity="0.8" d="M74.4673 74.9083L79.4096 71.2986C80.3682 70.5984 80.3295 69.199 79.2817 68.6412C75.0942 66.4118 64.8261 62.0392 50.5165 63.3119C44.019 63.8898 37.2979 70.6565 34.1823 74.2152C33.3346 75.1834 33.8936 76.6437 35.1599 76.8731L52.3571 79.988C60.1118 81.3926 68.1032 79.5566 74.4673 74.9083Z" fill="#185AA8"/>
<mask id="path-8-outside-1" maskUnits="userSpaceOnUse" x="36.7051" y="28.091" width="25.7837" height="28.6975" fill="black">
<rect fill="white" x="36.7051" y="28.091" width="25.7837" height="28.6975"/>
<path fill-rule="evenodd" clip-rule="evenodd" d="M48.5168 32.1161C47.959 31.051 46.5207 31.1767 45.8559 32.1785C43.1791 36.2118 39.9739 41.7 40.0317 44.7799C40.1308 50.0537 44.5524 54.2475 49.9077 54.147C55.263 54.0464 59.524 49.6896 59.425 44.4158C59.3873 42.4062 57.9228 39.4241 56.1244 36.5025C55.2508 35.0832 53.045 35.4669 52.1745 36.888C51.3871 38.1735 49.4711 36.6806 49.365 35.1769C49.2931 34.1578 49.0367 33.1087 48.5168 32.1161Z"/>
</mask>
<path fill-rule="evenodd" clip-rule="evenodd" d="M48.5168 32.1161C47.959 31.051 46.5207 31.1767 45.8559 32.1785C43.1791 36.2118 39.9739 41.7 40.0317 44.7799C40.1308 50.0537 44.5524 54.2475 49.9077 54.147C55.263 54.0464 59.524 49.6896 59.425 44.4158C59.3873 42.4062 57.9228 39.4241 56.1244 36.5025C55.2508 35.0832 53.045 35.4669 52.1745 36.888C51.3871 38.1735 49.4711 36.6806 49.365 35.1769C49.2931 34.1578 49.0367 33.1087 48.5168 32.1161Z" fill="#FFE666"/>
<path d="M45.8559 32.1785L44.1447 31.0428L44.1447 31.0428L45.8559 32.1785ZM48.5168 32.1161L50.3362 31.1632L50.3362 31.1632L48.5168 32.1161ZM40.0317 44.7799L42.0852 44.7414L40.0317 44.7799ZM49.9077 54.147L49.8691 52.0936L49.8691 52.0936L49.9077 54.147ZM59.425 44.4158L57.3716 44.4543L59.425 44.4158ZM56.1244 36.5025L54.3754 37.579L54.3754 37.579L56.1244 36.5025ZM52.1745 36.888L50.4232 35.8152L50.4232 35.8152L52.1745 36.888ZM49.365 35.1769L47.3163 35.3215L47.3163 35.3215L49.365 35.1769ZM47.5671 33.3142C47.5468 33.3447 47.4794 33.4165 47.3206 33.4238C47.2337 33.4278 47.108 33.4109 46.9737 33.3375C46.8312 33.2596 46.7404 33.151 46.6975 33.0689L50.3362 31.1632C49.6563 29.8651 48.3734 29.2636 47.1323 29.3206C45.9487 29.375 44.8297 30.0106 44.1447 31.0428L47.5671 33.3142ZM42.0852 44.7414C42.0666 43.7523 42.6288 42.0121 43.7559 39.7539C44.8311 37.5999 46.2502 35.2984 47.5671 33.3142L44.1447 31.0428C42.7848 33.0919 41.2629 35.5511 40.0808 37.9195C38.9506 40.1837 37.9391 42.7277 37.9783 44.8185L42.0852 44.7414ZM49.8691 52.0936C45.6181 52.1734 42.1623 48.8516 42.0852 44.7414L37.9783 44.8185C38.0992 51.2559 43.4867 56.3216 49.9462 56.2004L49.8691 52.0936ZM57.3716 44.4543C57.4488 48.5645 54.1202 52.0137 49.8691 52.0936L49.9462 56.2004C56.4058 56.0791 61.5993 50.8147 61.4784 44.3772L57.3716 44.4543ZM54.3754 37.579C55.247 38.995 56.0099 40.3817 56.5533 41.6241C57.1153 42.9091 57.3604 43.8585 57.3716 44.4543L61.4784 44.3772C61.4519 42.9634 60.9459 41.417 60.3167 39.9782C59.6687 38.4967 58.8002 36.9316 57.8734 35.4259L54.3754 37.579ZM53.9258 37.9607C53.9633 37.8996 54.0273 37.8308 54.1222 37.7717C54.219 37.7114 54.321 37.6783 54.4029 37.668C54.4855 37.6577 54.5068 37.6746 54.4788 37.6631C54.4353 37.6451 54.3923 37.6064 54.3754 37.579L57.8734 35.4259C56.9225 33.8811 55.271 33.4201 53.8937 33.5922C52.5521 33.7598 51.2089 34.5325 50.4232 35.8152L53.9258 37.9607ZM47.3163 35.3215C47.421 36.8053 48.342 38.0869 49.3617 38.7783C49.8891 39.1358 50.6501 39.4773 51.5399 39.4246C52.5461 39.3649 53.4018 38.8163 53.9258 37.9607L50.4232 35.8152C50.4702 35.7385 50.5718 35.61 50.7505 35.4993C50.9319 35.3869 51.1261 35.3344 51.2966 35.3242C51.6024 35.3061 51.7301 35.4214 51.6668 35.3785C51.6248 35.35 51.5461 35.2774 51.4802 35.1718C51.4136 35.0651 51.4121 35.0096 51.4137 35.0323L47.3163 35.3215ZM46.6975 33.0689C47.0686 33.7775 47.2615 34.5447 47.3163 35.3215L51.4137 35.0323C51.3247 33.7709 51.0047 32.4398 50.3362 31.1632L46.6975 33.0689Z" fill="white" mask="url(#path-8-outside-1)"/>
<path fill-rule="evenodd" clip-rule="evenodd" d="M45.8525 32.1778C46.5174 31.1761 47.9557 31.0503 48.5135 32.1154C49.0333 33.108 49.2898 34.1572 49.3617 35.1762C49.4678 36.68 51.3838 38.1728 52.1712 36.8873C53.0417 35.4662 55.2475 35.0826 56.1211 36.5018C57.9195 39.4234 59.384 42.4055 59.4217 44.4151C59.5207 49.6889 55.2597 54.0457 49.9044 54.1463C44.5491 54.2468 40.1274 50.0531 40.0284 44.7792C39.9706 41.6993 43.1758 36.2111 45.8525 32.1778Z" fill="#EC7854"/>
<path fill-rule="evenodd" clip-rule="evenodd" d="M49.7345 43.0527C49.6678 41.7813 50.0662 40.3493 51.4402 39.2653C51.8112 38.9726 52.4666 38.9372 52.7384 39.3237C54.2512 41.4753 55.7955 44.0459 55.8248 45.609C55.8826 48.6867 53.3338 51.2304 50.1318 51.2905C46.9299 51.3507 44.2874 48.9044 44.2296 45.8267C44.2123 44.9034 44.7099 43.6091 45.415 42.2494C45.8332 41.443 47.0794 41.6676 47.4434 42.4998C47.6892 43.0617 47.9954 43.5895 48.3706 44.0589C48.8469 44.6548 49.7744 43.8145 49.7345 43.0527Z" fill="#FFE666"/>
</svg>
