<?xml version="1.0"?>
<svg xmlns="http://www.w3.org/2000/svg" viewBox="0 0 112 112" fill="none">
<mask id="mask0" mask-type="alpha" maskUnits="userSpaceOnUse" x="0" y="0" width="112" height="112">
<rect width="112" height="112" fill="white"/>
</mask>
<g mask="url(#mask0)">
<path d="M12.3172 37.8133C10.8432 26.245 17.8754 15.2925 28.9971 11.8348C40.2679 8.33076 52.4171 13.5501 57.6526 24.1453L60.111 29.1205C62.9987 34.9645 65.4215 41.027 67.3567 47.2518L87.5249 112.123L32.5441 112.123L17.4944 63.7153C15.3784 56.9094 13.8614 49.9317 12.9605 42.862L12.3172 37.8133Z" fill="#F7D766"/>
<path d="M23.2508 57.2175C22.9439 38.5433 42.8769 36.1496 53.1789 40.4914C65.3537 44.5437 69.0528 57.0189 69.3805 62.75L23.2508 57.2175Z" fill="#F6D766"/>
<path d="M21.8624 53.6924C21.5877 55.0988 21.4182 56.6051 21.367 58.2133C20.3784 89.2556 61.6233 91.7542 65.539 62.2634C68.2201 42.0704 47.9539 32.4418 34.591 38.3429" stroke="#EEC04A" stroke-width="1.3641"/>
<path d="M60.7079 61.6528C61.904 40.0122 30.9664 35.5068 28.0177 57.6644C25.069 79.8221 59.5118 83.2933 60.7079 61.6528Z" stroke="#EEC04A" stroke-width="1.3641"/>
<path d="M55.0332 60.9066C54.9082 44.0841 33.9388 43.9743 31.6673 58.1043C29.3958 72.2342 55.1583 77.7291 55.0332 60.9066Z" stroke="#EEC04A" stroke-width="1.3641"/>
<path d="M49.6458 60.2589C50.988 50.749 36.1993 48.8752 36.2136 58.6479C36.2279 68.4207 48.3036 69.7689 49.6458 60.2589Z" stroke="#EEC04A" stroke-width="1.3641"/>
<path d="M39.7445 59.0716C39.3776 56.9818 42.7632 55.4345 44.3326 56.1619C45.2366 56.6598 46.6014 58.2574 46.2781 59.8552C45.7683 62.3739 40.4166 62.8997 39.7445 59.0716Z" stroke="#EEC04A" stroke-width="1.3641"/>
<path d="M72.3621 63.3502C48.1054 68.0346 48.3349 90.004 55.6849 99.8608C62.9727 111.799 79.7615 112.408 87.2449 111.22L72.3621 63.3502Z" fill="#F6D766"/>
<path d="M55.6865 99.8622C48.3365 90.0054 48.411 69.0119 72.3638 63.3517" stroke="#EEC04A" stroke-width="1.3641"/>
<path d="M60.6367 98.68C54.6081 90.5878 54.076 72.8712 73.9596 69.0346" stroke="#EEC04A" stroke-width="1.3641"/>
<path d="M66.4564 95.4382C62.1833 89.5687 61.6844 76.809 75.5595 74.1889" stroke="#EEC04A" stroke-width="1.3641"/>
<path d="M77.3684 80.0052C68.3186 81.7113 68.6501 90.0525 71.4403 93.8914C73.2682 96.0611 78.0803 99.7553 82.7062 97.1743" stroke="#EEC04A" stroke-width="1.3641"/>
<path d="M78.7734 84.5191C74.544 85.2954 74.746 89.3399 76.0744 91.2162C76.9427 92.278 79.2175 94.0953 81.3698 92.8703" stroke="#EEC04A" stroke-width="1.3641"/>
<path d="M17.8249 64.8337C34.7594 59.5688 45.5448 74.2988 45.799 85.8926C46.947 98.0325 36.7113 105.836 31.4239 108.575L17.8249 64.8337Z" fill="#F6D766"/>
<path d="M17.859 64.9389C35.9935 58.9435 46.2633 76.6301 45.8999 86.2198C45.8576 91.7089 43.1608 104.428 32.7111 111.391" stroke="#EEC04A" stroke-width="1.3641"/>
<path d="M19.2985 69.1534C31.2439 64.348 39.0564 74.4192 40.9832 82.317C42.2149 87.3652 40.5108 96.6084 29.9235 103.328" stroke="#EEC04A" stroke-width="1.3641"/>
<path d="M20.5523 73.1771C30.8532 69.9737 34.5767 77.3625 35.8084 82.8101C37.0403 88.2584 33.4656 94.1549 27.7996 96.4879" stroke="#EEC04A" stroke-width="1.3641"/>
<path d="M21.9613 77.717C28.5345 74.8091 32.0127 80.3184 31.9177 84.0213C31.7027 86.2251 30.2437 90.7297 26.1275 91.1175" stroke="#EEC04A" stroke-width="1.3641"/>
<path d="M23.0563 81.2373C26.119 79.8647 27.779 82.5544 27.7552 84.3485C27.6669 85.4154 27.0087 87.5905 25.0828 87.7554" stroke="#EEC04A" stroke-width="1.3641"/>
<path d="M31.9888 103.013C28.6077 83.9367 48.3058 78.6871 59.5704 81.4422C71.5937 83.4755 76.4823 95.3821 77.7592 101.198L31.9888 103.013Z" fill="#F6D766"/>
<path d="M32.118 102.612C29.2311 83.5475 50.7409 78.5948 59.9098 81.4279C65.2009 82.8894 76.7884 88.7862 80.8095 100.682" stroke="#EEC04A" stroke-width="1.3641"/>
<path d="M36.5404 102.707C34.9905 89.9254 46.7406 84.9858 54.8679 85.1686C60.0629 85.2855 68.5501 89.3238 72.3009 101.29" stroke="#EEC04A" stroke-width="1.3641"/>
<path d="M40.7513 102.538C40.3231 91.7589 48.4238 90.0746 54.0046 90.2948C59.5861 90.515 64.3565 95.494 65.1434 101.571" stroke="#EEC04A" stroke-width="1.3641"/>
<path d="M45.5004 102.348C44.3929 95.2466 50.6148 93.3128 54.1669 94.363C56.2399 95.141 60.2134 97.7162 59.5226 101.793" stroke="#EEC04A" stroke-width="1.3641"/>
<path d="M49.1859 102.204C48.6528 98.8904 51.6805 97.9831 53.4073 98.4704C54.415 98.8319 56.3456 100.031 56.0064 101.934" stroke="#EEC04A" stroke-width="1.3641"/>
<path d="M80.7642 90.3783L86.9751 110.356C87.2481 111.234 86.592 112.125 85.6725 112.125L33.5487 112.125C32.9513 112.125 32.4235 111.736 32.2461 111.166L25.4658 89.3569L34.9429 98.0599C35.4889 98.5613 36.3353 98.5349 36.849 98.0004L42.6447 91.9706C43.228 91.3639 44.2162 91.4248 44.7204 92.0987L49.8181 98.9112C50.2034 99.4261 50.8961 99.602 51.4803 99.3332L57.0606 96.7664C57.442 96.5909 57.7214 96.2496 57.818 95.8411L59.3464 89.38C59.5239 88.6296 60.2875 88.1754 61.0316 88.3776L67.9359 90.2536C68.1441 90.3102 68.336 90.4153 68.4957 90.5604L76.5791 97.9066C77.3285 98.5876 78.5324 98.2435 78.8088 97.2694L80.7642 90.3783Z" fill="#F8564B"/>
<path d="M82.0796 94.6117L87.5231 112.121L32.5423 112.121L26.7812 93.5903L36.2276 102.265C36.7857 102.778 37.6544 102.737 38.1623 102.175L43.3059 96.4834C43.8833 95.8446 44.9008 95.8939 45.4137 96.5855L48.4764 100.715C48.6394 100.935 48.7325 101.199 48.7437 101.472L48.8519 104.122C48.8934 105.139 49.9934 105.754 50.8813 105.257L58.4573 101.015C58.7906 100.828 59.0304 100.51 59.1183 100.138L60.6619 93.6134C60.8393 92.863 61.6029 92.4088 62.347 92.611L69.2513 94.487C69.4596 94.5435 69.6514 94.6487 69.8111 94.7938L74.5458 99.0967L77.8945 102.14C78.6439 102.821 79.8479 102.477 80.1243 101.503L82.0796 94.6117Z" fill="#DF4F46"/>
<path fill-rule="evenodd" clip-rule="evenodd" d="M60.11 29.118C61.3346 31.5962 59.9974 34.538 57.3611 35.3576L19.6841 47.0713C16.6024 48.0295 13.368 46.0649 12.9596 42.8595L12.3163 37.8107C10.8422 26.2425 17.8744 15.29 28.9962 11.8323C40.2669 8.32821 52.4162 13.5476 57.6516 24.1427L60.11 29.118Z" fill="#FCFF73"/>
<path fill-rule="evenodd" clip-rule="evenodd" d="M34.8658 38.9669C39.0999 37.0971 44.0713 36.8391 48.7476 38.0346L51.0744 37.3112C45.5719 35.4043 39.4609 35.4465 34.3147 37.7191L34.8658 38.9669Z" fill="#F5EF5E"/>
<path fill-rule="evenodd" clip-rule="evenodd" d="M33.2888 10.9247C31.9496 12.2865 30.8292 13.7489 29.9177 15.2812L30.6373 16.78C32.3119 13.6567 35.4766 10.7317 35.4766 10.7317L33.2888 10.9247Z" fill="#F5EF5E"/>
<path fill-rule="evenodd" clip-rule="evenodd" d="M57.7225 48.6949C61.7852 47.7084 66.4626 44.4991 66.4626 44.4991L65.9978 43.1342C65.9978 43.1342 60.8119 46.4366 57.3629 47.3791L57.7225 48.6949Z" fill="#EEC04A"/>
<path fill-rule="evenodd" clip-rule="evenodd" d="M68.2491 63.9101C68.2983 54.1028 69.1808 53.2651 69.1808 53.2651L69.9909 55.8702C69.9909 55.8702 69.5622 57.7887 69.8782 63.4051L68.2491 63.9101Z" fill="#EEC04A"/>
<path d="M33.4393 23.1525C33.6927 21.9753 34.0685 20.828 34.5732 19.7337C36.1075 16.4067 38.8503 13.5302 43.0541 11.7721L40.8005 11.22C37.1963 13.1381 34.717 15.9244 33.2431 19.1203C32.9884 19.6725 32.7642 20.236 32.5695 20.8085L33.4393 23.1525Z" fill="#F5EF5E"/>
<path d="M34.2304 33.7757L33.4655 35.7992C33.8435 36.6462 34.2754 37.4675 34.7587 38.2539L35.9794 37.4429C35.2774 36.2941 34.6907 35.0613 34.2304 33.7757Z" fill="#F5EF5E"/>
<path d="M63.9947 37.8083L64.6127 39.3824C63.3747 40.8543 61.8625 42.1876 60.0613 43.3209L59.0127 42.2455C61.0563 41.0034 62.7087 39.4918 63.9947 37.8083Z" fill="#393836"/>
<path d="M46.896 13.3881C42.7998 14.3878 40.0837 17.0556 38.6162 20.34C37.157 23.6057 36.9291 27.4778 37.7526 30.9722C38.3175 33.3691 39.3876 35.6286 40.9359 37.4049L42.5066 36.9165C40.9077 35.3002 39.7744 33.0827 39.1968 30.6318C38.4383 27.4137 38.6602 23.8785 39.9708 20.9453C41.2729 18.0309 43.6464 15.7084 47.2478 14.8295C47.8464 14.6834 48.4345 14.5774 49.0108 14.509C47.5932 13.5513 46.9986 13.3634 46.9986 13.3634C46.9644 13.3715 46.9303 13.3797 46.896 13.3881Z" fill="#F5EF5E"/>
<path d="M54.5519 39.8381L53.9656 38.4752C57.7431 36.8504 60.1575 34.5398 61.4952 32.0198L62.2462 33.6708C60.6653 36.1304 58.1424 38.2938 54.5519 39.8381Z" fill="#EEC04A"/>
<path d="M57.2431 28.6382C56.4952 30.1855 55.0774 31.4991 52.7967 32.1023C50.4708 32.7174 48.5747 32.4355 47.169 31.6737C45.7587 30.9093 44.7886 29.6339 44.3604 28.1628C43.5122 25.2488 44.7852 21.4793 49.2778 19.5787C51.4969 18.6399 53.3295 18.8437 54.7124 19.6277C54.5743 19.3024 53.4568 18.1204 52.9153 17.5701C51.6404 17.4231 50.228 17.6246 48.7208 18.2623C43.6116 20.4238 41.922 24.9005 42.988 28.5623C43.5168 30.379 44.7231 31.9739 46.4879 32.9304C48.2574 33.8894 50.5353 34.1789 53.1621 33.4842C55.834 32.7775 57.5953 31.1943 58.5301 29.2602C58.83 28.6396 59.0427 27.9876 59.1742 27.3228L57.8291 24.5431C58.0303 25.9332 57.852 27.3783 57.2431 28.6382Z" fill="#F5EF5E"/>
<path fill-rule="evenodd" clip-rule="evenodd" d="M54.1373 25.7446C54.0872 26.1597 53.8579 26.8109 53.4443 27.3988C53.0239 27.9966 52.4817 28.4343 51.866 28.5585C51.4384 28.6447 50.9623 28.5197 50.4966 28.1729C50.0296 27.8252 49.6185 27.283 49.3686 26.652C48.8736 25.402 49.0486 23.9681 50.4469 23.0668C51.0139 22.7013 51.8738 22.8456 52.7575 23.5348C53.1751 23.8605 53.5368 24.2687 53.786 24.685C54.033 25.0976 54.1405 25.4678 54.1373 25.7446ZM53.6438 22.3982C52.5904 21.5767 51.0173 20.9844 49.666 21.8554C47.5503 23.2191 47.3465 25.4604 48.0286 27.1827C48.3672 28.0378 48.9337 28.8061 49.6358 29.3289C50.3392 29.8527 51.2237 30.1584 52.151 29.9713C53.2542 29.7487 54.0781 29.003 54.6232 28.228C55.1665 27.4556 55.5011 26.5597 55.5736 25.8692L55.5762 25.8443L55.5771 25.8193C55.6001 25.1689 55.3626 24.5125 55.0226 23.9446C54.6776 23.3685 54.1947 22.8279 53.6438 22.3982Z" fill="#F5EF5E"/>
<path fill-rule="evenodd" clip-rule="evenodd" d="M33.0468 25.9851C33.8963 31.0017 33.4361 35.9143 32.0947 39.0103L32.0906 39.0198L32.0868 39.0293C30.3239 43.4604 24.7705 52.1685 15.4517 56.3259C15.4517 56.3259 15.7757 57.6747 15.7782 57.6739C25.6671 53.3677 31.4967 44.1951 33.3505 39.5431C34.823 36.1368 35.2703 30.9453 34.3918 25.7573C33.5565 20.8248 31.5044 15.7862 27.8653 12.219C27.5153 12.3266 26.4687 12.7758 26.4687 12.7758C30.1106 16.0914 32.2077 21.0296 33.0468 25.9851Z" fill="#F5EF5E"/>
<path fill-rule="evenodd" clip-rule="evenodd" d="M27.5935 23.1666C28.8766 26.6089 29.176 30.4084 28.7579 33.5656C28.1483 38.1685 24.0173 45.3072 13.7898 48.3943L14.0398 49.7433C24.8547 46.5336 29.4229 38.9339 30.1102 33.7446C30.5551 30.3849 30.2391 26.3586 28.8717 22.6902C27.7129 19.5814 25.7864 16.7007 22.9005 14.7225C21.7794 15.5091 21.7048 15.5689 21.7048 15.5689C24.5457 17.3569 26.452 20.1043 27.5935 23.1666Z" fill="#F5EF5E"/>
<path fill-rule="evenodd" clip-rule="evenodd" d="M22.5702 23.0924C23.972 25.8606 23.9824 29.2662 23.5612 32.0796C22.8269 36.9845 18.2696 40.9066 12.8124 41.6141C12.8303 41.8619 12.98 42.9671 12.98 42.9671C18.9373 42.1931 24.0686 37.9035 24.9103 32.2816C25.3481 29.3568 25.3768 25.6151 23.7872 22.4762C22.8335 20.5929 21.3205 18.9713 19.057 17.8735C19.0587 17.8739 18.0712 18.9203 18.0712 18.9203C20.3146 19.9008 21.7143 21.4022 22.5702 23.0924Z" fill="#F5EF5E"/>
<path fill-rule="evenodd" clip-rule="evenodd" d="M19.3938 31.607C20.0561 30.0051 20.0953 27.6823 19.1301 25.8216C18.4431 24.4972 17.2241 23.3628 15.2488 22.9141C15.2512 22.9136 15.9913 21.697 15.9913 21.697C18.093 22.2941 19.5128 23.597 20.341 25.1935C21.5108 27.4486 21.4581 30.2095 20.6427 32.1563L20.6333 32.1788L20.6223 32.2006C20.0664 33.2998 18.9674 34.8561 17.4423 35.9946C16.0668 37.0216 14.2994 37.737 12.2742 37.402C12.1869 36.3475 12.1584 35.9882 12.1584 35.9882C13.8633 36.389 15.3745 35.8361 16.6263 34.9016C17.938 33.9222 18.9078 32.5597 19.3938 31.607Z" fill="#F5EF5E"/>
<path fill-rule="evenodd" clip-rule="evenodd" d="M15.2387 30.3614C15.5129 29.6632 15.529 28.6411 15.1302 27.8369C14.935 27.4431 14.645 27.1096 14.2415 26.8792C14.0469 26.7682 13.8168 26.6759 13.5452 26.6145L14.0576 25.3375C14.3688 25.4249 14.6555 25.5449 14.9177 25.6945C15.5832 26.0744 16.0511 26.6232 16.3524 27.2309C16.9425 28.4211 16.9109 29.8649 16.4947 30.8944L16.4858 30.9163L16.4754 30.9376C16.1974 31.508 15.6519 32.3132 14.886 32.9098C14.1825 33.458 13.2396 33.8651 12.1483 33.6679L12.25 32.2946C12.9114 32.4644 13.5112 32.2517 14.0477 31.8338C14.6041 31.4002 15.0258 30.7899 15.2387 30.3614Z" fill="#F5EF5E"/>
<path fill-rule="evenodd" clip-rule="evenodd" d="M17.4575 47.0055C16.3328 47.5263 15.1117 47.9935 13.7885 48.3929L14.0384 49.7418C16.7711 48.9308 19.1049 47.8395 21.0781 46.5776L17.4575 47.0055Z" fill="#EEC04A"/>
<path fill-rule="evenodd" clip-rule="evenodd" d="M29.3919 44.0552C26.5593 48.3705 21.9085 53.4401 15.4479 56.3225C15.4479 56.3225 15.7718 57.6712 15.7744 57.6704C23.3453 54.3736 28.537 48.2243 31.3867 43.4351C31.3862 43.4368 29.3928 44.0542 29.3919 44.0552Z" fill="#EEC04A"/>
<path d="M29.9293 41.8217C29.2829 39.7423 30.4423 37.5333 32.5189 36.8876L40.0391 34.5496C42.1158 33.904 44.3233 35.0663 44.9698 37.1457L49.6521 52.2061C50.2985 54.2855 49.1392 56.4945 47.0625 57.1402L39.5423 59.4782C37.4656 60.1238 35.2581 58.9615 34.6116 56.8821L29.9293 41.8217Z" fill="#624F89"/>
<path fill-rule="evenodd" clip-rule="evenodd" d="M22.6416 48.2184C20.738 48.8103 19.6752 50.8353 20.2678 52.7414C20.8604 54.6475 22.884 55.7129 24.7876 55.1211L33.8746 52.296C35.259 51.8656 36.7307 52.6405 37.1617 54.0267C37.8082 56.1061 40.2246 57.2035 42.7191 56.428C45.5514 55.5474 46.5818 53.3784 45.9353 51.299C45.5043 49.9128 46.2772 48.44 47.6617 48.0096L56.7486 45.1845C58.6522 44.5927 59.715 42.5677 59.1224 40.6616C58.5298 38.7555 56.5062 37.69 54.6026 38.2818L22.6416 48.2184Z" fill="#715AA0"/>
<path d="M43.8603 51.2561C44.2913 52.6423 43.5183 54.1151 42.1339 54.5455C40.7495 54.9759 39.2778 54.201 38.8468 52.8148C38.4158 51.4285 39.1887 49.9558 40.5732 49.5253C41.9576 49.0949 43.4293 49.8698 43.8603 51.2561Z" fill="#9CB5DA"/>
<path d="M16.4108 53.5961C15.7643 51.5167 16.9237 49.3077 19.0004 48.662L20.2537 48.2724C22.3304 47.6267 24.5379 48.789 25.1844 50.8685L25.3795 51.496C26.026 53.5754 24.8666 55.7844 22.7899 56.4301L21.5366 56.8197C19.4599 57.4654 17.2524 56.3031 16.6059 54.2237L16.4108 53.5961Z" fill="#715AA0"/>
<path d="M54.6388 41.7094C53.9923 39.63 55.1517 37.421 57.2284 36.7753L58.4818 36.3857C60.5584 35.74 62.7659 36.9023 63.4124 38.9817L63.6075 39.6092C64.254 41.6887 63.0946 43.8977 61.018 44.5434L59.7646 44.933C57.6879 45.5787 55.4804 44.4163 54.8339 42.3369L54.6388 41.7094Z" fill="#715AA0"/>
<path d="M16.8506 48.3402C16.1435 46.0659 17.5344 43.6116 19.9571 42.8583C22.3799 42.1051 24.9171 43.3382 25.6242 45.6125L28.9164 56.2019C29.6235 58.4762 28.2327 60.9306 25.8099 61.6838C23.3872 62.437 20.8499 61.2039 20.1428 58.9296L16.8506 48.3402Z" fill="white"/>
<path d="M51.3189 37.6249C50.6118 35.3506 52.0026 32.8962 54.4254 32.143C56.8481 31.3898 59.3854 32.6229 60.0925 34.8972L63.3847 45.4865C64.0918 47.7609 62.7009 50.2152 60.2782 50.9685C57.8554 51.7217 55.3182 50.4886 54.6111 48.2142L51.3189 37.6249Z" fill="white"/>
</g>
</svg>
