<?xml version="1.0"?>
<svg xmlns="http://www.w3.org/2000/svg" viewBox="0 0 112 112" fill="none">
<path d="M73.8307 98.308C66.4678 105.506 55.2483 105.798 47.5201 104.223C40.3698 102.766 33.6411 98.3075 38.8303 92.815C45.9708 85.2569 58.1414 85.4207 65.1411 86.6183C73.8307 88.105 78.2965 93.942 73.8307 98.308Z" fill="#EDB629"/>
<path d="M71.6764 95.3075C65.2196 101.992 56.2759 102.072 48.6038 100.8C43.8041 100.004 39.2628 97.2399 39.369 93.7167L39.3696 90.4531L73.2113 88.9688L73.2107 92.0726C73.1516 93.18 72.6621 94.287 71.6764 95.3075Z" fill="#FCDA29"/>
<path d="M71.6711 91.9055C65.2154 97.1559 55.6929 97.1434 48.6023 96.2199C43.4867 95.5536 38.6647 93.13 39.452 90.1006C39.6355 89.3948 40.1235 88.1654 40.9832 87.4083C47.2439 81.8955 57.9149 82.0149 64.0522 82.8885C71.6711 83.9728 75.5867 88.721 71.6711 91.9055Z" fill="#FCDA29"/>
<path fill-rule="evenodd" clip-rule="evenodd" d="M59.7207 99.5163C59.7207 98.7416 60.3113 98.102 61.0712 97.9512C64.2963 97.3114 67.0726 95.581 69.7511 93.5C70.674 92.7831 72.0397 93.4207 72.0397 94.5893C72.0397 94.9965 71.8597 95.3838 71.5447 95.6418C68.3671 98.2436 65.1658 100.251 61.333 100.937C60.4698 101.091 59.7207 100.393 59.7207 99.5163Z" fill="#FFF853"/>
<path d="M65.9664 89.2255C61.6824 92.7061 55.3633 92.6978 50.6581 92.0856C47.4735 91.6712 44.4604 90.2317 44.5309 88.3972L44.5316 85.4184L66.9851 84.279L66.9844 87.5411C66.9452 88.1177 66.6204 88.6941 65.9664 89.2255Z" fill="#FCDA29"/>
<path d="M65.9336 86.1753C61.6537 90.3087 55.3408 90.2989 50.64 89.5718C47.2486 89.0472 44.0518 87.1393 44.5738 84.7544C44.6954 84.1987 44.9674 83.6514 45.5374 83.0554C49.688 78.7154 56.7624 78.8094 60.8311 79.4971C65.8821 80.3508 68.5294 83.6683 65.9336 86.1753Z" fill="#FCDA29"/>
<path fill-rule="evenodd" clip-rule="evenodd" d="M57.2005 91.54C57.1893 90.7615 57.7865 90.1162 58.5507 89.9673C60.5304 89.5815 62.4832 88.7177 64.2282 87.4905C64.9642 86.9729 66.0685 87.4594 66.0771 88.3592C66.0834 89.0299 65.79 89.6742 65.2455 90.0657C63.3205 91.4494 61.0684 92.4665 58.7723 92.9011C57.9382 93.0589 57.2127 92.3888 57.2005 91.54Z" fill="#FFF853"/>
<path d="M60.828 82.7424C58.6752 85.0153 55.4998 85.0099 53.1353 84.6101C51.4294 84.3216 49.8214 83.2725 50.0839 81.9611C50.1451 81.6555 50.282 81.3546 50.5687 81.0268C52.6564 78.6404 56.2148 78.6921 58.2614 79.0702C60.8021 79.5396 62.1337 81.3638 60.828 82.7424Z" fill="#EDB629"/>
<path d="M59.3086 68.945C59.3086 66.9736 57.7105 65.3755 55.7391 65.3755C53.7677 65.3755 52.1695 66.9736 52.1695 68.945L52.1695 82.2033H59.3086L59.3086 68.945Z" fill="#EDB629"/>
<path fill-rule="evenodd" clip-rule="evenodd" d="M32.2495 28.8343C33.6576 28.8343 35.0548 31.5063 35.0548 32.9145C35.0548 34.3226 34.4088 36.2304 33.0006 36.2304L22.8983 31.776C22.8983 39.6604 26.6466 47.7437 33.541 52.5895C34.5006 53.2639 35.3198 54.1445 35.689 55.2578C36.5109 57.7362 37.416 61.9165 33.5244 60.4549C34.2488 53.9337 17.5364 54.9846 17.0321 28.1196C16.9876 25.7456 19.3451 24.1208 21.5898 24.8948C26.3254 26.5276 33.0129 28.8725 32.2495 28.8343Z" fill="#E2AC25"/>
<path d="M31.4863 54.5903C36.5857 56.885 35.8208 63.5142 31.4863 61.4744" stroke="#E2AC25" stroke-width="2.54967" stroke-linecap="round"/>
<path d="M32.2442 55.4159L45.1474 46.8605L43.2144 13.8828L28.5072 21.0601L32.2442 55.4159Z" fill="#C58B1A"/>
<path d="M37.884 52.1563L49.4623 47.4035L46.6183 11.5581L31.9468 17.7162L37.884 52.1563Z" fill="#C58B1A"/>
<path d="M74.9209 68.031L63.1219 72.6372L68.3707 11.1832L82.8457 18.3282L74.9209 68.031Z" fill="#C5811A"/>
<path d="M45.6035 11.7778L71.7283 12.5223L64.5805 59.2621H49.4397L45.6035 11.7778Z" fill="#C58B1A"/>
<path d="M28.1328 27.3165C28.012 26.4705 28.8513 25.8103 29.6451 26.1269L37.7989 29.3793C40.0461 30.2757 42.4372 30.7571 44.8561 30.8001L63.0297 31.1233C67.2874 31.199 71.4581 29.9144 74.9354 27.4562L82.4604 22.1366C82.8598 21.8542 83.403 22.1884 83.3309 22.6723L77.324 63.0077C76.9059 65.8153 75.5794 68.4085 73.5475 70.3906C69.7313 74.113 64.7107 76.3493 59.3911 76.6962L54.4109 77.021C47.9073 77.4452 41.5371 75.0422 36.9338 70.4285C34.9304 68.4206 33.631 65.8179 33.23 63.0099L28.1328 27.3165Z" fill="#FCCE29"/>
<path d="M84.499 21.5786L76.799 26.9224L73.4364 68.399C73.3859 69.0209 74.2447 69.3147 74.5998 68.8016C74.6136 68.7816 74.6276 68.7615 74.6416 68.7413C76.0022 66.7798 77.0133 64.5826 77.4227 62.2307L84.499 21.5786Z" fill="#FFDD2D"/>
<path d="M28.3887 18.605L34.6043 15.9331L37.9669 57.4096C38.0174 58.0316 37.8509 59.3692 37.5061 58.8491C36.1806 56.8497 34.3918 53.5862 33.9861 51.2218L28.3887 18.605Z" fill="#C5811A"/>
<path d="M74.1612 17.8067C74.6114 14.3928 72.0644 11.3163 68.6264 11.1213L55.0122 10.3489C51.6586 10.1587 48.8186 12.7933 48.757 16.1517L47.8272 66.8232C47.7432 71.3998 51.1412 75.4885 55.4334 73.8981C57.9377 72.9702 60.3705 71.5169 62.6008 69.8942C66.1838 67.2874 68.1871 63.11 68.7664 58.7171L74.1612 17.8067Z" fill="#E29520"/>
<path d="M33.6081 14.2768L51.8395 8.81039L53.6352 67.3579C53.7146 69.948 51.667 72.0557 49.179 71.3315C47.4787 70.8366 45.4642 69.9928 43.4164 68.557C40.9617 66.836 39.7667 63.9154 39.3976 60.9404L33.6081 14.2768Z" fill="#F1AA21"/>
<path d="M36.5625 37.0323C36.1648 33.429 39.0695 30.3177 42.6916 30.467L58.455 31.1171C61.8118 31.2555 64.381 34.1561 64.1131 37.5051L61.6267 68.5845C61.2819 72.8946 58.0849 76.6012 53.7711 76.8965C51.5844 77.0462 49.5459 76.9848 47.599 76.5873C42.6568 75.5782 40.2458 70.4108 39.6925 65.3972L36.5625 37.0323Z" fill="#FFEA2C"/>
<path d="M27.4443 24.4941L36.4063 33.7438L40.192 69.9777C40.3446 71.4384 38.8267 72.3382 37.7543 71.3347C36.0436 69.7339 34.069 67.3227 33.4376 64.3245L27.4443 24.4941Z" fill="#FCBF29"/>
<path d="M80.9365 23.6528L64.3112 32.8548L61.1999 71.2301C60.9634 74.1473 63.4187 76.4575 66.1052 75.2963C67.5764 74.6604 69.2156 73.7598 70.8398 72.4876C72.9693 70.8197 74.0493 68.2151 74.4625 65.542L80.9365 23.6528Z" fill="#FFF853"/>
<path fill-rule="evenodd" clip-rule="evenodd" d="M76.7233 30.8774C75.3152 30.8774 73.918 33.5494 73.918 34.9576C73.918 36.3657 74.564 38.2735 75.9722 38.2735L85.902 40.736C85.902 48.5494 83.7182 53.3298 75.9166 57.6365C74.6542 58.3334 73.6222 59.4191 73.2369 60.8088C72.4687 63.5794 71.7623 67.8033 75.4484 65.5551C74.7097 58.9049 92.9799 61.4656 92.1795 36.8176C92.1275 35.217 90.9376 33.8974 89.3658 33.5901C84.7583 32.6894 75.8526 30.921 76.7233 30.8774Z" fill="#FCC329"/>
<path d="M77.4844 59.6919C72.385 61.9866 73.1499 68.6157 77.4844 66.576" stroke="#FCC329" stroke-width="2.54967" stroke-linecap="round"/>
<path d="M81.1272 25.268C70.2341 34.3944 53.6355 34.7637 42.2019 32.7673C31.6234 30.9203 21.6687 25.2674 29.3458 18.3037C39.9098 8.72119 57.9156 8.92877 68.2714 10.4471C81.1272 12.3321 87.7342 19.7326 81.1272 25.268Z" stroke="#FCDA29" stroke-width="6.11411"/>
<path d="M83.6737 22.3636C83.9538 24.2153 83.1747 26.1071 81.1299 27.8203C70.2368 36.9467 53.6381 37.316 42.2045 35.3197C33.4911 33.7983 25.2009 29.6947 26.8388 24.4033" stroke="#FCDA29" stroke-width="6.11411" stroke-linecap="round"/>
<path d="M55.1429 33.2337C63.7203 33.096 72.0735 31.0491 79.1088 26.1437" stroke="#FFF734" stroke-width="5.09934" stroke-linecap="round"/>
</svg>
