<?xml version="1.0"?>
<svg xmlns="http://www.w3.org/2000/svg" viewBox="0 0 112 112" fill="none">
<path d="M16.3001 32.752C16.1496 31.9933 16.4784 31.2103 17.1733 30.8706C19.9305 29.523 23.3593 28.9837 25.3253 28.7744C26.238 28.6773 27.0415 29.3112 27.2187 30.2117L28.0019 34.1905C28.2009 35.2016 27.5426 36.1826 26.5315 36.3816L19.2057 37.8236C18.1957 38.0224 17.2155 37.3657 17.0151 36.3559L16.3001 32.752Z" fill="#2E286D"/>
<path d="M77.9532 20.4371C77.7833 19.6924 77.177 19.1152 76.414 19.0793C73.3265 18.934 69.957 19.8528 68.0753 20.4726C67.208 20.7582 66.7388 21.6607 66.9432 22.5507L67.9254 26.8273C68.1561 27.8317 69.1572 28.4589 70.1616 28.2282L77.4384 26.557C78.4418 26.3266 79.0689 25.3271 78.8399 24.3234L77.9532 20.4371Z" fill="#2E286D"/>
<path fill-rule="evenodd" clip-rule="evenodd" d="M70.9233 27.425L71.3444 27.3456C78.2866 26.0367 85.2682 29.422 88.5398 35.6833L100.644 58.8489C104.682 66.5779 100.2 76.0233 91.6584 77.7822C88.3882 78.4557 84.995 77.4951 82.563 75.2076L71.961 65.2351C71.8688 65.1484 71.7751 65.0637 71.6799 64.9812C70.9904 64.3834 70.028 64.3029 69.131 64.471C68.4122 64.6057 67.6619 64.6833 66.8893 64.6966C65.1664 64.7262 63.5354 64.4329 62.102 63.8913C61.4383 63.6405 60.7196 63.5374 60.0262 63.6881L49.2925 66.021C48.7424 66.1406 48.2409 66.4138 47.8006 66.7644C46.5444 67.7646 44.987 68.5755 43.2196 69.0795C42.6254 69.249 42.032 69.3767 41.4449 69.4647C40.668 69.5811 39.9084 69.8908 39.4402 70.5217C39.003 71.1109 38.6323 71.7557 38.3402 72.4463L33.7338 83.3344C32.0885 87.2235 28.6352 90.0542 24.4989 90.9044C16.1487 92.6207 8.47702 85.8686 9.11894 77.3681L11.0859 51.3207C11.63 44.116 16.922 38.1634 24.0135 36.7795L24.7079 36.6439C24.7709 36.6309 24.8341 36.6181 24.8974 36.6058L31.3432 35.3479C31.6479 35.2884 31.9544 35.3248 32.2266 35.4405C32.3964 35.5123 32.5529 35.615 32.6873 35.7443C32.8802 35.9299 33.1359 36.0657 33.3994 36.0191C33.7347 35.9597 33.9451 35.6279 34.0719 35.3119C34.2141 34.9575 34.5284 34.6818 34.9294 34.6052L62.0347 29.4305C62.2028 29.3984 62.3675 29.4194 62.5126 29.4809C62.5585 29.5002 62.6024 29.5236 62.6439 29.5506C62.9712 29.7638 63.3816 30.0744 63.7527 29.9523C64.0097 29.8677 64.1631 29.6136 64.2449 29.3556C64.3809 28.9263 64.7432 28.5891 65.2089 28.5012L70.7342 27.4595C70.7973 27.4476 70.8603 27.4361 70.9233 27.425Z" fill="#41359C"/>
<path d="M7.77277 48.1374C7.85681 40.5274 13.2748 34.0232 20.7443 32.5652L29.0779 30.9385C29.7668 30.804 30.4646 31.1246 30.8112 31.735L31.9519 31.5326C31.8551 30.8776 32.2919 30.2627 32.9422 30.1385L62.6188 24.4685C63.1417 24.3686 63.633 24.7518 63.6635 25.2832L64.9446 24.8658C64.9069 24.1927 65.3741 23.5959 66.0366 23.4708L73.4225 22.0768C80.5685 20.728 87.7282 24.3535 90.8702 30.9118L102.621 55.4382C106.424 63.3765 100.782 72.5978 91.9828 72.8257C88.8755 72.9062 85.8556 71.7922 83.545 69.7131L73.7379 60.8885C71.5049 58.8793 68.4412 58.0681 65.5066 58.7091L42.0931 63.8233C39.1992 64.4554 36.7774 66.4242 35.5678 69.1281L30.7637 79.867C29.4499 82.804 27.0268 85.1014 24.024 86.2571C15.9965 89.3466 7.38379 83.3626 7.47877 74.7616L7.77277 48.1374Z" fill="#5F50D1"/>
<circle cx="21.823" cy="47.9338" r="10.1878" transform="rotate(-3.41808 21.823 47.9338)" fill="#7260FA"/>
<path d="M89.4145 36.0457C89.75 41.6622 85.4688 46.4873 79.8522 46.8227C74.2357 47.1582 69.4106 42.877 69.0752 37.2605C68.7397 31.6439 73.0209 26.8189 78.6374 26.4834C84.254 26.1479 89.079 30.4291 89.4145 36.0457Z" fill="#7260FA"/>
<path d="M48.1674 56.2934C49.122 58.2766 49.0018 60.5141 48.0379 62.4627C47.505 63.5403 47.5355 65.0024 47.6258 65.9125C47.6799 66.4572 47.5911 67.0295 47.1918 67.4042C45.3697 69.1139 41.5674 69.8095 40.5835 69.5379C39.667 69.2849 39.0655 68.7667 38.4377 68.1594C37.5647 67.3149 36.434 66.8042 35.4251 66.1251C34.4257 65.4523 33.5597 64.4745 33.0205 63.3543C31.2428 59.6613 33.1925 55.0868 37.3752 53.137C41.5579 51.1872 46.3897 52.6003 48.1674 56.2934Z" fill="#5042B5"/>
<ellipse rx="6.82422" ry="6.32251" transform="matrix(0.906357 -0.422512 0.433725 0.901046 39.9225 58.2081)" fill="#6F5FEC"/>
<ellipse rx="5.4683" ry="5.06627" transform="matrix(0.906277 -0.422683 0.433908 0.900957 39.8631 58.0564)" fill="#2E286D"/>
<ellipse rx="4.47778" ry="4.14857" transform="matrix(0.906277 -0.422683 0.433908 0.900957 39.0438 56.8479)" fill="#3E3881"/>
<path d="M58.2902 54.3802C58.1041 56.5733 59.013 58.6214 60.6074 60.0993C61.489 60.9165 61.981 62.2937 62.2205 63.1763C62.3639 63.7047 62.6506 64.2079 63.1572 64.4158C65.4686 65.3649 69.2694 64.6614 70.0921 64.0573C70.8585 63.4946 71.2362 62.7963 71.6067 62.0052C72.1218 60.9054 72.9966 60.0255 73.6977 59.0317C74.3922 58.0473 74.8533 56.8253 74.9584 55.5865C75.305 51.5026 71.8546 47.9218 67.2518 47.5887C62.649 47.2556 58.6368 50.2962 58.2902 54.3802Z" fill="#5042B5"/>
<ellipse rx="6.82422" ry="6.32251" transform="matrix(-0.997391 -0.0721858 -0.0845543 0.996419 66.6775 53.2345)" fill="#6F5FEC"/>
<ellipse rx="5.4683" ry="5.06627" transform="matrix(-0.997378 -0.0723737 -0.0847571 0.996402 66.6801 53.0712)" fill="#2E286D"/>
<ellipse rx="4.42407" ry="4.09882" transform="matrix(-0.997378 -0.0723737 -0.0847571 0.996402 66.3065 51.7317)" fill="#3E3881"/>
<path d="M31.9313 31.41C31.8198 30.8438 32.1885 30.2944 32.7547 30.183L62.5361 24.3208C63.1024 24.2093 63.6517 24.578 63.7632 25.1442L66.6605 39.8636C67.0586 41.8858 65.7419 43.8478 63.7197 44.2458L39.2109 49.0701C37.1887 49.4682 35.2267 48.1516 34.8286 46.1293L31.9313 31.41Z" fill="#3F3387"/>
<circle cx="53.2466" cy="56.3169" r="3.09065" transform="rotate(-11.1357 53.2466 56.3169)" fill="#2E286D"/>
<circle cx="53.1336" cy="55.7402" r="2.50385" transform="rotate(-11.1357 53.1336 55.7402)" fill="#3E3881"/>
<path d="M76.2163 37.5104C76.5347 39.1282 75.4814 40.6978 73.8636 41.0162C72.2459 41.3347 70.6763 40.2814 70.3578 38.6636C70.0394 37.0458 71.0927 35.4762 72.7105 35.1578C74.3282 34.8393 75.8978 35.8927 76.2163 37.5104Z" fill="#B53B51"/>
<circle cx="72.9401" cy="37.2996" r="2.14363" transform="rotate(-11.1357 72.9401 37.2996)" fill="#E2506A"/>
<path d="M87.9126 35.2487C88.231 36.8665 87.1777 38.4361 85.5599 38.7545C83.9422 39.073 82.3726 38.0196 82.0541 36.4019C81.7357 34.7841 82.789 33.2145 84.4068 32.8961C86.0245 32.5776 87.5941 33.6309 87.9126 35.2487Z" fill="#329E57"/>
<circle cx="84.6566" cy="34.9943" r="2.18993" transform="rotate(-11.1357 84.6566 34.9943)" fill="#42BE65"/>
<path d="M79.5807 39.2832C81.1985 38.9648 82.7681 40.0181 83.0865 41.6359C83.405 43.2536 82.3517 44.8232 80.7339 45.1417C79.1161 45.4601 77.5465 44.4068 77.2281 42.789C76.9097 41.1713 77.963 39.6017 79.5807 39.2832Z" fill="#3754BE"/>
<circle cx="79.914" cy="41.5121" r="2.24047" transform="rotate(-101.136 79.914 41.5121)" fill="#5E81FF"/>
<path d="M77.3151 28.0816C78.9329 27.7631 80.5025 28.8164 80.8209 30.4342C81.1394 32.052 80.0861 33.6216 78.4683 33.94C76.8505 34.2585 75.2809 33.2051 74.9625 31.5874C74.644 29.9696 75.6973 28.4 77.3151 28.0816Z" fill="#FF8A1D"/>
<circle cx="77.6408" cy="30.2916" r="2.24814" transform="rotate(-101.136 77.6408 30.2916)" fill="#FFB526"/>
<path d="M17.944 40.952C17.8643 40.5476 18.1277 40.1552 18.5321 40.0756L21.8275 39.4269C22.2319 39.3473 22.6243 39.6106 22.7039 40.0151L23.3713 43.4054C23.4079 43.5911 23.3725 43.7838 23.2723 43.9445L21.9715 46.0309C21.743 46.3973 21.2521 46.494 20.9017 46.2414L18.9072 44.8037C18.7536 44.693 18.6479 44.5281 18.6113 44.3424L17.944 40.952Z" fill="#D2DAFF"/>
<path d="M20.8256 55.5948C20.9052 55.9993 21.2976 56.2626 21.702 56.183L24.9974 55.5343C25.4019 55.4547 25.6652 55.0623 25.5856 54.6579L24.9182 51.2675C24.8817 51.0818 24.7759 50.9169 24.6223 50.8062L22.6278 49.3685C22.2775 49.1159 21.7865 49.2126 21.558 49.5791L20.2572 51.6655C20.157 51.8261 20.1217 52.0188 20.1582 52.2045L20.8256 55.5948Z" fill="#D2DAFF"/>
<path d="M15.1298 51.7724C14.7253 51.852 14.3329 51.5886 14.2533 51.1842L13.5326 47.5227C13.453 47.1182 13.7163 46.7258 14.1207 46.6462L17.4953 45.982C17.6904 45.9436 17.8928 45.9846 18.0575 46.096L20.2359 47.5689C20.5757 47.7986 20.6664 48.2595 20.439 48.6009L18.9814 50.7895C18.8711 50.955 18.6994 51.0697 18.5043 51.1081L15.1298 51.7724Z" fill="#D2DAFF"/>
<path d="M29.4083 48.9625C29.8128 48.8829 30.0761 48.4905 29.9965 48.0861L29.2757 44.4245C29.1961 44.0201 28.8037 43.7568 28.3993 43.8364L25.0247 44.5006C24.8296 44.539 24.6579 44.6537 24.5477 44.8192L23.09 47.0078C22.8627 47.3492 22.9534 47.8101 23.2932 48.0398L25.4716 49.5127C25.6363 49.6241 25.8387 49.6652 26.0338 49.6268L29.4083 48.9625Z" fill="#D2DAFF"/>
<path d="M34.0645 82.0411L31.8867 77.382C29.0672 82.7831 26.1745 84.9931 20.9205 85.439C13.174 86.0966 7.48658 79.1603 7.5365 71.5792C5.76993 94.7124 26.609 104.448 34.0645 82.0411Z" fill="#41359C"/>
<path d="M80.4944 72.9885L81.648 68.0287C86.605 72.1831 91.3946 72.9856 96.306 71.0668C103.968 68.0734 104.472 59.6186 101.082 52.838C113.566 75.2758 96.8225 91.5425 80.4944 72.9885Z" fill="#41359C"/>
</svg>
