<?xml version="1.0"?>
<svg xmlns="http://www.w3.org/2000/svg" viewBox="0 0 112 112" fill="none">
<path d="M71.5412 93.1181C71.0437 95.7261 70.7949 97.0301 70.2347 98.0789C69.1023 100.199 67.0328 101.839 64.6679 102.491C63.4978 102.813 62.1328 102.788 59.4027 102.738L33.7956 102.424C31.0655 102.374 29.7005 102.349 28.6612 101.986C26.5607 101.252 24.2215 99.3758 23.903 97.2296C23.7453 96.1677 23.9941 94.8636 24.4916 92.2556L38.3912 19.3925C38.8888 16.7844 39.1375 15.4804 39.6978 14.4316C40.8301 12.312 42.8996 10.6719 45.2645 10.0198C46.4346 9.69712 47.7997 9.72214 50.5298 9.77218L77.0445 10.2582C79.7746 10.3083 81.1396 10.3333 82.1789 10.6964C84.2794 11.4304 85.7109 13.1347 86.0295 15.2809C86.1871 16.3429 85.9383 17.6469 85.4408 20.2549L71.5412 93.1181Z" fill="#3B3B75"/>
<path d="M68.9636 91.0072C68.5159 93.3542 68.292 94.5277 67.7968 95.4717C66.7958 97.3795 64.977 98.8563 62.9043 99.4441C61.8787 99.735 60.6843 99.7131 58.2953 99.6693L32.7324 99.2007C30.3435 99.1569 29.149 99.135 28.2412 98.8087C26.4064 98.1492 25.1617 96.6163 24.8931 94.6852C24.7602 93.7297 24.984 92.5562 25.4318 90.2092L39.0628 18.7542C39.5105 16.4072 39.7344 15.2337 40.2296 14.2897C41.2306 12.3819 43.0494 10.9051 45.1221 10.3173C46.1476 10.0264 47.3421 10.0483 49.7311 10.0921L75.294 10.5607C77.6829 10.6045 78.8774 10.6264 79.7852 10.9527C81.62 11.6121 82.8646 13.1451 83.1333 15.0762C83.2662 16.0316 83.0423 17.2051 82.5946 19.5522L68.9636 91.0072Z" fill="#30306D"/>
<path d="M51.0931 12.6512L51.1836 12.1784C51.2446 11.8593 51.0307 11.5956 50.7058 11.5895L49.3282 11.5636C47.1745 11.5232 46.0977 11.5029 45.1779 11.8056C43.7322 12.2814 42.4664 13.3081 41.7027 14.6247C41.2169 15.4623 41.0146 16.5201 40.61 18.6358L26.8916 90.3747C26.487 92.4904 26.2848 93.5483 26.4479 94.3981C26.7044 95.7337 27.5698 96.8006 28.8239 97.327C29.6218 97.6619 30.6986 97.6822 32.8523 97.7226L58.7102 98.2082C60.8638 98.2486 61.9407 98.2688 62.8605 97.9661C64.3062 97.4904 65.5719 96.4636 66.3356 95.1471C66.8214 94.3095 67.0237 93.2516 67.4283 91.1359L81.1467 19.397C81.5513 17.2813 81.7536 16.2235 81.5904 15.3737C81.3339 14.038 80.4685 12.9712 79.2144 12.4448C78.4166 12.1098 77.3397 12.0896 75.1861 12.0492L73.8084 12.0233C73.4835 12.0172 73.1707 12.271 73.1097 12.5901L73.0192 13.063L73.0116 13.0626L73.0092 13.1155C72.7707 14.3631 71.5477 15.3552 70.2777 15.3314L52.9506 15.006C51.6806 14.9822 50.8445 13.9514 51.0831 12.7038L51.1008 12.6511L51.0931 12.6512Z" fill="#C350F9"/>
<path d="M42.3418 11.3388L44.4465 10.5735C44.8516 10.4262 45.2806 10.3559 45.7115 10.3662L74.9539 11.0681C75.5033 11.0812 75.9418 11.5304 75.9418 12.08L74.1655 12.0326C73.0591 12.003 72.0447 12.6452 71.5981 13.6579C71.2348 14.4816 70.4194 15.0132 69.5192 15.0132L52.6051 15.0132C51.444 15.0132 50.6238 13.8761 50.99 12.7743C51.1687 12.237 50.7825 11.6783 50.2167 11.6555L42.3418 11.3388Z" fill="#30306D"/>
<path fill-rule="evenodd" clip-rule="evenodd" d="M57.1987 12.7951C57.2626 12.4388 57.6079 12.1521 57.9699 12.1547L65.4658 12.2097C65.8278 12.2123 66.0695 12.5034 66.0056 12.8597C65.9416 13.2161 65.5963 13.5028 65.2343 13.5001L57.7385 13.4451C57.3764 13.4425 57.1348 13.1515 57.1987 12.7951Z" fill="#27275C"/>
<path opacity="0.5" d="M35.1788 97.5625L34.4376 93.486M26.5317 90.6448L32.7314 89.5759C33.2658 89.4838 33.7746 89.8395 33.8716 90.373L34.4376 93.486M34.4376 93.486L40.9098 87.6801M50.0023 87.6801L43.3427 86.0726C43.0265 85.9963 42.693 86.0804 42.4509 86.2976L40.9098 87.6801M50.0023 87.6801L49.3009 93.9929C49.2752 94.224 49.3319 94.4567 49.4609 94.6502L51.7318 98.0566L55.4427 93.4179C55.5983 93.2234 55.8215 93.0949 56.0678 93.0579L60.3916 92.4094C60.5456 92.3863 60.7029 92.3999 60.8507 92.4491L66.5553 94.3507M50.0023 87.6801L54.655 84.5784C54.9805 84.3613 55.4036 84.3568 55.7337 84.5669L57.9082 85.9507M57.9082 85.9507L60.2822 87.4614C60.5023 87.6015 60.769 87.6488 61.0239 87.593L68.5318 85.9507M57.9082 85.9507L62.5538 79.4469C62.7393 79.1872 63.0388 79.033 63.358 79.033H68.3695C69.2499 79.033 69.6908 77.9686 69.0683 77.346L66.7757 75.0534C66.6323 74.91 66.5364 74.7258 66.5012 74.526L65.6251 69.5509C65.556 69.1588 65.729 68.7635 66.0639 68.5482L72.4287 64.4565M40.9098 87.6801L35.9128 81.6484C35.5267 81.1824 35.6464 80.4819 36.1653 80.1705L39.5023 78.1683M43.8259 75.5742L39.5023 78.1683M39.5023 78.1683L38.211 68.1901C38.1688 67.8639 37.9671 67.5801 37.6729 67.433L31.72 64.4565" stroke="white" stroke-width="1.48235" stroke-linecap="round" stroke-linejoin="round"/>
<path opacity="0.4" d="M71.2874 18.7852L52.4895 18.4103C49.0323 18.3414 46.7809 22.0213 48.4161 25.068L65.2371 56.4082C66.2416 58.2797 69.0389 57.858 69.447 55.7735L75.6338 24.1736C76.1734 21.4173 74.0955 18.8412 71.2874 18.7852Z" fill="white"/>
</svg>
