<?xml version="1.0"?>
<svg xmlns="http://www.w3.org/2000/svg" viewBox="0 0 112 112" fill="none">
<path d="M54.3689 66.4208C54.3689 66.4208 89.7343 46.388 83.5506 33.6058C69.2477 19.09 48.1785 19.8142 39.3782 24.1414C21.8577 35.5185 54.3689 66.4208 54.3689 66.4208Z" fill="#2A2B41" stroke="#49516B" stroke-width="2.92512" stroke-linejoin="round"/>
<rect x="54.498" y="27.812" width="12.9301" height="8.31218" rx="0.923576" transform="rotate(8.69046 54.498 27.812)" fill="#363750"/>
<rect x="55.5889" y="29.8491" width="10.1593" height="1.38536" rx="0.692682" transform="rotate(8.69046 55.5889 29.8491)" fill="#41425B"/>
<rect x="57.9072" y="33.0049" width="5.07967" height="1.38536" rx="0.692682" transform="rotate(8.69046 57.9072 33.0049)" fill="#41425B"/>
<path d="M83.622 33.124C78.2409 26.3833 69.5006 23.318 61.4043 21.9912" stroke="#3B425D" stroke-width="2.92512" stroke-linejoin="round"/>
<path d="M60.6965 19.5794L29.4948 30.8502C25.6517 32.2384 26.1992 37.8371 30.2384 38.4545L86.5794 47.0663C90.5788 47.6776 92.7937 42.5874 89.6204 40.0776L64.4811 20.195C63.4111 19.3488 61.9796 19.1159 60.6965 19.5794Z" stroke="#B72222" stroke-width="2.62802" stroke-linejoin="round"/>
<path d="M62.7842 19.0057L48.9817 23.8902L74.4973 27.7903L62.7842 19.0057Z" fill="#B72222"/>
<path d="M62.3671 20.7249L57.904 22.315C57.452 22.4761 57.5149 23.134 57.9892 23.2065L66.2366 24.4672C66.7108 24.5396 66.9674 23.9305 66.5842 23.6418L62.7999 20.7911C62.6759 20.6977 62.5133 20.6728 62.3671 20.7249Z" fill="#962222"/>
<path d="M62.947 18.7997L63.5611 14.7818C74.2406 10.6592 65.7705 0.318515 59.6323 7.60335" stroke="#B72222" stroke-width="2.62802" stroke-linecap="round" stroke-linejoin="round"/>
<path d="M23.5395 93.7281C23.3775 94.8767 23.9038 96.0202 24.9202 96.579C40.2458 105.005 67.2499 106.58 75.9322 104.395C76.8949 104.153 77.5322 103.322 77.6863 102.341C78.631 96.3288 82.0753 74.334 83.8743 61.8611C83.9514 61.3261 83.8344 60.7953 83.6204 60.299C81.2793 54.8719 85.0363 46.7884 86.4205 44.5644L90.1535 39.9088C90.863 39.024 90.6706 37.7227 89.7355 37.081L84.9955 33.8282L55.5895 59.1924L38.3941 37.2235L37.7827 24.8851L30.95 27.1794C29.9702 27.5084 29.4173 28.5447 29.6895 29.5417L31.734 37.0294C32.0027 38.1791 32.3407 49.309 30.0614 52.796C29.6361 53.4467 29.1285 54.1106 29.0199 54.8803L23.5395 93.7281Z" fill="#323349"/>
<path d="M45.9501 71.8192L40.7932 71.031C40.4832 70.9836 40.1761 71.1322 40.0208 71.4046L35.2883 79.7058C35.0252 80.1673 35.3066 80.7493 35.8318 80.8295L38.0164 81.1634C38.5512 81.2452 38.8303 81.8452 38.5482 82.3069L36.1118 86.295C35.6896 86.9859 36.5003 87.7681 37.1757 87.3215L47.8911 80.2365C48.4691 79.8543 48.2728 78.9608 47.5878 78.8561L44.005 78.3085C43.4462 78.2231 43.1746 77.5778 43.504 77.1185L46.4511 73.0092C46.7805 72.5499 46.5088 71.9046 45.9501 71.8192Z" fill="#EBEE48"/>
<path d="M59.1594 70.5676L65.1816 50.5279" stroke="#838FBC" stroke-width="1.62344"/>
<path d="M34.1974 44.0547C33.8194 43.8146 33.3182 43.9264 33.0781 44.3045C32.838 44.6826 32.9499 45.1837 33.3279 45.4238L34.1974 44.0547ZM52.0753 103.483C51.9906 103.923 52.2786 104.348 52.7183 104.433C53.1581 104.517 53.5833 104.229 53.6679 103.789L52.0753 103.483ZM33.7627 44.7393C33.3279 45.4238 33.328 45.4238 33.328 45.4239C33.3281 45.4239 33.3282 45.424 33.3284 45.4241C33.3288 45.4244 33.3294 45.4248 33.3303 45.4253C33.3319 45.4264 33.3345 45.428 33.338 45.4302C33.3449 45.4346 33.3554 45.4413 33.3693 45.4501C33.3971 45.4679 33.4388 45.4946 33.4937 45.5298C33.6034 45.6002 33.7658 45.7048 33.9757 45.841C34.3954 46.1133 35.0046 46.5119 35.7611 47.0156C37.2743 48.0231 39.3752 49.4504 41.725 51.1289C46.435 54.4933 52.1066 58.8395 56.0596 62.8259L57.2113 61.6839C53.157 57.5954 47.3923 53.1839 42.6677 49.8091C40.3003 48.1181 38.1843 46.6805 36.66 45.6656C35.8977 45.158 35.2831 44.7559 34.8585 44.4804C34.6462 44.3427 34.4815 44.2366 34.3695 44.1647C34.3136 44.1288 34.2708 44.1015 34.2419 44.083C34.2274 44.0738 34.2165 44.0668 34.209 44.0621C34.2053 44.0597 34.2025 44.0579 34.2005 44.0567C34.1996 44.0561 34.1988 44.0556 34.1983 44.0553C34.1981 44.0551 34.1978 44.055 34.1977 44.0549C34.1975 44.0548 34.1974 44.0547 33.7627 44.7393ZM58.2673 71.3072L52.0753 103.483L53.6679 103.789L59.86 71.6136L58.2673 71.3072ZM56.0596 62.8259C58.2092 64.9936 58.8696 68.1776 58.2673 71.3072L59.86 71.6136C60.5368 68.0966 59.8276 64.3223 57.2113 61.6839L56.0596 62.8259Z" fill="#A1B1E7"/>
<path d="M90.0967 40.7719C90.1906 41.2319 90.1664 41.7083 90.0261 42.1564C89.8858 42.6045 89.6342 43.0097 89.2947 43.3341C88.9551 43.6585 88.5389 43.8914 88.0849 44.0111L79.335 44.7037C79.1247 44.7601 78.9324 44.8698 78.7768 45.0221C78.6211 45.1745 78.5074 45.3644 78.4466 45.5735C78.3857 45.7826 78.3798 46.0038 78.4293 46.2159C78.4789 46.428 78.5823 46.6237 78.7295 46.7841L79.8781 48.0422C80.0267 48.205 80.1303 48.4037 80.1789 48.6186C80.2275 48.8336 80.2194 49.0575 80.1553 49.2683C80.0913 49.4792 79.9735 49.6698 79.8135 49.8214C79.6536 49.973 79.457 50.0804 79.243 50.1331L56.4454 59.5967C55.1897 59.9084 54.4018 58.3148 55.4096 57.5258L79.2827 36.9108C81.3255 35.1468 81.3064 31.9741 79.2425 30.2348L76.7414 28.1271C76.7414 28.1271 77.9997 26.3457 81.7648 29.1412C85.5298 31.9367 89.6874 38.7682 90.0967 40.7719Z" fill="#3B425E"/>
<path d="M43.0248 21.246C38.6459 21.9303 30.4916 27.5715 28.2319 31.586C28.0016 31.9953 27.8788 32.4563 27.8752 32.9259C27.8715 33.3955 27.9871 33.8583 28.211 34.2711C28.435 34.6839 28.76 35.0331 29.1557 35.286L35.0915 38.8858C35.2752 39.0039 35.4253 39.1673 35.5274 39.3602C35.6294 39.5532 35.68 39.7693 35.6741 39.9875C35.6683 40.2058 35.6062 40.4188 35.4939 40.6061C35.3817 40.7933 35.223 40.9484 35.0333 41.0564L33.5563 41.9022C33.3645 42.0111 33.2044 42.1681 33.0918 42.3577C32.9791 42.5473 32.9179 42.763 32.914 42.9836C32.9101 43.2041 32.9638 43.4218 33.0697 43.6153C33.1756 43.8087 33.3301 43.9712 33.518 44.0868C33.518 44.0868 60.174 60.6953 59.4133 65.6719C59.7215 65.863 59.8783 65.427 59.9443 64.7006C60.2801 61.0048 58.5574 57.4687 56.4079 54.4435L39.9088 31.223C38.4767 29.2076 39.2573 26.3854 41.5215 25.3923L46.4173 23.2449C46.4173 23.2449 45.7535 20.8195 43.0248 21.246Z" fill="#49516B"/>
<path d="M68.3552 97.0475L71.9251 94.0239C72.0984 93.8771 72.3238 93.8036 72.5486 93.8205L79.4675 94.3415C79.9275 94.3762 80.2539 94.7719 80.1901 95.2177L79.3645 100.981C79.3035 101.407 78.9077 101.722 78.4676 101.696L71.869 101.302C71.6786 101.291 71.5007 101.216 71.3657 101.089L68.3011 98.2223C67.9604 97.9036 67.9854 97.3607 68.3552 97.0475Z" fill="#454C65"/>
<path d="M33.9595 91.8218L31.4297 87.8749C31.3075 87.6842 31.1143 87.5478 30.8952 87.4977L24.0283 85.9267C23.5807 85.8243 23.1535 86.103 23.0802 86.5451L22.1272 92.294C22.0565 92.7202 22.3418 93.142 22.772 93.2474L29.2814 94.8425C29.4643 94.8873 29.6541 94.8689 29.819 94.7905L33.6592 92.9647C34.0836 92.7629 34.2228 92.2328 33.9595 91.8218Z" fill="#454C65"/>
<path d="M35.9624 44.1471C36.4725 44.84 37.3727 45.0435 37.9731 44.6015C38.5734 44.1596 38.6466 43.2396 38.1365 42.5466C37.6264 41.8537 36.7262 41.6503 36.1258 42.0922C35.5255 42.5342 35.4523 43.4542 35.9624 44.1471Z" fill="#A1B1E7"/>
<path d="M76.778 49.4279C76.0842 49.9368 75.1643 49.862 74.7234 49.2609C74.2825 48.6598 74.4875 47.76 75.1813 47.251C75.8751 46.7421 76.7949 46.8169 77.2359 47.418C77.6768 48.0191 77.4718 48.919 76.778 49.4279Z" fill="#A1B1E7"/>
<path d="M86.0606 42.0697C85.2792 42.4298 84.3928 42.1729 84.0808 41.4958C83.7688 40.8188 84.1493 39.978 84.9308 39.6179C85.7122 39.2577 86.5986 39.5147 86.9106 40.1917C87.2226 40.8688 86.8421 41.7096 86.0606 42.0697Z" fill="#A1B1E7"/>
<path d="M30.8452 34.0231C31.3553 34.716 32.2555 34.9195 32.8559 34.4775C33.4563 34.0355 33.5294 33.1155 33.0193 32.4226C32.5092 31.7297 31.609 31.5262 31.0087 31.9682C30.4083 32.4102 30.3351 33.3302 30.8452 34.0231Z" fill="#A1B1E7"/>
<path fill-rule="evenodd" clip-rule="evenodd" d="M60.2973 65.6788C59.5696 65.6078 58.8972 66.0733 58.7075 66.7794L57.694 70.5518C57.3498 71.833 58.2384 73.1165 59.5587 73.2454C60.879 73.3743 61.999 72.2868 61.9091 70.9633L61.6443 67.0661C61.5947 66.3366 61.025 65.7499 60.2973 65.6788ZM59.6816 71.9843C60.3781 72.0523 60.9978 71.5428 61.0658 70.8463C61.1338 70.1498 60.6243 69.5301 59.9278 69.4621C59.2313 69.3941 58.6116 69.9036 58.5436 70.6001C58.4756 71.2966 58.9851 71.9163 59.6816 71.9843Z" fill="#C0CCF7"/>
<path d="M35.2627 57.5093L48.3008 67.3931" stroke="#A1B1E7" stroke-width="1.62344" stroke-linecap="round"/>
<path d="M73.4473 80.7666L63.6636 92.7084" stroke="#A1B1E7" stroke-width="1.62344" stroke-linecap="round"/>
<path fill-rule="evenodd" clip-rule="evenodd" d="M35.3139 56.9227C34.7674 56.802 34.2138 57.0942 34.0049 57.6134L32.8892 60.3872C32.5103 61.3292 33.0679 62.386 34.0594 62.6049C35.0509 62.8238 36.0016 62.1 36.0545 61.086L36.2104 58.1003C36.2395 57.5414 35.8604 57.0433 35.3139 56.9227ZM34.27 61.6562C34.793 61.7717 35.3106 61.4413 35.4261 60.9183C35.5416 60.3952 35.2112 59.8776 34.6882 59.7622C34.1651 59.6467 33.6475 59.9771 33.532 60.5001C33.4166 61.0231 33.747 61.5408 34.27 61.6562Z" fill="#C0CCF7"/>
<path fill-rule="evenodd" clip-rule="evenodd" d="M74.0483 80.1009C73.5018 79.9803 72.9482 80.2724 72.7393 80.7916L71.6236 83.5654C71.2446 84.5074 71.8023 85.5642 72.7938 85.7831C73.7853 86.002 74.736 85.2782 74.7889 84.2642L74.9447 81.2785C74.9739 80.7196 74.5948 80.2216 74.0483 80.1009ZM73.0044 84.8344C73.5274 84.9499 74.045 84.6195 74.1605 84.0965C74.2759 83.5735 73.9456 83.0559 73.4225 82.9404C72.8995 82.8249 72.3819 83.1553 72.2664 83.6783C72.1509 84.2014 72.4813 84.719 73.0044 84.8344Z" fill="#C0CCF7"/>
<path d="M65.7892 65.9062C65.8706 65.3739 66.3681 65.0083 66.9004 65.0897L77.9846 66.7839C78.5169 66.8653 78.8825 67.3628 78.8011 67.8951L78.4149 70.4219C78.3583 70.7922 78.0946 71.0973 77.7364 71.2069L71.7864 73.0283C71.5028 73.1151 71.195 73.068 70.9502 72.9004L65.8159 69.3849C65.5069 69.1733 65.3464 68.8033 65.403 68.433L65.7892 65.9062Z" fill="#49516B"/>
<path d="M70.7191 70.8713C71.1535 71.4615 71.9924 71.5816 72.5928 71.1397C73.1931 70.6977 73.3276 69.861 72.8931 69.2708C72.4587 68.6806 71.6198 68.5604 71.0194 69.0024C70.419 69.4443 70.2846 70.2811 70.7191 70.8713Z" fill="#A1B1E7"/>
<rect x="24.7774" y="85.7778" width="3.41264" height="8.28784" rx="0.97504" transform="rotate(8.69046 24.7774 85.7778)" stroke="#A1B1E7" stroke-width="0.97504" stroke-linejoin="round"/>
<rect x="75.378" y="93.5131" width="3.41264" height="8.28784" rx="0.97504" transform="rotate(8.69046 75.378 93.5131)" stroke="#A1B1E7" stroke-width="0.97504" stroke-linejoin="round"/>
<path d="M26.042 90.4087L27.7287 90.6665" stroke="#C0CCF6" stroke-width="0.97504" stroke-linecap="round"/>
<path d="M74.2334 97.7754L75.9201 98.0332" stroke="#C0CCF6" stroke-width="0.97504" stroke-linecap="round"/>
<rect x="51.9258" y="101.762" width="2.4376" height="2.92512" rx="0.48752" transform="rotate(8.69046 51.9258 101.762)" fill="#C0CCF6"/>
</svg>
