<?xml version="1.0"?>
<svg xmlns="http://www.w3.org/2000/svg" viewBox="0 0 112 112" fill="none">
<ellipse cx="86.4869" cy="78.7369" rx="18.1923" ry="4.11046" transform="rotate(-46.087 86.4869 78.7369)" fill="#3E3C53"/>
<path d="M72.3609 91.3222C71.1235 90.224 71.0528 88.3153 72.2055 87.1285L94.3067 64.3738C95.3884 63.2601 97.1548 63.1946 98.316 64.2252C99.5534 65.3234 99.6242 67.2321 98.4714 68.4189L76.3702 91.1736C75.2885 92.2873 73.5221 92.3527 72.3609 91.3222Z" fill="#3E3C53"/>
<ellipse cx="74.5823" cy="92.7265" rx="9.14845" ry="2.10587" transform="rotate(-46.087 74.5823 92.7265)" fill="#3E3C53"/>
<path d="M66.7291 98.8553C65.7255 97.9647 65.6681 96.4167 66.603 95.4542L76.7164 85.0417C77.5937 84.1386 79.0263 84.0855 79.968 84.9212C80.9715 85.8118 81.0289 87.3598 80.094 88.3223L69.9806 98.7348C69.1033 99.638 67.6708 99.6911 66.7291 98.8553Z" fill="#3E3C53"/>
<ellipse cx="72.2884" cy="90.9376" rx="9.11041" ry="2.02995" transform="rotate(-46.087 72.2884 90.9376)" fill="#476D8F"/>
<ellipse cx="83.9359" cy="76.5059" rx="17.7827" ry="3.96228" transform="rotate(-46.087 83.9359 76.5059)" fill="#476D8F"/>
<ellipse cx="82.9795" cy="75.6062" rx="7.5652" ry="2.59072" transform="rotate(-46.087 82.9795 75.6062)" fill="#3E3C53"/>
<path d="M77.0723 80.4551L77.4609 80.0232L78.191 80.6711L77.8024 81.1031L77.0723 80.4551Z" fill="#3E3C53"/>
<path d="M87.0639 69.9655L87.4809 69.4973L88.211 70.1453L87.794 70.6135L87.0639 69.9655Z" fill="#3E3C53"/>
<ellipse cx="82.2305" cy="74.9416" rx="7.5652" ry="2.59072" transform="rotate(-46.087 82.2305 74.9416)" fill="#3E3C53"/>
<path d="M72.258 68.0537L79.9581 75.1821C80.5357 75.7169 81.44 75.6725 81.9625 75.0838L82.3002 74.7033C82.815 74.1232 82.7621 73.2356 82.182 72.7208L74.3306 65.7527C74.1558 65.5976 73.9565 65.4727 73.7407 65.383L70.7541 64.1418C70.4052 63.9968 70.0699 64.3746 70.2553 64.7038L71.8537 67.5416C71.961 67.7323 72.0975 67.905 72.258 68.0537Z" fill="#476D8F"/>
<path d="M70.1004 64.7338L71.3809 67.1538C71.6517 67.6657 72.2375 67.9474 72.7315 67.6452C73.1069 67.4155 73.5176 67.0531 73.7861 66.4912C74.0457 65.948 73.6662 65.3599 73.1045 65.1435L70.5945 64.177C70.2517 64.045 69.9286 64.409 70.1004 64.7338Z" fill="#5987B0"/>
<path d="M78.8701 78.4451C82.8426 77.1912 86.1088 71.7288 85.3479 71.0535C84.5546 70.3494 82.1578 68.8353 79.8169 69.9945C79.6083 70.0978 79.4937 70.3344 79.431 70.5567C79.2101 71.3401 78.2473 72.4362 77.5308 72.7828C77.3285 72.8807 77.1218 73.0276 77.049 73.2402C76.2449 75.5892 77.5692 77.5879 78.4713 78.3764C78.5751 78.4671 78.7237 78.4913 78.8701 78.4451Z" fill="#514F69"/>
<path d="M72.7992 9.02408C70.64 8.71294 68.5568 9.95241 67.8002 11.9985L66.7412 14.8621L65.8977 17.143L61.9074 27.9333C61.9068 27.9335 61.9063 27.9337 61.9057 27.9339C61.8786 27.9434 61.8381 27.9516 61.7888 27.9511C61.7398 27.9506 61.6939 27.9417 61.6563 27.9278C58.6516 26.8166 55.0304 27.8324 53.9107 30.8602C52.7909 33.8881 54.88 37.0156 57.8846 38.1267C60.8893 39.2378 64.5105 38.2221 65.6302 35.1942L71.3212 19.8053C71.36 19.7002 71.4669 19.6366 71.5778 19.6526L84.7068 21.5445C84.8564 21.5661 84.9481 21.7201 84.8956 21.8619L81.8419 30.1195C81.8414 30.1197 81.8408 30.1199 81.8402 30.1201C81.8131 30.1296 81.7726 30.1378 81.7233 30.1373C81.6743 30.1368 81.6285 30.1279 81.5908 30.1139C78.5861 29.0028 74.9649 30.0185 73.8452 33.0464C72.7254 36.0743 74.8145 39.2017 77.8191 40.3129C80.8238 41.424 84.445 40.4083 85.5648 37.3804L91.4693 21.4138L92.3128 19.1329L92.8898 17.5727C93.9114 14.8102 92.1257 11.8091 89.2105 11.389L72.7992 9.02408Z" fill="#38ACFF" stroke="#3E3C53" stroke-width="2.76763"/>
<path d="M70.8739 7.19254C68.7147 6.88139 66.6315 8.12087 65.8749 10.1669L64.8159 13.0305L63.9724 15.3115L59.9821 26.1018C59.9815 26.102 59.981 26.1022 59.9804 26.1024C59.9533 26.1119 59.9128 26.12 59.8635 26.1196C59.8145 26.1191 59.7687 26.1101 59.731 26.0962C56.7263 24.9851 53.1051 26.0008 51.9854 29.0287C50.8656 32.0566 52.9547 35.184 55.9593 36.2952C58.964 37.4063 62.5852 36.3906 63.7049 33.3627L69.3959 17.9737C69.4347 17.8687 69.5416 17.8051 69.6525 17.821L82.7815 19.713C82.9311 19.7345 83.0228 19.8886 82.9703 20.0304L79.9166 28.2879C79.9161 28.2881 79.9155 28.2883 79.9149 28.2885C79.8878 28.298 79.8473 28.3062 79.798 28.3057C79.749 28.3053 79.7032 28.2963 79.6655 28.2824C76.6608 27.1713 73.0396 28.187 71.9199 31.2149C70.8002 34.2428 72.8892 37.3702 75.8939 38.4813C78.8985 39.5925 82.5197 38.5767 83.6395 35.5489L89.544 19.5823L90.3875 17.3013L90.9645 15.7411C91.9861 12.9786 90.2004 9.97752 87.2852 9.55743L70.8739 7.19254Z" fill="#38ACFF" stroke="#3E3C53" stroke-width="2.76763"/>
<path d="M64.5819 9.68903C65.5649 7.03094 68.2712 5.42071 71.0762 5.82493L74.7364 6.35237C75.5115 6.46406 76.0396 7.19614 75.901 7.9669C75.7691 8.70067 75.0796 9.19804 74.3416 9.0917L70.6815 8.56426C69.1681 8.34619 67.7081 9.21492 67.1777 10.649L65.0853 16.3073L63.7491 19.9204C63.4503 20.7285 62.4936 21.07 61.7507 20.6339C61.1724 20.2945 60.9207 19.5894 61.1533 18.9605L62.3902 15.6158L64.5819 9.68903Z" fill="#5685B1"/>
<path d="M71.2398 29.4989C72.7181 27.1854 75.4821 26.247 78.1016 26.5144C78.7237 26.578 79.2821 26.9001 79.7242 27.3424C80.6243 28.2429 80.7221 29.8974 79.4712 29.6601C79.376 29.6421 79.2819 29.6162 79.1904 29.5824C77.2024 28.8472 75.1196 29.2815 73.9479 30.529C73.4246 31.086 72.6416 31.482 71.9248 31.2169C71.208 30.9518 70.8283 30.1429 71.2398 29.4989Z" fill="#5685B1"/>
<path d="M51.3053 27.3128C52.7836 24.9992 55.5476 24.0608 58.1671 24.3283C58.7892 24.3918 59.3476 24.7139 59.7897 25.1562C60.6898 26.0567 60.7876 27.7112 59.5367 27.4739C59.4414 27.4559 59.3474 27.43 59.2559 27.3962C57.2679 26.661 55.185 27.0954 54.0133 28.3428C53.4901 28.8999 52.7071 29.2958 51.9903 29.0308C51.2735 28.7657 50.8938 27.9568 51.3053 27.3128Z" fill="#5685B1"/>
<path d="M72.3481 11.7251C74.5488 12.1498 78.3678 12.8532 81.6384 13.3757M86.6102 14.032C86.1445 14.0011 85.5407 13.9362 84.841 13.8463" stroke="#3E3C53" stroke-width="2.07572" stroke-linecap="round"/>
<path d="M30.3292 42.3795L20.2774 48.1305C18.3482 49.2343 17.2566 51.3765 17.4975 53.586L20.6818 82.7963C21.1181 86.799 25.5165 89.0403 29.0113 87.0408L38.2497 81.7551L40.3599 97.1577C40.9232 101.27 46.7745 101.518 47.6849 97.4692L54.9183 65.2974C55.9841 60.5569 50.9093 56.8088 46.6919 59.2218L39.6608 63.2445L38.6817 46.8954C38.4339 42.7582 33.9265 40.3213 30.3292 42.3795Z" fill="#FFE150" stroke="#3E3C53" stroke-width="3.7251"/>
<path d="M32.1593 41.2494L22.1683 46.9656C20.2493 48.0636 19.1582 50.1897 19.385 52.3889L22.2066 79.7435C22.6212 83.7625 27.0327 86.0266 30.5396 84.0202L39.6542 78.8053L41.1332 93.3502C41.5562 97.5093 47.4557 97.9239 48.4561 93.8648L56.1802 62.5256C57.356 57.7549 52.2449 53.8984 47.9801 56.3385L41.1948 60.2206L40.5156 45.8358C40.3186 41.665 35.7834 39.1759 32.1593 41.2494Z" fill="#FFE150" stroke="#3E3C53" stroke-width="3.7251"/>
<path d="M21.2679 52.0945C21.1827 51.2683 21.3765 50.4575 21.7909 49.7762C22.182 49.1332 22.8445 48.7241 23.4972 48.3495L31.463 43.7776C32.3531 43.2667 32.674 42.1395 32.1863 41.2364C31.6809 40.3006 30.5039 39.9647 29.5807 40.4929L21.2735 45.2457C20.6625 45.5953 20.0893 46.0093 19.4783 46.3589L19.3814 46.4143C16.8091 47.886 15.3537 50.7423 15.6749 53.6883L18.3637 78.3536C18.59 80.4297 20.9324 81.5313 22.6758 80.3815C23.5446 79.8085 24.0225 78.7999 23.9157 77.7647L21.2679 52.0945Z" fill="#5685B1"/>
<path d="M26.6644 51.9587L28.2201 66.7447M29.2507 76.4597L28.8507 72.6576" stroke="#3E3C53" stroke-width="3.38697" stroke-linecap="round"/>
</svg>
