<?xml version="1.0"?>
<svg xmlns="http://www.w3.org/2000/svg" viewBox="0 0 112 112" fill="none">
<rect x="8.95947" y="21.3115" width="85.0262" height="82.2536" rx="4.62099" transform="rotate(-7.09663 8.95947 21.3115)" fill="#E24444"/>
<rect x="12.6245" y="24.5796" width="62.8455" height="15.2493" rx="2.77259" transform="rotate(-7.09663 12.6245 24.5796)" fill="#1C1B29"/>
<rect x="14.4585" y="24.3516" width="60.997" height="15.2493" rx="2.77259" transform="rotate(-7.09663 14.4585 24.3516)" fill="#242334"/>
<rect x="14.9658" y="43.3804" width="62.8455" height="54.5277" rx="1.8484" transform="rotate(-7.09663 14.9658 43.3804)" fill="#222130"/>
<circle cx="49.573" cy="67.0127" r="24.0291" transform="rotate(-7.09663 49.573 67.0127)" fill="#151420"/>
<circle cx="49.5733" cy="67.0125" r="21.2565" transform="rotate(-7.09663 49.5733 67.0125)" fill="#333149"/>
<path d="M64.6905 60.0725C65.8501 59.5401 66.3703 58.1589 65.7008 57.0726C64.4995 55.1235 62.9514 53.4027 61.1269 51.9986C59.3023 50.5945 57.2424 49.5386 55.0507 48.8765C53.8292 48.5075 52.6273 49.364 52.4096 50.6214L50.3208 62.6878C50.0035 64.5204 51.8711 65.9576 53.5614 65.1817L64.6905 60.0725Z" fill="#43425E"/>
<path d="M34.4546 73.9514C33.2949 74.4838 32.7747 75.865 33.4442 76.9513C34.6455 78.9004 36.1936 80.6212 38.0182 82.0254C39.8427 83.4295 41.9026 84.4853 44.0943 85.1474C45.3158 85.5164 46.5178 84.6599 46.7354 83.4025L48.8243 71.3362C49.1415 69.5036 47.2739 68.0663 45.5837 68.8423L34.4546 73.9514Z" fill="#43425E"/>
<circle cx="49.5731" cy="67.0105" r="7.85568" transform="rotate(-7.09663 49.5731 67.0105)" fill="#232233"/>
<ellipse cx="46.9942" cy="64.5026" rx="4.42211" ry="2.54154" transform="rotate(-43.1742 46.9942 64.5026)" fill="#393852"/>
<path d="M17.5146 43.2954L24.1941 96.9468" stroke="#363454" stroke-width="1.3863"/>
<path d="M21.4141 42.8101L28.0935 96.4614" stroke="#363454" stroke-width="1.3863"/>
<path d="M25.541 42.2944L32.2204 95.9458" stroke="#363454" stroke-width="1.3863"/>
<path d="M29.667 41.7817L36.3464 95.4331" stroke="#363454" stroke-width="1.3863"/>
<path d="M33.7939 41.2681L40.4734 94.9195" stroke="#363454" stroke-width="1.3863"/>
<path d="M37.9209 40.7534L44.6003 94.4048" stroke="#363454" stroke-width="1.3863"/>
<path d="M42.0479 40.2407L48.7273 93.8921" stroke="#363454" stroke-width="1.3863"/>
<path d="M46.1763 39.7261L52.8557 93.3775" stroke="#363454" stroke-width="1.3863"/>
<path d="M50.3032 39.2134L56.9826 92.8648" stroke="#363454" stroke-width="1.3863"/>
<path d="M54.4302 38.6987L61.1096 92.3501" stroke="#363454" stroke-width="1.3863"/>
<path d="M58.5571 38.1841L65.2366 91.8355" stroke="#363454" stroke-width="1.3863"/>
<path d="M62.6821 37.6714L69.3616 91.3228" stroke="#363454" stroke-width="1.3863"/>
<path d="M66.8101 37.1582L73.4895 90.8096" stroke="#363454" stroke-width="1.3863"/>
<path d="M70.937 36.6445L77.6164 90.2959" stroke="#363454" stroke-width="1.3863"/>
<path d="M75.0654 36.1284L81.7449 89.7798" stroke="#363454" stroke-width="1.3863"/>
<path d="M21.6582 95.2856L83.7929 87.5501" stroke="#494762" stroke-width="1.3863"/>
<path d="M21.1455 91.1611L83.2802 83.4256" stroke="#494762" stroke-width="1.3863"/>
<path d="M20.6304 87.0332L82.7651 79.2976" stroke="#494762" stroke-width="1.3863"/>
<path d="M20.1172 82.9058L82.2519 75.1702" stroke="#494762" stroke-width="1.3863"/>
<path d="M19.605 78.7783L81.7397 71.0427" stroke="#494762" stroke-width="1.3863"/>
<path d="M19.0898 74.6509L81.2246 66.9153" stroke="#494762" stroke-width="1.3863"/>
<path d="M18.5771 70.5239L80.7119 62.7884" stroke="#494762" stroke-width="1.3863"/>
<path d="M18.061 66.3965L80.1958 58.6609" stroke="#494762" stroke-width="1.3863"/>
<path d="M17.5488 62.269L79.6835 54.5335" stroke="#494762" stroke-width="1.3863"/>
<path d="M17.0356 58.1421L79.1704 50.4065" stroke="#494762" stroke-width="1.3863"/>
<path d="M16.5215 54.0166L78.6562 46.281" stroke="#494762" stroke-width="1.3863"/>
<path d="M16.0083 49.8906L78.143 42.155" stroke="#494762" stroke-width="1.3863"/>
<path d="M15.4927 45.7622L77.6274 38.0266" stroke="#494762" stroke-width="1.3863"/>
<circle cx="72.3985" cy="40.8862" r="1.8484" transform="rotate(-7.09663 72.3985 40.8862)" fill="#5A5784"/>
<circle cx="20.1217" cy="47.3949" r="1.8484" transform="rotate(-7.09663 20.1217 47.3949)" fill="#5A5784"/>
<circle cx="78.0514" cy="86.2841" r="1.8484" transform="rotate(-7.09663 78.0514 86.2841)" fill="#5A5784"/>
<circle cx="25.7745" cy="92.7909" r="1.8484" transform="rotate(-7.09663 25.7745 92.7909)" fill="#5A5784"/>
<rect x="18.8027" y="51.749" width="19.8703" height="6.00729" rx="1.8484" transform="rotate(-7.09663 18.8027 51.749)" fill="#B6B3D8"/>
<rect x="14.9658" y="43.3804" width="62.8455" height="54.5277" rx="1.8484" transform="rotate(-7.09663 14.9658 43.3804)" stroke="#961D1D" stroke-width="1.3863"/>
<circle cx="20.0152" cy="31.5751" r="1.8484" transform="rotate(-7.09663 20.0152 31.5751)" fill="#333149"/>
<circle cx="20.0162" cy="31.5744" r="0.924198" transform="rotate(-7.09663 20.0162 31.5744)" fill="#222130"/>
<circle cx="70.4557" cy="25.2944" r="1.8484" transform="rotate(-7.09663 70.4557 25.2944)" fill="#333149"/>
<circle cx="70.4532" cy="25.2932" r="0.924198" transform="rotate(-7.09663 70.4532 25.2932)" fill="#222130"/>
<circle cx="65.4117" cy="25.9237" r="1.8484" transform="rotate(-7.09663 65.4117 25.9237)" fill="#333149"/>
<circle cx="65.4097" cy="25.9231" r="0.924198" transform="rotate(-7.09663 65.4097 25.9231)" fill="#222130"/>
<circle cx="60.3683" cy="26.5536" r="1.8484" transform="rotate(-7.09663 60.3683 26.5536)" fill="#333149"/>
<circle cx="60.3687" cy="26.5525" r="0.924198" transform="rotate(-7.09663 60.3687 26.5525)" fill="#222130"/>
<path d="M31.0491 30.4255C31.2541 32.0716 30.0857 33.5723 28.4396 33.7772C26.7934 33.9821 25.2928 32.8138 25.0879 31.1676C24.8829 29.5215 26.0513 28.0209 27.6974 27.8159C29.3436 27.611 30.8442 28.7793 31.0491 30.4255Z" fill="#333149"/>
<circle cx="27.985" cy="30.1172" r="2.31049" transform="rotate(-7.09663 27.985 30.1172)" fill="#43425D"/>
<path d="M27.9268 29.6586C27.6735 29.6902 27.4938 29.921 27.5253 30.1743C27.5569 30.4275 27.7877 30.6073 28.041 30.5757L27.9268 29.6586ZM28.041 30.5757L30.3338 30.2903L30.2196 29.3732L27.9268 29.6586L28.041 30.5757Z" fill="#333149"/>
<path d="M38.8441 29.4562C39.049 31.1024 37.8807 32.603 36.2345 32.808C34.5884 33.0129 33.0877 31.8446 32.8828 30.1984C32.6779 28.5522 33.8462 27.0516 35.4924 26.8467C37.1385 26.6418 38.6391 27.8101 38.8441 29.4562Z" fill="#333149"/>
<circle cx="35.7809" cy="29.1494" r="2.31049" transform="rotate(-7.09663 35.7809 29.1494)" fill="#43425D"/>
<path d="M35.3785 28.9207C35.2518 29.1422 35.3286 29.4245 35.5502 29.5513C35.7717 29.678 36.054 29.6011 36.1807 29.3796L35.3785 28.9207ZM36.1807 29.3796L37.328 27.3741L36.5258 26.9152L35.3785 28.9207L36.1807 29.3796Z" fill="#333149"/>
<path d="M46.6404 28.4855C46.8454 30.1317 45.6771 31.6323 44.0309 31.8373C42.3847 32.0422 40.8841 30.8739 40.6792 29.2277C40.4742 27.5815 41.6426 26.0809 43.2887 25.876C44.9349 25.671 46.4355 26.8394 46.6404 28.4855Z" fill="#333149"/>
<circle cx="43.5763" cy="28.1768" r="2.31049" transform="rotate(-7.09663 43.5763 28.1768)" fill="#43425D"/>
<path d="M43.748 27.7496C43.5113 27.6542 43.242 27.7687 43.1466 28.0054C43.0512 28.2421 43.1657 28.5114 43.4024 28.6068L43.748 27.7496ZM43.4024 28.6068L45.6086 29.4963L45.9542 28.6391L43.748 27.7496L43.4024 28.6068Z" fill="#333149"/>
<path d="M35.8414 16.566L38.6269 16.2192C39.3867 16.1246 39.8917 15.3969 40.178 14.6868C41.8759 10.4751 54.0221 9.35665 56.8447 12.6362C57.3441 13.2165 58.0274 13.8039 58.7871 13.7093L62.8964 13.1977" stroke="#333149" stroke-width="2.77259"/>
<path d="M54.4344 27.5144C54.6393 29.1605 53.471 30.6611 51.8248 30.8661C50.1787 31.071 48.6781 29.9027 48.4731 28.2565C48.2682 26.6104 49.4365 25.1097 51.0827 24.9048C52.7288 24.6999 54.2295 25.8682 54.4344 27.5144Z" fill="#333149"/>
<circle cx="51.3693" cy="27.2071" r="2.31049" transform="rotate(-7.09663 51.3693 27.2071)" fill="#43425D"/>
<path d="M51.5424 26.7804C51.3057 26.685 51.0365 26.7995 50.9411 27.0362C50.8456 27.2729 50.9601 27.5421 51.1968 27.6376L51.5424 26.7804ZM51.1968 27.6376L53.4031 28.5271L53.7487 27.6699L51.5424 26.7804L51.1968 27.6376Z" fill="#333149"/>
<path d="M26.841 19.083C26.5888 17.057 28.0267 15.2101 30.0527 14.9578L35.8011 14.2422C36.9317 14.1014 37.9624 14.9039 38.1031 16.0345L38.305 17.6558L26.841 19.083Z" fill="#222130"/>
<path d="M71.3239 13.5459C71.0717 11.5199 69.2248 10.0819 67.1987 10.3342L61.4504 11.0498C60.3198 11.1906 59.5173 12.2212 59.6581 13.3518L59.8599 14.9731L71.3239 13.5459Z" fill="#222130"/>
</svg>
