<?xml version="1.0"?>
<svg xmlns="http://www.w3.org/2000/svg" viewBox="0 0 112 112" fill="none">
<mask id="mask0" mask-type="alpha" maskUnits="userSpaceOnUse" x="0" y="0" width="112" height="112">
<rect width="112" height="112" fill="white"/>
</mask>
<g mask="url(#mask0)">
<path d="M99.2189 -35.1955L98.7794 -37.9287C98.5456 -39.3826 99.0354 -40.8591 100.092 -41.8849L117.184 -58.4813C119.7 -60.9243 123.897 -59.9717 125.112 -56.6821C126.252 -53.5957 124.053 -50.2943 120.766 -50.1566L120.069 -50.1274C119.181 -50.0902 118.416 -49.4899 118.168 -48.6361L115.236 -38.531C114.851 -37.2024 113.958 -36.0787 112.751 -35.4028L105.611 -31.404C91.0537 -1.09404 83.2117 15.5117 68.6547 45.8216L59.3224 41.3926L99.2189 -35.1955Z" fill="#DA7F2B"/>
<path d="M97.8331 -35.8539L97.3878 -38.6225C97.1572 -40.0566 97.6306 -41.5141 98.66 -42.539L115.567 -59.373C118.053 -61.8478 122.266 -60.9194 123.481 -57.6292C124.612 -54.5652 122.429 -51.2878 119.166 -51.151L118.421 -51.1198C117.533 -51.0826 116.768 -50.4823 116.52 -49.6285L113.567 -39.4523C113.194 -38.1661 112.345 -37.0702 111.193 -36.3877L104.544 -32.4502L66.3258 44.9889L57.9365 40.7342L97.8331 -35.8539Z" fill="#F89F4D"/>
<path d="M56.3682 14.6188C51.249 29.2976 61.8811 31.9077 66.0119 26.0558L68.9647 39.366C73.9075 47.6016 79.6686 45.4788 83.2023 41.1059C84.8834 39.0255 88.6012 38.693 88.8254 41.3583C89.369 47.8191 84.5392 53.3658 79.6905 57.1716C76.3925 59.7603 74.0476 63.523 74.0307 67.7156L73.9806 80.1389C73.923 94.4177 58.8469 103.634 46.1121 97.1756L28.2268 88.1051C15.968 81.888 14.0295 65.1763 24.5397 56.3181L35.2449 47.2955C39.8378 43.4245 42.1463 37.6006 42.6017 31.6113C43.648 17.8491 48.9505 12.3879 53.6591 10.837C55.8018 10.1313 57.1111 12.4887 56.3682 14.6188Z" fill="#FFCD1E"/>
<path d="M56.3682 14.6188C51.249 29.2976 61.8811 31.9077 66.0119 26.0558L68.9647 39.366C73.9075 47.6016 79.6686 45.4788 83.2023 41.1059C84.8834 39.0255 88.6012 38.693 88.8254 41.3583C89.369 47.8191 84.5392 53.3658 79.6905 57.1716C76.3925 59.7603 74.0476 63.523 74.0307 67.7156L73.9806 80.1389C73.923 94.4177 58.8469 103.634 46.1121 97.1756L28.2268 88.1051C15.968 81.888 14.0295 65.1763 24.5397 56.3181L35.2449 47.2955C39.8378 43.4245 42.1463 37.6006 42.6017 31.6113C43.648 17.8491 48.9505 12.3879 53.6591 10.837C55.8018 10.1313 57.1111 12.4887 56.3682 14.6188Z" fill="#FFCD1E"/>
<path d="M60.4979 16.0605C55.3787 30.7393 66.0107 33.3494 70.1415 27.4975L69.8529 35.3112L73.0943 40.8077C78.0371 49.0434 82.9511 44.0838 86.4848 39.7108C87.522 38.4273 91.4707 40.9866 91.4707 40.9866C91.4707 40.9866 92.8691 41.7792 92.955 42.8C93.4986 49.2609 88.6688 54.8076 83.8202 58.6133C80.5221 61.202 78.1772 64.9647 78.1603 69.1573L78.1102 81.5806C78.0526 95.8595 62.9765 105.076 50.2417 98.6174L32.3564 89.5468C20.0976 83.3297 18.1591 66.618 28.6693 57.7598L39.3745 48.7373C43.9674 44.8663 46.2759 39.0423 46.7313 33.053C47.7776 19.2908 50.0159 12.3924 54.7245 10.8415C55.2419 10.6711 58.7748 12.1165 59.1778 12.257C60.444 12.6982 61.0613 14.4448 60.4979 16.0605Z" fill="#D0881D"/>
<path d="M56.3694 14.6191C51.2502 29.2979 61.8823 31.908 66.0131 26.0561L68.9659 39.3663C73.9087 47.602 79.6698 45.4792 83.2035 41.1062C84.8846 39.0259 88.6024 38.6934 88.8266 41.3586C89.3702 47.8195 84.5404 53.3661 79.6917 57.1719C76.3937 59.7606 74.0488 63.5233 74.0319 67.7159L73.9818 80.1392C73.9242 94.4181 58.8481 103.634 46.1132 97.176L28.228 88.1054C15.9692 81.8883 14.0307 65.1766 24.5409 56.3184L35.246 47.2959C39.839 43.4249 42.1475 37.6009 42.6029 31.6116C43.6492 17.8494 48.9517 12.3882 53.6603 10.8373C55.803 10.1316 57.1123 12.4891 56.3694 14.6191Z" fill="#FFCD1E"/>
<path fill-rule="evenodd" clip-rule="evenodd" d="M65.4251 40.7782L63.5418 32.2892C60.9355 33.1006 58.0494 32.8404 55.5798 31.1295C51.4674 28.2804 50.3257 22.7929 51.9861 16.147C49.5905 18.347 47.042 22.856 46.3546 31.8968C45.8449 38.6007 43.2346 45.4837 37.6709 50.1729L26.9657 59.1954C18.5164 66.3167 20.0747 79.7516 29.9299 84.7497L47.8151 93.8202C58.0529 99.0124 70.1729 91.6031 70.2192 80.1241L70.2693 67.7008C70.2921 62.0671 73.4228 57.3093 77.3686 54.2122C80.8673 51.466 83.6172 48.3183 84.656 45.0832C82.6255 47.041 79.9132 48.6646 76.6852 48.7264C72.3162 48.81 68.5856 46.0442 65.7397 41.3025L65.4251 40.7782ZM62.7237 28.6017C58.0842 30.2603 52.3348 26.188 56.3694 14.6191C57.1123 12.4891 55.803 10.1316 53.6603 10.8373C48.9517 12.3882 43.6492 17.8494 42.6029 31.6116C42.1475 37.6009 39.839 43.4249 35.246 47.2959L24.5409 56.3184C14.0307 65.1766 15.9692 81.8883 28.228 88.1054L46.1132 97.176C58.8481 103.634 73.9242 94.4181 73.9818 80.1392L74.0319 67.7159C74.0488 63.5233 76.3937 59.7606 79.6917 57.1719C84.5404 53.3661 89.3702 47.8195 88.8266 41.3586C88.6024 38.6934 84.8846 39.0259 83.2035 41.1062C79.6698 45.4792 73.9087 47.602 68.9659 39.3663L66.0131 26.0561C65.1379 27.2959 63.9709 28.1559 62.7237 28.6017Z" fill="#FFCD1E"/>
<path d="M72.6827 67.4987L72.7191 80.7646C72.7343 86.3086 69.6129 91.3844 64.6585 93.8723C63.32 94.5444 61.7284 93.6391 61.622 92.1451L61.399 89.0113C61.1061 84.8979 58.6766 81.2397 54.9987 79.3745L39.4105 71.4689C35.4426 69.4566 33.469 64.9049 34.7121 60.6331C35.43 58.1662 36.8518 55.9621 38.8032 54.2909L45.2531 48.7672C48.5878 45.9113 50.9234 42.065 51.9193 37.7889L53.426 31.3194C53.9146 29.2217 56.5317 28.4974 58.0293 30.0454L67.859 40.2063C70.4531 44.4613 73.4949 46.4125 76.6649 46.3518C79.7637 46.2925 82.4409 44.3069 84.3321 41.9665C84.9021 41.2612 85.849 40.8468 86.5982 40.8403C86.9576 40.8373 87.1604 40.9276 87.2516 40.9974C87.3095 41.0417 87.411 41.1379 87.4369 41.4459C87.92 47.1875 83.5496 52.3623 78.6959 56.1364C75.2291 58.832 72.67 62.8812 72.6827 67.4987Z" fill="white" stroke="#FFCD1E" stroke-width="2.83861"/>
<circle cx="61.5742" cy="72.2908" r="3.27945" transform="rotate(-52.1214 61.5742 72.2908)" fill="#B3B5CA"/>
<path d="M62.72 69.9132C63.7863 70.844 63.8962 72.463 62.9654 73.5293C62.0345 74.5957 60.4155 74.7055 59.3492 73.7747C58.2829 72.8439 58.173 71.2249 59.1038 70.1586C60.0346 69.0923 61.6536 68.9824 62.72 69.9132Z" fill="#E1E1E1"/>
<path d="M60.8425 71.2029C60.6099 71.4903 60.6543 71.9118 60.9417 72.1443C61.2291 72.3769 61.6506 72.3325 61.8831 72.0451L60.8425 71.2029ZM61.8831 72.0451L63.2955 70.2999L62.2549 69.4577L60.8425 71.2029L61.8831 72.0451Z" fill="#B3B5CA"/>
<circle cx="65.5149" cy="79.284" r="2.5827" transform="rotate(-52.1214 65.5149 79.284)" fill="#B3B5CA"/>
<path d="M66.4173 77.4132C67.2571 78.1462 67.3436 79.4212 66.6106 80.261C65.8775 81.1008 64.6025 81.1873 63.7627 80.4543C62.923 79.7212 62.8364 78.4462 63.5695 77.6064C64.3025 76.7666 65.5776 76.6801 66.4173 77.4132Z" fill="#E1E1E1"/>
<path d="M64.8958 78.393C64.6929 78.6436 64.7317 79.0112 64.9823 79.2141C65.233 79.4169 65.6006 79.3782 65.8034 79.1275L64.8958 78.393ZM65.8034 79.1275L66.9157 77.7531L66.0081 77.0185L64.8958 78.393L65.8034 79.1275Z" fill="#B3B5CA"/>
<circle cx="66.2247" cy="85.8635" r="2.02617" transform="rotate(-52.1214 66.2247 85.8635)" fill="#B3B5CA"/>
<path d="M66.9317 84.3972C67.5905 84.9723 67.6584 85.9726 67.0833 86.6314C66.5082 87.2902 65.508 87.3581 64.8491 86.783C64.1903 86.2079 64.1225 85.2076 64.6975 84.5488C65.2726 83.89 66.2729 83.8221 66.9317 84.3972Z" fill="#E1E1E1"/>
<path d="M65.7418 85.1684C65.584 85.3634 65.6141 85.6493 65.8091 85.8071C66.004 85.9648 66.2899 85.9347 66.4477 85.7398L65.7418 85.1684ZM66.4477 85.7398L67.3203 84.6615L66.6144 84.0902L65.7418 85.1684L66.4477 85.7398Z" fill="#B3B5CA"/>
<path d="M97.3153 -34.867C97.6011 -35.4156 98.2752 -35.632 98.8269 -35.3522L103.547 -32.9586C104.098 -32.6788 104.322 -32.007 104.048 -31.4523L66.8289 43.9622C66.5508 44.5255 65.8664 44.7535 65.3061 44.4694L58.9523 41.247C58.392 40.9629 58.1715 40.276 58.4618 39.7188L97.3153 -34.867Z" fill="#965F34"/>
<path d="M60.3249 36.0333C60.4189 35.848 60.6454 35.7739 60.8307 35.8679L68.5482 39.7819C68.7335 39.8759 68.8076 40.1023 68.7136 40.2876C68.6196 40.473 68.3931 40.547 68.2078 40.453L60.4903 36.5391C60.305 36.4451 60.2309 36.2187 60.3249 36.0333Z" fill="#C68A5C"/>
<path d="M59.1267 38.1759C59.2207 37.9906 59.4471 37.9165 59.6324 38.0105L67.5301 42.0159C67.7155 42.1098 67.7895 42.3363 67.6955 42.5216C67.6015 42.7069 67.3751 42.781 67.1898 42.687L59.2921 38.6817C59.1067 38.5877 59.0327 38.3612 59.1267 38.1759Z" fill="#C68A5C"/>
<path d="M58.4294 40.5338C58.5234 40.3485 58.7498 40.2744 58.9352 40.3684L65.8972 43.8992C66.0826 43.9932 66.1566 44.2197 66.0626 44.405C65.9686 44.5903 65.7422 44.6644 65.5568 44.5704L58.5948 41.0396C58.4095 40.9456 58.3354 40.7191 58.4294 40.5338Z" fill="#C68A5C"/>
<path d="M61.3728 33.7238C61.4668 33.5384 61.6932 33.4644 61.8785 33.5584L69.7923 37.5719C69.9776 37.6659 70.0517 37.8923 69.9577 38.0776C69.8637 38.2629 69.6373 38.337 69.4519 38.243L61.5382 34.2295C61.3528 34.1355 61.2788 33.9091 61.3728 33.7238Z" fill="#C68A5C"/>
<path d="M62.5515 31.5919C62.6455 31.4066 62.8719 31.3325 63.0573 31.4265L70.8194 35.3631C71.0047 35.4571 71.0788 35.6836 70.9848 35.8689C70.8908 36.0542 70.6644 36.1283 70.479 36.0343L62.7169 32.0977C62.5315 32.0037 62.4575 31.7772 62.5515 31.5919Z" fill="#C68A5C"/>
<path d="M63.6687 29.5494C63.7627 29.3641 63.9891 29.2901 64.1744 29.3841L71.9366 33.3207C72.1219 33.4146 72.196 33.6411 72.102 33.8264C72.008 34.0117 71.7816 34.0858 71.5962 33.9918L63.8341 30.0552C63.6487 29.9612 63.5747 29.7348 63.6687 29.5494Z" fill="#C68A5C"/>
<path d="M64.9128 27.1656C65.0068 26.9803 65.2332 26.9063 65.4186 27.0003L72.9976 30.844C73.1829 30.938 73.257 31.1644 73.163 31.3497C73.069 31.5351 72.8426 31.6091 72.6572 31.5151L65.0782 27.6714C64.8929 27.5774 64.8188 27.351 64.9128 27.1656Z" fill="#C68A5C"/>
<path d="M66.07 24.6788C66.164 24.4935 66.3905 24.4195 66.5758 24.5134L74.2 28.3801C74.3853 28.4741 74.4594 28.7005 74.3654 28.8858C74.2714 29.0712 74.045 29.1452 73.8596 29.0512L66.2354 25.1846C66.0501 25.0906 65.9761 24.8642 66.07 24.6788Z" fill="#C68A5C"/>
<rect x="67.3857" y="21.52" width="9.47062" height="0.752519" rx="0.37626" transform="rotate(26.892 67.3857 21.52)" fill="#C68A5C"/>
<rect x="69.1143" y="18.7729" width="9.47062" height="0.752519" rx="0.37626" transform="rotate(26.892 69.1143 18.7729)" fill="#C68A5C"/>
<path d="M70.5339 16.298C70.6279 16.1126 70.8543 16.0386 71.0397 16.1326L78.3331 19.8315C78.5184 19.9255 78.5925 20.1519 78.4985 20.3372C78.4045 20.5226 78.1781 20.5966 77.9927 20.5026L70.6993 16.8037C70.514 16.7097 70.4399 16.4833 70.5339 16.298Z" fill="#C68A5C"/>
<path d="M72.1697 12.9962C72.2636 12.8109 72.4901 12.7368 72.6754 12.8308L80.1295 16.6112C80.3148 16.7052 80.3888 16.9316 80.2948 17.1169C80.2009 17.3023 79.9744 17.3763 79.7891 17.2823L72.335 13.502C72.1497 13.408 72.0757 13.1815 72.1697 12.9962Z" fill="#C68A5C"/>
<path d="M74.2478 9.23889C74.3418 9.05356 74.5682 8.97952 74.7535 9.07351L82.1361 12.8176C82.3214 12.9116 82.3955 13.138 82.3015 13.3234C82.2075 13.5087 81.9811 13.5827 81.7957 13.4887L74.4132 9.74465C74.2278 9.65066 74.1538 9.42422 74.2478 9.23889Z" fill="#C68A5C"/>
<path d="M78.2693 1.83362C78.3633 1.64829 78.5897 1.57424 78.775 1.66823L85.4616 5.05933C85.6469 5.15332 85.7209 5.37975 85.6269 5.56508C85.533 5.75041 85.3065 5.82446 85.1212 5.73047L78.4347 2.33938C78.2493 2.24538 78.1753 2.01895 78.2693 1.83362Z" fill="#C68A5C"/>
<path d="M76.2878 5.49133C76.3818 5.306 76.6082 5.23196 76.7936 5.32595L83.4801 8.71704C83.6654 8.81103 83.7395 9.03747 83.6455 9.2228C83.5515 9.40813 83.3251 9.48217 83.1397 9.38818L76.4532 5.99709C76.2679 5.9031 76.1938 5.67666 76.2878 5.49133Z" fill="#C68A5C"/>
<rect x="80.4023" y="-2.32715" width="8.21757" height="0.752519" rx="0.37626" transform="rotate(26.892 80.4023 -2.32715)" fill="#C68A5C"/>
<rect x="42.168" y="66.6968" width="14.1662" height="9.03023" rx="1.12878" transform="rotate(26.892 42.168 66.6968)" fill="#323749"/>
<rect opacity="0.5" x="55.3252" y="42.1509" width="12.7928" height="3.38633" rx="1.69317" transform="rotate(26.892 55.3252 42.1509)" fill="#C4C4C4"/>
<rect opacity="0.5" x="50.8984" y="50.8784" width="12.7928" height="3.38633" rx="1.69317" transform="rotate(26.892 50.8984 50.8784)" fill="#C4C4C4"/>
<rect opacity="0.5" x="46.4697" y="59.5962" width="12.7928" height="3.38633" rx="1.69317" transform="rotate(26.892 46.4697 59.5962)" fill="#C4C4C4"/>
<path d="M100.473 -41.0547C79.0055 1.27404 63.6512 31.5497 42.184 73.8784" stroke="#C4C4C4" stroke-width="0.648686" stroke-linecap="round"/>
<path d="M103.514 -43.7319C82.0466 -1.40322 64.9903 32.2282 43.5232 74.5569" stroke="#C4C4C4" stroke-width="0.648686" stroke-linecap="round"/>
<path d="M106.982 -47.2427C85.5153 -4.91395 66.3317 32.9121 44.8646 75.2408" stroke="#C4C4C4" stroke-width="0.648686" stroke-linecap="round"/>
<path d="M110.03 -49.917C88.5632 -7.58827 67.6777 33.5935 46.2106 75.9222" stroke="#C4C4C4" stroke-width="0.648686" stroke-linecap="round"/>
<path d="M113.33 -53.0957C91.863 -10.767 69.0204 34.2738 47.5533 76.6026" stroke="#C4C4C4" stroke-width="0.648686" stroke-linecap="round"/>
<path d="M116.545 -56.1089C95.0778 -13.7802 70.3632 34.9519 48.8961 77.2807" stroke="#C4C4C4" stroke-width="0.648686" stroke-linecap="round"/>
</g>
</svg>
