<?xml version="1.0"?>
<svg xmlns="http://www.w3.org/2000/svg" viewBox="0 0 112 112" fill="none">
<mask id="mask0" mask-type="alpha" maskUnits="userSpaceOnUse" x="0" y="0" width="112" height="112">
<rect width="112" height="112" fill="white"/>
</mask>
<g mask="url(#mask0)">
<path d="M76.7082 68.4831L24.1351 71.1269C23.4219 71.1655 22.7529 71.4847 22.2741 72.0146C21.7953 72.5446 21.5454 73.2424 21.5791 73.9558L21.6444 75.2546C21.6825 75.9676 22.0011 76.6366 22.5307 77.1155C23.0604 77.5944 23.7579 77.8443 24.4712 77.8107L77.0443 75.167C77.7573 75.1289 78.4263 74.8103 78.9052 74.2806C79.3841 73.751 79.634 73.0534 79.6004 72.3402L79.5351 71.0414C79.497 70.3282 79.1784 69.659 78.6488 69.1797C78.1193 68.7005 77.4217 68.4501 76.7082 68.4831Z" fill="#F6B11B"/>
<path d="M23.6904 53.654L22.575 53.7101C21.627 53.7533 20.7006 53.4183 19.9993 52.7789C19.2981 52.1394 18.8793 51.2478 18.835 50.2998L18.8201 50.0033C18.777 49.0553 19.1119 48.1289 19.7514 47.4276C20.3908 46.7264 21.2825 46.3076 22.2305 46.2634L23.3437 46.2074L23.6904 53.654Z" fill="#F65539"/>
<path d="M79.7777 51.1392L79.9633 51.1299C80.4327 51.1083 80.8932 50.9944 81.3186 50.7947C81.7439 50.595 82.1258 50.3135 82.4423 49.9661C82.7588 49.6188 83.0037 49.2126 83.1632 48.7706C83.3226 48.3285 83.3934 47.8594 83.3715 47.3901L83.3566 47.0936C83.3347 46.6241 83.2205 46.1636 83.0206 45.7382C82.8206 45.3128 82.5389 44.931 82.1914 44.6146C81.8439 44.2981 81.4375 44.0532 80.9954 43.8937C80.5533 43.7343 80.0841 43.6636 79.6146 43.6855L79.429 43.6948C79.185 43.7071 78.9555 43.8148 78.7902 43.9947C78.6248 44.1746 78.5368 44.4123 78.5452 44.6565L78.8049 50.2474C78.8097 50.37 78.8387 50.4905 78.8903 50.6018C78.9418 50.7132 79.015 50.8132 79.1054 50.8961C79.1959 50.979 79.3019 51.0432 79.4173 51.0849C79.5326 51.1267 79.6552 51.1451 79.7777 51.1392Z" fill="#F65539"/>
<path d="M78.085 54.2035L78.4561 54.1848C78.7252 54.1724 78.9892 54.1071 79.2331 53.9926C79.4769 53.8781 79.6958 53.7166 79.8772 53.5175C80.0586 53.3183 80.199 53.0854 80.2903 52.8319C80.3816 52.5785 80.4221 52.3095 80.4094 52.0404L79.9778 42.7358C79.9654 42.4667 79.9001 42.2027 79.7856 41.9588C79.6711 41.715 79.5096 41.4961 79.3105 41.3147C79.1113 41.1333 78.8784 40.9929 78.6249 40.9016C78.3715 40.8103 78.1026 40.7698 77.8335 40.7825L77.4624 40.8012C77.1933 40.8136 76.9292 40.8789 76.6854 40.9934C76.4416 41.1079 76.2227 41.2694 76.0413 41.4685C75.8599 41.6677 75.7195 41.9006 75.6282 42.1541C75.5369 42.4075 75.4964 42.6765 75.5091 42.9455L75.9428 52.2501C75.9552 52.519 76.0204 52.7829 76.1348 53.0266C76.2492 53.2703 76.4104 53.4891 76.6093 53.6705C76.8083 53.8518 77.041 53.9923 77.2942 54.0837C77.5474 54.1752 77.8161 54.2159 78.085 54.2035Z" fill="#FFB762"/>
<path d="M25.0004 56.6676L24.6315 56.6861C24.3624 56.6988 24.0934 56.6583 23.84 56.567C23.5866 56.4757 23.3536 56.3353 23.1544 56.1539C22.9553 55.9725 22.7938 55.7536 22.6793 55.5098C22.5648 55.2659 22.4995 55.0019 22.4871 54.7328L22.0534 45.4283C22.041 45.1594 22.0817 44.8906 22.1732 44.6374C22.2646 44.3842 22.405 44.1515 22.5864 43.9526C22.7678 43.7537 22.9866 43.5924 23.2303 43.478C23.474 43.3637 23.7379 43.2984 24.0068 43.286L24.3779 43.2674C24.647 43.2547 24.9159 43.2951 25.1694 43.3865C25.4228 43.4778 25.6558 43.6182 25.8549 43.7996C26.0541 43.981 26.2155 44.1999 26.33 44.4437C26.4445 44.6875 26.5099 44.9516 26.5223 45.2207L26.9536 54.521C26.9666 54.7903 26.9263 55.0595 26.8352 55.3132C26.744 55.5668 26.6037 55.8 26.4222 55.9994C26.2408 56.1988 26.0218 56.3604 25.7779 56.4751C25.5339 56.5897 25.2697 56.6551 25.0004 56.6676Z" fill="#FFB762"/>
<path d="M23.7908 82.3587C4.62469 117.956 41.649 122.39 59.156 96.5929" stroke="#8CC2CF" stroke-width="7.01904" stroke-miterlimit="10" stroke-linecap="round"/>
<path d="M26.5654 80.5483C21.8716 85.3298 18.9348 98.9455 18.7796 104.402" stroke="#DDE1E8" stroke-width="12.2849" stroke-miterlimit="10"/>
<path d="M49.3442 12.0918C63.7385 11.4235 75.9613 22.6774 76.629 37.232L80.6365 123.388C80.6523 123.669 80.6124 123.95 80.5191 124.216C80.4258 124.482 80.2809 124.726 80.0927 124.936C79.9045 125.145 79.6768 125.315 79.4226 125.436C79.1684 125.557 78.8929 125.627 78.6117 125.641L30.7513 127.866C30.4698 127.878 30.1887 127.835 29.9241 127.738C29.6595 127.642 29.4166 127.494 29.2095 127.303C29.0023 127.112 28.835 126.882 28.7171 126.626C28.5993 126.37 28.5332 126.093 28.5227 125.812L24.5152 39.656C23.8346 25.102 34.9501 12.7622 49.3442 12.0918Z" fill="#B8DEE5"/>
<path d="M59.0872 61.1855L59.1124 61.8061C59.2147 64.3212 57.2691 66.4616 54.7889 66.5625L52.5117 66.6551C50.0315 66.756 47.9185 64.7806 47.8162 62.2655L47.791 61.6449" fill="white"/>
<path d="M59.0872 61.1855L59.1124 61.8061C59.2147 64.3212 57.2691 66.4616 54.7889 66.5625L52.5117 66.6551C50.0315 66.756 47.9185 64.7806 47.8162 62.2655L47.791 61.6449" stroke="#8CC2CF" stroke-width="2.43342" stroke-miterlimit="10" stroke-linecap="round" stroke-linejoin="round"/>
<path d="M78.0202 70.9132L73.5029 74.6424C62.4121 83.7984 46.8445 85.2245 34.2747 78.236L28.6058 75.0842L31.543 97.2802L75.5119 95.0691L78.0202 70.9132Z" fill="white"/>
<path d="M78.0207 70.9132L73.5034 74.6424C62.4126 83.7984 46.845 85.2245 34.2752 78.236L28.6063 75.0842L31.5435 97.2802L75.5124 95.0691L78.0207 70.9132Z" fill="#DDE1E8" stroke="#BDC5D6" stroke-width="2.68811"/>
<path d="M31.7806 87.2808L36.0318 87.082C36.1388 87.0822 36.2446 87.0606 36.3429 87.0186C36.4413 86.9766 36.53 86.915 36.6037 86.8376C36.6775 86.7602 36.7347 86.6685 36.772 86.5683C36.8092 86.468 36.8256 86.3613 36.8202 86.2545C36.8149 86.1477 36.7878 86.0431 36.7407 85.9471C36.6936 85.8511 36.6275 85.7657 36.5463 85.696C36.4652 85.6264 36.3707 85.574 36.2687 85.5421C36.1666 85.5101 36.0592 85.4993 35.9528 85.5102L31.7082 85.713C31.5073 85.7336 31.3221 85.8305 31.1906 85.9837C31.0592 86.1369 30.9915 86.3348 31.0017 86.5364C31.0118 86.738 31.099 86.9281 31.2451 87.0673C31.3913 87.2066 31.5853 87.2844 31.7872 87.2848L31.7806 87.2808Z" fill="#A2CED8"/>
<path d="M32.0857 93.856L36.3348 93.6572C36.5356 93.6366 36.7209 93.5397 36.8523 93.3865C36.9838 93.2333 37.0515 93.0355 37.0413 92.8338C37.0312 92.6322 36.944 92.4422 36.7979 92.3029C36.6517 92.1637 36.4577 92.0858 36.2558 92.0855L32.0046 92.2843C31.8037 92.3049 31.6185 92.4018 31.487 92.555C31.3556 92.7082 31.2879 92.906 31.2981 93.1077C31.3082 93.3093 31.3953 93.4993 31.5415 93.6386C31.6877 93.7779 31.8817 93.8557 32.0836 93.8561L32.0857 93.856Z" fill="#A2CED8"/>
<path d="M31.9329 90.5663L36.1842 90.3697C36.385 90.349 36.5703 90.2521 36.7017 90.0989C36.8332 89.9457 36.9008 89.7479 36.8907 89.5462C36.8805 89.3446 36.7934 89.1546 36.6472 89.0153C36.5011 88.8761 36.307 88.7982 36.1052 88.7979L31.8539 88.9967C31.6458 89.0071 31.4503 89.0999 31.3105 89.2544C31.1707 89.409 31.0981 89.6128 31.1086 89.821C31.119 90.0291 31.2118 90.2246 31.3663 90.3644C31.5209 90.5042 31.7247 90.5768 31.9329 90.5663Z" fill="#A2CED8"/>
<path d="M31.628 83.9894L35.8771 83.7907C36.0779 83.77 36.2632 83.6731 36.3946 83.5199C36.5261 83.3667 36.5937 83.1689 36.5836 82.9672C36.5735 82.7656 36.4863 82.5756 36.3402 82.4363C36.194 82.2971 36 82.2192 35.7981 82.2189L31.549 82.4176C31.3482 82.4382 31.1629 82.5351 31.0315 82.6883C30.9 82.8415 30.8324 83.0394 30.8425 83.241C30.8526 83.4426 30.9398 83.6326 31.0859 83.7719C31.2321 83.9112 31.4262 83.989 31.628 83.9894Z" fill="#A2CED8"/>
<path d="M69.0785 13.7045L64.2298 18.7739" stroke="#B8DEE5" stroke-width="3.51059" stroke-miterlimit="10"/>
<path d="M28.2842 15.4165L33.326 19.5439" stroke="#B8DEE5" stroke-width="3.51059" stroke-miterlimit="10"/>
<path d="M43.9836 58.339L61.1338 57.5429C62.3545 57.4863 63.5521 57.1898 64.6582 56.6703C65.7643 56.1508 66.7572 55.4185 67.5802 54.5152C68.4032 53.6119 69.0402 52.5554 69.4548 51.4059C69.8695 50.2564 70.0536 49.0364 69.9967 47.8158L69.958 47.0459C69.9011 45.8254 69.6044 44.628 69.0848 43.5222C68.5652 42.4164 67.8328 41.4237 66.9296 40.6009C66.0264 39.7781 64.9699 39.1413 63.8206 38.7268C62.6712 38.3123 61.4515 38.1282 60.231 38.1851L43.0829 38.9812C40.6178 39.096 38.2993 40.1853 36.6372 42.0094C34.9751 43.8336 34.1057 46.2432 34.22 48.7083L34.2587 49.4782C34.3736 51.9427 35.4626 54.2607 37.2863 55.9224C39.11 57.5841 41.5191 58.4534 43.9836 58.339Z" fill="#36488B"/>
<path d="M62.6517 48.8315C62.1727 47.6747 60.9592 46.8755 59.5664 46.9229C58.1736 46.9703 57.0173 47.8501 56.618 49.0368" stroke="#56D8E3" stroke-width="2.64881" stroke-linecap="round"/>
<path d="M49.3399 49.8286C48.8609 48.6718 47.6474 47.8726 46.2546 47.92C44.8618 47.9674 43.7055 48.8472 43.3062 50.0338" stroke="#56D8E3" stroke-width="2.64881" stroke-linecap="round"/>
<path d="M67.2262 24.7947C64.9588 22.1781 62.1213 20.1166 58.9321 18.7687C55.7429 17.4208 52.2871 16.8225 48.8304 17.0199" stroke="#ECFBFF" stroke-width="2.63294" stroke-miterlimit="10" stroke-linecap="round"/>
<path d="M71.0551 31.2758C70.6178 30.2214 70.1041 29.2003 69.5181 28.2208" stroke="#ECFBFF" stroke-width="2.63294" stroke-miterlimit="10" stroke-linecap="round"/>
<path d="M72.3321 15.4857C73.3613 15.434 74.3519 15.0782 75.1789 14.4635C76.0058 13.8488 76.632 13.0026 76.9781 12.0321C77.3242 11.0615 77.3748 10.0102 77.1234 9.01086C76.872 8.01158 76.33 7.10926 75.5658 6.418C74.8017 5.72674 73.8497 5.27757 72.8303 5.1273C71.8109 4.97702 70.7698 5.13238 69.8387 5.57373C68.9076 6.01509 68.1283 6.72261 67.5992 7.60686C67.0702 8.4911 66.8152 9.51236 66.8666 10.5415C66.936 11.9218 67.5507 13.2181 68.5757 14.1452C69.6006 15.0724 70.9518 15.5546 72.3321 15.4857Z" fill="#B8DEE5"/>
<path d="M72.1794 13.2843C72.7699 13.2546 73.3384 13.0505 73.8129 12.6977C74.2874 12.3449 74.6466 11.8594 74.8452 11.3024C75.0437 10.7455 75.0727 10.1422 74.9284 9.56877C74.784 8.99538 74.4729 8.47766 74.0343 8.08109C73.5958 7.68452 73.0494 7.42691 72.4645 7.34083C71.8795 7.25474 71.2821 7.34406 70.7479 7.59748C70.2137 7.8509 69.7666 8.25705 69.4632 8.76456C69.1598 9.27206 69.0138 9.85814 69.0435 10.4487C69.0833 11.2405 69.436 11.9842 70.0241 12.516C70.6122 13.0477 71.3875 13.3241 72.1794 13.2843Z" fill="#F65539"/>
<path d="M25.6669 17.8315C26.6961 17.7802 27.687 17.4248 28.5143 16.8103C29.3415 16.1958 29.968 15.3498 30.3145 14.3793C30.6609 13.4088 30.7118 12.3573 30.4606 11.3579C30.2095 10.3584 29.6676 9.4559 28.9035 8.76442C28.1395 8.07294 27.1875 7.62356 26.168 7.47312C25.1485 7.32267 24.1074 7.47791 23.1761 7.91921C22.2449 8.36051 21.4654 9.06804 20.9363 9.95233C20.4072 10.8366 20.1521 11.858 20.2035 12.8872C20.2729 14.2672 20.8873 15.5631 21.9118 16.4902C22.9362 17.4174 24.2869 17.8998 25.6669 17.8315Z" fill="#B8DEE5"/>
<path d="M25.5029 15.632C26.0934 15.6023 26.6619 15.3981 27.1364 15.0453C27.6109 14.6926 27.9701 14.207 28.1687 13.6501C28.3672 13.0931 28.3962 12.4898 28.2518 11.9164C28.1075 11.343 27.7964 10.8253 27.3578 10.4287C26.9192 10.0322 26.3729 9.77456 25.788 9.68848C25.203 9.6024 24.6056 9.69172 24.0714 9.94514C23.5372 10.1986 23.0901 10.6047 22.7867 11.1122C22.4833 11.6197 22.3372 12.2058 22.3669 12.7963C22.4068 13.5882 22.7595 14.3318 23.3476 14.8636C23.9357 15.3954 24.711 15.6718 25.5029 15.632Z" fill="#F65539"/>
<path d="M28.6366 139.527L82.2932 136.829L79.0225 71.7877L53.9612 101.502L32.9684 80.6054L23.3553 72.1195L20.0507 78.6705C24.1141 79.8521 26.8795 83.6129 26.7961 87.8438L26.688 93.3304L28.6366 139.527Z" fill="#323749"/>
<path d="M78.4361 77.2665C112.302 111.188 111.778 76.3581 101.024 59.7139" stroke="#8CC2CF" stroke-width="7.01904" stroke-miterlimit="10"/>
<path d="M78.4359 77.2665C112.302 111.188 111.778 76.3581 101.024 59.7139" stroke="#A2CED8" stroke-width="7.01904" stroke-miterlimit="10" stroke-dasharray="8.77 5.27"/>
<path d="M77.5061 74.7124C83.9411 83.7977 86.2603 86.4495 94.4827 90.4475" stroke="#DDE1E8" stroke-width="12.2849" stroke-miterlimit="10"/>
<path d="M80.8346 66.9583L86.3972 72.0778C86.7651 72.4143 87.0415 72.8387 87.2008 73.3111C87.36 73.7835 87.3967 74.2886 87.3076 74.7791C87.2185 75.2697 87.0063 75.7295 86.6911 76.1157C86.3758 76.5019 85.9677 76.8018 85.505 76.9874L74.3914 81.5295C74.1771 81.6165 73.9889 81.7572 73.8448 81.9381C73.7008 82.119 73.6059 82.3339 73.5691 82.5622C73.5324 82.7905 73.5551 83.0244 73.635 83.2414C73.715 83.4583 73.8496 83.651 74.0257 83.8008L75.4006 84.976C75.5784 85.1281 75.7136 85.3238 75.7929 85.544C75.8722 85.7641 75.893 86.0011 75.8531 86.2316C75.8132 86.4622 75.714 86.6784 75.5653 86.8591C75.4167 87.0398 75.2235 87.1787 75.005 87.2622L55.9201 101.08C54.6379 101.572 53.5991 99.9964 54.5578 99.0333L78.9318 66.9991C79.182 66.7473 79.5201 66.6024 79.875 66.5948C80.2298 66.5871 80.5738 66.7175 80.8346 66.9583Z" fill="#454C65"/>
<path d="M24.2136 67.8374L18.3331 72.5884C17.9444 72.9007 17.6413 73.3065 17.4521 73.7678C17.263 74.2292 17.194 74.7309 17.2516 75.2262C17.3092 75.7215 17.4915 76.194 17.7815 76.5996C18.0715 77.0052 18.4597 77.3306 18.9097 77.5453L29.708 82.7932C29.9169 82.8935 30.0965 83.046 30.2293 83.236C30.3621 83.426 30.4436 83.647 30.466 83.8777C30.4884 84.1085 30.4509 84.341 30.3571 84.553C30.2634 84.765 30.1165 84.9492 29.9307 85.0878L28.4852 86.1723C28.2974 86.3121 28.1492 86.4985 28.0554 86.713C27.9615 86.9276 27.9252 87.1628 27.95 87.3957C27.9748 87.6285 28.0598 87.8509 28.1967 88.0409C28.3336 88.2309 28.5177 88.3819 28.7307 88.479L51.726 100.951C52.9739 101.526 54.1119 100.02 53.2172 98.9969L26.112 67.9986C25.8774 67.7323 25.5489 67.5669 25.1952 67.5368C24.8415 67.5068 24.4899 67.6145 24.2136 67.8374Z" fill="#454C65"/>
<path d="M101.923 61.8598C102.83 61.1411 103.605 60.2225 104.243 59.1104C105.572 56.7864 105.866 54.4181 105.117 52.0719C104.45 49.9847 103.039 48.1729 101.747 46.6763C101.559 46.4562 101.328 46.2756 101.07 46.1447C100.811 46.0138 100.53 45.9353 100.241 45.9136C99.9518 45.8918 99.6614 45.9274 99.3863 46.0181C99.1112 46.1089 98.8567 46.2531 98.6374 46.4424C98.4181 46.6318 98.2384 46.8626 98.1085 47.1216C97.9787 47.3806 97.9012 47.6627 97.8805 47.9517C97.8599 48.2408 97.8965 48.531 97.9883 48.8059C98.0801 49.0808 98.2252 49.3349 98.4154 49.5535C99.4166 50.7134 100.498 52.0788 100.923 53.4101C101.296 54.5797 101.142 55.6632 100.421 56.9233C99.0882 59.2536 97.1523 59.8028 92.7495 59.0998C92.464 59.0542 92.1723 59.0653 91.8911 59.1325C91.61 59.1996 91.3448 59.3215 91.1107 59.4912C90.8767 59.6609 90.6783 59.875 90.5271 60.1213C90.3758 60.3677 90.2745 60.6415 90.229 60.927C90.1835 61.2125 90.1946 61.5043 90.2618 61.7855C90.329 62.0667 90.451 62.332 90.6207 62.5661C90.7904 62.8003 91.0045 62.9987 91.2509 63.1501C91.4972 63.3014 91.771 63.4028 92.0564 63.4484C94.0219 63.7607 96.3286 64.0112 98.5388 63.4828C99.8154 63.1775 100.946 62.6347 101.923 61.8598Z" fill="#8CC2CF"/>
<path d="M102.508 40.9935L102.456 38.3385C102.429 36.9633 103.065 35.6589 104.165 34.8336L122.24 21.2769C124.897 19.284 128.725 20.7101 129.431 23.9558C130.088 26.9782 127.609 29.7638 124.53 29.4617L123.828 29.3927C122.99 29.3105 122.193 29.7725 121.848 30.5405L117.738 39.694C117.218 40.8509 116.277 41.7666 115.107 42.2546L108.353 45.0704L62.3012 112.649L54.9952 107.553L102.508 40.9935Z" fill="#F89F4D"/>
<path d="M56.97 82.8566C50.2337 95.9466 59.8598 99.7963 64.5052 94.8534L65.519 107.724C69.0681 116.099 74.7505 114.868 78.641 111.234C80.4917 109.504 84.0219 109.683 83.8807 112.212C83.5385 118.342 78.2779 122.907 73.2292 125.836C69.795 127.829 67.0999 131.048 66.5312 134.978L64.8459 146.621C62.9089 160.003 47.5559 166.658 36.4654 158.922L20.8896 148.058C10.2136 140.611 10.5996 124.684 21.6237 117.763L32.8523 110.714C37.6698 107.689 40.6027 102.532 41.8195 96.976C44.6156 84.2084 50.3081 79.7864 54.9282 78.953C57.0305 78.5737 57.9475 80.9571 56.97 82.8566Z" fill="#F93535"/>
<path d="M56.97 82.8566C50.2337 95.9466 59.8598 99.7963 64.5052 94.8534L65.519 107.724C69.0681 116.099 74.7505 114.868 78.641 111.234C80.4917 109.504 84.0219 109.683 83.8807 112.212C83.5385 118.342 78.2779 122.907 73.2292 125.836C69.795 127.829 67.0999 131.048 66.5312 134.978L64.8459 146.621C62.9089 160.003 47.5559 166.658 36.4654 158.922L20.8896 148.058C10.2136 140.611 10.5996 124.684 21.6237 117.763L32.8523 110.714C37.6698 107.689 40.6027 102.532 41.8195 96.976C44.6156 84.2084 50.3081 79.7864 54.9282 78.953C57.0305 78.5737 57.9475 80.9571 56.97 82.8566Z" fill="#F93535"/>
<path d="M56.9701 82.8563C50.2339 95.9464 59.8599 99.7961 64.5053 94.8531L65.5191 107.724C69.0682 116.099 74.7507 114.868 78.6411 111.233C80.4918 109.504 84.022 109.683 83.8809 112.212C83.5386 118.342 78.278 122.906 73.2293 125.836C69.7951 127.829 67.1 131.048 66.5313 134.977L64.846 146.621C62.9091 160.003 47.556 166.658 36.4655 158.922L20.8897 148.057C10.2138 140.611 10.5997 124.684 21.6238 117.763L32.8524 110.714C37.6699 107.689 40.6028 102.532 41.8196 96.9757C44.6157 84.2081 50.3083 79.7861 54.9283 78.9527C57.0307 78.5734 57.9476 80.9568 56.9701 82.8563Z" fill="#F93535"/>
<path fill-rule="evenodd" clip-rule="evenodd" d="M62.0125 108.581L61.3659 100.372C58.8148 100.79 56.1427 100.165 54.0524 98.2349C50.5717 95.0208 50.2247 89.7244 52.6581 83.711C50.1215 85.4582 47.1371 89.3505 45.3003 97.7379C43.9382 103.957 40.5828 110.068 34.7469 113.731L23.5183 120.781C14.6558 126.344 14.3455 139.148 22.9281 145.135L38.504 156C47.4198 162.219 59.7625 156.869 61.3197 146.11L63.0049 134.467C63.7691 129.187 67.3324 125.138 71.441 122.754C75.0841 120.64 78.0779 118.051 79.4787 115.154C77.3164 116.723 74.5588 117.887 71.5235 117.52C67.4155 117.022 64.2818 113.936 62.2384 109.114L62.0125 108.581ZM61.085 96.8065C56.5155 97.7501 51.661 93.173 56.9701 82.8563C57.9476 80.9568 57.0307 78.5734 54.9283 78.9527C50.3083 79.7861 44.6157 84.2081 41.8196 96.9757C40.6028 102.532 37.6699 107.689 32.8524 110.714L21.6238 117.763C10.5997 124.684 10.2138 140.611 20.8897 148.057L36.4655 158.922C47.556 166.658 62.9091 160.003 64.846 146.621L66.5313 134.977C67.1 131.048 69.7951 127.829 73.2293 125.836C78.278 122.906 83.5386 118.342 83.8809 112.212C84.022 109.683 80.4918 109.504 78.6411 111.233C74.7507 114.868 69.0682 116.099 65.5191 107.724L64.5053 94.8531C63.5211 95.9003 62.3134 96.5529 61.085 96.8065Z" fill="#F93535"/>
<path d="M65.2956 134.594L63.5803 147.039C62.8635 152.24 59.2671 156.588 54.2929 158.268C52.9491 158.722 51.576 157.663 51.6733 156.248L51.8773 153.28C52.1452 149.384 50.3492 145.633 47.1463 143.399L33.5708 133.93C30.1153 131.519 28.8648 126.991 30.5939 123.149C31.5924 120.93 33.2163 119.051 35.2667 117.741L42.0434 113.411C45.5472 111.173 48.2446 107.874 49.7424 103.996L52.0085 98.1275C52.7432 96.2248 55.293 95.8906 56.4932 97.5398L64.3712 108.364C66.2427 112.697 68.8379 114.928 71.8186 115.289C74.7323 115.642 77.5046 114.133 79.5868 112.187C80.2143 111.601 81.1569 111.337 81.8603 111.43C82.1978 111.475 82.3761 111.586 82.4524 111.664C82.5008 111.713 82.5833 111.816 82.567 112.109C82.2629 117.557 77.4821 121.833 72.4328 124.732C68.8264 126.803 65.8926 130.262 65.2956 134.594Z" fill="white" stroke="#F93535" stroke-width="2.68811"/>
<path d="M101.894 41.8516C102.234 41.3748 102.895 41.2608 103.375 41.596L107.486 44.463C107.966 44.7982 108.087 45.4576 107.757 45.9417L62.9096 111.754C62.5746 112.245 61.9027 112.369 61.4147 112.029L55.8814 108.169C55.3934 107.829 55.2772 107.155 55.6229 106.671L101.894 41.8516Z" fill="#965F34"/>
<rect x="57.9519" y="103.314" width="8.90709" height="0.712622" rx="0.356311" transform="rotate(34.8966 57.9519 103.314)" fill="#C68A5C"/>
<rect x="56.2424" y="105.598" width="9.09843" height="0.712622" rx="0.356311" transform="rotate(34.8966 56.2424 105.598)" fill="#C68A5C"/>
<rect x="59.4963" y="100.917" width="9.1155" height="0.712622" rx="0.356311" transform="rotate(34.8966 59.4963 100.917)" fill="#C68A5C"/>
<rect x="61.1926" y="98.6255" width="8.95451" height="0.712622" rx="0.356311" transform="rotate(34.8966 61.1926 98.6255)" fill="#C68A5C"/>
<rect x="63.001" y="95.9771" width="9.02096" height="0.712622" rx="0.356311" transform="rotate(34.8966 63.001 95.9771)" fill="#C68A5C"/>
<rect x="65.1267" y="93.1147" width="8.80802" height="0.712622" rx="0.356311" transform="rotate(34.8966 65.1267 93.1147)" fill="#C68A5C"/>
<rect x="67.1812" y="89.7705" width="8.9685" height="0.712622" rx="0.356311" transform="rotate(34.8966 67.1812 89.7705)" fill="#C68A5C"/>
<rect x="69.6482" y="86.7114" width="8.71739" height="0.712622" rx="0.356311" transform="rotate(34.8966 69.6482 86.7114)" fill="#C68A5C"/>
<rect x="71.928" y="83.5215" width="8.62735" height="0.712622" rx="0.356311" transform="rotate(34.8966 71.928 83.5215)" fill="#C68A5C"/>
<rect x="74.6094" y="79.7456" width="8.55146" height="0.712622" rx="0.356311" transform="rotate(34.8966 74.6094 79.7456)" fill="#C68A5C"/>
<rect x="77.5613" y="76.1572" width="7.81241" height="0.712622" rx="0.356311" transform="rotate(34.8966 77.5613 76.1572)" fill="#C68A5C"/>
<rect x="80.2249" y="72.3667" width="7.78189" height="0.712622" rx="0.356311" transform="rotate(34.8966 80.2249 72.3667)" fill="#C68A5C"/>
<rect x="83.2993" y="67.9941" width="7.74015" height="0.712622" rx="0.356311" transform="rotate(34.8966 83.2993 67.9941)" fill="#C68A5C"/>
<rect x="86.387" y="63.6333" width="7.66643" height="0.712622" rx="0.356311" transform="rotate(34.8966 86.387 63.6333)" fill="#C68A5C"/>
<rect x="89.4395" y="59.2451" width="7.68116" height="0.712622" rx="0.356311" transform="rotate(34.8966 89.4395 59.2451)" fill="#C68A5C"/>
<rect x="92.4321" y="54.8169" width="7.83884" height="0.712622" rx="0.356311" transform="rotate(34.8966 92.4321 54.8169)" fill="#C68A5C"/>
<rect x="95.4905" y="50.4316" width="7.83884" height="0.712622" rx="0.356311" transform="rotate(34.8966 95.4905 50.4316)" fill="#C68A5C"/>
<rect x="98.5461" y="46.0483" width="7.83884" height="0.712622" rx="0.356311" transform="rotate(34.8966 98.5461 46.0483)" fill="#C68A5C"/>
<rect x="101.605" y="41.6665" width="7.83884" height="0.712622" rx="0.356311" transform="rotate(34.8966 101.605 41.6665)" fill="#C68A5C"/>
<rect opacity="0.5" x="52.3557" y="108.535" width="12.1146" height="3.2068" rx="1.6034" transform="rotate(34.8966 52.3557 108.535)" fill="#C4C4C4"/>
<path d="M105.668 36.4629C79.9554 73.326 61.5643 99.6924 35.8515 136.555" stroke="#C4C4C4" stroke-width="0.448018" stroke-linecap="round"/>
<path d="M108.876 34.356C83.1629 71.2191 62.7334 100.508 37.0206 137.371" stroke="#C4C4C4" stroke-width="0.448018" stroke-linecap="round"/>
<path d="M112.593 31.5176C86.88 68.3807 63.9023 101.322 38.1895 138.186" stroke="#C4C4C4" stroke-width="0.448018" stroke-linecap="round"/>
<path d="M115.801 29.4111C90.088 66.2742 65.0719 102.138 39.3591 139.002" stroke="#C4C4C4" stroke-width="0.448018" stroke-linecap="round"/>
<path d="M119.314 26.8657C93.6012 63.7288 66.2409 102.954 40.5281 139.817" stroke="#C4C4C4" stroke-width="0.448018" stroke-linecap="round"/>
<path d="M122.725 24.4668C97.0123 61.3299 67.4097 103.77 41.6969 140.633" stroke="#C4C4C4" stroke-width="0.448018" stroke-linecap="round"/>
<rect x="112.586" y="29.3945" width="2.29073" height="2.47098" rx="1.14537" transform="rotate(46.3619 112.586 29.3945)" fill="#E5E5E5"/>
<rect x="109.236" y="31.876" width="2.29073" height="2.47098" rx="1.14537" transform="rotate(46.3619 109.236 31.876)" fill="#E5E5E5"/>
<rect x="105.885" y="34.3579" width="2.29073" height="2.47098" rx="1.14537" transform="rotate(46.3619 105.885 34.3579)" fill="#E5E5E5"/>
<path d="M57.1446 100.465C38.2319 112.1 30.1579 118.508 20.3792 107.252" stroke="#8CC2CF" stroke-width="7.01904" stroke-miterlimit="10"/>
<path d="M57.1441 100.465C38.2314 112.1 30.1574 118.508 20.3787 107.252" stroke="#A2CED8" stroke-width="7.01904" stroke-miterlimit="10" stroke-dasharray="8.77 5.27"/>
<path d="M104.268 59.1489C104.13 59.3926 103.946 59.6072 103.727 59.7814L100.968 55.76C101.205 54.9692 101.192 54.2192 100.939 53.4296C100.512 52.0945 99.4285 50.724 98.4254 49.5597C98.235 49.3402 98.0894 49.0853 97.9972 48.8096C97.905 48.5339 97.8679 48.2429 97.888 47.9532C97.9081 47.6636 97.9851 47.3809 98.1145 47.1216C98.2439 46.8622 98.4232 46.6312 98.6421 46.4417C98.861 46.2523 99.1152 46.1082 99.3901 46.0177C99.665 45.9273 99.9552 45.8921 100.244 45.9144C100.533 45.9367 100.815 46.0159 101.074 46.1476C101.332 46.2792 101.563 46.4606 101.752 46.6815C103.046 48.1838 104.46 50.0023 105.13 52.0955C105.883 54.4485 105.593 56.8218 104.268 59.1489Z" fill="#8CC2CF"/>
<path d="M68.5191 102.119C55.7829 107.438 51.4409 96.1583 61.8403 90.9508" stroke="#8CC2CF" stroke-width="4.50095" stroke-linecap="round"/>
</g>
</svg>
