<?xml version="1.0"?>
<svg xmlns="http://www.w3.org/2000/svg" viewBox="0 0 112 112" fill="none">
<rect x="15.9199" y="96.1182" width="70.8413" height="91.943" rx="4.01936" transform="rotate(-99.0501 15.9199 96.1182)" fill="#DCDEE2"/>
<rect x="18.5459" y="87.0508" width="58.7832" height="82.8994" rx="4.01936" transform="rotate(-99.0501 18.5459 87.0508)" fill="#675E9F"/>
<path d="M15.1787 35.7615L19.9312 29.221C20.3547 28.6381 21.1696 28.5069 21.7547 28.9273L27.2626 32.8848C27.8478 33.3052 28.6626 33.174 29.0862 32.5911L33.073 27.1044C33.4965 26.5215 34.3114 26.3903 34.8965 26.8107L40.4044 30.7681C40.9896 31.1886 41.8044 31.0573 42.228 30.4744L46.2148 24.9878C46.6384 24.4049 47.4532 24.2736 48.0384 24.6941L53.5463 28.6515C54.1314 29.0719 54.9463 28.9407 55.3698 28.3578L59.3566 22.8711C59.7802 22.2882 60.595 22.157 61.1802 22.5774L66.6881 26.5349C67.2732 26.9553 68.0881 26.8241 68.5116 26.2412L72.4984 20.7545C72.922 20.1716 73.7368 20.0403 74.322 20.4608L79.8299 24.4182C80.415 24.8387 81.2299 24.7074 81.6534 24.1245L85.1468 19.317C85.6508 18.6233 86.6745 18.5932 87.2185 19.256L90.8458 23.6762" stroke="#59508E" stroke-width="1.30956" stroke-linecap="round"/>
<path d="M13.5229 29.6834L85.9379 17.5324" stroke="#59508E" stroke-width="1.30956" stroke-linecap="round"/>
<path d="M12.9531 36.1216L91.5823 23.5197" stroke="#59508E" stroke-width="1.30956" stroke-linecap="round"/>
<path fill-rule="evenodd" clip-rule="evenodd" d="M13.3389 28.3579L21.3495 27.082L22.5305 27.4923C23.1852 27.7197 23.6678 28.2805 23.7951 28.9617L24.4278 32.3467C24.5622 33.0657 24.2788 33.799 23.6958 34.2408L14.8235 40.9636C14.2405 41.4054 13.4579 41.4798 12.802 41.1559L11.0999 40.3154L9.93011 32.9709C9.80401 32.1792 9.9183 31.4048 10.219 30.7219L13.3389 28.3579Z" fill="#5E5495"/>
<path fill-rule="evenodd" clip-rule="evenodd" d="M10.4893 36.4853C13.674 32.0168 18.1555 29.1555 23.3515 28.0433C23.5766 28.2987 23.7321 28.6163 23.7964 28.9635L24.4302 32.3482C24.5645 33.0667 24.2812 33.8004 23.698 34.2423L14.8251 40.9656C14.2438 41.406 13.4609 41.4803 12.8035 41.1581L11.0995 40.3159L10.4893 36.4853Z" fill="#51478D"/>
<ellipse cx="19.0645" cy="37.3465" rx="6.75941" ry="1.60938" transform="rotate(-37.1524 19.0645 37.3465)" fill="#FDFF9D" stroke="#7B6FBB" stroke-width="1.00484"/>
<path fill-rule="evenodd" clip-rule="evenodd" d="M92.9275 27.0216L91.4186 28.4821C90.8912 28.9926 90.1207 29.1613 89.4282 28.9179L78.8911 25.2138C78.1987 24.9703 77.7032 24.3566 77.6112 23.6284L77.1784 20.2004C77.0913 19.5105 77.3805 18.8268 77.9363 18.4089L78.5108 17.9769L87.1964 16.5934C87.265 16.5825 87.3334 16.5734 87.4017 16.566L90.663 17.7125C91.2469 18.2922 91.6587 19.0558 91.798 19.9305L92.9275 27.0216Z" fill="#5E5495"/>
<path fill-rule="evenodd" clip-rule="evenodd" d="M92.925 27.0233L91.4161 28.4847C90.8867 28.994 90.1159 29.163 89.4256 28.9203L78.8878 25.2159C78.1951 24.9724 77.6996 24.3582 77.6077 23.6306L77.176 20.2025C77.131 19.8511 77.1822 19.5 77.319 19.187C83.1709 18.7511 88.5488 20.1591 92.3075 23.147L92.925 27.0233Z" fill="#51478D"/>
<ellipse rx="6.78222" ry="1.61481" transform="matrix(-0.943406 -0.331639 -0.331639 0.943406 84.2663 26.761)" fill="#FDFF9D" stroke="#7B6FBB" stroke-width="1.00484"/>
<path opacity="0.2" d="M18.3408 65.7062L14.2575 41.0704L24.2559 33.4972L90.8942 59.045C93.4097 60.0094 95.3282 62.0964 96.078 64.684C97.5262 69.6817 94.2411 74.8111 89.0959 75.5862L41.7475 82.719C30.6071 84.3973 20.183 76.8206 18.3408 65.7062Z" fill="#FDFF9D"/>
<path opacity="0.2" d="M85.399 76.4072L90.4843 28.5911L78.2737 24.1587L20.5111 73.1304C18.4997 74.8356 17.5888 77.5087 18.1404 80.0873C18.9351 83.802 22.4932 86.249 26.2463 85.6618L85.399 76.4072Z" fill="#FDFF9D"/>
<path d="M55.7661 76.1607C55.7661 76.1607 52.2293 77.8296 47.9629 72.811" stroke="#FFB155" stroke-width="2.80053" stroke-linecap="round"/>
<path d="M23.0969 58.6226L25.315 69.9255C25.4028 70.3968 25.8722 70.2811 25.8403 69.8061L24.9889 57.1202C24.9476 56.5055 24.4743 56.1443 24.1335 56.504L23.3478 57.3427C23.1169 57.6669 23.0091 58.1513 23.0969 58.6226Z" fill="#E9EFF2"/>
<path d="M35.1427 56.6083L34.168 55.8878C33.7543 55.5788 33.2776 56.0037 33.3189 56.6185L34.1703 69.3043C34.2022 69.7793 34.7089 69.8015 34.7627 69.3488L35.6183 57.8395C35.6664 57.3029 35.4669 56.8392 35.1427 56.6083Z" fill="#E9EFF2"/>
<path d="M39.8781 51.663C41.954 60.0841 44.6305 66.2015 40.8707 66.4512C36.1132 66.7671 35.4523 56.9956 32.9458 57.1638" stroke="#323749" stroke-width="4.48084" stroke-linecap="round"/>
<path d="M40.1923 52.5772C40.4415 52.4736 40.6319 52.3457 40.8051 52.1763C40.9782 52.0068 41.1514 51.8374 41.2606 51.5728C41.3576 51.3375 41.4426 51.1317 41.4514 50.86C41.4691 50.3168 41.506 49.6437 41.4648 49.0762C41.4116 48.5381 41.2683 48.1348 40.9 47.7764C40.5317 47.418 40.0664 47.2948 39.5646 47.2598C39.3051 47.2215 39.0974 47.3079 38.8482 47.4115C38.6111 47.4858 38.438 47.6552 38.2648 47.8246C38.0917 47.9941 37.9773 48.1878 37.8681 48.4524C37.7711 48.6876 37.745 48.9177 37.7361 49.1894C37.7478 49.7448 37.6988 50.4472 37.7105 51.0026C37.7344 51.5286 37.8189 51.9076 38.175 52.2955C38.5312 52.6833 38.9499 52.7528 39.4516 52.7878C39.706 52.7551 39.9431 52.6809 40.1923 52.5772Z" fill="#FFB155"/>
<path d="M36.2018 48.0762C36.9986 49.2308 37.7832 50.4149 38.5264 51.6162" stroke="#FFB155" stroke-width="1.27239" stroke-linecap="round"/>
<path d="M37.2028 44.3941C37.6253 46.289 38.0894 48.1667 38.3994 50.084C38.0894 48.1667 37.6253 46.289 37.2028 44.3941Z" fill="#FFB155"/>
<path d="M37.2028 44.3941C37.6253 46.289 38.0894 48.1667 38.3994 50.084" stroke="#FFB155" stroke-width="1.27239" stroke-linecap="round"/>
<path d="M38.6943 43.7003C38.9786 45.2629 39.2629 46.8255 39.5352 48.4175C39.2508 46.8549 38.9786 45.2629 38.6943 43.7003Z" fill="#FFB155"/>
<path d="M38.6943 43.7003C38.9786 45.2629 39.2629 46.8255 39.5352 48.4175" stroke="#FFB155" stroke-width="1.27239" stroke-linecap="round"/>
<path d="M40.4986 44.5825C40.6359 46.0844 40.8027 47.5985 40.8984 49.1177C40.8027 47.5985 40.6359 46.0844 40.4986 44.5825Z" fill="#FFB155"/>
<path d="M40.4986 44.5825C40.6359 46.0844 40.8027 47.5985 40.8984 49.1177" stroke="#FFB155" stroke-width="1.27239" stroke-linecap="round"/>
<path fill-rule="evenodd" clip-rule="evenodd" d="M18.6979 84.904C19.5677 86.0304 21.0099 86.6588 22.5142 86.4192L22.9885 86.3436C22.9396 86.2364 22.8763 86.1337 22.7982 86.0382C21.925 84.9697 21.2405 83.8367 20.6658 82.5577C19.2322 77.6314 18.5889 74.3012 18.8847 71.1794C19.1795 68.0674 20.4251 65.0065 23.1133 60.6749C23.5211 60.0178 23.319 59.1546 22.6619 58.7468C22.0048 58.339 21.1415 58.5411 20.7338 59.1982C17.9508 63.6824 16.4507 67.1773 16.0966 70.9153C16.0806 71.0845 16.067 71.2538 16.0557 71.4234L17.9127 83.0821C17.9175 83.1123 17.9226 83.1423 17.9281 83.1723C17.9532 83.259 17.9785 83.346 18.004 83.4335L18.0302 83.5232L18.0681 83.6087C18.2647 84.0521 18.4739 84.4833 18.6979 84.904Z" fill="#FFB155"/>
<path fill-rule="evenodd" clip-rule="evenodd" d="M16.0156 71.1734C16.1079 69.864 16.2613 68.5749 16.4756 67.3294C17.288 62.6064 19.0707 57.9678 22.274 55.5073C23.2553 54.7536 24.6618 54.9381 25.4155 55.9193C26.1693 56.9006 25.9848 58.3071 25.0035 59.0609C23.1785 60.4627 21.6511 63.6732 20.8916 68.089C20.1527 72.3845 20.2329 77.311 21.1342 81.5358C21.3924 82.7459 20.6207 83.9362 19.4106 84.1944C19.0022 84.2815 18.596 84.2513 18.2272 84.1266C18.0788 83.8024 17.9715 83.453 17.9127 83.0837L16.0156 71.1734Z" fill="#323749"/>
<path d="M34.6403 59.5604L35.7545 76.5792C36.0039 80.2955 33.6916 83.4821 30.618 83.6884C27.5163 83.8966 24.8269 81.0457 24.5775 77.3294L23.4354 60.3124C23.186 56.5961 25.4982 53.4095 28.5719 53.2032L28.5998 53.2014C31.6716 52.9671 34.3909 55.8441 34.6403 59.5604Z" fill="#CCD5E9"/>
<path d="M30.156 62.3485L27.5839 62.8987C27.4293 62.9317 27.3111 63.0566 27.2866 63.2128L26.5393 67.9723C26.4978 68.2369 26.7345 68.461 26.9964 68.4049L28.086 68.1719C28.3528 68.1148 28.5916 68.3478 28.5412 68.6159L28.1054 70.9315C28.0299 71.3327 28.5519 71.5566 28.7905 71.2253L32.5757 65.9698C32.7798 65.6863 32.5276 65.3001 32.1859 65.3732L30.399 65.7555C30.1203 65.8151 29.8769 65.5594 29.9501 65.284L30.6049 62.8199C30.6781 62.5445 30.4347 62.2889 30.156 62.3485Z" fill="#B0BFE0"/>
<path d="M25.7795 60.5214L24.4941 60.6077L24.2935 57.6178C24.286 57.5061 24.366 57.4446 24.4499 57.4389L25.5396 57.3658L25.7516 60.5233L25.7795 60.5214Z" fill="#CCD5E9"/>
<path fill-rule="evenodd" clip-rule="evenodd" d="M36.7691 84.1508L23.318 86.2933C23.3174 86.2856 23.3168 86.2778 23.3163 86.27L23.0458 82.2396C22.9812 81.2771 23.6425 80.4472 24.4991 80.3897L34.9209 79.6902C35.7775 79.6327 36.5438 80.3669 36.5799 81.3313L36.7691 84.1508Z" fill="#8A2442"/>
<path d="M34.585 74.6795L24.1632 75.379C23.3066 75.4365 22.6453 76.2664 22.7099 77.2289L22.9804 81.2593C23.045 82.2218 23.8113 82.9559 24.6679 82.8984L35.0611 82.2008C35.9177 82.1433 36.579 81.3134 36.5144 80.3509L36.2439 76.3205C36.2079 75.3561 35.4416 74.622 34.585 74.6795Z" fill="#CCD5E9"/>
<path fill-rule="evenodd" clip-rule="evenodd" d="M22.0183 86.4698C22.1825 86.4641 22.3482 86.4482 22.5146 86.4217L26.2138 85.8324L24.2956 57.2523C24.1662 55.3243 25.6278 53.6824 27.5279 53.5549L29.536 53.364C31.5478 53.2289 33.3111 55.2446 33.4461 57.2565L35.2673 84.3904L37.7667 83.9923L36.1354 59.6864C35.8205 55.413 32.125 52.2087 27.8777 52.4937C23.4069 52.7938 20.0182 56.6701 20.3183 61.1409L22.0183 86.4698Z" fill="#323749"/>
<path d="M53.4267 76.4636C53.4995 76.7113 53.6002 76.9572 53.753 77.1434C53.9077 77.3576 54.0605 77.5438 54.2935 77.6685C54.5283 77.8212 54.7015 77.8937 54.9866 77.9588C55.5269 78.0629 56.2106 78.2135 56.7732 78.2318C57.3358 78.2502 57.7512 78.1662 58.1777 77.8288C58.6041 77.4915 58.7716 77.0592 58.9074 76.5729C58.9743 76.3158 58.9295 76.0662 58.8567 75.8185C58.784 75.5707 58.6851 75.3528 58.5323 75.1666C58.3794 74.9804 58.2005 74.824 57.9676 74.6993C57.7347 74.5746 57.5335 74.5039 57.2503 74.4667C56.684 74.3925 55.9723 74.2438 55.4357 74.1956C54.8992 74.1474 54.5099 74.2016 54.0797 74.4831C53.6513 74.7925 53.51 75.1949 53.4021 75.6793C53.3091 75.9663 53.3539 76.2159 53.4267 76.4636Z" fill="#FFB155"/>
<path d="M58.5589 73.0869C57.2551 73.7357 55.9477 74.3287 54.6402 74.9217" stroke="#FFB155" stroke-width="1.12021" stroke-linecap="round"/>
<path d="M62.1181 74.6459C60.1361 74.807 58.182 74.9662 56.1943 75.0435C58.182 74.9662 60.164 74.8051 62.1181 74.6459Z" fill="#FFB155"/>
<path d="M62.1181 74.6459C60.1361 74.807 58.182 74.9662 56.1943 75.0435" stroke="#FFB155" stroke-width="1.12021" stroke-linecap="round"/>
<path d="M62.5891 76.2401C60.9647 76.293 59.3422 76.3739 57.7178 76.4268C59.3422 76.3739 60.9647 76.293 62.5891 76.2401Z" fill="#FFB155"/>
<path d="M62.5891 76.2401C60.9647 76.293 59.3422 76.3739 57.7178 76.4268" stroke="#FFB155" stroke-width="1.12021" stroke-linecap="round"/>
<path d="M61.4409 77.9458C59.8909 77.8534 58.3429 77.7888 56.791 77.6685C58.3429 77.7888 59.8928 77.8813 61.4409 77.9458Z" fill="#FFB155"/>
<path d="M61.4409 77.9458C59.8909 77.8534 58.3429 77.7888 56.791 77.6685" stroke="#FFB155" stroke-width="1.12021" stroke-linecap="round"/>
<path d="M34.5106 53.8919C31.7795 49.5842 24.7082 50.0308 22.6071 54.6908C22.5829 54.7485 22.5866 54.8044 22.6164 54.8305L24.2664 57.6669C24.2319 55.4799 26.0418 53.5901 28.4448 53.4289C30.9317 53.2619 33.0952 54.9692 33.3329 57.2549L34.5479 54.0297C34.5441 53.9738 34.5422 53.9459 34.5106 53.8919Z" fill="#454C65"/>
<path fill-rule="evenodd" clip-rule="evenodd" d="M27.7628 44.5294C28.6875 44.4507 29.5009 45.1366 29.5796 46.0612L30.2444 53.8757C30.323 54.8004 29.6372 55.6138 28.7125 55.6924C27.7879 55.7711 26.9745 55.0853 26.8958 54.1606L26.231 46.3461C26.1523 45.4214 26.8382 44.6081 27.7628 44.5294Z" fill="#EFA043"/>
<path d="M30.705 53.7892C30.8002 54.8756 29.8686 55.8397 28.6242 55.9428C27.3797 56.0458 26.5396 55.1615 26.4443 54.0752" stroke="#ECF2FF" stroke-width="1.00484" stroke-linecap="round"/>
<path d="M22.9048 35.2841L33.1317 34.5977C34.6406 34.4965 35.7875 33.1845 35.6863 31.6756C35.585 30.1667 34.273 29.0198 32.7641 29.121L22.5372 29.8074C21.0283 29.9087 19.8813 31.2207 19.9826 32.7296C20.0839 34.2385 21.3959 35.3854 22.9048 35.2841Z" fill="#F0F0F0"/>
<path d="M24.5635 41.6024L32.5271 41.068C33.9521 40.9723 35.2045 42.0671 35.3001 43.4922C35.3958 44.9172 34.301 46.1696 32.8759 46.2652L24.9123 46.7997C23.4873 46.8954 22.2349 45.8006 22.1393 44.3755C22.0436 42.9504 23.1384 41.6981 24.5635 41.6024Z" fill="#F0F0F0"/>
<path d="M20.6642 37.8489L34.9986 36.8868C36.7869 36.7668 38.3281 37.9825 38.4369 39.6032L38.4631 39.9944C38.5719 41.615 37.207 43.0258 35.4187 43.1459L21.0843 44.108C19.296 44.228 17.7548 43.0122 17.646 41.3916L17.6198 41.0004C17.511 39.3797 18.8759 37.9689 20.6642 37.8489Z" fill="#F0F0F0"/>
<path d="M20.9321 32.6646L35.1269 31.7119C37.474 31.5544 39.5091 33.4387 39.6779 35.9535C39.8448 38.4404 38.0816 40.6077 35.7345 40.7653L21.5397 41.718C19.1926 41.8755 17.1575 39.9912 16.9887 37.4764C16.7938 34.9914 18.5849 32.8222 20.9321 32.6646Z" fill="#F0F0F0"/>
<path d="M25.3856 32.8991L29.6608 32.6121C30.8902 32.5296 31.8007 31.4581 31.7201 30.2565C31.6376 29.0271 30.566 28.1166 29.3645 28.1972L25.0893 28.4842C23.8598 28.5667 22.9494 29.6383 23.03 30.8398C23.1106 32.0413 24.1561 32.9816 25.3856 32.8991Z" fill="#F0F0F0"/>
<path d="M27.4507 31.0781L26.0815 31.17C22.5608 31.4063 20.1144 34.6861 20.3282 37.8715L20.692 43.2923C20.7408 44.0188 21.123 44.6949 21.8013 45.1827C22.4498 45.6444 23.3087 45.8955 24.1749 45.8373L28.8413 45.5241C29.7075 45.466 30.527 45.1303 31.1061 44.5582C31.6871 44.0139 32.0016 43.2631 31.9528 42.5366L31.3752 33.9303C31.3208 33.12 30.8752 32.3359 30.1392 31.8239C29.3994 31.2561 28.4287 31.0125 27.4507 31.0781Z" fill="#FFB465"/>
<path d="M20.963 42.2922C21.5803 42.2508 22.0472 41.7168 22.0057 41.0995C21.9643 40.4822 21.4303 40.0154 20.813 40.0568C20.1957 40.0983 19.7289 40.6322 19.7703 41.2495C19.8118 41.8668 20.3458 42.3336 20.963 42.2922Z" fill="white"/>
<path d="M19.8091 40.9917C19.8871 40.4812 20.3098 40.088 20.8407 40.0523C21.4555 40.0111 21.9922 40.4803 22.0334 41.095L22.0578 41.4583" stroke="#B06F44" stroke-width="0.560105" stroke-linecap="round"/>
<path d="M21.4365 41.8381L21.4645 41.8362C21.7718 41.8156 22.0064 41.5472 21.9858 41.2399L21.9839 41.2119C21.9633 40.9046 21.6949 40.67 21.3876 40.6906L21.3596 40.6925C21.0523 40.7131 20.8177 40.9815 20.8383 41.2888L20.8402 41.3168C20.8608 41.6241 21.1292 41.8587 21.4365 41.8381Z" fill="#B06F44"/>
<path d="M25.4308 41.9929C26.0481 41.9515 26.5149 41.4175 26.4735 40.8002C26.4321 40.1829 25.8981 39.7161 25.2808 39.7575C24.6635 39.7989 24.1967 40.3329 24.2381 40.9502C24.2795 41.5675 24.8135 42.0343 25.4308 41.9929Z" fill="white"/>
<path d="M25.4308 41.9929C26.0481 41.9515 26.5149 41.4175 26.4735 40.8002C26.4321 40.1829 25.8981 39.7161 25.2808 39.7575C24.6635 39.7989 24.1967 40.3329 24.2381 40.9502C24.2795 41.5675 24.8135 42.0343 25.4308 41.9929Z" fill="white"/>
<path d="M25.9072 41.5378L25.9352 41.5359C26.2425 41.5153 26.4771 41.247 26.4565 40.9396L26.4546 40.9116C26.434 40.6043 26.1656 40.3697 25.8583 40.3903L25.8303 40.3922C25.523 40.4128 25.2884 40.6812 25.309 40.9885L25.3109 41.0165C25.3315 41.3238 25.5999 41.5584 25.9072 41.5378Z" fill="#B06F44"/>
<path d="M20.9349 42.7409L27.0543 42.3302L26.9812 41.2404L19.8838 41.7168L19.8932 41.8565C19.9567 42.3855 20.404 42.7765 20.9349 42.7409Z" fill="#FFB465"/>
<path d="M21.7363 43.3896L31.4323 42.7389L31.5599 44.639C31.8487 48.9421 28.5884 52.6414 24.3132 52.9283L23.3911 52.9902C22.8323 53.0277 22.3831 52.6088 22.3475 52.0779L21.7643 43.3878L21.7363 43.3896Z" fill="#FFB465"/>
<path d="M30.3433 37.7886C30.2983 37.1179 30.8196 36.5216 31.4902 36.4766C32.1608 36.4316 32.7572 36.9529 32.8022 37.6235L32.9766 40.2222C33.0216 40.8928 32.5002 41.4891 31.8296 41.5341C31.159 41.5792 30.5627 41.0578 30.5177 40.3872L30.3433 37.7886Z" fill="#F0F0F0"/>
<path d="M32.0918 44.6025C33.0139 44.5406 33.7177 43.7355 33.6558 42.8134L33.5789 41.6678C33.517 40.7457 32.7119 40.0419 31.7898 40.1038C30.8677 40.1657 30.1639 40.9708 30.2258 41.8929L30.3027 43.0385C30.3646 43.9606 31.1697 44.6644 32.0918 44.6025Z" fill="#FFB465"/>
<path d="M32.0104 43.3727C32.3736 43.3483 32.6324 43.0222 32.6099 42.6869L32.5593 41.9324C32.5349 41.5692 32.2088 41.3104 31.8735 41.3329C31.6779 41.346 31.5158 41.4411 31.4116 41.5603" stroke="#EFA043" stroke-width="0.560105" stroke-linecap="round"/>
<path d="M27.72 44.2807C27.4685 44.2975 27.2598 44.1151 27.2429 43.8636C27.226 43.6121 27.4085 43.4034 27.66 43.3865C27.9114 43.3696 28.1202 43.5521 28.137 43.8036C28.1539 44.0551 27.9715 44.2638 27.72 44.2807Z" fill="#EFA043"/>
<path d="M24.3024 36.0042C25.9639 35.6681 26.7563 37.0184 26.7563 37.0184" stroke="white" stroke-width="1.40026" stroke-linecap="round"/>
<path d="M25.1027 49.1994L24.3203 49.252" stroke="#EFA043" stroke-width="0.560105" stroke-linecap="round"/>
<path d="M22.2905 40.7409C22.5156 44.094 20.1028 43.2735 20.1947 44.6427C20.2097 44.8663 20.3066 45.0562 20.4576 45.2145C20.6086 45.3728 20.8098 45.4435 21.0333 45.4285L23.7717 45.2447C23.9673 45.2316 24.1852 45.1327 24.3136 44.9557C24.4421 44.7787 24.5128 44.5774 24.4978 44.3539C24.4828 44.1304 24.3858 43.9404 24.2349 43.7821C24.0839 43.6238 23.8827 43.5531 23.6591 43.5682" fill="#FFB465"/>
<path d="M22.2905 40.7409C22.5156 44.094 20.1028 43.2735 20.1947 44.6427C20.2097 44.8663 20.3066 45.0562 20.4576 45.2145C20.6086 45.3728 20.8098 45.4435 21.0333 45.4285L23.7717 45.2447C23.9673 45.2316 24.1852 45.1327 24.3136 44.9557C24.4421 44.7787 24.5128 44.5774 24.4978 44.3539C24.4828 44.1304 24.3858 43.9404 24.2349 43.7821C24.0839 43.6238 23.8827 43.5531 23.6591 43.5682" stroke="#EFA043" stroke-width="0.560105" stroke-linecap="round"/>
<path opacity="0.89" d="M24.6352 33.8767L23.6572 33.9424" stroke="#F5A03D" stroke-width="0.560105" stroke-linecap="round"/>
<path opacity="0.89" d="M24.359 34.7656L22.9619 34.8594" stroke="#F5A03D" stroke-width="0.560105" stroke-linecap="round"/>
<path opacity="0.4" d="M28.9601 35.1588L29.016 35.1551C29.519 35.1213 29.8839 34.7039 29.8502 34.2009L29.8464 34.145C29.7883 33.2788 29.0428 32.6271 28.1766 32.6853L28.1207 32.689C27.6177 32.7228 27.2528 33.1402 27.2866 33.6432L27.2903 33.6991C27.3485 34.5653 28.0939 35.217 28.9601 35.1588Z" fill="#FFD18C"/>
<path d="M23.3014 49.5723L23.8323 49.5366L24.063 52.9736L23.5321 53.0092C22.5541 53.0748 21.7192 52.345 21.6554 51.3949C21.5917 50.4449 22.3234 49.6379 23.3014 49.5723Z" fill="#FFB465"/>
<path d="M26.1348 46.1826C26.4701 46.1601 26.7664 46.3928 26.7889 46.7282L26.907 48.4885" stroke="#EFA043" stroke-width="0.560105" stroke-linecap="round"/>
<path d="M19.8742 37.3941C19.8742 37.3941 20.1438 36.3936 21.4552 36.2775" stroke="white" stroke-width="1.40026" stroke-linecap="round"/>
<path d="M22.2905 40.7409C22.5156 44.094 20.1028 43.2735 20.1947 44.6427C20.2097 44.8663 20.3066 45.0562 20.4576 45.2145C20.6086 45.3728 20.8098 45.4435 21.0333 45.4285" stroke="#FFE083" stroke-width="0.560105" stroke-linecap="round"/>
<path d="M22.7767 40.4868L22.0781 40.5337" stroke="#ED682D" stroke-width="0.840158" stroke-linecap="round"/>
<path d="M25.2772 38.4083C23.9919 38.4946 23.0274 39.5978 23.1137 40.8832C23.1999 42.1685 24.3032 43.133 25.5885 43.0467C26.8739 42.9605 27.8384 41.8572 27.7521 40.5719C27.6658 39.2865 26.5626 38.322 25.2772 38.4083Z" stroke="#ED682D" stroke-width="0.672127"/>
<path d="M19.2967 38.8107C18.0114 38.8969 17.0469 40.0002 17.1332 41.2855C17.2195 42.5709 18.3227 43.5354 19.6081 43.4491C20.8934 43.3628 21.8579 42.2596 21.7716 40.9742C21.6574 39.6907 20.5541 38.7263 19.2967 38.8107Z" stroke="#ED682D" stroke-width="0.672127"/>
<path d="M24.2535 40.6934C24.3315 40.1829 24.7542 39.7896 25.2851 39.754C25.8998 39.7127 26.4365 40.182 26.4778 40.7967L26.5022 41.1599" stroke="#B06F44" stroke-width="0.560105" stroke-linecap="round"/>
<path d="M23.3936 47.5459L23.4104 47.7974C23.4348 48.1606 23.733 48.4213 24.0963 48.3969L25.186 48.3238C25.5493 48.2994 25.8099 48.0012 25.7855 47.638L25.7687 47.3865" fill="white"/>
<path d="M23.3936 47.5459L23.4104 47.7974C23.4348 48.1606 23.733 48.4213 24.0963 48.3969L25.186 48.3238C25.5493 48.2994 25.8099 48.0012 25.7855 47.638L25.7687 47.3865" stroke="#B06F44" stroke-width="0.560105" stroke-linecap="round"/>
<path fill-rule="evenodd" clip-rule="evenodd" d="M19.7833 85.8793C20.5715 86.3622 21.5293 86.577 22.5137 86.4202L24.3545 86.127C23.6975 85.7499 23.0438 85.3625 22.3997 84.9644C22.2596 84.8151 22.0923 84.6993 21.8643 84.611C21.4321 84.4436 21.0744 84.5518 20.6647 84.7196C20.4766 84.8445 20.3183 84.9955 20.1619 85.1744C20.0055 85.3533 19.905 85.5285 19.8343 85.7297C19.8169 85.7793 19.7994 85.8289 19.7833 85.8793Z" fill="#FFB155"/>
<path fill-rule="evenodd" clip-rule="evenodd" d="M61.6305 53.3635L45.6295 72.6378C44.5572 73.9295 43.9657 75.0861 43.9418 76.7647L43.9335 77.3463L42.2841 78.2794L42.2923 77.6979C41.5827 75.576 41.9698 72.6207 43.4545 70.8322L59.4556 51.5579L61.6305 53.3635Z" fill="#8A2442"/>
<path d="M62.1444 54.1796L45.52 58.9023C45.2947 58.9672 45.1042 59.1187 44.9901 59.3235C44.876 59.5284 44.8475 59.77 44.9109 59.9958L45.0276 60.4065C45.0924 60.6318 45.2436 60.8223 45.4484 60.9365C45.6531 61.0506 45.8947 61.0792 46.1204 61.0158L62.7448 56.2931C62.9701 56.2283 63.1607 56.077 63.2748 55.8723C63.389 55.6675 63.4175 55.4259 63.3541 55.2002L63.2375 54.7895C63.1727 54.5642 63.0214 54.3736 62.8166 54.2593C62.6119 54.145 62.3702 54.1164 62.1444 54.1796Z" fill="#F6B11B"/>
<path d="M44.0914 53.346L43.7387 53.4462C43.4386 53.5299 43.1175 53.491 42.846 53.3382C42.5745 53.1853 42.3748 52.9309 42.2907 52.6309L42.2641 52.5372C42.1804 52.2371 42.2192 51.916 42.3721 51.6445C42.5249 51.373 42.7793 51.1733 43.0793 51.0892L43.4314 50.9892L44.0914 53.346Z" fill="#F65539"/>
<path d="M61.8461 48.4043L61.9048 48.3876C62.0533 48.3461 62.1923 48.2756 62.3136 48.1804C62.435 48.0851 62.5364 47.9669 62.612 47.8325C62.6877 47.698 62.7361 47.55 62.7545 47.3968C62.7729 47.2436 62.761 47.0883 62.7193 46.9398L62.6927 46.846C62.6511 46.6975 62.5806 46.5585 62.4853 46.4372C62.3899 46.3159 62.2716 46.2145 62.1371 46.1389C62.0026 46.0632 61.8546 46.0149 61.7013 45.9965C61.5481 45.9781 61.3928 45.99 61.2442 46.0317L61.1856 46.0483C61.1084 46.0703 61.0429 46.1216 61.0033 46.1914C60.9637 46.2611 60.953 46.3437 60.9737 46.4212L61.4691 48.1907C61.4797 48.2295 61.4978 48.2659 61.5225 48.2978C61.5473 48.3296 61.578 48.3562 61.6131 48.3761C61.6481 48.3959 61.6868 48.4086 61.7268 48.4135C61.7668 48.4183 61.8073 48.4152 61.8461 48.4043Z" fill="#F65539"/>
<path d="M61.5311 49.5091L61.6484 49.4758C61.7336 49.452 61.8132 49.4116 61.8828 49.357C61.9524 49.3024 62.0105 49.2346 62.0538 49.1575C62.0972 49.0804 62.1249 48.9955 62.1354 48.9077C62.146 48.8199 62.1391 48.7309 62.1152 48.6457L61.2909 45.7008C61.2671 45.6156 61.2268 45.5359 61.1721 45.4664C61.1175 45.3968 61.0497 45.3387 60.9727 45.2953C60.8956 45.252 60.8107 45.2243 60.7229 45.2137C60.6351 45.2032 60.546 45.2101 60.4609 45.234L60.3435 45.2673C60.2583 45.2911 60.1787 45.3315 60.1091 45.3861C60.0396 45.4407 59.9815 45.5085 59.9381 45.5856C59.8948 45.6627 59.867 45.7476 59.8565 45.8354C59.846 45.9232 59.8529 46.0123 59.8768 46.0974L60.7017 49.0422C60.7255 49.1273 60.7658 49.2069 60.8203 49.2764C60.8749 49.3459 60.9426 49.4041 61.0196 49.4474C61.0967 49.4908 61.1815 49.5185 61.2692 49.5291C61.357 49.5397 61.4459 49.5329 61.5311 49.5091Z" fill="#FFB762"/>
<path d="M44.7312 54.2124L44.6145 54.2456C44.5294 54.2695 44.4404 54.2764 44.3526 54.2658C44.2647 54.2553 44.1799 54.2276 44.1028 54.1842C44.0257 54.1409 43.9579 54.0827 43.9033 54.0132C43.8487 53.9436 43.8083 53.864 43.7845 53.7788L42.9596 50.834C42.9358 50.7489 42.929 50.6599 42.9396 50.5722C42.9501 50.4844 42.9779 50.3996 43.0213 50.3226C43.0646 50.2456 43.1227 50.1779 43.1923 50.1233C43.2618 50.0688 43.3414 50.0284 43.4265 50.0046L43.5439 49.9713C43.629 49.9474 43.7181 49.9405 43.8059 49.951C43.8937 49.9616 43.9786 49.9893 44.0557 50.0326C44.1328 50.076 44.2005 50.1341 44.2552 50.2037C44.3098 50.2732 44.3501 50.3529 44.374 50.4381L45.1978 53.3817C45.2218 53.4668 45.2288 53.5559 45.2183 53.6438C45.2078 53.7317 45.1802 53.8166 45.1368 53.8938C45.0935 53.971 45.0353 54.0388 44.9657 54.0935C44.8961 54.1482 44.8165 54.1886 44.7312 54.2124Z" fill="#FFB762"/>
<path d="M46.0464 61.7118C36.6909 71.1273 47.9309 75.9791 55.8494 69.4932" stroke="#8CC2CF" stroke-width="2.7972" stroke-miterlimit="10" stroke-linecap="round"/>
<path d="M47.0868 61.3988C45.163 62.4657 42.9677 66.4773 42.4096 68.1803" stroke="white" stroke-width="4.89575" stroke-miterlimit="10"/>
<path d="M52.4592 79.1718C52.6583 79.1201 52.8287 78.9916 52.9331 78.8143C53.0374 78.6371 53.0671 78.4257 53.0157 78.2266L52.7012 77.1039C52.5862 76.6993 52.1317 76.4538 51.7118 76.5716L51.2959 75.6694L66.9247 71.293L66.9791 72.2978C66.7821 72.355 66.6157 72.4879 66.5165 72.6674C66.4172 72.847 66.3931 73.0586 66.4496 73.2558L66.7635 74.3787C66.8239 74.5739 66.9588 74.7374 67.139 74.8338C67.3192 74.9303 67.5301 74.9518 67.7261 74.8938L67.9258 75.5841L52.6681 79.8558L52.4592 79.1718Z" fill="#164664"/>
<path fill-rule="evenodd" clip-rule="evenodd" d="M61.3562 80.2328L53.2149 81.5295C52.6576 81.1585 52.2206 80.5831 52.0221 79.8736C51.9799 79.7348 51.9944 79.5849 52.0622 79.4567C52.1301 79.3284 52.2459 79.2322 52.3845 79.1891L67.8445 74.8598C67.9851 74.8241 68.1342 74.8454 68.2591 74.9191C68.3841 74.9928 68.4749 75.113 68.5116 75.2533C68.9379 76.7771 68.1048 78.3417 66.6506 78.749L61.3562 80.2328Z" fill="#BEDCE4"/>
<path d="M49.2336 38.1561C53.7893 36.8808 58.5296 39.5799 59.8165 44.187L67.4521 71.4547C67.4779 71.5434 67.4858 71.6364 67.4756 71.7283C67.4653 71.8201 67.437 71.909 67.3922 71.9899C67.3474 72.0707 67.2871 72.1419 67.2147 72.1994C67.1424 72.2569 67.0593 72.2995 66.9704 72.3247L51.8228 76.5659C51.7337 76.5907 51.6406 76.5976 51.5488 76.5862C51.457 76.5748 51.3684 76.5453 51.2881 76.4995C51.2077 76.4537 51.1372 76.3925 51.0807 76.3193C51.0241 76.2461 50.9825 76.1625 50.9584 76.0732L43.3229 48.8055C42.0319 44.1995 44.678 39.432 49.2336 38.1561Z" fill="#B8DEE5"/>
<path d="M55.9688 53.1445L56.0226 53.3412C56.2408 54.1383 55.7762 54.9665 54.9902 55.1817L54.2684 55.3793C53.4824 55.5944 52.6607 55.1183 52.4426 54.3212L52.3887 54.1245" fill="white"/>
<path d="M55.9688 53.1445L56.0226 53.3412C56.2408 54.1383 55.7762 54.9665 54.9902 55.1817L54.2684 55.3793C53.4824 55.5944 52.6607 55.1183 52.4426 54.3212L52.3887 54.1245" stroke="#8CC2CF" stroke-width="0.96976" stroke-miterlimit="10" stroke-linecap="round" stroke-linejoin="round"/>
<path d="M62.7451 54.8615L62.5935 55.0593C59.1061 59.6076 53.1883 61.5549 47.6815 59.9662L47.2439 59.8399L49.8203 66.7243L63.724 62.7745L62.7451 54.8615Z" fill="white"/>
<path d="M62.7451 54.8615L62.5935 55.0593C59.1061 59.6076 53.1883 61.5549 47.6815 59.9662L47.2439 59.8399L50.6868 69.5266L64.5904 65.5769L62.7451 54.8615Z" fill="white" stroke="#E9E6E6" stroke-width="1.07126"/>
<path d="M49.1559 63.5083L50.5013 63.1312C50.5356 63.1234 50.5678 63.1087 50.5962 63.088C50.6246 63.0673 50.6484 63.0411 50.6663 63.0109C50.6842 62.9806 50.6957 62.9471 50.7002 62.9123C50.7048 62.8775 50.7021 62.8421 50.6925 62.8083C50.683 62.7746 50.6666 62.7431 50.6444 62.7159C50.6223 62.6886 50.5948 62.6662 50.5637 62.6499C50.5326 62.6336 50.4986 62.6238 50.4636 62.6211C50.4286 62.6184 50.3934 62.6229 50.3601 62.6342L49.0172 63.0121C48.9544 63.0335 48.9023 63.0782 48.8715 63.1369C48.8408 63.1956 48.8337 63.2639 48.8518 63.3276C48.87 63.3914 48.9119 63.4457 48.9689 63.4795C49.0259 63.5133 49.0937 63.5239 49.1583 63.5091L49.1559 63.5083Z" fill="#A2CED8"/>
<path d="M49.7401 65.5885L51.0848 65.2116C51.1475 65.1902 51.1996 65.1455 51.2304 65.0868C51.2612 65.0281 51.2682 64.9598 51.2501 64.8961C51.232 64.8323 51.1901 64.7779 51.1331 64.7442C51.076 64.7104 51.0082 64.6998 50.9436 64.7146L49.5982 65.0917C49.5355 65.1131 49.4834 65.1577 49.4526 65.2165C49.4218 65.2752 49.4148 65.3434 49.4329 65.4072C49.451 65.471 49.4929 65.5253 49.5499 65.5591C49.607 65.5929 49.6748 65.6035 49.7394 65.5887L49.7401 65.5885Z" fill="#A2CED8"/>
<path d="M49.4488 64.5474L50.7943 64.171C50.8571 64.1496 50.9092 64.1049 50.9399 64.0462C50.9707 63.9875 50.9778 63.9192 50.9596 63.8555C50.9415 63.7917 50.8996 63.7373 50.8426 63.7036C50.7856 63.6698 50.7178 63.6592 50.6531 63.674L49.3077 64.0511C49.2419 64.0698 49.1862 64.1139 49.1529 64.1736C49.1196 64.2334 49.1114 64.3039 49.1301 64.3698C49.1488 64.4356 49.1929 64.4913 49.2526 64.5246C49.3124 64.5579 49.3829 64.5661 49.4488 64.5474Z" fill="#A2CED8"/>
<path d="M48.8664 62.4647L50.2111 62.0878C50.2738 62.0664 50.3259 62.0217 50.3567 61.963C50.3874 61.9043 50.3945 61.836 50.3764 61.7722C50.3583 61.7085 50.3164 61.6541 50.2593 61.6203C50.2023 61.5866 50.1345 61.576 50.0699 61.5907L48.7252 61.9677C48.6624 61.9891 48.6103 62.0337 48.5796 62.0924C48.5488 62.1511 48.5417 62.2194 48.5599 62.2832C48.578 62.3469 48.6199 62.4013 48.6769 62.4351C48.7339 62.4689 48.8017 62.4794 48.8664 62.4647Z" fill="#A2CED8"/>
<path d="M55.6645 37.216L54.4871 39.1954" stroke="#B8DEE5" stroke-width="1.39903" stroke-miterlimit="10"/>
<path d="M42.7393 40.772L44.6566 41.7206" stroke="#B8DEE5" stroke-width="1.39903" stroke-miterlimit="10"/>
<path d="M50.9262 53.3462L56.3543 51.8268C56.7406 51.7187 57.1019 51.5355 57.4174 51.2878C57.733 51.04 57.9966 50.7325 58.1933 50.3828C58.39 50.0332 58.5159 49.6482 58.5638 49.2498C58.6117 48.8515 58.5806 48.4476 58.4724 48.0613L58.4032 47.8179C58.295 47.4316 58.1118 47.0704 57.864 46.755C57.6162 46.4395 57.3087 46.1759 56.9591 45.9793C56.6095 45.7827 56.2245 45.6569 55.8262 45.609C55.428 45.5612 55.0242 45.5922 54.6379 45.7004L49.2105 47.2196C48.4304 47.4382 47.769 47.9576 47.3717 48.6638C46.9745 49.3699 46.8741 50.2049 47.0924 50.9852L47.1616 51.2286C47.3801 52.0086 47.8994 52.6699 48.6054 53.067C49.3114 53.4641 50.1462 53.5646 50.9262 53.3462Z" fill="#36488B"/>
<path d="M56.1985 48.9284C55.96 48.5937 55.5128 48.4275 55.0707 48.5453C54.6286 48.6632 54.3236 49.0299 54.2833 49.439" stroke="#56D8E3" stroke-width="1.0556" stroke-linecap="round"/>
<path d="M52.011 50.2302C51.7725 49.8954 51.3253 49.7292 50.8832 49.8471C50.4411 49.965 50.1361 50.3317 50.0958 50.7408" stroke="#56D8E3" stroke-width="1.0556" stroke-linecap="round"/>
<path d="M55.889 40.901C54.9706 40.2311 53.9108 39.7808 52.7911 39.5848C51.6714 39.3888 50.5217 39.4522 49.4304 39.7702" stroke="#ECFBFF" stroke-width="1.04927" stroke-miterlimit="10" stroke-linecap="round"/>
<path d="M57.5922 42.6931C57.3745 42.388 57.1349 42.0992 56.8752 41.829" stroke="#ECFBFF" stroke-width="1.04927" stroke-miterlimit="10" stroke-linecap="round"/>
<path d="M56.8343 37.5457C57.1598 37.4533 57.4505 37.2664 57.6697 37.0088C57.8889 36.7511 58.0268 36.4342 58.066 36.0982C58.1052 35.7622 58.0438 35.4221 57.8897 35.1209C57.7356 34.8198 57.4956 34.5711 57.2002 34.4063C56.9047 34.2415 56.5671 34.168 56.2299 34.1951C55.8926 34.2222 55.571 34.3487 55.3057 34.5585C55.0404 34.7684 54.8432 35.0522 54.7392 35.3741C54.6351 35.696 54.6289 36.0415 54.7212 36.367C54.8452 36.8035 55.1374 37.1729 55.5337 37.3939C55.93 37.6149 56.3978 37.6695 56.8343 37.5457Z" fill="#B8DEE5"/>
<path d="M56.6241 36.854C56.8109 36.8009 56.9777 36.6937 57.1035 36.5458C57.2293 36.398 57.3084 36.2161 57.3308 36.0233C57.3533 35.8305 57.3181 35.6354 57.2296 35.4626C57.1411 35.2898 57.0034 35.1471 56.8339 35.0525C56.6643 34.958 56.4705 34.9159 56.277 34.9315C56.0836 34.9471 55.899 35.0197 55.7468 35.1402C55.5946 35.2607 55.4815 35.4236 55.4219 35.6083C55.3622 35.793 55.3587 35.9913 55.4118 36.178C55.4829 36.4284 55.6506 36.6403 55.878 36.7671C56.1053 36.8938 56.3737 36.9251 56.6241 36.854Z" fill="#F65539"/>
<path d="M42.0807 41.7388C42.4062 41.6465 42.697 41.4597 42.9164 41.2021C43.1357 40.9445 43.2738 40.6277 43.313 40.2916C43.3523 39.9556 43.291 39.6154 43.137 39.3142C42.9829 39.013 42.743 38.7642 42.4476 38.5993C42.1521 38.4345 41.8144 38.3609 41.4772 38.3879C41.1399 38.415 40.8183 38.5414 40.5529 38.7513C40.2875 38.9611 40.0903 39.245 39.9863 39.5669C39.8822 39.8888 39.8759 40.2344 39.9682 40.5599C40.0922 40.9962 40.3844 41.3655 40.7805 41.5866C41.1766 41.8077 41.6443 41.8624 42.0807 41.7388Z" fill="#B8DEE5"/>
<path d="M41.8673 41.0478C42.054 40.9948 42.2208 40.8875 42.3466 40.7397C42.4724 40.5918 42.5516 40.41 42.574 40.2172C42.5965 40.0244 42.5612 39.8292 42.4728 39.6564C42.3843 39.4836 42.2466 39.3409 42.077 39.2464C41.9075 39.1519 41.7137 39.1097 41.5202 39.1253C41.3267 39.1409 41.1422 39.2136 40.99 39.334C40.8378 39.4545 40.7247 39.6174 40.665 39.8021C40.6054 39.9869 40.6019 40.1851 40.6549 40.3719C40.7261 40.6223 40.8938 40.8342 41.1211 40.9609C41.3485 41.0877 41.6169 41.1189 41.8673 41.0478Z" fill="#F65539"/>
<path fill-rule="evenodd" clip-rule="evenodd" d="M67.8516 79.1989L57.947 80.7765C55.8157 80.449 53.4975 79.614 50.5644 78.1462C49.484 74.597 47.9757 65.8176 47.9757 65.8176L47.7572 64.7759C47.3736 62.948 45.9165 61.5372 44.0772 61.2129L45.3454 59.2775L49.0466 61.2834L57.3037 66.4207L63.1301 55.0662C63.1301 55.0662 65.9672 58.5757 69.9258 78.4213C69.1987 78.7003 68.5097 78.9602 67.8516 79.1989Z" fill="#323749"/>
<path fill-rule="evenodd" clip-rule="evenodd" d="M63.1499 79.9476L62.4679 80.0562L59.1447 68.0455L59.8061 67.8625L63.1499 79.9476Z" fill="#454C65"/>
<path d="M51.1168 77.3311C51.4092 77.3515 51.6982 77.4062 51.9778 77.4939C51.9904 77.4981 52.0039 77.4979 52.0163 77.4933C52.0287 77.4886 52.0391 77.4799 52.0458 77.4685C52.0525 77.4571 52.055 77.4437 52.053 77.4307C52.051 77.4176 52.0446 77.4057 52.0348 77.3968C51.6759 77.0641 51.3854 76.6647 51.1796 76.2207C50.868 75.5425 50.7553 74.7898 50.8545 74.0501C50.8624 73.9892 50.8841 73.9309 50.918 73.8797C50.9518 73.8284 50.9969 73.7856 51.0498 73.7544C51.1028 73.7232 51.1621 73.7044 51.2233 73.6996C51.2846 73.6948 51.3461 73.7041 51.4032 73.7266C52.1338 74.0111 52.761 74.5104 53.2021 75.1586C53.4541 75.5335 53.6355 75.9512 53.7374 76.3913C53.7401 76.4041 53.7472 76.4155 53.7574 76.4237C53.7676 76.4318 53.7803 76.4362 53.7934 76.4361C53.8064 76.436 53.8191 76.4314 53.8291 76.423C53.8392 76.4147 53.8461 76.4031 53.8486 76.3903C53.9389 75.9702 54.1007 75.5688 54.327 75.2034C54.7233 74.5709 55.2908 74.0637 55.9638 73.7407C56.019 73.714 56.0796 73.7003 56.141 73.7005C56.2024 73.7007 56.2629 73.7148 56.318 73.7419C56.3731 73.7689 56.4213 73.8081 56.4589 73.8566C56.4966 73.905 56.5228 73.9614 56.5355 74.0214C56.6982 74.7872 56.6254 75.5844 56.3265 76.308C56.2422 76.5087 56.1404 76.7015 56.0223 76.8842L51.3656 78.2071L51.1168 77.3311Z" fill="#F69F1C"/>
<path d="M63.7003 57.2226C73.3454 69.6574 74.5988 58.2899 71.7761 52.4282" stroke="#8CC2CF" stroke-width="2.7972" stroke-miterlimit="10"/>
<path d="M63.7003 57.2226C73.3454 69.6574 74.5988 58.2899 71.7761 52.4282" stroke="#A2CED8" stroke-width="2.7972" stroke-miterlimit="10" stroke-dasharray="3.49 2.1"/>
<path d="M64.4834 57.9805C64.943 59.5533 66.2492 60.8972 68.3901 62.1709" stroke="white" stroke-width="4.89575" stroke-miterlimit="10"/>
<path d="M63.352 53.3883L65.5092 54.616C65.6517 54.6965 65.7714 54.8119 65.8572 54.9513C65.943 55.0907 65.992 55.2496 65.9996 55.4131C66.0073 55.5766 65.9733 55.7393 65.901 55.8861C65.8286 56.0329 65.7201 56.159 65.5858 56.2525L62.3652 58.5251C62.3031 58.5688 62.2533 58.6277 62.2205 58.6962C62.1878 58.7646 62.1733 58.8404 62.1783 58.9162C62.1834 58.9919 62.2079 59.0651 62.2495 59.1286C62.2911 59.1921 62.3483 59.2438 62.4157 59.2787L62.9423 59.5533C63.0104 59.5889 63.068 59.6415 63.1097 59.7061C63.1513 59.7707 63.1754 59.845 63.1796 59.9217C63.1839 59.9984 63.1681 60.0749 63.1338 60.1436C63.0996 60.2124 63.0481 60.2711 62.9843 60.3139L57.8976 66.1418C57.5237 66.394 57.0751 65.9664 57.3108 65.5876L62.7463 53.5417C62.8078 53.4427 62.9053 53.3714 63.0182 53.3428C63.1312 53.3142 63.2508 53.3305 63.352 53.3883Z" fill="#454C65"/>
<path fill-rule="evenodd" clip-rule="evenodd" d="M58.4134 60.8715C59.6588 58.5139 61.1194 55.6677 62.1819 53.3526C62.3399 53.0081 62.7452 52.8528 63.0914 53.0071L64.4198 53.5989C64.766 53.7531 64.9221 54.1584 64.7642 54.5029C63.6638 56.9033 62.1656 59.8203 60.9129 62.1918C60.2287 63.487 59.6134 64.6275 59.1692 65.4444C58.947 65.8529 58.7674 66.1807 58.6433 66.4067C58.5812 66.5197 58.5329 66.6072 58.5001 66.6667L58.4496 66.758C58.4496 66.758 58.4495 66.7582 57.2133 66.0731L57.0708 65.9941C55.977 65.388 55.977 65.388 55.977 65.388L56.0253 65.3007C56.0573 65.2428 56.1047 65.1568 56.1659 65.0454C56.2883 64.8226 56.4659 64.4984 56.6859 64.0938C57.1261 63.2845 57.7358 62.1543 58.4134 60.8715Z" fill="#8A2442"/>
<rect x="60.0713" y="57.3521" width="3.39213" height="1.69606" transform="rotate(27.3074 60.0713 57.3521)" stroke="#323749" stroke-width="0.686248" stroke-linejoin="round"/>
<path d="M45.3021 57.8453L43.7712 59.7989C43.6698 59.9275 43.6028 60.0797 43.5763 60.2412C43.5498 60.4028 43.5647 60.5684 43.6197 60.7226C43.6746 60.8768 43.7678 61.0145 43.8905 61.1229C44.0132 61.2313 44.1614 61.3067 44.3212 61.3423L48.1628 62.2249C48.237 62.2415 48.3057 62.2771 48.3622 62.3281C48.4187 62.3791 48.4611 62.4438 48.4853 62.5159C48.5094 62.5881 48.5146 62.6653 48.5002 62.74C48.4859 62.8147 48.4525 62.8845 48.4033 62.9425L48.0208 63.3961C47.971 63.4547 47.9373 63.5252 47.9231 63.6008C47.9089 63.6763 47.9147 63.7543 47.9398 63.8269C47.9649 63.8996 48.0085 63.9645 48.0663 64.0152C48.1241 64.0658 48.1941 64.1006 48.2694 64.116L59.1465 68.2659C59.5881 68.3575 59.8411 67.7919 59.4795 67.5306L45.9214 57.7569C45.8266 57.689 45.7094 57.6603 45.594 57.6768C45.4786 57.6933 45.3741 57.7536 45.3021 57.8453Z" fill="#454C65"/>
<path d="M71.9827 53.164C72.3074 52.9669 72.5974 52.6994 72.8506 52.3632C73.3786 51.6605 73.5713 50.901 73.4231 50.1061C73.2914 49.3989 72.9058 48.751 72.5461 48.2107C72.4936 48.1313 72.4261 48.0631 72.3472 48.0098C72.2683 47.9566 72.1797 47.9195 72.0865 47.9006C71.9933 47.8818 71.8972 47.8815 71.8039 47.8998C71.7106 47.9181 71.6218 47.9547 71.5426 48.0074C71.4634 48.0601 71.3954 48.1279 71.3425 48.207C71.2897 48.286 71.2529 48.3748 71.2343 48.4681C71.2158 48.5614 71.2159 48.6575 71.2345 48.7508C71.2532 48.844 71.2901 48.9327 71.3431 49.0118C71.6218 49.4305 71.9182 49.9195 72.0022 50.3706C72.076 50.7668 71.9814 51.1135 71.6951 51.4945C71.1657 52.1991 70.5126 52.2989 69.1071 51.8899C69.0159 51.8634 68.9205 51.855 68.8261 51.8654C68.7318 51.8758 68.6404 51.9047 68.5573 51.9504C68.4741 51.9961 68.4007 52.0577 68.3414 52.1318C68.282 52.2059 68.2378 52.2909 68.2113 52.382C68.1848 52.4732 68.1765 52.5687 68.1869 52.663C68.1973 52.7574 68.2262 52.8488 68.2719 52.932C68.3176 53.0152 68.3793 53.0886 68.4533 53.148C68.5274 53.2074 68.6124 53.2516 68.7035 53.2781C69.331 53.4602 70.0722 53.6361 70.8138 53.5543C71.2422 53.5071 71.6327 53.3765 71.9827 53.164Z" fill="#8CC2CF"/>
<path d="M71.1895 47.1517L71.1932 46.4224C71.1959 45.8813 71.4587 45.3746 71.8994 45.0608L77.8258 40.8407C78.7141 40.2081 79.9589 40.7073 80.1641 41.7783C80.3553 42.7756 79.5189 43.6697 78.5111 43.5456L78.281 43.5173C78.0067 43.4835 77.7414 43.6286 77.622 43.8779L76.2585 46.7238C76.0401 47.1796 75.6562 47.5352 75.1851 47.7181L73.0748 48.5373L57.4115 70.3436L55.055 68.6117L71.1895 47.1517Z" fill="#F89F4D"/>
<path fill-rule="evenodd" clip-rule="evenodd" d="M57.9733 80.7735L45.1467 82.8166L45.0833 82.77C40.9034 79.6981 41.2141 73.3566 45.6742 70.708L47.215 69.793C49.1641 68.6356 50.3562 66.6003 50.9768 64.4201C51.9582 60.9719 53.5825 59.6292 54.9702 59.2834C55.7963 59.0776 56.1481 60.0268 55.7627 60.786C53.7157 64.8188 56.7458 66.0719 58.2776 64.5207L58.5059 68.7533C59.5016 71.2746 61.1385 71.2123 62.4092 70.3107C63.2323 69.7266 64.6369 69.8628 64.4265 70.85C64.082 72.4665 62.6988 73.6915 61.2815 74.5364C59.9225 75.3466 58.8066 76.5909 58.5413 78.1508L58.316 79.4753C58.2388 79.9292 58.1231 80.3625 57.9733 80.7735Z" fill="#F93535"/>
<path fill-rule="evenodd" clip-rule="evenodd" d="M57.9733 80.7735L45.1467 82.8166L45.0833 82.77C40.9034 79.6981 41.2141 73.3566 45.6742 70.708L47.215 69.793C49.1641 68.6356 50.3562 66.6003 50.9768 64.4201C51.9582 60.9719 53.5825 59.6292 54.9702 59.2834C55.7963 59.0776 56.1481 60.0268 55.7627 60.786C53.7157 64.8188 56.7458 66.0719 58.2776 64.5207L58.5059 68.7533C59.5016 71.2746 61.1385 71.2123 62.4092 70.3107C63.2323 69.7266 64.6369 69.8628 64.4265 70.85C64.082 72.4665 62.6988 73.6915 61.2815 74.5364C59.9225 75.3466 58.8066 76.5909 58.5413 78.1508L58.316 79.4753C58.2388 79.9292 58.1231 80.3625 57.9733 80.7735Z" fill="#F93535"/>
<path fill-rule="evenodd" clip-rule="evenodd" d="M57.9733 80.7735L45.1467 82.8166L45.0833 82.77C40.9034 79.6981 41.2141 73.3566 45.6742 70.708L47.215 69.793C49.1641 68.6356 50.3562 66.6003 50.9768 64.4201C51.9582 60.9719 53.5825 59.6292 54.9702 59.2834C55.7963 59.0776 56.1481 60.0268 55.7627 60.786C53.7157 64.8188 56.7458 66.0719 58.2776 64.5207L58.5059 68.7533C59.5016 71.2746 61.1385 71.2123 62.4092 70.3107C63.2323 69.7266 64.6369 69.8628 64.4265 70.85C64.082 72.4665 62.6988 73.6915 61.2815 74.5364C59.9225 75.3466 58.8066 76.5909 58.5413 78.1508L58.316 79.4753C58.2388 79.9292 58.1231 80.3625 57.9733 80.7735Z" fill="#F93535"/>
<path fill-rule="evenodd" clip-rule="evenodd" d="M58.5059 68.7533L58.2776 64.5207C57.8782 64.9252 57.3768 65.139 56.8902 65.1626C55.5107 65.2294 54.2495 63.7672 55.7627 60.786C56.1481 60.0268 55.7963 59.0776 54.9702 59.2834C53.5825 59.6292 51.9582 60.9719 50.9768 64.4201C50.3562 66.6003 49.1641 68.6356 47.215 69.793L45.6742 70.708C41.2141 73.3566 40.9034 79.6981 45.0833 82.77L45.1467 82.8166L57.9733 80.7735C58.1231 80.3625 58.2388 79.9292 58.316 79.4753L58.5413 78.1508C58.8066 76.5909 59.9225 75.3466 61.2815 74.5364C62.6988 73.6915 64.082 72.4665 64.4265 70.85C64.6369 69.8628 63.2323 69.7266 62.4092 70.3107C61.1385 71.2123 59.5016 71.2746 58.5059 68.7533ZM56.8629 79.5125L45.5374 81.3165C42.5892 78.7523 42.9574 73.9728 46.3992 71.9289L47.94 71.0139C50.3081 69.6076 51.6629 67.1965 52.3425 64.8088C52.7959 63.2157 53.3642 62.2202 53.9088 61.6017C53.4135 63.2833 53.6261 64.8115 54.7285 65.8031C55.3782 66.3875 56.1778 66.626 56.9667 66.5811L57.1004 69.0602L57.1852 69.2749C57.7725 70.762 58.6927 71.8379 59.9844 72.1865C60.7822 72.4018 61.5429 72.2901 62.2025 72.0307C61.7757 72.4914 61.2127 72.9243 60.5544 73.3167C58.973 74.2595 57.4991 75.8101 57.1414 77.9127L56.9162 79.2373C56.9003 79.3302 56.8826 79.422 56.8629 79.5125ZM54.5022 60.1265C54.5027 60.1266 54.5023 60.1304 54.4993 60.1375C54.5001 60.13 54.5016 60.1264 54.5022 60.1265Z" fill="#F93535"/>
<path fill-rule="evenodd" clip-rule="evenodd" d="M58.1446 80.7468L52.7764 81.6018C52.5609 81.2429 52.274 80.9243 51.926 80.6685L47.5472 77.4504C46.2616 76.5056 45.8306 74.7795 46.5212 73.3413C46.904 72.5438 47.5112 71.8753 48.2682 71.4176L50.1764 70.264C51.4923 69.4685 52.5196 68.2736 53.1088 66.8534L53.5494 65.7913C54.0235 64.6487 55.5744 64.4843 56.2774 65.5022L58.5165 68.7443C59.5232 71.2935 61.1853 71.2016 62.4617 70.2715C63.262 69.6883 64.6405 69.819 64.4476 70.7902C64.0879 72.6014 62.424 73.926 60.8483 74.7796C59.7354 75.3825 58.8548 76.3923 58.6511 77.6415L58.1446 80.7468Z" fill="white"/>
<path fill-rule="evenodd" clip-rule="evenodd" d="M58.1446 80.7468L58.6511 77.6415C58.8548 76.3923 59.7354 75.3825 60.8483 74.7796C62.424 73.926 64.0879 72.6014 64.4476 70.7902C64.6405 69.819 63.262 69.6883 62.4617 70.2715C61.1853 71.2016 59.5232 71.2935 58.5165 68.7443L56.2774 65.5022C55.5744 64.4843 54.0235 64.6487 53.5494 65.7913L53.1088 66.8534C52.5196 68.2736 51.4923 69.4685 50.1764 70.264L48.2682 71.4176C47.5112 71.8753 46.904 72.5438 46.5212 73.3413C45.8306 74.7795 46.2616 76.5056 47.5472 77.4504L51.926 80.6685C52.274 80.9243 52.5609 81.2429 52.7764 81.6018L53.8946 81.4237C53.5958 80.7921 53.1422 80.2329 52.5604 79.8053L48.1816 76.5872C47.3111 75.9475 47.0193 74.7788 47.4869 73.805C47.7796 73.1953 48.2437 72.6843 48.8224 72.3344L50.7307 71.1807C52.2418 70.2672 53.4217 68.8949 54.0983 67.2639L54.5389 66.2018C54.6878 65.8428 55.1751 65.7912 55.3959 66.111L57.5678 69.2557C58.1396 70.638 58.9927 71.5613 60.1223 71.8504C61.2532 72.1399 62.3171 71.7024 63.0926 71.1372C63.1374 71.1046 63.1941 71.074 63.2589 71.0494C62.8246 72.1579 61.6803 73.1105 60.338 73.8376C59.0126 74.5557 57.8639 75.8129 57.5938 77.4691L57.0302 80.9243L58.1446 80.7468ZM63.64 71.0037C63.64 71.0038 63.6385 71.0034 63.6358 71.0024C63.6387 71.0032 63.6401 71.0037 63.64 71.0037Z" fill="#F93535"/>
<path d="M70.9365 47.4885C71.0768 47.3019 71.3412 47.263 71.5293 47.4012L72.7355 48.2877C72.9236 48.4259 72.9654 48.6899 72.8292 48.8795L57.663 69.9938C57.5247 70.1864 57.2558 70.229 57.0647 70.0886L55.4022 68.8667C55.2112 68.7263 55.1715 68.457 55.314 68.2675L70.9365 47.4885Z" fill="#965F34"/>
<rect x="56.0605" y="67.2437" width="2.9243" height="0.233962" rx="0.116981" transform="rotate(36.3133 56.0605 67.2437)" fill="#C68A5C"/>
<rect x="55.4814" y="67.9795" width="2.98712" height="0.233962" rx="0.116981" transform="rotate(36.3133 55.4814 67.9795)" fill="#C68A5C"/>
<rect x="56.5879" y="66.4688" width="2.99273" height="0.233962" rx="0.116981" transform="rotate(36.3133 56.5879 66.4688)" fill="#C68A5C"/>
<rect x="57.1621" y="65.7319" width="2.93987" height="0.233962" rx="0.116981" transform="rotate(36.3133 57.1621 65.7319)" fill="#C68A5C"/>
<rect x="57.7773" y="64.875" width="2.96169" height="0.233962" rx="0.116981" transform="rotate(36.3133 57.7773 64.875)" fill="#C68A5C"/>
<rect x="58.4951" y="63.9531" width="2.89178" height="0.233962" rx="0.116981" transform="rotate(36.3133 58.4951 63.9531)" fill="#C68A5C"/>
<rect x="59.2021" y="62.873" width="2.94447" height="0.233962" rx="0.116981" transform="rotate(36.3133 59.2021 62.873)" fill="#C68A5C"/>
<rect x="60.0352" y="61.8896" width="2.86202" height="0.233962" rx="0.116981" transform="rotate(36.3133 60.0352 61.8896)" fill="#C68A5C"/>
<rect x="60.8066" y="60.8613" width="2.83246" height="0.233962" rx="0.116981" transform="rotate(36.3133 60.8066 60.8613)" fill="#C68A5C"/>
<rect x="61.7207" y="59.6455" width="2.80755" height="0.233962" rx="0.116981" transform="rotate(36.3133 61.7207 59.6455)" fill="#C68A5C"/>
<rect x="62.7188" y="58.4907" width="2.56491" height="0.233962" rx="0.116981" transform="rotate(36.3133 62.7188 58.4907)" fill="#C68A5C"/>
<rect x="63.6221" y="57.2661" width="2.55489" height="0.233962" rx="0.116981" transform="rotate(36.3133 63.6221 57.2661)" fill="#C68A5C"/>
<rect x="64.668" y="55.8579" width="2.54118" height="0.233962" rx="0.116981" transform="rotate(36.3133 64.668 55.8579)" fill="#C68A5C"/>
<rect x="65.7168" y="54.4492" width="2.51698" height="0.233962" rx="0.116981" transform="rotate(36.3133 65.7168 54.4492)" fill="#C68A5C"/>
<rect x="66.7529" y="53.0347" width="2.52182" height="0.233962" rx="0.116981" transform="rotate(36.3133 66.7529 53.0347)" fill="#C68A5C"/>
<rect x="67.7715" y="51.6074" width="2.57358" height="0.233962" rx="0.116981" transform="rotate(36.3133 67.7715 51.6074)" fill="#C68A5C"/>
<rect x="68.8105" y="50.1953" width="2.57358" height="0.233962" rx="0.116981" transform="rotate(36.3133 68.8105 50.1953)" fill="#C68A5C"/>
<rect x="69.8506" y="48.7788" width="2.57358" height="0.233962" rx="0.116981" transform="rotate(36.3133 69.8506 48.7788)" fill="#C68A5C"/>
<rect x="70.8896" y="47.3667" width="2.57358" height="0.233962" rx="0.116981" transform="rotate(36.3133 70.8896 47.3667)" fill="#C68A5C"/>
<rect x="48.8662" y="75.7505" width="4.44528" height="2.80755" rx="0.425988" transform="rotate(36.3133 48.8662 75.7505)" fill="#323749"/>
<rect opacity="0.5" x="54.1826" y="68.9126" width="3.97736" height="1.05283" rx="0.526415" transform="rotate(36.3133 54.1826 68.9126)" fill="#C4C4C4"/>
<rect opacity="0.5" x="52.3818" y="71.3638" width="3.97736" height="1.05283" rx="0.526415" transform="rotate(36.3133 52.3818 71.3638)" fill="#C4C4C4"/>
<rect opacity="0.5" x="50.5791" y="73.813" width="3.97736" height="1.05283" rx="0.526415" transform="rotate(36.3133 50.5791 73.813)" fill="#C4C4C4"/>
<circle opacity="0.5" cx="54.4409" cy="78.8323" r="0.701887" transform="rotate(36.3133 54.4409 78.8323)" fill="#C4C4C4"/>
<path opacity="0.5" fill-rule="evenodd" clip-rule="evenodd" d="M55.8748 81.1068L54.5702 81.3146C54.4425 81.0825 54.4523 80.7877 54.6195 80.5602C54.8491 80.2478 55.2884 80.1807 55.6007 80.4103C55.8257 80.5756 55.9234 80.8497 55.8748 81.1068Z" fill="#C4C4C4"/>
<path d="M72.2656 45.6919C63.5272 57.5821 57.277 66.0865 48.5385 77.9767" stroke="#C4C4C4" stroke-width="0.178543" stroke-linecap="round"/>
<path d="M73.334 45.0249C64.5955 56.9151 57.6526 66.3622 48.9141 78.2523" stroke="#C4C4C4" stroke-width="0.178543" stroke-linecap="round"/>
<path d="M74.5752 44.126C65.8367 56.0162 58.0278 66.6415 49.2894 78.5317" stroke="#C4C4C4" stroke-width="0.178543" stroke-linecap="round"/>
<path d="M75.6455 43.459C66.907 55.3492 58.4054 66.9172 49.6669 78.8073" stroke="#C4C4C4" stroke-width="0.178543" stroke-linecap="round"/>
<path d="M76.8213 42.6519C68.0828 54.542 58.7845 67.194 50.046 79.0842" stroke="#C4C4C4" stroke-width="0.178543" stroke-linecap="round"/>
<path d="M77.959 41.8916C69.2205 53.7818 59.1601 67.4707 50.4217 79.3609" stroke="#C4C4C4" stroke-width="0.178543" stroke-linecap="round"/>
<rect x="78.0459" y="41.1338" width="0.752075" height="0.811253" rx="0.376038" transform="rotate(47.7786 78.0459 41.1338)" fill="#E5E5E5"/>
<rect x="76.8311" y="41.8521" width="0.752075" height="0.811253" rx="0.376038" transform="rotate(47.7786 76.8311 41.8521)" fill="#E5E5E5"/>
<rect x="75.708" y="42.6426" width="0.752075" height="0.811253" rx="0.376038" transform="rotate(47.7786 75.708 42.6426)" fill="#E5E5E5"/>
<rect x="74.5889" y="43.4307" width="0.752075" height="0.811253" rx="0.376038" transform="rotate(47.7786 74.5889 43.4307)" fill="#E5E5E5"/>
<rect x="73.4707" y="44.2168" width="0.752075" height="0.811253" rx="0.376038" transform="rotate(47.7786 73.4707 44.2168)" fill="#E5E5E5"/>
<rect x="72.3486" y="45.0024" width="0.752075" height="0.811253" rx="0.376038" transform="rotate(47.7786 72.3486 45.0024)" fill="#E5E5E5"/>
<path d="M54.8496 70.5254C47.8142 72.4258 44.6761 73.6908 42.6515 69.2328" stroke="#8CC2CF" stroke-width="2.7972" stroke-miterlimit="10"/>
<path d="M54.8496 70.5254C47.8142 72.4258 44.6761 73.6908 42.6515 69.2328" stroke="#A2CED8" stroke-width="2.7972" stroke-miterlimit="10" stroke-dasharray="3.5 2.1"/>
<path d="M72.8585 52.3756C72.8035 52.4494 72.7348 52.5118 72.6564 52.5595L71.9219 51.1368C72.0316 50.8888 72.0579 50.644 72.0079 50.3764C71.9233 49.9241 71.6264 49.4333 71.3473 49.013C71.2942 48.9337 71.2572 48.8448 71.2385 48.7512C71.2197 48.6576 71.2195 48.5613 71.2379 48.4677C71.2563 48.3742 71.2929 48.2853 71.3457 48.2061C71.3984 48.1269 71.4663 48.0589 71.5453 48.0062C71.6244 47.9534 71.7131 47.9169 71.8063 47.8987C71.8996 47.8804 71.9956 47.8808 72.0888 47.8999C72.182 47.919 72.2705 47.9563 72.3494 48.0098C72.4283 48.0632 72.496 48.1318 72.5485 48.2114C72.9087 48.7537 73.295 49.4039 73.4276 50.1132C73.5767 50.9105 73.3852 51.6717 72.8585 52.3756Z" fill="#8CC2CF"/>
<path d="M58.2809 72.1053C53.7756 72.5905 53.4617 68.6349 57.2211 67.9665" stroke="#8CC2CF" stroke-width="1.79371" stroke-linecap="round"/>
<path d="M65.5948 76.215L66.395 74.6742C66.4389 74.5897 66.5159 74.5273 66.6076 74.5018L68.9743 73.8441C69.1638 73.7914 69.3588 73.9085 69.4012 74.1006L69.8837 76.2837C69.9226 76.4596 69.8188 76.6356 69.6461 76.6868L67.3862 77.3559C67.3055 77.3798 67.2189 77.3732 67.1427 77.3374L65.7533 76.6836C65.577 76.6007 65.5051 76.3879 65.5948 76.215Z" fill="#454C65"/>
<path d="M68.0935 75.6568C68.2052 76.0987 68.0495 76.5192 67.7457 76.596C67.4418 76.6728 67.105 76.3768 66.9933 75.9349C66.8816 75.493 67.0373 75.0725 67.3411 74.9957C67.645 74.9189 67.9818 75.2149 68.0935 75.6568Z" fill="#9998BC"/>
<path fill-rule="evenodd" clip-rule="evenodd" d="M91.2132 75.4793C84.5276 76.5255 78.1936 71.8658 77.1161 65.1008L74.4786 48.5422C73.3993 41.766 77.989 35.3591 84.6868 34.2923L86.149 34.0594C89.0674 33.5945 91.9203 34.2177 94.3001 35.6296L99.7817 70.0444C100.131 72.2366 98.6368 74.2968 96.4446 74.646L91.2132 75.4793Z" fill="#FFE382"/>
<path d="M75.2821 41.9707C75.3379 41.7243 75.44 41.4705 75.581 41.163C76.082 40.1331 76.7884 39.4981 77.3 39.1316C77.0778 38.9295 76.8557 38.7273 76.5871 38.5326C75.8668 37.8873 74.7475 38.018 74.1485 38.731C73.5032 39.4513 73.5877 40.578 74.3543 41.2159L75.2821 41.9707Z" fill="#C86377"/>
<path d="M76.4062 39.1725C76.4452 39.1188 76.5378 39.1041 76.6694 39.0356C77.2885 38.747 77.9687 38.5437 78.6636 38.433L81.2117 38.0271C88.1609 36.9202 94.6595 41.633 95.7664 48.5823L95.8697 49.2309C95.9213 49.5552 95.7803 49.8626 95.4781 50.0533C94.9907 50.2734 94.4683 49.9766 94.3945 49.5133L94.2838 48.8184C93.3098 42.7031 87.5631 38.5355 81.4478 39.5096L77.9732 40.063C76.8613 40.2401 75.84 40.6878 75.2443 42.0178C74.7093 41.343 74.5154 40.4238 76.4062 39.1725Z" fill="#C86377"/>
<path fill-rule="evenodd" clip-rule="evenodd" d="M73.5946 78.2837C72.2737 77.65 71.1234 76.6557 70.2216 75.6416C68.4848 73.6886 67.1639 71.1194 66.8284 69.0125C66.6756 68.0535 67.3292 67.1521 68.2883 66.9994C69.2474 66.8466 70.1488 67.5003 70.3015 68.4593C70.5089 69.7611 71.4528 71.7338 72.8496 73.3045C74.2741 74.9063 75.6949 75.5842 76.784 75.4276C77.2672 75.3108 77.816 74.9264 78.437 74.057C79.0708 73.1697 79.6293 71.9886 80.1841 70.6552C80.3575 70.2384 80.5354 69.7935 80.7156 69.3428L80.7156 69.3428C81.0744 68.4455 81.4423 67.5255 81.8021 66.7591C82.0823 66.1621 82.398 65.5656 82.7625 65.0495C83.1172 64.5475 83.6011 64.0012 84.2616 63.6493C85.1188 63.1926 86.1838 63.5173 86.6404 64.3744C87.0971 65.2316 86.7724 66.2966 85.9153 66.7532C85.9179 66.7518 85.9193 66.751 85.9193 66.7511C85.9194 66.7512 85.9186 66.7518 85.9169 66.7531C85.9006 66.7658 85.8015 66.8431 85.6351 67.0787C85.4412 67.3531 85.2267 67.7402 84.9857 68.2535C84.6667 68.9332 84.3696 69.6775 84.04 70.5034C83.8512 70.9765 83.6516 71.4764 83.4312 72.0062C82.862 73.3743 82.1787 74.8694 81.2989 76.1012C81.0281 76.4802 80.7242 76.8548 80.3827 77.2025L73.5946 78.2837Z" fill="#ECF2FF"/>
<path d="M85.6934 65.625C83.2368 66.1505 82.2633 71.2493 80.2551 74.4951" stroke="#C4425A" stroke-width="4.52179" stroke-miterlimit="10"/>
<path fill-rule="evenodd" clip-rule="evenodd" d="M99.6543 69.2538C98.4004 69.0876 97.2117 68.7597 96.1504 68.4283C95.4797 68.2189 94.8721 68.0144 94.3082 67.8247L94.3082 67.8247C93.0696 67.4078 92.0423 67.0621 91.0228 66.8918L91.7678 62.4318C93.1651 62.6652 94.7324 63.1923 96.1185 63.6584C96.6058 63.8223 97.0708 63.9787 97.4981 64.1121C97.9879 64.265 98.4537 64.3984 98.8984 64.508L99.6543 69.2538Z" fill="#C4425A"/>
<path fill-rule="evenodd" clip-rule="evenodd" d="M82.8748 76.8062L81.8718 70.5097C81.2372 66.5255 83.732 62.8029 87.4846 62.2052L89.0134 61.9616C92.7196 61.3713 96.2939 64.1272 96.9285 68.1115L97.8853 74.1187C97.4549 74.3785 96.9682 74.5614 96.4411 74.6453L82.8748 76.8062Z" fill="#C3425A"/>
<rect x="85.5205" y="70.5425" width="8.03873" height="2.00968" rx="1.00484" transform="rotate(-10.452 85.5205 70.5425)" fill="#B13C52"/>
<path fill-rule="evenodd" clip-rule="evenodd" d="M85.6176 62.457C85.8095 63.6615 86.8274 64.6394 88.0076 64.6415C88.192 64.6596 88.369 64.6314 88.4944 64.5639C88.5829 64.5498 88.6714 64.5357 88.7525 64.4753C89.8737 64.1067 90.4489 62.875 90.2571 61.6705L89.8955 59.4004L85.2486 60.1406L85.6176 62.457Z" fill="#EFA043"/>
<path fill-rule="evenodd" clip-rule="evenodd" d="M90.2506 61.8117C90.3741 62.5873 89.8603 63.5318 88.6976 63.8668L88.6358 63.8846C88.6144 63.8908 88.5939 63.8997 88.5748 63.9112L88.5597 63.9202C88.5462 63.9282 88.5316 63.9342 88.5162 63.937C88.4982 63.9403 88.4786 63.9435 88.4482 63.9484L88.4156 63.9535C88.3724 63.9604 88.3303 63.9729 88.2903 63.9907L88.2602 64.0041C88.2275 64.0187 88.1184 64.0472 87.9604 64.0409L87.9322 64.0398L87.9039 64.0408C86.6487 64.0852 85.7908 63.3239 85.6737 62.5882L84.7692 62.9821C84.55 63.0775 84.4243 63.3167 84.5217 63.535C84.9769 64.5549 86.3335 65.5941 87.9299 65.548C88.1903 65.5554 88.4711 65.5242 88.7259 65.4384C88.7542 65.4288 88.783 65.4211 88.8124 65.4154C88.9055 65.3971 89.0286 65.366 89.1579 65.308C89.1808 65.2978 89.2043 65.2884 89.2282 65.2808C90.756 64.7905 91.6074 63.3544 91.6288 62.3565C91.6333 62.1467 91.4609 61.9897 91.2532 61.9592L90.2506 61.8117Z" fill="#D8576F"/>
<path d="M80.5899 41.2603L78.2734 41.6293C76.235 41.954 74.8792 43.8801 75.1965 45.8722L76.51 54.1186C77.2848 58.9831 81.911 62.379 86.8218 61.5968L87.0071 61.5673C91.8716 60.7925 95.2675 56.1663 94.4853 51.2555C93.3985 44.7306 87.1685 40.2125 80.5899 41.2603Z" fill="#FFB465"/>
<path d="M77.7121 53.9268C76.9445 54.0491 76.2231 53.526 76.1009 52.7584C75.9786 51.9908 76.5017 51.2694 77.2693 51.1472C78.0369 51.0249 78.7583 51.548 78.8806 52.3156C79.0028 53.0832 78.4797 53.8046 77.7121 53.9268Z" fill="white"/>
<path d="M78.2417 53.0844C77.8067 53.1537 77.3979 52.8572 77.3287 52.4223C77.2594 51.9873 77.5558 51.5785 77.9908 51.5092C78.4257 51.4399 78.8345 51.7364 78.9038 52.1714C78.9731 52.6063 78.6766 53.0151 78.2417 53.0844Z" fill="#B06F44"/>
<path d="M85.0295 52.7613C84.2619 52.8836 83.5405 52.3604 83.4182 51.5929C83.296 50.8253 83.8191 50.1039 84.5867 49.9816C85.3543 49.8594 86.0757 50.3825 86.1979 51.1501C86.3202 51.9177 85.7971 52.6391 85.0295 52.7613Z" fill="white"/>
<path d="M85.5649 51.9189C85.1299 51.9881 84.7211 51.6917 84.6518 51.2567C84.5826 50.8218 84.879 50.413 85.314 50.3437C85.749 50.2744 86.1577 50.5709 86.227 51.0058C86.2963 51.4408 85.9999 51.8496 85.5649 51.9189Z" fill="#B06F44"/>
<path fill-rule="evenodd" clip-rule="evenodd" d="M96.9666 52.3764L96.9507 52.4352C96.6087 53.8673 95.1369 54.7668 93.6974 54.3785C92.258 53.9902 91.4048 52.511 91.7542 51.1252L92.1424 49.6858C92.4844 48.2537 93.9562 47.3542 95.3957 47.7425C95.7261 47.8214 96.0282 47.9605 96.2926 48.1454L96.9666 52.3764Z" fill="#FFB465"/>
<path d="M94.2761 52.3395C94.8226 52.49 95.388 52.1624 95.5385 51.6159L95.689 51.0694C95.8394 50.5229 95.5119 49.9575 94.9654 49.807C94.719 49.7513 94.4409 49.7956 94.2167 49.8788" stroke="#EFA043" stroke-width="0.938244" stroke-linecap="round"/>
<path d="M66.6095 66.5507L67.0364 66.2832C67.8901 65.7484 69.0153 65.9985 69.5502 66.8523L70.2305 67.8955C70.838 68.844 70.5659 70.1366 69.6174 70.7442C68.6689 71.3518 67.3763 71.0796 66.7687 70.1311L66.0884 69.0879C65.5535 68.2341 65.8037 67.1089 66.6095 66.5507Z" fill="#FAAF56"/>
<path d="M68.5274 67.2445L66.6071 62.7523" stroke="#FAAF56" stroke-width="1.06793" stroke-miterlimit="10" stroke-linecap="round"/>
<path d="M66.9118 67.6017L65.9825 66.5158" stroke="#FFCF70" stroke-width="1.06793" stroke-miterlimit="10" stroke-linecap="round"/>
<path d="M68.035 67.2498L66.9744 65.8844" stroke="#FFCF70" stroke-width="1.06793" stroke-miterlimit="10" stroke-linecap="round"/>
<path d="M69.9333 68.7586L69.9754 67.2928C69.9861 66.9179 69.6392 66.6344 69.274 66.7194L68.3041 66.9453" stroke="#FFCF70" stroke-width="1.06793" stroke-miterlimit="10" stroke-linecap="round"/>
<path d="M67.5323 70.0241L63.7094 65.5531" stroke="#FAAF56" stroke-width="1.06793" stroke-miterlimit="10" stroke-linecap="round"/>
<path d="M70.535 69.3354C70.3802 70.2702 69.8578 70.6816 69.3904 70.6042C68.923 70.5268 68.5586 69.8625 68.7133 68.9277C68.8681 67.9929 69.4548 67.7075 69.9221 67.7849C70.3895 67.8623 70.6897 68.4007 70.535 69.3354Z" fill="#FFCF70"/>
<path d="M82.7465 57.7814C82.8793 58.6153 83.6312 59.1606 84.4651 59.0278L84.9284 58.954C85.7623 58.8212 86.3076 58.0693 86.1748 57.2354" fill="white"/>
<path d="M82.7465 57.7814C82.8793 58.6153 83.6312 59.1606 84.4651 59.0278L84.9284 58.954C85.7623 58.8212 86.3076 58.0693 86.1748 57.2354" stroke="#DD7746" stroke-width="0.938244" stroke-miterlimit="10" stroke-linecap="round"/>
<path d="M77.6552 54.4598L88.1717 52.7848L87.9355 51.3022L76.2609 53.1618L76.3051 53.4398C76.3621 54.0958 77.0066 54.5631 77.6552 54.4598Z" fill="#FFB465"/>
<path d="M80.8516 51.5801C80.8663 51.6727 80.9741 53.8407 79.3801 54.5697C79.2022 54.6455 79.139 54.8456 79.1686 55.0309C79.2739 55.3941 80.7724 56.153 81.143 56.094" stroke="#EFA043" stroke-width="0.938244" stroke-linecap="round"/>
<path d="M75.8151 49.7674C75.9709 49.5526 76.2509 49.2229 76.731 48.9565C77.4743 48.553 78.1525 48.635 78.3915 48.6445" stroke="#B06F44" stroke-width="0.938244" stroke-linecap="round"/>
<path d="M83.3549 47.8999C83.5718 47.7704 83.9739 47.6113 84.5446 47.6154C85.347 47.5826 85.9767 47.9573 86.1916 48.1131" stroke="#B06F44" stroke-width="0.938244" stroke-linecap="round"/>
<path d="M76.1157 51.6668C76.5052 51.1297 77.1706 50.8337 77.8635 51.0083C78.5564 51.183 79.0692 51.7189 79.1725 52.3674" stroke="#B06F44" stroke-width="0.938244" stroke-linecap="round"/>
<path d="M83.3862 50.51C83.7757 49.9729 84.4411 49.6769 85.1339 49.8516C85.8268 50.0263 86.3397 50.5621 86.443 51.2107" stroke="#B06F44" stroke-width="0.938244" stroke-linecap="round"/>
</svg>
