<?xml version="1.0"?>
<svg xmlns="http://www.w3.org/2000/svg" viewBox="0 0 112 112" fill="none">
<path d="M38.5282 97.6839L23.542 86.9424" stroke="#8965D6" stroke-width="6.39339" stroke-linecap="round"/>
<ellipse cx="22.912" cy="86.5001" rx="7.42838" ry="9.26301" transform="rotate(-145.603 22.912 86.5001)" fill="#8965D6"/>
<ellipse cx="21.3812" cy="85.4535" rx="7.12539" ry="9.26301" transform="rotate(-145.603 21.3812 85.4535)" fill="#C292FF"/>
<path d="M18.4806 88.9932L23.7752 81.308" stroke="#8965D6" stroke-width="2.13113" stroke-linecap="round"/>
<path d="M23.4012 86.7762L18.8584 83.5286" stroke="#8965D6" stroke-width="2.13113" stroke-linecap="round"/>
<path d="M52.2407 66.3301C49.2258 68.5909 44.9491 67.9796 42.6883 64.9647C40.4276 61.9498 41.0389 57.6731 44.0538 55.4123C47.0687 53.1516 51.3454 53.7629 53.6062 56.7778C55.8669 59.7926 55.2556 64.0694 52.2407 66.3301Z" fill="#8ED8E7"/>
<path fill-rule="evenodd" clip-rule="evenodd" d="M61.4844 43.6706L61.4934 43.6639L52.4668 31.6263C52.4321 31.5786 52.397 31.5311 52.3615 31.4837C52.326 31.4364 52.2902 31.3894 52.2541 31.3427L52.0469 31.0664L52.0389 31.0724C46.6728 24.5291 35.2084 24.6652 26.1184 31.4815C17.0284 38.2978 13.6858 49.2649 18.4637 56.2493L18.4536 56.2569L27.9 68.8544L27.9091 68.8476C28.0069 68.9905 28.1081 69.1318 28.2127 69.2713C33.4298 76.2287 45.1792 76.2297 54.4558 69.2735C63.7323 62.3174 67.0231 51.0382 61.806 44.0808C61.7014 43.9413 61.5942 43.8046 61.4844 43.6706Z" fill="#F54949"/>
<path d="M41.629 52.1658C36.1243 56.2936 29.0877 56.2072 25.9125 51.9728C22.7372 47.7383 24.6256 40.9594 30.1304 36.8315C35.6352 32.7037 42.6717 32.7901 45.847 37.0245C49.0222 41.259 47.1338 48.0379 41.629 52.1658Z" fill="#DE3342"/>
<path fill-rule="evenodd" clip-rule="evenodd" d="M46.955 39.1744C48.334 43.3122 46.2641 48.6869 41.6166 52.172C36.9753 55.6523 31.2452 56.1368 27.6585 53.6652C26.2795 49.5275 28.3494 44.1527 32.9969 40.6677C37.6382 37.1873 43.3683 36.7028 46.955 39.1744Z" fill="#CD2D3B"/>
<path fill-rule="evenodd" clip-rule="evenodd" d="M34.922 55.0618C37.1793 54.7145 39.5155 53.7513 41.6264 52.1684C43.7327 50.589 45.3095 48.6214 46.2758 46.5568C46.0971 46.2142 45.8883 45.8816 45.6489 45.5624C43.2675 42.3865 38.7624 41.7426 35.5866 44.124C32.4107 46.5054 31.7668 51.0105 34.1482 54.1863C34.3861 54.5036 34.6452 54.7956 34.922 55.0618Z" fill="#8ED8E7"/>
<path d="M39.218 44.9716C40.0649 44.3366 41.2663 44.5083 41.9013 45.3552L42.1888 45.7386C42.8238 46.5854 42.6521 47.7868 41.8052 48.4218C40.9583 49.0569 39.757 48.8852 39.1219 48.0383L38.8345 47.6549C38.1994 46.808 38.3712 45.6067 39.218 44.9716Z" fill="#D6FFFF"/>
<path d="M55.8899 67.3365C57.4248 63.8949 61.4591 62.3492 64.9007 63.8842C68.3422 65.4191 69.8879 69.4533 68.353 72.8949C66.818 76.3365 62.7838 77.8822 59.3422 76.3472C55.9006 74.8123 54.355 70.7781 55.8899 67.3365Z" fill="#8ED8E7"/>
<path fill-rule="evenodd" clip-rule="evenodd" d="M75.4771 53.0812C67.535 49.5391 57.268 55.2521 52.5452 65.8416C47.8223 76.431 50.4321 87.887 58.3742 91.4291C58.5352 91.5009 58.6972 91.569 58.86 91.6332L58.8562 91.6419L72.5752 97.7605C72.6352 97.7884 72.6954 97.8159 72.7559 97.8429C72.8164 97.8699 72.8771 97.8964 72.9379 97.9223L73.2366 98.0555L73.2406 98.0465C81.1111 101.152 91.0605 95.4578 95.6879 85.0825C100.315 74.7073 97.9035 63.5002 90.3342 59.7196L90.3396 59.7076L75.9591 53.294L75.9536 53.3064C75.797 53.2281 75.6381 53.153 75.4771 53.0812Z" fill="#EADA4E"/>
<path d="M72.0714 74.55C74.874 68.2661 81.0644 64.9196 85.8982 67.0755C90.7319 69.2313 92.3785 76.073 89.576 82.3569C86.7734 88.6408 80.5829 91.9872 75.7492 89.8314C70.9154 87.6756 69.2688 80.8338 72.0714 74.55Z" fill="#EDAC2E"/>
<path fill-rule="evenodd" clip-rule="evenodd" d="M73.723 88.4961C70.5093 85.5501 69.7057 79.8497 72.0708 74.5466C74.4347 69.2464 79.2089 66.0359 83.5462 66.4544C86.76 69.4004 87.5635 75.1008 85.1984 80.4039C82.8345 85.7041 78.0603 88.9146 73.723 88.4961Z" fill="#E9862C"/>
<path fill-rule="evenodd" clip-rule="evenodd" d="M76.5224 68.7622C74.7194 70.1633 73.1469 72.1407 72.0724 74.5499C70.9997 76.9551 70.5788 79.442 70.739 81.7166C71.061 81.9283 71.4044 82.1168 71.7678 82.2789C75.3931 83.8958 79.6428 82.2676 81.2596 78.6423C82.8765 75.017 81.2483 70.7674 77.623 69.1505C77.2613 68.9892 76.8934 68.8602 76.5224 68.7622Z" fill="#8ED8E7"/>
<path d="M77.6576 79.6626C77.2265 80.6294 76.0932 81.0636 75.1265 80.6324L74.6889 80.4372C73.7221 80.0061 73.288 78.8728 73.7191 77.9061C74.1503 76.9393 75.2835 76.5051 76.2503 76.9363L76.6879 77.1315C77.6546 77.5626 78.0888 78.6959 77.6576 79.6626Z" fill="#D6FFFF"/>
<path d="M73.0838 43.3669L86.6973 33.9502" stroke="#8965D6" stroke-width="5.73972" stroke-linecap="round"/>
<ellipse cx="87.2348" cy="33.5657" rx="6.70395" ry="8.31594" transform="rotate(-35.9071 87.2348 33.5657)" fill="#8965D6"/>
<ellipse cx="88.6101" cy="32.5685" rx="6.39688" ry="8.31594" transform="rotate(-35.9071 88.6101 32.5685)" fill="#C292FF"/>
<path d="M86.4963 29.0492L91.3902 35.8498" stroke="#8965D6" stroke-width="1.91324" stroke-linecap="round"/>
<path d="M86.883 33.8809L91.0026 31.0238" stroke="#8965D6" stroke-width="1.91324" stroke-linecap="round"/>
<path d="M68.1069 23.6797L74.9927 11.8921" stroke="#D3BA5F" stroke-width="4.7336" stroke-linecap="round"/>
<ellipse cx="75.2346" cy="11.4557" rx="5.56717" ry="6.85824" transform="rotate(-60.943 75.2346 11.4557)" fill="#D3BA5F"/>
<ellipse cx="75.9328" cy="10.1969" rx="5.27557" ry="6.85824" transform="rotate(-60.943 75.9328 10.1969)" fill="#FFEE59"/>
<path d="M73.1265 8.29709L79.1568 11.6706" stroke="#D3BA5F" stroke-width="1.57787" stroke-linecap="round"/>
<path d="M75.0991 11.774L77.1801 8.20138" stroke="#D3BA5F" stroke-width="1.57787" stroke-linecap="round"/>
</svg>
