<?xml version="1.0"?>
<svg xmlns="http://www.w3.org/2000/svg" viewBox="0 0 112 112" fill="none">
<rect width="16.7847" height="56.3956" rx="8.39235" transform="matrix(-0.902742 -0.430182 -0.430182 0.902742 54.8403 58.9463)" fill="#D2E5ED"/>
<rect width="30.2687" height="35.3135" rx="15.1343" transform="matrix(-0.88654 -0.462652 -0.462652 0.88654 58.1055 53.3809)" fill="#D2E5ED"/>
<path d="M20.0389 64.7383C14.6283 61.7652 12.6524 54.9688 15.6255 49.5582C18.5987 44.1476 25.395 42.1717 30.8056 45.1448L32.299 45.9654C37.7096 48.9386 39.6856 55.7349 36.7124 61.1455C33.7393 66.5561 26.9429 68.5321 21.5323 65.5589L20.0389 64.7383Z" fill="#41CE93"/>
<path d="M19.1472 58.8877C16.9227 57.8623 16.3214 54.4234 17.8042 51.2068C19.2869 47.9901 22.2922 46.2137 24.5167 47.2391C26.7411 48.2645 27.3424 51.7033 25.8597 54.92C24.377 58.1367 21.3717 59.9131 19.1472 58.8877Z" fill="#28A872"/>
<path d="M84.3368 31.0249C90.0911 27.0956 91.5705 19.2454 87.6411 13.4911C83.7117 7.7368 75.8615 6.25742 70.1072 10.1868L67.932 11.6722C62.1777 15.6016 60.6983 23.4518 64.6277 29.2061C68.5571 34.9603 76.4073 36.4397 82.1616 32.5103L84.3368 31.0249Z" fill="#41CE93"/>
<rect x="47.7847" y="30.3579" width="17.0814" height="59.8757" rx="8.54071" transform="rotate(-33.0972 47.7847 30.3579)" fill="#D2E5ED"/>
<rect x="41.5571" y="20.8198" width="34.1628" height="39.8566" rx="17.0814" transform="rotate(-33.0972 41.5571 20.8198)" fill="#D2E5ED"/>
<rect x="53.5151" y="34.4302" width="5.3447" height="13.4012" rx="2.67235" transform="rotate(-32.8023 53.5151 34.4302)" fill="#9EAFD1"/>
</svg>
