<?xml version="1.0"?>
<svg xmlns="http://www.w3.org/2000/svg" viewBox="0 0 112 112" fill="none">
<mask id="mask0" mask-type="alpha" maskUnits="userSpaceOnUse" x="0" y="0" width="112" height="112">
<rect width="112" height="112" fill="white"/>
</mask>
<g mask="url(#mask0)">
<path d="M72.9201 49.913C73.7375 53.8766 73.5152 57.065 72.4755 59.6643C74.66 60.876 76.3256 63.0317 76.8601 65.7156C77.619 69.5277 75.6644 72.3496 72.4797 73.8352C71.3563 74.3592 70.6403 75.5821 70.9207 76.7896C71.0507 77.3491 71.1693 77.9211 71.2755 78.504C72.6931 86.2872 71.0072 91.24 67.9378 92.8145L66.5026 128.853C66.3253 133.305 60.3562 134.628 58.314 130.669L56.9993 128.12L55.2315 124.698L55.2329 124.696L51.3043 117.079L51.3005 117.077L48.2677 111.197L48.2715 111.2L44.1235 103.158L44.1221 103.16L42.3557 99.7355L42.3572 99.7332L40.2498 95.6476L40.2459 95.6452L37.2131 89.7654L37.217 89.7678L36.8767 89.1081L36.8753 89.1104L35.1089 85.6859L35.1104 85.6836L33.8192 83.1804C29.3686 83.5428 25.5831 81.6152 24.662 77.0084C24.1825 74.6101 24.6384 72.2384 25.777 70.2758C23.1999 68.2642 21.3197 65.0981 20.3379 60.3391C17.2619 45.4267 26.5395 31.0039 41.0591 28.1251C55.5791 25.2458 69.8442 35.0012 72.9201 49.913Z" fill="#BF8DFF" stroke="#DAE5ED" stroke-width="10.2385"/>
<path d="M58.3206 130.668L30.1313 76.0166C29.4792 74.7523 30.2004 73.2132 31.5892 72.9052L66.3198 65.2043C67.7087 64.8964 69.0129 65.9864 68.9562 67.4079L66.5092 128.852C66.3319 133.304 60.3628 134.627 58.3206 130.668Z" fill="#E7872E"/>
<path fill-rule="evenodd" clip-rule="evenodd" d="M55.2387 124.703L57.5568 121.064L51.3087 117.084L48.2759 111.204L49.1119 111.737L53.841 104.313L46.414 99.5821L44.1302 103.167L42.3639 99.7426L43.6057 97.7932L40.2585 95.661L37.2257 89.7812L45.3946 94.9849L50.1287 87.5534L41.4101 81.9995L36.88 89.1109L35.1136 85.6864L38.6019 80.2106L29.92 74.68C30.0601 73.8472 30.6827 73.1197 31.5906 72.9184L32.8971 72.6287L40.3908 77.4023L45.1644 69.9086L51.7378 68.4511L59.2491 73.236L64.034 65.7246L66.3212 65.2175C66.9651 65.0747 67.5908 65.2324 68.0712 65.5844L62.0574 75.0249L68.4916 79.1236L68.1352 88.0714L64.9611 93.0541L67.8631 94.9027L67.7098 98.7529L63.1722 95.8623L58.4382 103.294L65.8637 108.024L67.4391 105.551L67.1507 112.792L66.883 112.621L62.154 120.045L66.7454 122.97L66.592 126.82L60.3651 122.853L57.005 128.128L55.2387 124.703ZM64.0748 110.832L59.3457 118.256L51.9202 113.526L56.6492 106.102L64.0748 110.832ZM67.6955 82.5643L60.2685 77.8332L54.7259 86.534L62.1529 91.2652L67.6955 82.5643ZM60.3639 94.0734L52.9369 89.3423L48.2029 96.7738L55.6299 101.505L60.3639 94.0734ZM57.4602 76.0442L51.9176 84.7451L43.1991 79.1912L48.7417 70.4904L57.4602 76.0442Z" fill="#D36B30"/>
<path fill-rule="evenodd" clip-rule="evenodd" d="M42.0734 82.7353C41.0826 81.8586 39.5624 81.5106 38.352 82.0448C37.4864 82.4267 36.5424 82.7228 35.5436 82.9275C30.3751 83.9867 25.696 82.1983 24.6575 77.0046C23.6192 71.8109 26.9675 66.7419 32.1358 65.6827C35.0292 65.0896 37.8798 65.8791 40.0109 67.6002C41.108 68.4862 42.8043 68.5925 44.0004 67.8455C44.9697 67.2402 46.0629 66.7977 47.2509 66.5623C49.6203 66.0929 51.969 66.5264 53.9463 67.6265C55.5388 68.5126 58.4671 67.7331 59.5425 66.2618C59.7522 65.975 59.8434 65.728 59.9245 65.3821C60.6855 62.1335 63.2187 59.4692 66.6316 58.7671C71.326 57.8011 75.9073 60.913 76.864 65.7174C77.623 69.5296 75.6682 72.3515 72.4834 73.837C71.3602 74.361 70.6441 75.5835 70.9244 76.7909C71.0538 77.3486 71.172 77.9187 71.2778 78.4998C72.8454 87.1059 70.6183 92.2515 66.9221 93.1957C63.2259 94.14 59.4603 90.5254 57.8926 81.9196C57.8097 81.4648 57.1961 81.3011 56.8649 81.6237C55.3944 83.056 53.3105 84.0435 50.9175 84.5175C47.4793 85.1986 44.2414 84.6538 42.0734 82.7353Z" fill="#84392C"/>
<path fill-rule="evenodd" clip-rule="evenodd" d="M72.9135 49.9158C75.9891 64.8287 64.3453 68.7683 49.8252 71.6472C35.3051 74.526 23.4077 75.2541 20.3313 60.3418C17.2553 45.4295 26.5329 31.0066 41.0525 28.1278C55.5725 25.2485 69.8376 35.0039 72.9135 49.9158Z" fill="#AC79FF"/>
<circle cx="34.2083" cy="52.506" r="6.64337" transform="rotate(-11.2019 34.2083 52.506)" fill="#39414B"/>
<ellipse cx="34.3547" cy="58.967" rx="6.64337" ry="4.15211" transform="rotate(-11.2019 34.3547 58.967)" fill="#AC79FF"/>
<circle cx="58.1101" cy="47.7736" r="6.64337" transform="rotate(-11.2019 58.1101 47.7736)" fill="#39414B"/>
<ellipse cx="59.3415" cy="54.0192" rx="6.64337" ry="4.15211" transform="rotate(-11.2019 59.3415 54.0192)" fill="#AC79FF"/>
<path d="M33.7925 51.7648C32.6604 52.756 31.1399 52.8712 30.3965 52.022C29.6531 51.1729 29.9682 49.681 31.1004 48.6898C32.2326 47.6986 33.753 47.5834 34.4965 48.4325C35.2399 49.2816 34.9247 50.7735 33.7925 51.7648Z" fill="white"/>
<path d="M57.8321 47.0021C56.6999 47.9933 55.1794 48.1085 54.436 47.2594C53.6926 46.4102 54.0078 44.9183 55.14 43.9271C56.2721 42.9359 57.7926 42.8207 58.536 43.6699C59.2794 44.519 58.9643 46.0109 57.8321 47.0021Z" fill="white"/>
<path d="M35.2598 60.7837L36.0115 61.1986C44.1368 65.6839 54.3113 63.6689 60.1138 56.4254L60.6506 55.7553" stroke="#9458F5" stroke-width="3.49657" stroke-linecap="round" stroke-linejoin="round"/>
<ellipse opacity="0.4" cx="36.3901" cy="43.0884" rx="12.3749" ry="7.51207" transform="rotate(-38.4637 36.3901 43.0884)" fill="#D1AEFF"/>
<path d="M77.2201 22.0509L79.2381 21.3744C80.4034 20.9837 80.9049 19.6099 80.2675 18.5543L76.5364 12.3753C75.4527 10.5805 77.6023 8.59287 79.2991 9.8209L94.7713 21.0191C96.463 22.2435 96.0678 24.8709 94.0923 25.5332L91.579 26.3758C90.4507 26.754 89.9364 28.0611 90.5022 29.1126L94.0001 35.6137C94.9887 37.4509 92.7672 39.327 91.1288 38.0386L76.4594 26.5033C74.8542 25.2411 75.2886 22.6984 77.2201 22.0509Z" fill="#FF6666"/>
<path fill-rule="evenodd" clip-rule="evenodd" d="M76.2857 18.6864L76.1145 18.7439C71.5367 20.2785 70.5438 26.2727 74.3086 29.2331L88.9779 40.7684C93.6237 44.4217 99.8187 39.0729 97.0665 33.9578L94.4425 29.081L95.1997 28.8271C99.8821 27.2574 100.781 21.0643 96.8131 18.1926L81.3409 6.9944C76.5246 3.50855 70.5431 9.17611 73.5574 14.1681L76.5374 12.3687C75.4536 10.5739 77.6032 8.58631 79.3 9.81435L94.7722 21.0125C96.4639 22.2369 96.0687 24.8643 94.0932 25.5266L91.5799 26.3692C90.4516 26.7475 89.9373 28.0545 90.5031 29.1061L94.001 35.6072C94.9896 37.4444 92.7681 39.3205 91.1297 38.0321L76.4603 26.4968C74.8551 25.2345 75.2895 22.6919 77.221 22.0444L79.239 21.3678C80.4043 20.9772 80.9058 19.6033 80.2684 18.5477L76.5374 12.3687L73.5574 14.1681L76.2857 18.6864Z" fill="#DAE5ED"/>
</g>
</svg>
