<?xml version="1.0"?>
<svg xmlns="http://www.w3.org/2000/svg" viewBox="0 0 112 112" fill="none">
<mask id="mask0" mask-type="alpha" maskUnits="userSpaceOnUse" x="0" y="0" width="112" height="112">
<rect width="112" height="112" fill="white"/>
</mask>
<g mask="url(#mask0)">
<path d="M33.6385 42.8737C31.9828 33.1792 38.4995 23.9781 48.194 22.3224C57.8885 20.6667 67.0896 27.1835 68.7453 36.8779L88.8739 154.736L53.7672 160.732L33.6385 42.8737Z" fill="#97C7E3"/>
<path d="M37.5168 35.4685C36.4265 29.0847 44.1861 25.3 49.8112 24.3393L49.1147 20.2613C49.1147 20.2613 38.6636 21.401 32.2657 29.2685C27.577 35.0341 27.43 44.0471 28.9727 48.4989C29.309 49.4692 30.3421 49.9203 31.3545 49.7474L38.4587 48.5341L36.594 50.1358C35.5151 51.0625 35.7662 52.8689 36.9242 53.6946C43.9425 58.6991 52.0751 71.4148 55.7376 77.8262C51.562 53.3768 38.3198 40.1703 37.5168 35.4685Z" fill="#EBFAFF"/>
<path d="M63.8633 30.9542C62.7731 24.5704 54.8412 23.4656 48.5721 24.5363L47.8757 20.4583C47.8757 20.4583 58.1126 18.0648 66.759 23.3629C73.0955 27.2455 76.2255 35.6988 76.2478 40.4103C76.2526 41.4373 75.4277 42.2056 74.4154 42.3785L67.3111 43.5918L69.6018 44.4839C70.9271 45 71.2898 46.7875 70.4721 47.9511C65.5162 55.0037 62.0803 69.7078 60.7533 76.9713C56.5777 52.5219 64.6664 35.656 63.8633 30.9542Z" fill="#EBFAFF"/>
<path d="M47.172 24.2281L22.0108 44.0588C18.9117 46.5013 21.1185 51.4653 25.0081 50.801L79.2621 41.5351C83.1133 40.8774 83.593 35.5382 79.9206 34.2046L50.8277 23.6398C49.5894 23.1901 48.2067 23.4126 47.172 24.2281Z" stroke="#ED38DB" stroke-width="2.53784" stroke-linejoin="round"/>
<path d="M48.9132 23.0659L37.7519 31.7454L62.3224 27.5491L48.9132 23.0659Z" fill="#ED38DB"/>
<path d="M49.0516 24.7676L45.4458 27.5839C45.0807 27.8691 45.3387 28.453 45.7954 28.375L53.7373 27.0186C54.194 26.9406 54.2436 26.3042 53.8046 26.1564L49.4684 24.6964C49.3264 24.6485 49.1698 24.6753 49.0516 24.7676Z" fill="#D126C0"/>
<path d="M48.8372 21.8906L48.3367 18.9596C56.868 11.9294 45.9567 5.03252 42.5502 13.5777" stroke="#FF6BF0" stroke-width="2.53784" stroke-linecap="round" stroke-linejoin="round"/>
<path d="M82.6282 31.2816C79.0438 28.3452 72.691 26.2781 68.3216 25.3375C61.3742 32.4777 60.2398 61.9091 60.0004 72.5673L74.4886 157.399C74.8091 159.276 76.4628 160.62 78.3547 160.409C87.5564 159.379 96.2518 155.505 100.279 153.486C101.705 152.771 102.446 151.203 102.167 149.633C97.8863 125.487 91.1602 99.2899 85.0579 63.5592C83.0761 48.1801 80.3425 34.1527 82.6282 31.2816Z" fill="#B9E0F6"/>
<path d="M102.048 77.1255C97.4183 57.1516 89.2444 34.7535 82.6278 31.2786C77.3017 37.588 82.0238 56.3449 83.8128 65.1461L86.2105 76.9084C87.4647 83.0616 86.3988 89.4612 83.2179 94.8756L80.1583 100.084C79.3217 101.508 79.7144 103.335 81.0621 104.289L87.6178 108.932C88.9881 109.903 90.8867 109.634 91.9214 108.311C95.2511 104.055 97.6825 100.575 99.4574 97.7714C103.366 91.5986 103.698 84.2428 102.048 77.1255Z" fill="#D6F4FF"/>
<path d="M75.0898 74.3607L73.9632 66.8392C73.8884 66.3398 74.2203 65.87 74.716 65.7736C74.7237 65.7721 74.7313 65.7707 74.7389 65.7694C75.213 65.6902 75.6623 66.0163 75.7313 66.495L76.8274 74.1055C76.9117 74.6908 76.405 75.1905 75.8209 75.098C75.4425 75.038 75.1466 74.7397 75.0898 74.3607Z" fill="#B64532"/>
<path d="M74.716 65.7736V65.7736C75.1984 65.6797 75.6612 66.0086 75.7313 66.495L76.8274 74.1055C76.9117 74.6908 76.405 75.1905 75.8209 75.098V75.098C75.4425 75.038 75.1466 74.7397 75.0898 74.3607L73.9632 66.8392C73.8884 66.3398 74.2203 65.87 74.716 65.7736V65.7736ZM74.716 65.7736L77.3778 65.2922" stroke="#FE6348" stroke-width="0.867628"/>
<path d="M67.6303 71.9081C67.4529 70.8694 68.1511 69.8835 69.1898 69.7061L78.9069 68.0466C79.9455 67.8692 80.9314 68.5674 81.1088 69.6061L83.2173 81.952C83.3065 82.4744 83.1744 83.0104 82.8527 83.4315L78.7661 88.7808C78.1588 89.5757 77.0408 89.7666 76.2041 89.2184L70.5737 85.5286C70.1305 85.2381 69.828 84.7764 69.7388 84.254L67.6303 71.9081Z" fill="#EBFAFF"/>
<path d="M75.1997 63.7383C75.1167 63.2664 75.4319 62.8165 75.9038 62.7334L76.3354 62.6574C76.8073 62.5744 77.2572 62.8896 77.3402 63.3615L78.0922 67.634C78.1753 68.1059 77.8601 68.5558 77.3881 68.6389L76.9566 68.7148C76.4847 68.7979 76.0348 68.4827 75.9517 68.0107L75.1997 63.7383Z" fill="#CC503B"/>
<path d="M75.0527 65.2637L77.1291 64.9056C77.8374 64.7834 78.5106 65.2586 78.6328 65.9669L82.1716 86.485C82.1978 86.6368 82.1968 86.792 82.1688 86.9434L81.7818 89.0311C81.6394 89.7997 80.6331 90.0028 80.2037 89.3496L79.0013 87.5203C78.903 87.3709 78.8367 87.2028 78.8063 87.0266L75.0527 65.2637Z" fill="#FE6348"/>
<path fill-rule="evenodd" clip-rule="evenodd" d="M82.1873 86.6251C82.1941 86.7317 82.1877 86.8389 82.1681 86.9442L81.7812 89.032C81.6388 89.8005 80.6324 90.0036 80.2031 89.3504L79.0006 87.5211C78.9369 87.4241 78.8865 87.3192 78.8507 87.2094C79.2017 86.7062 79.777 86.3356 80.465 86.2343C81.1044 86.1402 81.7177 86.2969 82.1873 86.6251Z" fill="#CC503B"/>
<path d="M81.6354 89.2764C81.6642 89.472 81.4091 89.6715 81.0656 89.7221C80.7221 89.7727 80.4203 89.6551 80.3915 89.4596C80.3627 89.264 80.6178 89.0645 80.9613 89.0139C81.3048 88.9633 81.6066 89.0809 81.6354 89.2764Z" fill="#AF3F2C"/>
<path d="M77.8091 98.6386C76.9012 97.8813 75.5415 98.6641 75.7405 99.8295L76.0927 101.891C76.146 102.203 76.3135 102.484 76.5626 102.679L90.3186 113.445C91.1624 114.105 92.3947 113.49 92.3743 112.419L92.3538 111.342C92.3468 110.973 92.18 110.625 91.8968 110.389L77.8091 98.6386Z" fill="#EBFAFF"/>
<path d="M60.753 76.9681C56.5773 52.5188 64.666 35.6528 63.863 30.951C63.3785 28.1142 61.543 26.3199 59.1027 25.2956L66.7586 23.3597C73.0951 27.2423 76.2251 35.6957 76.2474 40.4071C76.2522 41.4341 75.4273 42.2024 74.415 42.3753L67.3107 43.5886L69.6014 44.4807C70.9267 44.9968 71.2894 46.7843 70.4717 47.948C65.5158 55.0005 62.0799 69.7046 60.753 76.9681Z" fill="#EBFAFF"/>
<path d="M16.2348 97.5824C11.9961 62.0507 13.8548 48.491 19.8924 41.9958C27.0107 46.1799 28.2009 65.54 29.4344 74.4361L36.2545 123.825C36.4893 125.525 35.332 127.105 33.6398 127.394L22.9729 129.216C21.0986 129.536 19.351 128.153 19.2014 126.257C18.8384 121.66 18.0068 112.436 16.2348 97.5824Z" fill="#D6F4FF"/>
<path d="M19.9373 41.9877C22.344 38.0281 27.6506 33.9697 31.4602 31.6322C40.3835 36.0619 51.2217 63.4485 54.9849 73.4231L69.3911 157.775C69.7459 159.853 68.3413 161.798 66.2529 162.08C56.4501 163.407 48.2062 163.206 44.0736 162.959C42.3817 162.857 41.0262 161.584 40.7522 159.911C36.797 135.766 34.4432 108.872 28.358 73.242C25.1233 58.0769 23.0463 43.9374 19.9373 41.9877Z" fill="#B9E0F6"/>
<path d="M32.8776 112.713C32.2176 111.785 32.4349 110.498 33.3629 109.838L42.5483 103.306C43.4762 102.646 44.7635 102.863 45.4235 103.791L46.4358 105.215C46.9353 105.917 46.9452 106.856 46.4607 107.569L38.0343 119.965L32.8776 112.713Z" fill="#FFDF8A"/>
<circle cx="35.2508" cy="111.692" r="1.11227" transform="rotate(-35.4191 35.2508 111.692)" fill="#DDA26C"/>
<rect x="32.667" y="109.383" width="1.58765" height="3.70451" rx="0.793824" transform="rotate(-35.4191 32.667 109.383)" fill="#485B71"/>
<circle cx="38.0379" cy="109.709" r="1.11227" transform="rotate(-35.4191 38.0379 109.709)" fill="#DDA26C"/>
<rect x="35.4541" y="107.399" width="1.58765" height="3.70451" rx="0.793824" transform="rotate(-35.4191 35.4541 107.399)" fill="#485B71"/>
<circle cx="40.8938" cy="107.68" r="1.11227" transform="rotate(-35.4191 40.8938 107.68)" fill="#DDA26C"/>
<rect x="38.3101" y="105.37" width="1.58765" height="3.70451" rx="0.793824" transform="rotate(-35.4191 38.3101 105.37)" fill="#485B71"/>
<circle cx="43.7493" cy="105.646" r="1.11227" transform="rotate(-35.4191 43.7493 105.646)" fill="#DDA26C"/>
<rect x="41.1655" y="103.336" width="1.58765" height="3.70451" rx="0.793824" transform="rotate(-35.4191 41.1655 103.336)" fill="#485B71"/>
<path d="M46.8778 103.921C47.4829 102.905 49.0253 103.192 49.2243 104.358L49.5764 106.42C49.6297 106.732 49.5648 107.052 49.3946 107.319L39.9914 122.04C39.4146 122.943 38.0481 122.772 37.7117 121.754L37.3736 120.731C37.2578 120.381 37.2997 119.998 37.4885 119.681L46.8778 103.921Z" fill="#EBFAFF"/>
<path d="M54.135 80.4599C54.3715 81.8449 53.7213 83.1114 52.6826 83.2888C51.6439 83.4662 50.6101 82.4873 50.3736 81.1024C50.1371 79.7174 50.7873 78.4509 51.826 78.2735C52.8647 78.0961 53.8985 79.075 54.135 80.4599Z" fill="white"/>
<path d="M57.488 100.094C57.7246 101.479 57.0743 102.745 56.0356 102.923C54.9969 103.1 53.9631 102.121 53.7266 100.736C53.4901 99.3512 54.1404 98.0847 55.1791 97.9073C56.2178 97.7299 57.2515 98.7088 57.488 100.094Z" fill="white"/>
<path d="M55.7376 77.8266C51.562 53.3772 38.3197 40.1707 37.5167 35.4689C36.9564 32.1879 39.5226 28.4573 42.1464 26.5799L38.4795 23.9979C38.4795 23.9979 34.115 26.9947 32.2656 29.2689C27.577 35.0345 27.43 44.0475 28.9727 48.4993C29.309 49.4696 30.3421 49.9207 31.3544 49.7478L38.4587 48.5344L36.5939 50.1362C35.515 51.0629 35.7662 52.8693 36.9242 53.695C43.9425 58.6995 52.0751 71.4152 55.7376 77.8266Z" fill="#EBFAFF"/>
<rect x="44.3721" y="33.9434" width="12.7197" height="7.6318" rx="1.90795" transform="rotate(-9.69185 44.3721 33.9434)" fill="#BEDFF3"/>
<path fill-rule="evenodd" clip-rule="evenodd" d="M68.7633 93.6498C68.7043 93.3044 68.9365 92.9766 69.2819 92.9176L73.0448 92.2749C73.7373 92.1566 74.3945 92.6221 74.5128 93.3146L74.6198 93.9413C74.6789 94.2876 74.4461 94.6163 74.0998 94.6755C73.7534 94.7347 73.5206 95.0634 73.5798 95.4097L73.7935 96.6615C73.8527 97.0077 73.6199 97.3363 73.2737 97.3955C72.9275 97.4546 72.5989 97.2219 72.5397 96.8756L72.3259 95.6235C72.2668 95.2774 71.9382 95.0447 71.592 95.1038C71.2459 95.1629 71.0132 95.4915 71.0723 95.8376L71.9819 101.164C72.0706 101.683 71.7215 102.176 71.2021 102.265C70.6828 102.353 70.1899 102.004 70.1012 101.485L68.8699 94.2755C68.8699 94.2754 68.8699 94.2754 68.87 94.2753C68.8701 94.2753 68.8701 94.2753 68.8701 94.2752L68.7633 93.6498Z" fill="#FBA0F7"/>
</g>
</svg>
