<?xml version="1.0"?>
<svg xmlns="http://www.w3.org/2000/svg" viewBox="0 0 112 112" fill="none">
<mask id="mask0" mask-type="alpha" maskUnits="userSpaceOnUse" x="0" y="0" width="112" height="112">
<rect width="112" height="112" fill="white"/>
</mask>
<g mask="url(#mask0)">
<circle cx="44.4058" cy="25.713" r="3.31844" fill="#FF6581"/>
<path opacity="0.85" fill-rule="evenodd" clip-rule="evenodd" d="M57.6541 27.9695C56.9002 25.6566 54.414 24.3927 52.1011 25.1467L37.6588 29.8543C35.3458 30.6082 34.082 33.0944 34.8359 35.4073L37.1367 42.4656C37.7051 44.2094 37.113 46.1036 35.791 47.3749C26.7404 56.0785 22.9175 69.5024 27.0699 82.2414C32.8562 99.9929 51.9372 109.693 69.6887 103.906C87.4401 98.1201 97.1398 79.039 91.3535 61.2876C87.2207 48.6084 76.3052 40.037 63.9362 38.2823C62.1296 38.026 60.5478 36.8469 59.9823 35.1121L57.6541 27.9695Z" fill="#A3DAFF"/>
<rect x="31.2607" y="31.9365" width="27.8707" height="10.0644" rx="3.67065" transform="rotate(-18.0539 31.2607 31.9365)" fill="#B7E0FF"/>
<path d="M79.5427 67.8621C83.9712 67.6705 88.7516 70.6132 85.8333 73.7354C81.8536 77.9932 74.4162 82.0976 65.125 84.9319C51.4118 89.1151 38.4723 88.4369 33.9277 83.6928C32.7299 82.4425 32.3326 80.696 32.2259 79.0256C31.0452 60.5343 62.5978 68.5953 79.5427 67.8621Z" fill="#FF617E"/>
<path d="M87.6707 67.8816C87.4487 65.4399 86.0377 63.1505 83.737 62.4267C70.2462 58.1824 62.9026 88.5004 33.2532 82.7244C38.9717 96.2039 54.0558 103.103 68.1519 98.2322C81.0187 93.7859 88.8618 80.9844 87.6707 67.8816Z" fill="#DE4762"/>
<ellipse cx="39.8676" cy="56.3815" rx="8.98123" ry="5.98868" transform="rotate(-49.585 39.8676 56.3815)" fill="white"/>
<circle cx="62.9456" cy="94.14" r="1.96029" fill="#FF6581"/>
<circle cx="57.488" cy="88.7673" r="1.46061" fill="#FF6581"/>
<circle cx="70.1222" cy="83.0426" r="5.06213" fill="#FF6581"/>
<circle cx="47.15" cy="88.4171" r="3.09675" fill="#FF6581"/>
<circle cx="32.5543" cy="18.2047" r="5.47323" fill="#FF859A"/>
<circle cx="54.7302" cy="12.3552" r="7.35522" fill="#FFA9C8"/>
</g>
</svg>
