<?xml version="1.0"?>
<svg xmlns="http://www.w3.org/2000/svg" viewBox="0 0 112 112" fill="none">
<mask id="mask0" mask-type="alpha" maskUnits="userSpaceOnUse" x="0" y="0" width="112" height="112">
<rect width="112" height="112" fill="white"/>
</mask>
<g mask="url(#mask0)">
<path d="M77.2266 67.9561L25.6278 72.4904C24.1684 72.6187 23.0893 73.9057 23.2176 75.3651L23.3297 76.6407C23.4579 78.1 24.7449 79.1791 26.2043 79.0509L77.8031 74.5165C79.2625 74.3883 80.3416 73.1013 80.2133 71.6419L80.1012 70.3663C79.973 68.9069 78.686 67.8278 77.2266 67.9561Z" fill="#F6B11B"/>
<path d="M75.3092 50.9474L76.4026 50.8467C76.8633 50.8049 77.3112 50.6728 77.7209 50.4579C78.1305 50.2429 78.4937 49.9493 78.7898 49.5939C79.086 49.2385 79.3091 48.8283 79.4466 48.3866C79.5841 47.9449 79.6332 47.4804 79.5912 47.0198L79.5634 46.7293C79.4783 45.7995 79.0273 44.9415 78.3097 44.3442C77.592 43.7468 76.6665 43.459 75.7366 43.544L74.6433 43.6447L75.3092 50.9474Z" fill="#FF553E"/>
<path d="M73.5935 40.793L73.2303 40.8264C72.1205 40.9282 71.3033 41.9105 71.4051 43.0204L72.2426 52.1484C72.3444 53.2583 73.3267 54.0755 74.4366 53.9737L74.7997 53.9403C75.9096 53.8385 76.7268 52.8562 76.625 51.7463L75.7875 42.6183C75.6857 41.5084 74.7034 40.6912 73.5935 40.793Z" fill="#FFB762"/>
<path d="M63.16 71.5873L76.1121 70.3994C76.8901 70.3281 77.6745 70.4108 78.4205 70.6428C79.1665 70.8747 79.8595 71.2514 80.4598 71.7513C81.0602 72.2512 81.5562 72.8645 81.9194 73.5561C82.2826 74.2478 82.506 75.0042 82.5768 75.7822C82.6481 76.5603 82.5655 77.3448 82.3335 78.0909C82.1016 78.837 81.7249 79.53 81.225 80.1305C80.7252 80.731 80.1119 81.2271 79.4203 81.5906C78.7286 81.954 77.9721 82.1775 77.194 82.2485L64.2469 83.4378L63.16 71.5873Z" fill="#BEDCE4"/>
<path d="M80.945 81.9659C103.802 111.354 110.78 81.2673 104.209 62.3612" stroke="#81BCCA" stroke-width="6.90789" stroke-miterlimit="10" stroke-linecap="round"/>
<path d="M80.6073 84.912C101.271 110.264 111.124 84.2388 104.604 63.9697" stroke="#A2CED8" stroke-width="6.90789" stroke-miterlimit="10" stroke-dasharray="8.63 5.18"/>
<path d="M76.5452 76.293C80.8241 79.2319 85.6198 96.9333 98.2539 93.7675" stroke="#E1EFF2" stroke-width="12.0888" stroke-miterlimit="10"/>
<path d="M104.702 62.594C107.028 62.223 109.113 60.9433 110.496 59.0363C111.88 57.1293 112.45 54.7509 112.081 52.4239" stroke="#81BCCA" stroke-width="5.18091" stroke-miterlimit="10" stroke-linecap="round"/>
<path d="M44.6734 13.8171C30.5545 15.1126 20.1715 27.7368 21.4811 42.0123L29.2373 126.53C29.261 126.806 29.339 127.074 29.4666 127.32C29.5942 127.566 29.769 127.784 29.9811 127.963C30.1931 128.141 30.4383 128.276 30.7024 128.359C30.9666 128.442 31.2446 128.473 31.5205 128.449L78.4692 124.142C78.7452 124.116 79.0134 124.035 79.2583 123.905C79.5032 123.775 79.7201 123.598 79.8965 123.384C80.0728 123.17 80.2053 122.923 80.2863 122.658C80.3673 122.393 80.3952 122.114 80.3684 121.838L72.6073 37.3209C71.2976 23.0454 58.7906 12.5217 44.6734 13.8171Z" fill="#B0DEE7"/>
<path d="M79.0842 134.082L75.089 77.1452L65.6457 80.7607C57.2426 83.9781 48.0739 84.6304 39.2999 82.635L27.9512 80.0541L29.727 136.534L79.0842 134.082Z" fill="#438CFA" stroke="#6AA6FF" stroke-width="3.1834"/>
<path d="M71.9718 84.7233L67.8024 85.1059C67.5997 85.1215 67.3991 85.0568 67.2438 84.9256C67.0885 84.7945 66.991 84.6075 66.9725 84.4051C66.954 84.2027 67.0158 84.0011 67.1448 83.844C67.2737 83.6869 67.4593 83.5868 67.6614 83.5654L71.8308 83.1828C71.9327 83.172 72.0358 83.1816 72.134 83.211C72.2322 83.2404 72.3236 83.289 72.4028 83.354C72.4821 83.419 72.5476 83.4992 72.5956 83.5897C72.6437 83.6803 72.6732 83.7795 72.6825 83.8816C72.6919 83.9836 72.6808 84.0866 72.6501 84.1843C72.6193 84.2821 72.5694 84.3728 72.5032 84.4511C72.4371 84.5294 72.3561 84.5938 72.2648 84.6406C72.1736 84.6873 72.074 84.7154 71.9718 84.7233Z" fill="#A2CED8"/>
<path d="M72.5576 91.176L68.3882 91.5586C68.1837 91.5775 67.9801 91.5144 67.8221 91.3832C67.6641 91.252 67.5647 91.0634 67.5458 90.8589C67.5269 90.6544 67.59 90.4507 67.7212 90.2928C67.8524 90.1348 68.041 90.0354 68.2455 90.0165L72.4149 89.6339C72.6194 89.615 72.8231 89.6781 72.981 89.8093C73.139 89.9406 73.2384 90.1292 73.2573 90.3337C73.2762 90.5381 73.2131 90.7418 73.0819 90.8998C72.9507 91.0577 72.7621 91.1571 72.5576 91.176Z" fill="#A2CED8"/>
<path d="M72.2655 87.9582L68.0977 88.3407C67.9962 88.351 67.8935 88.341 67.7958 88.3114C67.6981 88.2817 67.6072 88.2331 67.5284 88.1681C67.4496 88.1032 67.3844 88.0233 67.3366 87.9331C67.2888 87.8429 67.2594 87.7441 67.2499 87.6424C67.2405 87.5407 67.2513 87.4382 67.2817 87.3407C67.3122 87.2432 67.3616 87.1527 67.4271 87.0744C67.4927 86.9962 67.5731 86.9316 67.6637 86.8846C67.7543 86.8375 67.8534 86.8089 67.9551 86.8003L72.1245 86.4177C72.2265 86.4069 72.3295 86.4165 72.4277 86.4459C72.5259 86.4753 72.6173 86.5239 72.6966 86.5889C72.7758 86.6539 72.8414 86.7341 72.8894 86.8246C72.9374 86.9152 72.9669 87.0144 72.9763 87.1165C72.9856 87.2185 72.9746 87.3215 72.9438 87.4192C72.913 87.517 72.8631 87.6077 72.797 87.686C72.7308 87.7643 72.6498 87.8287 72.5586 87.8755C72.4673 87.9222 72.3677 87.9503 72.2655 87.9582Z" fill="#A2CED8"/>
<path d="M71.671 81.499L67.4951 81.8818C67.2906 81.9005 67.0871 81.8372 66.9292 81.7058C66.7714 81.5744 66.6722 81.3857 66.6535 81.1812C66.6348 80.9767 66.6981 80.7732 66.8295 80.6153C66.9609 80.4575 67.1496 80.3583 67.3541 80.3396L71.5318 79.9618C71.633 79.9525 71.7351 79.9633 71.8322 79.9935C71.9293 80.0237 72.0195 80.0727 72.0977 80.1377C72.1758 80.2028 72.2404 80.2826 72.2877 80.3726C72.335 80.4626 72.3641 80.5611 72.3734 80.6623C72.3826 80.7636 72.3719 80.8657 72.3417 80.9628C72.3115 81.0598 72.2624 81.15 72.1974 81.2282C72.1323 81.3063 72.0525 81.3709 71.9625 81.4182C71.8725 81.4655 71.7741 81.4946 71.6728 81.5039L71.671 81.499Z" fill="#A2CED8"/>
<path d="M25.657 18.0518L31.0686 22.3366" stroke="#B0DEE7" stroke-width="3.45394" stroke-miterlimit="10"/>
<ellipse rx="4.07868" ry="7.52517" transform="matrix(0.995462 -0.0951567 0.085473 0.99634 23.0855 52.5372)" fill="#FFB762"/>
<path fill-rule="evenodd" clip-rule="evenodd" d="M22.8789 56.8157C23.2498 56.7451 23.5452 56.4453 23.6695 56.0571C24.0134 54.983 24.1596 53.6731 24.04 52.2799C23.9422 51.1392 23.6786 50.0873 23.3004 49.1993C23.1372 48.8162 22.8061 48.5436 22.4185 48.5253C22.2649 48.518 22.109 48.5217 21.9515 48.537C20.0147 48.7249 18.5767 50.5946 18.7451 52.7062L18.8007 53.4025C18.968 55.5003 20.6583 57.0448 22.5825 56.8582C22.6827 56.8484 22.7816 56.8342 22.8789 56.8157Z" fill="#F65539"/>
<path d="M65.6505 14.2084L61.2953 18.9136" stroke="#B0DEE7" stroke-width="3.45394" stroke-miterlimit="10"/>
<path d="M58.4434 38.828L41.6188 40.3716C36.5838 40.8335 32.8767 45.2897 33.3386 50.3246L33.4081 51.0819C33.8701 56.1169 38.3262 59.8241 43.3612 59.3621L60.1857 57.8185C65.2207 57.3565 68.9279 52.9004 68.4659 47.8654L68.3964 47.1082C67.9345 42.0732 63.4783 38.366 58.4434 38.828Z" fill="#3C4C87"/>
<path d="M48.0061 51.7768L45.5421 52.0029C44.7245 52.0779 44.1226 52.8014 44.1976 53.619C44.2726 54.4366 44.9962 55.0386 45.8138 54.9636L48.2777 54.7375C49.0953 54.6625 49.6973 53.9389 49.6223 53.1213C49.5473 52.3037 48.8237 51.7018 48.0061 51.7768Z" fill="#56D8E3"/>
<path d="M59.2988 48.7788L56.6941 49.0078C56.0992 49.0601 55.6594 49.5848 55.7117 50.1797L55.756 50.684C55.8083 51.2789 56.333 51.7187 56.9279 51.6664L59.5326 51.4373C60.1275 51.385 60.5673 50.8604 60.515 50.2655L60.4707 49.7612C60.4184 49.1663 59.8937 48.7264 59.2988 48.7788Z" fill="#56D8E3"/>
<path d="M63.3899 24.5119C61.0629 22.0245 58.1966 20.1036 55.0112 18.8969C51.8259 17.6901 48.4063 17.2297 45.0153 17.5509" stroke="#ECFBFF" stroke-width="2.59046" stroke-miterlimit="10" stroke-linecap="round"/>
<path d="M67.3945 30.7424C66.9261 29.7223 66.3836 28.7378 65.7715 27.7969" stroke="#ECFBFF" stroke-width="2.59046" stroke-miterlimit="10" stroke-linecap="round"/>
<path d="M59.1244 61.8213L59.1752 62.3981C59.269 63.522 58.9243 64.6378 58.2165 65.5016C57.5087 66.3654 56.4951 66.9072 55.3972 67.0085L53.3049 67.1958C52.2062 67.2908 51.1148 66.937 50.2691 66.2117C49.4235 65.4863 48.8925 64.4484 48.792 63.3247L48.7431 62.7498" fill="white"/>
<path d="M59.1244 61.8213L59.1752 62.3981C59.269 63.522 58.9243 64.6378 58.2165 65.5016C57.5086 66.3654 56.4951 66.9072 55.3972 67.0085L53.3049 67.1958C52.2062 67.2908 51.1148 66.937 50.2691 66.2117C49.4235 65.4863 48.8925 64.4484 48.792 63.3247L48.7431 62.7498" stroke="#8CC2CF" stroke-width="2.24539" stroke-linecap="round" stroke-linejoin="round"/>
<path d="M22.4189 20.2535C25.2493 20.1748 27.4801 17.8165 27.4014 14.9861C27.3227 12.1556 24.9644 9.92488 22.134 10.0036C19.3036 10.0822 17.0728 12.4405 17.1515 15.271C17.2301 18.1014 19.5885 20.3322 22.4189 20.2535Z" fill="#B0DEE7"/>
<path d="M22.4091 18.0845C24.0324 18.0394 25.3118 16.6868 25.2667 15.0635C25.2216 13.4402 23.869 12.1608 22.2457 12.2059C20.6224 12.251 19.343 13.6036 19.3881 15.2269C19.4332 16.8502 20.7858 18.1296 22.4091 18.0845Z" fill="#F65539"/>
<path d="M68.2231 16.2271C71.0535 16.1484 73.2843 13.7901 73.2056 10.9597C73.1269 8.12927 70.7686 5.89851 67.9382 5.97718C65.1078 6.05585 62.877 8.41416 62.9557 11.2446C63.0343 14.075 65.3926 16.3058 68.2231 16.2271Z" fill="#B0DEE7"/>
<path d="M68.213 14.0513C69.8364 14.0062 71.1158 12.6536 71.0706 11.0303C71.0255 9.40697 69.673 8.12758 68.0496 8.1727C66.4263 8.21782 65.1469 9.57036 65.192 11.1937C65.2372 12.817 66.5897 14.0964 68.213 14.0513Z" fill="#F65539"/>
<path d="M49.3865 140.243C49.5273 143.366 47.2122 146.059 44.1032 146.388L31.5081 147.722C29.6908 147.915 28.0849 146.541 27.9934 144.716L24.3906 72.8519L47.2514 92.8781L49.3865 140.243Z" fill="#E1EFF2"/>
<path d="M69.7712 56.8512L62.489 58.518C62.2214 58.5792 62.0541 58.8459 62.1153 59.1135L62.1992 59.4802C62.2605 59.7478 62.5271 59.9152 62.7948 59.8539L70.0769 58.1871C70.3446 58.1259 70.5119 57.8592 70.4506 57.5916L70.3667 57.2249C70.3055 56.9573 70.0388 56.7899 69.7712 56.8512Z" fill="#CDD5D9"/>
<path d="M56.0044 55.1032C55.955 55.0839 55.913 55.0492 55.8846 55.0043C55.8562 54.9594 55.843 54.9066 55.8468 54.8537C55.8507 54.8007 55.8714 54.7503 55.9059 54.71C55.9404 54.6696 55.987 54.6414 56.0387 54.6294L58.6642 54.028C58.7086 54.0183 58.7548 54.0209 58.7978 54.0354C58.8409 54.05 58.8792 54.076 58.9085 54.1107C58.9379 54.1453 58.9573 54.1873 58.9646 54.2322C58.9719 54.2771 58.9669 54.3231 58.95 54.3653L57.9313 56.8558C57.9112 56.9046 57.8761 56.9458 57.8311 56.9733C57.7861 57.0009 57.7334 57.0134 57.6808 57.009C57.6282 57.0046 57.5783 56.9836 57.5385 56.949C57.4986 56.9144 57.4708 56.868 57.459 56.8166L57.2 55.6786C57.1908 55.6387 57.172 55.6017 57.1452 55.5707C57.1184 55.5398 57.0844 55.516 57.0462 55.5012L56.0044 55.1032Z" fill="#CDD5D9"/>
<path d="M68.7856 34.9843C71.2432 34.5806 74.6339 37.5572 74.9353 39.3942" stroke="white" stroke-width="3.42614" stroke-linecap="round" stroke-linejoin="round"/>
<path d="M79.6065 38.0788L79.5689 38.0799L79.1267 38.12C78.8057 38.1497 78.4937 38.2424 78.2086 38.3928C77.9235 38.5431 77.6708 38.7482 77.465 38.9962C77.2592 39.2443 77.1043 39.5305 77.0091 39.8384C76.914 40.1464 76.8805 40.4701 76.9105 40.791L77.8705 51.3167C79.2867 49.4507 80.1917 47.2476 80.4962 44.9249C80.8006 42.6022 80.4939 40.2402 79.6063 38.0723L79.6065 38.0788Z" fill="#FFB762"/>
<path d="M73.2581 46.0969C73.1247 44.6395 72.7055 43.2226 72.0244 41.9272C71.3434 40.6318 70.4137 39.4833 69.2887 38.5472C68.1636 37.6112 66.8652 36.9059 65.4675 36.4718C64.0698 36.0377 62.6003 35.8832 61.1429 36.0171L55.4885 36.5358C54.2211 38.7606 53.6157 41.3012 53.7436 43.8585C53.8714 46.4157 54.4527 50.5341 55.9356 52.6214C57.4186 54.7087 59.7416 54.678 62.1144 55.6403C64.4871 56.6026 67.0854 56.867 69.6033 56.4024C70.9235 55.2442 71.9506 53.7897 72.6006 52.1582C73.2505 50.5267 73.5047 48.7644 73.3425 47.0157L73.2581 46.0969Z" fill="#3C4C87"/>
<path d="M90.7295 143.203C85.9335 141.924 83.6298 141.892 79.5432 141.745C77.1672 141.66 75.1568 139.997 74.5713 137.693L62.8428 91.5297L77.6869 70.9881L83.4658 125.87C83.9281 130.261 85.3691 134.492 87.6828 138.252L90.7295 143.203Z" fill="#E1EFF2"/>
<path d="M80.5158 51.4521C80.1928 51.3833 79.9104 51.189 79.7307 50.912C79.551 50.6349 79.4886 50.2979 79.5575 49.9749C79.6263 49.6519 79.8205 49.3695 80.0976 49.1898C80.3746 49.0101 80.7117 48.9478 81.0346 49.0166L85.9054 50.0494C86.2171 50.1286 86.4861 50.3251 86.6561 50.598C86.8262 50.8708 86.8843 51.1989 86.8181 51.5135C86.752 51.8282 86.5668 52.1051 86.3012 52.2864C86.0357 52.4677 85.7103 52.5393 85.3932 52.4863L80.5158 51.4521Z" stroke="#CAD3DD" stroke-width="2.98786"/>
<mask id="mask1" mask-type="alpha" maskUnits="userSpaceOnUse" x="50" y="31" width="31" height="31">
<path d="M66.1132 61.393C74.3593 61.1444 80.8425 54.2581 80.5939 46.012C80.3453 37.7659 73.4589 31.2827 65.2128 31.5313C56.9668 31.7799 50.4835 38.6662 50.7321 46.9123C50.9808 55.1584 57.8671 61.6416 66.1132 61.393Z" fill="#C4C4C4"/>
</mask>
<g mask="url(#mask1)">
<path d="M79.052 51.0727L80.2848 50.9591C80.8043 50.912 81.3094 50.7631 81.7713 50.5207C82.2332 50.2783 82.6428 49.9473 82.9767 49.5465C83.3106 49.1458 83.5622 48.6832 83.7173 48.1851C83.8723 47.6871 83.9277 47.1633 83.8802 46.6439L83.849 46.3164C83.753 45.2679 83.2445 44.3005 82.4352 43.6269C81.626 42.9533 80.5824 42.6288 79.5339 42.7246L78.301 42.8382L79.052 51.0727Z" fill="#FF553E"/>
<path d="M77.1099 39.6266L76.7004 39.6642C75.4489 39.779 74.5274 40.8866 74.6422 42.1381L75.5866 52.4309C75.7014 53.6824 76.809 54.6039 78.0605 54.489L78.47 54.4515C79.7216 54.3367 80.643 53.229 80.5282 51.9775L79.5839 41.6847C79.469 40.4332 78.3614 39.5118 77.1099 39.6266Z" fill="#FFB762"/>
<path d="M44.5094 9.20839C28.589 10.6692 16.8811 24.9042 18.3578 41.0013L27.1037 136.303C27.1305 136.614 27.2183 136.917 27.3622 137.194C27.5061 137.472 27.7033 137.718 27.9424 137.919C28.1815 138.12 28.4579 138.272 28.7557 138.366C29.0536 138.46 29.3671 138.494 29.6783 138.467L82.6176 133.611C82.9288 133.581 83.2312 133.49 83.5074 133.343C83.7835 133.197 84.0281 132.997 84.227 132.756C84.4259 132.514 84.5752 132.236 84.6666 131.937C84.7579 131.638 84.7893 131.324 84.7591 131.013L76.0077 35.7113C74.5309 19.6142 60.428 7.74762 44.5094 9.20839Z" fill="#B0DEE7"/>
<path d="M60.0311 37.412L41.0597 39.1525C35.3823 39.6734 31.2021 44.6982 31.7229 50.3756L31.8013 51.2295C32.3222 56.907 37.3469 61.0872 43.0244 60.5663L61.9957 58.8257C67.6732 58.3048 71.8534 53.2801 71.3325 47.6026L71.2541 46.7487C70.7332 41.0713 65.7085 36.8911 60.0311 37.412Z" fill="#3C4C87"/>
<path d="M61.5194 47.2474L57.3907 47.6262C56.422 47.7151 55.7088 48.5724 55.7976 49.5411L56.1764 53.6698C56.2653 54.6385 57.1227 55.3518 58.0914 55.2629L62.2201 54.8841C63.1888 54.7952 63.902 53.9379 63.8131 52.9692L63.4343 48.8404C63.3455 47.8717 62.4881 47.1585 61.5194 47.2474Z" fill="#56D8E3"/>
</g>
<path d="M69.6413 33.1134C72.5313 33.7265 75.1747 35.1829 77.237 37.2983C79.2994 39.4138 80.6881 42.0933 81.2277 44.998C81.7672 47.9027 81.4332 50.9021 80.2681 53.617C79.1029 56.3319 77.1588 58.6404 74.6817 60.2504C72.2046 61.8605 69.3057 62.6998 66.3515 62.6623C63.3974 62.6248 60.5207 61.7121 58.0852 60.0397C55.6498 58.3672 53.765 56.0102 52.6691 53.2665C51.5733 50.5229 51.3156 47.5159 51.9287 44.6259C52.3358 42.7069 53.1169 40.887 54.2274 39.2699C55.3378 37.6528 56.7559 36.2703 58.4007 35.2012C60.0454 34.1322 61.8847 33.3976 63.8133 33.0394C65.742 32.6811 67.7223 32.7063 69.6413 33.1134V33.1134Z" stroke="#CAD3DD" stroke-width="2.98786"/>
<path d="M66.1141 61.394C74.3602 61.1454 80.8435 54.2591 80.5949 46.013C80.3462 37.7669 73.4599 31.2836 65.2138 31.5323C56.9677 31.7809 50.4845 38.6672 50.7331 46.9133C50.9817 55.1594 57.8681 61.6426 66.1141 61.394Z" stroke="#F0F6FF" stroke-width="2.98786"/>
<path d="M84.6669 51.066C84.3931 52.3578 84.6437 53.7055 85.3634 54.8126C86.0832 55.9197 87.2132 56.6956 88.5049 56.9697L96.0547 58.5663L113.538 62.4568C114.181 62.6 114.845 62.6143 115.493 62.499C116.142 62.3838 116.761 62.1411 117.315 61.7851C117.868 61.4291 118.346 60.9669 118.72 60.4251C119.095 59.8833 119.358 59.2727 119.494 58.6286C119.767 57.3464 119.524 56.0081 118.817 54.9042C118.11 53.8002 116.996 53.0195 115.717 52.7313L90.5705 47.228C89.9308 47.092 89.2706 47.0835 88.6276 47.2028C87.9847 47.3221 87.3715 47.567 86.8232 47.9234C86.2749 48.2799 85.8023 48.7409 85.4323 49.2801C85.0623 49.8194 84.8022 50.4262 84.6669 51.066Z" fill="#E9465A"/>
<path d="M105.672 53.8595C105.593 54.2299 105.665 54.6163 105.871 54.9337C106.078 55.2511 106.402 55.4736 106.772 55.5522L108.937 56.01L113.95 57.1255C114.134 57.1665 114.324 57.1706 114.51 57.1376C114.696 57.1045 114.874 57.035 115.032 56.9329C115.191 56.8308 115.328 56.6983 115.435 56.5429C115.543 56.3876 115.618 56.2125 115.657 56.0278C115.736 55.6602 115.666 55.2765 115.463 54.96C115.26 54.6434 114.941 54.4196 114.574 54.337L107.364 52.759C107.181 52.72 106.992 52.7176 106.807 52.7518C106.623 52.786 106.447 52.8562 106.29 52.9584C106.133 53.0606 105.997 53.1928 105.891 53.3474C105.785 53.502 105.71 53.676 105.672 53.8595Z" fill="#FF5862"/>
<path opacity="0.43" d="M75.3728 47.5545C77.3472 45.4574 76.4086 41.3668 73.2763 38.4179C70.1441 35.469 66.0044 34.7785 64.03 36.8756C62.0556 38.9728 62.9942 43.0634 66.1265 46.0123C69.2587 48.9612 73.3984 49.6516 75.3728 47.5545Z" fill="white"/>
<path d="M24.7288 81.8091C7.77777 103.639 15.0815 132.966 47.8019 103.932" stroke="#81BCCA" stroke-width="6.90789" stroke-miterlimit="10"/>
<path d="M24.7288 81.8091C7.77777 103.639 15.0815 132.966 47.8019 103.932" stroke="#A2CED8" stroke-width="6.90789" stroke-miterlimit="10" stroke-dasharray="8.63 5.18"/>
<path d="M27.7481 78.8314C21.7456 84.5785 4.16974 108.664 20.9554 116.121" stroke="#E1EFF2" stroke-width="12.0888" stroke-miterlimit="10"/>
<path d="M21.8402 70.5759L16.9437 76.3895C15.5385 78.0576 16.3457 80.6037 18.4589 81.1689L30.1088 84.2855C31.0962 84.5498 31.4542 85.7531 30.7693 86.5086L29.5485 87.8557C28.856 88.6198 29.2302 89.8362 30.2329 90.0853L46.2248 96.4344C47.5564 96.7646 48.4018 95.0586 47.3227 94.2203L23.7435 70.3749C23.1603 69.9199 22.3169 70.0093 21.8402 70.5759Z" fill="#F7FBFF"/>
<rect x="92.519" y="87.1758" width="8.18589" height="15.804" rx="2.72863" transform="rotate(-24.6965 92.519 87.1758)" fill="#F7FBFF"/>
<rect x="22.7544" y="124.415" width="8.18589" height="15.804" rx="2.72863" transform="rotate(-160.117 22.7544 124.415)" fill="#F6FBFF"/>
<path d="M77.4609 66.7558L83.416 71.4791C85.125 72.8343 84.8405 75.4901 82.882 76.4643L72.0848 81.8361C71.1698 82.2917 71.0583 83.5421 71.8798 84.1463L73.3442 85.2235C74.1748 85.8346 74.0502 87.1011 73.117 87.5447L60.9541 96.9C59.7148 97.4886 58.5469 95.9849 59.4377 94.9487L75.5547 66.9365C76.0367 66.3755 76.881 66.2953 77.4609 66.7558Z" fill="#F7FBFF"/>
<path fill-rule="evenodd" clip-rule="evenodd" d="M94.1326 52.6507C95.5456 52.4267 96.8727 53.3905 97.0967 54.8036C97.2262 55.6203 97.5153 56.4035 97.9475 57.1085C98.3797 57.8135 98.9466 58.4265 99.6157 58.9124C100.285 59.3983 101.043 59.7476 101.847 59.9404C102.12 60.0059 102.397 60.0529 102.675 60.0813C105.285 60.348 104.699 62.5378 105.115 65.153C103.626 65.3893 102.105 65.33 100.639 64.9785C99.1734 64.6271 97.7912 63.9903 96.5714 63.1046C95.3517 62.2189 94.3184 61.1015 93.5306 59.8164C92.7427 58.5313 92.2157 57.1036 91.9797 55.6148C91.7557 54.2018 92.7196 52.8747 94.1326 52.6507Z" fill="#81BCCA"/>
<path d="M60.437 103.109C56.2688 105.385 52.143 106.844 48.1438 103.408C44.1446 99.9713 45.0278 95.9225 46.7384 91.5445" stroke="#81BCCA" stroke-width="5.18092" stroke-miterlimit="10" stroke-linecap="round"/>
<path d="M37.9629 83.8217L37.5286 84.3322C37.2951 84.6034 37.1627 84.9471 37.154 85.3049C37.1454 85.6627 37.261 86.0124 37.4811 86.2945L57.4682 111.78L48.3235 92.314L37.9629 83.8217Z" fill="#FFC93F"/>
<path d="M77.8324 83.748L78.2977 84.2692C78.5301 84.5339 78.663 84.8712 78.6736 85.2232C78.6842 85.5752 78.5719 85.92 78.356 86.1981L58.4431 111.794L67.4873 92.2488L77.8324 83.748Z" fill="#FFC93F"/>
<path d="M47.9498 92.3087L57.4205 111.657C57.4793 111.752 57.5614 111.831 57.6589 111.885C57.7565 111.939 57.8664 111.967 57.978 111.967C58.0897 111.966 58.1994 111.938 58.2966 111.883C58.3939 111.828 58.4755 111.749 58.5336 111.654L68.0057 92.2055L67.0661 89.0684L48.7874 89.1081L47.9498 92.3087Z" fill="#FFE574"/>
<path d="M42.2241 78.7702L37.5026 84.3771C37.4059 84.491 37.3349 84.6245 37.2945 84.7684C37.2542 84.9122 37.2453 85.0631 37.2685 85.2107C37.2918 85.3584 37.3467 85.4992 37.4293 85.6237C37.512 85.7482 37.6206 85.8533 37.7477 85.932L48.8217 92.8518L66.6878 85.2018L42.2241 78.7702Z" fill="#FFE574"/>
<path d="M73.6294 78.614L78.2046 84.1319C78.3164 84.2641 78.3984 84.4188 78.4451 84.5855C78.4919 84.7522 78.5022 84.927 78.4755 85.0981C78.4488 85.2692 78.3857 85.4325 78.2903 85.577C78.195 85.7216 78.0697 85.8439 77.923 85.9358L67.0448 92.7984L64.1044 85.0532L73.6294 78.614Z" fill="#FFE574"/>
<path d="M50.8491 74.663L64.936 74.6178C65.3599 74.6147 65.7787 74.7112 66.1586 74.8994L73.4684 78.4812C73.5595 78.5244 73.6376 78.5908 73.6949 78.6737C73.7522 78.7566 73.7867 78.8531 73.7949 78.9536C73.8032 79.054 73.7848 79.1548 73.7418 79.246C73.6988 79.3371 73.6325 79.4153 73.5497 79.4728L66.1567 84.7965C65.775 85.0705 65.3173 85.2187 64.8474 85.2205L50.9302 85.2508C50.4546 85.2535 49.9909 85.103 49.6075 84.8217L42.3319 79.5723C42.2513 79.5138 42.1871 79.4355 42.1455 79.345C42.1038 79.2545 42.0861 79.1548 42.0941 79.0555C42.1021 78.9562 42.1354 78.8606 42.191 78.7779C42.2465 78.6952 42.3224 78.6282 42.4113 78.5832L49.5886 74.9505C49.9807 74.758 50.4123 74.6595 50.8491 74.663Z" fill="#FFC93F"/>
<path d="M51.1931 85.2751L64.6751 85.247C64.9527 85.245 65.2243 85.3281 65.4533 85.4851C65.6823 85.6422 65.8576 85.8656 65.9558 86.1253L67.8145 91.0497C67.8942 91.2564 67.9224 91.4794 67.8966 91.6994C67.8709 91.9195 67.7919 92.1299 67.6666 92.3126C67.5414 92.4953 67.3735 92.6448 67.1775 92.7481C66.9815 92.8515 66.7634 92.9055 66.5418 92.9057L49.3205 92.9499C49.0992 92.9496 48.8812 92.8958 48.6852 92.7931C48.4892 92.6903 48.321 92.5416 48.1949 92.3598C48.0688 92.1779 47.9886 91.9682 47.9611 91.7486C47.9336 91.529 47.9597 91.306 48.0371 91.0987L49.8651 86.1605C49.9664 85.8928 50.1489 85.6635 50.3871 85.5047C50.6252 85.346 50.9071 85.2657 51.1931 85.2751Z" fill="#FFF6A5"/>
<path fill-rule="evenodd" clip-rule="evenodd" d="M50.3679 78.8106C49.8198 78.7202 49.3013 79.091 49.2099 79.639L49.1535 79.9773C48.8652 81.7048 47.2307 82.8741 45.5026 82.5889C44.9545 82.4985 44.4361 82.8694 44.3446 83.4173C44.2532 83.9653 44.6234 84.4828 45.1715 84.5732C46.8996 84.8584 48.0667 86.4899 47.7785 88.2174L47.3888 90.5524C47.2974 91.1004 47.6676 91.6179 48.2157 91.7083C48.7638 91.7988 49.2823 91.4279 49.3737 90.8799L49.6278 89.3568C49.9909 87.1809 52.0497 85.7082 54.2263 86.0673L55.0958 86.2108C55.6439 86.3012 56.1624 85.9304 56.2538 85.3824C56.3452 84.8345 55.975 84.317 55.4269 84.2265L54.0837 84.0049C52.1687 83.6889 50.8753 81.8809 51.1948 79.9665C51.2862 79.4185 50.916 78.901 50.3679 78.8106Z" fill="#FFFFCC"/>
<path d="M60.4356 103.106C56.2674 105.381 52.1417 106.841 48.1424 103.405" stroke="#81BCCA" stroke-width="5.18092" stroke-miterlimit="10" stroke-linecap="round"/>
</g>
</svg>
