<?xml version="1.0"?>
<svg xmlns="http://www.w3.org/2000/svg" viewBox="0 0 112 112" fill="none">
<mask id="mask0" mask-type="alpha" maskUnits="userSpaceOnUse" x="0" y="0" width="112" height="112">
<rect width="112" height="112" fill="white"/>
</mask>
<g mask="url(#mask0)">
<rect x="58.2822" y="83.0479" width="4.68851" height="34.1591" rx="2.00936" fill="#BABFF0"/>
<path d="M98.4918 74.3432C100.965 75.4253 103.716 73.8119 104.821 71.2866C105.926 68.7613 105.244 65.6458 102.771 64.5637C100.298 63.4817 97.5473 65.095 96.4423 67.6203C95.3372 70.1456 96.0191 73.2611 98.4918 74.3432Z" fill="#2E2D3D" stroke="#2E2D3D" stroke-width="2.00936"/>
<path d="M99.4567 74.8256C101.929 75.9077 104.681 74.2943 105.786 71.7691C106.891 69.2438 106.209 66.1282 103.736 65.0461C101.263 63.9641 98.5121 65.5774 97.4071 68.1027C96.3021 70.628 96.9839 73.7436 99.4567 74.8256Z" fill="#2E2D3D" stroke="#2E2D3D" stroke-width="2.00936"/>
<ellipse cx="100.632" cy="69.4525" rx="3.56813" ry="4.33273" transform="rotate(23.6336 100.632 69.4525)" fill="#42426F"/>
<rect x="86.707" y="58.6699" width="17.2039" height="8.64063" transform="rotate(23.5295 86.707 58.6699)" fill="#42426F"/>
<path d="M92.6196 64.9152C92.5381 64.3683 93.1245 62.9616 93.6291 63.1878L102.603 67.2117C102.744 67.275 102.857 67.3871 102.889 67.5382C102.949 67.8176 103.015 68.3822 102.929 69.3886C102.891 69.8473 102.386 70.1249 101.963 69.9417C100.257 69.2016 96.4787 67.602 94.3162 66.688C93.3436 66.2769 92.7751 65.9597 92.6196 64.9152Z" fill="#5C5C92"/>
<ellipse cx="85.0182" cy="62.6395" rx="3.55429" ry="4.31592" transform="rotate(23.6336 85.0182 62.6395)" fill="#424263"/>
<ellipse cx="85.9643" cy="63.0455" rx="9.76391" ry="8.80431" transform="rotate(23.6336 85.9643 63.0455)" fill="#2E2D3D"/>
<path d="M50.5152 61.0561C55.9573 63.4375 62.3927 59.9682 65.0712 53.8471C67.7497 47.7261 65.931 40.6449 60.4889 38.2636C55.0469 35.8822 48.6115 39.3514 45.933 45.4725C43.2545 51.5935 45.0731 58.6747 50.5152 61.0561Z" stroke="#2E2D3D" stroke-width="2.00936"/>
<path d="M51.7896 61.8188C57.2317 64.2002 63.6671 60.7309 66.3456 54.6098C69.0241 48.4888 67.2054 41.4076 61.7634 39.0263C56.3213 36.6449 49.8859 40.1141 47.2074 46.2352C44.5289 52.3562 46.3476 59.4374 51.7896 61.8188Z" stroke="#2E2D3D" stroke-width="2.00936"/>
<path d="M53.1295 62.4887C58.5715 64.8701 65.0069 61.4008 67.6854 55.2798C70.3639 49.1587 68.5453 42.0776 63.1032 39.6962C57.6611 37.3148 51.2257 40.7841 48.5472 46.9051C45.8687 53.0262 47.6874 60.1073 53.1295 62.4887Z" stroke="#2E2D3D" stroke-width="2.00936"/>
<path d="M54.4683 63.1586C59.9104 65.54 66.3458 62.0707 69.0243 55.9497C71.7028 49.8286 69.8841 42.7475 64.4421 40.3661C59 37.9847 52.5646 41.454 49.8861 47.575C47.2076 53.6961 49.0263 60.7772 54.4683 63.1586Z" stroke="#2E2D3D" stroke-width="2.00936"/>
<ellipse cx="80.7934" cy="60.7074" rx="9.44047" ry="11.4634" transform="rotate(23.6336 80.7934 60.7074)" fill="#A83939"/>
<rect x="43.9473" y="32.1768" width="45.5177" height="22.8612" transform="rotate(23.5295 43.9473 32.1768)" fill="#A83939"/>
<ellipse cx="39.4837" cy="42.6716" rx="9.40386" ry="11.419" transform="rotate(23.6336 39.4837 42.6716)" fill="#A83939"/>
<path d="M68.5985 46.4997C68.3739 45.8341 69.2093 44.8932 69.8525 45.1757L86.0271 52.2793C86.0596 52.2936 86.0895 52.3094 86.1186 52.33C86.4547 52.5681 88.6769 54.2803 89.0399 58.171C89.0865 58.67 88.5565 59.0241 88.0969 58.8242C84.9698 57.4642 75.5627 53.5105 71.3777 51.754C70.1333 51.2317 69.3424 50.0117 69.1266 48.6796C69.0181 48.0098 68.8522 47.2518 68.5985 46.4997Z" fill="#CF473E"/>
<path d="M42.9823 35.2468C42.7577 34.5812 43.5931 33.6403 44.2363 33.9227L60.4108 41.0264C60.4434 41.0407 60.4733 41.0565 60.5024 41.0771C60.8385 41.3151 63.0607 43.0273 63.4237 46.918C63.4703 47.4171 62.9403 47.7712 62.4807 47.5713C59.3536 46.2113 49.9465 42.2575 45.7615 40.5011C44.5171 39.9788 43.7262 38.7588 43.5104 37.4267C43.4019 36.7569 43.236 35.9988 42.9823 35.2468Z" fill="#CF473E"/>
<path d="M53.9258 63.2898L65.9819 57.2617L63.3028 76.6855L56.9398 76.6855L53.9258 63.2898Z" fill="#383654"/>
<path d="M50.1352 60.8917C55.7953 63.3685 62.617 60.2729 65.3718 53.9774C68.1267 47.6819 65.7715 40.5706 60.1113 38.0938" stroke="#2E2D3D" stroke-width="2.00936"/>
<path d="M51.4086 61.6544C57.0688 64.1312 63.8905 61.0356 66.6453 54.7401C69.4001 48.4446 67.0449 41.3333 61.3848 38.8564" stroke="#2E2D3D" stroke-width="2.00936"/>
<path d="M52.7485 62.3243C58.4086 64.8011 65.2303 61.7055 67.9851 55.41C70.74 49.1145 68.3847 42.0032 62.7246 39.5264" stroke="#2E2D3D" stroke-width="2.00936"/>
<path d="M54.0883 62.9943C59.7485 65.4711 66.5701 62.3754 69.325 56.0799C72.0798 49.7844 69.7246 42.6731 64.0645 40.1963" stroke="#2E2D3D" stroke-width="2.00936"/>
<ellipse cx="33.101" cy="39.0295" rx="14.3286" ry="17.399" transform="rotate(23.6336 33.101 39.0295)" fill="#C1C7FF"/>
<rect x="27.3066" y="17.5166" width="14.6186" height="34.7953" transform="rotate(23.5295 27.3066 17.5166)" fill="#C1C7FF"/>
<ellipse cx="20.4828" cy="33.4846" rx="14.3286" ry="17.399" transform="rotate(23.6336 20.4828 33.4846)" fill="#C1C7FF"/>
<ellipse cx="20.486" cy="33.4855" rx="11.7156" ry="14.2261" transform="rotate(23.6336 20.486 33.4855)" fill="#2D2D41"/>
<ellipse cx="19.2909" cy="33.2277" rx="12.1687" ry="15.9932" transform="rotate(22.9462 19.2909 33.2277)" fill="#42426E"/>
<ellipse cx="25.2906" cy="35.9089" rx="10.7544" ry="13.5402" transform="rotate(23.63 25.2906 35.9089)" fill="#252F55"/>
<ellipse cx="26.0525" cy="36.4363" rx="9.14964" ry="11.4773" transform="rotate(23.63 26.0525 36.4363)" fill="#56348D"/>
<ellipse opacity="0.4" cx="24.9404" cy="39.3161" rx="5.86552" ry="4.13611" transform="rotate(-127.334 24.9404 39.3161)" fill="#5C61D6"/>
<ellipse opacity="0.6" cx="26.3721" cy="31.6503" rx="5.05601" ry="3.81409" transform="rotate(-22.0538 26.3721 31.6503)" fill="#BBDEFF"/>
<path d="M32.0439 24.0908C35.4102 32.0476 30.0241 45.9415 20.7207 48.8794C38.1033 58.6724 45.5092 24.7029 32.0439 24.0908Z" fill="#C1C7FF"/>
<ellipse cx="19.4247" cy="33.2853" rx="12.8427" ry="15.9932" transform="rotate(23.63 19.4247 33.2853)" stroke="#E6E8FF" stroke-width="2.37953"/>
<path d="M35.6476 27.1873C35.4743 26.0878 36.5664 25.121 37.6001 25.5341L42.8201 27.62C43.696 27.97 44.3849 28.6707 44.6495 29.576C45.1431 31.2647 45.8547 34.2463 45.798 37.2489C45.7806 38.1696 44.7864 38.7116 43.9465 38.3338C42.163 37.5314 39.4606 36.3448 37.6625 35.5581C36.558 35.0748 35.9081 33.9156 35.955 32.7109C36.0093 31.3173 35.9864 29.3368 35.6476 27.1873Z" fill="#D2DAFF"/>
<path d="M38.1875 117.206L56.5561 111.918C58.9954 111.216 61.584 111.221 64.0204 111.933L82.0585 117.206" stroke="#313041" stroke-width="3.34893"/>
<path d="M66.6532 120.892L61.2949 111.18" stroke="#313041" stroke-width="3.34893"/>
<path d="M50.9138 83.0479L35.8436 122.565L20.7734 162.083" stroke="#DDE0FF" stroke-width="4.68851" stroke-linecap="round" stroke-linejoin="round"/>
<path d="M57.6123 109.838C57.6123 109.468 57.9122 109.168 58.2821 109.168H63.6404C64.0103 109.168 64.3102 109.468 64.3102 109.838V112.517C64.3102 112.887 64.0103 113.187 63.6404 113.187H58.2821C57.9122 113.187 57.6123 112.887 57.6123 112.517V109.838Z" fill="#313041"/>
<path d="M55.2386 82.3788C55.2384 81.2689 56.1381 80.3691 57.2479 80.3691H62.969C64.0787 80.3691 64.9783 81.2688 64.9783 82.3785V85.0576C64.9783 86.1674 64.0787 87.067 62.969 87.067H57.2483C56.1387 87.067 55.2391 86.1676 55.239 85.0579L55.2386 82.3788Z" fill="#313041"/>
<path d="M68.9984 83.0479L84.4035 122.565L99.8086 162.083" stroke="#DDE0FF" stroke-width="4.68851" stroke-linecap="round" stroke-linejoin="round"/>
<path d="M80.7977 119.887C82.7152 119.808 84.4793 119.218 85.151 117.878C85.9018 116.379 84.0118 112.376 83.2146 113.285C82.5903 113.997 80.2403 115.122 78.9773 114.767C77.7143 114.411 78.9792 119.961 80.7977 119.887Z" fill="#424263"/>
<path d="M39.5705 119.72C37.6529 119.641 35.8889 119.051 35.2172 117.711C34.4663 116.212 36.3564 112.209 37.1535 113.118C37.7779 113.83 40.1278 114.955 41.3909 114.6C42.6539 114.244 41.3889 119.794 39.5705 119.72Z" fill="#424263"/>
<path d="M48.3247 79.7275C49.3827 77.2705 51.8013 75.6787 54.4764 75.6787H65.9414C68.5204 75.6787 70.8702 77.1594 71.9833 79.4857L72.3106 80.1697C72.9487 81.5034 71.9765 83.0464 70.498 83.0464H49.9485C48.5045 83.0464 47.5319 81.5686 48.103 80.2423L48.3247 79.7275Z" fill="#3E3C61"/>
<path d="M61.2956 82.3767L75.0267 171.458" stroke="#DDE0FF" stroke-width="4.68851" stroke-linecap="round" stroke-linejoin="round"/>
<rect x="53.5928" y="73.6699" width="13.3957" height="2.00936" rx="1.00468" fill="#484576"/>
</g>
</svg>
