<?xml version="1.0"?>
<svg xmlns="http://www.w3.org/2000/svg" viewBox="0 0 112 112" fill="none">
<mask id="mask0" mask-type="alpha" maskUnits="userSpaceOnUse" x="0" y="0" width="112" height="112">
<rect width="112" height="112" fill="white"/>
</mask>
<g mask="url(#mask0)">
<path d="M99.3086 53.6543C99.3086 70.1071 90.2068 84.4341 76.7636 91.8746C75.528 92.5585 74.7146 93.8352 74.7146 95.2474V100H36.594V95.2474C36.594 93.8352 35.7806 92.5585 34.545 91.8746C21.1018 84.4341 12 70.1071 12 53.6543C12 29.5447 31.5447 10 55.6543 10C79.7639 10 99.3086 29.5447 99.3086 53.6543Z" fill="#FE45CA" fill-opacity="0.5"/>
<path d="M74.7146 101H75.7146V100V95.2474C75.7146 94.2281 76.3041 93.2719 77.2479 92.7496C90.9964 85.14 100.309 70.4853 100.309 53.6543C100.309 28.9924 80.3162 9 55.6543 9C30.9924 9 11 28.9924 11 53.6543C11 70.4853 20.3122 85.14 34.0607 92.7496C35.0045 93.2719 35.594 94.2281 35.594 95.2474V100V101H36.594H74.7146Z" stroke="white" stroke-opacity="0.5" stroke-width="2"/>
<circle cx="55.6546" cy="53.6537" r="36.891" fill="#9B2B7C" fill-opacity="0.5"/>
<circle cx="55.6547" cy="53.6537" r="25.8237" fill="#9B2B7C" fill-opacity="0.5"/>
<path d="M92.7129 74.531C93.2069 74.7781 93.8076 74.5779 94.0546 74.0839C94.3016 73.59 94.1014 72.9893 93.6075 72.7423L92.7129 74.531ZM93.6075 72.7423C86.6412 69.2586 82.705 70.2262 79.6038 69.8387C78.0975 69.6505 76.6236 69.1585 74.7744 67.6339C72.886 66.077 70.6052 63.4413 67.5494 58.934L65.894 60.0563C68.9866 64.6179 71.3941 67.439 73.5022 69.177C75.6496 70.9475 77.4804 71.5889 79.3558 71.8233C83.0179 72.2809 86.1525 71.2503 92.7129 74.531L93.6075 72.7423Z" fill="#8DEBFF"/>
<path d="M77.4814 70.2539C79.6334 63.1831 85.2945 69.1379 87.6265 65.6416C90.7007 61.0323 93.1601 60.1082 97.464 63.1831" stroke="#76BBED" stroke-width="2" stroke-linecap="round"/>
<path d="M67.9512 48.1202C72.87 44.5336 83.1994 37.1144 86.3966 42.2792C89.5939 47.4439 94.3897 42.2792 94.3897 35.8232" stroke="#8DEBFF" stroke-width="2" stroke-linecap="round"/>
<path d="M50.1206 42.8939C49.7107 41.5618 47.0079 36.7418 43.3576 34.286C35.5 29 43.689 21.5742 39.9999 18.5" stroke="#76BBED" stroke-width="2" stroke-linecap="round"/>
<path d="M67.9514 53.6544C67.9514 56.6582 66.8744 59.4105 65.0854 61.5461C64.3157 62.465 63.1268 62.8771 61.9281 62.8771H55.6544H49.3807C48.182 62.8771 46.9931 62.465 46.2234 61.5461C44.4344 59.4105 43.3574 56.6582 43.3574 53.6544C43.3574 46.863 48.863 41.3574 55.6544 41.3574C62.4458 41.3574 67.9514 46.863 67.9514 53.6544Z" fill="#FF78D9" stroke="white" stroke-width="2"/>
<path d="M64.2627 54.1808C64.2627 56.1919 63.6502 58.0512 62.6125 59.5602C61.9049 60.5893 60.6536 61.032 59.4047 61.032H55.6548H51.9049C50.656 61.032 49.4047 60.5893 48.697 59.5602C47.6593 58.0512 47.0469 56.1919 47.0469 54.1808C47.0469 49.1357 50.9008 45.0459 55.6548 45.0459C60.4088 45.0459 64.2627 49.1357 64.2627 54.1808Z" fill="#FFB4EA"/>
<path fill-rule="evenodd" clip-rule="evenodd" d="M47.3823 96.5247C47.171 96.2246 47.0469 95.8587 47.0469 95.4638V62.8768C47.0469 61.8581 47.8727 61.0322 48.8914 61.0322H62.4181C63.4368 61.0322 64.2627 61.8581 64.2627 62.8768V95.4638C64.2627 95.8587 64.1385 96.2246 63.9272 96.5247C61.2487 97.0385 58.4831 97.3074 55.6548 97.3074C52.8264 97.3074 50.0609 97.0385 47.3823 96.5247Z" fill="#452857"/>
<path d="M60.5732 51.1948C61.598 46.3785 63.2171 38.9593 71.3331 37.9755C81.4781 36.7458 71.3331 30.5974 75.0222 25.6786C77.9735 21.7435 81.1707 20.8622 82.4004 20.7598" stroke="#8DEBFF" stroke-width="2" stroke-linecap="round"/>
<path fill-rule="evenodd" clip-rule="evenodd" d="M64.2547 62.9792C64.3523 64.2702 63.4928 65.3359 62.4436 65.3359L48.1731 65.3359C47.2113 65.3359 46.4316 64.3725 46.4316 63.184C46.4316 61.9955 47.2113 61.032 48.1731 61.032L62.4454 61.032C63.37 61.032 64.1687 61.8416 64.2547 62.9792Z" fill="#694083"/>
<path d="M76.6472 91.0875C77.1166 91.3785 77.7331 91.2339 78.0241 90.7645C78.3151 90.2951 78.1705 89.6787 77.7011 89.3877L76.6472 91.0875ZM61.3249 58.8355C60.9606 58.4204 60.3288 58.3792 59.9137 58.7435C59.4985 59.1078 59.4573 59.7396 59.8216 60.1547L61.3249 58.8355ZM77.7011 89.3877C73.9458 87.0594 71.9557 84.9955 70.8202 83.0314C69.6836 81.0653 69.345 79.1058 69.059 76.8174C68.7752 74.5469 68.5443 71.9519 67.5284 68.9891C66.5064 66.0087 64.7058 62.6882 61.3249 58.8355L59.8216 60.1547C63.0503 63.8339 64.7083 66.9309 65.6365 69.6379C66.5708 72.3625 66.7818 74.7247 67.0744 77.0655C67.3648 79.3885 67.7372 81.6946 69.0888 84.0324C70.4415 86.3722 72.7169 88.6507 76.6472 91.0875L77.7011 89.3877Z" fill="#8DEBFF"/>
<path d="M66.1066 38.8981C65.0818 36.8486 63.3397 31.8273 64.5694 28.1382C66.1066 23.5268 72.8694 18.3006 69.488 13.3818" stroke="#8DEBFF" stroke-width="2" stroke-linecap="round"/>
<path d="M64.5698 66.2588C59.0359 69.9479 63.5851 70.9316 63.3392 76.0964C63.0932 81.2611 59.3413 84.0894 64.5693 88.0859" stroke="#76BBED" stroke-width="2" stroke-linecap="round"/>
<path d="M54.6926 45.934C54.8432 46.4654 55.396 46.7741 55.9274 46.6236C56.4587 46.473 56.7675 45.9202 56.6169 45.3888L54.6926 45.934ZM54.7338 25.064L55.2298 25.9323L54.7338 25.064ZM62.4962 11.8447C62.4962 11.2924 62.0484 10.8447 61.4962 10.8447C60.9439 10.8447 60.4962 11.2924 60.4962 11.8447H62.4962ZM56.6169 45.3888C55.7408 42.2969 54.4567 37.8346 53.9174 33.8453C53.6472 31.8471 53.5748 30.0381 53.8036 28.6139C54.035 27.1739 54.5375 26.3277 55.2298 25.9323L54.2379 24.1957C52.7773 25.0299 52.1007 26.6048 51.8289 28.2966C51.5546 30.0043 51.6548 32.0381 51.9354 34.1133C52.4974 38.2707 53.8266 42.8775 54.6926 45.934L56.6169 45.3888ZM55.2298 25.9323C57.5882 24.5853 59.3895 21.8932 60.5893 19.2419C61.7951 16.5773 62.4962 13.7235 62.4962 11.8447H60.4962C60.4962 13.3476 59.9004 15.913 58.7672 18.4173C57.6279 20.9349 56.0481 23.1617 54.2379 24.1957L55.2298 25.9323Z" fill="#8DEBFF"/>
<path d="M18.7169 73.5228C18.1778 73.403 17.6436 73.743 17.5238 74.2821C17.404 74.8212 17.7439 75.3554 18.2831 75.4752L18.7169 73.5228ZM30.9529 57.0018C28.5885 57.7255 24.1768 60.8866 23.9125 67.7572L25.911 67.834C26.1387 61.9157 29.8851 59.4202 31.5382 58.9142L30.9529 57.0018ZM23.9125 67.7572C23.7988 70.715 22.7632 72.1665 21.7366 72.8764C20.6593 73.6214 19.4122 73.6773 18.7169 73.5228L18.2831 75.4752C19.4323 75.7306 21.2682 75.632 22.8741 74.5214C24.5309 73.3758 25.7789 71.2706 25.911 67.834L23.9125 67.7572Z" fill="#76BBED"/>
<path d="M14.24 63.5344C13.7067 63.678 13.3908 64.2267 13.5344 64.76C13.678 65.2933 14.2267 65.6092 14.76 65.4656L14.24 63.5344ZM26.7565 57.3429L26.8395 58.3395L26.7565 57.3429ZM31.2457 57.9578L31.6466 57.0417L31.2457 57.9578ZM14.76 65.4656C16.8556 64.9014 18.3585 64.1713 19.5251 63.366C20.688 62.5634 21.4812 61.7091 22.1519 60.9719C22.8382 60.2174 23.3493 59.6449 24.024 59.2021C24.6672 58.7799 25.5063 58.4506 26.8395 58.3395L26.6734 56.3464C25.0553 56.4812 23.8859 56.9005 22.9266 57.5301C21.9987 58.1391 21.3132 58.9217 20.6725 59.626C20.016 60.3476 19.3513 61.0558 18.389 61.72C17.4306 62.3816 16.141 63.0226 14.24 63.5344L14.76 65.4656ZM26.8395 58.3395C28.7358 58.1814 29.9063 58.4632 30.8447 58.8739L31.6466 57.0417C30.3833 56.4888 28.8776 56.1627 26.6734 56.3464L26.8395 58.3395ZM30.8447 58.8739C31.4556 59.1413 32.073 59.5755 32.8933 60.1275C33.6789 60.6562 34.6 61.254 35.6921 61.6979C37.9509 62.6159 40.7818 62.813 44.6963 61.0188L43.863 59.2007C40.3993 60.7882 38.1437 60.5354 36.4452 59.8451C35.5587 59.4848 34.7835 58.9888 34.0099 58.4682C33.271 57.9709 32.4662 57.4004 31.6466 57.0417L30.8447 58.8739Z" fill="#8DEBFF"/>
<path d="M48.7047 49.0261C49.0353 49.4685 49.662 49.5592 50.1044 49.2286C50.5468 48.898 50.6374 48.2714 50.3069 47.8289L48.7047 49.0261ZM21.8424 29.9611C21.5448 29.4959 20.9264 29.36 20.4611 29.6576C19.9959 29.9552 19.86 30.5736 20.1576 31.0389L21.8424 29.9611ZM50.3069 47.8289C45.8924 41.9212 42.2856 38.4675 39.2131 36.47C36.1092 34.4521 33.582 33.9413 31.3989 33.854C30.3459 33.8119 29.3472 33.8696 28.5116 33.8878C27.6462 33.9066 26.913 33.886 26.2183 33.7282C24.9157 33.4322 23.5325 32.6031 21.8424 29.9611L20.1576 31.0389C22.0284 33.9633 23.8006 35.2299 25.7753 35.6785C26.7192 35.8929 27.655 35.9069 28.555 35.8873C29.4849 35.8671 30.348 35.8136 31.319 35.8524C33.1838 35.927 35.3536 36.3464 38.123 38.1468C40.9236 39.9676 44.3663 43.22 48.7047 49.0261L50.3069 47.8289Z" fill="#8DEBFF"/>
<path d="M52.4423 60.6816C52.9277 60.4181 53.1076 59.811 52.8441 59.3256C52.5806 58.8403 51.9735 58.6604 51.4881 58.9239L52.4423 60.6816ZM31.4612 88.756C31.1522 89.2138 31.2728 89.8354 31.7306 90.1443C32.1883 90.4533 32.8099 90.3327 33.1189 89.875L31.4612 88.756ZM40.8979 80.0928L39.9694 79.7215L40.8979 80.0928ZM51.4881 58.9239C45.8413 61.9893 43.4018 66.1096 42.1532 70.0606C41.5371 72.0103 41.2119 73.9159 40.9274 75.5768C40.6358 77.2787 40.3952 78.6565 39.9694 79.7215L41.8265 80.464C42.3475 79.1607 42.6188 77.5483 42.8986 75.9145C43.1855 74.2396 43.4913 72.4639 44.0603 70.6633C45.182 67.1137 47.3293 63.4572 52.4423 60.6816L51.4881 58.9239ZM39.9694 79.7215C39.224 81.586 38.5497 82.7236 37.9378 83.4689C37.3407 84.1963 36.7745 84.5854 36.1724 84.915C35.6148 85.2203 34.7668 85.5906 34.003 86.11C33.1729 86.6745 32.3348 87.4617 31.4612 88.756L33.1189 89.875C33.8599 88.7772 34.5211 88.1763 35.1276 87.7638C35.8004 87.3063 36.3263 87.111 37.1329 86.6693C37.895 86.252 38.6834 85.7128 39.4836 84.7379C40.2693 83.781 41.0355 82.4424 41.8265 80.464L39.9694 79.7215Z" fill="#8DEBFF"/>
<path d="M43.6652 69.9473C42.0256 68.4102 38.193 65.8893 35.9795 68.1028C33.7661 70.3162 30.9583 69.4353 29.8311 68.7181" stroke="#8DEBFF" stroke-width="2" stroke-linecap="round"/>
<path d="M18.7637 51.8835C19.6859 50.0389 28.2938 46.3474 33.2126 49.1152C40.3139 53.111 43.9725 55.263 49.1987 53.111" stroke="#8DEBFF" stroke-width="2" stroke-linecap="round"/>
<path d="M13.1346 46.499C12.8579 46.9769 13.021 47.5887 13.499 47.8654C13.9769 48.1421 14.5887 47.979 14.8654 47.501L13.1346 46.499ZM24.9119 41.3574L24.4158 42.2256L24.9119 41.3574ZM14.8654 47.501C16.521 44.6413 18.1494 42.8607 19.718 42.0293C21.2042 41.2416 22.7223 41.2579 24.4158 42.2256L25.4081 40.4891C23.1697 39.2101 20.9228 39.1272 18.7814 40.2622C16.7223 41.3535 14.8606 43.5176 13.1346 46.499L14.8654 47.501ZM24.4158 42.2256C29.1088 44.9074 35.3363 44.7639 42.3137 40.8053L41.3268 39.0658C34.7775 42.7815 29.3229 42.7262 25.4081 40.4891L24.4158 42.2256Z" fill="#8DEBFF"/>
<path d="M68.2588 75.7891C70.8207 75.8915 76.3133 77.0802 77.789 81.0153C79.2646 84.9503 82.9127 85.2168 84.8597 85.0118" stroke="#8DEBFF" stroke-width="2" stroke-linecap="round"/>
<path d="M66.7217 53.6554C69.1811 50.5819 74.1614 51.2574 75.637 55.1924C77.8274 61.0335 84.5523 61.3409 86.7043 55.1924" stroke="#8DEBFF" stroke-width="2" stroke-linecap="round"/>
<path opacity="0.8" fill-rule="evenodd" clip-rule="evenodd" d="M88.9372 54.7344C89.5284 57.163 92.61 57.647 92.9893 55.1765C94.466 45.5601 90.7563 34.4277 82.2762 25.9476C73.7758 17.4473 62.6104 13.7401 52.9783 15.2452C50.5093 15.631 51.0011 18.7111 53.4304 19.2968C61.4152 21.2221 69.3579 25.5769 76.0186 32.2375C82.6538 38.8728 87.0008 46.7804 88.9372 54.7344Z" fill="white"/>
<path opacity="0.4" fill-rule="evenodd" clip-rule="evenodd" d="M24.831 63.2286C24.1082 61.043 21.2679 60.4993 20.8127 62.7559C19.2916 70.2973 22.9356 79.1866 30.656 84.9862C37.4772 90.1102 45.7284 91.5064 52.2613 89.3059C54.4713 88.5615 53.5522 85.8188 51.2504 85.4451C46.2099 84.6267 41.0841 82.4972 36.4708 79.0317C30.7398 74.7265 26.7687 69.0874 24.831 63.2286Z" fill="white"/>
<rect x="31.0605" y="93.6191" width="48.5731" height="11.0673" rx="1.2297" fill="#5FD65D"/>
<rect opacity="0.7" x="30.4453" y="93.6191" width="49.8028" height="2.4594" rx="1.2297" fill="#A1F07C"/>
<path d="M32.1135 119.078C31.7899 119.593 31.6182 120.189 31.6182 120.797V128.771C31.6182 130.554 33.0639 132 34.8473 132H93.6182C95.4016 132 96.8473 130.554 96.8473 128.771V120.757C96.8473 120.174 96.6895 119.602 96.3906 119.101L86.5202 102.573C85.9374 101.598 84.8844 101 83.7478 101H45.2623C44.1519 101 43.1194 101.571 42.5284 102.511L32.1135 119.078Z" fill="#3D2A55"/>
<path d="M14.0305 119.078C13.7068 119.593 13.5352 120.189 13.5352 120.797V128.771C13.5352 130.554 14.9809 132 16.7643 132L71.3372 132C73.1207 132 74.5664 130.554 74.5664 128.771V120.451C74.5664 120.064 74.4969 119.681 74.3611 119.318L68.2829 103.096C67.8105 101.835 66.6054 101 65.259 101H27.1793C26.0689 101 25.0364 101.571 24.4454 102.511L14.0305 119.078Z" fill="#322345"/>
</g>
</svg>
