<?xml version="1.0"?>
<svg xmlns="http://www.w3.org/2000/svg" viewBox="0 0 112 112" fill="none">
<mask id="mask0" mask-type="alpha" maskUnits="userSpaceOnUse" x="0" y="0" width="112" height="112">
<rect width="112" height="112" fill="white"/>
</mask>
<g mask="url(#mask0)">
<path d="M49.5125 75.8754C47.2261 60.7054 50.6568 43.9464 50.6568 43.9464M66.4999 67C64.5184 53.8526 55.5197 43.2134 55.5197 43.2134" stroke="#9BCCE8" stroke-width="2.79384" stroke-linecap="round"/>
<path d="M84.8971 42.3316L29.3984 65.9318C28.338 66.3827 27.5755 67.3451 27.4774 68.4932C26.33 81.9186 33.2863 103.632 59.9165 95.5927C86.8545 87.4604 86.3104 59.8505 86.4403 43.3611C86.4466 42.5625 85.632 42.0191 84.8971 42.3316Z" fill="#FFF859"/>
<path d="M88.4028 42.2734C91.7171 81.7815 71.6342 98.0983 49.3959 98.8761C29.478 98.8761 18.4888 85.0661 26.7572 67.9055C27.2882 65.737 30.2506 65.4418 31.1992 67.4627L34.3617 74.2002C40.0455 86.3091 52.1342 95.6357 64.4821 90.4919C76.9652 85.2919 86.6175 74.3117 86.4561 42.323C86.4522 41.5415 87.3231 41.0203 87.9734 41.4539C88.2423 41.6332 88.4042 41.9501 88.4028 42.2734Z" fill="#F3921F"/>
<path fill-rule="evenodd" clip-rule="evenodd" d="M29.4585 65.8979C30.1274 66.0462 30.7421 66.4804 31.0885 67.2185L34.3599 74.1879C40.0436 86.2967 52.1323 95.6233 64.4803 90.4796C76.9273 85.2945 86.5384 74.1019 86.4555 42.3149C86.4547 42.0246 86.5457 41.7594 86.6969 41.542L29.4585 65.8979Z" fill="#FDFF9F"/>
<path fill-rule="evenodd" clip-rule="evenodd" d="M31.0848 67.2421C30.8001 66.6355 30.3341 66.2341 29.8058 66.0281C29.6936 65.9843 29.5786 65.9494 29.4619 65.9232C29.6107 65.9364 31.1923 65.2642 32.9716 64.4808C33.5248 64.2373 34.1718 64.4806 34.425 65.0294L35.5979 67.571L37.9279 72.5349C39.1139 75.0616 40.5943 77.4213 42.2847 79.4983C42.7826 80.11 43.7345 79.9687 44.0697 79.2548L54.3068 57.448C54.738 56.5295 53.8074 55.5641 52.8737 55.9613L29.4616 65.9201C29.4602 65.9207 29.4604 65.9228 29.4619 65.9232C29.46 65.923 29.4582 65.9227 29.4568 65.9223C29.4567 65.9222 29.4565 65.9222 29.4564 65.9223C29.4559 65.9225 29.456 65.9233 29.4565 65.9234C30.1248 66.072 30.7387 66.5061 31.0848 67.2435L34.3561 74.2129C40.0399 86.3218 52.1286 95.6484 64.4765 90.5046C69.3686 88.4668 73.7853 85.518 77.3395 80.7594C73.723 85.5133 69.3023 88.493 64.4765 90.5032C52.1286 95.647 40.0399 86.3204 34.3561 74.2115L31.0848 67.2421ZM64.3356 51.0857C63.461 51.4577 63.4328 52.6871 64.2894 53.0989L80.2203 60.7575C80.8877 61.0784 81.6753 60.665 81.7752 59.9312C82.33 55.8557 82.577 51.5592 82.7986 47.1518V44.9033C82.7986 44.1111 81.9897 43.5762 81.2607 43.8862L64.3356 51.0857ZM80.7335 65.6299C80.8524 65.1313 80.6024 64.6202 80.1405 64.3982L63.4833 56.3904C62.6203 55.9755 61.6739 56.7796 61.9441 57.6983L69.0402 81.8328C69.2539 82.5596 70.1189 82.8601 70.7132 82.3904C76.2993 77.9749 79.1665 72.2039 80.7335 65.6299ZM65.7722 85.5537C66.2327 85.3155 66.4511 84.7816 66.3048 84.2841L59.0653 59.6622C58.7784 58.6863 57.4368 58.5835 57.0045 59.5043L46.2358 82.4433C46.0246 82.8933 46.1381 83.4311 46.5261 83.7418C47.3172 84.3754 48.1319 84.9487 48.9645 85.4541C53.3684 88.1269 58.153 88.863 62.9593 86.8609C63.9471 86.4494 64.8838 86.0133 65.7722 85.5537Z" fill="#FFD643"/>
<path fill-rule="evenodd" clip-rule="evenodd" d="M55.5831 54.7186L41.9746 83.7069L44.9761 85.1159L58.2433 56.8547L66.8702 86.1955L70.0513 85.2602L61.2598 55.3594L81.7733 65.5184L83.2448 62.5471L61.9379 51.9951L55.5831 54.7186Z" fill="#FDFF9F"/>
<path d="M31.0885 67.2196C30.8038 66.613 30.3379 66.2116 29.8095 66.0055C29.695 65.9609 29.5776 65.9254 29.4585 65.899C29.5687 65.9479 31.7921 64.9864 33.9721 64.0172L35.6016 67.5484L37.9317 72.5124C40.5089 78.003 44.4766 82.7054 48.9682 85.4315C53.3721 88.1044 58.1568 88.8405 62.963 86.8384C80.9661 79.3388 83.825 60.0735 83.1674 42.9754L86.6969 41.542C86.6583 41.5974 86.6237 41.656 86.5935 41.7173C86.5053 41.8963 86.4549 42.0987 86.4555 42.3149C86.5031 60.5978 84.4826 82.4325 64.4803 90.4807C52.1323 95.6245 40.0436 86.2978 34.3599 74.189L31.0885 67.2196Z" fill="#FDFF9F"/>
<ellipse opacity="0.2" cx="52.4419" cy="33.3854" rx="18.4535" ry="18.8461" transform="rotate(-8.57108 52.4419 33.3854)" fill="#FF64AE"/>
<circle opacity="0.3" cx="52.6055" cy="34.4773" r="13.0749" transform="rotate(-8.57108 52.6055 34.4773)" fill="#FF3797"/>
<path d="M66.0897 62.9025C64.2559 50.7355 55.9282 40.8896 55.9282 40.8896" stroke="#9BCCE8" stroke-width="2.58551" stroke-linecap="round"/>
<path d="M54.7778 48.9024C57.1904 48.5387 59.3766 47.8364 60.9657 46.9509C61.7559 46.5106 62.4614 45.9903 62.964 45.3885C63.4653 44.7883 63.8613 43.9809 63.7214 43.0528C63.5815 42.1247 62.9651 41.4699 62.3092 41.0441C61.6515 40.6172 60.824 40.3279 59.9392 40.1401C58.1597 39.7623 55.8636 39.7356 53.451 40.0992C51.0384 40.4628 48.8521 41.1652 47.263 42.0506C46.4729 42.4909 45.7673 43.0112 45.2647 43.613C44.7634 44.2132 44.3675 45.0206 44.5074 45.9487C44.6472 46.8768 45.2636 47.5317 45.9195 47.9575C46.5772 48.3844 47.4047 48.6736 48.2895 48.8615C50.0691 49.2392 52.3652 49.266 54.7778 48.9024Z" fill="#FF20F6" stroke="#E900B5" stroke-width="2.58551"/>
<path d="M44.3739 36.3892C43.6807 31.7894 46.8475 27.4985 51.4473 26.8053C56.0471 26.112 60.338 29.2788 61.0313 33.8786L62.4435 43.2484L45.7862 45.759L44.3739 36.3892Z" fill="#FF20F6"/>
<path opacity="0.2" d="M49.0088 38.874C49.2985 40.796 49.9865 45.3608 50.421 48.2438" stroke="black" stroke-width="2.58551" stroke-linecap="round"/>
<path opacity="0.2" d="M57.3364 37.6211C57.6261 39.5431 58.3141 44.1079 58.7486 46.9909" stroke="black" stroke-width="2.58551" stroke-linecap="round"/>
<path d="M63.2951 45.367C61.6366 46.8262 58.4788 48.1072 54.7427 48.6703C51.3371 49.1836 48.2149 48.9852 46.163 48.2603" stroke="#E900B5" stroke-width="2.58551"/>
<circle cx="53.1753" cy="38.2533" r="6.31707" transform="rotate(-8.57108 53.1753 38.2533)" fill="#FF89F3"/>
<circle cx="53.1743" cy="38.2545" r="4.21138" transform="rotate(-8.57108 53.1743 38.2545)" fill="#FFACF7"/>
</g>
</svg>
