<?xml version="1.0"?>
<svg xmlns="http://www.w3.org/2000/svg" viewBox="0 0 112 112" fill="none">
<mask id="mask0" mask-type="alpha" maskUnits="userSpaceOnUse" x="0" y="0" width="112" height="112">
<rect width="112" height="112" fill="white"/>
</mask>
<g mask="url(#mask0)">
<path d="M42.8321 17.5309C42.8119 17.016 43.2128 16.5822 43.7277 16.5619L51.3725 16.2607C51.8874 16.2404 52.3212 16.6414 52.3415 17.1562L52.8214 29.3372C52.9249 31.9632 50.88 34.1758 48.2541 34.2793C45.6281 34.3827 43.4155 32.3378 43.3121 29.7119L42.8321 17.5309Z" fill="#9BACC7"/>
<path d="M21.3447 34.6305L17.2245 35.9557C16.9566 36.0419 16.6696 35.8946 16.5834 35.6267L16.0553 33.9848C15.9059 33.5201 16.4323 33.1315 16.8324 33.4112L17.6985 34.0169C17.8291 34.1082 17.9949 34.1331 18.1465 34.0843L20.4006 33.3593C20.6685 33.2732 20.8158 32.9861 20.7297 32.7183L20.4149 31.7395C20.3347 31.4903 20.4565 31.2208 20.6965 31.1163L43.3476 21.2541L49.0932 19.4061C49.3611 19.3199 49.6481 19.4672 49.7343 19.7351L51.8705 26.3765C51.9566 26.6443 51.8093 26.9314 51.5414 27.0175L45.7958 28.8656L21.3447 34.6305Z" fill="#CFDDE3"/>
<path d="M78.2044 16.2418L82.3246 14.9165C82.5925 14.8304 82.7398 14.5433 82.6537 14.2755L82.1625 12.7485C82.0149 12.2895 81.3715 12.2733 81.2009 12.7242L80.8339 13.6942C80.779 13.8393 80.661 13.9514 80.5133 13.9989L78.2522 14.7262C77.9843 14.8124 77.6973 14.6651 77.6111 14.3972L77.326 13.5107C77.2455 13.2606 76.9881 13.1126 76.7315 13.169L52.6162 18.4714L46.8706 20.3194C46.6027 20.4056 46.4554 20.6926 46.5416 20.9605L48.5617 27.2413C48.6479 27.5091 48.9349 27.6565 49.2028 27.5703L54.9484 25.7222L78.2044 16.2418Z" fill="#CFDDE3"/>
<path d="M19.2557 44.285L18.856 34.1387" stroke="#D3ECF6" stroke-width="2.03812" stroke-linecap="round"/>
<path d="M79.4154 24.37L79.0156 14.2236" stroke="#D3ECF6" stroke-width="2.03812" stroke-linecap="round"/>
<path d="M81.7921 83.1975L78.2689 83.8987C77.0551 84.1402 75.8752 83.352 75.6337 82.1382L67.4958 41.2455C67.3773 40.65 67.5054 40.032 67.851 39.5327L77.9548 24.9344C78.6429 23.9404 79.9953 23.6712 81.0115 24.3261L95.9346 33.9439C96.4449 34.2728 96.8 34.7947 96.9185 35.3902L105.056 76.2829C105.298 77.4967 104.51 78.6766 103.296 78.9181L100.318 79.5108" stroke="#BFD4DD" stroke-width="2.13158" stroke-linecap="round" stroke-linejoin="round"/>
<path d="M79.1889 23.1514L67.851 39.5327C67.5054 40.032 67.3773 40.65 67.4958 41.2455L75.6337 82.1382C75.8752 83.352 77.0551 84.1402 78.2689 83.8987L81.7921 83.1975" stroke="#D3ECF6" stroke-width="2.13158" stroke-linecap="round" stroke-linejoin="round"/>
<path d="M75.119 50.5522L75.1602 51.2005C75.2598 52.2262 75.5875 53.2166 76.1193 54.0992C76.651 54.9819 77.3735 55.7345 78.2336 56.3019L80.8525 58.2213" stroke="#96693E" stroke-width="2.33799" stroke-miterlimit="10" stroke-linecap="round"/>
<path d="M76.513 63.1609C79.1762 65.8102 76.9787 68.2657 80.9701 72.1911C82.9546 74.0512 85.5777 75.0779 88.2976 75.0591C91.0175 75.0402 93.6262 73.9773 95.5848 72.0899C96.5469 71.186 97.3164 70.0969 97.8468 68.888C98.3773 67.6791 98.6578 66.3755 98.6715 65.0554C98.6852 63.7354 98.4318 62.4262 97.9266 61.2066C97.4215 59.987 96.6749 58.882 95.7318 57.9583C91.7592 54.1107 89.1379 56.2076 86.4549 53.6124C85.1337 52.3458 83.3703 51.645 81.5401 51.6591C79.7099 51.6731 77.9575 52.4011 76.656 53.6879C76.0086 54.2911 75.4897 55.0188 75.1306 55.8275C74.7715 56.6362 74.5795 57.5092 74.5661 58.3939C74.5527 59.2787 74.7184 60.157 75.0529 60.9762C75.3875 61.7953 75.8841 62.5384 76.513 63.1609Z" fill="#FBF33F"/>
<path d="M88.5152 63.7259C87.217 61.414 87.4034 58.8427 88.9455 57.9689C90.4875 57.0951 92.7866 58.2687 94.0925 60.5788C95.3984 62.8889 95.2042 65.462 93.6622 66.3358C92.1202 67.2096 89.8211 66.036 88.5152 63.7259Z" fill="#FDFF98"/>
<path d="M73.079 83.9153C72.9583 83.3084 73.3524 82.7185 73.9593 82.5977L106.78 76.0661C107.387 75.9453 107.977 76.3394 108.098 76.9463L108.15 77.2072C108.573 79.3315 107.193 81.3962 105.069 81.8189L77.7427 87.2571C75.6184 87.6798 73.5537 86.3005 73.131 84.1762L73.079 83.9153Z" fill="#4A4C91"/>
<circle cx="79.2692" cy="23.6508" r="2.51735" transform="rotate(-14.0577 79.2692 23.6508)" fill="#E1F7FF"/>
<path d="M44.6457 16.5503C44.6251 16.028 45.0319 15.5878 45.5542 15.5672L52.8418 15.2801C53.3641 15.2595 53.8043 15.6663 53.8248 16.1887L54.321 28.7816C54.4209 31.3164 52.447 33.4521 49.9122 33.552C47.3775 33.6519 45.2417 31.678 45.1418 29.1432L44.6457 16.5503Z" fill="#E3F2F8"/>
<path d="M51.2935 23.3531C51.3434 24.6205 50.65 25.6768 49.7448 25.7125C48.8395 25.7482 48.0652 24.7497 48.0152 23.4823C47.9653 22.2149 48.6587 21.1586 49.5639 21.1229C50.4692 21.0873 51.2436 22.0858 51.2935 23.3531Z" fill="#7C8EA9"/>
<path fill-rule="evenodd" clip-rule="evenodd" d="M33.0101 65.7009C32.9898 65.0263 32.4264 64.4958 31.7518 64.5161L20.4454 64.8563C19.7707 64.8766 19.2403 65.44 19.2606 66.1146C19.2809 66.7892 19.8442 67.3197 20.5189 67.2994L21.7979 67.2609C22.4882 67.2401 23.0647 67.7829 23.0854 68.4733L23.1253 69.7988C23.1357 70.1448 23.0023 70.4796 22.7567 70.7236L19.2445 74.2127C18.6306 74.8226 18.2969 75.6597 18.323 76.5246L18.6741 88.1933C18.726 89.9191 20.1671 91.2761 21.893 91.2241L31.8926 90.9233C33.6184 90.8713 34.9754 89.4302 34.9235 87.7044L34.5724 76.0357C34.5464 75.1707 34.163 74.3552 33.5135 73.7834L29.7987 70.5124C29.5389 70.2837 29.3855 69.9575 29.3751 69.6115L29.3352 68.2852C29.3144 67.5949 29.8572 67.0184 30.5476 66.9976L31.8253 66.9592C32.4999 66.9389 33.0304 66.3755 33.0101 65.7009Z" fill="#323349"/>
<path opacity="0.8" d="M24.0529 79.8289L27.0858 76.6794L27.2927 83.5542" stroke="white" stroke-width="1.87578" stroke-linecap="round" stroke-linejoin="round"/>
<rect x="19.2109" y="64.4023" width="13.7557" height="3.1263" rx="1.25052" transform="rotate(-1.72343 19.2109 64.4023)" fill="#505170"/>
<path d="M20.9673 100.177L17.7451 100.747C16.5011 100.968 15.314 100.138 15.0936 98.8941L8.19897 59.9757C8.09087 59.3654 8.23499 58.7374 8.59836 58.2354L18.3965 44.6985C19.12 43.6988 20.5061 43.4533 21.529 44.1435L35.3812 53.4907C35.8949 53.8373 36.246 54.3776 36.3541 54.9878L43.2487 93.9063C43.4691 95.1502 42.6393 96.3373 41.3954 96.5577L38.6945 97.0362" stroke="#BFD4DD" stroke-width="2.13158" stroke-linecap="round" stroke-linejoin="round"/>
<path d="M19.6942 42.9055L8.59836 58.2354C8.23499 58.7374 8.09087 59.3654 8.19897 59.9757L15.0936 98.8941C15.314 100.138 16.5011 100.968 17.7451 100.747L20.9673 100.177" stroke="#D3ECF6" stroke-width="2.13158" stroke-linecap="round" stroke-linejoin="round"/>
<path d="M13.0013 100.717C12.8911 100.095 13.306 99.5015 13.928 99.3913L44.5153 93.9726C45.1372 93.8624 45.7308 94.2773 45.841 94.8993L45.8603 95.0082C46.2459 97.1851 44.7938 99.2625 42.6169 99.6482L17.6606 104.069C15.4836 104.455 13.4062 103.003 13.0206 100.826L13.0013 100.717Z" fill="#4A4C91"/>
<circle cx="19.6123" cy="44.0811" r="2.57342" transform="rotate(-10.0461 19.6123 44.0811)" fill="#E1F7FF"/>
</g>
</svg>
