<?xml version="1.0"?>
<svg xmlns="http://www.w3.org/2000/svg" viewBox="0 0 112 112" fill="none">
<mask id="mask0" mask-type="alpha" maskUnits="userSpaceOnUse" x="0" y="0" width="112" height="112">
<rect width="112" height="112" fill="white"/>
</mask>
<g mask="url(#mask0)">
<path fill-rule="evenodd" clip-rule="evenodd" d="M52.0565 19.3876C34.3716 22.7715 22.7783 39.8511 26.1622 57.5361L31.7323 86.6464L52.11 82.7473L46.2609 52.1787C45.0304 45.7479 49.2461 39.5371 55.677 38.3066C62.1079 37.0761 68.3186 41.2918 69.5492 47.7227L75.3982 78.2912L95.7751 74.3922L90.205 45.2819C86.8211 27.597 69.7415 16.0037 52.0565 19.3876Z" fill="#C45142"/>
<path fill-rule="evenodd" clip-rule="evenodd" d="M55.6811 38.314C62.1103 37.0864 68.3184 41.3017 69.5486 47.731L75.3977 78.2995L95.7745 74.4006L90.2045 45.2902C86.8209 27.607 69.7388 13.5946 52.0557 16.9754L49.196 32.6996L55.6811 38.314Z" fill="#176CC1"/>
<path d="M73.7529 69.2902L87.7563 59.5173L94.1301 65.3912L98.141 86.7033C98.3742 87.942 97.5612 89.1358 96.3232 89.3727L78.1855 92.8432L73.7529 69.2902Z" fill="#B4D7DF"/>
<path d="M30.0706 77.3465L44.2856 68.0789L50.4478 73.4474L54.6284 95.8814L34.2511 99.7805L30.0706 77.3465Z" fill="#B4D7DF"/>
<path fill-rule="evenodd" clip-rule="evenodd" d="M45.7665 13.6698C28.0816 17.0537 16.4883 34.1334 19.8722 51.8183L25.4423 80.9286L45.8199 77.0295L39.9708 46.461C38.7403 40.0301 42.9561 33.8193 49.3869 32.5888C55.8178 31.3583 62.0286 35.574 63.2591 42.0049L69.1082 72.5734L89.485 68.6745L83.915 39.5641C80.5311 21.8792 63.4514 10.2859 45.7665 13.6698Z" fill="#EF5B47"/>
<path fill-rule="evenodd" clip-rule="evenodd" d="M49.3905 32.5958C55.8198 31.3682 62.0279 35.5835 63.2581 42.0128L68.5699 69.7733C68.8666 71.3242 70.3644 72.3408 71.9152 72.0441L86.676 69.2197C88.2268 68.9229 89.2435 67.4252 88.9467 65.8744L83.914 39.572C80.5304 21.8888 63.4536 10.296 45.7705 13.6768L49.3905 32.5958Z" fill="#2687E9"/>
<rect x="67.3838" y="63.5596" width="20.7469" height="23.9929" transform="rotate(-10.8322 67.3838 63.5596)" fill="#E5F4FF"/>
<path d="M72.4069 88.4642C71.4164 87.4986 71.9175 85.8179 73.275 85.5524L91.197 82.0471C91.7498 81.939 92.3204 82.1091 92.7237 82.5023L96.842 86.5172C97.8325 87.4828 97.3314 89.1634 95.9738 89.429L78.0519 92.9343C77.4991 93.0424 76.9285 92.8722 76.5252 92.4791L72.4069 88.4642Z" fill="#8EB1B9"/>
<rect x="23.7217" y="71.9268" width="20.7469" height="23.9824" transform="rotate(-10.8322 23.7217 71.9268)" fill="#E5F4FF"/>
<path d="M28.6716 96.8363C27.68 95.8696 28.1835 94.1869 29.5432 93.9239L48.3316 90.2886C48.8833 90.1819 49.4524 90.3522 49.8548 90.7445L53.9689 94.7553C54.9605 95.722 54.457 97.4047 53.0974 97.6677L34.309 101.303C33.7572 101.41 33.1881 101.239 32.7857 100.847L28.6716 96.8363Z" fill="#8EB1B9"/>
</g>
</svg>
