<?xml version="1.0"?>
<svg xmlns="http://www.w3.org/2000/svg" viewBox="0 0 112 112" fill="none">
<mask id="mask0" mask-type="alpha" maskUnits="userSpaceOnUse" x="0" y="0" width="112" height="112">
<rect width="112" height="112" fill="white"/>
</mask>
<g mask="url(#mask0)">
<path opacity="0.8" fill-rule="evenodd" clip-rule="evenodd" d="M47.4969 89.3936C44.651 94.6034 37.6705 97.3245 35.0021 102.627C34.1786 104.264 32.1842 104.923 30.5477 104.1C28.9111 103.276 28.252 101.282 29.0755 99.6451C31.6945 94.4405 29.6516 87.3914 31.8329 81.9887C31.9227 81.7664 32.0223 81.546 32.132 81.328L55.9304 34.0338C58.0847 29.7527 63.3017 28.0285 67.5829 30.1828C71.864 32.3371 73.5882 37.554 71.4339 41.8352L47.6355 89.1294C47.5906 89.2186 47.5444 89.3066 47.4969 89.3936Z" fill="#A8E5FF"/>
<path fill-rule="evenodd" clip-rule="evenodd" d="M45.2715 88.7697C43.0936 93.1852 36.8108 95.2571 34.5977 99.6551L32.708 103.41C32.305 104.211 31.3289 104.534 30.5279 104.131C29.727 103.728 29.4044 102.752 29.8074 101.951L31.5718 98.4445C33.8211 93.9745 31.5783 87.5383 33.8276 83.0683L39.9283 70.9444C41.5237 67.7739 45.1399 66.1757 48.5584 67.1304L54.2586 68.7223C54.67 68.8372 54.8758 69.2978 54.6868 69.6809L45.2715 88.7697Z" fill="#F44EF8"/>
<ellipse cx="31.0418" cy="103.448" rx="1.30415" ry="0.76988" transform="rotate(21.5134 31.0418 103.448)" fill="#E23FE6"/>
<ellipse cx="47.8918" cy="69.3079" rx="3.50343" ry="7.19531" transform="rotate(-101.891 47.8918 69.3079)" fill="#FF9EF5"/>
<path opacity="0.7" d="M35.9333 88.7935C41.9669 78.6449 49.0444 66.2106 51.8427 61.273C52.5143 60.0879 52.022 58.5117 50.9317 57.695C49.6824 56.7593 47.9049 57.1526 47.1948 58.5426L34.6061 83.1869C34.5527 83.2915 34.5136 83.4027 34.4899 83.5177L33.593 87.8751C33.2981 89.3076 35.1859 90.0506 35.9333 88.7935Z" fill="white"/>
<path d="M70.4717 49.088C71.4169 51.1124 71.5699 53.1292 70.7245 54.8091C68.6886 58.855 61.6335 59.4152 54.9665 56.0604C48.2995 52.7056 44.5453 46.7061 46.5812 42.6602C47.4973 40.8397 49.4296 39.7249 51.8855 39.355L61.6914 19.8679C64.2953 14.6933 70.601 12.6093 75.7756 15.2132C80.9502 17.817 83.0342 24.1227 80.4303 29.2974L70.4717 49.088Z" fill="#642A9E"/>
<path fill-rule="evenodd" clip-rule="evenodd" d="M58.5927 49.3712C53.2402 46.6778 50.9397 41.3543 52.8032 37.6511C52.8483 37.5615 52.8768 37.4679 52.8898 37.3738L51.5799 39.977C51.1427 40.8458 50.8377 41.7464 50.6573 42.656C51.4958 45.9664 54.1341 49.1151 57.7947 50.9571C61.458 52.8005 65.5621 53.0419 68.7212 51.7394C69.3425 51.0535 69.8826 50.2733 70.3188 49.4065L71.6331 46.7946C71.5621 46.8626 71.5014 46.9437 71.4547 47.0365C69.5912 50.7397 63.9453 52.0646 58.5927 49.3712Z" fill="#38165A"/>
<path d="M83.3267 35.9853C77.6861 47.4762 66.515 53.5524 58.3752 49.5568C50.2354 45.5613 48.2094 33.007 53.8499 21.5161C59.4904 10.0252 70.6616 3.949 78.8014 7.94456C86.9411 11.9401 88.9672 24.4944 83.3267 35.9853Z" fill="#642A9E"/>
<ellipse cx="68.6867" cy="16.8805" rx="5.58922" ry="8.08748" transform="rotate(-116.126 68.6867 16.8805)" fill="#903FE0"/>
<path d="M52.0806 67.1348L54.8243 68.5987" stroke="white" stroke-width="1.20821" stroke-linecap="round"/>
<path d="M49.7363 71.4053L52.48 72.8692" stroke="white" stroke-width="1.20821" stroke-linecap="round"/>
<path d="M47.3911 75.6738L50.1348 77.1378" stroke="white" stroke-width="1.20821" stroke-linecap="round"/>
<path d="M45.0474 79.9443L47.791 81.4083" stroke="white" stroke-width="1.20821" stroke-linecap="round"/>
<path d="M42.7031 84.2129L45.4468 85.6769" stroke="white" stroke-width="1.20821" stroke-linecap="round"/>
</g>
</svg>
