<?xml version="1.0"?>
<svg xmlns="http://www.w3.org/2000/svg" viewBox="0 0 112 112" fill="none">
<mask id="mask0" mask-type="alpha" maskUnits="userSpaceOnUse" x="0" y="0" width="112" height="112">
<rect width="112" height="112" fill="white"/>
</mask>
<g mask="url(#mask0)">
<path d="M76.7802 89.4917L52.6317 82.5822L13.2349 46.1103L19.3521 38.1778L46.028 23.1423L80.0403 38.5954L93.8037 64.944L98.6769 81.6264C99.3176 83.8197 97.8916 86.0783 95.6359 86.4431L76.7802 89.4917Z" fill="#EFF328"/>
<path d="M31.78 60.2861L55.6688 50.6426L97.9313 83.2338C100.439 85.1675 98.9914 89.1803 95.8268 89.068L51.9172 87.509L31.78 60.2861Z" fill="#FFC328"/>
<path d="M46.6276 87.2602L22.9931 76.6181C21.1514 75.7889 19.7533 74.2102 19.1527 72.2818L16.9055 65.066C14.8552 58.4827 22.4925 53.1686 27.9527 57.3793L31.6996 60.2687L58.5051 67.5213L96.099 87.5136C97.6426 88.3345 96.9842 90.6796 95.239 90.5772L49.1116 87.8704C48.2534 87.82 47.4115 87.6132 46.6276 87.2602Z" fill="#FF9921"/>
<path d="M95.5459 90.7244L52.5547 88.9849C49.7092 88.8698 48.0021 85.7752 49.4226 83.3068L56.6786 70.6979C57.6982 68.9262 59.939 68.282 61.7438 69.2418L96.3764 87.6593C97.9057 88.4726 97.2766 90.7944 95.5459 90.7244Z" fill="#FF701F"/>
<path d="M11.9823 41.3123L19.8659 30.0921C22.8047 25.9095 27.3904 23.1817 32.4685 22.5953L42.6551 21.4191L36.1909 29.8016L16.891 63.5893L11.2569 46.0974C10.7349 44.4769 11.0035 42.7053 11.9823 41.3123Z" fill="#FFEA31"/>
<path d="M31.0936 61.1724L21.4275 73.7068C20.8912 74.4024 19.7938 74.2063 19.5316 73.368L11.2913 47.0249C10.9744 46.0118 12.1499 45.1928 12.9905 45.841L30.8968 59.6497C31.3716 60.0158 31.4597 60.6976 31.0936 61.1724Z" fill="#FFC328"/>
<path d="M78.7399 31.7096L94.4114 65.754C94.9424 66.9075 93.4006 67.8785 92.5897 66.9013L75.3673 46.1472C74.5032 45.1059 73.4606 44.2268 72.2884 43.551L61.3521 37.2461C60.1849 36.5732 58.9076 36.1125 57.5796 35.8854L46.8198 34.0458C43.5467 33.4862 41.4028 30.308 42.1097 27.0636C42.7509 24.1206 45.5301 22.1517 48.5192 22.5228L69.7891 25.1635C73.7045 25.6496 77.0901 28.1256 78.7399 31.7096Z" fill="#EE7C78"/>
<path d="M43.11 21.1748L70.9017 25.1949C73.795 25.6134 75.8372 28.248 75.5212 31.1542L74.3319 42.091C74.2047 43.2601 72.9183 43.9132 71.8995 43.3258L59.8259 36.3652C59.6688 36.2747 59.4977 36.211 59.3197 36.1768L36.8104 31.8544C35.619 31.6256 35.0871 30.2212 35.8279 29.2606L41.5873 21.7921C41.9463 21.3266 42.5283 21.0907 43.11 21.1748Z" fill="#FFC328"/>
<path d="M31.2561 59.9281L12.6879 45.6091C11.1383 44.4142 11.324 42.0219 13.0394 41.0804L35.1575 28.94C35.7912 28.5922 36.5374 28.5115 37.2308 28.7158L57.5626 34.7075C58.8866 35.0977 59.7069 36.4194 59.4689 37.779L57.1462 51.048C56.9743 52.03 56.2779 52.8387 55.3323 53.1545L33.7732 60.3532C32.9157 60.6396 31.972 60.4802 31.2561 59.9281Z" fill="#F7FFC7"/>
<path d="M32.8784 59.2647L55.7001 51.8671C57.0767 51.4209 58.5462 52.2197 58.9204 53.6176L62.2465 66.043C62.7539 67.9384 61.0018 69.6637 59.1145 69.1272L32.9225 61.682C31.7215 61.3406 31.6907 59.6497 32.8784 59.2647Z" fill="#FFEA31"/>
</g>
</svg>
