<?xml version="1.0"?>
<svg xmlns="http://www.w3.org/2000/svg" viewBox="0 0 112 112" fill="none">
<mask id="mask0" mask-type="alpha" maskUnits="userSpaceOnUse" x="0" y="0" width="112" height="112">
<rect width="112" height="112" fill="white"/>
</mask>
<g mask="url(#mask0)">
<path d="M74.041 36.0732C58.8146 61.8103 54.887 79.8671 55.3937 95.1329C55.4413 96.5666 54.8846 98.0933 53.4878 98.4198C52.9718 98.5404 52.4086 98.5736 51.8339 98.452C50.4812 98.1657 50.0179 96.5866 50.1577 95.211C54.4439 53.0421 71.8331 36.498 74.041 36.0732Z" fill="#2EA958"/>
<path d="M95.1529 16.494C90.6691 42.6445 76.9129 42.3231 70.6189 42.4257C69.345 42.4464 68.0733 41.4637 68.0311 40.1903C67.4344 22.1759 83.0063 15.6101 93.0497 14.2433C94.3365 14.0682 95.3724 15.214 95.1529 16.494Z" fill="#1ECC63"/>
<path d="M92.6282 16.6599C86.0664 21.8648 81.7617 25.8571 77.9342 30.2931M70.1961 40.5254C71.6421 38.4268 72.9919 36.5333 74.3292 34.767M89.6974 26.4811C85.4711 26.731 82.845 27.7677 77.9342 30.2931M77.9342 30.2931C76.7029 31.7201 75.521 33.193 74.3292 34.767M74.5888 25.5599C75.147 28.9195 74.9271 30.9742 74.3292 34.767" stroke="#43E179" stroke-width="1.49898" stroke-linecap="round"/>
<path d="M97.9727 52.9985C78.0065 66.7032 69.4106 57.4766 65.3119 53.4031C64.479 52.5754 64.3104 51.1041 65.1243 50.2577C76.5267 38.4003 90.7804 44.4348 98.1069 50.1602C99.0511 50.8981 98.9608 52.3203 97.9727 52.9985Z" fill="#1ECC63"/>
<path opacity="0.5" d="M93.695 52.7423C87.0255 50.9845 81.0921 50.4017 77.8923 49.614C76.6552 49.3094 76.5957 47.9847 77.7146 47.3752C84.8011 43.5154 91.1428 47.1529 94.8668 50.9843C95.6871 51.8282 94.8329 53.0423 93.695 52.7423Z" fill="#48F88E"/>
<path d="M83.3526 67.6552C67.9558 77.8618 61.5134 70.7188 58.4375 67.5616C57.8125 66.92 57.702 65.7959 58.3332 65.1603C67.1757 56.2573 77.9725 61.0352 83.4898 65.4921C84.2009 66.0665 84.1145 67.1501 83.3526 67.6552Z" fill="#1ECC63"/>
<path d="M81.1401 66.6631C75.9412 65.8319 72.2628 65.532 68.5813 65.6417C67.397 65.677 66.2124 65.7547 64.9768 65.8707M60.5527 66.4003C62.1394 66.1793 63.5903 66.0008 64.9768 65.8707M69.3546 62.0812C68.0344 63.7666 66.9887 64.5372 64.9768 65.8707" stroke="#43E179" stroke-width="1.34596" stroke-linecap="round"/>
<path d="M49.6611 19.9812C43.4448 43.3869 55.0197 48.3913 60.2317 50.8868C61.2908 51.3939 62.7334 51.0595 63.2579 50.0088C70.6053 35.2905 60.1407 23.8855 52.2901 18.9031C51.2783 18.2609 49.9687 18.8229 49.6611 19.9812Z" fill="#1ECC63"/>
<path d="M51.8804 20.6055C55.2682 28.2464 56.498 32.9202 58.3328 37.9411M61.625 49.1871C61.0714 46.924 60.533 44.8681 59.9633 42.9264C59.4556 41.196 58.9231 39.5563 58.3328 37.9411M49.4512 31.02C53.0118 32.5364 54.9334 34.2425 58.3328 37.9411" stroke="#43E179" stroke-width="1.39807" stroke-linecap="round"/>
<path d="M41.8585 46.6583C41.1208 65.1161 50.5696 66.9179 54.8644 67.9095C55.7372 68.111 56.7556 67.6222 56.9714 66.7529C59.9951 54.5746 50.309 47.8232 43.6365 45.4188C42.7765 45.1089 41.895 45.7449 41.8585 46.6583Z" fill="#1ECC63"/>
<path d="M25.3853 62.5156C36.2543 76.9285 40.3183 87.5471 41.0901 96.7438C41.1625 97.6067 41.5985 98.4851 42.4584 98.5868C42.7989 98.6271 43.1652 98.6034 43.5252 98.469C44.2657 98.1927 44.4417 97.2727 44.3123 96.493C39.0932 65.0437 26.7439 62.622 25.3853 62.5156Z" fill="#2EA958"/>
<path d="M9.86333 49.2701C13.9495 67.9701 23.853 67.2888 28.3924 67.157C29.3112 67.1304 30.1956 66.3806 30.1844 65.4615C30.0256 52.4591 18.5884 48.236 11.3056 47.5793C10.3724 47.4951 9.66332 48.3548 9.86333 49.2701Z" fill="#33DA6C"/>
<path opacity="0.8" d="M12.3794 50.4217C16.645 53.4517 19.4544 55.8272 21.9695 58.5343M27.0785 64.8557C26.1202 63.5492 25.2269 62.3736 24.344 61.2826M14.4289 56.8067C17.1165 56.6759 18.8035 57.1862 21.9695 58.5343M21.9695 58.5343C22.7786 59.4052 23.5572 60.3103 24.344 61.2826M24.0021 55.121C23.7124 57.4155 23.8915 58.779 24.344 61.2826" stroke="#60F793" stroke-width="1.39587" stroke-linecap="round"/>
<path d="M9.95394 75.983C24.5082 85.0312 30.2892 78.233 33.0561 75.2219C33.6184 74.61 33.6904 73.5645 33.0879 72.9923C24.6469 64.9754 14.7639 69.6984 9.76814 73.9808C9.12425 74.5327 9.2337 75.5352 9.95394 75.983Z" fill="#33DA6C"/>
<path d="M17.9583 88.7039C31.9844 97.1129 37.3955 90.5374 39.9891 87.6218C40.5162 87.0294 40.5688 86.0307 39.9851 85.494C31.8078 77.9749 22.4509 82.6335 17.7502 86.7964C17.1444 87.3329 17.2642 88.2878 17.9583 88.7039Z" fill="#33DA6C"/>
<path d="M43.0474 51.0893C48.1923 67.4364 40.17 71.3453 36.5655 73.2766C35.833 73.669 34.8025 73.4788 34.398 72.7529C28.7319 62.5836 35.7642 54.1854 41.1543 50.4114C41.849 49.925 42.7928 50.2803 43.0474 51.0893Z" fill="#33DA6C"/>
<path d="M53.815 68.4727C55.2077 84.767 46.9236 86.7395 43.165 87.7886C42.4012 88.0019 41.481 87.6105 41.2552 86.8503C38.0927 76.2012 46.3881 69.8419 52.1928 67.4478C52.9409 67.1393 53.746 67.6664 53.815 68.4727Z" fill="#33DA6C"/>
<path opacity="0.8" d="M51.788 70.5271C49.1022 74.0356 47.4281 76.6529 46.0741 79.4642C45.6386 80.3686 45.2362 81.2931 44.8439 82.2737M43.5289 85.8385C43.9762 84.5454 44.4036 83.3742 44.8439 82.2737M43.5829 77.2173C44.3889 78.9962 44.5845 80.141 44.8439 82.2737" stroke="#60F793" stroke-width="1.39587" stroke-linecap="round"/>
<path d="M67.355 83.4561C63.807 85.9911 62.318 94.2346 61.5942 97.8219C61.4479 98.5471 61.1545 99.2141 60.4146 99.2159C59.6606 99.2177 59.3172 98.2042 59.4398 97.4602C61.2524 86.4637 66.3862 83.8948 67.355 83.4561Z" fill="#1EAE4F"/>
<path d="M76.9668 76.2285C74.0588 86.0933 68.8264 86.5516 65.7235 86.3947C64.6235 86.3391 63.5911 85.313 63.7285 84.2201C64.6205 77.125 70.8333 74.6889 75.3544 74.2074C76.4709 74.0885 77.2843 75.1516 76.9668 76.2285Z" fill="#33DA6C"/>
<path d="M77.0008 91.9425C69.31 96.8344 65.4189 94.222 63.3302 92.2674C62.5267 91.5156 62.4228 90.0575 63.2498 89.3316C68.0269 85.1378 73.6624 87.0528 77.0926 89.3742C78.0226 90.0036 77.9484 91.3398 77.0008 91.9425Z" fill="#33DA6C"/>
<path d="M55.4433 77.8758C53.4449 86.651 57.1542 89.4205 59.6718 90.7241C60.649 91.23 62.0583 90.8379 62.4633 89.8148C64.7746 83.9765 61.1318 79.362 57.8309 76.9296C56.9269 76.2634 55.6927 76.7809 55.4433 77.8758Z" fill="#33DA6C"/>
</g>
</svg>
