<?xml version="1.0"?>
<svg xmlns="http://www.w3.org/2000/svg" viewBox="0 0 112 112" fill="none">
<mask id="mask0" mask-type="alpha" maskUnits="userSpaceOnUse" x="0" y="0" width="112" height="112">
<rect width="112" height="112" fill="white"/>
</mask>
<g mask="url(#mask0)">
<path d="M26.106 69.3542C20.7828 53.2977 18.843 43.6332 24.0785 31.5184C26.4089 26.1257 31.3846 22.4092 37.0825 20.9791C46.7735 18.5467 58.3044 16.7218 68.8347 16.5191C74.4456 16.4111 79.5202 19.7103 81.8818 24.8011C87.7723 37.499 89.4828 47.8408 89.08 65.5283C89.0634 66.2595 88.9298 66.9742 88.657 67.6527C86.5929 72.7863 76.6066 95.7858 62.5412 98.0145C46.3861 100.574 29.4596 75.0026 26.7255 70.6811C26.4615 70.2637 26.2615 69.8231 26.106 69.3542Z" fill="#6CAFFF" fill-opacity="0.2"/>
<path fill-rule="evenodd" clip-rule="evenodd" d="M26.6362 23.6195C17.8008 38.8841 17.9265 50.9481 23.9916 69.4656C24.1769 70.0313 24.4349 70.5636 24.775 71.0521C28.1343 75.8775 47.7776 102.957 63.8518 100.41C78.0839 98.1545 87.8607 72.5762 89.7019 67.3972C89.9194 66.7855 90.0269 66.1498 90.0418 65.5008C90.4988 45.5019 88.0569 33.1405 80.2072 17.8097C79.1686 15.7811 77.1218 14.4643 74.845 14.362C59.0431 13.652 46.5886 16.0276 30.3967 20.7147C28.8213 21.1708 27.4578 22.2 26.6362 23.6195ZM41.0483 27.9752L63.961 24.8679C68.2749 24.2829 72.5473 26.1952 74.9849 29.8022C78.0238 34.2992 79.2464 39.7804 78.4065 45.1425L77.4069 51.5251C76.8914 54.8162 74.2761 57.3783 70.975 57.826L41.3009 61.8502C38.0093 62.2966 34.8137 60.5349 33.4339 57.5133L31.6715 53.6537C28.8618 47.5007 29.0054 40.4033 32.0617 34.3689C33.8238 30.8898 37.1837 28.4993 41.0483 27.9752Z" fill="#3B4559"/>
<path d="M79.2214 63.581C92.5691 62.4015 82.7391 24.785 73.066 15.2178L79.2372 14.3809C89.5893 34.5887 91.0565 45.9777 90.9632 67.6389L79.2214 63.581Z" fill="#C1A12E"/>
<path d="M36.6217 64.1219L36.5436 65.8216C36.4811 67.1811 35.6021 68.3676 34.3198 68.8234L28.782 70.7918C26.4879 71.6073 25.8031 74.5207 27.4937 76.2728L45.7578 95.2017C46.1725 95.6315 46.6946 95.9426 47.27 96.1027L63.8445 100.715C65.3933 101.146 67.0299 100.415 67.7434 98.9747L76.1355 82.0306C77.003 80.279 79.18 79.6395 80.857 80.6436L81.7086 81.1536C83.8597 82.4416 86.6113 80.996 86.7712 78.4939L87.5343 66.5557C87.6692 64.445 85.8379 62.7393 83.7421 63.0235L83.2353 63.0922C81.8149 63.2849 80.4294 62.5522 79.789 61.2697L76.5895 54.8621C75.5698 52.8201 74.2354 50.9511 72.6351 49.3238L62.5615 39.0799C60.9531 37.4443 58.6676 36.6627 56.3944 36.971L53.9478 37.3028C51.9108 37.579 50.0856 38.7038 48.9233 40.3993L40.4131 52.812C38.1209 56.1554 36.8078 60.0724 36.6217 64.1219Z" fill="#D8EAFF"/>
<ellipse cx="43.9916" cy="60.5394" rx="3.88269" ry="5.31137" transform="rotate(6.92208 43.9916 60.5394)" fill="#3A3F4F"/>
<ellipse cx="76.1906" cy="55.6529" rx="1.49128" ry="4.54652" transform="rotate(-25.6542 76.1906 55.6529)" fill="#3A3F4F"/>
<ellipse cx="60.3149" cy="87.1504" rx="1.70251" ry="1.17727" transform="rotate(8.46264 60.3149 87.1504)" fill="#C4C4C4"/>
<ellipse cx="74.9625" cy="85.6968" rx="1.70251" ry="1.17727" transform="rotate(-36.3808 74.9625 85.6968)" fill="#C4C4C4"/>
<rect x="38.1499" y="8.20898" width="21.611" height="9.12557" rx="4.48396" transform="rotate(-8.00512 38.1499 8.20898)" fill="#3A3F4F"/>
<rect x="39.6333" y="9.91797" width="4.30019" height="5.51221" rx="2.1501" transform="rotate(-8.00512 39.6333 9.91797)" fill="#21283E"/>
<rect x="10.2271" y="29.3457" width="20.007" height="9.12557" rx="4.48396" transform="rotate(-49.8646 10.2271 29.3457)" fill="#3A3F4F"/>
<rect x="12.7983" y="29.8125" width="4.30019" height="5.51221" rx="2.1501" transform="rotate(-55.4788 12.7983 29.8125)" fill="#21283E"/>
<rect x="74.4058" y="6.7207" width="14.8221" height="8.35843" rx="4.17921" transform="rotate(35.575 74.4058 6.7207)" fill="#3A3F4F"/>
<rect x="74.5933" y="8.68555" width="2.47334" height="5.04883" rx="1.23667" transform="rotate(39.9108 74.5933 8.68555)" fill="#21283E"/>
<path fill-rule="evenodd" clip-rule="evenodd" d="M19.7238 71.4715C14.3283 55.1972 11.6138 43.4116 17.9063 28.8509C21.1972 21.236 28.0607 16.3101 35.4471 14.4562C45.5246 11.9268 55.6669 10.0073 66.8054 9.79293C75.1883 9.63157 81.2009 14.5587 84.6386 21.9692C91.0814 35.8575 92.1031 47.2895 91.6843 65.68C91.6512 67.1358 91.3814 68.6583 90.7775 70.1603C89.6729 72.9076 88.3542 80.4472 83.4523 87.6925C78.8333 94.5197 73.6404 103.067 63.5958 104.658C57.613 105.606 52.0071 103.879 47.3223 101.351C42.6328 98.8212 38.3924 95.2419 34.8391 91.6776C27.7308 84.5473 22.507 76.5908 21.0436 74.2778C20.4494 73.3387 20.0281 72.3895 19.7238 71.4715ZM24.0804 31.5191C18.8449 43.6338 20.7847 53.2983 26.108 69.3549C26.2634 69.8237 26.4634 70.2644 26.7275 70.6818C29.4616 75.0032 46.388 100.575 62.5431 98.0152C76.6085 95.7864 86.5949 72.7869 88.659 67.6534C88.9318 66.9748 89.0653 66.2601 89.082 65.529C89.4848 47.8414 87.7743 37.4997 81.8837 24.8018C79.5221 19.7109 74.4476 16.4118 68.8367 16.5198C58.3064 16.7225 46.7755 18.5474 37.0845 20.9798C31.3866 22.4099 26.4109 26.1264 24.0804 31.5191Z" fill="#FFD952"/>
<path opacity="0.6" d="M59.2371 12.3436C53.639 12.3443 37.0265 15.7693 33.8016 16.6837C31.0402 17.4667 28.5328 18.878 26.2862 20.5954" stroke="#FFF6D7" stroke-width="3.36297" stroke-linecap="round"/>
<path opacity="0.35" d="M25.5418 47.895C25.1103 42.7581 25.7391 37.8576 28.2075 32.3311C29.8846 28.5763 33.3432 25.9685 37.3518 25.0507C41.6366 24.0696 46.55 23.2507 51.5425 22.5892C58.8709 21.6181 64.6592 28.5078 61.3813 35.1338C56.0919 45.8261 48.721 52.8483 41.446 56.9855C34.4867 60.9431 26.2119 55.8729 25.5418 47.895Z" fill="white"/>
<ellipse rx="16.8063" ry="18.576" transform="matrix(0.959039 -0.283275 0.285537 0.958368 30.4494 84.7342)" fill="#899ABC"/>
<path d="M40.1718 82.7496C42.9743 92.1561 38.7694 101.227 31.4234 103.397C24.0773 105.567 15.5845 100.246 12.782 90.8398C9.9794 81.4334 14.1843 72.3623 21.5304 70.1925C28.8764 68.0227 37.3692 73.3432 40.1718 82.7496Z" fill="#BFDBFD" stroke="#EDF5FF" stroke-width="2.85934"/>
<path opacity="0.8" d="M31.0548 76.7994C32.2978 78.2161 33.3467 79.8612 34.1416 81.6406C35.5064 84.6956 35.9087 88.0304 35.2601 90.9115C34.6115 93.7925 32.9651 95.9837 30.6832 97.0032C28.7418 97.8704 26.4187 97.6697 24.225 96.4451C22.0313 95.2206 20.1466 93.0726 18.9856 90.4736C18.4969 89.3807 18.1738 88.2266 18.0347 87.0771C17.8957 85.9276 17.9434 84.8054 18.1752 83.7744C18.407 82.7434 18.8184 81.824 19.3857 81.0686C19.9531 80.3132 20.6654 79.7367 21.4819 79.372C22.8832 78.746 24.56 78.8909 26.1435 79.7747C27.7269 80.6586 29.0873 82.2091 29.9254 84.0851C30.2794 84.8742 30.514 85.7078 30.6157 86.5384C30.7174 87.3689 30.6842 88.1801 30.5181 88.9257C30.3519 89.6712 30.056 90.3365 29.6472 90.8835C29.2385 91.4306 28.7249 91.8487 28.1358 92.1139C27.6348 92.3385 27.0795 92.4285 26.5017 92.3789C25.9239 92.3292 25.3349 92.1409 24.7684 91.8247C24.202 91.5086 23.6692 91.0707 23.2005 90.5361C22.7318 90.0016 22.3365 89.3809 22.0372 88.7096C21.7819 88.1393 21.6131 87.537 21.5405 86.937C21.4678 86.3371 21.4928 85.7514 21.6139 85.2134C21.735 84.6754 21.9499 84.1957 22.2463 83.8017C22.5427 83.4077 22.9147 83.1073 23.3411 82.9175C23.7033 82.7557 24.1047 82.691 24.5222 82.727C24.9398 82.7631 25.3654 82.8993 25.7747 83.1278C26.184 83.3562 26.569 83.6725 26.9077 84.0586C28.7206 86.1248 26.2509 88.6129 25.1918 86.7361" stroke="#A1C5F0" stroke-width="2.18962" stroke-miterlimit="10" stroke-linecap="round"/>
<ellipse rx="12.8028" ry="17.9091" transform="matrix(-0.90917 -0.416425 -0.250489 0.96812 90.5723 77.4735)" fill="#899ABC"/>
<path d="M85.8368 73.9953C84.6848 78.448 84.7646 82.922 85.7569 86.522C86.7538 90.1384 88.5984 92.674 90.8774 93.7179C93.1565 94.7618 95.7832 94.2742 98.242 92.2405C100.69 90.2161 102.822 86.7555 103.974 82.3029C105.127 77.8502 105.047 73.3762 104.054 69.7762C103.057 66.1597 101.213 63.6242 98.9339 62.5803C96.6548 61.5364 94.0281 62.024 91.5693 64.0577C89.1217 66.0821 86.9889 69.5426 85.8368 73.9953Z" fill="#BFDBFD" stroke="#EDF5FF" stroke-width="2.85934"/>
<ellipse cx="63.4556" cy="69.8104" rx="14.7864" ry="16.1076" transform="rotate(-7.72305 63.4556 69.8104)" fill="#2F354B"/>
<path d="M64.6118 60.2357L62.3361 60.656C60.2306 61.0449 58.279 62.1692 57.0055 63.955C51.7278 71.356 47.1434 82.0183 48.7592 92.9528C49.1994 95.9316 51.145 99.4173 53.2582 102.463C56.7618 107.513 63.1043 109.286 69.1861 107.977L69.5507 107.898C76.5202 106.398 82.1177 100.872 83.8245 93.8064C85.1633 88.2646 84.6843 82.4585 82.2185 77.4833C79.8616 72.7282 77.564 68.698 74.2214 63.9716C72.0668 60.9251 68.3223 59.5504 64.6118 60.2357Z" fill="#414962"/>
<path d="M65.64 64.4L64.7772 64.5735C62.724 64.9865 60.8231 66.0979 59.5902 67.852C55.082 74.2661 51.2652 83.3042 52.6549 92.7081C53.0392 95.3091 54.738 98.3526 56.5831 101.012C59.6423 105.422 65.1801 106.97 70.4904 105.826L70.8088 105.758C76.8941 104.448 81.7815 99.6226 83.2718 93.4535C84.4407 88.6147 84.0225 83.5451 81.8694 79.2011C79.9318 75.2918 78.0401 71.9437 75.3893 68.1209C73.2292 65.0058 69.3994 63.6439 65.64 64.4Z" fill="#2A3045"/>
<path d="M67.6689 68.4205L66.9683 68.5614C65.3012 68.8967 63.763 69.802 62.7234 71.1979C58.8656 76.3778 55.2433 83.4798 60.1806 89.0729C63.3257 92.6359 70.0598 92.5391 75.512 90.1579C81.6507 87.4769 81.896 79.5074 77.9815 74.2478C77.3012 73.3338 76.5632 72.4011 75.7153 71.3371C73.8006 68.9347 70.7215 67.8065 67.6689 68.4205Z" stroke="#4E5B76" stroke-width="1.14374"/>
<path opacity="0.8" d="M92.3965 69.6855C91.7705 70.7635 90.6243 73.2281 90.2789 75.0429C89.6857 78.1586 89.6031 81.0702 90.2739 83.4808C90.9448 85.8915 92.188 87.4107 93.7299 87.7043C95.0417 87.954 96.5002 87.1405 97.7845 85.4428C99.0689 83.7451 100.074 81.3023 100.578 78.6516C100.791 77.5369 100.893 76.4123 100.878 75.3421C100.863 74.2718 100.732 73.2769 100.492 72.4142C100.252 71.5515 99.9082 70.8379 99.4798 70.3141C99.0514 69.7903 98.5469 69.4667 97.9952 69.3617C97.0484 69.1814 95.9956 69.7686 95.0685 70.994C94.1414 72.2194 93.416 73.9827 93.0518 75.896C92.8976 76.7012 92.8233 77.5138 92.8332 78.2874C92.8432 79.0611 92.9371 79.7806 93.1096 80.4049C93.2822 81.0291 93.53 81.546 93.8389 81.9259C94.1478 82.3058 94.5118 82.5413 94.91 82.6189C95.2486 82.684 95.6096 82.6135 95.9724 82.4114C96.3352 82.2094 96.6927 81.8797 97.0243 81.4414C97.356 81.003 97.6553 80.4645 97.9052 79.8567C98.1551 79.2489 98.3506 78.5837 98.4806 77.8992C98.5917 77.3174 98.6449 76.7305 98.6372 76.1719C98.6295 75.6133 98.561 75.094 98.4357 74.6438C98.3104 74.1937 98.1308 73.8214 97.907 73.5484C97.6833 73.2754 97.4199 73.1069 97.1318 73.0527C96.4557 72.9254 95.8388 74.1345 95.6363 75.0169C95.0675 77.4957 96.2996 78.1525 96.5566 76.834" stroke="#A1C5F0" stroke-width="2.00154" stroke-miterlimit="10" stroke-linecap="round"/>
<path d="M64.6045 74.9014C68.5043 75.4885 70.5998 75.5653 73.5891 73.1877" stroke="#131520" stroke-width="1.25811" stroke-linecap="round"/>
<path d="M63.1997 77.2744C68.7116 78.0794 70.8842 78.5102 75.1178 75.1819" stroke="#131520" stroke-width="1.25811" stroke-linecap="round"/>
<path d="M62.1318 80.0557C68.2791 80.9534 71.2864 81.1209 76.0079 77.4091" stroke="#131520" stroke-width="1.25811" stroke-linecap="round"/>
<path d="M61.4282 82.4688C68.4214 83.9806 72.0861 84.1138 76.9144 79.7403" stroke="#131520" stroke-width="1.25811" stroke-linecap="round"/>
<path d="M60.6865 84.8066C66.969 87.0317 72.7856 87.344 77.4663 82.43" stroke="#131520" stroke-width="1.25811" stroke-linecap="round"/>
</g>
</svg>
