<svg width="72" height="54" viewBox="0 0 72 54" fill="none" xmlns="http://www.w3.org/2000/svg">
<path d="M19.2501 9.00533C15.6881 8.85691 12.7832 11.8288 13.0127 15.3864L14.1954 35.7181C14.4093 39.0335 17.2765 41.5439 20.5911 41.3179C24.8766 41.0257 35 39.5454 40 41.0454C45 42.5454 48.5492 46.2167 48.5492 46.2167C49.2596 46.7667 50.2785 46.1737 50.1513 45.2844L49.6089 41.4923C49.4443 40.3412 50.2926 39.2928 51.4527 39.2137L53.4069 39.0805C56.3791 38.8778 58.7526 36.5249 58.981 33.5545L60.1065 16.9238C60.367 13.5375 57.7673 10.6102 54.3739 10.4688L19.2501 9.00533Z" fill="#FF6170"/>
<path fill-rule="evenodd" clip-rule="evenodd" d="M38.1398 17.7684C38.0819 16.6654 37.1409 15.818 36.0378 15.8758C34.9348 15.9336 34.0874 16.8747 34.1452 17.9778L34.3866 22.5826L28.9496 22.8675L28.7082 18.2627C28.6504 17.1597 27.7094 16.3123 26.6063 16.3701C25.5033 16.4279 24.6559 17.369 24.7137 18.4721L25.0593 25.0664L25.0597 25.0741L25.0601 25.0819L25.4057 31.6762C25.4635 32.7792 26.4046 33.6266 27.5077 33.5687C28.6107 33.5109 29.4581 32.5699 29.4002 31.4668L29.1589 26.862L34.5959 26.5771L34.8372 31.1819C34.895 32.2849 35.8361 33.1323 36.9392 33.0745C38.0422 33.0166 38.8896 32.0756 38.8318 30.9725L38.1398 17.7684ZM48.4356 18.9404C48.3778 20.0435 47.4367 20.8908 46.3337 20.833C45.2306 20.7752 44.3833 19.8341 44.4411 18.7311C44.4989 17.628 45.44 16.7807 46.543 16.8385C47.6461 16.8963 48.4934 17.8374 48.4356 18.9404ZM46.1361 22.3541C47.2392 22.4119 48.0865 23.353 48.0287 24.4561L47.6839 31.0353C47.6261 32.1383 46.685 32.9857 45.582 32.9279C44.4789 32.87 43.6316 31.929 43.6894 30.8259L44.0342 24.2467C44.092 23.1437 45.0331 22.2963 46.1361 22.3541Z" fill="#FFEAEF"/>
</svg>
