<svg width="72" height="54" viewBox="0 0 72 54" fill="none" xmlns="http://www.w3.org/2000/svg">
<path d="M15.9562 16.4878L21.6838 17.7805L23.032 11.667L32.9697 18.2518L20.67 22.3776L20.7446 22.0393L18.7602 23.5102L13.7233 30.0554L10.1836 21.842L16.3257 22.1557L15.9562 16.4878Z" fill="#47A458"/>
<path d="M35.8027 14.8516C22.1162 14.8516 10.8997 25.4267 9.87844 38.8516C9.79466 39.953 10.6981 40.8516 11.8027 40.8516H59.8027C60.9072 40.8516 61.8107 39.953 61.7269 38.8516C60.7057 25.4267 49.4891 14.8516 35.8027 14.8516Z" fill="#BCE7F9"/>
<path d="M52.8861 21.251C42.0106 22.7148 33.1505 30.5356 30.168 40.8513H59.8025C60.9071 40.8513 61.8105 39.9527 61.7267 38.8513C61.1934 31.8407 57.8798 25.6072 52.8861 21.251Z" fill="#83CB90"/>
<path d="M34.2565 14.8965C32.0319 24.6918 23.2711 32.0036 12.8025 32.0036C12.319 32.0036 11.8391 31.988 11.3633 31.9573C14.8281 22.4388 23.6954 15.5157 34.2565 14.8965Z" fill="#83CB90"/>
<path d="M57.0898 15.462C57.0898 18.9487 53.8525 23.5002 51.8283 27.4325C50.6718 29.6789 49.7712 31.7233 49.1439 33.2516C48.781 34.1358 47.3987 34.1358 47.0358 33.2516C46.4085 31.7233 45.5078 29.6789 44.3514 27.4325C42.3272 23.5002 39.0898 18.9487 39.0898 15.462C39.0898 10.2385 43.1193 6.00391 48.0898 6.00391C53.0604 6.00391 57.0898 10.2385 57.0898 15.462Z" fill="#6D36AB"/>
<circle cx="48" cy="15" r="5" fill="white"/>
</svg>
