<svg width="72" height="54" viewBox="0 0 49 36" fill="none" xmlns="http://www.w3.org/2000/svg">
<path d="M7.16602 9.66634C7.16602 7.82539 8.6584 6.33301 10.4993 6.33301H38.4993C40.3403 6.33301 41.8327 7.82539 41.8327 9.66634V23.9997C41.8327 25.8406 40.3403 27.333 38.4993 27.333H10.4993C8.6584 27.333 7.16602 25.8406 7.16602 23.9997V9.66634Z" fill="#1BA5E8"/>
<path d="M24.3781 2L38.7172 27.332H10.0391L24.3781 2Z" fill="#8054BA"/>
<path fill-rule="evenodd" clip-rule="evenodd" d="M30.3376 11.3703C31.0199 11.5726 31.3822 12.2117 31.1467 12.7978C30.6295 14.0852 29.7288 16.0789 28.6964 17.8955C28.808 18.3171 28.9049 18.7114 28.9889 19.0538C29.1026 19.5172 29.1855 19.8544 29.2531 20.0722C29.3443 20.366 29.45 20.5196 29.5191 20.592C29.576 20.6517 29.6104 20.6613 29.6349 20.6669C29.7354 20.6898 30.1222 20.7009 30.923 20.2977C31.5458 19.9841 32.3466 20.1636 32.7116 20.6985C33.0767 21.2334 32.8678 21.9212 32.245 22.2347C31.2489 22.7363 30.0866 23.0933 28.9634 22.8368C27.7713 22.5647 27.0947 21.7276 26.766 20.7694C26.2793 21.3473 25.7102 21.8982 25.0687 22.2289C23.4846 23.0453 21.6704 23.1272 20.2222 22.2809C18.8092 21.4552 18.0703 19.9363 18.0703 18.1262C18.0703 16.4816 18.3398 14.841 19.1313 13.5714C19.9731 12.2211 21.4093 11.3089 23.4669 11.3089C25.3086 11.3089 26.4346 12.6086 27.0826 13.6872C27.2541 13.9726 27.412 14.275 27.5577 14.5867C28.0144 13.6369 28.4018 12.7469 28.6756 12.0653C28.9111 11.4792 29.6552 11.168 30.3376 11.3703ZM25.9316 17.6177C25.6243 16.5713 25.2425 15.5208 24.7596 14.7169C24.1651 13.7275 23.7678 13.5556 23.2126 13.5556C22.234 13.5556 21.8797 13.9193 21.4358 14.6313C20.9416 15.4241 20.6844 16.6308 20.6844 18.1262C20.6844 19.4562 21.2158 20.1459 21.6926 20.4245C22.1342 20.6825 22.8295 20.7644 23.7237 20.3036C23.9385 20.1929 24.3009 19.8871 24.7723 19.3024C25.1499 18.8339 25.5417 18.2578 25.9316 17.6177Z" fill="#EDE7F5"/>
</svg>
