<svg width="72" height="54" viewBox="0 0 72 54" fill="none" xmlns="http://www.w3.org/2000/svg">
<path d="M57.5 11.0039H52V41.0039H57.5C59.9853 41.0039 62 38.9892 62 36.5039V31.6625C59.6696 30.8388 58 28.6163 58 26.0039C58 23.3915 59.6696 21.169 62 20.3453V15.5039C62 13.0186 59.9853 11.0039 57.5 11.0039Z" fill="#5EC3EA"/>
<path d="M10 15.5039C10 13.0186 12.0147 11.0039 14.5 11.0039H52V41.0039H14.5C12.0147 41.0039 10 38.9892 10 36.5039V15.5039Z" fill="#8054BA"/>
<path fill-rule="evenodd" clip-rule="evenodd" d="M31.7698 15.3247C31.2775 15.1196 30.7236 15.1196 30.2313 15.3247L16.2313 21.1581C14.2133 21.9989 14.8144 25.0042 17.0005 25.0042H18.0005V31.0042C16.8959 31.0042 16.0005 31.8997 16.0005 33.0042C16.0005 34.1088 16.8959 35.0042 18.0005 35.0042H44.0005C45.1051 35.0042 46.0005 34.1088 46.0005 33.0042C46.0005 31.8997 45.1051 31.0042 44.0005 31.0042V25.0042H45.0005C47.1867 25.0042 47.7878 21.9989 45.7698 21.1581L31.7698 15.3247ZM26.0005 28.0042C26.0005 26.8997 25.1051 26.0042 24.0005 26.0042C22.8959 26.0042 22.0005 26.8997 22.0005 28.0042V31.0042H26.0005V28.0042ZM33.0005 28.0042C33.0005 26.8997 32.1051 26.0042 31.0005 26.0042C29.8959 26.0042 29.0005 26.8997 29.0005 28.0042V31.0042H33.0005V28.0042ZM38.0005 26.0042C39.1051 26.0042 40.0005 26.8997 40.0005 28.0042V31.0042H36.0005V28.0042C36.0005 26.8997 36.8959 26.0042 38.0005 26.0042Z" fill="#EDE7F5"/>
</svg>
