<svg width="72" height="54" viewBox="0 0 72 54" fill="none" xmlns="http://www.w3.org/2000/svg">
<path d="M40 6.50301C40 5.16665 41.6157 4.4974 42.5607 5.44235L44 6.88169L45.4393 5.44235C46.3843 4.4974 48 5.16665 48 6.50301V10.8817H40V6.50301Z" fill="#EA5D6D"/>
<path d="M22 14.8818C22 12.6727 23.7909 10.8818 26 10.8818H56C58.2091 10.8818 60 12.6727 60 14.8818V38.8818C60 41.091 58.2091 42.8818 56 42.8818H26C23.7909 42.8818 22 41.091 22 38.8818V14.8818Z" fill="#6C3BA9"/>
<path d="M22 16.8818C22 15.7773 22.8954 14.8818 24 14.8818H54C55.1046 14.8818 56 15.7773 56 16.8818V36.8818C56 37.9864 55.1046 38.8818 54 38.8818H24C22.8954 38.8818 22 37.9864 22 36.8818V16.8818Z" fill="#EBE0FF"/>
<path d="M12 14.8818C12 12.6727 13.7909 10.8818 16 10.8818H48C50.2091 10.8818 52 12.6727 52 14.8818V38.8818C52 41.091 50.2091 42.8818 48 42.8818H16C13.7909 42.8818 12 41.091 12 38.8818V14.8818Z" fill="#9965F4"/>
<path d="M45.1581 15.7973C42.9805 13.3225 33.4195 16.2731 29.7279 19.7949C26.8874 22.5552 25.8462 26.0769 25.2788 28.6468L24.4268 27.695C23.8586 27.0287 22.912 27.5047 23.0066 28.3613L23.5 32.3818C23.5 32.3818 25.0884 32.8083 26.1308 32.93C30 33.3818 35.5026 33.5011 39.478 29.8842L37.3957 28.2661C36.6383 27.695 37.0166 26.3624 37.9631 26.2673L42.7913 25.7914C44.3061 23.6973 47.5249 18.4623 45.1581 15.7973Z" fill="white"/>
<path d="M38.8385 20.0815C38.6342 19.8706 38.2248 19.7651 38.0206 20.0815C37.9185 20.0815 19.1029 35.1678 19.1029 35.2732C18.4893 35.8004 18.4893 36.7493 18.9999 37.3818C19.5114 38.0145 20.4314 38.0145 21.0451 37.4874C21.0451 37.4874 38.6342 21.1358 38.7364 21.0304C39.0427 20.7141 39.0427 20.2924 38.8385 20.0815Z" fill="#EBE0FF"/>
</svg>
