<svg width="72" height="54" viewBox="0 0 72 54" fill="none" xmlns="http://www.w3.org/2000/svg">
<path d="M10 14.5C10 11.7386 12.2386 9.5 15 9.5H57C59.7614 9.5 62 11.7386 62 14.5V36C62 38.7614 59.7614 41 57 41H15C12.2386 41 10 38.7614 10 36V14.5Z" fill="#1BA5E8"/>
<path d="M10 14.5C10 13.8513 10.1235 13.2314 10.3484 12.6627C11.6412 14.1248 12.9189 15.7688 14.1989 17.4157C18.1066 22.4437 22.0364 27.5 26.4885 27.5C28.0441 27.5 29.542 26.8827 31 25.8651V21.5H35.5559C36.6913 20.1755 37.8129 18.739 38.9305 17.3077C41.2551 14.3303 43.5621 11.3756 45.9383 9.5H57C59.7614 9.5 62 11.7386 62 14.5V36C62 38.7614 59.7614 41 57 41H15C12.2386 41 10 38.7614 10 36V14.5Z" fill="#56C0ED"/>
<path d="M10 28.4307V22.0357C10.1761 22.2106 10.3523 22.3801 10.5285 22.544C12.3969 24.281 13.8863 25 15.1413 25C16.4002 25 17.9032 24.2772 19.7876 22.5379C21.6418 20.8265 23.4819 18.4978 25.4627 15.9613L25.6682 15.6981C27.5244 13.3202 29.5154 10.7696 31.5792 8.81144C33.6769 6.82104 36.2963 5 39.3928 5C42.4691 5 45.1412 6.8011 47.3064 8.77934C49.524 10.8054 51.6771 13.4633 53.671 15.9274L53.7037 15.9678C55.7493 18.4957 57.6338 20.8246 59.4826 22.5447C60.4446 23.4397 61.2782 24.0542 62 24.4446V29.7765C59.74 29.2305 57.747 27.7593 56.0768 26.2053C53.9658 24.2413 51.8918 21.6778 49.952 19.2801L49.7842 19.0726C47.7321 16.5367 45.8207 14.1946 43.9338 12.4707C41.9946 10.6989 40.5223 10 39.3928 10C38.2833 10 36.8752 10.679 35.0207 12.4386C33.2325 14.1353 31.4413 16.429 29.4819 18.9382L29.4035 19.0387C27.4796 21.5022 25.3875 24.1735 23.1788 26.2121C21.0003 28.2228 18.3096 30 15.1413 30C13.2511 30 11.5358 29.3677 10 28.4307Z" fill="#8054BA"/>
<path d="M28 17.5C26.8954 17.5 26 18.3954 26 19.5C26 20.6046 26.8954 21.5 28 21.5H30V29.5C28.8954 29.5 28 30.3954 28 31.5C28 32.6046 28.8954 33.5 30 33.5C32.2091 33.5 34 31.7091 34 29.5V21.5H37V27.5C37 30.8137 39.6863 33.5 43 33.5H44C45.1046 33.5 46 32.6046 46 31.5C46 30.3954 45.1046 29.5 44 29.5H43C41.8954 29.5 41 28.6046 41 27.5V21.5H43C44.1046 21.5 45 20.6046 45 19.5C45 18.3954 44.1046 17.5 43 17.5H28Z" fill="#E1F4FC"/>
</svg>
