<svg width="72" height="54" viewBox="0 0 72 54" fill="none" xmlns="http://www.w3.org/2000/svg">
<path fill-rule="evenodd" clip-rule="evenodd" d="M10 26C10 17.2332 17.7218 11 26.1111 11H39C41.7614 11 44 13.2386 44 16C44 18.7614 41.7614 21 39 21H26.1111C22.2275 21 20 23.7211 20 26C20 28.2789 22.2275 31 26.1111 31H39C41.7614 31 44 33.2386 44 36C44 38.7614 41.7614 41 39 41H26.1111C17.7218 41 10 34.7668 10 26Z" fill="#8054BA"/>
<path fill-rule="evenodd" clip-rule="evenodd" d="M10 26C10 17.2332 17.7218 11 26.1111 11H39C41.7614 11 44 13.2386 44 16C44 18.7614 41.7614 21 39 21H26.1111C22.2275 21 20 23.7211 20 26H10Z" fill="#FF6170"/>
<path fill-rule="evenodd" clip-rule="evenodd" d="M39 21H35V11H39C41.7614 11 44 13.2386 44 16C44 18.7614 41.7614 21 39 21Z" fill="#FFC9D4"/>
<path fill-rule="evenodd" clip-rule="evenodd" d="M39 41H35V31H39C41.7614 31 44 33.2386 44 36C44 38.7614 41.7614 41 39 41Z" fill="#D1C3E6"/>
<path fill-rule="evenodd" clip-rule="evenodd" d="M46 13C46 11.8954 46.8954 11 48 11C56.2843 11 63 17.7157 63 26C63 34.2843 56.2843 41 48 41C46.8954 41 46 40.1046 46 39C46 37.8954 46.8954 37 48 37C54.0751 37 59 32.0751 59 26C59 19.9249 54.0751 15 48 15C46.8954 15 46 14.1046 46 13Z" fill="#5EC3EA"/>
<path fill-rule="evenodd" clip-rule="evenodd" d="M46 20C46 18.8954 46.8954 18 48 18C52.4183 18 56 21.5817 56 26C56 30.4183 52.4183 34 48 34C46.8954 34 46 33.1046 46 32C46 30.8954 46.8954 30 48 30C50.2091 30 52 28.2091 52 26C52 23.7909 50.2091 22 48 22C46.8954 22 46 21.1046 46 20Z" fill="#5EC3EA"/>
</svg>
