<?xml version="1.0"?>
<svg xmlns="http://www.w3.org/2000/svg" viewBox="0 0 112 112" fill="none">
<path d="M48.6 87.3061C47.7008 87.4652 46.8457 86.8565 46.7016 85.9548L45.728 79.8636C45.6512 79.383 45.9548 78.9235 46.427 78.8055C48.6808 78.2426 51.0525 79.0849 52.4463 80.9434L59.672 90.5775C61.1586 92.5596 63.6337 93.5371 66.0734 93.1055L70.508 92.3212C70.5406 92.3154 70.5741 92.3165 70.6062 92.3243C70.854 92.3849 70.8468 92.7397 70.5967 92.7901L58.183 95.2896C57.0704 95.5136 55.9257 95.0976 55.2165 94.2115L50.1605 87.8942C49.787 87.4276 49.1885 87.202 48.6 87.3061Z" fill="#C63B3B"/>
<path d="M103.091 90.254C103.978 95.2689 102.013 99.809 98.7017 100.395C95.3905 100.98 92.5069 96.9857 91.6199 91.9709C90.7329 86.956 92.1784 82.82 95.4896 82.2343C98.8009 81.6486 102.204 85.2392 103.091 90.254Z" fill="#FFD644"/>
<rect x="95.2041" y="82.2852" width="3.47917" height="18.4423" transform="rotate(-10.0304 95.2041 82.2852)" fill="#FFD644"/>
<ellipse cx="100.24" cy="90.7592" rx="5.79862" ry="9.22113" transform="rotate(-10.0304 100.24 90.7592)" fill="#FFD644"/>
<ellipse cx="100.526" cy="90.7049" rx="4.34897" ry="7.37691" transform="rotate(-10.0304 100.526 90.7049)" fill="#BA803C"/>
<ellipse cx="100.236" cy="90.7622" rx="2.89931" ry="4.30319" transform="rotate(-10.0304 100.236 90.7622)" fill="#915F26"/>
<path d="M91.9044 81.4587C90.3527 82.6316 87.9505 85.5503 88.7085 92.1398L92.4155 91.4841C91.6609 87.2177 92.654 84.3622 93.794 82.5963C94.9788 80.761 97.1691 80.0438 99.3202 79.6633L94.501 80.5157C93.5798 80.6787 92.6507 80.8946 91.9044 81.4587Z" fill="#372A89" stroke="#372A89" stroke-width="2.54508" stroke-linecap="round" stroke-linejoin="round"/>
<path d="M55.8391 98.186C55.5666 96.6454 56.5946 95.1756 58.1353 94.9031L98.2993 87.7991C99.84 87.5266 101.31 88.5546 101.582 90.0953C101.855 91.6359 100.827 93.1057 99.2861 93.3782L59.1221 100.482C57.5814 100.755 56.1116 99.7267 55.8391 98.186Z" fill="#CF3D3D"/>
<rect x="51.3242" y="95.9424" width="9.93673" height="5.99297" rx="2.99648" transform="rotate(-10.0304 51.3242 95.9424)" fill="#B72E2E"/>
<rect x="40.0459" y="69.481" width="4.43719" height="26.2534" rx="1.84883" transform="rotate(-10.0304 40.0459 69.481)" fill="#342D5E"/>
<rect x="5.93848" y="14.1802" width="16.027" height="8.01348" rx="2.17643" transform="rotate(-10.0304 5.93848 14.1802)" fill="#FFD644"/>
<ellipse cx="8.04186" cy="17.8743" rx="2.57576" ry="4.00674" transform="rotate(-10.0304 8.04186 17.8743)" fill="#FFD644"/>
<ellipse cx="20.4423" cy="15.6829" rx="2.57576" ry="4.00674" transform="rotate(-10.0304 20.4423 15.6829)" fill="#FFD644"/>
<rect x="8.02441" y="14.8286" width="8.15652" height="3.026" rx="1.513" transform="rotate(-10.0304 8.02441 14.8286)" fill="#FFF06B"/>
<ellipse cx="9.00553" cy="16.1893" rx="1.31087" ry="1.513" transform="rotate(-10.0304 9.00553 16.1893)" fill="#FFF06B"/>
<ellipse cx="15.317" cy="15.0731" rx="1.31087" ry="1.513" transform="rotate(-10.0304 15.317 15.0731)" fill="#FFF06B"/>
<path d="M31.5681 32.1126C31.3903 31.1071 32.0612 30.1478 33.0667 29.97L37.39 29.2053C38.3955 29.0274 39.3548 29.6984 39.5326 30.7038L47.1487 73.7631C47.3265 74.7686 46.6556 75.7279 45.6501 75.9057L41.3268 76.6704C40.3213 76.8482 39.362 76.1773 39.1842 75.1718L31.5681 32.1126Z" fill="#372A89"/>
<path d="M32.9036 34.9536C32.7379 34.0165 33.3632 33.1225 34.3003 32.9567C35.2374 32.791 36.1315 33.4163 36.2973 34.3534L43.0131 72.323C43.1788 73.2601 42.5535 74.1542 41.6164 74.3199C40.6793 74.4857 39.7852 73.8604 39.6195 72.9233L32.9036 34.9536Z" fill="#3844AD"/>
<rect x="39.0781" y="78.9028" width="9.59349" height="11.1136" rx="1.84883" transform="rotate(-10.0304 39.0781 78.9028)" fill="#DE4747"/>
<rect x="40.1836" y="80.0776" width="4.66483" height="7.67838" rx="1.84883" transform="rotate(-10.0304 40.1836 80.0776)" fill="#EC5C53"/>
<path d="M47.2716 91.1137C47.1983 89.8579 46.0458 88.9473 44.8071 89.1664L43.1112 89.4664C41.0498 89.831 39.7861 91.9333 40.4314 93.9248L42.7906 101.206C43.1634 102.356 44.3273 103.056 45.5183 102.845C46.6981 102.637 47.5484 101.597 47.5189 100.399L47.304 91.6668L47.2716 91.1137Z" fill="#3E3098"/>
<path d="M51.9177 99.3177C52.7968 104.288 50.8491 108.788 47.5673 109.368C44.2855 109.949 41.4276 105.989 40.5485 101.019C39.6694 96.049 41.102 91.9498 44.3838 91.3693C47.6655 90.7888 51.0386 94.3475 51.9177 99.3177Z" fill="#FFD644"/>
<rect x="44.1016" y="91.4199" width="3.44822" height="18.2782" transform="rotate(-10.0304 44.1016 91.4199)" fill="#FFD644"/>
<ellipse cx="49.0927" cy="99.8183" rx="5.74703" ry="9.13909" transform="rotate(-10.0304 49.0927 99.8183)" fill="#FFD644"/>
<ellipse cx="49.3762" cy="99.7696" rx="4.31027" ry="7.31127" transform="rotate(-10.0304 49.3762 99.7696)" fill="#BA803C"/>
<ellipse cx="49.089" cy="99.8213" rx="2.87351" ry="4.26491" transform="rotate(-10.0304 49.089 99.8213)" fill="#915F26"/>
<path d="M44.1515 101.386C43.8403 99.0497 43.9782 97.1998 44.2452 95.8932C44.4091 95.0912 43.6715 94.1601 42.8654 94.3027C42.2397 94.4134 41.6941 94.8213 41.5085 95.429C40.8735 97.5082 41.0741 99.7523 41.3648 101.243C41.5426 102.155 42.4338 102.672 43.3485 102.51C43.8739 102.417 44.2219 101.915 44.1515 101.386Z" fill="#FFEF60"/>
<path d="M42.9268 89.7766C43.0858 89.571 43.3156 89.432 43.5716 89.3867L48.0392 88.5965C50.1006 88.2319 52.0087 89.7732 52.0857 91.8652L52.3642 99.4337C52.4104 100.688 51.5246 101.785 50.2885 102.003C48.9519 102.24 47.6688 101.373 47.3889 100.045L45.7938 92.4759C45.6397 91.7449 44.9334 91.2679 44.1977 91.398L43.9355 91.4444C42.9951 91.6107 42.3428 90.5323 42.9268 89.7766Z" fill="#3E3098"/>
<path fill-rule="evenodd" clip-rule="evenodd" d="M19.0384 15.9381C18.8171 14.687 19.0856 13.5936 20.3366 13.3724L21.0679 13.243C23.8293 12.7546 26.6118 13.9857 28.1075 16.3578L34.7915 28.906L36.8871 14.7485C37.4975 12.0339 39.6784 9.9513 42.4183 9.46669L51.6728 7.82979C52.9239 7.60851 54.1175 8.44332 54.3388 9.69439C54.56 10.9455 53.7252 12.139 52.4742 12.3603L43.2196 13.9972C42.3063 14.1588 41.5793 14.8529 41.3759 15.7578L39.2803 29.9154C38.3802 33.918 33.0879 34.8303 30.8997 31.36L24.2158 18.8118C23.7172 18.0211 22.7897 17.6107 21.8692 17.7735L21.138 17.9029C19.8869 18.1242 19.2596 17.1892 19.0384 15.9381Z" fill="#372A89"/>
<path d="M27.9551 19.166L38.5144 17.2983" stroke="#372A89" stroke-width="4.55313"/>
<rect x="41.625" y="7.56494" width="17.2323" height="8.61614" rx="2.34011" transform="rotate(-10.0304 41.625 7.56494)" fill="#FFD644"/>
<ellipse cx="43.8847" cy="11.5367" rx="2.76947" ry="4.30807" transform="rotate(-10.0304 43.8847 11.5367)" fill="#FFD644"/>
<ellipse cx="57.2255" cy="9.17734" rx="2.76947" ry="4.30807" transform="rotate(-10.0304 57.2255 9.17734)" fill="#FFD644"/>
<ellipse cx="57.2173" cy="9.17861" rx="1.5386" ry="2.46175" transform="rotate(-10.0304 57.2173 9.17861)" fill="#342D5D"/>
<rect x="44.0176" y="8.23193" width="8.29096" height="3.25682" rx="1.62841" transform="rotate(-10.0304 44.0176 8.23193)" fill="#FFF06B"/>
<ellipse cx="45.0283" cy="9.70494" rx="1.33248" ry="1.62841" transform="rotate(-10.0304 45.0283 9.70494)" fill="#FFF06B"/>
<ellipse cx="51.4434" cy="8.5731" rx="1.33248" ry="1.62841" transform="rotate(-10.0304 51.4434 8.5731)" fill="#FFF06B"/>
</svg>
