<svg width="72" height="54" viewBox="0 0 24 24" fill="none" xmlns="http://www.w3.org/2000/svg">
<path fill-rule="evenodd" clip-rule="evenodd" d="M6 4C4.89543 4 4 4.89543 4 6V14C4 15.1046 4.89543 16 6 16H18C19.1046 16 20 15.1046 20 14V6C20 4.89543 19.1046 4 18 4H6ZM21 18H3C3 19.1046 3.89543 20 5 20H19C20.1046 20 21 19.1046 21 18Z" fill="#6161E3"/>
<path d="M7 8C7 7.44772 7.44772 7 8 7H16C16.5523 7 17 7.44772 17 8C17 8.55228 16.5523 9 16 9H8C7.44772 9 7 8.55228 7 8Z" fill="white"/>
<path d="M11 12C11 11.4477 11.4477 11 12 11H16C16.5523 11 17 11.4477 17 12C17 12.5523 16.5523 13 16 13H12C11.4477 13 11 12.5523 11 12Z" fill="#FFCE61"/>
<path d="M7 12C7 11.4477 7.44772 11 8 11H8.5C9.05228 11 9.5 11.4477 9.5 12C9.5 12.5523 9.05228 13 8.5 13H8C7.44772 13 7 12.5523 7 12Z" fill="white"/>
</svg>
