<svg width="72" height="54" viewBox="0 0 72 54" fill="none" xmlns="http://www.w3.org/2000/svg">
<path d="M20 10C14.4772 10 10 14.4772 10 20V30C10 35.5228 14.4772 40 20 40H24.6933L22.6808 47.4723C22.4421 48.3587 23.4237 49.0715 24.1926 48.57L37.3333 40H52C57.5228 40 62 35.5228 62 30V20C62 14.4772 57.5228 10 52 10H20Z" fill="#8054BA"/>
<path d="M10 24.6459V20.3112C10.7004 19.9825 11.4366 19.5978 12.2284 19.184C12.6972 18.9391 13.1855 18.6839 13.6974 18.4241C15.269 17.6266 17.0785 16.7801 18.7802 16.477C20.5617 16.1598 22.665 16.387 24.1 18.3002C24.7416 19.1558 24.9857 20.1372 24.8426 21.1302C24.712 22.0366 24.2804 22.8096 23.852 23.4104C23.1595 24.3815 22.1146 25.3689 21.2354 26.1997C21.0705 26.3555 20.9115 26.5058 20.7617 26.6494C19.665 27.701 18.956 28.4861 18.6669 29.1295C18.5468 29.3967 18.5569 29.5211 18.5645 29.566C18.5708 29.6038 18.6057 29.7775 18.9142 30.086C19.109 30.2808 19.4362 30.4564 20.2561 30.2789C21.1217 30.0914 22.2201 29.5544 23.4251 28.7241C25.8452 27.0563 28.049 24.6642 28.7978 23.4502C29.3777 22.5101 30.6099 22.2182 31.55 22.7981C32.4901 23.378 32.7821 24.6102 32.2022 25.5503C31.1089 27.3226 28.4804 30.0982 25.6949 32.0177C24.2971 32.981 22.6993 33.8425 21.1026 34.1883C19.4601 34.5439 17.5587 34.3874 16.0858 32.9145C15.3231 32.1517 14.7927 31.2563 14.6199 30.2298C14.4484 29.2103 14.6655 28.275 15.0184 27.4898C15.6752 26.0284 16.9762 24.7375 17.9932 23.7623C18.1958 23.5681 18.3902 23.3834 18.5762 23.2068C19.4597 22.3678 20.1502 21.7121 20.5952 21.0881C20.7134 20.9222 20.7882 20.7922 20.8333 20.6954C20.8422 20.6763 20.8496 20.6592 20.8557 20.6443C20.675 20.4298 20.3786 20.2553 19.4815 20.4151C18.4276 20.6028 17.095 21.1855 15.5075 21.9911C15.1044 22.1957 14.6806 22.4171 14.2467 22.6438C13.1008 23.2425 11.8848 23.8777 10.7971 24.3345C10.5365 24.4439 10.27 24.5492 10 24.6459Z" fill="#AB8ED2"/>
<path fill-rule="evenodd" clip-rule="evenodd" d="M62.0005 23.5947V29.3705C60.2323 30.9297 58.4254 32.0678 56.6852 32.8263C53.4746 34.2257 50.1261 34.4607 47.8429 33.0621C45.9465 31.9004 44.9614 30.2226 44.6617 28.4212C42.4074 27.8463 40.3553 26.4394 39.1847 23.9036C38.7217 22.9008 39.1593 21.7125 40.1622 21.2495C41.165 20.7865 42.3533 21.2242 42.8163 22.227C43.305 23.2854 44.0602 23.9601 45.0186 24.3424C45.4066 23.0998 46.0115 21.9168 46.7157 20.878C47.917 19.1058 49.5665 17.5177 51.3579 16.6633C53.1677 15.8001 55.5665 15.5442 57.4164 17.379C58.333 18.288 58.875 19.4061 58.9092 20.6468C58.9422 21.8441 58.4963 22.9204 57.8923 23.7972C56.7098 25.5136 54.6506 26.8802 52.4881 27.7225C51.3738 28.1565 50.1547 28.482 48.9068 28.6375C49.1265 29.0238 49.4598 29.3617 49.9324 29.6512C50.6127 30.068 52.4282 30.3184 55.0869 29.1595C57.2164 28.2313 59.6692 26.4711 62.0005 23.5947ZM51.0363 23.9953C50.4432 24.2263 49.833 24.4076 49.2254 24.5333C49.4435 24.0615 49.7121 23.5865 50.0267 23.1224C50.944 21.7691 52.0926 20.7445 53.0798 20.2737C54.0485 19.8117 54.4089 20.0298 54.5996 20.219C54.8924 20.5094 54.9087 20.6849 54.9107 20.7569C54.9139 20.8724 54.8737 21.1282 54.5983 21.5278C54.0221 22.3643 52.749 23.3282 51.0363 23.9953Z" fill="#AB8ED2"/>
<path fill-rule="evenodd" clip-rule="evenodd" d="M32.4736 18.2999C34.0372 16.9909 36.1379 16.0346 38.4372 16.5487C41.0217 17.1265 42.4212 19.0275 42.8709 21.1691C43.2956 23.1921 42.9149 25.4736 42.1302 27.4699C41.3397 29.4808 40.0436 31.4488 38.3532 32.7969C36.6357 34.1664 34.3613 34.9881 31.8851 34.2373C29.4295 33.4928 28.1728 31.5832 27.8341 29.4795C27.5147 27.4954 27.9786 25.3095 28.7947 23.405C29.6187 21.4822 30.8973 19.6196 32.4736 18.2999ZM31.7833 28.8438C31.9241 29.7188 32.3073 30.1855 33.0456 30.4094C33.9251 30.676 34.8601 30.4663 35.8593 29.6695C36.8855 28.8512 37.8133 27.5179 38.4075 26.0065C39.0074 24.4805 39.172 23.0186 38.9563 21.991C38.7654 21.0822 38.3387 20.6254 37.5644 20.4523C36.9243 20.3092 36.0649 20.5101 35.0413 21.367C34.0305 22.2132 33.0949 23.5253 32.4714 24.9805C31.84 26.4539 31.6231 27.8491 31.7833 28.8438Z" fill="#EDE7F5"/>
<path fill-rule="evenodd" clip-rule="evenodd" d="M43.8949 5.21158C44.8828 5.70556 45.2833 6.90691 44.7893 7.89487L42.7893 11.8949C42.2953 12.8828 41.094 13.2833 40.106 12.7893C39.1181 12.2953 38.7176 11.094 39.2116 10.106L41.2116 6.10601C41.7056 5.11805 42.9069 4.71761 43.8949 5.21158Z" fill="#FF9800"/>
</svg>
