<svg width="72" height="54" viewBox="0 0 72 54" fill="none" xmlns="http://www.w3.org/2000/svg">
<rect x="7" y="11" width="58" height="30" rx="15" fill="#C4ECFD"/>
<path d="M22.0009 40.9999H34.3776C34.0551 40.3383 33.7682 39.7514 33.5708 39.3478C33.4196 39.0385 33.3207 38.8362 33.2992 38.7914C32.9524 38.0699 30.3328 37.1051 30.3328 37.1051C29.3883 36.753 28.4448 36.4149 27.5026 36.0772C26.4648 35.7053 25.4278 35.3336 24.3927 34.9445L24.3921 34.9435L24.5322 32.8065C26.7995 31.5655 28.7938 28.9167 28.8248 25.1673C28.8251 25.1381 28.8252 25.1088 28.8252 25.0795C28.8252 24.9866 28.8245 24.8931 28.8231 24.801C28.7528 20.2223 26.9242 16.5557 21.6473 16.5557C16.2907 16.5557 14.4873 20.3339 14.4695 25.0091L14.4693 25.0785C14.4693 29.0004 16.6122 31.7318 18.9899 32.9259L19.1324 35.0901C18.7594 35.2303 18.3917 35.3638 18.0264 35.4964C17.3026 35.7592 16.5878 36.0187 15.858 36.3213C15.858 36.3213 14.5712 36.7586 13.7735 37.105C13.3826 37.2748 12.9659 37.4672 12.5664 37.6619C15.1435 39.7494 18.4262 40.9999 22.0009 40.9999Z" fill="#86D2F3"/>
<path d="M50.001 40.9999C53.0018 40.9999 55.7967 40.1187 58.1413 38.601C57.6937 37.8773 57.2161 37.4268 56.5012 37C55.1763 36.2091 53.764 35.5948 51.4718 34.7608L51.4779 34.6578C53.9452 34.4491 56.1985 33.8572 57.4173 32.8822C58.6579 31.8896 58.3582 27.7186 57.3915 24.442C57.1366 23.5779 56.8547 22.7891 56.5409 22.0755C56.049 20.6199 55.2429 19.2789 53.9396 18.446C52.7299 17.4834 51.2479 17.002 49.415 17.002C44.5146 17.0019 42.7777 21.7164 41.8942 24.442C40.8408 27.6917 40.2343 31.7965 41.5371 32.8822C42.6202 33.7847 44.6061 34.359 46.8441 34.6049L46.8494 34.6959L41.4211 36.6715C40.5125 37.0908 39.8313 37.4767 39.2415 37.9377C38.3325 38.6481 37.6406 39.5367 36.6675 40.9999H50.001Z" fill="#86D2F3"/>
<circle cx="36" cy="26" r="15" fill="#FF6170"/>
<path d="M25.8672 37.0604C26.5105 36.7006 27.4049 36.2654 28.1936 35.9229C28.9885 35.5777 30.2708 35.1419 30.2708 35.1419C30.9979 34.8404 31.7101 34.5819 32.4314 34.32C32.7952 34.188 33.1621 34.0548 33.5336 33.9151L33.3922 31.7588C31.0226 30.5692 28.8869 27.8473 28.8869 23.9389C28.8869 19.248 30.675 15.4453 36.0393 15.4453C41.4037 15.4453 43.1918 19.248 43.1918 23.9389C43.1918 27.7212 41.1916 30.3924 38.9149 31.6389L38.7752 33.77C39.7474 34.1355 41.4421 34.8954 43.1467 35.6597C44.2159 36.1391 45.2894 36.6204 46.1905 37.0071C43.515 39.4853 39.9344 41.0001 35.9999 41.0001C32.0937 41.0001 28.5363 39.507 25.8672 37.0604Z" fill="#FFEAEF"/>
<path d="M33.8052 19.4669L28.9219 22.8472C29.1915 18.671 31.0982 15.4434 36.0403 15.4434C40.3212 15.4434 42.3246 17.8651 42.9592 21.2273C42.1457 21.879 41.0518 22.4368 39.6165 22.5961C35.1735 23.0893 33.8052 19.4669 33.8052 19.4669Z" fill="#370612"/>
<path d="M36.0006 40.9995C40.0859 40.9995 43.7898 39.3664 46.4949 36.7173C45.6605 36.2769 44.695 35.9213 44.695 35.9213C43.7538 35.5704 42.8133 35.2333 41.8743 34.8968C41.3931 34.7244 40.9119 34.552 40.4314 34.3779C40.1483 34.8876 39.0344 36.4549 36.0397 36.4549C33.6808 36.4549 32.4889 35.288 31.9507 34.4936C31.3925 34.6977 30.8366 34.906 30.2716 35.1402C30.2716 35.1402 28.9893 35.576 28.1945 35.9212C27.4054 36.2639 26.5105 36.6993 25.8672 37.0592C28.5364 39.5062 32.0941 40.9995 36.0006 40.9995Z" fill="#370612"/>
</svg>
