<?xml version="1.0" encoding="utf-8"?>
<svg width="80" height="80" viewBox="0 0 80 80" fill="none" xmlns="http://www.w3.org/2000/svg">
<mask id="mask0" mask-type="alpha" maskUnits="userSpaceOnUse" x="0" y="0" width="80" height="80">
<circle cx="40" cy="40" r="40" fill="#C4C4C4"/>
</mask>
<g mask="url(#mask0)">
<circle cx="40" cy="40" r="40" fill="#60C5E3"/>
<path d="M53.5898 51.6934L53.3701 57.2732L50.069 52.8208L53.5898 51.6934Z" fill="white"/>
<path d="M48.9321 52.4805L47.026 57.7307L45.2345 52.4805H48.9321Z" fill="white"/>
<path d="M42.0864 51.0621L37.8967 54.7549L38.8426 49.3184L42.0864 51.0621Z" fill="white"/>
<path d="M29.4262 54.3245L34.7959 52.791L31.5951 57.3199L29.4262 54.3245Z" fill="white"/>
<path d="M37.8013 58.5004L42.1772 55.0273L40.9495 59.9193L37.8013 58.5004Z" fill="white"/>
<path d="M-182.891 40.8408C-194.733 36.7372 -191.346 16.0085 -208 8.18808C-208 8.18808 -188.308 3.97451 -172.897 24.8608C-167.517 32.151 -160.815 35.1033 -152.951 35.1033L-156.697 29.9104C-148.446 29.5139 -144.367 35.046 -144.367 35.046C-106.038 35.3231 -75.865 18.722 -29.339 14.4989C32.1112 8.92856 75.9954 27.5791 65.6526 41.567L19.4514 46.1866L2.70224 72.777L-98.3852 65.0282C-98.3852 65.0282 -122.09 57.3607 -134.931 52.4449C-145.241 48.4941 -154.767 45.3363 -159.969 45.3363C-166.839 45.3363 -169.705 57.4037 -178.558 64.1922C-190.821 73.5939 -205.931 69.5714 -205.931 69.5714C-184.591 57.0693 -182.891 40.8408 -182.891 40.8408Z" fill="#4E5BCA"/>
<path d="M32.7712 38.2712C30.3253 38.2712 28.3426 36.2884 28.3426 33.8426C28.3426 31.3968 30.3253 29.4141 32.7712 29.4141C35.217 29.4141 37.1997 31.3968 37.1997 33.8426C37.1997 36.2884 35.217 38.2712 32.7712 38.2712Z" fill="white"/>
<path d="M32.7704 36.799C31.1372 36.799 29.8133 35.4751 29.8133 33.8419C29.8133 32.2087 31.1372 30.8848 32.7704 30.8848C34.4036 30.8848 35.7275 32.2087 35.7275 33.8419C35.7275 35.4751 34.4036 36.799 32.7704 36.799Z" fill="#04040A"/>
<path d="M31.5861 33.363C30.7523 33.363 30.0765 32.6871 30.0765 31.8534C30.0765 31.0196 30.7523 30.3438 31.5861 30.3438C32.4198 30.3438 33.0957 31.0196 33.0957 31.8534C33.0957 32.6871 32.4198 33.363 31.5861 33.363Z" fill="white"/>
<path d="M56.3223 52.5108C41.4745 54.5125 19.4512 46.1857 19.4512 46.1857C19.4512 46.1857 29.4262 55.8883 43.9969 59.1656C41.2309 61.4826 28.9676 67.4207 17.2489 70.7648C4.67983 74.1806 -6.65667 76.3304 -17.0903 77.4817C-37.2504 79.5407 -54.9646 77.9069 -70.8156 74.5437C-80.6616 72.3509 -90.0729 69.4367 -99.6179 66.2837C-101.835 65.505 -104.013 64.712 -106.158 63.919C-114.365 60.7755 -125.009 56.2419 -134.936 52.4439C-124.914 56.0842 -91.3389 66.0449 -58.1463 65.5815C-28.5701 65.1658 -9.16953 58.406 7.27867 48.3402C19.9337 40.5963 38.6893 34.639 65.6523 41.566C62.7334 46.1809 59.9005 49.6588 56.3223 52.5108Z" fill="#D7E3FF"/>
<path d="M56.6138 40.356C57.3208 39.7923 57.4402 38.7651 56.8765 38.0581C56.3128 37.3511 55.2857 37.2316 54.5787 37.7953C53.8716 38.3591 52.0754 40.719 52.6391 41.4261C53.2028 42.1331 55.9067 40.9197 56.6138 40.356Z" fill="#344792"/>
<path d="M21.5204 38.0541C27.1146 36.2674 33.4732 35.0778 40.6582 34.8867L33.5592 38.7611L21.5204 38.0541Z" fill="#4E5BCA"/>
</g>
</svg>
