<?xml version="1.0" encoding="utf-8"?>
<svg width="80" height="80" viewBox="0 0 80 80" fill="none" xmlns="http://www.w3.org/2000/svg">
<mask id="mask0" mask-type="alpha" maskUnits="userSpaceOnUse" x="0" y="0" width="80" height="80">
<circle cx="40" cy="40" r="40" fill="#C4C4C4"/>
</mask>
<g mask="url(#mask0)">
<circle cx="40" cy="40" r="40" fill="#59D1B8"/>
<path d="M67.0918 66.9097C63.4784 59.561 69.5239 41.4116 62.6939 25.1539C58.8888 16.0966 50.2456 11.3326 40.3428 11.2018C30.113 11.0624 20.4368 16.4845 17.0589 26.1215C11.2227 42.7628 17.1199 59.561 13.5066 66.9097C11.7806 70.4184 8.67285 71.2509 8.67285 71.2509C8.67285 71.2509 11.9811 85.2911 17.3422 83.8659C18.6977 83.5041 19.5782 82.9505 20.1492 82.3578C20.1492 82.3578 27.2363 89.6062 40.3035 89.6062C53.3707 89.6062 60.4579 82.3578 60.4579 82.3578C61.0289 82.9505 61.905 83.5084 63.2649 83.8659C68.626 85.2911 71.9342 71.2509 71.9342 71.2509C71.9342 71.2509 68.8178 70.4184 67.0918 66.9097Z" fill="#723B2A"/>
<path d="M70.7399 86.3793C68.7393 80.8656 53.1441 70.1172 53.1441 70.1172L51.0127 80.9397L62.6939 89.4652C62.6939 89.4652 61.9965 98.4179 58.6708 102.036L61.0986 105.662L63.644 106.786C63.644 106.791 73.342 93.558 70.7399 86.3793Z" fill="#FCB483"/>
<path d="M44.1615 67.6677L44.9896 60.4062H40.291H40.2779H35.5793L36.39 67.6983L27.542 70.1173L28.8104 100.052H51.7848L53.1447 70.1173L44.1615 67.6677Z" fill="#FCB483"/>
<path d="M27.5418 70.1172C27.5418 70.1172 11.9422 80.8656 9.94593 86.3793C7.34382 93.558 17.0418 106.791 17.0418 106.791L19.5873 105.666L22.015 102.04C18.685 98.4222 17.992 89.4696 17.992 89.4696L29.6732 80.9441L27.5418 70.1172Z" fill="#FCB483"/>
<path d="M44.5234 64.5077L44.3446 66.0507C43.2768 66.5607 41.8123 67.0357 40.2824 67.0357C38.7656 67.0357 37.2793 66.6435 36.2158 66.1422L36.0327 64.499C36.0327 64.499 36.9262 60.4062 40.2824 60.4062C43.6385 60.4062 44.5234 64.5077 44.5234 64.5077Z" fill="#E29C6D"/>
<path d="M54.6479 43.6443C54.6479 43.6443 58.1217 39.5123 61.151 41.1425C64.1803 42.7726 64.9517 48.7003 60.2182 52.0957C56.5831 54.7022 53.6934 53.7259 53.6934 53.7259L54.6479 43.6443Z" fill="#E29C6D"/>
<path d="M25.9637 43.6443C25.9637 43.6443 22.4899 39.5123 19.4606 41.1425C16.4313 42.7726 15.6599 48.7003 20.3933 52.0957C24.0285 54.7022 26.9182 53.7259 26.9182 53.7259L25.9637 43.6443Z" fill="#E29C6D"/>
<path d="M40.3425 19.8105C33.142 19.8105 21.4783 23.7682 22.7423 37.8553C23.2915 43.9705 23.0997 47.8453 23.6532 50.7831C25.6408 61.3659 36.8469 65.2102 40.312 65.2407C40.3207 65.2407 40.3338 65.2407 40.3425 65.2407C40.3512 65.2407 40.3643 65.2407 40.373 65.2407C43.8381 65.2102 55.0442 61.3615 57.0317 50.7831C57.5853 47.8453 57.3935 43.9705 57.9427 37.8553C59.2067 23.7726 47.543 19.8105 40.3425 19.8105Z" fill="#FCB483"/>
<path d="M29.0322 37.737C29.0322 37.737 30.5447 35.5228 33.125 36.3814C34.28 36.765 34.1493 37.9026 34.1493 37.9026C31.7172 36.8958 29.0322 37.737 29.0322 37.737Z" fill="#723B2A"/>
<path d="M51.7323 37.737C51.7323 37.737 50.2199 35.5228 47.6396 36.3814C46.4845 36.765 46.6153 37.9026 46.6153 37.9026C49.0474 36.8958 51.7323 37.737 51.7323 37.737Z" fill="#723B2A"/>
<path d="M26.7003 41.8742C26.6087 42.0224 26.539 42.1837 26.4823 42.3537C25.7283 42.7852 25.1094 42.4583 25.1094 42.4583C25.1094 42.4583 25.1617 43.5697 26.3777 43.6569C26.5216 44.7117 27.1754 45.7752 28.3522 46.2111L33.6567 41.4078C32.5801 39.8867 28.4481 39.028 26.7003 41.8742Z" fill="#212121"/>
<path d="M36.0189 45.6615C36.0189 45.6615 34.0009 47.3222 31.1547 47.1871C28.801 47.0737 27.9642 45.8402 27.9642 45.8402C26.1117 43.4473 27.646 40.9324 30.3658 40.5532C32.5102 40.2525 35.5656 41.3901 36.0189 45.6615Z" fill="white"/>
<path d="M34.206 43.6575C33.9357 42.3978 32.6456 41.5915 31.3206 41.8573C31.3162 41.8573 31.3075 41.8617 31.3031 41.8617C31.4731 42.0317 31.5951 42.2453 31.6474 42.4893C31.7956 43.1824 31.338 43.858 30.6232 44.0018C30.1699 44.0933 29.7253 43.9451 29.4245 43.6487C29.3548 43.9582 29.3461 44.2851 29.4158 44.612C29.6861 45.8716 30.9762 46.678 32.3012 46.4121C33.6219 46.1506 34.4762 44.9171 34.206 43.6575Z" fill="#212121"/>
<path d="M55.5766 42.4891C55.5766 42.4891 54.9577 42.8159 54.2037 42.3801C54.147 42.2101 54.0773 42.0488 53.9901 41.905C52.2379 39.0588 48.1059 39.9175 47.0337 41.443L52.3382 46.2462C53.5194 45.8103 54.1731 44.7425 54.3126 43.692C55.5243 43.6005 55.5766 42.4891 55.5766 42.4891Z" fill="#212121"/>
<path d="M44.667 45.6929C44.667 45.6929 46.685 47.3535 49.5312 47.2184C51.8849 47.1051 52.7218 45.8716 52.7218 45.8716C54.5742 43.4787 53.0399 40.9638 50.3202 40.5846C48.1757 40.2838 45.1159 41.4171 44.667 45.6929Z" fill="white"/>
<path d="M51.2699 43.6848C50.9997 42.4251 49.7095 41.6188 48.3845 41.8847C48.3802 41.8847 48.3714 41.889 48.3671 41.889C48.5371 42.059 48.6591 42.2726 48.7114 42.5167C48.8596 43.2097 48.402 43.8853 47.6871 44.0291C47.2338 44.1207 46.7893 43.9725 46.4885 43.6761C46.4188 43.9855 46.4101 44.3124 46.4798 44.6393C46.75 45.899 48.0402 46.7053 49.3652 46.4395C50.6859 46.1779 51.5402 44.9444 51.2699 43.6848Z" fill="#212121"/>
<path d="M39.022 51.7107C39.022 51.7107 41.6633 52.4081 42.6614 50.6036C43.7511 48.6335 41.0182 46.4629 41.0182 46.4629C41.0182 46.4629 42.4348 48.7119 41.5282 50.2854C40.87 51.423 39.022 51.7107 39.022 51.7107Z" fill="#C97D5B"/>
<path d="M40.0725 18.6426C65.3047 18.6426 58.4137 39.6469 58.4137 39.6469C54.8222 31.8057 41.4673 32.5597 38.4903 25.0672C35.4219 31.7665 24.7693 32.6774 22.42 40.3835C22.42 40.3835 14.8447 18.6426 40.0725 18.6426Z" fill="#723B2A"/>
<path d="M33.9272 54.0898C33.9272 54.0898 35.2479 54.5126 37.3488 54.9746L40.4652 56.1428L42.845 55.2274C45.3207 54.9005 46.6806 54.3514 46.6806 54.3514C46.6806 54.3514 46.0356 57.2717 43.3768 58.6054L40.2865 58.1085L36.9304 58.3787C34.3936 56.9099 33.9272 54.0898 33.9272 54.0898Z" fill="#212121"/>
<path d="M40.0074 56.4465C41.5198 56.5162 42.3915 55.8014 42.8405 55.2391C42.1518 55.3307 41.3847 55.383 40.5304 55.3655C39.3361 55.3394 38.2639 55.1868 37.3442 54.9863C37.7757 55.5747 38.617 56.3811 40.0074 56.4465Z" fill="white"/>
<path d="M36.9302 58.3901C37.7888 58.8913 38.8872 59.2356 40.2863 59.2618C41.5416 59.2879 42.5572 59.0221 43.381 58.608C42.6313 58.0196 41.4501 57.6273 40.1163 57.5968C38.8436 57.575 37.7017 57.8845 36.9302 58.3901Z" fill="#C94747"/>
<path fill-rule="evenodd" clip-rule="evenodd" d="M40.3819 20.4818C51.1957 20.4818 60.1091 27.7956 61.3731 37.2321C61.421 36.7134 61.4516 36.1904 61.4516 35.663C61.4516 25.1412 51.9846 16.6113 40.3034 16.6113C28.6222 16.6113 19.1553 25.1412 19.1553 35.663C19.1553 36.4432 19.2119 37.2103 19.3122 37.9643C20.197 28.1792 29.2891 20.4818 40.3819 20.4818Z" fill="#CE7AE2"/>
<path d="M53.0963 95.0664L54.1206 83.6729L53.1399 70.1176L49.1082 69.0148L40.5434 68.3828H40.016L31.5254 69.0235L27.5372 70.1132L26.4258 83.6686L27.4501 95.0751L21.6226 122.944C23.7539 126.061 33.125 130.459 40.0117 130.193H40.5391C47.0858 129.949 56.9101 125.882 58.9195 122.944L53.0963 95.0664Z" fill="#CE7AE2"/>
<path d="M34.594 65.5977L31.1812 68.2782C31.1812 68.2782 32.9856 72.7676 36.0105 73.9314L40.0161 68.3872C36.2241 67.9731 34.594 65.5977 34.594 65.5977Z" fill="#AD59C9"/>
<path d="M40.4756 68.3875L39.9482 68.3887L40.0842 130.199L40.6116 130.197L40.4756 68.3875Z" fill="#AD59C9"/>
<path d="M45.97 65.5977L49.3828 68.2782C49.3828 68.2782 48.0142 72.7676 44.9893 73.9314L40.5479 68.3872C44.3399 67.9731 45.97 65.5977 45.97 65.5977Z" fill="#AD59C9"/>
<path d="M63.2652 77.5681C63.2652 77.5681 63.9233 86.974 61.8922 89.4628L54.1469 84.2063C54.1469 84.2063 52.5778 81.8744 52.2509 77.9255C51.9284 74.0288 53.1401 70.1191 53.1401 70.1191C55.6899 71.3134 63.2652 77.5681 63.2652 77.5681Z" fill="#CE7AE2"/>
<path d="M63.4438 77.1543L68.1119 80.1836C67.5496 83.4743 64.9127 87.3753 61.6175 90.2084L56.4395 86.4469C59.3772 83.9407 61.7047 81.3691 63.4438 77.1543Z" fill="#CE7AE2"/>
<path d="M17.3337 77.5681C17.3337 77.5681 16.6755 86.974 18.7067 89.4628L26.452 84.2063C26.452 84.2063 28.0211 81.8744 28.348 77.9255C28.6705 74.0288 27.5591 70.1191 27.5591 70.1191C25.0136 71.3134 17.3337 77.5681 17.3337 77.5681Z" fill="#CE7AE2"/>
<path d="M17.1593 77.1543L12.4912 80.1836C13.0535 83.4743 15.6905 87.3753 18.9856 90.2084L24.1637 86.4469C21.2216 83.9407 18.8941 81.3691 17.1593 77.1543Z" fill="#CE7AE2"/>
</g>
</svg>
