<svg width="171" height="171" viewBox="0 0 171 171" fill="none" xmlns="http://www.w3.org/2000/svg">
<path d="M170.034 85C170.034 38.0558 131.978 3.06979e-06 85.0342 5.12178e-06C38.09 7.17378e-06 0.0341739 38.0558 0.034176 85C0.034178 131.944 38.09 170 85.0342 170C131.978 170 170.034 131.944 170.034 85Z" fill="#80E3EE"/>
<path d="M118.307 61.8C121.507 35.9 92.4074 12 92.4074 12C92.4074 12 87.8074 35.8 93.4074 55.6C93.4074 55.6 117.307 70.6 118.307 61.8Z" fill="#784275"/>
<path d="M108.007 55.0998C108.107 39.5998 94.5074 23.2998 94.5074 23.2998C94.5074 23.2998 93.0074 37.6998 96.3074 52.4998C100.007 55.0998 104.907 54.4998 108.007 55.0998Z" fill="#784275"/>
<path d="M56.5076 61.8C53.4076 35.9 82.5076 12 82.5076 12C82.5076 12 87.1076 35.8 81.5076 55.6C81.4076 55.6 57.6076 70.6 56.5076 61.8Z" fill="#8E5382"/>
<path d="M66.9075 55.0998C66.8075 39.5998 80.4075 23.2998 80.4075 23.2998C80.4075 23.2998 81.9075 37.7998 78.6075 52.5998C74.9075 55.0998 70.0075 54.4998 66.9075 55.0998Z" fill="#F26695"/>
<path d="M84.3077 42.9004C91.1077 42.9004 100.808 43.8004 107.708 46.1004C120.208 50.4004 127.908 63.0004 124.208 75.7004L122.008 83.3004L101.008 68.8004C101.008 68.8004 77.1077 42.9004 84.3077 42.9004Z" fill="#8E5382"/>
<path d="M134.108 154.4L117.908 66.8004C115.408 53.3004 105.108 44.3004 90.7075 43.1004C75.6075 41.8004 63.3075 45.8004 58.0075 51.2004C51.8075 57.4004 48.3075 65.2004 45.6075 75.0004C39.5075 97.8004 33.9075 128.212 30.2075 150.012C45.0075 162.512 64.1075 170 85.0075 170C103.308 170 120.308 164.2 134.108 154.4Z" fill="#8E5382"/>
<path d="M75.6077 83.3C80.8544 83.3 85.1077 78.8676 85.1077 73.4C85.1077 67.9324 80.8544 63.5 75.6077 63.5C70.361 63.5 66.1077 67.9324 66.1077 73.4C66.1077 78.8676 70.361 83.3 75.6077 83.3Z" fill="white"/>
<path d="M73.7077 81.7C78.0155 81.7 81.5077 78.0735 81.5077 73.6C81.5077 69.1265 78.0155 65.5 73.7077 65.5C69.3999 65.5 65.9077 69.1265 65.9077 73.6C65.9077 78.0735 69.3999 81.7 73.7077 81.7Z" fill="#04040A"/>
<path d="M74.1077 68.3001C75.6077 67.6001 77.3077 68.3001 77.9077 69.8001C78.6077 71.3001 77.9077 73.1001 76.5077 73.8001C75.0077 74.5001 73.3077 73.8001 72.7077 72.3001C72.0077 70.8001 72.7077 69.0001 74.1077 68.3001Z" fill="white"/>
<path d="M112.807 81.2008C116.95 81.2008 120.307 77.0818 120.307 72.0008C120.307 66.9198 116.95 62.8008 112.807 62.8008C108.665 62.8008 105.307 66.9198 105.307 72.0008C105.307 77.0818 108.665 81.2008 112.807 81.2008Z" fill="white"/>
<path d="M111.307 79.6004C114.732 79.6004 117.507 76.1978 117.507 72.0004C117.507 67.803 114.732 64.4004 111.307 64.4004C107.883 64.4004 105.107 67.803 105.107 72.0004C105.107 76.1978 107.883 79.6004 111.307 79.6004Z" fill="#04040A"/>
<path d="M111.607 72.1009C110.307 71.6009 109.607 70.0009 110.107 68.6009C110.607 67.2009 112.107 66.5009 113.407 67.0009C114.707 67.5009 115.407 69.1009 114.907 70.5009C114.407 71.9009 112.907 72.6009 111.607 72.1009Z" fill="white"/>
<path d="M89.9075 156.8L91.5075 152.9C69.5075 144 47.4245 118.7 41.3245 92.5C39.7245 99.8 38.9475 102.891 37.461 110.6C50.361 140 75.0075 153.9 89.9075 156.8Z" fill="#3C2872"/>
<path d="M126.107 129.7C127.807 126.8 128.407 123.3 127.807 119.9L125.307 106.4C121.207 129.1 105.707 146.4 92.1074 152.7L92.9074 156.7C102.907 154.6 117.007 145.2 126.107 129.7Z" fill="#4D3A91"/>
<path d="M96.9074 134.1C103.307 136.3 112.107 128.4 107.807 117.6C104.507 109.5 91.7074 108.2 87.6074 114C98.9074 120.2 87.0074 130.6 96.9074 134.1Z" fill="#F26695"/>
<path d="M61.1074 92.8998C61.1074 92.8998 109.807 80.1998 113.807 81.1998C115.507 81.5998 118.307 80.2998 119.907 80.7998C126.907 83.2998 132.907 87.4998 132.907 92.4998C132.907 100.5 128.407 113.7 112.907 121.4C106.507 116.1 101.407 110.9 101.407 110.9C101.407 110.9 93.6074 117.8 85.1074 122C85.0074 122 62.7074 115.7 61.1074 92.8998Z" fill="#8E5382"/>
<path d="M112.907 94.7C112.907 98.9 108.007 103.8 101.907 103.8C95.8073 103.8 91.0073 98.9 91.0073 94.7C91.0073 90.5 95.9073 88.5 102.007 88.5C108.107 88.5 112.907 90.4 112.907 94.7Z" fill="#3F1D51"/>
<path d="M111.907 98.2004C111.207 97.7004 110.307 97.4004 109.307 97.4004C106.907 97.4004 104.907 99.4004 104.907 101.8C104.907 102.4 105.007 102.9 105.207 103.4C108.207 102.4 110.607 100.4 111.907 98.2004Z" fill="#04040A"/>
<path d="M94.6074 97.4004C93.7074 97.4004 92.8074 97.7004 92.1074 98.2004C93.4074 100.4 95.8074 102.4 98.7074 103.3C98.9074 102.8 99.0074 102.3 99.0074 101.7C99.0074 99.3004 97.0074 97.4004 94.6074 97.4004Z" fill="#04040A"/>
<path d="M110.407 63.2004C106.507 65.0004 105.607 69.3004 105.507 71.1004C105.307 74.1004 106.307 77.0004 107.707 78.4004C111.607 82.5004 118.007 80.0004 125.007 84.1004L117.707 88.6004L92.0073 82.4004L105.907 55.4004L110.407 63.2004Z" fill="#8E5382"/>
<path d="M106.007 167.4C104.307 161.2 98.6074 156.6 91.8074 156.6C84.2074 156.6 78.003 162.341 77.103 169.641C79.7749 169.887 82.4074 170 85.1074 170C92.3074 170 99.3074 169.1 106.007 167.4Z" fill="#FEBF88"/>
<path d="M100.507 168.6C99.3074 164.9 95.8074 162.1 91.7074 162.1C87.1074 162.1 83.303 165.565 82.603 169.965C83.4272 169.984 84.2327 170.004 85.0327 170.004C90.2515 170.023 95.5074 169.5 100.507 168.6Z" fill="#FC9980"/>
<path d="M93.5077 151.901C93.5077 151.001 92.7077 150.201 91.8077 150.201H91.6077C90.7077 150.201 89.9077 151.001 89.9077 151.901V160.001H93.5077V151.901Z" fill="#FEBF88"/>
<path d="M100.307 129.501C103.507 125.801 104.907 118.901 101.707 112.201L99.5073 113.501C102.407 118.901 102.107 125.201 100.307 129.501Z" fill="#DC558A"/>
<path d="M125.807 110.3C118.307 119.4 110.107 118.8 101.807 109C101.807 109 99.7074 111.4 96.3074 114.2C88.8074 120.2 78.0074 120.3 70.9074 113.8C66.8074 110 63.0074 104.1 61.6074 96.5996C61.1074 102.3 63.6074 112.4 71.8074 118.9C79.0074 124.7 89.4074 124.2 96.6074 118.3C98.9074 116.4 100.407 115.1 101.607 113.7C108.507 121.2 118.307 122.8 124.607 115.5C131.207 107.7 132.166 98.4996 132.166 98.4996C130.966 102.5 128.807 106.7 125.807 110.3Z" fill="#623269"/>
</svg>
