<?xml version="1.0" encoding="utf-8"?>
<svg width="80" height="80" viewBox="0 0 80 80" fill="none" xmlns="http://www.w3.org/2000/svg">
<path d="M40 80C62.0914 80 80 62.0914 80 40C80 17.9086 62.0914 0 40 0C17.9086 0 0 17.9086 0 40C0 62.0914 17.9086 80 40 80Z" fill="#88D0E3"/>
<mask id="mask0" mask-type="alpha" maskUnits="userSpaceOnUse" x="0" y="0" width="80" height="80">
<path d="M40 80C62.0914 80 80 62.0914 80 40C80 17.9086 62.0914 0 40 0C17.9086 0 0 17.9086 0 40C0 62.0914 17.9086 80 40 80Z" fill="#59CBD1"/>
</mask>
<g mask="url(#mask0)">
<path d="M59.9512 76.6505C63.2028 70.6003 64.4555 63.0843 63.0029 54.6621H40.9346H32.499H18.8796C17.3204 63.8039 18.8796 71.893 22.7842 78.1697C27.9415 80.9149 33.8183 82.4874 40.0684 82.4874C47.3845 82.4874 54.2076 80.3418 59.9512 76.6505Z" fill="#EAB794"/>
<path d="M69.3062 68.0421C69.5194 62.2718 68.5999 56.2217 63.6825 50.8379C63.6825 50.8379 55.3269 65.9099 54.1542 76.4377C54.021 77.5971 54.0076 78.6765 54.0609 79.7159C60.1244 77.2239 65.3749 73.1594 69.3062 68.0421Z" fill="#CC633A"/>
<path d="M27.7676 80.3556C27.8609 79.1296 27.8609 77.8369 27.7143 76.4377C26.5416 65.9232 18.186 50.8379 18.186 50.8379C12.6423 56.9147 12.1758 63.8577 12.6956 70.2676C16.7734 74.7852 21.9307 78.29 27.7676 80.3556Z" fill="#CC633A"/>
<path d="M24.1692 24.7064L23.5162 22.2543C23.5162 22.2543 19.8382 22.7074 19.505 21.0949C19.1719 19.4691 23.4896 17.7101 25.9949 16.8305C27.0344 16.4707 28.2071 16.7106 29.0067 17.4569L36.7626 24.693H24.1692V24.7064Z" fill="#CC633A"/>
<path d="M57.712 24.7064L58.365 22.2543C58.365 22.2543 62.043 22.7074 62.3762 21.0949C62.7093 19.4691 58.3916 17.7101 55.8863 16.8305C54.8468 16.4707 53.6741 16.7106 52.8745 17.4569L45.1187 24.693H57.712V24.7064Z" fill="#CC633A"/>
<path d="M62.0158 42.7361C62.3223 44.775 62.3756 50.985 62.3756 50.985L40.9336 47.3736V27.8639C43.9187 22.1736 58.9507 22.5468 62.0158 42.7361Z" fill="#CC633A"/>
<path d="M19.8647 42.7361C19.5582 44.775 19.5049 50.985 19.5049 50.985L40.9469 47.3736V27.8639C37.9484 22.1736 22.9297 22.5468 19.8647 42.7361Z" fill="#CC633A"/>
<path d="M29.9799 42.4305C32.0922 42.4305 33.8046 40.7182 33.8046 38.6059C33.8046 36.4936 32.0922 34.7812 29.9799 34.7812C27.8676 34.7812 26.1553 36.4936 26.1553 38.6059C26.1553 40.7182 27.8676 42.4305 29.9799 42.4305Z" fill="white"/>
<path d="M28.8469 37.846C29.3399 38.2857 30.1129 38.2457 30.5526 37.7393C30.8591 37.3929 30.9258 36.8998 30.7659 36.5C31.4055 36.6333 31.9919 37.0464 32.2984 37.686C32.8048 38.7655 32.3384 40.0448 31.2723 40.5512C30.1928 41.0576 28.9135 40.5912 28.4071 39.5251C28.074 38.8321 28.1672 38.0458 28.5537 37.4462C28.607 37.5794 28.7136 37.726 28.8469 37.846Z" fill="#04040A"/>
<path d="M51.8881 42.4305C54.0004 42.4305 55.7128 40.7182 55.7128 38.6059C55.7128 36.4936 54.0004 34.7812 51.8881 34.7812C49.7758 34.7812 48.0635 36.4936 48.0635 38.6059C48.0635 40.7182 49.7758 42.4305 51.8881 42.4305Z" fill="white"/>
<path d="M50.0358 37.8206C50.5289 38.2603 51.3018 38.2204 51.7416 37.714C52.0481 37.3675 52.1147 36.8744 51.9548 36.4746C52.5945 36.6079 53.1808 37.021 53.4873 37.6606C53.9937 38.7401 53.5273 40.0194 52.4612 40.5258C51.3818 41.0322 50.1025 40.5658 49.5961 39.4997C49.2629 38.8067 49.3562 38.0205 49.7427 37.4208C49.796 37.5674 49.9026 37.7006 50.0358 37.8206Z" fill="#04040A"/>
<path d="M30.0594 63.488C33.8441 68.2455 40.9336 67.4992 40.9336 67.4992C40.9336 67.4992 48.0232 68.2455 51.8079 63.488C52.8073 66.8729 59.124 68.019 63.495 57.0781C65.7605 51.4278 65.4407 44.7246 62.0025 42.739C62.0025 42.739 61.083 48.8824 57.0051 48.8291C50.955 48.7492 50.5286 40.207 40.9203 40.207C31.3121 40.207 30.8856 48.7492 24.8355 48.8291C20.7577 48.8824 19.8381 42.739 19.8381 42.739C16.4133 44.7246 16.0801 51.4411 18.3456 57.0781C22.7433 68.019 29.0733 66.8729 30.0594 63.488Z" fill="#FFDECC"/>
<path d="M50.129 25.1327C46.0778 23.96 42.2799 25.2926 40.9339 27.8646C39.5879 25.2926 35.79 23.96 31.7388 25.1327C35.9099 27.1983 38.8283 31.9691 38.8283 37.5261C38.8283 38.9121 38.6418 40.258 38.3086 41.524H40.9472H43.5858C43.2393 40.258 43.0661 38.9254 43.0661 37.5261C43.0528 31.9691 45.9712 27.1983 50.129 25.1327Z" fill="#FFDECC"/>
<path d="M50.1157 42.6041H59.5507C58.991 40.9783 56.419 39.7656 53.3273 39.7656C51.3817 39.7656 49.6359 40.2587 48.4766 41.0316C49.0762 41.5247 49.6093 42.0577 50.1157 42.6041Z" fill="#CC633A"/>
<path d="M31.7647 42.6038C32.2711 42.0574 32.8042 41.5243 33.3905 41.0179C32.2312 40.245 30.4987 39.752 28.5398 39.752C25.4481 39.752 22.8894 40.978 22.3164 42.5904H31.7647V42.6038Z" fill="#CC633A"/>
<path d="M40.9335 42.2832C33.2576 42.2832 35.5897 49.9991 30.1792 53.3973L40.9335 57.0887L51.6878 53.3973C46.2773 49.9991 48.6094 42.2965 40.9335 42.2832Z" fill="#C6AC99"/>
<path d="M41.2269 49.0665V47.6406H40.6405V49.0665C40.6405 53.8906 32.4982 55.1433 26.4214 51.4919C28.3137 53.2243 29.9262 57.1822 33.5243 59.6609C35.3633 60.9269 37.7354 61.34 40.9337 61.34C44.132 61.34 46.4908 60.9269 48.3431 59.6476C51.9545 57.1689 53.5537 53.211 55.446 51.4786C49.3826 55.13 41.2269 53.8906 41.2269 49.0665Z" fill="#04040A"/>
<path d="M35.6428 60.7117C35.6428 60.7117 36.0559 58.4062 35.1631 58.4062C34.6967 58.4062 34.0437 59.0459 33.5373 59.6589C33.524 59.6456 34.2836 60.2853 35.6428 60.7117Z" fill="white"/>
<path d="M39.561 70.3602C45.278 69.4407 41.4933 62.7376 46.9304 60.3122C45.2647 56.7275 38.0951 56.1677 35.4965 60.2856C32.045 65.7627 35.6431 70.9866 39.561 70.3602Z" fill="#E25976"/>
<path d="M46.2375 60.7117C46.2375 60.7117 45.8244 58.4062 46.7173 58.4062C47.1837 58.4062 47.8367 59.0459 48.3431 59.6589C48.3431 59.6456 47.5968 60.2853 46.2375 60.7117Z" fill="white"/>
<path d="M45.2382 44.7091C45.2382 46.3616 43.3059 48.2939 40.9338 48.2939C38.5617 48.2939 36.6294 46.3616 36.6294 44.7091C36.6294 43.0566 38.5617 42.297 40.9338 42.297C43.3192 42.2837 45.2382 43.0433 45.2382 44.7091Z" fill="#38355E"/>
<path d="M44.8243 46.0929C44.5445 45.8797 44.198 45.7598 43.8115 45.7598C42.852 45.7598 42.0791 46.5327 42.0791 47.4922C42.0791 47.7054 42.1191 47.9186 42.199 48.1052C43.3718 47.7587 44.3179 46.9725 44.8243 46.0929Z" fill="#04040A"/>
<path d="M38.0283 45.7598C37.6551 45.7598 37.3087 45.8797 37.0288 46.0796C37.5352 46.9591 38.4814 47.7454 39.6408 48.0919C39.7074 47.9053 39.7607 47.6921 39.7607 47.4789C39.7607 46.5327 38.9878 45.7598 38.0283 45.7598Z" fill="#04040A"/>
<path d="M58.6577 32.0482H23.2231C22.5568 32.0482 22.0504 31.4752 22.1304 30.8222L22.7301 25.6916C22.7967 25.1319 23.2631 24.7188 23.8228 24.7188H58.0714C58.6311 24.7188 59.1108 25.1452 59.1641 25.6916L59.7638 30.8222C59.8304 31.4618 59.324 32.0482 58.6577 32.0482Z" fill="#FF73C1"/>
<path d="M22.3037 29.2921H59.5773L59.3641 27.4531H22.5169L22.3037 29.2921Z" fill="#FFAED3"/>
</g>
</svg>
