<?xml version="1.0" encoding="utf-8"?>
<svg width="80" height="80" viewBox="0 0 80 80" fill="none" xmlns="http://www.w3.org/2000/svg">
<mask id="mask0" mask-type="alpha" maskUnits="userSpaceOnUse" x="0" y="0" width="80" height="80">
<circle cx="40" cy="40" r="40" fill="#C4C4C4"/>
</mask>
<g mask="url(#mask0)">
<circle cx="40" cy="40" r="40" fill="#8576E3"/>
<path d="M24.2577 23.3589C27.9189 23.8477 31.4903 26.0025 31.6998 30.5865C31.8594 34.1329 30.762 37.2105 27.5697 38.5622C17.938 42.6423 13.394 22.6007 24.2577 23.3589Z" fill="#EFBE89"/>
<path d="M24.4572 26.1871C29.4103 26.8455 31.6648 35.2003 25.6094 36.2727C19.8184 37.3003 18.0128 24.8603 24.4572 26.1871Z" fill="#F44D64"/>
<path d="M57.677 23.3268C54.0507 23.8107 50.5193 25.9605 50.3247 30.5594C50.1701 34.1108 51.2625 37.2033 54.4298 38.565C63.9668 42.6701 67.608 22.7033 57.677 23.3268Z" fill="#EFBE89"/>
<path d="M57.4827 26.1559C52.5845 26.8094 50.3649 35.1842 56.3554 36.2665C62.0965 37.309 63.5131 25.2132 57.4827 26.1559Z" fill="#F44D64"/>
<path d="M70.1342 47.8769C70.1342 42.0706 65.4297 37.3661 59.6234 37.3661C59.3436 37.3661 59.0754 37.3836 58.8014 37.4069C57.4373 34.8535 54.7557 29.945 53.6539 28.7033C46.0054 20.0521 32.3349 23.41 28.9537 27.0535C27.0416 29.1114 22.6402 37.3719 22.6402 37.3719C16.8339 37.3661 12.1294 42.0765 12.1294 47.8769C12.1294 53.6833 16.8339 58.3878 22.6402 58.3878C22.7568 58.3878 22.8734 58.3761 22.99 58.3703C6.77196 95.5575 22.6402 94.3566 22.6402 94.3566C22.6402 94.3566 46.0987 94.3216 57.2158 94.3566C70.1401 94.3974 66.6015 74.8507 58.2068 58.2828C58.6732 58.347 59.1454 58.3878 59.6292 58.3878C65.4297 58.3878 70.1342 53.6833 70.1342 47.8769Z" fill="#EFBE89"/>
<path d="M58.5911 91.6166C57.8391 92.6193 56.988 93.5404 56.0436 94.3624C46.7861 94.3507 31.8506 94.4557 25.7761 94.3624C24.9949 93.6337 23.1877 92.4969 22.5523 91.6166C19.5267 87.4485 18.4891 82.5399 19.5267 76.9085C20.4711 71.3878 22.9254 67.3479 26.6972 64.5322C30.947 61.3434 35.5641 61.0985 40.5659 63.547C45.5677 61.0985 50.1964 61.46 54.4346 64.5322C58.3055 67.3479 60.6606 71.3937 61.605 76.9085C62.6485 82.5399 61.605 87.4485 58.5911 91.6166Z" fill="#FFE0B3"/>
<path d="M38.3237 48.2487L39.1717 50.7975H40.1144L40.3987 48.533L40.5883 50.7975H41.6258L42.3789 48.2487C41.2467 46.0789 40.0196 45.7946 38.6978 47.4955C38.7028 47.7798 38.5133 47.9643 38.3237 48.2487Z" fill="white"/>
<path d="M32.8828 45.9302C32.8828 46.1198 32.8828 46.3093 32.8828 46.4989C32.9776 47.2521 33.3567 47.9154 33.9203 48.4791C34.6735 49.2323 35.5264 49.5166 36.5639 49.5166C37.6014 49.5166 38.6389 49.0427 39.5816 48.1C39.9607 47.8157 40.2401 47.4416 40.5244 47.0625C40.8087 47.4416 41.093 47.8157 41.4671 48.1C42.5046 49.0427 43.5421 49.5166 44.4848 49.5166C45.5223 49.5166 46.3703 49.1375 47.1284 48.4791C47.2232 48.3843 47.318 48.2895 47.5075 48.1C47.7918 47.5314 47.9814 46.9677 48.0761 46.3991C48.1709 46.2096 48.1709 46.02 48.1709 45.8305C48.1709 45.0773 47.9814 44.3191 47.5125 43.8503C47.4177 43.7555 47.4177 43.5659 47.323 43.4712C47.2282 43.3764 47.2282 43.2816 47.2282 43.2816C46.475 42.5284 45.6221 42.2441 44.5846 42.2441C44.2055 42.2441 43.9262 42.2441 43.5471 42.3389C42.8887 42.4337 42.1305 42.5285 41.2825 42.718C40.9982 42.8128 40.8087 42.9075 40.5293 43.0023C40.3398 42.9075 40.0555 42.8128 39.7762 42.718C38.8334 42.4337 37.8907 42.3389 37.0378 42.3389C36.8482 42.3389 36.6587 42.2441 36.5639 42.2441C35.5264 42.2441 34.6785 42.6232 33.9203 43.2816C33.8255 43.3764 33.8255 43.3764 33.7308 43.4712C33.1671 44.3291 32.8828 45.0823 32.8828 45.9302Z" fill="#FFE0B3"/>
<path d="M47.7091 33.6445C46.7446 33.6445 45.99 33.9679 45.3488 34.6091C44.7077 35.2502 44.3843 36.1126 44.3843 36.9694C44.3843 37.8261 44.7077 38.6885 45.3488 39.3297C45.9956 39.9765 46.7446 40.402 47.7091 40.402C48.6737 40.402 49.4283 40.0786 50.0694 39.3297C50.7162 38.6829 51.034 37.9339 51.034 36.9694C51.034 36.0048 50.7106 35.2502 50.0694 34.6091C49.4283 33.9623 48.6737 33.6445 47.7091 33.6445Z" fill="white"/>
<path d="M44.7129 37.5195C44.7129 38.1663 44.9285 38.6997 45.3597 39.0231C45.7909 39.4543 46.3242 39.6699 46.9711 39.6699C47.6179 39.6699 48.0434 39.4543 48.4746 39.0231C48.9058 38.5919 49.1214 38.0585 49.1214 37.5195C49.1214 36.9805 48.9058 36.3394 48.4746 36.016C48.0434 35.6925 47.5101 35.3691 46.9711 35.3691C46.3242 35.3691 45.7909 35.5847 45.3597 36.016C44.9285 36.4415 44.7129 36.9805 44.7129 37.5195Z" fill="#2A2A2C"/>
<path d="M35.036 30.058C34.8203 30.4467 34.3978 30.774 33.8751 31.0804C33.3749 31.2812 32.8802 31.4834 32.3331 31.4426C31.8887 31.4351 31.5335 31.1167 31.381 30.8527C31.2285 30.5886 31.236 30.1442 31.4782 29.6569C31.7218 29.1642 32.0402 28.8089 32.5349 28.6067C33.063 28.3018 33.5299 28.2036 34.0505 28.3431C34.495 28.3506 34.8781 28.5649 35.0026 28.9331C35.2857 29.1264 35.2782 29.5708 35.036 30.058Z" fill="#D39D6C"/>
<path d="M33.2406 33.6445C34.2051 33.6445 34.9597 33.9679 35.6009 34.6091C36.2477 35.2559 36.5654 36.1126 36.5654 36.9694C36.5654 37.8261 36.242 38.6885 35.6009 39.3297C34.9541 39.9765 34.2051 40.402 33.2406 40.402C32.276 40.402 31.5214 40.0786 30.8803 39.3297C30.2335 38.6829 29.9158 37.9339 29.9158 36.9694C29.9158 36.0048 30.2392 35.2502 30.8803 34.6091C31.5214 33.9623 32.276 33.6445 33.2406 33.6445Z" fill="white"/>
<path d="M36.0806 37.5722C36.0806 38.2191 35.865 38.7524 35.4338 39.0758C35.0025 39.507 34.4692 39.7226 33.8224 39.7226C33.1756 39.7226 32.7501 39.507 32.3188 39.0758C31.8876 38.6446 31.672 38.1113 31.672 37.5722C31.672 37.0332 31.8876 36.3921 32.3188 36.0687C32.7501 35.6375 33.2834 35.4219 33.8224 35.4219C34.4692 35.4219 35.0025 35.6375 35.4338 36.0687C35.865 36.4999 36.0806 37.0389 36.0806 37.5722Z" fill="#2A2A2C"/>
<path d="M32.2804 38.964C33.5329 39.1654 34.8527 39.8309 36.2269 40.8716C33.4193 41.3743 30.8155 40.8949 28.4644 39.134C29.8078 38.7529 31.015 38.6736 32.2804 38.964Z" fill="#EFBE89"/>
<path d="M48.2689 39.2895C47.0173 39.4973 45.7139 40.0757 44.2635 41.1119C47.1599 41.6124 49.7615 41.1198 52.0906 39.4408C50.7406 39.0658 49.4469 38.9807 48.2689 39.2895Z" fill="#EFBE89"/>
<path d="M43.1593 40.7867C43.1593 40.218 43.0645 39.7492 42.8749 39.1806C42.4011 37.6692 41.6479 36.916 40.6104 36.916C39.5729 36.916 38.725 37.6692 38.2511 39.1806C38.0616 39.7492 37.9668 40.218 37.9668 40.7867C37.9668 41.1658 38.0616 41.4451 38.1563 41.8242C38.1563 41.8242 38.1563 41.8242 38.2511 41.8242C38.6302 41.8242 38.9095 41.9189 39.1938 42.0137C39.5729 42.1085 40.0418 42.5823 40.6104 43.146C41.2688 42.4876 41.7427 42.1085 42.1218 42.0137C42.5008 41.8242 42.7802 41.8242 43.1593 41.8242C43.1593 41.5399 43.1593 41.1658 43.1593 40.7867Z" fill="#FFE0B3"/>
<path d="M42.0272 41.5607C41.6481 41.6555 41.1793 42.1293 40.5159 42.693C39.9472 42.0346 39.4784 41.6555 39.0993 41.5607C38.815 41.3712 38.4409 41.3712 38.1566 41.3712C38.1566 41.3712 38.1566 41.3712 38.0618 41.3712C37.6827 41.3712 37.4932 41.7503 37.4932 42.2191C37.4932 42.7877 37.8722 43.1618 38.815 43.3514C39.7577 43.5409 40.3263 44.3889 40.6057 45.9002C40.89 44.3889 41.4536 43.5409 42.3065 43.3514C43.1545 43.1618 43.5336 42.7828 43.5336 42.2191C43.5336 41.6555 43.344 41.3712 42.965 41.3712C42.7854 41.2764 42.4063 41.3712 42.0272 41.5607Z" fill="#F44D64"/>
<path d="M46.1896 30.0424C46.4053 30.431 46.8278 30.7584 47.3504 31.0648C47.8507 31.2655 48.3454 31.4678 48.8925 31.4269C49.3369 31.4195 49.6921 31.1011 49.8446 30.837C50.0733 30.4409 49.9896 30.1286 49.7474 29.6413C49.5038 29.1485 49.1854 28.7933 48.6907 28.591C48.1625 28.2861 47.6957 28.188 47.1751 28.3275C46.7306 28.335 46.3475 28.5492 46.2229 28.9174C45.9399 29.1107 45.9459 29.5497 46.1896 30.0424Z" fill="#D39D6C"/>
<path d="M47.7135 24.57C42.2687 23.4799 40.4965 31.4373 40.4965 31.4373C40.3857 25.9516 35.0166 23.9987 35.0166 23.9987C38.576 22.7469 43.8154 22.7466 47.7135 24.57Z" fill="#D39D6C"/>
<path d="M32.3348 37.5164C33.1398 37.5164 33.7923 36.8639 33.7923 36.059C33.7923 35.2541 33.1398 34.6016 32.3348 34.6016C31.5299 34.6016 30.8774 35.2541 30.8774 36.059C30.8774 36.8639 31.5299 37.5164 32.3348 37.5164Z" fill="white"/>
<path d="M46.0053 37.5164C46.8102 37.5164 47.4627 36.8639 47.4627 36.059C47.4627 35.2541 46.8102 34.6016 46.0053 34.6016C45.2004 34.6016 44.5479 35.2541 44.5479 36.059C44.5479 36.8639 45.2004 37.5164 46.0053 37.5164Z" fill="white"/>
<path d="M27.2805 62.2812L17.8677 74.8791C17.8677 74.8791 27.0626 83.9773 29.8434 80.1298C32.6299 76.2822 27.2805 62.2812 27.2805 62.2812Z" fill="#EFBE89"/>
<path d="M53.2342 62.2812C53.2342 62.2812 47.5154 77.0307 50.302 80.8783C53.0827 84.7258 63.026 74.1419 63.026 74.1419C59.5478 67.635 57.3231 65.4797 53.2342 62.2812Z" fill="#EFBE89"/>
<path d="M34.3685 44.8983C33.36 44.5135 32.3107 44.1929 31.2555 43.9189C30.2003 43.6391 29.1335 43.4059 28.055 43.2194L27.6528 43.1494L27.2447 43.0911C26.9766 43.0503 26.7026 43.0095 26.4344 42.9745C25.8922 42.9104 25.3501 42.8404 24.8021 42.7996C23.712 42.6947 22.616 42.6714 21.52 42.6714C22.616 42.6422 23.712 42.6247 24.8079 42.7005C25.3559 42.7239 25.9039 42.7763 26.4519 42.823C26.7259 42.8521 26.9999 42.8871 27.268 42.9162L27.6761 42.9629L28.0842 43.0212C29.1743 43.1727 30.2528 43.3768 31.3255 43.6216C32.3981 43.8723 33.4591 44.1521 34.5143 44.5194L34.3685 44.8983Z" fill="white"/>
<path d="M34.3686 45.9831C33.2551 45.8898 32.1242 45.8665 30.9991 45.8782C29.8681 45.8957 28.743 45.9598 27.6179 46.0647C27.0524 46.1113 26.4986 46.193 25.9331 46.2571L25.0937 46.3853C24.9537 46.4087 24.8138 46.4261 24.6739 46.4495L24.26 46.5311C23.1466 46.7235 22.0506 47.0091 20.9604 47.3181C22.0389 46.98 23.1291 46.6593 24.2425 46.432L24.6564 46.3387C24.7963 46.3096 24.9363 46.2862 25.0762 46.2571L25.9098 46.0997C26.4695 46.0181 27.0291 45.919 27.5946 45.8548C28.7197 45.7091 29.8506 45.61 30.9874 45.5634C32.1242 45.5109 33.2551 45.4992 34.4036 45.5634L34.3686 45.9831Z" fill="white"/>
<path d="M35.0508 46.9979C34.0073 47.1903 32.9638 47.4643 31.9378 47.7674C30.9118 48.0764 29.8916 48.4203 28.8947 48.8109C27.892 49.2015 26.9068 49.6213 25.9391 50.0935C24.9656 50.554 24.027 51.0787 23.0942 51.6208C24.0095 51.0495 24.9306 50.4957 25.8925 50.0002C26.8427 49.493 27.8221 49.0383 28.8189 48.6186C29.81 48.193 30.8243 47.8141 31.8503 47.4701C32.8764 47.132 33.9082 46.823 34.9809 46.5898L35.0508 46.9979Z" fill="white"/>
<path d="M46.3425 44.8983C47.351 44.5135 48.4004 44.1929 49.4555 43.9189C50.5107 43.6391 51.5775 43.4059 52.656 43.2194L53.0583 43.1494L53.4663 43.0911C53.7345 43.0503 54.0085 43.0095 54.2767 42.9745C54.8188 42.9104 55.361 42.8404 55.9089 42.7996C56.9991 42.6947 58.0951 42.6714 59.191 42.6714C58.0951 42.6422 56.9991 42.6247 55.9031 42.7005C55.3551 42.7239 54.8071 42.7763 54.2592 42.823C53.9852 42.8521 53.7112 42.8871 53.443 42.9162L53.0349 42.9629L52.6269 43.0212C51.5367 43.1727 50.4582 43.3768 49.3856 43.6216C48.3129 43.8723 47.2519 44.1521 46.1968 44.5194L46.3425 44.8983Z" fill="white"/>
<path d="M46.3367 45.9831C47.4502 45.8898 48.5811 45.8665 49.7063 45.8782C50.8372 45.8957 51.9623 45.9598 53.0875 46.0647C53.6529 46.1113 54.2067 46.193 54.7722 46.2571L55.6117 46.3853C55.7516 46.4087 55.8915 46.4261 56.0314 46.4495L56.4453 46.5311C57.5588 46.7235 58.6548 47.0091 59.7449 47.3181C58.6664 46.98 57.5763 46.6593 56.4628 46.432L56.0489 46.3387C55.909 46.3096 55.7691 46.2862 55.6292 46.2571L54.7955 46.0997C54.2359 46.0181 53.6762 45.919 53.1108 45.8548C51.9857 45.7091 50.8547 45.61 49.7179 45.5634C48.5811 45.5109 47.4502 45.4992 46.3018 45.5634L46.3367 45.9831Z" fill="white"/>
<path d="M45.6548 46.9979C46.6983 47.1903 47.7418 47.4643 48.7678 47.7674C49.7938 48.0764 50.814 48.4203 51.8109 48.8109C52.8136 49.2015 53.7988 49.6213 54.7665 50.0935C55.7401 50.554 56.6786 51.0787 57.6114 51.6208C56.6961 51.0495 55.775 50.4957 54.8131 50.0002C53.8629 49.493 52.8835 49.0383 51.8867 48.6186C50.8956 48.193 49.8813 47.8141 48.8553 47.4701C47.8292 47.132 46.7974 46.823 45.7247 46.5898L45.6548 46.9979Z" fill="white"/>
</g>
</svg>
