<svg width="151" height="151" viewBox="0 0 151 151" fill="none" xmlns="http://www.w3.org/2000/svg">
<mask id="mask0" mask-type="alpha" maskUnits="userSpaceOnUse" x="0" y="0" width="151" height="151">
<circle cx="75.4082" cy="75.7024" r="75" fill="#C4C4C4"/>
</mask>
<g mask="url(#mask0)">
<circle cx="75.4082" cy="75.7024" r="75" fill="#DEEFF3"/>
<path d="M139.912 188.24C135.338 188.24 130.8 187.018 126.505 184.574C122.42 182.27 91.4713 177.955 79.8098 123.837C78.4831 117.692 82.3935 111.617 88.5385 110.29C94.7183 108.964 100.759 112.874 102.085 119.019C106.31 138.501 127.064 158.668 137.748 164.743C139.214 165.581 140.122 165.546 141.099 165.197C145.184 163.835 145.533 162.403 145.638 161.845C147.593 153.57 133.453 132.342 118.998 117.748C114.564 113.279 114.599 106.051 119.068 101.617C123.537 97.183 130.765 97.2179 135.199 101.687C172.173 138.976 168.891 162.718 167.844 167.117C166.308 173.646 161.664 182.374 148.362 186.844C145.603 187.751 142.74 188.24 139.912 188.24Z" fill="#685AD6"/>
<path d="M8.18666 273.672C5.1491 273.672 2.14644 272.485 -0.0880928 270.111C-36.8531 231.32 -43.5916 157.302 -24.8425 119.559C-15.8345 101.438 -1.65924 92.4303 15.0299 94.2808C21.2796 94.9791 25.8185 100.6 25.1202 106.85C24.4219 113.1 18.8007 117.639 12.551 116.94C10.0721 116.661 2.4956 115.823 -4.38257 129.684C-19.4307 160.025 -12.7621 223.535 16.4963 254.399C20.8257 258.973 20.6512 266.2 16.0774 270.529C13.8079 272.624 10.9798 273.672 8.18666 273.672Z" fill="#7C6BFF"/>
<path d="M75.6915 95.2661L37.8442 91.8096C7.11934 89.0164 -20.0791 111.641 -22.8723 142.366L-23.4309 148.616C-26.2241 179.34 -3.59942 206.539 27.1254 209.332L64.9728 212.789C95.6976 215.582 122.896 192.957 125.689 162.232L126.248 155.983C129.041 125.258 106.416 98.0593 75.6915 95.2661Z" fill="#7C6BFF"/>
<path d="M95.139 103.687L14.207 96.2846L15.1148 86.334C17.0351 65.1757 35.7842 49.6038 56.9075 51.5241L61.2719 51.9431C82.4301 53.8634 98.002 72.6125 96.0817 93.7359L95.139 103.687Z" fill="#5640FF"/>
<path d="M102.084 29.0819L84.4971 52.1116L86.4671 53.616L104.054 30.5863L102.084 29.0819Z" fill="#263B60"/>
<path d="M103.589 32.5674C105.536 32.5674 107.115 30.9886 107.115 29.041C107.115 27.0935 105.536 25.5146 103.589 25.5146C101.641 25.5146 100.062 27.0935 100.062 29.041C100.062 30.9886 101.641 32.5674 103.589 32.5674Z" fill="#CC28BC"/>
<path d="M80.1462 32.6727C80.8756 31.3795 79.8604 29.4248 77.8785 28.3069C75.8967 27.1891 73.6987 27.3312 72.9693 28.6245C72.2398 29.9177 73.255 31.8723 75.2369 32.9902C77.2187 34.1081 79.4167 33.9659 80.1462 32.6727Z" fill="#263B60"/>
<path d="M41.4676 31.1266C43.6192 30.3867 44.972 28.6487 44.4891 27.2447C44.0063 25.8407 41.8706 25.3023 39.719 26.0423C37.5674 26.7822 36.2147 28.5203 36.6975 29.9243C37.1804 31.3283 39.316 31.8666 41.4676 31.1266Z" fill="#263B60"/>
<path d="M44.4431 77.1147C53.9302 77.1147 61.621 69.4239 61.621 59.9367C61.621 50.4496 53.9302 42.7588 44.4431 42.7588C34.956 42.7588 27.2651 50.4496 27.2651 59.9367C27.2651 69.4239 34.956 77.1147 44.4431 77.1147Z" fill="#384A76"/>
<path d="M44.4432 72.0864C51.1537 72.0864 56.5935 66.6466 56.5935 59.9362C56.5935 53.2257 51.1537 47.7859 44.4432 47.7859C37.7328 47.7859 32.293 53.2257 32.293 59.9362C32.293 66.6466 37.7328 72.0864 44.4432 72.0864Z" fill="white"/>
<path d="M73.6658 79.803C83.1529 79.803 90.8437 72.1121 90.8437 62.625C90.8437 53.1379 83.1529 45.447 73.6658 45.447C64.1786 45.447 56.4878 53.1379 56.4878 62.625C56.4878 72.1121 64.1786 79.803 73.6658 79.803Z" fill="#384A76"/>
<path d="M73.6674 74.7725C80.3778 74.7725 85.8176 69.3326 85.8176 62.6222C85.8176 55.9118 80.3778 50.4719 73.6674 50.4719C66.957 50.4719 61.5171 55.9118 61.5171 62.6222C61.5171 69.3326 66.957 74.7725 73.6674 74.7725Z" fill="white"/>
<path d="M73.5349 69.4349C77.6036 69.4349 80.9019 66.1366 80.9019 62.0679C80.9019 57.9992 77.6036 54.7009 73.5349 54.7009C69.4663 54.7009 66.168 57.9992 66.168 62.0679C66.168 66.1366 69.4663 69.4349 73.5349 69.4349Z" fill="#2B2B30"/>
<path d="M44.3108 66.7474C48.3795 66.7474 51.6778 63.4491 51.6778 59.3804C51.6778 55.3117 48.3795 52.0134 44.3108 52.0134C40.2422 52.0134 36.9438 55.3117 36.9438 59.3804C36.9438 63.4491 40.2422 66.7474 44.3108 66.7474Z" fill="#2B2B30"/>
<path d="M49.0072 202.298C72.9371 202.298 92.3362 182.899 92.3362 158.969C92.3362 135.039 72.9371 115.64 49.0072 115.64C25.0772 115.64 5.67822 135.039 5.67822 158.969C5.67822 182.899 25.0772 202.298 49.0072 202.298Z" fill="#A796FD"/>
<path d="M46.5386 82.0708C46.8179 86.1209 49.3666 89.5425 52.7534 90.59C57.2224 91.9516 62.7739 89.0537 64.4148 83.5372L46.5386 82.0708Z" fill="white"/>
<path d="M144.578 98.168C147.441 107.735 143.426 116.533 133.859 119.396C124.293 122.259 115.424 117.336 112.596 107.769C109.733 98.2029 115.459 89.998 125.026 87.135C134.593 84.272 141.715 88.6014 144.578 98.168Z" fill="#685AD6"/>
<path d="M128.204 111.748L127.785 112.062C125.76 113.564 122.932 113.18 121.43 111.155L111.968 98.5853C110.467 96.5602 110.851 93.7321 112.876 92.2308L113.295 91.9166C115.32 90.4153 118.148 90.7993 119.65 92.8244L129.111 105.394C130.613 107.384 130.194 110.247 128.204 111.748Z" fill="#473FCE"/>
<path d="M125.34 94.4686L124.851 94.6432C122.512 95.5859 119.858 94.4337 118.95 92.0944L113.155 77.4653C112.212 75.126 113.364 72.4725 115.703 71.5647L116.192 71.3901C118.531 70.4474 121.185 71.5996 122.093 73.9389L127.888 88.5681C128.831 90.8724 127.679 93.5259 125.34 94.4686Z" fill="#685AD6"/>
<path d="M133.301 95.058H132.778C130.264 94.9882 128.308 92.8584 128.378 90.3795L128.902 74.6679C128.972 72.1541 131.102 70.1988 133.581 70.2687H134.104C136.618 70.3385 138.573 72.4683 138.504 74.9472L137.98 90.6588C137.91 93.1726 135.78 95.1627 133.301 95.058Z" fill="#685AD6"/>
<path d="M127.05 114.503L126.771 114.084C125.444 111.955 126.108 109.161 128.272 107.835L141.68 99.5948C143.809 98.268 146.603 98.9314 147.929 101.096L148.209 101.515C149.535 103.645 148.872 106.438 146.707 107.765L133.3 116.005C131.17 117.331 128.377 116.633 127.05 114.503Z" fill="#473FCE"/>
</g>
</svg>
