<?xml version="1.0" encoding="utf-8"?>
<svg width="80" height="80" viewBox="0 0 80 80" fill="none" xmlns="http://www.w3.org/2000/svg">
<path d="M40 0C17.9407 0 0 17.9407 0 40C0 62.0593 17.9407 80 40 80C62.0593 80 80 62.0593 80 40C80 17.9407 62.0593 0 40 0Z" fill="#E986A6"/>
<path fill-rule="evenodd" clip-rule="evenodd" d="M63.025 72.6944L56.0598 50.9492H23.9413L16.9761 72.6947C23.4904 77.2953 31.4349 80.0003 40.0003 80.0003C48.5659 80.0003 56.5105 77.2952 63.025 72.6944Z" fill="#6A6A89"/>
<path d="M31.8667 23.8667C31.8667 23.8667 20.5038 14.2371 15.0815 16.9334C9.65931 19.6297 17.3334 35.0963 18.8741 35.5408C20.3852 35.9704 31.5852 30.2519 31.8667 23.8667Z" fill="#38355E"/>
<path d="M48.1924 23.8667C48.1924 23.8667 59.5553 14.2371 64.9776 16.9334C70.3998 19.6297 62.7257 35.0963 61.185 35.5408C59.6887 35.9704 48.4887 30.2519 48.1924 23.8667Z" fill="#38355E"/>
<path d="M68.444 47.4523C60.044 39.9116 63.8218 36.0894 57.0218 29.3931C49.5106 22.0153 40.1477 22.0449 40.1477 22.0449L40.118 22.1042L40.0884 22.0449C40.0884 22.0449 30.681 22.0153 23.2143 29.3931C16.3847 36.1042 18.7847 42.3857 11.7625 47.0672C9.09582 48.8301 10.1329 51.8523 12.2366 53.6746C14.3551 55.4968 28.8588 67.4375 40.0884 67.4375H40.118H40.1477C51.4069 67.4375 65.881 55.4968 67.9995 53.6746C70.118 51.8523 70.8143 49.6005 68.444 47.4523Z" fill="#8B8AA8"/>
<path d="M7.57031 50.8574C7.57031 50.8574 10.2962 51.5241 13.4074 51.3315C15.6888 51.1685 19.5111 58.813 19.5111 58.813C19.5111 58.813 11.3333 57.4352 7.57031 50.8574Z" fill="#C2C2D9"/>
<path d="M62.8595 44.1484C57.5706 40.2669 58.5632 33.3336 50.5039 32.9187C42.5187 32.5039 41.3928 43.1558 43.1558 49.7039C44.6521 55.2891 40.7113 51.5854 40.0447 50.9187V50.8595C40.0447 50.8595 40.0298 50.8743 40.015 50.8891C39.9706 50.8447 39.9558 50.8299 39.9558 50.8299V50.9484C39.2743 51.6002 35.1113 55.4373 36.6224 49.8224C38.3558 43.2447 37.7484 32.4891 29.4965 32.9187C21.4372 33.3336 22.4447 40.2669 17.1409 44.1484C11.8521 48.0298 7.80762 46.978 7.80762 46.978C9.37799 52.978 17.9113 60.0002 26.1335 63.4076C34.1187 66.741 40.0595 67.4817 40.0595 67.4817V67.4373C40.8447 67.3336 46.4743 66.4743 53.8817 63.378C62.0891 60.015 70.6372 52.978 72.2076 46.978C72.1928 46.9632 68.1632 48.0298 62.8595 44.1484Z" fill="#C2C2D9"/>
<path d="M72.43 50.8574C72.43 50.8574 69.7041 51.5241 66.593 51.3315C64.3115 51.1685 60.4893 58.813 60.4893 58.813C60.4893 58.813 68.667 57.4352 72.43 50.8574Z" fill="#C2C2D9"/>
<path d="M64.8144 57.4665C64.8144 57.4665 63.2144 51.0517 61.407 48.1035C58.9033 43.8961 56.044 37.6146 49.0514 38.5035C41.2292 39.4961 44.844 46.2665 46.2958 48.1035C47.7329 49.9258 50.9477 52.9184 48.8588 57.4665C46.3847 62.8295 40.8144 62.8591 40.0292 62.8295C40.0292 62.8295 40.0144 62.8295 39.9847 62.8295C39.9551 62.8295 39.9403 62.8295 39.9403 62.8295C39.1403 62.8591 33.5847 62.8146 31.1255 57.4665C29.0366 52.9035 32.2514 49.9258 33.6884 48.1035C35.1255 46.2813 38.7551 39.5109 30.9329 38.5035C23.9403 37.5998 21.081 43.8961 18.5773 48.1035C16.7847 51.0517 15.1699 57.4665 15.1699 57.4665C30.0292 68.1924 39.2884 67.5554 39.9847 67.4813C40.6958 67.5406 49.9551 68.1924 64.8144 57.4665Z" fill="#1D1D3F"/>
<path d="M40.4885 60.0133V56.3984H39.5552V60.0133C37.4663 59.9095 35.57 59.0799 34.1182 57.7614C35.3182 59.7762 37.4959 61.1244 40.0145 61.1244C42.5182 61.1244 44.7108 59.7762 45.9108 57.7614C44.4589 59.0799 42.5626 59.9095 40.4885 60.0133Z" fill="#6A6A89"/>
<path d="M45.3478 52.2358C45.3478 54.295 42.9774 56.6654 40.0145 56.6654C37.096 56.6654 34.6812 54.295 34.6812 52.2358C34.6812 50.1765 37.0515 49.258 40.0145 49.258C42.9626 49.2432 45.3478 50.1765 45.3478 52.2358Z" fill="#444466"/>
<path d="M44.8294 53.9695C44.4739 53.7176 44.0591 53.5547 43.6146 53.5547C42.4294 53.5547 41.4961 54.488 41.4961 55.6732C41.4961 55.9251 41.5257 56.1917 41.6294 56.4436C43.0368 56.0139 44.1924 55.051 44.8294 53.9695Z" fill="#04040A"/>
<path d="M36.415 53.5391C35.9409 53.5391 35.5113 53.6724 35.2002 53.9243C35.8372 55.0205 36.9928 55.9835 38.4446 56.428C38.5335 56.1761 38.578 55.9539 38.578 55.6576C38.5335 54.4724 37.6002 53.5391 36.415 53.5391Z" fill="#04040A"/>
<path d="M29.7782 48.2087C32.0773 48.2087 33.9412 46.3449 33.9412 44.0458C33.9412 41.7466 32.0773 39.8828 29.7782 39.8828C27.4791 39.8828 25.6152 41.7466 25.6152 44.0458C25.6152 46.3449 27.4791 48.2087 29.7782 48.2087Z" fill="white"/>
<path d="M28.1487 43.2167C28.6968 43.7056 29.5264 43.6463 30.0153 43.113C30.3561 42.7278 30.4301 42.1944 30.2524 41.75C30.9635 41.8981 31.5857 42.3426 31.9264 43.0389C32.4746 44.2093 31.9709 45.6167 30.8005 46.1648C29.6301 46.713 28.2227 46.2093 27.6746 45.0389C27.319 44.2833 27.4079 43.4241 27.8375 42.7574C27.8968 42.9352 28.0005 43.0981 28.1487 43.2167Z" fill="#04040A"/>
<path d="M50.5038 48.2087C52.8029 48.2087 54.6668 46.3449 54.6668 44.0458C54.6668 41.7466 52.8029 39.8828 50.5038 39.8828C48.2046 39.8828 46.3408 41.7466 46.3408 44.0458C46.3408 46.3449 48.2046 48.2087 50.5038 48.2087Z" fill="white"/>
<path d="M48.8738 43.2167C49.4219 43.7056 50.2515 43.6463 50.7404 43.113C51.0812 42.7278 51.1552 42.1944 50.9775 41.75C51.6886 41.8981 52.3108 42.3426 52.6515 43.0389C53.1997 44.2093 52.696 45.6167 51.5256 46.1648C50.3552 46.713 48.9478 46.2093 48.3997 45.0389C48.0441 44.2833 48.133 43.4241 48.5626 42.7574C48.6219 42.9352 48.7256 43.0981 48.8738 43.2167Z" fill="#04040A"/>
</svg>
