<?xml version="1.0" encoding="utf-8"?>
<svg width="80" height="80" viewBox="0 0 80 80" fill="none" xmlns="http://www.w3.org/2000/svg">
<mask id="mask0" mask-type="alpha" maskUnits="userSpaceOnUse" x="0" y="0" width="80" height="80">
<circle cx="40" cy="40" r="40" fill="#C4C4C4"/>
</mask>
<g mask="url(#mask0)">
<circle cx="40" cy="40" r="40" fill="#FFAEB7"/>
<path d="M43.9114 49.46C42.8271 47.7223 50.3477 29.4839 50.3477 29.4839L47.9845 18.9606C47.9845 18.9606 23.5878 12.0726 15.0594 38.0818C10.8056 51.0517 -8.00977 112.287 -8.00977 112.287H21.4053C33.8191 112.287 54.8656 93.096 54.8656 71.7993C54.8725 59.3159 46.1148 52.9839 43.9114 49.46Z" fill="#58BC2A"/>
<path d="M43.9502 45.8478C51.9634 44.1472 57.3063 37.3349 55.8838 30.6322C54.4613 23.9294 46.8121 19.8744 38.7988 21.575C30.7856 23.2757 25.4427 30.0879 26.8652 36.7907C28.2877 43.4934 35.9369 47.5485 43.9502 45.8478Z" fill="white"/>
<path d="M33.4857 23.6526C34.2155 23.2008 34.987 22.8115 35.8072 22.4918H35.8211C36.7664 22.1095 37.7603 21.7968 38.8029 21.5743C41.4094 21.0183 43.9811 21.0878 46.3096 21.6438H46.3374L47.9916 18.9609C47.9916 18.9609 35.8836 15.5412 25.7427 22.6169L31.4283 25.1192C32.0608 24.5909 32.7489 24.0905 33.4857 23.6526Z" fill="#D11C3E"/>
<path d="M39.4146 24.2148C40.061 23.5962 41.0549 23.4224 41.9029 23.8534C42.7439 24.2843 43.1818 25.1948 43.0567 26.0845L39.4146 24.2148Z" fill="#1D1D3F"/>
<path d="M-25.0664 126.953L-9.01741 105.768C-13.6604 80.6829 -1.99728 45.6934 23.9703 53.5963C50.7302 61.7424 35.133 121.566 -25.0664 126.953Z" fill="#409907"/>
<path d="M36.5648 72.5825C36.5578 72.5755 36.5578 72.5686 36.5509 72.5547C30.7819 88.8261 15.2611 100.482 -2.98427 100.482C-5.29883 100.482 -7.57168 100.288 -9.78893 99.9262C-9.62212 101.914 -9.36495 103.867 -9.01741 105.765L-25.0664 126.95C16.6929 123.211 36.9818 93.2814 36.5648 72.5825Z" fill="#409907"/>
<path d="M44.1476 37.9355C41.5342 40.5837 41.3743 45.8037 43.9113 49.4597C54.9489 49.9323 57.7778 40.6741 57.7778 40.6741L44.1476 37.9355Z" fill="#444466"/>
<path d="M47.9843 18.9609C42.5767 24.9107 49.6733 31.5277 44.1406 37.9361C50.7368 45.7903 61.6145 35.0655 63.2131 47.4794C68.2454 40.7998 67.5503 32.5355 62.108 26.4329C56.8255 20.5109 47.9843 18.9609 47.9843 18.9609Z" fill="#6A6A89"/>
<path d="M36.9608 38.8327C40.4041 38.8327 43.1955 36.0413 43.1955 32.598C43.1955 29.1547 40.4041 26.3633 36.9608 26.3633C33.5175 26.3633 30.7261 29.1547 30.7261 32.598C30.7261 36.0413 33.5175 38.8327 36.9608 38.8327Z" fill="#F9C319"/>
<path d="M36.9612 36.1022C38.8998 36.1022 40.4713 34.5307 40.4713 32.5921C40.4713 30.6535 38.8998 29.082 36.9612 29.082C35.0227 29.082 33.4512 30.6535 33.4512 32.5921C33.4512 34.5307 35.0227 36.1022 36.9612 36.1022Z" fill="#04040A"/>
<path d="M35.8006 31.5826C36.7257 31.5826 37.4757 30.8327 37.4757 29.9075C37.4757 28.9824 36.7257 28.2324 35.8006 28.2324C34.8755 28.2324 34.1255 28.9824 34.1255 29.9075C34.1255 30.8327 34.8755 31.5826 35.8006 31.5826Z" fill="white"/>
</g>
</svg>
