<?xml version="1.0" encoding="utf-8"?>
<svg width="80" height="80" viewBox="0 0 80 80" fill="none" xmlns="http://www.w3.org/2000/svg">
<mask id="mask0" mask-type="alpha" maskUnits="userSpaceOnUse" x="0" y="0" width="80" height="80">
<circle cx="40" cy="40" r="40" fill="#C4C4C4"/>
</mask>
<g mask="url(#mask0)">
<circle cx="40" cy="40" r="40" fill="#6D65DF"/>
<path d="M71.0707 84.8311C69.0875 79.3655 53.6284 68.7109 53.6284 68.7109L51.5156 79.439L63.0948 87.8901C63.0948 87.8901 62.4035 96.7646 59.1069 100.351L61.5135 103.945L64.0367 105.06C64.0367 105.06 73.6501 91.9428 71.0707 84.8311Z" fill="#FFD7B3"/>
<path d="M53.6287 68.7103L44.724 66.2778L45.5449 59.084H40.8873H40.87H36.2124L37.0203 66.3123L28.2495 68.7103L29.5068 98.3798H52.2807L53.6287 68.7103Z" fill="#FFD7B3"/>
<path d="M10.8068 84.8311C12.79 79.3655 28.2491 68.7109 28.2491 68.7109L30.3618 79.439L18.7826 87.8901C18.7826 87.8901 19.4739 96.7646 22.7706 100.351L20.364 103.945L17.8407 105.06C17.8407 105.06 8.22741 91.9428 10.8068 84.8311Z" fill="#FFD7B3"/>
<path d="M45.0825 63.1497L44.9054 64.6792C43.8469 65.1847 42.3951 65.5606 40.8786 65.5606C39.375 65.5606 37.9017 65.2668 36.8475 64.7699L36.666 63.141C36.666 63.141 37.5517 59.084 40.8786 59.084C44.2055 59.084 45.0825 63.1497 45.0825 63.1497Z" fill="#E8C19A"/>
<path d="M28.2493 68.709L16.8003 73.8652C16.8003 73.8652 21.6776 81.7529 30.0121 85.3476L28.2493 68.709Z" fill="#3FE0A2"/>
<path d="M53.499 68.6699L63.467 73.0647C63.467 73.0647 60.1181 82.6168 51.7837 86.2116L53.499 68.6699Z" fill="#3FE0A2"/>
<path d="M53.4987 68.6702L48.8584 67.4043C47.7567 70.6707 44.6113 72.7057 40.8956 72.7057C37.1885 72.7057 34.0474 70.688 32.937 67.4259L28.2492 68.7091C28.2492 68.7091 27.4758 72.7143 28.6726 79.623C30.1848 88.3722 25.6006 93.1637 29.4503 97.009H52.3451C56.2034 93.1508 51.615 88.3722 53.1229 79.623C54.3153 72.71 53.4987 68.6702 53.4987 68.6702Z" fill="#3FE0A2"/>
<path d="M32.4313 60.1553C21.8243 61.5249 18.5795 54.1626 18.5795 54.1626C17.9055 57.2216 19.0202 58.682 19.0202 58.682C19.0202 58.682 11.8307 55.7958 11.1048 44.3462C10.1673 29.5568 23.397 15.1692 32.2369 14.223C38.3722 13.5663 39.543 17.0876 39.543 17.0876C39.543 17.0876 43.1119 12.7843 49.6532 14.1236C59.3573 16.1068 70.2841 27.794 70.8112 45.0678C71.1655 56.6297 61.7164 59.9047 61.7164 59.9047C63.2804 57.8568 62.2089 55.3292 62.2089 55.3292C60.1134 60.8812 52.0512 60.475 52.0512 60.475L32.4313 60.1553Z" fill="#E0A33F"/>
<path d="M55.5209 42.4649C55.5209 42.4649 58.9644 38.3689 61.9673 39.9848C64.9701 41.6007 65.7348 47.4768 61.0426 50.8425C57.4393 53.4262 54.5747 52.4584 54.5747 52.4584L55.5209 42.4649Z" fill="#E8C19A"/>
<path d="M26.2186 42.4649C26.2186 42.4649 22.7751 38.3689 19.7723 39.9848C16.7694 41.6007 16.0047 47.4768 20.6969 50.8425C24.3002 53.4262 27.1648 52.4584 27.1648 52.4584L26.2186 42.4649Z" fill="#E8C19A"/>
<path d="M40.9085 18.8398C33.7709 18.8398 21.7769 22.7629 23.0299 36.7271C23.5743 42.7889 22.9521 47.4941 23.5008 50.4061C25.471 60.8966 35.4905 63.8735 40.9085 63.8735C46.3265 63.8735 56.346 60.8922 58.3162 50.4061C58.8649 47.4941 58.2427 42.7889 58.7871 36.7271C60.0401 22.7629 48.0461 18.8398 40.9085 18.8398Z" fill="#FFD7B3"/>
<path d="M29.6963 36.6101C29.6963 36.6101 31.1955 34.4153 33.7533 35.2664C34.8983 35.6467 34.7687 36.7743 34.7687 36.7743C32.3578 35.7763 29.6963 36.6101 29.6963 36.6101Z" fill="#E0A33F"/>
<path d="M52.1984 36.6101C52.1984 36.6101 50.6991 34.4153 48.1413 35.2664C46.9964 35.6467 47.126 36.7743 47.126 36.7743C49.5369 35.7763 52.1984 36.6101 52.1984 36.6101Z" fill="#E0A33F"/>
<path d="M45.078 55.0657C45.078 55.0657 39.984 56.4828 35.8232 53.4238C35.8232 53.4238 36.8515 56.323 40.2432 56.6902C42.909 56.9797 45.078 55.0657 45.078 55.0657Z" fill="#D8665D"/>
<path d="M47.9855 17.627C41.6212 33.8378 20.3984 34.9353 20.3984 34.9353L24.8487 18.7892L47.9855 17.627Z" fill="#E0A33F"/>
<path d="M42.5635 18.584C45.4756 31.7921 62.503 35.4473 62.503 35.4473L60.023 21.1115L42.5635 18.584Z" fill="#E0A33F"/>
<path d="M27.3846 40.7075C27.2939 40.8544 27.2248 41.0142 27.1686 41.1827C26.4211 41.6105 25.8076 41.2864 25.8076 41.2864C25.8076 41.2864 25.8595 42.3882 27.0649 42.4746C27.2075 43.5202 27.8556 44.5744 29.0221 45.0065L34.2803 40.2452C33.2131 38.7373 29.1172 37.8861 27.3846 40.7075Z" fill="#23201E"/>
<path d="M56.0089 41.3153C56.0089 41.3153 55.3954 41.6393 54.6479 41.2072C54.5917 41.0387 54.5226 40.8789 54.4362 40.7363C52.6993 37.9149 48.6034 38.7661 47.5405 40.2783L52.7987 45.0396C53.9696 44.6076 54.6177 43.549 54.7559 42.5077C55.9571 42.417 56.0089 41.3153 56.0089 41.3153Z" fill="#23201E"/>
<path d="M38.3335 49.9954C38.3335 49.9954 38.3033 47.2475 41.1117 47.3901C43.9071 47.5327 43.5442 50.259 43.5442 50.259C43.5442 50.259 42.9479 48.4228 41.0641 48.2888C38.9341 48.1376 38.3335 49.9954 38.3335 49.9954Z" fill="#D69E7F"/>
<path d="M36.1901 44.4663C36.1901 44.4663 34.6218 46.1124 31.8004 45.9785C29.4673 45.8661 28.6377 44.6434 28.6377 44.6434C26.8015 42.2714 28.3223 39.7784 31.0184 39.4025C33.1441 39.1044 35.7408 40.2278 36.1901 44.4663Z" fill="white"/>
<path d="M34.6393 42.4753C34.3715 41.2266 33.0926 40.4273 31.7791 40.6909C31.7748 40.6909 31.7661 40.6952 31.7618 40.6952C31.9303 40.8637 32.0513 41.0754 32.1031 41.3174C32.25 42.0043 31.7964 42.674 31.0878 42.8166C30.6385 42.9073 30.1978 42.7604 29.8996 42.4666C29.8305 42.7734 29.8219 43.0975 29.891 43.4215C30.1589 44.6702 31.4378 45.4695 32.7512 45.2059C34.0604 44.9467 34.9072 43.7239 34.6393 42.4753Z" fill="#3D5FC1"/>
<path d="M45.626 44.4936C45.626 44.4936 47.1944 46.1398 50.0157 46.0058C52.3488 45.8935 53.1784 44.6708 53.1784 44.6708C55.0146 42.2987 53.4938 39.8058 50.7977 39.4299C48.672 39.1317 46.071 40.2551 45.626 44.4936Z" fill="white"/>
<path d="M51.9343 42.5046C51.6664 41.2559 50.3875 40.4566 49.074 40.7202C49.0697 40.7202 49.0611 40.7245 49.0567 40.7245C49.2252 40.893 49.3462 41.1047 49.3981 41.3467C49.545 42.0336 49.0913 42.7033 48.3827 42.8459C47.9334 42.9366 47.4927 42.7897 47.1946 42.4959C47.1254 42.8027 47.1168 43.1267 47.1859 43.4508C47.4538 44.6994 48.7327 45.4988 50.0461 45.2352C51.3553 44.976 52.2021 43.7489 51.9343 42.5046Z" fill="#3D5FC1"/>
</g>
</svg>
