<?xml version="1.0" encoding="utf-8"?>
<svg width="80" height="80" viewBox="0 0 80 80" fill="none" xmlns="http://www.w3.org/2000/svg">
<mask id="mask0" mask-type="alpha" maskUnits="userSpaceOnUse" x="0" y="0" width="80" height="80">
<circle cx="40" cy="40" r="40" fill="#C4C4C4"/>
</mask>
<g mask="url(#mask0)">
<circle cx="40" cy="40" r="40" fill="#D27073"/>
<path d="M26.8209 72.082C22.0623 72.9567 11.1556 89.1745 10.825 89.7604C8.26361 94.247 11.2644 101.287 11.7248 108.276L17.0986 107.949C16.6048 101.236 18.0654 93.6234 18.0654 93.6234L27.4738 83.0557L29.3614 74.4844L26.8209 72.082Z" fill="#FFD3C0"/>
<path d="M53.1333 72.082C57.8919 72.9567 68.8488 89.593 69.1794 90.179C71.7408 94.6655 68.74 101.287 68.2796 108.276L62.9058 107.949C63.3996 101.236 61.939 93.6234 61.939 93.6234L52.5306 83.0557L50.6431 74.4844L53.1333 72.082Z" fill="#FFD3C0"/>
<path d="M53.1333 72.0828L43.7459 70.1241L44.5034 63.457H39.9917H39.9792H35.4633L36.2083 70.1241L26.8208 72.0828L28.0638 105.372H51.8861L53.1333 72.0828Z" fill="#EFB9A3"/>
<path d="M44.5035 63.457L43.8841 68.8769C42.8587 69.3666 41.4524 69.8228 39.9834 69.8228C38.527 69.8228 37.0998 69.4461 36.0786 68.9648L35.4634 63.4612H44.5035V63.457Z" fill="#EFB9A3"/>
<path d="M26.8214 72.082C22.0628 72.9567 11.1561 89.1745 10.8255 89.7604C8.2641 94.247 11.2649 101.287 11.7253 108.276L17.0991 107.949C16.6053 101.236 18.0659 93.6234 18.0659 93.6234L27.4743 83.0557L29.3618 74.4844L26.8214 72.082Z" fill="#FFD3C0"/>
<path d="M53.1338 72.082C57.8924 72.9567 68.8493 89.593 69.1799 90.179C71.7413 94.6655 68.7405 101.287 68.2801 108.276L62.9063 107.949C63.4001 101.236 61.9395 93.6234 61.9395 93.6234L52.5311 83.0557L50.6436 74.4844L53.1338 72.082Z" fill="#FFD3C0"/>
<path d="M22.8412 48.7455C12.2651 38.6256 16.8772 25.7016 21.8116 21.6671C27.0934 17.3437 28.0644 14.3932 28.0644 14.3932C30.1653 18.4528 28.6043 21.349 28.6043 21.349C35.3174 11.8611 47.8312 13.7026 47.8312 13.7026C44.2152 15.3181 43.0935 17.0801 43.0935 17.0801C49.8694 15.4897 52.6651 15.745 57.0178 19.7084C61.927 24.1782 65.2836 24.5674 65.2836 24.5674C62.5423 26.8191 60.4538 25.484 60.4538 25.484C67.7361 35.9178 58.6709 47.5653 58.6709 47.5653L22.8412 48.7455Z" fill="#6D3D30"/>
<path d="M54.1006 47.3441C54.1006 47.3441 57.4363 43.3765 60.345 44.9418C63.2537 46.507 63.9945 52.1989 59.4494 55.4592C55.9589 57.962 53.1841 57.0245 53.1841 57.0245L54.1006 47.3441Z" fill="#EFB9A3"/>
<path d="M25.7205 47.3441C25.7205 47.3441 22.3848 43.3765 19.4761 44.9418C16.5674 46.507 15.8266 52.1989 20.3717 55.4592C23.8622 57.962 26.637 57.0245 26.637 57.0245L25.7205 47.3441Z" fill="#EFB9A3"/>
<path d="M39.9502 68.7103C43.6416 68.7103 46.5461 66.8311 48.8229 65.7388C59.4241 60.6579 56.4191 47.5037 56.4191 47.5037C57.0553 30.1057 53.7992 24.9035 39.9921 24.8868C26.1892 24.87 22.8452 30.0764 23.4814 47.4744C23.4814 47.4744 20.6354 60.8714 31.4291 65.8518C33.6431 66.8772 36.4388 68.7103 39.9502 68.7103Z" fill="#FFD3C0"/>
<path d="M41.1643 30.5781C39.779 35.7971 34.0745 37.7558 34.0745 37.7558C44.7761 38.4965 47.7225 31.5658 47.7225 31.5658C47.7225 34.9851 44.5083 37.0108 44.5083 37.0108C49.9533 36.6048 52.5481 32.3317 52.5481 32.3317C52.6151 38.7979 58.7046 40.1916 58.7046 40.1916L57.5871 28.4018L40.7248 22.6387C40.7248 22.6387 26.4616 22.057 22.1257 35.0228C21.8829 35.7468 22.5191 37.3456 22.3726 38.8272C34.0703 38.0948 41.1643 30.5781 41.1643 30.5781Z" fill="#6D3D30"/>
<path d="M28.04 42.5775C28.04 42.5775 30.2247 40.0957 33.1167 41.0541C34.4141 41.4852 34.2635 42.7617 34.2635 42.7617C31.5389 41.6358 28.04 42.5775 28.04 42.5775Z" fill="#6D3D30"/>
<path d="M51.8582 42.5775C51.8582 42.5775 49.6735 40.0957 46.7815 41.0541C45.4841 41.4852 45.6347 42.7617 45.6347 42.7617C48.3593 41.6358 51.8582 42.5775 51.8582 42.5775Z" fill="#6D3D30"/>
<path d="M35.3765 48.8647C35.3765 48.8647 33.8573 50.4593 31.1243 50.3295C28.8643 50.2207 28.0607 49.0363 28.0607 49.0363C26.282 46.7386 27.7552 44.3237 30.3668 43.9596C32.4259 43.6708 34.9454 44.7632 35.3765 48.8647Z" fill="white"/>
<path d="M33.8782 46.9393C33.6187 45.7298 32.3799 44.9555 31.1076 45.2108C31.1034 45.2108 31.095 45.215 31.0909 45.215C31.2541 45.3782 31.3713 45.5833 31.4215 45.8176C31.5638 46.4831 31.1243 47.1318 30.438 47.2699C30.0027 47.3578 29.5758 47.2155 29.287 46.9309C29.2201 47.2281 29.2117 47.542 29.2787 47.8559C29.5381 49.0654 30.777 49.8396 32.0493 49.5843C33.3174 49.3332 34.1377 48.1488 33.8782 46.9393Z" fill="#34823B"/>
<path d="M44.5166 48.8921C44.5166 48.8921 46.0358 50.4867 48.7688 50.357C51.0288 50.2482 51.8324 49.0637 51.8324 49.0637C53.6111 46.766 52.1379 44.3512 49.5263 43.987C47.4672 43.6983 44.9519 44.7864 44.5166 48.8921Z" fill="white"/>
<path d="M50.6268 46.9627C50.3673 45.7532 49.1284 44.9789 47.8561 45.2342C47.8519 45.2342 47.8436 45.2384 47.8394 45.2384C48.0026 45.4016 48.1198 45.6067 48.17 45.8411C48.3123 46.5065 47.8729 47.1552 47.1865 47.2934C46.7512 47.3812 46.3243 47.2389 46.0356 46.9544C45.9686 47.2515 45.9602 47.5654 46.0272 47.8793C46.2867 49.0888 47.5255 49.8631 48.7978 49.6078C50.0701 49.3567 50.8862 48.1723 50.6268 46.9627Z" fill="#34823B"/>
<path d="M39.4155 49.9883C38.9718 51.5494 39.4196 52.1855 39.9386 52.4785C40.7673 52.9514 41.6587 52.5622 42.0563 53.1314C42.4079 53.6378 42.4665 54.2363 40.5162 55.9564C44.1657 54.6339 43.3538 52.4994 42.592 52.1395C41.9726 51.8465 41.642 51.9386 40.625 51.8214C40.0139 51.7503 39.5368 51.1769 39.4155 49.9883Z" fill="#D69A85"/>
<path d="M33.5762 57.5469C33.5762 57.5469 38.9416 63.5862 46.8852 58.1872C46.8852 58.1872 40.1888 61.3889 33.5762 57.5469Z" fill="#D69A85"/>
<path d="M32.9736 57.0488C33.8944 57.5218 34.8235 57.8775 35.7359 58.1454L40.0969 59.6018L44.6546 58.4216C46.3915 58.07 47.4755 57.618 47.4755 57.618C47.4755 57.618 46.2827 60.2798 43.7297 61.7572C42.6792 62.3641 40.0006 61.4475 40.0006 61.4475C40.0006 61.4475 37.2133 62.2008 36.2674 61.5731C33.7814 59.9157 32.9736 57.0488 32.9736 57.0488Z" fill="#23201E"/>
<path d="M40.1305 61.0628C37.9835 61.0209 36.2676 61.5776 36.2676 61.5776C37.1841 62.2095 38.2807 62.7118 39.8794 62.7578C41.4447 62.8039 42.6835 62.377 43.734 61.7659C43.7298 61.7659 42.2901 61.1046 40.1305 61.0628Z" fill="#C94747"/>
<path d="M44.6548 58.4227C42.4492 58.8705 39.1847 59.1551 35.7402 58.1465C36.4936 58.9542 37.837 59.9503 39.9631 60.0424C42.2273 60.1428 43.8261 59.1886 44.6548 58.4227Z" fill="white"/>
<path d="M46.7346 70.8223H33.2791L25.5322 115.412C25.5322 115.412 29.4705 122.372 40.0047 122.372C50.539 122.372 54.4815 115.412 54.4815 115.412L46.7346 70.8223Z" fill="#73BDE5"/>
<path d="M53.1333 72.0801C57.8584 73.4654 65.848 76.8471 70.6778 88.0342C73.8125 95.2955 72.8499 104.905 69.0204 106.6L66.413 108.621L62.2989 106.102C58.0635 102.971 60.3947 93.3243 60.3947 93.3243L52.924 87.8961L51.3462 78.1654L53.1333 72.0801Z" fill="#70C2D2"/>
<path d="M26.8167 72.0801C22.0916 73.4654 14.102 76.8471 9.27226 88.0342C6.13752 95.2955 7.10013 104.905 10.9296 106.6L13.537 108.621L17.6511 106.102C21.8865 102.971 19.5554 93.3243 19.5554 93.3243L27.026 87.8961L28.6038 78.1654L26.8167 72.0801Z" fill="#70C2D2"/>
<path d="M53.1338 72.0812L48.7435 70.7168C48.7435 70.7168 47.2452 75.5758 40.0047 75.5758C32.7601 75.5758 31.2743 70.7168 31.2743 70.7168L26.8212 72.0812C26.8212 72.0812 20.9577 107.534 25.6577 111.326C25.6577 111.326 31.0358 113.841 39.9963 113.9C48.9569 113.846 54.3433 111.326 54.3433 111.326C59.0475 107.538 53.1338 72.0812 53.1338 72.0812Z" fill="#70C2D2"/>
<path d="M40.0879 73.3745C36.4467 73.3745 34.8438 71.2986 34.2243 70.1142C33.9774 69.6371 33.4668 69.3567 32.9311 69.4195L32.8683 69.4278C32.0313 69.5283 31.4998 70.403 31.8304 71.1815C33.3371 74.718 37.0996 75.9819 39.9874 75.9819C42.8836 75.9819 46.8344 74.7682 48.2156 71.127C48.5127 70.3444 47.9686 69.4948 47.1358 69.4111L47.0688 69.4027C46.5247 69.3483 46.0183 69.6538 45.7798 70.1435C45.2106 71.3363 43.6997 73.3745 40.0879 73.3745Z" fill="#70C2D2"/>
<path d="M33.2915 68.1426L31.27 70.7165C31.7346 72.3529 33.8398 75.4458 36.7443 76.5633L40.0004 70.8211L33.2915 68.1426Z" fill="#E2F4F8"/>
<path d="M46.7215 68.1426L48.7429 70.7165C48.3035 72.3529 46.1732 75.4458 43.2687 76.5633L40 70.8211L46.7215 68.1426Z" fill="#E2F4F8"/>
</g>
</svg>
