<svg
  width="24"
  height="24"
  viewBox="0 0 24 24"
  fill="none"
  xmlns="http://www.w3.org/2000/svg"
>
<path
    fill-rule="evenodd"
    clip-rule="evenodd"
    d="M12 21C16.9706 21 21 16.9706 21 12C21 7.02944 16.9706 3 12 3C7.02944 3 3 7.02944 3 12C3 16.9706 7.02944 21 12 21ZM16.7682 9.64021C17.1218 9.21593 17.0645 8.58537 16.6402 8.2318C16.2159 7.87824 15.5853 7.93556 15.2318 8.35984L11 13.438L9.26822 11.3598C8.91465 10.9356 8.28409 10.8782 7.85981 11.2318C7.43553 11.5854 7.37821 12.2159 7.73177 12.6402L10.2318 15.6402C10.4218 15.8682 10.7032 16 11 16C11.2968 16 11.5782 15.8682 11.7682 15.6402L16.7682 9.64021Z"
    fill="#64639c"
  />
</svg>
