<svg width="296" height="120" fill="none" xmlns="http://www.w3.org/2000/svg"><g
    clip-path="url(#a)"
  ><path
      d="M141.123 27.683c3.12-5.198 10.635-5.198 13.755 0l9.864 16.434a8.028 8.028 0 0 0 5.067 3.691l17.945 4.167 6.913-1.931v10.164a7.961 7.961 0 0 1-1.971 5.045l-12.54 14.484a8.057 8.057 0 0 0-1.935 5.972l1.653 8.944c.019.218.029 10.598.031 10.811.055 5.708-5.788 9.742-11.159 7.46l-17.614-7.482a8.01 8.01 0 0 0-6.263 0l-17.614 7.482c-5.361 2.278-11.194-1.738-11.159-7.43.001-.223.011-10.613.031-10.84l1.654-8.945a8.061 8.061 0 0 0-1.935-5.972l-12.541-14.484a7.961 7.961 0 0 1-1.971-5.045V49.197l6.914 2.778 17.945-4.167a8.029 8.029 0 0 0 5.066-3.69l9.864-16.435Z"
      fill="#7776a8"
    /><path
      d="M141.123 21.235c3.12-5.198 10.635-5.198 13.755 0l9.864 16.434a8.028 8.028 0 0 0 5.067 3.691l17.945 4.167 6.913-1.931V53.76a7.962 7.962 0 0 1-1.971 5.044l-12.54 14.484a8.057 8.057 0 0 0-1.935 5.972l1.653 8.944c.019.218.029 10.598.031 10.811.055 5.708-5.788 9.742-11.159 7.461l-17.614-7.483a8.008 8.008 0 0 0-6.263 0l-17.614 7.483c-5.361 2.277-11.194-1.739-11.159-7.431.001-.223.011-10.613.031-10.84l1.654-8.945a8.061 8.061 0 0 0-1.935-5.972l-12.541-14.484a7.962 7.962 0 0 1-1.971-5.044V42.748l6.914 2.778 17.945-4.167a8.029 8.029 0 0 0 5.066-3.69l9.864-16.435Z"
      fill="#F4B73D"
    /><path
      d="M141.123 11.07c3.12-5.197 10.635-5.197 13.755 0l9.864 16.435a8.03 8.03 0 0 0 5.067 3.69l18.636 4.328c5.895 1.37 8.217 8.536 4.251 13.117l-12.54 14.485a8.066 8.066 0 0 0-1.936 5.972l1.654 19.109c.524 6.043-5.557 10.473-11.128 8.106l-17.614-7.482a8.008 8.008 0 0 0-6.263 0l-17.614 7.482c-5.571 2.367-11.651-2.063-11.128-8.106l1.654-19.11a8.061 8.061 0 0 0-1.935-5.971L103.305 48.64c-3.966-4.58-1.643-11.748 4.251-13.117l18.637-4.327a8.03 8.03 0 0 0 5.066-3.691l9.864-16.434Z"
      fill="#FFDF60"
    /><path
      d="M128.133 50.706a8.246 8.246 0 0 1 6.138-2.72 8.245 8.245 0 0 1 6.138 2.72m15.827 0a8.249 8.249 0 0 1 6.139-2.72c2.439 0 4.63 1.05 6.138 2.72m-9.529 13.604c-2.697 3.34-6.617 5.442-10.98 5.442s-8.283-2.102-10.98-5.441"
      stroke="#E6AA37"
      stroke-width="4.225"
      stroke-linecap="round"
    /></g><g clip-path="url(#b)"><path
      d="M72.513 63.713c1.733-2.888 5.909-2.888 7.642 0l5.48 9.13a4.46 4.46 0 0 0 2.815 2.05l9.97 2.315 3.84-1.073v5.647a4.427 4.427 0 0 1-1.095 2.803l-6.967 8.047a4.478 4.478 0 0 0-1.075 3.317l.919 4.969c.01.121.016 5.888.017 6.007.03 3.17-3.216 5.412-6.2 4.144l-9.785-4.157a4.452 4.452 0 0 0-3.48 0l-9.785 4.157c-2.979 1.265-6.219-.966-6.2-4.128 0-.124.007-5.896.018-6.023l.918-4.969a4.478 4.478 0 0 0-1.075-3.317l-6.966-8.047a4.422 4.422 0 0 1-1.096-2.803v-6.117l3.841 1.543 9.97-2.315a4.46 4.46 0 0 0 2.814-2.05l5.48-9.13Z"
      fill="#7776a8"
    /><path
      d="M72.513 60.131c1.733-2.888 5.909-2.888 7.642 0l5.48 9.13a4.46 4.46 0 0 0 2.815 2.05l9.97 2.315 3.84-1.073v5.648a4.427 4.427 0 0 1-1.095 2.802l-6.967 8.047a4.478 4.478 0 0 0-1.075 3.318l.919 4.969c.01.12.016 5.887.017 6.006.03 3.171-3.216 5.412-6.2 4.144l-9.785-4.157a4.452 4.452 0 0 0-3.48 0l-9.785 4.157c-2.979 1.265-6.219-.966-6.2-4.128 0-.124.007-5.896.018-6.022l.918-4.97a4.478 4.478 0 0 0-1.075-3.317l-6.966-8.047a4.422 4.422 0 0 1-1.096-2.802v-6.118l3.841 1.543 9.97-2.315a4.46 4.46 0 0 0 2.814-2.05l5.48-9.13Z"
      fill="#F4B73D"
    /><path
      d="M72.513 54.484c1.733-2.888 5.909-2.888 7.642 0l5.48 9.13a4.46 4.46 0 0 0 2.815 2.05l10.353 2.405c3.275.76 4.565 4.742 2.362 7.287l-6.967 8.047a4.479 4.479 0 0 0-1.075 3.317l.919 10.617c.29 3.357-3.088 5.818-6.183 4.503l-9.785-4.157a4.449 4.449 0 0 0-3.48 0l-9.785 4.157c-3.095 1.315-6.473-1.146-6.182-4.504l.918-10.616a4.479 4.479 0 0 0-1.075-3.317l-6.967-8.047c-2.203-2.545-.913-6.527 2.362-7.287l10.354-2.405a4.46 4.46 0 0 0 2.814-2.05l5.48-9.13Z"
      fill="#FFDF60"
    /><path
      d="M65.295 76.504a4.582 4.582 0 0 1 3.41-1.512 4.58 4.58 0 0 1 3.41 1.512m8.797 0a4.582 4.582 0 0 1 3.41-1.512 4.58 4.58 0 0 1 3.41 1.512m-5.294 7.557c-1.5 1.856-3.677 3.024-6.1 3.024-2.425 0-4.602-1.168-6.1-3.023"
      stroke="#E6AA37"
      stroke-width="2.347"
      stroke-linecap="round"
    /></g><g clip-path="url(#c)"><path
      fill-rule="evenodd"
      clip-rule="evenodd"
      d="M215.862 54.67c1.727-2.894 5.887-2.894 7.614 0l5.461 9.152a4.445 4.445 0 0 0 2.804 2.056l10.317 2.41c2.09.488 3.369 2.301 3.441 4.212h.003V80h-4.167v-.834l-3.866 4.492a4.506 4.506 0 0 0-1.071 3.326l.915 10.64c.29 3.366-3.076 5.833-6.16 4.515l-9.751-4.167a4.406 4.406 0 0 0-3.466 0l-9.751 4.167c-3.084 1.318-6.45-1.149-6.16-4.514l.915-10.641a4.506 4.506 0 0 0-1.071-3.326l-3.868-4.495V80h-4.167v-7.5h.005c.072-1.91 1.351-3.724 3.441-4.212l10.317-2.41a4.445 4.445 0 0 0 2.804-2.056l5.461-9.151Z"
      fill="#523f9f"
    /><path
      d="M215.86 61.337c1.727-2.894 5.888-2.894 7.615 0l5.46 9.152a4.443 4.443 0 0 0 2.805 2.055l10.316 2.41c3.263.763 4.549 4.754 2.353 7.305l-6.942 8.066a4.51 4.51 0 0 0-1.071 3.325l.916 10.641c.289 3.366-3.077 5.832-6.161 4.514l-9.75-4.166a4.404 4.404 0 0 0-3.467 0l-9.751 4.166c-3.084 1.318-6.45-1.148-6.16-4.514l.916-10.64a4.507 4.507 0 0 0-1.072-3.326l-6.942-8.066c-2.195-2.552-.91-6.542 2.353-7.305l10.317-2.41a4.448 4.448 0 0 0 2.805-2.055l5.46-9.152Z"
      fill="#7776a8"
    /><path
      d="M222.434 93.333h-6.932"
      stroke="#372778"
      stroke-width="2.347"
      stroke-linecap="round"
    /><rect
      x="212.168"
      y="79.167"
      width="2.5"
      height="6.667"
      rx="1.25"
      fill="#372778"
    /><rect
      x="223"
      y="79.167"
      width="2.5"
      height="6.667"
      rx="1.25"
      fill="#372778"
    /></g><defs><clipPath id="a"><path
        fill="#fff"
        transform="translate(101.334 7.172)"
        d="M0 0h93.333v106.401H0z"
      /></clipPath><clipPath id="b"><path
        fill="#fff"
        transform="translate(50.408 52.318)"
        d="M0 0h51.852v59.111H0z"
      /></clipPath><clipPath id="c"><path
        fill="#fff"
        transform="translate(193.744 52.318)"
        d="M0 0h51.852v59.111H0z"
      /></clipPath></defs></svg>
