<svg
  id="ssi-header-coin-image"
  width="40"
  height="40"
  viewBox="0 0 24 24"
  class="ds-icon icon__rJKI6 icon-DinoCoin"
><path d="M12 21a9 9 0 1 0 0-18 9 9 0 0 0 0 18Z" fill="#FFA800" /><path
    fill-rule="evenodd"
    clip-rule="evenodd"
    d="M19.2 12a7.2 7.2 0 1 1-14.4 0 7.2 7.2 0 0 1 14.4 0ZM12 16.629c2.556 0 4.92-2.514 4.92-5.07l-.08.019c-.672.163-2.809.682-3.225.713.443-2.227-.662-3.947-.662-3.947l-.03-.008-.003.001c-.079.047-1.851 1.105-2.516 3.222L7.88 9.282c-.351.653-.508 1.926-.508 2.718A4.629 4.629 0 0 0 12 16.63Z"
    fill="#FFE082"
  /></svg>
