<?xml version="1.0" encoding="utf-8"?>
<svg width="80" height="80" viewBox="0 0 80 80" fill="none" xmlns="http://www.w3.org/2000/svg">
<path d="M40 80C62.0914 80 80 62.0914 80 40C80 17.9086 62.0914 0 40 0C17.9086 0 0 17.9086 0 40C0 62.0914 17.9086 80 40 80Z" fill="#ACE6E3"/>
<path d="M61.2489 11.875C61.9366 11.875 62.5542 12.0294 63.1016 12.3943C68.084 15.7627 59.9016 32.8996 59.9016 32.8996L45.291 23.0469C45.277 23.0469 55.5086 11.875 61.2489 11.875Z" fill="#F49262"/>
<path d="M57.3338 15.3135C59.3829 14.0925 60.5899 13.8398 61.2355 13.8398C61.5583 13.8398 61.7969 13.896 61.9794 14.0223C62.4987 14.3732 62.7653 15.4258 62.7092 16.9276C62.6531 18.5837 62.246 20.7311 61.4741 23.2855C60.7022 25.8398 59.7338 28.282 59.032 29.9381L48.3232 22.7241C49.3478 21.6995 50.7794 20.3241 52.3794 18.9627C54.2039 17.4188 55.8741 16.1837 57.3338 15.3135Z" fill="#FF6161"/>
<path d="M16.842 12.3943C17.3754 12.0294 18.007 11.875 18.6947 11.875C24.435 11.875 34.6526 23.061 34.6526 23.061L20.042 32.9136C20.042 32.8996 11.8596 15.7487 16.842 12.3943Z" fill="#F49262"/>
<path d="M17.9503 14.0223C18.1328 13.896 18.3714 13.8398 18.6942 13.8398C19.3538 13.8398 20.5609 14.0925 22.5959 15.3135C24.0556 16.1837 25.7258 17.4048 27.5363 18.9627C29.1363 20.3381 30.5679 21.7135 31.5924 22.7241L20.8837 29.9381C20.1819 28.282 19.2135 25.8398 18.4416 23.2855C17.6696 20.7311 17.2486 18.5837 17.2065 16.9276C17.1644 15.4398 17.431 14.3732 17.9503 14.0223Z" fill="#FF6161"/>
<path d="M10.4839 57.6571C17.0804 52.7589 13.0944 47.0887 14.9751 37.4746C16.7576 25.2641 27.2698 15.8887 39.9716 15.8887C50.4839 15.8887 59.4944 22.3027 63.2979 31.4396C67.4383 40.6887 64.126 53.8396 71.747 57.7413C71.747 57.7413 60.3084 61.0536 55.1856 58.3448C56.8418 73.3624 21.4032 70.022 24.2804 58.4992C16.0979 61.8255 10.4839 57.6571 10.4839 57.6571Z" fill="#F49262"/>
<path d="M50.3442 18.108C49.8249 24.494 46.7934 27.5256 46.7934 27.5256C46.7934 27.5256 46.8495 22.2344 45.1934 16.4238C46.9899 16.8028 48.7162 17.3782 50.3442 18.108Z" fill="#E86946"/>
<path d="M33.1515 27.5256C33.1515 27.5256 30.1199 24.494 29.6006 18.108C31.2287 17.3782 32.955 16.8028 34.7515 16.4238C33.0953 22.2344 33.1515 27.5256 33.1515 27.5256Z" fill="#E86946"/>
<path d="M43.0041 16.0711C42.9199 23.7483 39.9725 31.3132 39.9725 31.3132C39.9725 31.3132 37.0251 23.7343 36.9409 16.0711C37.9374 15.9588 38.9479 15.8887 39.9725 15.8887C40.9971 15.8887 42.0076 15.9448 43.0041 16.0711Z" fill="#E86946"/>
<path d="M9.23486 52.6048C9.23486 52.6048 15.2419 57.6574 20.4068 52.4644C24.9963 47.8469 19.0735 41.4609 19.0735 41.4609L14.5822 43.6925C14.5682 43.6925 14.891 51.0188 9.23486 52.6048Z" fill="#F49262"/>
<path d="M73.8659 49.0819C73.8659 49.0819 69.501 55.2714 64.294 49.7556C59.6624 44.8574 65.5993 41.2363 65.5993 41.2363C65.5993 41.2363 66.3431 47.5241 73.8659 49.0819Z" fill="#F49262"/>
<path d="M46.0912 38.5708L43.3403 39.6375L44.7158 37.041L46.0912 38.5708Z" fill="#D85639"/>
<path d="M57.7962 32.5907C57.7401 32.5345 57.6699 32.4784 57.6138 32.4082C57.6699 32.4784 57.7261 32.5345 57.7962 32.5907Z" fill="#888C99"/>
<path d="M52.1264 30.1641C54.1053 30.1641 56.0983 30.95 57.6141 32.4097C56.0141 30.922 54.2176 31.0763 52.0001 31.0763L50.6387 31.7781L52.1264 30.1641Z" fill="#888C99"/>
<path d="M49.2495 30.7532C50.1618 30.3602 51.1443 30.1777 52.1267 30.1777L49.1092 32.1567L48.5337 32.4093C47.439 32.4093 47.8741 32.8865 46.8776 33.3076C46.4846 33.476 46.1478 33.6163 45.853 33.7146C46.653 32.4093 47.8179 31.3567 49.2495 30.7532Z" fill="#888C99"/>
<path d="M50.3439 39.483C50.9474 39.483 51.5509 39.4128 52.1404 39.2585C55.1158 38.4865 57.3614 35.876 57.7825 32.69C57.7825 32.662 57.7965 32.6339 57.7965 32.5918C57.8948 36.1286 55.6211 39.3146 52.3228 40.1707C51.6772 40.3392 51.0176 40.4234 50.3439 40.4234C48.379 40.4234 46.3158 39.6374 44.772 38.3462V38.2199L44.7158 37.0409C46.2316 38.6128 48.2667 39.483 50.3439 39.483Z" fill="#D85639"/>
<path d="M49.2492 30.7533C52.0983 29.5323 55.5228 30.2762 57.7965 32.5919C57.4176 35.82 55.1439 38.4867 52.1404 39.2586C49.5158 39.9323 46.6667 39.0621 44.7158 37.0411C45.0246 34.234 46.7509 31.82 49.2492 30.7533Z" fill="#95CC3E"/>
<path d="M50.7643 38.3047C51.7564 38.3047 52.5608 37.0039 52.5608 35.3994C52.5608 33.7949 51.7564 32.4941 50.7643 32.4941C49.7721 32.4941 48.9678 33.7949 48.9678 35.3994C48.9678 37.0039 49.7721 38.3047 50.7643 38.3047Z" fill="#181428"/>
<path d="M49.3053 37.1117C49.8092 37.1117 50.2176 36.7032 50.2176 36.1994C50.2176 35.6956 49.8092 35.2871 49.3053 35.2871C48.8015 35.2871 48.3931 35.6956 48.3931 36.1994C48.3931 36.7032 48.8015 37.1117 49.3053 37.1117Z" fill="white"/>
<path d="M49.2492 30.7533C52.0983 29.5323 55.5228 30.2762 57.7965 32.5919C57.7965 32.5919 55.0737 32.5077 51.0456 33.7849C47.7334 34.8376 44.7158 37.0411 44.7158 37.0411C45.0246 34.234 46.7509 31.82 49.2492 30.7533Z" fill="#D85639"/>
<path d="M35.5367 41.918C37.4034 41.918 39.0455 42.7039 39.9718 43.8969C40.8981 42.718 42.5402 41.918 44.4069 41.918C47.2981 41.918 49.656 43.8127 49.656 46.1425C49.656 48.4724 47.3122 50.3671 44.4069 50.3671C44.3086 50.3671 44.2244 50.3531 44.1262 50.3531C43.5648 51.9531 41.9227 53.118 39.9718 53.118C38.0209 53.118 36.3648 51.9531 35.8174 50.3531C35.7192 50.3531 35.635 50.3671 35.5367 50.3671C32.6455 50.3671 30.2876 48.4724 30.2876 46.1425C30.2876 43.8127 32.6455 41.918 35.5367 41.918Z" fill="white"/>
<path d="M42.7927 50.1282C42.6243 50.1422 42.4559 50.1282 42.2875 50.1001C41.1366 49.9457 39.9857 48.6124 39.9857 48.6124C39.9857 48.6124 38.8208 49.9457 37.684 50.1001C37.5156 50.1282 37.3471 50.1282 37.1787 50.1282L39.9998 47.3633L42.7927 50.1282Z" fill="#E86946"/>
<path d="M59.3403 52.3051C62.3578 53.7367 64.9824 55.2525 67.1999 56.7122C64.9543 55.3367 62.3438 53.9192 59.3403 52.6139C55.0596 50.7472 51.0877 49.5543 47.7192 48.7823C47.7613 48.5718 47.8175 48.3472 47.8596 48.1367C51.1999 49.0069 55.1157 50.3122 59.3403 52.3051Z" fill="white"/>
<path d="M68.9265 41.1338C66.2879 41.1479 63.2985 41.3163 60.0564 41.7794C55.4248 42.4391 51.4248 43.5057 48.1546 44.6286C48.0704 44.418 48.0002 44.2075 47.916 44.011C51.2143 43.0005 55.2423 42.0461 59.8739 41.5268C63.2002 41.1479 66.2458 41.0636 68.9265 41.1338Z" fill="white"/>
<path d="M61.4315 46.9453C64.9122 47.4926 68.0139 48.2646 70.7087 49.0786C68.028 48.3488 64.9543 47.7032 61.5297 47.254C56.6455 46.6225 52.2806 46.6084 48.6455 46.819C48.6315 46.5804 48.6034 46.3558 48.5894 46.1172C52.2244 46.019 56.5753 46.1874 61.4315 46.9453Z" fill="white"/>
<path d="M39.9721 42.3824C40.2528 42.214 41.2213 41.428 42.9335 42.0876L39.9721 45.0911L37.0107 42.0876C38.723 41.428 39.6914 42.214 39.9721 42.3824Z" fill="#FF6161"/>
<path d="M32.084 48.1367C32.1261 48.3472 32.1822 48.5718 32.2244 48.7823C28.8559 49.5543 24.884 50.7332 20.6033 52.6139C17.5998 53.9332 14.9893 55.3508 12.7437 56.7122C14.9752 55.2525 17.5858 53.7227 20.6033 52.3051C24.8138 50.3122 28.7437 49.0069 32.084 48.1367Z" fill="white"/>
<path d="M20.0556 41.5268C24.7012 42.0461 28.7292 43.0005 32.0135 44.011C31.9292 44.2215 31.8591 44.4321 31.7749 44.6286C28.5047 43.5198 24.5047 42.4391 19.8731 41.7794C16.631 41.3163 13.6415 41.1479 11.0029 41.1338C13.6977 41.0636 16.7292 41.1479 20.0556 41.5268Z" fill="white"/>
<path d="M31.3542 46.1291C31.3401 46.3677 31.3121 46.5923 31.298 46.8309C27.6629 46.6063 23.298 46.6344 18.4138 47.266C14.9892 47.7011 11.9156 48.3607 9.23486 49.0905C11.9296 48.2765 15.0314 47.5046 18.5121 46.9572C23.3682 46.1853 27.7191 46.0168 31.3542 46.1291Z" fill="white"/>
<path d="M36.6039 39.6356L33.853 38.5689L35.2285 37.0391L36.6039 39.6356Z" fill="#D85639"/>
<path d="M22.1475 32.5887C22.2036 32.5326 22.2738 32.4764 22.3299 32.4062C22.2738 32.4764 22.2036 32.5326 22.1475 32.5887Z" fill="#888C99"/>
<path d="M27.8178 30.1621L29.3055 31.7761L27.9441 31.0744C25.7266 31.0744 23.9301 30.92 22.3301 32.4077C23.8459 30.9481 25.8389 30.1621 27.8178 30.1621Z" fill="#888C99"/>
<path d="M34.0911 33.7126C33.8104 33.6003 33.4735 33.474 33.0665 33.3056C32.07 32.8846 32.5051 32.4074 31.4104 32.4074L30.8349 32.1547L27.8174 30.1758C28.7998 30.1758 29.7683 30.3723 30.6946 30.7512C32.1121 31.3547 33.2911 32.4074 34.0911 33.7126Z" fill="#888C99"/>
<path d="M22.1616 32.6881C22.5827 35.8741 24.8283 38.4986 27.8037 39.2565C28.3932 39.4109 28.9967 39.4811 29.6002 39.4811C31.6634 39.4811 33.7125 38.6109 35.2283 37.039L35.1722 38.2179V38.3442C33.6283 39.6355 31.5651 40.4214 29.6002 40.4214C28.9265 40.4214 28.2669 40.3372 27.6213 40.1688C24.323 39.3267 22.0493 36.1407 22.1476 32.5898C22.1476 32.6179 22.1476 32.66 22.1616 32.6881Z" fill="#D85639"/>
<path d="M30.6943 30.7524C33.1926 31.8191 34.9189 34.2471 35.2277 37.0401C33.2768 39.0752 30.4277 39.9313 27.8031 39.2577C24.7996 38.4857 22.54 35.8191 22.147 32.591C24.4207 30.2612 27.8312 29.5313 30.6943 30.7524Z" fill="#95CC3E"/>
<path d="M29.1651 38.3027C30.1573 38.3027 30.9616 37.002 30.9616 35.3975C30.9616 33.7929 30.1573 32.4922 29.1651 32.4922C28.173 32.4922 27.3687 33.7929 27.3687 35.3975C27.3687 37.002 28.173 38.3027 29.1651 38.3027Z" fill="#181428"/>
<path d="M27.7048 37.1097C28.2086 37.1097 28.617 36.7013 28.617 36.1974C28.617 35.6936 28.2086 35.2852 27.7048 35.2852C27.2009 35.2852 26.7925 35.6936 26.7925 36.1974C26.7925 36.7013 27.2009 37.1097 27.7048 37.1097Z" fill="white"/>
<path d="M30.6943 30.7524C33.1926 31.8191 34.9189 34.2471 35.2277 37.0401C35.2277 37.0401 32.2101 34.8226 28.8978 33.784C24.8698 32.5068 22.147 32.591 22.147 32.591C24.4207 30.2612 27.8312 29.5313 30.6943 30.7524Z" fill="#D85639"/>
<path fill-rule="evenodd" clip-rule="evenodd" d="M67.4363 69.1077C60.2744 75.8608 50.6206 80 40 80C29.9681 80 20.7988 76.307 13.7774 70.2063C13.4321 69.9003 13.0875 69.5861 12.7437 69.2638C12.7437 69.2638 17.2349 65.2217 28.3507 63.3831C29.9576 63.1153 31.7091 64.2587 33.605 65.4965C35.5839 66.7884 37.7201 68.1831 40.0138 68.1831C42.3213 68.1831 44.4605 66.789 46.4426 65.4973C48.3425 64.2592 50.098 63.1152 51.7191 63.3831C62.686 65.1716 67.3253 69.0146 67.4363 69.1077Z" fill="#176BBF"/>
<path d="M40.0844 74.3861C32.7862 74.3861 20.4072 70.2036 20.4072 65.1931V63.2001C20.4072 60.4773 22.9195 58.2598 26.0072 58.2598C26.0072 58.2598 32.73 62.9335 39.9721 62.9475C47.3125 62.9615 54.1616 58.2598 54.1616 58.2598C57.2634 58.2598 59.7616 60.4773 59.7616 63.2001V65.1931C59.7616 70.5405 47.3686 74.3861 40.0844 74.3861Z" fill="#31A6D3"/>
<path d="M35.3408 54.8086C35.3408 54.8086 36.6742 57.8402 40.0847 57.8542C43.4531 57.8542 44.8285 54.8086 44.8285 54.8086C44.8285 54.8086 40.0847 57.8542 35.3408 54.8086Z" fill="#E86946"/>
</svg>
