<svg width="151" height="151" viewBox="0 0 151 151" fill="none" xmlns="http://www.w3.org/2000/svg">
<mask id="mask0" mask-type="alpha" maskUnits="userSpaceOnUse" x="0" y="0" width="151" height="151">
<circle cx="75.9082" cy="75.7024" r="75" fill="#C4C4C4"/>
</mask>
<g mask="url(#mask0)">
<circle cx="75.9082" cy="75.7024" r="75" fill="#DEEFF3"/>
<path d="M50.3244 114.488C48.9454 114.295 47.5388 114.406 46.215 114.737C45.5531 114.847 44.9463 115.095 44.4223 115.536C43.8983 115.95 43.5121 116.502 43.2639 117.136C43.1812 117.743 43.2639 118.377 43.4846 118.956C43.7052 119.535 44.0637 120.06 44.505 120.473C45.8289 121.99 47.4837 123.148 49.3591 123.921C49.3591 125.962 49.1109 128.003 48.6421 129.988C48.6145 130.071 48.5869 130.126 48.5593 130.209C48.4214 130.347 48.1732 130.209 48.0077 130.209C46.408 129.382 44.6429 128.913 42.8226 128.83C42.1607 128.747 41.5264 128.802 40.892 128.995C40.2577 129.189 39.6785 129.492 39.182 129.906C38.7959 130.319 38.4925 130.816 38.3271 131.367C38.1616 131.919 38.1064 132.498 38.1892 133.05C38.3546 134.181 38.7408 135.284 39.3199 136.249C40.8369 139.035 42.8778 141.489 45.36 143.448C44.0086 145.102 42.9054 146.95 42.1055 148.936C41.2506 148.219 40.368 147.557 39.4027 146.978C38.6304 146.481 37.7203 146.15 36.7826 146.068C36.3137 146.012 35.8448 146.123 35.4311 146.316C35.0174 146.536 34.6589 146.84 34.4382 147.254C34.19 147.888 34.1073 148.577 34.2176 149.239C34.521 152.466 35.4587 155.583 36.9756 158.451C34.6313 159.996 32.287 161.513 29.9427 163.057C29.3359 160.52 27.8742 158.258 25.8056 156.686C25.4471 156.327 25.0058 156.052 24.5094 155.914C24.0129 155.776 23.5165 155.776 23.02 155.886C22.5236 156.024 22.0823 156.272 21.7238 156.631C21.3652 156.989 21.0894 157.431 20.9791 157.927C19.9035 160.327 19.2691 162.892 19.1588 165.512C17.5592 165.567 15.9595 165.429 14.415 165.07C14.4978 164.022 14.415 162.864 14.415 161.816C14.4426 161.292 14.415 160.795 14.3047 160.271C14.1116 159.582 13.7807 158.948 13.3118 158.424C12.843 157.762 12.181 157.265 11.4088 157.017C10.8848 156.879 10.3056 156.879 9.78154 157.017C9.25752 157.155 8.76109 157.403 8.34738 157.762C7.51998 158.451 6.80289 159.279 6.25128 160.216L5.2584 161.65C4.15519 160.244 2.80377 159.085 1.28686 158.175C0.376713 157.458 -0.423115 156.631 -1.08504 155.693C0.376713 153.68 1.50749 151.446 2.22458 149.074C2.4728 148.302 2.63828 147.502 2.69344 146.702C2.7486 146.206 2.66586 145.737 2.50037 145.268C2.27973 144.827 1.9212 144.468 1.47992 144.22C1.03864 143.972 0.569767 143.861 0.0733261 143.861C-0.919563 143.916 -1.88488 144.165 -2.73987 144.633C-4.03614 145.24 -5.30481 145.957 -6.49075 146.785C-7.20784 144.909 -7.84219 143.006 -8.31106 141.076C-8.33864 140.965 -8.33864 140.855 -8.31106 140.745C-8.28348 140.634 -8.22832 140.524 -8.14558 140.414L-5.69095 137.104C-4.83596 136.166 -4.31193 134.98 -4.25677 133.739C-4.28435 133.353 -4.42225 132.995 -4.64289 132.719C-4.86353 132.526 -5.08418 132.36 -5.35998 132.25C-6.21496 131.891 -7.12512 131.698 -8.06285 131.698C-9.00057 131.698 -9.91071 131.891 -10.7657 132.25C-12.0895 140.276 -8.55928 148.302 -4.47741 155.279C-3.15356 157.817 -1.38842 160.106 0.762829 162.009C2.80376 163.498 5.06533 164.712 7.43723 165.539C9.34027 166.367 11.2985 167.056 13.2842 167.58C15.5182 168.049 17.835 168.242 20.1241 168.104C24.9231 167.911 29.6393 166.891 34.0521 165.043C35.7069 164.381 37.279 163.471 38.658 162.34C39.7336 161.375 40.7265 160.271 41.5539 159.058C45.0015 154.535 48.2008 149.46 48.5593 143.696C48.5317 141.958 48.6421 140.193 48.8903 138.483C49.497 135.67 51.538 133.243 51.7862 130.374C51.8138 129.216 51.7586 128.03 51.5931 126.872C51.1519 122.762 52.1447 118.267 50.3244 114.488Z" fill="#1F193C"/>
<path d="M43.6768 99.2625C41.5531 100.2 39.2916 100.807 36.9748 101.055C36.175 101.166 35.3476 101.138 34.5202 100.973C34.0789 100.89 33.6652 100.697 33.3342 100.393C33.0033 100.09 32.7275 99.7314 32.5896 99.3177C32.4241 98.904 32.3965 98.4351 32.4517 97.9939C32.5344 97.5526 32.6999 97.1389 33.0033 96.7803C33.5549 95.9805 34.2444 95.291 35.0442 94.767C36.0371 93.9671 37.1127 93.3052 38.2711 92.7812C38.3263 92.7536 38.3814 92.726 38.4366 92.6709C38.4642 92.6157 38.4642 92.533 38.4366 92.4778C38.078 91.0988 37.7195 89.7198 37.3885 88.3408C34.8236 88.3408 32.231 88.1201 29.7212 87.6513C29.0042 87.6237 28.3146 87.4031 27.6803 87.0445C27.046 86.686 26.5219 86.1895 26.1358 85.6103C25.9428 85.1139 25.8876 84.6175 25.9703 84.0934C26.0531 83.5694 26.2461 83.1005 26.5495 82.6868C27.1839 81.8594 27.9561 81.1975 28.8662 80.7011C31.4036 79.1842 34.2444 78.2464 37.1955 77.943C37.3058 75.7642 37.7471 73.6405 38.5193 71.5996C36.7266 71.048 34.9615 70.4412 33.1963 69.7517C31.2106 69.1174 29.4178 67.9866 28.0113 66.4145C27.6251 65.9732 27.3493 65.4768 27.2114 64.8976C27.0735 64.346 27.0735 63.7668 27.1839 63.1876C27.3493 62.7188 27.5976 62.3051 27.9285 61.9741C28.2595 61.6431 28.6732 61.3673 29.1421 61.2019C34.2444 59.354 39.5674 61.2019 40.6706 62.3602C41.0291 61.3949 41.498 60.4572 42.0772 59.6022C40.5051 58.4163 39.2088 56.9269 38.2987 55.217C37.8574 54.4999 37.6092 53.6725 37.5264 52.8175C37.4988 52.4038 37.5816 51.9625 37.7471 51.5764C37.9126 51.1903 38.1884 50.8593 38.5193 50.5835C38.9606 50.3628 39.4295 50.2249 39.9259 50.1974C40.4224 50.1698 40.8912 50.2525 41.3601 50.418C43.8699 51.1351 46.0211 52.7899 47.3726 55.0239C46.159 56.7615 45.1937 58.4714 43.9802 60.2366C43.2907 61.2019 42.6839 62.2499 42.1323 63.298C41.3601 65.1458 40.8361 67.0764 40.5878 69.0622C40.2293 70.9101 40.0362 72.758 39.9811 74.6334C40.0086 76.1503 40.1465 77.6672 40.3948 79.1566C41.4152 85.6655 43.2355 92.009 45.8005 98.0766C45.2489 98.3248 44.2008 99.0419 43.6768 99.2625Z" fill="#1F193C"/>
<path d="M67.174 23.4702C66.7603 22.6152 66.1259 21.843 65.3537 21.2638C64.5815 20.6846 63.6989 20.2985 62.7336 20.133C61.7959 19.9675 60.803 20.0503 59.8928 20.3261C58.9827 20.6294 58.1277 21.1259 57.4658 21.7878C52.4737 25.9248 45.8545 55.4081 45.8545 55.4081L61.5201 56.401C61.5201 56.401 79.3369 46.61 67.174 23.4702Z" fill="#007998"/>
<path d="M61.1347 53.618L52.6676 54.5833C53.3571 51.2737 56.3634 37.7042 60.1694 32.2985C60.4452 31.8296 60.8314 31.4435 61.2726 31.1677C61.7139 30.8643 62.2379 30.6713 62.762 30.5885C63.286 30.5058 63.8376 30.5334 64.3616 30.6713C64.8856 30.8092 65.3545 31.0574 65.7682 31.4159C67.947 33.2087 70.3741 37.2078 67.8091 46.0059C67.3403 47.5779 66.568 49.0397 65.4924 50.3084C64.4444 51.5771 63.1205 52.5975 61.6588 53.3422C61.3554 53.5077 61.1347 53.618 61.1347 53.618Z" fill="#6AC15F"/>
<path d="M91.3088 32.4868C90.7847 31.1353 89.7918 29.977 88.5507 29.2323C87.2269 28.4325 84.9653 28.4049 82.4003 29.8115C77.298 32.6247 66.5969 57.4468 66.5969 57.4468L80.2215 60.922C80.2215 60.922 98.1762 54.8819 91.3088 32.4868Z" fill="#007998"/>
<path d="M79.9171 58.3074L72.2498 57.7558C73.4081 54.9427 78.2898 43.4693 82.5372 39.3323C82.8681 38.9737 83.2818 38.6979 83.7231 38.5049C84.1644 38.3118 84.6609 38.2291 85.1297 38.2566C85.6262 38.2842 86.095 38.3945 86.5363 38.5876C86.9776 38.8082 87.3637 39.1116 87.6671 39.4702C89.2943 41.4008 90.7285 45.3172 87.0603 52.6535C86.3984 53.9773 85.4607 55.1357 84.3299 56.0734C83.1991 57.0112 81.8752 57.7007 80.4687 58.1144L79.9171 58.3074Z" fill="#6AC15F"/>
<path d="M76.5525 57.0098C76.5525 57.0098 48.9171 45.371 40.4776 59.9609C32.038 74.5508 31.7898 102.931 49.91 102.517C49.91 102.517 49.5239 152.548 29.6661 161.511C9.83596 170.475 -10.2424 159.967 -10.7389 113.301C-10.7389 113.301 -18.682 105.634 -27.5076 144.301C-36.3333 182.996 -3.95413 231.565 24.5086 230.131C24.5086 230.131 79.9724 266.15 112.931 223.511C141.118 187.023 103.719 146.535 92.3283 135.586C90.3426 133.71 88.7981 131.421 87.7776 128.884C86.7571 126.346 86.3158 123.616 86.4262 120.886C86.5917 118.403 87.0329 115.921 87.7776 113.522C87.7776 113.522 113.179 120.913 121.949 105.33C121.949 105.33 124.239 102.131 123.99 91.8712C123.99 91.8712 129.644 88.9201 128.514 83.0179C127.466 78.8257 125.507 74.9093 122.777 71.5446L108.711 64.1531C108.711 64.1531 105.732 59.2438 101.402 63.2153C101.402 63.2153 100.63 56.7616 93.9556 61.0365L76.5525 57.0098Z" fill="#007998"/>
<path d="M81.1304 81.9944C74.7318 81.3876 70.0432 75.7061 70.6499 69.3075C71.2567 62.9089 76.9382 58.2202 83.3368 58.827C89.7354 59.4338 94.424 65.1153 93.8173 71.5139C93.2105 77.9125 87.5014 82.6011 81.1304 81.9944Z" fill="white"/>
<path d="M84.7169 78.3848C81.9589 78.109 79.9455 75.682 80.1938 72.8964C80.4696 70.1384 82.8966 68.125 85.6822 68.3732C88.4403 68.649 90.4536 71.0761 90.2054 73.8617C89.9296 76.6473 87.4749 78.6606 84.7169 78.3848Z" fill="#1F193C"/>
<path d="M44.9185 71.7336C44.3117 65.335 49.0003 59.6535 55.3989 59.0467C61.7975 58.44 67.4791 63.1286 68.0858 69.5272C68.6926 75.9258 64.004 81.6073 57.6054 82.2141C51.2068 82.8209 45.5252 78.1322 44.9185 71.7336Z" fill="white"/>
<path d="M54.4878 74.1072C54.212 71.3492 56.253 68.8945 59.011 68.6187C61.769 68.3429 64.2236 70.3839 64.4994 73.1419C64.7752 75.8999 62.7343 78.3545 59.9763 78.6303C57.2183 78.8786 54.7636 76.8652 54.4878 74.1072Z" fill="#1F193C"/>
<path d="M93.6802 66.5245C93.1286 63.932 91.6944 61.5877 89.6259 59.9329C87.5574 58.2505 84.9648 57.3403 82.3171 57.3403C79.6694 57.3403 77.0769 58.2505 75.0084 59.9329C72.9399 61.6153 71.5057 63.932 70.9541 66.5245H93.6802Z" fill="#00657C"/>
<path d="M68.0293 66.5245C67.4777 63.932 66.0435 61.5877 63.975 59.9329C61.9065 58.2505 59.314 57.3403 56.6663 57.3403C54.0186 57.3403 51.426 58.2505 49.3575 59.9329C47.289 61.6153 45.8548 63.932 45.3032 66.5245H68.0293Z" fill="#00657C"/>
<path d="M56.6666 54.8052C59.1764 54.8052 61.6586 55.4395 63.8926 56.5979C66.1266 57.7563 68.0296 59.4386 69.4913 61.4796C71.422 58.7767 74.1524 56.7358 77.3241 55.6877C80.4958 54.6397 83.8882 54.6121 87.0599 55.6326C90.2317 56.653 92.9897 58.6388 94.9755 61.3417C96.9337 64.017 98.0093 67.2714 98.0093 70.6086C98.0093 73.9458 96.9612 77.1727 94.9755 79.8756C92.9897 82.5784 90.2317 84.5642 87.0599 85.5847C83.8882 86.6051 80.4683 86.5776 77.3241 85.5295C74.1524 84.4815 71.422 82.4405 69.4913 79.7377C67.9469 81.9441 65.8232 83.7368 63.3961 84.8952C60.9415 86.0535 58.2386 86.5776 55.5358 86.3845C52.8329 86.1914 50.2128 85.3365 47.9512 83.8471C45.6896 82.3578 43.8418 80.3169 42.6007 77.9174C41.3595 75.5179 40.7528 72.815 40.8631 70.1122C40.9734 67.4093 41.7457 64.7616 43.1798 62.4725C44.5864 60.1557 46.5722 58.2527 48.9441 56.9288C51.316 55.605 53.9637 54.9155 56.6941 54.9431V54.8052H56.6666ZM81.3233 80.6754C83.3366 80.8685 85.35 80.4823 87.1151 79.5446C88.8802 78.6069 90.342 77.1451 91.2797 75.38C92.2174 73.6149 92.6311 71.6015 92.4381 69.5882C92.245 67.5748 91.4728 65.6994 90.1765 64.1273C88.9078 62.5828 87.1978 61.4244 85.2672 60.8452C83.3366 60.2661 81.2957 60.2661 79.3651 60.8452C77.4345 61.4244 75.7245 62.5552 74.4558 64.0997C73.1871 65.6442 72.3873 67.5472 72.1942 69.533C71.946 72.2083 72.7458 74.8836 74.4558 76.9521C76.1658 79.0206 78.6204 80.3444 81.2957 80.6202L81.3233 80.6754ZM46.5446 71.5739C46.7377 73.5597 47.5099 75.4627 48.7786 77.0348C50.0473 78.6069 51.7573 79.7377 53.6603 80.3169C55.5909 80.896 57.6319 80.9236 59.5625 80.3444C61.4931 79.7653 63.2031 78.6345 64.4718 77.09C65.768 75.5455 66.5403 73.67 66.7609 71.6567C66.9816 69.6709 66.5954 67.6575 65.6577 65.8648C64.72 64.0997 63.2858 62.638 61.5207 61.6726C59.7555 60.7073 57.7422 60.2936 55.7564 60.4867C53.0811 60.7625 50.6265 62.0588 48.9165 64.1273C47.2065 66.1958 46.3791 68.8435 46.6274 71.5188L46.5446 71.5739Z" fill="#EA5769"/>
<path d="M92.8529 49.2034C94.0388 48.4311 93.6251 44.956 88.7986 42.5565C84.9374 40.6259 82.1518 41.5085 81.9311 43.6046C81.6277 46.4178 85.6269 46.0316 88.0815 47.3555C90.8947 48.8172 91.8048 49.8929 92.8529 49.2034Z" fill="#1F193C"/>
<path d="M50.792 48.2906C49.9095 47.1598 51.3988 44.0433 56.6942 43.2434C60.9691 42.6091 63.341 44.2915 62.8446 46.4152C62.2654 49.2008 58.5697 47.5735 55.8116 48.07C52.7227 48.5664 51.5367 49.2835 50.792 48.2906Z" fill="#1F193C"/>
<path d="M108.739 64.2327C108.739 64.2327 109.014 74.6029 124.101 73.1963C124.101 73.1963 129.672 53.4764 121.701 49.6428C121.508 49.5325 121.288 49.4773 121.067 49.4773C120.846 49.4773 120.626 49.5325 120.433 49.6428C119.55 50.1392 117.95 51.601 115.303 55.6553C110.642 62.7434 108.739 64.2327 108.739 64.2327Z" fill="#60C3EC"/>
<path d="M120.268 81.2583C119.44 81.2583 118.751 80.3206 118.751 79.1347C118.751 77.9763 119.44 77.011 120.268 77.011C121.095 77.011 121.785 77.9487 121.785 79.1347C121.785 80.3206 121.095 81.2583 120.268 81.2583Z" fill="#1F193C"/>
<path d="M115.028 80.4888C114.2 80.4888 113.511 79.5511 113.511 78.3651C113.511 77.2068 114.2 76.2415 115.028 76.2415C115.855 76.2415 116.544 77.1792 116.544 78.3651C116.544 79.5511 115.883 80.4888 115.028 80.4888Z" fill="#1F193C"/>
<path d="M111.908 85.7568C108.067 85.0622 96.5137 91.0533 104.882 101.702C102.932 95.047 103.615 89.7221 111.908 85.7568Z" fill="#60C3EC"/>
<path d="M124.844 169.396L100.988 166.941L99.8843 126.426L134.111 129.928L124.844 169.396Z" fill="#4D1B4B"/>
<path d="M137.533 130.286L96.4387 126.094L97.5695 121.847L137.285 125.901L137.533 130.286Z" fill="#ECF6F9"/>
<path d="M112.238 92.3219C113.783 92.4874 126.718 93.8664 128.483 101.727C129.762 106.699 127.687 116.873 126.024 124.77L121.225 124.273C122.833 116.623 124.996 107.058 123.822 102.775C122.881 99.3416 115.52 97.4519 111.935 97.0933H111.824C111.19 97.0382 110.611 96.7348 110.197 96.2383C109.783 95.7419 109.59 95.1075 109.646 94.4732C109.701 93.8388 110.004 93.2597 110.501 92.846C110.969 92.4874 111.604 92.2944 112.238 92.3219Z" fill="#C15898"/>
<path d="M122.612 117.326C122.942 115.671 123.246 113.988 123.522 112.334C125.121 111.754 126.804 111.341 128.514 111.148C128.293 112.94 127.99 114.788 127.631 116.581H127.217C126.5 116.664 125.783 116.774 125.066 116.884C124.818 116.94 123.66 117.105 122.612 117.326Z" fill="#ECF6F9"/>
<path d="M117.812 93.384C119.467 93.8253 121.094 94.4597 122.611 95.2319C120.956 95.9766 119.577 97.1901 118.584 98.6794C116.736 98.0175 114.833 97.5486 112.875 97.2453C114.116 95.5077 115.826 94.1563 117.812 93.384Z" fill="#ECF6F9"/>
<path d="M128.128 100.445C128.321 100.859 128.459 101.3 128.569 101.769C128.817 102.982 128.928 104.223 128.9 105.464C127.163 105.933 125.535 106.678 124.046 107.671C124.212 106.071 124.156 104.444 123.881 102.844C123.798 102.569 123.688 102.265 123.55 102.017C125.039 101.355 126.583 100.831 128.128 100.445Z" fill="#ECF6F9"/>
</g>
</svg>
