<?xml version="1.0" encoding="utf-8"?>
<svg width="80" height="80" viewBox="0 0 80 80" fill="none" xmlns="http://www.w3.org/2000/svg">
<mask id="mask0" mask-type="alpha" maskUnits="userSpaceOnUse" x="0" y="0" width="80" height="80">
<circle cx="40" cy="40" r="40" fill="#C4C4C4"/>
</mask>
<g mask="url(#mask0)">
<circle cx="40" cy="40" r="40" fill="#985BD0"/>
<path d="M26.5435 71.1387C21.6849 72.0318 10.5488 88.5906 10.2112 89.1888C7.596 93.7697 10.6599 100.957 11.13 108.094L16.6168 107.76C16.1126 100.906 17.6039 93.133 17.6039 93.133L27.2102 82.3431L29.1374 73.5915L26.5435 71.1387Z" fill="#FFD3C0"/>
<path d="M53.4098 71.1387C58.2684 72.0318 69.4558 89.0179 69.7934 89.6162C72.4086 94.1971 69.3447 100.957 68.8746 108.094L63.3878 107.76C63.892 100.906 62.4007 93.133 62.4007 93.133L52.7944 82.3431L50.8672 73.5915L53.4098 71.1387Z" fill="#FFD3C0"/>
<path d="M53.4093 71.1392L43.8244 69.135L44.5979 62.332H39.9913H39.9785H35.3677L36.1283 69.135L26.5435 71.1392L27.8126 105.129H52.1359L53.4093 71.1392Z" fill="#FFD7B3"/>
<path d="M44.5979 62.332L43.9654 67.8659C42.9185 68.3658 41.4827 68.8316 39.9828 68.8316C38.4957 68.8316 37.0385 68.447 35.9958 67.9556L35.3677 62.3363H44.5979V62.332Z" fill="#E8C19A"/>
<path d="M26.5435 71.1387C21.6849 72.0318 10.5488 88.5906 10.2112 89.1888C7.596 93.7697 10.6599 100.957 11.13 108.094L16.6168 107.76C16.1126 100.906 17.6039 93.133 17.6039 93.133L27.2102 82.3431L29.1374 73.5915L26.5435 71.1387Z" fill="#FFD7B3"/>
<path d="M53.4093 71.1387C58.2679 72.0318 69.4553 89.0179 69.7929 89.6162C72.4081 94.1971 69.3442 100.957 68.8741 108.094L63.3873 107.76C63.8915 100.906 62.4002 93.133 62.4002 93.133L52.7939 82.3431L50.8667 73.5915L53.4093 71.1387Z" fill="#FFD7B3"/>
<path d="M22.4075 22.3759C20.7025 18.9701 17.5488 19.312 17.5488 19.312C17.5488 19.312 20.2538 16.2139 23.7792 17.4788C24.7877 17.842 25.5911 18.4744 26.1979 19.1282C34.3768 7.55632 51.9142 13.3252 57.3669 20.4102C63.0973 27.8542 58.8881 38.2253 69.9259 36.1015C69.9259 36.1015 67.4645 46.2377 57.0549 44.7805L47.5641 40.9047L20.882 44.8061C20.882 44.8061 15.3054 41.9516 14.6986 34.8068C13.9337 25.8287 19.3137 23.1665 22.4075 22.3759Z" fill="#E0A33F"/>
<path d="M54.5418 45.8867C54.5418 45.8867 57.9476 41.8356 60.9175 43.4338C63.8874 45.032 64.6437 50.8436 60.003 54.1725C56.4391 56.7279 53.606 55.7707 53.606 55.7707L54.5418 45.8867Z" fill="#E8C19A"/>
<path d="M25.5652 45.8867C25.5652 45.8867 22.1594 41.8356 19.1895 43.4338C16.2196 45.032 15.4633 50.8436 20.104 54.1725C23.6679 56.7279 26.5011 55.7707 26.5011 55.7707L25.5652 45.8867Z" fill="#E8C19A"/>
<path d="M40.0003 67.6124C43.4317 67.6124 46.6879 65.4544 48.6237 64.7152C52.1619 63.3606 58.5846 57.2242 56.4181 45.6523C57.0548 29.3883 53.8029 22.8374 40.043 22.8203C26.2832 22.8033 22.9501 29.3627 23.5868 45.6266C21.4203 57.1985 27.8429 63.3306 31.3812 64.6895C33.3127 65.4331 36.5689 67.6124 40.0003 67.6124Z" fill="#FFD7B3"/>
<path d="M27.9326 40.7802C27.9326 40.7802 30.1632 38.2462 33.1161 39.2247C34.4408 39.6649 34.2869 40.9682 34.2869 40.9682C31.505 39.8144 27.9326 40.7802 27.9326 40.7802Z" fill="#D89330"/>
<path d="M52.2514 40.7802C52.2514 40.7802 50.0207 38.2462 47.0679 39.2247C45.7432 39.6649 45.8971 40.9682 45.8971 40.9682C48.6789 39.8144 52.2514 40.7802 52.2514 40.7802Z" fill="#D89330"/>
<path d="M35.4237 47.4376C35.4237 47.4376 33.8725 49.0657 31.0821 48.9332C28.7746 48.8221 27.9541 47.6128 27.9541 47.6128C26.138 45.2668 27.6422 42.8011 30.3087 42.4294C32.4111 42.1345 34.9836 43.2456 35.4237 47.4376Z" fill="white"/>
<path d="M33.8939 45.4669C33.6289 44.2319 32.3641 43.4414 31.065 43.702C31.0607 43.702 31.0522 43.7063 31.0479 43.7063C31.2146 43.873 31.3342 44.0824 31.3855 44.3217C31.5308 45.0011 31.0821 45.6635 30.3813 45.8045C29.9369 45.8942 29.501 45.7489 29.2061 45.4583C29.1378 45.7617 29.1292 46.0822 29.1976 46.4027C29.4625 47.6377 30.7274 48.4282 32.0265 48.1676C33.3213 47.9112 34.1588 46.7019 33.8939 45.4669Z" fill="#1D6B47"/>
<path d="M44.7563 47.463C44.7563 47.463 46.3075 49.0911 49.098 48.9586C51.4055 48.8475 52.226 47.6382 52.226 47.6382C54.0421 45.2922 52.5379 42.8265 49.8714 42.4548C47.769 42.1599 45.2008 43.271 44.7563 47.463Z" fill="white"/>
<path d="M50.9954 45.4981C50.7305 44.2632 49.4656 43.4726 48.1666 43.7333C48.1623 43.7333 48.1537 43.7376 48.1495 43.7376C48.3161 43.9042 48.4358 44.1136 48.4871 44.3529C48.6323 45.0324 48.1837 45.6947 47.4828 45.8357C47.0384 45.9255 46.6026 45.7802 46.3077 45.4896C46.2393 45.793 46.2308 46.1135 46.2992 46.434C46.5641 47.6689 47.829 48.4595 49.128 48.1988C50.4271 47.9424 51.2604 46.7288 50.9954 45.4981Z" fill="#1D6B47"/>
<path d="M25.7231 25.6922C35.2225 39.3409 57.3707 37.5291 57.3707 37.5291L60.3192 35.2557L54.8537 22.889L33.15 17.8594L25.4111 21.8506L25.7231 25.6922Z" fill="#E0A33F"/>
<path d="M32.0005 55.0312C32.0005 55.0312 33.7141 55.5825 36.4489 56.185L40.5042 57.702L43.5981 56.5098C46.8201 56.0825 48.5849 55.3688 48.5849 55.3688C48.5849 55.3688 47.7431 59.1677 44.2903 60.8984L40.2735 60.2531L35.9105 60.6078C32.603 58.6977 32.0005 55.0312 32.0005 55.0312Z" fill="#212121"/>
<path d="M39.9018 58.0907C41.8632 58.1804 42.9998 57.2488 43.5853 56.5181C42.6922 56.6378 41.6922 56.7061 40.5855 56.6848C39.0343 56.6549 37.6369 56.454 36.4404 56.1934C37.0002 56.9583 38.0942 58.0095 39.9018 58.0907Z" fill="white"/>
<path d="M35.9019 60.6213C37.0214 61.2709 38.4487 61.7196 40.2648 61.758C41.8972 61.7922 43.2176 61.4461 44.2902 60.9077C43.3159 60.1427 41.7818 59.63 40.0426 59.5958C38.3889 59.5616 36.9061 59.9633 35.9019 60.6213Z" fill="#C94747"/>
<path d="M39.6714 53.5069C39.6714 53.5069 41.9191 53.6095 42.5045 51.7079C43.1413 49.6311 40.3551 48.4004 40.3551 48.4004C40.3551 48.4004 42.0772 49.9815 41.5388 51.6481C41.1457 52.8488 39.6714 53.5069 39.6714 53.5069Z" fill="#D69E7F"/>
<path d="M48.6661 52.6612C52.0174 52.6612 54.7341 51.3449 54.7341 49.7212C54.7341 48.0975 52.0174 46.7812 48.6661 46.7812C45.3149 46.7812 42.5981 48.0975 42.5981 49.7212C42.5981 51.3449 45.3149 52.6612 48.6661 52.6612Z" fill="#FFD7B3"/>
<path d="M31.5905 52.6612C34.9417 52.6612 37.6585 51.3449 37.6585 49.7212C37.6585 48.0975 34.9417 46.7812 31.5905 46.7812C28.2392 46.7812 25.5225 48.0975 25.5225 49.7212C25.5225 51.3449 28.2392 52.6612 31.5905 52.6612Z" fill="#FFD7B3"/>
<path d="M53.4611 71.1367L50.7988 82.0207C51.3031 83.3966 55.9524 90.1484 55.9524 90.1484C59.8154 89.4005 64.11 87.0973 66.0116 82.0335C66.0116 82.0335 59.5974 71.6153 53.4611 71.1367Z" fill="#B3DA4D"/>
<path d="M26.5954 71.1367L29.1551 82.0207C28.6509 83.3966 24.0016 90.1484 24.0016 90.1484C20.1386 89.4005 15.844 87.0973 13.9424 82.0335C13.9424 82.0292 20.4591 71.6153 26.5954 71.1367Z" fill="#B3DA4D"/>
<path d="M46.9274 69.7734C46.483 71.2221 44.9532 74.3159 39.9492 74.3159C34.9794 74.3159 33.4368 71.2648 32.9838 69.8034L26.5954 71.1366C26.5954 71.1366 25.8219 101.669 25.1382 109.963C26.5441 110.408 32.5864 112.104 39.7398 112.151C46.9488 112.194 53.3245 110.42 54.7731 109.963L53.4612 71.1366L46.9274 69.7734Z" fill="#B3DA4D"/>
</g>
</svg>
