<svg fill="none" height="150" viewBox="0 0 150 150" width="150" xmlns="http://www.w3.org/2000/svg" xmlns:xlink="http://www.w3.org/1999/xlink"><mask id="a" height="150" maskUnits="userSpaceOnUse" width="150" x="0" y="0"><circle cx="75" cy="75" fill="#c4c4c4" r="75"/></mask><g mask="url(#a)"><circle cx="75" cy="75" fill="#9c6bf0" r="75"/><path d="m152.682 131.004c1.751 11.321 3.784 17.733 6.036 19.234 3.534 2.377 6.536 2.689 9.038.938-.875 7.756-5.097 13.292-12.635 16.607h-64.4872v-39.969c26.1762-20.61 46.8492-19.546 62.0482 3.19z" fill="#b1eb46"/><g fill="#99c200"><path d="m57.189 57.4854v10.1099h-6.5021v-10.1099z"/><path d="m81.2905 58.2009v9.972h-6.5019v-9.972z"/><path d="m87.9313 36.5103c2.78 2.7802 4.1585 6.0889 4.1585 9.9719 0 3.8831-1.3785 7.2148-4.1585 9.972-2.78 2.6882-6.0885 4.0209-9.9713 4.0209s-7.2141-1.3327-9.9711-4.0209c-2.6881-2.7802-4.0207-6.0889-4.0207-9.972 0-3.883 1.3326-7.2147 4.0207-9.9719 2.78-2.7801 6.0883-4.1587 9.9711-4.1587s7.1913 1.3786 9.9713 4.1587z"/></g><path d="m84.4602 39.9788c1.838 1.7462 2.78 3.9291 2.78 6.5024 0 2.5734-.919 4.7562-2.78 6.5025-1.7461 1.8381-3.9288 2.78-6.502 2.78-2.5043 0-4.6639-.9189-6.5019-2.78-1.7461-1.7463-2.6422-3.9291-2.6422-6.5025 0-2.5733.8731-4.7562 2.6422-6.5024 1.838-1.8381 4.0205-2.7801 6.5019-2.7801 2.5732 0 4.7559.919 6.502 2.7801z" fill="#fff"/><path d="m79.5898 44.002c.6433.6434.9649 1.4706.9649 2.5046 0 1.0109-.3216 1.838-.9649 2.5043-.7352.7353-1.6084 1.103-2.6422 1.103-.919 0-1.7461-.3677-2.5043-1.103-.6433-.6433-.9649-1.4704-.9649-2.5043 0-1.011.3216-1.8382.9649-2.5046.7353-.7352 1.5623-1.1028 2.5043-1.1028 1.0338-.023 1.907.3446 2.6422 1.1028z" fill="#04070b"/><path d="m63.8298 36.5103c2.78 2.7802 4.1585 6.0889 4.1585 9.9719 0 3.8831-1.3785 7.2148-4.1585 9.972-2.6881 2.6882-5.9507 4.0209-9.8335 4.0209s-7.2141-1.3327-9.9711-4.0209c-2.78-2.7802-4.1585-6.0889-4.1585-9.972 0-3.883 1.3785-7.2147 4.1585-9.9719 2.78-2.7801 6.0883-4.1587 9.9711-4.1587s7.1454 1.3786 9.8335 4.1587z" fill="#99c200"/><path d="m60.497 39.9788c1.7461 1.7462 2.6422 3.9291 2.6422 6.5024 0 2.5734-.8732 4.7562-2.6422 6.5025-1.7462 1.8381-3.9288 2.78-6.5021 2.78-2.5962 0-4.7557-.9189-6.5018-2.78-1.8381-1.7463-2.7801-3.9291-2.7801-6.5025 0-2.5733.9191-4.7562 2.7801-6.5024 1.7461-1.8381 3.9286-2.7801 6.5018-2.7801 2.5733 0 4.7559.919 6.5021 2.7801z" fill="#fff"/><path d="m55.4885 44.002c.7353.7353 1.1028 1.5625 1.1028 2.5046 0 1.0109-.3675 1.838-1.1028 2.5043-.7352.7353-1.5623 1.103-2.5043 1.103-1.0109 0-1.8839-.3677-2.6421-1.103-.6433-.6433-.965-1.4704-.965-2.5043 0-1.011.3217-1.8382.965-2.5046.7352-.7352 1.6082-1.1028 2.6421-1.1028.942-.023 1.7691.3446 2.5043 1.1028z" fill="#04070b"/><path d="m77.2792 65.0239h-21.8608c-6.4112 0-11.8842 2.2518-16.419 6.7866-4.5348 4.5347-6.7865 9.9452-6.7865 16.2001v65.7754c0 10.32 3.6591 19.108 10.946 26.395s16.075 10.946 26.3955 10.946l54.1046-23.336c1.626-7.161 1.876-16.794.751-28.835-1.251-12.071-5.599-20.484-13.011-25.269-7.412-4.91-11.133-10.508-11.133-16.7945v-8.8507c0-6.2861-2.2519-11.6966-6.7867-16.2001-4.4097-4.5347-9.7889-6.8178-16.2001-6.8178z" fill="#b1eb46"/><path d="m89.7222 82.3389c0 6.4561-2.2976 11.9704-6.9156 16.4736-4.7099 4.6185-10.2928 6.9155-16.7719 6.9155-6.5479 0-12.1999-2.297-16.9098-6.9155-4.618-4.5262-6.9156-10.0175-6.9156-16.4736l23.1361 1.1028z" fill="#04070b"/><path d="m43.7517 86.7912c1.0008 1.2822 2.4081 2.1266 4.1595 2.5019 1.8452.4691 3.5965.1251 5.2541-.9695 1.7513-1.0008 2.8146-2.5019 3.1899-4.4409l.1251-1.5325h-14.2611c0 1.6576.5004 3.1587 1.5325 4.441z" fill="#fff"/><path d="m56.4814 82.3508c.0939 2.1267.8444 4.0031 2.2205 5.692 1.3761 1.6575 3.1275 2.7208 5.2541 3.19 2.5958.5629 4.9726.0938 7.1931-1.3761 2.2205-1.3761 3.5966-3.3777 4.1595-5.9422l.2815-1.376c0 1.5637.5003 3.0023 1.5324 4.2846 1.0946 1.1884 2.4394 2.0015 4.0031 2.3455 1.939.3753 3.7529.0313 5.4105-.9695 1.5637-1.0946 2.5957-2.5957 3.0336-4.4409l.1251-1.3761h-33.2134z" fill="#fff"/><path d="m132.882 97.7125c.045-4.6125-1.219-7.8196-3.801-9.6829-2.639-1.8216-6.29-2.3537-11.002-1.5239-4.651.819-8.57 2.9065-11.722 6.2877-3.034 3.3287-6.4277 5.5142-10.1456 6.5817-3.5422 1.1639-6.9805.7529-10.3767-1.2211-3.2729-1.9958-7.847-2.9051-13.6969-2.764-5.705.2425-10.6337 3.2698-14.8424 9.124 12.2793 10.222 25.2645 12.19 38.9664 5.967 13.7942-6.24 23.3242-8.744 28.5602-7.507 5.327 1.221 8-.551 8.06-5.2615z" fill="#ff8c8c"/></g></svg>